<svg width="359" height="260" viewBox="0 0 359 260" fill="none" xmlns="http://www.w3.org/2000/svg">
<mask id="path-1-inside-1_3681_8908" fill="white">
<path d="M120 100H239V160H120V100Z"/>
</mask>
<path d="M239 160V156H120V160V164H239V160Z" fill="#066FEF" mask="url(#path-1-inside-1_3681_8908)"/>
<path d="M136.172 124.547H140.75C141.656 124.547 142.331 124.586 142.773 124.664C143.221 124.737 143.62 124.893 143.969 125.133C144.323 125.372 144.617 125.693 144.852 126.094C145.086 126.49 145.203 126.935 145.203 127.43C145.203 127.966 145.057 128.458 144.766 128.906C144.479 129.354 144.089 129.69 143.594 129.914C144.292 130.117 144.828 130.464 145.203 130.953C145.578 131.443 145.766 132.018 145.766 132.68C145.766 133.201 145.643 133.708 145.398 134.203C145.159 134.693 144.828 135.086 144.406 135.383C143.99 135.674 143.474 135.854 142.859 135.922C142.474 135.964 141.544 135.99 140.07 136H136.172V124.547ZM138.484 126.453V129.102H140C140.901 129.102 141.461 129.089 141.68 129.062C142.076 129.016 142.385 128.88 142.609 128.656C142.839 128.427 142.953 128.128 142.953 127.758C142.953 127.404 142.854 127.117 142.656 126.898C142.464 126.674 142.174 126.539 141.789 126.492C141.56 126.466 140.901 126.453 139.812 126.453H138.484ZM138.484 131.008V134.07H140.625C141.458 134.07 141.987 134.047 142.211 134C142.555 133.938 142.833 133.786 143.047 133.547C143.266 133.302 143.375 132.977 143.375 132.57C143.375 132.227 143.292 131.935 143.125 131.695C142.958 131.456 142.716 131.281 142.398 131.172C142.086 131.062 141.404 131.008 140.352 131.008H138.484ZM153.172 136V134.758C152.87 135.201 152.471 135.549 151.977 135.805C151.487 136.06 150.969 136.188 150.422 136.188C149.865 136.188 149.365 136.065 148.922 135.82C148.479 135.576 148.159 135.232 147.961 134.789C147.763 134.346 147.664 133.734 147.664 132.953V127.703H149.859V131.516C149.859 132.682 149.898 133.398 149.977 133.664C150.06 133.924 150.208 134.133 150.422 134.289C150.635 134.44 150.906 134.516 151.234 134.516C151.609 134.516 151.945 134.414 152.242 134.211C152.539 134.003 152.742 133.747 152.852 133.445C152.961 133.138 153.016 132.391 153.016 131.203V127.703H155.211V136H153.172ZM161.297 127.703V129.453H159.797V132.797C159.797 133.474 159.81 133.87 159.836 133.984C159.867 134.094 159.932 134.185 160.031 134.258C160.135 134.331 160.26 134.367 160.406 134.367C160.609 134.367 160.904 134.297 161.289 134.156L161.477 135.859C160.966 136.078 160.388 136.188 159.742 136.188C159.346 136.188 158.99 136.122 158.672 135.992C158.354 135.857 158.12 135.685 157.969 135.477C157.823 135.263 157.721 134.977 157.664 134.617C157.617 134.362 157.594 133.846 157.594 133.07V129.453H156.586V127.703H157.594V126.055L159.797 124.773V127.703H161.297ZM166.625 127.703V129.453H165.125V132.797C165.125 133.474 165.138 133.87 165.164 133.984C165.195 134.094 165.26 134.185 165.359 134.258C165.464 134.331 165.589 134.367 165.734 134.367C165.938 134.367 166.232 134.297 166.617 134.156L166.805 135.859C166.294 136.078 165.716 136.188 165.07 136.188C164.674 136.188 164.318 136.122 164 135.992C163.682 135.857 163.448 135.685 163.297 135.477C163.151 135.263 163.049 134.977 162.992 134.617C162.945 134.362 162.922 133.846 162.922 133.07V129.453H161.914V127.703H162.922V126.055L165.125 124.773V127.703H166.625ZM167.641 131.734C167.641 131.005 167.82 130.299 168.18 129.617C168.539 128.935 169.047 128.414 169.703 128.055C170.365 127.695 171.102 127.516 171.914 127.516C173.169 127.516 174.198 127.924 175 128.742C175.802 129.555 176.203 130.583 176.203 131.828C176.203 133.083 175.797 134.125 174.984 134.953C174.177 135.776 173.159 136.188 171.93 136.188C171.169 136.188 170.443 136.016 169.75 135.672C169.062 135.328 168.539 134.826 168.18 134.164C167.82 133.497 167.641 132.688 167.641 131.734ZM169.891 131.852C169.891 132.674 170.086 133.305 170.477 133.742C170.867 134.18 171.349 134.398 171.922 134.398C172.495 134.398 172.974 134.18 173.359 133.742C173.75 133.305 173.945 132.669 173.945 131.836C173.945 131.023 173.75 130.398 173.359 129.961C172.974 129.523 172.495 129.305 171.922 129.305C171.349 129.305 170.867 129.523 170.477 129.961C170.086 130.398 169.891 131.029 169.891 131.852ZM185.477 136H183.281V131.766C183.281 130.87 183.234 130.292 183.141 130.031C183.047 129.766 182.893 129.56 182.68 129.414C182.471 129.268 182.219 129.195 181.922 129.195C181.542 129.195 181.201 129.299 180.898 129.508C180.596 129.716 180.388 129.992 180.273 130.336C180.164 130.68 180.109 131.315 180.109 132.242V136H177.914V127.703H179.953V128.922C180.677 127.984 181.589 127.516 182.688 127.516C183.172 127.516 183.615 127.604 184.016 127.781C184.417 127.953 184.719 128.174 184.922 128.445C185.13 128.716 185.273 129.023 185.352 129.367C185.435 129.711 185.477 130.203 185.477 130.844V136ZM192.242 136V124.641H194.555V134.07H200.305V136H192.242ZM201.945 126.578V124.547H204.141V126.578H201.945ZM201.945 136V127.703H204.141V136H201.945ZM213.945 136H211.75V131.766C211.75 130.87 211.703 130.292 211.609 130.031C211.516 129.766 211.362 129.56 211.148 129.414C210.94 129.268 210.688 129.195 210.391 129.195C210.01 129.195 209.669 129.299 209.367 129.508C209.065 129.716 208.857 129.992 208.742 130.336C208.633 130.68 208.578 131.315 208.578 132.242V136H206.383V127.703H208.422V128.922C209.146 127.984 210.057 127.516 211.156 127.516C211.641 127.516 212.083 127.604 212.484 127.781C212.885 127.953 213.188 128.174 213.391 128.445C213.599 128.716 213.742 129.023 213.82 129.367C213.904 129.711 213.945 130.203 213.945 130.844V136ZM216.102 136V124.547H218.297V130.625L220.867 127.703H223.57L220.734 130.734L223.773 136H221.406L219.32 132.273L218.297 133.344V136H216.102Z" fill="#066FEF"/>
<g clip-path="url(#clip0_3681_8908)">
<rect x="72" y="130" width="48" height="1" fill="#C54600"/>
<g clip-path="url(#clip1_3681_8908)">
<rect x="72" y="118" width="24" height="24" rx="12" fill="#C54600"/>
<path d="M85.5687 125.273V134H83.7235V127.024H83.6724L81.6738 128.277V126.641L83.8343 125.273H85.5687Z" fill="white"/>
</g>
</g>
<g clip-path="url(#clip2_3681_8908)">
<rect x="223.773" y="130.367" width="63.2266" height="1" fill="#C54600"/>
<g clip-path="url(#clip3_3681_8908)">
<rect x="263" y="118.367" width="24" height="24" rx="12" fill="#C54600"/>
<path d="M271.928 134.367V133.038L275.035 130.161C275.299 129.906 275.52 129.675 275.699 129.471C275.881 129.266 276.019 129.066 276.113 128.87C276.206 128.671 276.253 128.457 276.253 128.227C276.253 127.971 276.195 127.751 276.079 127.566C275.962 127.379 275.803 127.235 275.601 127.136C275.4 127.033 275.171 126.982 274.915 126.982C274.648 126.982 274.415 127.036 274.216 127.144C274.018 127.252 273.864 127.407 273.756 127.609C273.648 127.81 273.594 128.05 273.594 128.329H271.843C271.843 127.758 271.972 127.262 272.231 126.842C272.489 126.421 272.851 126.096 273.317 125.866C273.783 125.636 274.32 125.521 274.928 125.521C275.553 125.521 276.097 125.631 276.56 125.853C277.026 126.072 277.388 126.376 277.647 126.765C277.905 127.154 278.035 127.6 278.035 128.103C278.035 128.433 277.969 128.758 277.839 129.079C277.711 129.4 277.482 129.756 277.153 130.148C276.823 130.538 276.358 131.005 275.759 131.55L274.485 132.799V132.859H278.15V134.367H271.928Z" fill="white"/>
</g>
</g>
<defs>
<clipPath id="clip0_3681_8908">
<rect width="48" height="24" fill="white" transform="translate(72 118)"/>
</clipPath>
<clipPath id="clip1_3681_8908">
<rect x="72" y="118" width="24" height="24" rx="12" fill="white"/>
</clipPath>
<clipPath id="clip2_3681_8908">
<rect width="63.2266" height="24" fill="white" transform="translate(223.773 118.367)"/>
</clipPath>
<clipPath id="clip3_3681_8908">
<rect x="263" y="118.367" width="24" height="24" rx="12" fill="white"/>
</clipPath>
</defs>
</svg>
