<svg width="359" height="260" viewBox="0 0 359 260" fill="none" xmlns="http://www.w3.org/2000/svg">
<g opacity="0.2">
<path d="M136.172 124.547H140.75C141.656 124.547 142.331 124.586 142.773 124.664C143.221 124.737 143.62 124.893 143.969 125.133C144.323 125.372 144.617 125.693 144.852 126.094C145.086 126.49 145.203 126.935 145.203 127.43C145.203 127.966 145.057 128.458 144.766 128.906C144.479 129.354 144.089 129.69 143.594 129.914C144.292 130.117 144.828 130.464 145.203 130.953C145.578 131.443 145.766 132.018 145.766 132.68C145.766 133.201 145.643 133.708 145.398 134.203C145.159 134.693 144.828 135.086 144.406 135.383C143.99 135.674 143.474 135.854 142.859 135.922C142.474 135.964 141.544 135.99 140.07 136H136.172V124.547ZM138.484 126.453V129.102H140C140.901 129.102 141.461 129.089 141.68 129.062C142.076 129.016 142.385 128.88 142.609 128.656C142.839 128.427 142.953 128.128 142.953 127.758C142.953 127.404 142.854 127.117 142.656 126.898C142.464 126.674 142.174 126.539 141.789 126.492C141.56 126.466 140.901 126.453 139.812 126.453H138.484ZM138.484 131.008V134.07H140.625C141.458 134.07 141.987 134.047 142.211 134C142.555 133.938 142.833 133.786 143.047 133.547C143.266 133.302 143.375 132.977 143.375 132.57C143.375 132.227 143.292 131.935 143.125 131.695C142.958 131.456 142.716 131.281 142.398 131.172C142.086 131.062 141.404 131.008 140.352 131.008H138.484ZM153.172 136V134.758C152.87 135.201 152.471 135.549 151.977 135.805C151.487 136.06 150.969 136.188 150.422 136.188C149.865 136.188 149.365 136.065 148.922 135.82C148.479 135.576 148.159 135.232 147.961 134.789C147.763 134.346 147.664 133.734 147.664 132.953V127.703H149.859V131.516C149.859 132.682 149.898 133.398 149.977 133.664C150.06 133.924 150.208 134.133 150.422 134.289C150.635 134.44 150.906 134.516 151.234 134.516C151.609 134.516 151.945 134.414 152.242 134.211C152.539 134.003 152.742 133.747 152.852 133.445C152.961 133.138 153.016 132.391 153.016 131.203V127.703H155.211V136H153.172ZM161.297 127.703V129.453H159.797V132.797C159.797 133.474 159.81 133.87 159.836 133.984C159.867 134.094 159.932 134.185 160.031 134.258C160.135 134.331 160.26 134.367 160.406 134.367C160.609 134.367 160.904 134.297 161.289 134.156L161.477 135.859C160.966 136.078 160.388 136.188 159.742 136.188C159.346 136.188 158.99 136.122 158.672 135.992C158.354 135.857 158.12 135.685 157.969 135.477C157.823 135.263 157.721 134.977 157.664 134.617C157.617 134.362 157.594 133.846 157.594 133.07V129.453H156.586V127.703H157.594V126.055L159.797 124.773V127.703H161.297ZM166.625 127.703V129.453H165.125V132.797C165.125 133.474 165.138 133.87 165.164 133.984C165.195 134.094 165.26 134.185 165.359 134.258C165.464 134.331 165.589 134.367 165.734 134.367C165.938 134.367 166.232 134.297 166.617 134.156L166.805 135.859C166.294 136.078 165.716 136.188 165.07 136.188C164.674 136.188 164.318 136.122 164 135.992C163.682 135.857 163.448 135.685 163.297 135.477C163.151 135.263 163.049 134.977 162.992 134.617C162.945 134.362 162.922 133.846 162.922 133.07V129.453H161.914V127.703H162.922V126.055L165.125 124.773V127.703H166.625ZM167.641 131.734C167.641 131.005 167.82 130.299 168.18 129.617C168.539 128.935 169.047 128.414 169.703 128.055C170.365 127.695 171.102 127.516 171.914 127.516C173.169 127.516 174.198 127.924 175 128.742C175.802 129.555 176.203 130.583 176.203 131.828C176.203 133.083 175.797 134.125 174.984 134.953C174.177 135.776 173.159 136.188 171.93 136.188C171.169 136.188 170.443 136.016 169.75 135.672C169.062 135.328 168.539 134.826 168.18 134.164C167.82 133.497 167.641 132.688 167.641 131.734ZM169.891 131.852C169.891 132.674 170.086 133.305 170.477 133.742C170.867 134.18 171.349 134.398 171.922 134.398C172.495 134.398 172.974 134.18 173.359 133.742C173.75 133.305 173.945 132.669 173.945 131.836C173.945 131.023 173.75 130.398 173.359 129.961C172.974 129.523 172.495 129.305 171.922 129.305C171.349 129.305 170.867 129.523 170.477 129.961C170.086 130.398 169.891 131.029 169.891 131.852ZM185.477 136H183.281V131.766C183.281 130.87 183.234 130.292 183.141 130.031C183.047 129.766 182.893 129.56 182.68 129.414C182.471 129.268 182.219 129.195 181.922 129.195C181.542 129.195 181.201 129.299 180.898 129.508C180.596 129.716 180.388 129.992 180.273 130.336C180.164 130.68 180.109 131.315 180.109 132.242V136H177.914V127.703H179.953V128.922C180.677 127.984 181.589 127.516 182.688 127.516C183.172 127.516 183.615 127.604 184.016 127.781C184.417 127.953 184.719 128.174 184.922 128.445C185.13 128.716 185.273 129.023 185.352 129.367C185.435 129.711 185.477 130.203 185.477 130.844V136ZM192.242 136V124.641H194.555V134.07H200.305V136H192.242ZM201.945 126.578V124.547H204.141V126.578H201.945ZM201.945 136V127.703H204.141V136H201.945ZM213.945 136H211.75V131.766C211.75 130.87 211.703 130.292 211.609 130.031C211.516 129.766 211.362 129.56 211.148 129.414C210.94 129.268 210.688 129.195 210.391 129.195C210.01 129.195 209.669 129.299 209.367 129.508C209.065 129.716 208.857 129.992 208.742 130.336C208.633 130.68 208.578 131.315 208.578 132.242V136H206.383V127.703H208.422V128.922C209.146 127.984 210.057 127.516 211.156 127.516C211.641 127.516 212.083 127.604 212.484 127.781C212.885 127.953 213.188 128.174 213.391 128.445C213.599 128.716 213.742 129.023 213.82 129.367C213.904 129.711 213.945 130.203 213.945 130.844V136ZM216.102 136V124.547H218.297V130.625L220.867 127.703H223.57L220.734 130.734L223.773 136H221.406L219.32 132.273L218.297 133.344V136H216.102Z" fill="#FEFEFE"/>
</g>
<rect x="119.5" y="99.5" width="120" height="61" stroke="#0D69D4"/>
<g clip-path="url(#clip0_3681_9066)">
<path d="M64.2929 51.2929C63.9024 51.6834 63.9024 52.3166 64.2929 52.7071L70.6569 59.0711C71.0474 59.4616 71.6805 59.4616 72.0711 59.0711C72.4616 58.6805 72.4616 58.0474 72.0711 57.6569L66.4142 52L72.0711 46.3431C72.4616 45.9526 72.4616 45.3195 72.0711 44.9289C71.6805 44.5384 71.0474 44.5384 70.6569 44.9289L64.2929 51.2929ZM95.7071 52.7071C96.0976 52.3166 96.0976 51.6834 95.7071 51.2929L89.3431 44.9289C88.9526 44.5384 88.3195 44.5384 87.9289 44.9289C87.5384 45.3195 87.5384 45.9526 87.9289 46.3431L93.5858 52L87.9289 57.6569C87.5384 58.0474 87.5384 58.6805 87.9289 59.0711C88.3195 59.4616 88.9526 59.4616 89.3431 59.0711L95.7071 52.7071ZM65 52V53H95V52V51H65V52Z" fill="#6B6B6B"/>
</g>
<path fill-rule="evenodd" clip-rule="evenodd" d="M64.0001 44L64 45L64.0001 49.024L64 50.024L64.0001 54.0185L64 55.0185L64.0001 59.014L64 60.014H65.0001H68.9891H69.9891H74.0113H75.0113H79H80V59.014V55.0185V54.0185V50.024V49.024V45V44H79H75.0113H74.0113H69.9891H68.9891H65.0001H64.0001ZM65.0001 45V49.024H68.9891V45H65.0001ZM65.0001 50.024V54.0185H68.9891V50.024H65.0001ZM65.0001 55.0185V59.014H68.9891V55.0185H65.0001ZM79 55.0185V59.014H75.0113V55.0185H79ZM79 50.024V54.0185H75.0113V50.024H79ZM79 45V49.024H75.0113V45H79ZM74.0113 45H69.9891V48.9915H74.0113V45ZM74.0113 55.0225H69.9891V59.014H74.0113V55.0225Z" fill="#6B6B6B"/>
<g clip-path="url(#clip1_3681_9066)">
<line x1="72.25" y1="100.75" x2="72.25" y2="159.25" stroke="#0D69D4" stroke-width="1.5" stroke-linecap="square"/>
<line x1="77.25" y1="100.75" x2="66.75" y2="100.75" stroke="#0D69D4" stroke-width="1.5" stroke-linecap="round"/>
<line x1="66.75" y1="159.25" x2="77.25" y2="159.25" stroke="#0D69D4" stroke-width="1.5" stroke-linecap="round"/>
</g>
<g clip-path="url(#clip2_3681_9066)">
<path d="M110.22 50.7197C109.927 51.0126 109.927 51.4874 110.22 51.7803L114.993 56.5533C115.286 56.8462 115.76 56.8462 116.053 56.5533C116.346 56.2604 116.346 55.7855 116.053 55.4926L111.811 51.25L116.053 47.0074C116.346 46.7145 116.346 46.2396 116.053 45.9467C115.76 45.6538 115.286 45.6538 114.993 45.9467L110.22 50.7197ZM178.78 51.7803C179.073 51.4874 179.073 51.0126 178.78 50.7197L174.007 45.9467C173.714 45.6538 173.24 45.6538 172.947 45.9467C172.654 46.2396 172.654 46.7145 172.947 47.0074L177.189 51.25L172.947 55.4926C172.654 55.7855 172.654 56.2604 172.947 56.5533C173.24 56.8462 173.714 56.8462 174.007 56.5533L178.78 51.7803ZM110.75 51.25V52H178.25V51.25V50.5H110.75V51.25Z" fill="#0D69D4"/>
<path d="M180.22 50.7197C179.927 51.0126 179.927 51.4874 180.22 51.7803L184.993 56.5533C185.286 56.8462 185.76 56.8462 186.053 56.5533C186.346 56.2604 186.346 55.7855 186.053 55.4926L181.811 51.25L186.053 47.0074C186.346 46.7145 186.346 46.2396 186.053 45.9467C185.76 45.6538 185.286 45.6538 184.993 45.9467L180.22 50.7197ZM248.78 51.7803C249.073 51.4874 249.073 51.0126 248.78 50.7197L244.007 45.9467C243.714 45.6538 243.24 45.6538 242.947 45.9467C242.654 46.2396 242.654 46.7145 242.947 47.0074L247.189 51.25L242.947 55.4926C242.654 55.7855 242.654 56.2604 242.947 56.5533C243.24 56.8462 243.714 56.8462 244.007 56.5533L248.78 51.7803ZM180.75 51.25V52H248.25V51.25V50.5H180.75V51.25Z" fill="#0D69D4"/>
</g>
<g clip-path="url(#clip3_3681_9066)">
<path d="M125.146 91.1464C124.951 91.3417 124.951 91.6583 125.146 91.8536L128.328 95.0355C128.524 95.2308 128.84 95.2308 129.036 95.0355C129.231 94.8403 129.231 94.5237 129.036 94.3284L126.207 91.5L129.036 88.6716C129.231 88.4763 129.231 88.1597 129.036 87.9645C128.84 87.7692 128.524 87.7692 128.328 87.9645L125.146 91.1464ZM178.854 91.8536C179.049 91.6583 179.049 91.3417 178.854 91.1464L175.672 87.9645C175.476 87.7692 175.16 87.7692 174.964 87.9645C174.769 88.1597 174.769 88.4763 174.964 88.6716L177.793 91.5L174.964 94.3284C174.769 94.5237 174.769 94.8403 174.964 95.0355C175.16 95.2308 175.476 95.2308 175.672 95.0355L178.854 91.8536ZM125.5 91.5V92H178.5V91.5V91H125.5V91.5Z" fill="#0D69D4"/>
<path d="M180.146 91.1464C179.951 91.3417 179.951 91.6583 180.146 91.8536L183.328 95.0355C183.524 95.2308 183.84 95.2308 184.036 95.0355C184.231 94.8403 184.231 94.5237 184.036 94.3284L181.207 91.5L184.036 88.6716C184.231 88.4763 184.231 88.1597 184.036 87.9645C183.84 87.7692 183.524 87.7692 183.328 87.9645L180.146 91.1464ZM233.854 91.8536C234.049 91.6583 234.049 91.3417 233.854 91.1464L230.672 87.9645C230.476 87.7692 230.16 87.7692 229.964 87.9645C229.769 88.1597 229.769 88.4763 229.964 88.6716L232.793 91.5L229.964 94.3284C229.769 94.5237 229.769 94.8403 229.964 95.0355C230.16 95.2308 230.476 95.2308 230.672 95.0355L233.854 91.8536ZM180.5 91.5V92H233.5V91.5V91H180.5V91.5Z" fill="#0D69D4"/>
</g>
<rect x="135" y="121" width="89" height="18" fill="#0D69D4" fill-opacity="0.25"/>
<rect x="120" y="100" width="119" height="15" fill="#007D00" fill-opacity="0.3"/>
<line x1="104" y1="100.5" x2="239" y2="100.5" stroke="#007D00"/>
<line x1="104" y1="114.5" x2="239" y2="114.5" stroke="#007D00"/>
<path d="M90.5043 102.773V111.5H88.6591V104.524H88.608L86.6094 105.777V104.141L88.7699 102.773H90.5043ZM95.766 111.619C95.1637 111.619 94.6268 111.509 94.1552 111.287C93.6864 111.065 93.3143 110.76 93.0387 110.371C92.7631 109.982 92.6197 109.536 92.6083 109.033H94.3981C94.418 109.371 94.56 109.645 94.8242 109.855C95.0884 110.065 95.4023 110.17 95.766 110.17C96.0558 110.17 96.3114 110.107 96.533 109.979C96.7575 109.848 96.9322 109.668 97.0572 109.438C97.185 109.205 97.2489 108.937 97.2489 108.636C97.2489 108.33 97.1836 108.06 97.0529 107.827C96.9251 107.594 96.7475 107.412 96.5202 107.281C96.293 107.151 96.033 107.084 95.7404 107.081C95.4847 107.081 95.2362 107.134 94.9947 107.239C94.756 107.344 94.57 107.487 94.4364 107.669L92.7958 107.375L93.2092 102.773H98.5444V104.281H94.7305L94.5046 106.467H94.5558C94.7092 106.251 94.9407 106.072 95.2504 105.93C95.56 105.788 95.9066 105.717 96.2901 105.717C96.8157 105.717 97.2844 105.841 97.6964 106.088C98.1083 106.335 98.4336 106.675 98.6722 107.107C98.9109 107.536 99.0288 108.03 99.0259 108.589C99.0288 109.178 98.8924 109.7 98.6168 110.158C98.3441 110.612 97.962 110.97 97.4705 111.232C96.9819 111.49 96.4137 111.619 95.766 111.619Z" fill="#007D00"/>
<rect x="120" y="145" width="119" height="15" fill="#007D00" fill-opacity="0.3"/>
<line x1="104" y1="145.5" x2="239" y2="145.5" stroke="#007D00"/>
<line x1="104" y1="159.5" x2="239" y2="159.5" stroke="#007D00"/>
<path d="M90.5043 147.773V156.5H88.6591V149.524H88.608L86.6094 150.777V149.141L88.7699 147.773H90.5043ZM95.766 156.619C95.1637 156.619 94.6268 156.509 94.1552 156.287C93.6864 156.065 93.3143 155.76 93.0387 155.371C92.7631 154.982 92.6197 154.536 92.6083 154.033H94.3981C94.418 154.371 94.56 154.645 94.8242 154.855C95.0884 155.065 95.4023 155.17 95.766 155.17C96.0558 155.17 96.3114 155.107 96.533 154.979C96.7575 154.848 96.9322 154.668 97.0572 154.438C97.185 154.205 97.2489 153.937 97.2489 153.636C97.2489 153.33 97.1836 153.06 97.0529 152.827C96.9251 152.594 96.7475 152.412 96.5202 152.281C96.293 152.151 96.033 152.084 95.7404 152.081C95.4847 152.081 95.2362 152.134 94.9947 152.239C94.756 152.344 94.57 152.487 94.4364 152.669L92.7958 152.375L93.2092 147.773H98.5444V149.281H94.7305L94.5046 151.467H94.5558C94.7092 151.251 94.9407 151.072 95.2504 150.93C95.56 150.788 95.9066 150.717 96.2901 150.717C96.8157 150.717 97.2844 150.841 97.6964 151.088C98.1083 151.335 98.4336 151.675 98.6722 152.107C98.9109 152.536 99.0288 153.03 99.0259 153.589C99.0288 154.178 98.8924 154.7 98.6168 155.158C98.3441 155.612 97.962 155.97 97.4705 156.232C96.9819 156.49 96.4137 156.619 95.766 156.619Z" fill="#007D00"/>
<rect x="120" y="115" width="15" height="30" fill="#007D00" fill-opacity="0.3"/>
<line x1="120.5" y1="84" x2="120.5" y2="160" stroke="#007D00"/>
<line x1="134.5" y1="84" x2="134.5" y2="160" stroke="#007D00"/>
<path d="M125.004 71.2727V80H123.159V73.0241H123.108L121.109 74.277V72.6406L123.27 71.2727H125.004ZM130.266 80.1193C129.664 80.1193 129.127 80.0085 128.655 79.7869C128.186 79.5653 127.814 79.2599 127.539 78.8707C127.263 78.4815 127.12 78.0355 127.108 77.5327H128.898C128.918 77.8707 129.06 78.1449 129.324 78.3551C129.588 78.5653 129.902 78.6705 130.266 78.6705C130.556 78.6705 130.811 78.6065 131.033 78.4787C131.257 78.348 131.432 78.1676 131.557 77.9375C131.685 77.7045 131.749 77.4375 131.749 77.1364C131.749 76.8295 131.684 76.5597 131.553 76.3267C131.425 76.0937 131.248 75.9119 131.02 75.7812C130.793 75.6506 130.533 75.5838 130.24 75.581C129.985 75.581 129.736 75.6335 129.495 75.7386C129.256 75.8437 129.07 75.9872 128.936 76.169L127.296 75.875L127.709 71.2727H133.044V72.7812H129.23L129.005 74.9673H129.056C129.209 74.7514 129.441 74.5724 129.75 74.4304C130.06 74.2884 130.407 74.2173 130.79 74.2173C131.316 74.2173 131.784 74.3409 132.196 74.5881C132.608 74.8352 132.934 75.1747 133.172 75.6065C133.411 76.0355 133.529 76.5298 133.526 77.0895C133.529 77.6776 133.392 78.2003 133.117 78.6577C132.844 79.1122 132.462 79.4702 131.971 79.7315C131.482 79.9901 130.914 80.1193 130.266 80.1193Z" fill="#007D00"/>
<rect x="224" y="115" width="15" height="30" fill="#007D00" fill-opacity="0.3"/>
<line x1="224.5" y1="84" x2="224.5" y2="160" stroke="#007D00"/>
<line x1="238.5" y1="84" x2="238.5" y2="160" stroke="#007D00"/>
<path d="M229.004 71.2727V80H227.159V73.0241H227.108L225.109 74.277V72.6406L227.27 71.2727H229.004ZM234.266 80.1193C233.664 80.1193 233.127 80.0085 232.655 79.7869C232.186 79.5653 231.814 79.2599 231.539 78.8707C231.263 78.4815 231.12 78.0355 231.108 77.5327H232.898C232.918 77.8707 233.06 78.1449 233.324 78.3551C233.588 78.5653 233.902 78.6705 234.266 78.6705C234.556 78.6705 234.811 78.6065 235.033 78.4787C235.257 78.348 235.432 78.1676 235.557 77.9375C235.685 77.7045 235.749 77.4375 235.749 77.1364C235.749 76.8295 235.684 76.5597 235.553 76.3267C235.425 76.0937 235.248 75.9119 235.02 75.7812C234.793 75.6506 234.533 75.5838 234.24 75.581C233.985 75.581 233.736 75.6335 233.495 75.7386C233.256 75.8437 233.07 75.9872 232.936 76.169L231.296 75.875L231.709 71.2727H237.044V72.7812H233.23L233.005 74.9673H233.056C233.209 74.7514 233.441 74.5724 233.75 74.4304C234.06 74.2884 234.407 74.2173 234.79 74.2173C235.316 74.2173 235.784 74.3409 236.196 74.5881C236.608 74.8352 236.934 75.1747 237.172 75.6065C237.411 76.0355 237.529 76.5298 237.526 77.0895C237.529 77.6776 237.392 78.2003 237.117 78.6577C236.844 79.1122 236.462 79.4702 235.971 79.7315C235.482 79.9901 234.914 80.1193 234.266 80.1193Z" fill="#007D00"/>
<defs>
<clipPath id="clip0_3681_9066">
<rect width="16" height="16" fill="white" transform="translate(80 44)"/>
</clipPath>
<clipPath id="clip1_3681_9066">
<rect width="60" height="16" fill="white" transform="matrix(0 1 -1 0 80 100)"/>
</clipPath>
<clipPath id="clip2_3681_9066">
<rect width="119" height="16" fill="white" transform="translate(120 44)"/>
</clipPath>
<clipPath id="clip3_3681_9066">
<rect width="89" height="16" fill="white" transform="translate(135 84)"/>
</clipPath>
</defs>
</svg>
