<svg width="664" height="280" viewBox="0 0 664 280" fill="none" xmlns="http://www.w3.org/2000/svg">
<rect width="664" height="280" fill="#F2F2F2"/>
<rect x="138.5" y="118.5" width="43" height="43" rx="21.5" stroke="#303030"/>
<path d="M163.818 152C163.517 152 163.273 151.776 163.273 151.5V149.806C163.273 148.519 164 147.359 165.172 146.779C168.711 145.028 170.909 141.652 170.909 137.968C170.909 134.174 168.614 130.752 164.921 129.038C164.757 128.961 164.611 129.024 164.557 129.055C164.498 129.088 164.364 129.184 164.364 129.367V135.991C164.364 138.198 162.407 139.994 160 139.994C157.593 139.994 155.636 138.198 155.636 135.991V129.366C155.636 129.183 155.502 129.088 155.443 129.054C155.39 129.024 155.243 128.96 155.079 129.037C151.386 130.752 149.091 134.174 149.091 137.968C149.091 141.652 151.289 145.028 154.828 146.779C156 147.359 156.727 148.519 156.727 149.806V151.5C156.727 151.776 156.483 152 156.182 152C155.881 152 155.636 151.776 155.636 151.5V149.806C155.636 148.887 155.128 148.065 154.31 147.659C150.419 145.733 148 142.019 148 137.967C148 133.795 150.523 130.03 154.587 128.144C155.041 127.934 155.576 127.956 156.016 128.202C156.461 128.453 156.727 128.89 156.727 129.366V135.99C156.727 137.645 158.196 138.992 160 138.992C161.804 138.992 163.273 137.645 163.273 135.99V129.366C163.273 128.889 163.539 128.453 163.984 128.202C164.424 127.955 164.959 127.933 165.413 128.144C169.477 130.03 172 133.794 172 137.967C172 142.019 169.581 145.733 165.69 147.659C164.872 148.064 164.364 148.887 164.364 149.806V151.5C164.364 151.776 164.119 152 163.818 152Z" fill="#303030"/>
<path d="M201.758 126V108.82H204.031V123.973H212.492V126H201.758ZM214.156 119.777C214.156 117.473 214.797 115.766 216.078 114.656C217.148 113.734 218.453 113.273 219.992 113.273C221.703 113.273 223.102 113.836 224.188 114.961C225.273 116.078 225.816 117.625 225.816 119.602C225.816 121.203 225.574 122.465 225.09 123.387C224.613 124.301 223.914 125.012 222.992 125.52C222.078 126.027 221.078 126.281 219.992 126.281C218.25 126.281 216.84 125.723 215.762 124.605C214.691 123.488 214.156 121.879 214.156 119.777ZM216.324 119.777C216.324 121.371 216.672 122.566 217.367 123.363C218.062 124.152 218.938 124.547 219.992 124.547C221.039 124.547 221.91 124.148 222.605 123.352C223.301 122.555 223.648 121.34 223.648 119.707C223.648 118.168 223.297 117.004 222.594 116.215C221.898 115.418 221.031 115.02 219.992 115.02C218.938 115.02 218.062 115.414 217.367 116.203C216.672 116.992 216.324 118.184 216.324 119.777ZM228.277 126V113.555H230.176V115.441C230.66 114.559 231.105 113.977 231.512 113.695C231.926 113.414 232.379 113.273 232.871 113.273C233.582 113.273 234.305 113.5 235.039 113.953L234.312 115.91C233.797 115.605 233.281 115.453 232.766 115.453C232.305 115.453 231.891 115.594 231.523 115.875C231.156 116.148 230.895 116.531 230.738 117.023C230.504 117.773 230.387 118.594 230.387 119.484V126H228.277ZM244.812 121.992L246.992 122.262C246.648 123.535 246.012 124.523 245.082 125.227C244.152 125.93 242.965 126.281 241.52 126.281C239.699 126.281 238.254 125.723 237.184 124.605C236.121 123.48 235.59 121.906 235.59 119.883C235.59 117.789 236.129 116.164 237.207 115.008C238.285 113.852 239.684 113.273 241.402 113.273C243.066 113.273 244.426 113.84 245.48 114.973C246.535 116.105 247.062 117.699 247.062 119.754C247.062 119.879 247.059 120.066 247.051 120.316H237.77C237.848 121.684 238.234 122.73 238.93 123.457C239.625 124.184 240.492 124.547 241.531 124.547C242.305 124.547 242.965 124.344 243.512 123.938C244.059 123.531 244.492 122.883 244.812 121.992ZM237.887 118.582H244.836C244.742 117.535 244.477 116.75 244.039 116.227C243.367 115.414 242.496 115.008 241.426 115.008C240.457 115.008 239.641 115.332 238.977 115.98C238.32 116.629 237.957 117.496 237.887 118.582ZM249.652 126V113.555H251.539V115.301C251.93 114.691 252.449 114.203 253.098 113.836C253.746 113.461 254.484 113.273 255.312 113.273C256.234 113.273 256.988 113.465 257.574 113.848C258.168 114.23 258.586 114.766 258.828 115.453C259.812 114 261.094 113.273 262.672 113.273C263.906 113.273 264.855 113.617 265.52 114.305C266.184 114.984 266.516 116.035 266.516 117.457V126H264.418V118.16C264.418 117.316 264.348 116.711 264.207 116.344C264.074 115.969 263.828 115.668 263.469 115.441C263.109 115.215 262.688 115.102 262.203 115.102C261.328 115.102 260.602 115.395 260.023 115.98C259.445 116.559 259.156 117.488 259.156 118.77V126H257.047V117.914C257.047 116.977 256.875 116.273 256.531 115.805C256.188 115.336 255.625 115.102 254.844 115.102C254.25 115.102 253.699 115.258 253.191 115.57C252.691 115.883 252.328 116.34 252.102 116.941C251.875 117.543 251.762 118.41 251.762 119.543V126H249.652ZM276.336 111.246V108.82H278.445V111.246H276.336ZM276.336 126V113.555H278.445V126H276.336ZM281.668 130.77V113.555H283.59V115.172C284.043 114.539 284.555 114.066 285.125 113.754C285.695 113.434 286.387 113.273 287.199 113.273C288.262 113.273 289.199 113.547 290.012 114.094C290.824 114.641 291.438 115.414 291.852 116.414C292.266 117.406 292.473 118.496 292.473 119.684C292.473 120.957 292.242 122.105 291.781 123.129C291.328 124.145 290.664 124.926 289.789 125.473C288.922 126.012 288.008 126.281 287.047 126.281C286.344 126.281 285.711 126.133 285.148 125.836C284.594 125.539 284.137 125.164 283.777 124.711V130.77H281.668ZM283.578 119.848C283.578 121.449 283.902 122.633 284.551 123.398C285.199 124.164 285.984 124.547 286.906 124.547C287.844 124.547 288.645 124.152 289.309 123.363C289.98 122.566 290.316 121.336 290.316 119.672C290.316 118.086 289.988 116.898 289.332 116.109C288.684 115.32 287.906 114.926 287 114.926C286.102 114.926 285.305 115.348 284.609 116.191C283.922 117.027 283.578 118.246 283.578 119.848ZM294.184 122.285L296.27 121.957C296.387 122.793 296.711 123.434 297.242 123.879C297.781 124.324 298.531 124.547 299.492 124.547C300.461 124.547 301.18 124.352 301.648 123.961C302.117 123.562 302.352 123.098 302.352 122.566C302.352 122.09 302.145 121.715 301.73 121.441C301.441 121.254 300.723 121.016 299.574 120.727C298.027 120.336 296.953 120 296.352 119.719C295.758 119.43 295.305 119.035 294.992 118.535C294.688 118.027 294.535 117.469 294.535 116.859C294.535 116.305 294.66 115.793 294.91 115.324C295.168 114.848 295.516 114.453 295.953 114.141C296.281 113.898 296.727 113.695 297.289 113.531C297.859 113.359 298.469 113.273 299.117 113.273C300.094 113.273 300.949 113.414 301.684 113.695C302.426 113.977 302.973 114.359 303.324 114.844C303.676 115.32 303.918 115.961 304.051 116.766L301.988 117.047C301.895 116.406 301.621 115.906 301.168 115.547C300.723 115.188 300.09 115.008 299.27 115.008C298.301 115.008 297.609 115.168 297.195 115.488C296.781 115.809 296.574 116.184 296.574 116.613C296.574 116.887 296.66 117.133 296.832 117.352C297.004 117.578 297.273 117.766 297.641 117.914C297.852 117.992 298.473 118.172 299.504 118.453C300.996 118.852 302.035 119.18 302.621 119.438C303.215 119.688 303.68 120.055 304.016 120.539C304.352 121.023 304.52 121.625 304.52 122.344C304.52 123.047 304.312 123.711 303.898 124.336C303.492 124.953 302.902 125.434 302.129 125.777C301.355 126.113 300.48 126.281 299.504 126.281C297.887 126.281 296.652 125.945 295.801 125.273C294.957 124.602 294.418 123.605 294.184 122.285ZM315.184 126V124.172C314.215 125.578 312.898 126.281 311.234 126.281C310.5 126.281 309.812 126.141 309.172 125.859C308.539 125.578 308.066 125.227 307.754 124.805C307.449 124.375 307.234 123.852 307.109 123.234C307.023 122.82 306.98 122.164 306.98 121.266V113.555H309.09V120.457C309.09 121.559 309.133 122.301 309.219 122.684C309.352 123.238 309.633 123.676 310.062 123.996C310.492 124.309 311.023 124.465 311.656 124.465C312.289 124.465 312.883 124.305 313.438 123.984C313.992 123.656 314.383 123.215 314.609 122.66C314.844 122.098 314.961 121.285 314.961 120.223V113.555H317.07V126H315.184ZM320.387 126V113.555H322.273V115.301C322.664 114.691 323.184 114.203 323.832 113.836C324.48 113.461 325.219 113.273 326.047 113.273C326.969 113.273 327.723 113.465 328.309 113.848C328.902 114.23 329.32 114.766 329.562 115.453C330.547 114 331.828 113.273 333.406 113.273C334.641 113.273 335.59 113.617 336.254 114.305C336.918 114.984 337.25 116.035 337.25 117.457V126H335.152V118.16C335.152 117.316 335.082 116.711 334.941 116.344C334.809 115.969 334.562 115.668 334.203 115.441C333.844 115.215 333.422 115.102 332.938 115.102C332.062 115.102 331.336 115.395 330.758 115.98C330.18 116.559 329.891 117.488 329.891 118.77V126H327.781V117.914C327.781 116.977 327.609 116.273 327.266 115.805C326.922 115.336 326.359 115.102 325.578 115.102C324.984 115.102 324.434 115.258 323.926 115.57C323.426 115.883 323.062 116.34 322.836 116.941C322.609 117.543 322.496 118.41 322.496 119.543V126H320.387Z" fill="#303030"/>
<path d="M201.025 152V141.979H202.352V150.817H207.287V152H201.025ZM208.258 148.37C208.258 147.026 208.632 146.03 209.379 145.383C210.003 144.845 210.764 144.576 211.662 144.576C212.66 144.576 213.476 144.904 214.109 145.561C214.743 146.212 215.06 147.115 215.06 148.268C215.06 149.202 214.918 149.938 214.636 150.476C214.358 151.009 213.95 151.424 213.412 151.72C212.879 152.016 212.296 152.164 211.662 152.164C210.646 152.164 209.823 151.838 209.194 151.187C208.57 150.535 208.258 149.596 208.258 148.37ZM209.522 148.37C209.522 149.3 209.725 149.997 210.131 150.462C210.536 150.922 211.047 151.152 211.662 151.152C212.273 151.152 212.781 150.92 213.187 150.455C213.592 149.99 213.795 149.282 213.795 148.329C213.795 147.431 213.59 146.752 213.18 146.292C212.774 145.827 212.268 145.595 211.662 145.595C211.047 145.595 210.536 145.825 210.131 146.285C209.725 146.745 209.522 147.44 209.522 148.37ZM216.495 152V144.74H217.603V145.841C217.885 145.326 218.145 144.986 218.382 144.822C218.623 144.658 218.888 144.576 219.175 144.576C219.59 144.576 220.011 144.708 220.439 144.973L220.016 146.114C219.715 145.937 219.414 145.848 219.113 145.848C218.844 145.848 218.603 145.93 218.389 146.094C218.174 146.253 218.022 146.477 217.931 146.764C217.794 147.201 217.726 147.68 217.726 148.199V152H216.495ZM226.141 149.662L227.412 149.819C227.212 150.562 226.84 151.139 226.298 151.549C225.756 151.959 225.063 152.164 224.22 152.164C223.158 152.164 222.315 151.838 221.69 151.187C221.071 150.53 220.761 149.612 220.761 148.432C220.761 147.21 221.075 146.262 221.704 145.588C222.333 144.913 223.149 144.576 224.151 144.576C225.122 144.576 225.915 144.907 226.53 145.567C227.146 146.228 227.453 147.158 227.453 148.356C227.453 148.429 227.451 148.539 227.446 148.685H222.032C222.078 149.482 222.303 150.093 222.709 150.517C223.115 150.94 223.62 151.152 224.227 151.152C224.678 151.152 225.063 151.034 225.382 150.797C225.701 150.56 225.954 150.182 226.141 149.662ZM222.101 147.673H226.154C226.1 147.062 225.945 146.604 225.689 146.299C225.298 145.825 224.789 145.588 224.165 145.588C223.6 145.588 223.124 145.777 222.736 146.155C222.354 146.534 222.142 147.039 222.101 147.673ZM228.964 152V144.74H230.064V145.759C230.292 145.403 230.595 145.118 230.974 144.904C231.352 144.686 231.783 144.576 232.266 144.576C232.803 144.576 233.243 144.688 233.585 144.911C233.931 145.134 234.175 145.447 234.316 145.848C234.891 145 235.638 144.576 236.559 144.576C237.279 144.576 237.832 144.777 238.22 145.178C238.607 145.574 238.801 146.187 238.801 147.017V152H237.577V147.427C237.577 146.935 237.536 146.581 237.454 146.367C237.377 146.148 237.233 145.973 237.023 145.841C236.814 145.709 236.568 145.643 236.285 145.643C235.775 145.643 235.351 145.813 235.014 146.155C234.676 146.493 234.508 147.035 234.508 147.782V152H233.277V147.283C233.277 146.736 233.177 146.326 232.977 146.053C232.776 145.779 232.448 145.643 231.992 145.643C231.646 145.643 231.325 145.734 231.028 145.916C230.737 146.098 230.525 146.365 230.393 146.716C230.26 147.067 230.194 147.573 230.194 148.233V152H228.964ZM244.529 143.394V141.979H245.76V143.394H244.529ZM244.529 152V144.74H245.76V152H244.529ZM247.64 154.782V144.74H248.761V145.684C249.025 145.314 249.324 145.039 249.656 144.856C249.989 144.67 250.392 144.576 250.866 144.576C251.486 144.576 252.033 144.736 252.507 145.055C252.981 145.374 253.339 145.825 253.58 146.408C253.822 146.987 253.942 147.623 253.942 148.315C253.942 149.058 253.808 149.728 253.539 150.325C253.275 150.918 252.887 151.373 252.377 151.692C251.871 152.007 251.338 152.164 250.777 152.164C250.367 152.164 249.998 152.077 249.67 151.904C249.346 151.731 249.08 151.512 248.87 151.248V154.782H247.64ZM248.754 148.411C248.754 149.345 248.943 150.036 249.321 150.482C249.7 150.929 250.158 151.152 250.695 151.152C251.242 151.152 251.709 150.922 252.097 150.462C252.489 149.997 252.685 149.279 252.685 148.309C252.685 147.383 252.493 146.691 252.11 146.23C251.732 145.77 251.279 145.54 250.75 145.54C250.226 145.54 249.761 145.786 249.355 146.278C248.954 146.766 248.754 147.477 248.754 148.411ZM254.94 149.833L256.157 149.642C256.226 150.129 256.415 150.503 256.725 150.763C257.039 151.022 257.477 151.152 258.037 151.152C258.602 151.152 259.021 151.038 259.295 150.811C259.568 150.578 259.705 150.307 259.705 149.997C259.705 149.719 259.584 149.5 259.343 149.341C259.174 149.231 258.755 149.092 258.085 148.924C257.183 148.696 256.556 148.5 256.205 148.336C255.859 148.167 255.594 147.937 255.412 147.646C255.234 147.349 255.146 147.023 255.146 146.668C255.146 146.344 255.218 146.046 255.364 145.772C255.515 145.494 255.717 145.264 255.973 145.082C256.164 144.941 256.424 144.822 256.752 144.727C257.085 144.626 257.44 144.576 257.818 144.576C258.388 144.576 258.887 144.658 259.315 144.822C259.748 144.986 260.067 145.21 260.272 145.492C260.478 145.77 260.619 146.144 260.696 146.613L259.493 146.777C259.438 146.404 259.279 146.112 259.015 145.902C258.755 145.693 258.386 145.588 257.907 145.588C257.342 145.588 256.939 145.681 256.697 145.868C256.456 146.055 256.335 146.274 256.335 146.524C256.335 146.684 256.385 146.827 256.485 146.955C256.586 147.087 256.743 147.197 256.957 147.283C257.08 147.329 257.442 147.434 258.044 147.598C258.914 147.83 259.521 148.021 259.862 148.172C260.209 148.318 260.48 148.532 260.676 148.814C260.872 149.097 260.97 149.448 260.97 149.867C260.97 150.277 260.849 150.665 260.607 151.029C260.37 151.389 260.026 151.67 259.575 151.87C259.124 152.066 258.614 152.164 258.044 152.164C257.101 152.164 256.381 151.968 255.884 151.576C255.392 151.184 255.077 150.603 254.94 149.833ZM267.19 152V150.934C266.625 151.754 265.857 152.164 264.887 152.164C264.458 152.164 264.057 152.082 263.684 151.918C263.314 151.754 263.039 151.549 262.856 151.303C262.679 151.052 262.553 150.747 262.48 150.387C262.43 150.145 262.405 149.762 262.405 149.238V144.74H263.636V148.767C263.636 149.409 263.661 149.842 263.711 150.065C263.788 150.389 263.952 150.644 264.203 150.831C264.454 151.013 264.764 151.104 265.133 151.104C265.502 151.104 265.848 151.011 266.172 150.824C266.495 150.633 266.723 150.375 266.855 150.052C266.992 149.724 267.061 149.25 267.061 148.63V144.74H268.291V152H267.19ZM270.226 152V144.74H271.326V145.759C271.554 145.403 271.857 145.118 272.235 144.904C272.614 144.686 273.044 144.576 273.527 144.576C274.065 144.576 274.505 144.688 274.847 144.911C275.193 145.134 275.437 145.447 275.578 145.848C276.152 145 276.9 144.576 277.82 144.576C278.54 144.576 279.094 144.777 279.481 145.178C279.869 145.574 280.062 146.187 280.062 147.017V152H278.839V147.427C278.839 146.935 278.798 146.581 278.716 146.367C278.638 146.148 278.495 145.973 278.285 145.841C278.076 145.709 277.829 145.643 277.547 145.643C277.036 145.643 276.613 145.813 276.275 146.155C275.938 146.493 275.77 147.035 275.77 147.782V152H274.539V147.283C274.539 146.736 274.439 146.326 274.238 146.053C274.038 145.779 273.71 145.643 273.254 145.643C272.908 145.643 272.586 145.734 272.29 145.916C271.998 146.098 271.786 146.365 271.654 146.716C271.522 147.067 271.456 147.573 271.456 148.233V152H270.226ZM290.494 152V151.084C290.034 151.804 289.357 152.164 288.464 152.164C287.885 152.164 287.352 152.005 286.864 151.686C286.381 151.367 286.005 150.922 285.736 150.353C285.472 149.778 285.34 149.12 285.34 148.377C285.34 147.652 285.461 146.996 285.702 146.408C285.944 145.816 286.306 145.362 286.789 145.048C287.272 144.733 287.812 144.576 288.409 144.576C288.847 144.576 289.236 144.67 289.578 144.856C289.92 145.039 290.198 145.278 290.412 145.574V141.979H291.636V152H290.494ZM286.604 148.377C286.604 149.307 286.8 150.002 287.192 150.462C287.584 150.922 288.047 151.152 288.58 151.152C289.118 151.152 289.574 150.934 289.947 150.496C290.326 150.054 290.515 149.382 290.515 148.479C290.515 147.486 290.323 146.757 289.94 146.292C289.558 145.827 289.086 145.595 288.525 145.595C287.979 145.595 287.521 145.818 287.151 146.265C286.787 146.711 286.604 147.415 286.604 148.377ZM293.119 148.37C293.119 147.026 293.493 146.03 294.24 145.383C294.865 144.845 295.626 144.576 296.523 144.576C297.521 144.576 298.337 144.904 298.971 145.561C299.604 146.212 299.921 147.115 299.921 148.268C299.921 149.202 299.78 149.938 299.497 150.476C299.219 151.009 298.811 151.424 298.273 151.72C297.74 152.016 297.157 152.164 296.523 152.164C295.507 152.164 294.685 151.838 294.056 151.187C293.431 150.535 293.119 149.596 293.119 148.37ZM294.384 148.37C294.384 149.3 294.587 149.997 294.992 150.462C295.398 150.922 295.908 151.152 296.523 151.152C297.134 151.152 297.642 150.92 298.048 150.455C298.453 149.99 298.656 149.282 298.656 148.329C298.656 147.431 298.451 146.752 298.041 146.292C297.635 145.827 297.13 145.595 296.523 145.595C295.908 145.595 295.398 145.825 294.992 146.285C294.587 146.745 294.384 147.44 294.384 148.37ZM301.343 152V141.979H302.573V152H301.343ZM304.029 148.37C304.029 147.026 304.403 146.03 305.15 145.383C305.775 144.845 306.536 144.576 307.434 144.576C308.432 144.576 309.247 144.904 309.881 145.561C310.514 146.212 310.831 147.115 310.831 148.268C310.831 149.202 310.69 149.938 310.407 150.476C310.129 151.009 309.721 151.424 309.184 151.72C308.65 152.016 308.067 152.164 307.434 152.164C306.417 152.164 305.595 151.838 304.966 151.187C304.341 150.535 304.029 149.596 304.029 148.37ZM305.294 148.37C305.294 149.3 305.497 149.997 305.902 150.462C306.308 150.922 306.818 151.152 307.434 151.152C308.044 151.152 308.552 150.92 308.958 150.455C309.364 149.99 309.566 149.282 309.566 148.329C309.566 147.431 309.361 146.752 308.951 146.292C308.546 145.827 308.04 145.595 307.434 145.595C306.818 145.595 306.308 145.825 305.902 146.285C305.497 146.745 305.294 147.44 305.294 148.37ZM312.267 152V144.74H313.374V145.841C313.657 145.326 313.916 144.986 314.153 144.822C314.395 144.658 314.659 144.576 314.946 144.576C315.361 144.576 315.783 144.708 316.211 144.973L315.787 146.114C315.486 145.937 315.186 145.848 314.885 145.848C314.616 145.848 314.374 145.93 314.16 146.094C313.946 146.253 313.793 146.477 313.702 146.764C313.565 147.201 313.497 147.68 313.497 148.199V152H312.267ZM320.347 149.833L321.563 149.642C321.632 150.129 321.821 150.503 322.131 150.763C322.445 151.022 322.883 151.152 323.443 151.152C324.008 151.152 324.428 151.038 324.701 150.811C324.975 150.578 325.111 150.307 325.111 149.997C325.111 149.719 324.991 149.5 324.749 149.341C324.58 149.231 324.161 149.092 323.491 148.924C322.589 148.696 321.962 148.5 321.611 148.336C321.265 148.167 321.001 147.937 320.818 147.646C320.641 147.349 320.552 147.023 320.552 146.668C320.552 146.344 320.625 146.046 320.771 145.772C320.921 145.494 321.124 145.264 321.379 145.082C321.57 144.941 321.83 144.822 322.158 144.727C322.491 144.626 322.846 144.576 323.225 144.576C323.794 144.576 324.293 144.658 324.722 144.822C325.155 144.986 325.474 145.21 325.679 145.492C325.884 145.77 326.025 146.144 326.103 146.613L324.899 146.777C324.845 146.404 324.685 146.112 324.421 145.902C324.161 145.693 323.792 145.588 323.313 145.588C322.748 145.588 322.345 145.681 322.104 145.868C321.862 146.055 321.741 146.274 321.741 146.524C321.741 146.684 321.791 146.827 321.892 146.955C321.992 147.087 322.149 147.197 322.363 147.283C322.486 147.329 322.849 147.434 323.45 147.598C324.321 147.83 324.927 148.021 325.269 148.172C325.615 148.318 325.886 148.532 326.082 148.814C326.278 149.097 326.376 149.448 326.376 149.867C326.376 150.277 326.255 150.665 326.014 151.029C325.777 151.389 325.433 151.67 324.981 151.87C324.53 152.066 324.02 152.164 323.45 152.164C322.507 152.164 321.787 151.968 321.29 151.576C320.798 151.184 320.483 150.603 320.347 149.833ZM327.846 143.394V141.979H329.076V143.394H327.846ZM327.846 152V144.74H329.076V152H327.846ZM333.643 150.899L333.82 151.986C333.474 152.059 333.164 152.096 332.891 152.096C332.444 152.096 332.098 152.025 331.852 151.884C331.605 151.743 331.432 151.558 331.332 151.33C331.232 151.098 331.182 150.612 331.182 149.874V145.697H330.279V144.74H331.182V142.942L332.405 142.204V144.74H333.643V145.697H332.405V149.942C332.405 150.293 332.426 150.519 332.467 150.619C332.512 150.719 332.583 150.799 332.679 150.858C332.779 150.918 332.92 150.947 333.103 150.947C333.239 150.947 333.419 150.931 333.643 150.899ZM343.486 151.104C343.031 151.492 342.591 151.765 342.167 151.925C341.748 152.084 341.297 152.164 340.813 152.164C340.016 152.164 339.403 151.97 338.975 151.583C338.546 151.191 338.332 150.692 338.332 150.086C338.332 149.73 338.412 149.407 338.571 149.115C338.735 148.819 338.947 148.582 339.207 148.404C339.471 148.227 339.768 148.092 340.096 148.001C340.337 147.937 340.702 147.876 341.189 147.816C342.183 147.698 342.914 147.557 343.384 147.393C343.388 147.224 343.391 147.117 343.391 147.071C343.391 146.57 343.274 146.217 343.042 146.012C342.728 145.734 342.26 145.595 341.641 145.595C341.062 145.595 340.633 145.697 340.355 145.902C340.082 146.103 339.879 146.461 339.747 146.976L338.544 146.812C338.653 146.297 338.833 145.882 339.084 145.567C339.335 145.248 339.697 145.005 340.171 144.836C340.645 144.663 341.194 144.576 341.818 144.576C342.438 144.576 342.942 144.649 343.329 144.795C343.716 144.941 344.001 145.125 344.184 145.349C344.366 145.567 344.493 145.845 344.566 146.183C344.607 146.392 344.628 146.771 344.628 147.317V148.958C344.628 150.102 344.653 150.826 344.703 151.132C344.758 151.433 344.863 151.722 345.018 152H343.732C343.605 151.745 343.523 151.446 343.486 151.104ZM343.384 148.356C342.937 148.539 342.267 148.694 341.374 148.821C340.868 148.894 340.51 148.976 340.301 149.067C340.091 149.159 339.929 149.293 339.815 149.471C339.701 149.644 339.645 149.838 339.645 150.052C339.645 150.38 339.768 150.653 340.014 150.872C340.264 151.091 340.629 151.2 341.107 151.2C341.581 151.2 342.003 151.098 342.372 150.893C342.741 150.683 343.012 150.398 343.186 150.038C343.318 149.76 343.384 149.35 343.384 148.808V148.356ZM346.542 152V144.74H347.643V145.759C347.87 145.403 348.174 145.118 348.552 144.904C348.93 144.686 349.361 144.576 349.844 144.576C350.382 144.576 350.821 144.688 351.163 144.911C351.509 145.134 351.753 145.447 351.895 145.848C352.469 145 353.216 144.576 354.137 144.576C354.857 144.576 355.41 144.777 355.798 145.178C356.185 145.574 356.379 146.187 356.379 147.017V152H355.155V147.427C355.155 146.935 355.114 146.581 355.032 146.367C354.955 146.148 354.811 145.973 354.602 145.841C354.392 145.709 354.146 145.643 353.863 145.643C353.353 145.643 352.929 145.813 352.592 146.155C352.255 146.493 352.086 147.035 352.086 147.782V152H350.855V147.283C350.855 146.736 350.755 146.326 350.555 146.053C350.354 145.779 350.026 145.643 349.57 145.643C349.224 145.643 348.903 145.734 348.606 145.916C348.315 146.098 348.103 146.365 347.971 146.716C347.839 147.067 347.772 147.573 347.772 148.233V152H346.542ZM363.174 149.662L364.445 149.819C364.245 150.562 363.873 151.139 363.331 151.549C362.789 151.959 362.096 152.164 361.253 152.164C360.191 152.164 359.348 151.838 358.724 151.187C358.104 150.53 357.794 149.612 357.794 148.432C357.794 147.21 358.108 146.262 358.737 145.588C359.366 144.913 360.182 144.576 361.185 144.576C362.155 144.576 362.948 144.907 363.563 145.567C364.179 146.228 364.486 147.158 364.486 148.356C364.486 148.429 364.484 148.539 364.479 148.685H359.065C359.111 149.482 359.337 150.093 359.742 150.517C360.148 150.94 360.654 151.152 361.26 151.152C361.711 151.152 362.096 151.034 362.415 150.797C362.734 150.56 362.987 150.182 363.174 149.662ZM359.134 147.673H363.188C363.133 147.062 362.978 146.604 362.723 146.299C362.331 145.825 361.823 145.588 361.198 145.588C360.633 145.588 360.157 145.777 359.77 146.155C359.387 146.534 359.175 147.039 359.134 147.673ZM368.684 150.899L368.861 151.986C368.515 152.059 368.205 152.096 367.932 152.096C367.485 152.096 367.139 152.025 366.893 151.884C366.646 151.743 366.473 151.558 366.373 151.33C366.273 151.098 366.223 150.612 366.223 149.874V145.697H365.32V144.74H366.223V142.942L367.446 142.204V144.74H368.684V145.697H367.446V149.942C367.446 150.293 367.467 150.519 367.508 150.619C367.553 150.719 367.624 150.799 367.72 150.858C367.82 150.918 367.961 150.947 368.144 150.947C368.28 150.947 368.46 150.931 368.684 150.899ZM378.527 149.341L379.737 149.498C379.605 150.332 379.266 150.986 378.719 151.46C378.176 151.929 377.509 152.164 376.716 152.164C375.722 152.164 374.923 151.84 374.316 151.193C373.715 150.542 373.414 149.61 373.414 148.397C373.414 147.614 373.544 146.928 373.804 146.34C374.063 145.752 374.458 145.312 374.986 145.021C375.52 144.724 376.098 144.576 376.723 144.576C377.511 144.576 378.156 144.777 378.657 145.178C379.159 145.574 379.48 146.139 379.621 146.873L378.425 147.058C378.311 146.57 378.108 146.203 377.816 145.957C377.529 145.711 377.181 145.588 376.771 145.588C376.151 145.588 375.647 145.811 375.26 146.258C374.872 146.7 374.679 147.402 374.679 148.363C374.679 149.339 374.866 150.047 375.239 150.489C375.613 150.931 376.101 151.152 376.702 151.152C377.185 151.152 377.589 151.004 377.912 150.708C378.236 150.412 378.441 149.956 378.527 149.341ZM380.332 148.37C380.332 147.026 380.706 146.03 381.453 145.383C382.077 144.845 382.839 144.576 383.736 144.576C384.734 144.576 385.55 144.904 386.184 145.561C386.817 146.212 387.134 147.115 387.134 148.268C387.134 149.202 386.993 149.938 386.71 150.476C386.432 151.009 386.024 151.424 385.486 151.72C384.953 152.016 384.37 152.164 383.736 152.164C382.72 152.164 381.897 151.838 381.269 151.187C380.644 150.535 380.332 149.596 380.332 148.37ZM381.597 148.37C381.597 149.3 381.799 149.997 382.205 150.462C382.611 150.922 383.121 151.152 383.736 151.152C384.347 151.152 384.855 150.92 385.261 150.455C385.666 149.99 385.869 149.282 385.869 148.329C385.869 147.431 385.664 146.752 385.254 146.292C384.848 145.827 384.342 145.595 383.736 145.595C383.121 145.595 382.611 145.825 382.205 146.285C381.799 146.745 381.597 147.44 381.597 148.37ZM388.583 152V144.74H389.69V145.772C390.224 144.975 390.994 144.576 392.001 144.576C392.438 144.576 392.84 144.656 393.204 144.815C393.573 144.97 393.849 145.175 394.031 145.431C394.214 145.686 394.341 145.989 394.414 146.34C394.46 146.568 394.482 146.966 394.482 147.536V152H393.252V147.584C393.252 147.083 393.204 146.709 393.108 146.463C393.013 146.212 392.842 146.014 392.596 145.868C392.354 145.718 392.069 145.643 391.741 145.643C391.217 145.643 390.764 145.809 390.381 146.142C390.003 146.474 389.813 147.105 389.813 148.035V152H388.583ZM395.884 149.833L397.101 149.642C397.169 150.129 397.358 150.503 397.668 150.763C397.982 151.022 398.42 151.152 398.98 151.152C399.546 151.152 399.965 151.038 400.238 150.811C400.512 150.578 400.648 150.307 400.648 149.997C400.648 149.719 400.528 149.5 400.286 149.341C400.118 149.231 399.698 149.092 399.028 148.924C398.126 148.696 397.499 148.5 397.148 148.336C396.802 148.167 396.538 147.937 396.355 147.646C396.178 147.349 396.089 147.023 396.089 146.668C396.089 146.344 396.162 146.046 396.308 145.772C396.458 145.494 396.661 145.264 396.916 145.082C397.107 144.941 397.367 144.822 397.695 144.727C398.028 144.626 398.383 144.576 398.762 144.576C399.331 144.576 399.83 144.658 400.259 144.822C400.692 144.986 401.011 145.21 401.216 145.492C401.421 145.77 401.562 146.144 401.64 146.613L400.437 146.777C400.382 146.404 400.222 146.112 399.958 145.902C399.698 145.693 399.329 145.588 398.851 145.588C398.285 145.588 397.882 145.681 397.641 145.868C397.399 146.055 397.278 146.274 397.278 146.524C397.278 146.684 397.328 146.827 397.429 146.955C397.529 147.087 397.686 147.197 397.9 147.283C398.023 147.329 398.386 147.434 398.987 147.598C399.858 147.83 400.464 148.021 400.806 148.172C401.152 148.318 401.423 148.532 401.619 148.814C401.815 149.097 401.913 149.448 401.913 149.867C401.913 150.277 401.792 150.665 401.551 151.029C401.314 151.389 400.97 151.67 400.519 151.87C400.067 152.066 399.557 152.164 398.987 152.164C398.044 152.164 397.324 151.968 396.827 151.576C396.335 151.184 396.021 150.603 395.884 149.833ZM408.346 149.662L409.617 149.819C409.417 150.562 409.045 151.139 408.503 151.549C407.961 151.959 407.268 152.164 406.425 152.164C405.363 152.164 404.52 151.838 403.896 151.187C403.276 150.53 402.966 149.612 402.966 148.432C402.966 147.21 403.28 146.262 403.909 145.588C404.538 144.913 405.354 144.576 406.356 144.576C407.327 144.576 408.12 144.907 408.735 145.567C409.351 146.228 409.658 147.158 409.658 148.356C409.658 148.429 409.656 148.539 409.651 148.685H404.237C404.283 149.482 404.508 150.093 404.914 150.517C405.32 150.94 405.826 151.152 406.432 151.152C406.883 151.152 407.268 151.034 407.587 150.797C407.906 150.56 408.159 150.182 408.346 149.662ZM404.306 147.673H408.359C408.305 147.062 408.15 146.604 407.895 146.299C407.503 145.825 406.994 145.588 406.37 145.588C405.805 145.588 405.329 145.777 404.941 146.155C404.559 146.534 404.347 147.039 404.306 147.673ZM415.906 149.341L417.116 149.498C416.984 150.332 416.645 150.986 416.098 151.46C415.555 151.929 414.888 152.164 414.095 152.164C413.101 152.164 412.301 151.84 411.695 151.193C411.094 150.542 410.793 149.61 410.793 148.397C410.793 147.614 410.923 146.928 411.183 146.34C411.442 145.752 411.837 145.312 412.365 145.021C412.898 144.724 413.477 144.576 414.102 144.576C414.89 144.576 415.535 144.777 416.036 145.178C416.537 145.574 416.859 146.139 417 146.873L415.804 147.058C415.69 146.57 415.487 146.203 415.195 145.957C414.908 145.711 414.56 145.588 414.149 145.588C413.53 145.588 413.026 145.811 412.639 146.258C412.251 146.7 412.058 147.402 412.058 148.363C412.058 149.339 412.244 150.047 412.618 150.489C412.992 150.931 413.479 151.152 414.081 151.152C414.564 151.152 414.967 151.004 415.291 150.708C415.615 150.412 415.82 149.956 415.906 149.341ZM420.855 150.899L421.033 151.986C420.687 152.059 420.377 152.096 420.104 152.096C419.657 152.096 419.311 152.025 419.064 151.884C418.818 151.743 418.645 151.558 418.545 151.33C418.445 151.098 418.395 150.612 418.395 149.874V145.697H417.492V144.74H418.395V142.942L419.618 142.204V144.74H420.855V145.697H419.618V149.942C419.618 150.293 419.639 150.519 419.68 150.619C419.725 150.719 419.796 150.799 419.892 150.858C419.992 150.918 420.133 150.947 420.315 150.947C420.452 150.947 420.632 150.931 420.855 150.899ZM427.035 149.662L428.307 149.819C428.106 150.562 427.735 151.139 427.192 151.549C426.65 151.959 425.957 152.164 425.114 152.164C424.052 152.164 423.209 151.838 422.585 151.187C421.965 150.53 421.655 149.612 421.655 148.432C421.655 147.21 421.97 146.262 422.599 145.588C423.228 144.913 424.043 144.576 425.046 144.576C426.017 144.576 426.81 144.907 427.425 145.567C428.04 146.228 428.348 147.158 428.348 148.356C428.348 148.429 428.345 148.539 428.341 148.685H422.927C422.972 149.482 423.198 150.093 423.604 150.517C424.009 150.94 424.515 151.152 425.121 151.152C425.572 151.152 425.957 151.034 426.276 150.797C426.595 150.56 426.848 150.182 427.035 149.662ZM422.995 147.673H427.049C426.994 147.062 426.839 146.604 426.584 146.299C426.192 145.825 425.684 145.588 425.06 145.588C424.494 145.588 424.018 145.777 423.631 146.155C423.248 146.534 423.036 147.039 422.995 147.673ZM432.545 150.899L432.723 151.986C432.376 152.059 432.066 152.096 431.793 152.096C431.346 152.096 431 152.025 430.754 151.884C430.508 151.743 430.335 151.558 430.234 151.33C430.134 151.098 430.084 150.612 430.084 149.874V145.697H429.182V144.74H430.084V142.942L431.308 142.204V144.74H432.545V145.697H431.308V149.942C431.308 150.293 431.328 150.519 431.369 150.619C431.415 150.719 431.485 150.799 431.581 150.858C431.681 150.918 431.823 150.947 432.005 150.947C432.142 150.947 432.322 150.931 432.545 150.899ZM438.513 152V150.934C437.948 151.754 437.18 152.164 436.209 152.164C435.781 152.164 435.38 152.082 435.006 151.918C434.637 151.754 434.361 151.549 434.179 151.303C434.001 151.052 433.876 150.747 433.803 150.387C433.753 150.145 433.728 149.762 433.728 149.238V144.74H434.958V148.767C434.958 149.409 434.983 149.842 435.033 150.065C435.111 150.389 435.275 150.644 435.525 150.831C435.776 151.013 436.086 151.104 436.455 151.104C436.824 151.104 437.171 151.011 437.494 150.824C437.818 150.633 438.046 150.375 438.178 150.052C438.314 149.724 438.383 149.25 438.383 148.63V144.74H439.613V152H438.513ZM441.534 152V144.74H442.642V145.841C442.924 145.326 443.184 144.986 443.421 144.822C443.662 144.658 443.927 144.576 444.214 144.576C444.629 144.576 445.05 144.708 445.479 144.973L445.055 146.114C444.754 145.937 444.453 145.848 444.152 145.848C443.883 145.848 443.642 145.93 443.428 146.094C443.214 146.253 443.061 146.477 442.97 146.764C442.833 147.201 442.765 147.68 442.765 148.199V152H441.534ZM205.66 173.104C205.204 173.492 204.765 173.765 204.341 173.925C203.922 174.084 203.47 174.164 202.987 174.164C202.19 174.164 201.577 173.97 201.148 173.583C200.72 173.191 200.506 172.692 200.506 172.086C200.506 171.73 200.586 171.407 200.745 171.115C200.909 170.819 201.121 170.582 201.381 170.404C201.645 170.227 201.941 170.092 202.27 170.001C202.511 169.937 202.876 169.876 203.363 169.816C204.357 169.698 205.088 169.557 205.558 169.393C205.562 169.224 205.564 169.117 205.564 169.071C205.564 168.57 205.448 168.217 205.216 168.012C204.901 167.734 204.434 167.595 203.814 167.595C203.236 167.595 202.807 167.697 202.529 167.902C202.256 168.103 202.053 168.461 201.921 168.976L200.718 168.812C200.827 168.297 201.007 167.882 201.258 167.567C201.508 167.248 201.871 167.005 202.345 166.836C202.819 166.663 203.368 166.576 203.992 166.576C204.612 166.576 205.116 166.649 205.503 166.795C205.89 166.941 206.175 167.125 206.357 167.349C206.54 167.567 206.667 167.845 206.74 168.183C206.781 168.392 206.802 168.771 206.802 169.317V170.958C206.802 172.102 206.827 172.826 206.877 173.132C206.932 173.433 207.036 173.722 207.191 174H205.906C205.779 173.745 205.697 173.446 205.66 173.104ZM205.558 170.356C205.111 170.539 204.441 170.694 203.548 170.821C203.042 170.894 202.684 170.976 202.475 171.067C202.265 171.159 202.103 171.293 201.989 171.471C201.875 171.644 201.818 171.838 201.818 172.052C201.818 172.38 201.941 172.653 202.188 172.872C202.438 173.091 202.803 173.2 203.281 173.2C203.755 173.2 204.177 173.098 204.546 172.893C204.915 172.683 205.186 172.398 205.359 172.038C205.492 171.76 205.558 171.35 205.558 170.808V170.356ZM213.426 174V173.084C212.965 173.804 212.289 174.164 211.396 174.164C210.817 174.164 210.284 174.005 209.796 173.686C209.313 173.367 208.937 172.922 208.668 172.353C208.404 171.778 208.271 171.12 208.271 170.377C208.271 169.652 208.392 168.996 208.634 168.408C208.875 167.816 209.238 167.362 209.721 167.048C210.204 166.733 210.744 166.576 211.341 166.576C211.778 166.576 212.168 166.67 212.51 166.856C212.852 167.039 213.13 167.278 213.344 167.574V163.979H214.567V174H213.426ZM209.536 170.377C209.536 171.307 209.732 172.002 210.124 172.462C210.516 172.922 210.979 173.152 211.512 173.152C212.049 173.152 212.505 172.934 212.879 172.496C213.257 172.054 213.446 171.382 213.446 170.479C213.446 169.486 213.255 168.757 212.872 168.292C212.489 167.827 212.018 167.595 211.457 167.595C210.91 167.595 210.452 167.818 210.083 168.265C209.718 168.711 209.536 169.415 209.536 170.377ZM216.516 165.394V163.979H217.746V165.394H216.516ZM216.516 174V166.74H217.746V174H216.516ZM219.626 176.782V166.74H220.747V167.684C221.011 167.314 221.31 167.039 221.643 166.856C221.975 166.67 222.379 166.576 222.853 166.576C223.472 166.576 224.019 166.736 224.493 167.055C224.967 167.374 225.325 167.825 225.566 168.408C225.808 168.987 225.929 169.623 225.929 170.315C225.929 171.058 225.794 171.728 225.525 172.325C225.261 172.918 224.874 173.373 224.363 173.692C223.857 174.007 223.324 174.164 222.764 174.164C222.354 174.164 221.984 174.077 221.656 173.904C221.333 173.731 221.066 173.512 220.856 173.248V176.782H219.626ZM220.74 170.411C220.74 171.345 220.929 172.036 221.308 172.482C221.686 172.929 222.144 173.152 222.682 173.152C223.229 173.152 223.696 172.922 224.083 172.462C224.475 171.997 224.671 171.279 224.671 170.309C224.671 169.383 224.479 168.691 224.097 168.23C223.718 167.77 223.265 167.54 222.736 167.54C222.212 167.54 221.747 167.786 221.342 168.278C220.941 168.766 220.74 169.477 220.74 170.411ZM227.426 165.394V163.979H228.656V165.394H227.426ZM227.426 174V166.74H228.656V174H227.426ZM230.044 171.833L231.261 171.642C231.329 172.129 231.518 172.503 231.828 172.763C232.143 173.022 232.58 173.152 233.141 173.152C233.706 173.152 234.125 173.038 234.398 172.811C234.672 172.578 234.809 172.307 234.809 171.997C234.809 171.719 234.688 171.5 234.446 171.341C234.278 171.231 233.858 171.092 233.188 170.924C232.286 170.696 231.66 170.5 231.309 170.336C230.962 170.167 230.698 169.937 230.516 169.646C230.338 169.349 230.249 169.023 230.249 168.668C230.249 168.344 230.322 168.046 230.468 167.772C230.618 167.494 230.821 167.264 231.076 167.082C231.268 166.941 231.527 166.822 231.855 166.727C232.188 166.626 232.544 166.576 232.922 166.576C233.492 166.576 233.991 166.658 234.419 166.822C234.852 166.986 235.171 167.21 235.376 167.492C235.581 167.77 235.722 168.144 235.8 168.613L234.597 168.777C234.542 168.404 234.382 168.112 234.118 167.902C233.858 167.693 233.489 167.588 233.011 167.588C232.446 167.588 232.042 167.681 231.801 167.868C231.559 168.055 231.438 168.274 231.438 168.524C231.438 168.684 231.489 168.827 231.589 168.955C231.689 169.087 231.846 169.197 232.061 169.283C232.184 169.329 232.546 169.434 233.147 169.598C234.018 169.83 234.624 170.021 234.966 170.172C235.312 170.318 235.583 170.532 235.779 170.814C235.975 171.097 236.073 171.448 236.073 171.867C236.073 172.277 235.952 172.665 235.711 173.029C235.474 173.389 235.13 173.67 234.679 173.87C234.228 174.066 233.717 174.164 233.147 174.164C232.204 174.164 231.484 173.968 230.987 173.576C230.495 173.184 230.181 172.603 230.044 171.833ZM242.273 171.341L243.483 171.498C243.351 172.332 243.012 172.986 242.465 173.46C241.923 173.929 241.255 174.164 240.462 174.164C239.468 174.164 238.669 173.84 238.062 173.193C237.461 172.542 237.16 171.61 237.16 170.397C237.16 169.614 237.29 168.928 237.55 168.34C237.81 167.752 238.204 167.312 238.732 167.021C239.266 166.724 239.844 166.576 240.469 166.576C241.257 166.576 241.902 166.777 242.403 167.178C242.905 167.574 243.226 168.139 243.367 168.873L242.171 169.058C242.057 168.57 241.854 168.203 241.562 167.957C241.275 167.711 240.927 167.588 240.517 167.588C239.897 167.588 239.393 167.811 239.006 168.258C238.618 168.7 238.425 169.402 238.425 170.363C238.425 171.339 238.612 172.047 238.985 172.489C239.359 172.931 239.847 173.152 240.448 173.152C240.931 173.152 241.335 173.004 241.658 172.708C241.982 172.412 242.187 171.956 242.273 171.341ZM244.543 165.394V163.979H245.773V165.394H244.543ZM244.543 174V166.74H245.773V174H244.543ZM247.653 174V166.74H248.761V167.772C249.294 166.975 250.064 166.576 251.071 166.576C251.509 166.576 251.91 166.656 252.274 166.815C252.644 166.97 252.919 167.175 253.102 167.431C253.284 167.686 253.411 167.989 253.484 168.34C253.53 168.568 253.553 168.966 253.553 169.536V174H252.322V169.584C252.322 169.083 252.274 168.709 252.179 168.463C252.083 168.212 251.912 168.014 251.666 167.868C251.424 167.718 251.14 167.643 250.812 167.643C250.287 167.643 249.834 167.809 249.451 168.142C249.073 168.474 248.884 169.105 248.884 170.035V174H247.653ZM255.221 174.602L256.417 174.779C256.467 175.148 256.606 175.417 256.834 175.586C257.139 175.814 257.556 175.928 258.085 175.928C258.655 175.928 259.094 175.814 259.404 175.586C259.714 175.358 259.924 175.039 260.033 174.629C260.097 174.378 260.127 173.852 260.122 173.05C259.584 173.683 258.914 174 258.112 174C257.114 174 256.342 173.64 255.795 172.92C255.248 172.2 254.975 171.336 254.975 170.329C254.975 169.636 255.1 168.998 255.351 168.415C255.601 167.827 255.964 167.374 256.438 167.055C256.916 166.736 257.477 166.576 258.119 166.576C258.976 166.576 259.682 166.923 260.238 167.615V166.74H261.373V173.016C261.373 174.146 261.257 174.946 261.024 175.415C260.797 175.889 260.432 176.263 259.931 176.536C259.434 176.81 258.821 176.946 258.092 176.946C257.226 176.946 256.526 176.75 255.993 176.358C255.46 175.971 255.202 175.385 255.221 174.602ZM256.239 170.24C256.239 171.193 256.428 171.888 256.807 172.325C257.185 172.763 257.659 172.981 258.229 172.981C258.794 172.981 259.268 172.765 259.65 172.332C260.033 171.895 260.225 171.211 260.225 170.281C260.225 169.393 260.026 168.723 259.63 168.271C259.238 167.82 258.764 167.595 258.208 167.595C257.661 167.595 257.196 167.818 256.813 168.265C256.431 168.707 256.239 169.365 256.239 170.24ZM267.977 171.341L269.187 171.498C269.054 172.332 268.715 172.986 268.168 173.46C267.626 173.929 266.958 174.164 266.165 174.164C265.172 174.164 264.372 173.84 263.766 173.193C263.164 172.542 262.863 171.61 262.863 170.397C262.863 169.614 262.993 168.928 263.253 168.34C263.513 167.752 263.907 167.312 264.436 167.021C264.969 166.724 265.548 166.576 266.172 166.576C266.96 166.576 267.605 166.777 268.106 167.178C268.608 167.574 268.929 168.139 269.07 168.873L267.874 169.058C267.76 168.57 267.557 168.203 267.266 167.957C266.979 167.711 266.63 167.588 266.22 167.588C265.6 167.588 265.096 167.811 264.709 168.258C264.322 168.7 264.128 169.402 264.128 170.363C264.128 171.339 264.315 172.047 264.688 172.489C265.062 172.931 265.55 173.152 266.151 173.152C266.634 173.152 267.038 173.004 267.361 172.708C267.685 172.412 267.89 171.956 267.977 171.341ZM274.977 173.104C274.521 173.492 274.081 173.765 273.657 173.925C273.238 174.084 272.787 174.164 272.304 174.164C271.506 174.164 270.893 173.97 270.465 173.583C270.036 173.191 269.822 172.692 269.822 172.086C269.822 171.73 269.902 171.407 270.062 171.115C270.226 170.819 270.438 170.582 270.697 170.404C270.962 170.227 271.258 170.092 271.586 170.001C271.827 169.937 272.192 169.876 272.68 169.816C273.673 169.698 274.405 169.557 274.874 169.393C274.879 169.224 274.881 169.117 274.881 169.071C274.881 168.57 274.765 168.217 274.532 168.012C274.218 167.734 273.751 167.595 273.131 167.595C272.552 167.595 272.124 167.697 271.846 167.902C271.572 168.103 271.369 168.461 271.237 168.976L270.034 168.812C270.144 168.297 270.324 167.882 270.574 167.567C270.825 167.248 271.187 167.005 271.661 166.836C272.135 166.663 272.684 166.576 273.309 166.576C273.928 166.576 274.432 166.649 274.819 166.795C275.207 166.941 275.492 167.125 275.674 167.349C275.856 167.567 275.984 167.845 276.057 168.183C276.098 168.392 276.118 168.771 276.118 169.317V170.958C276.118 172.102 276.143 172.826 276.193 173.132C276.248 173.433 276.353 173.722 276.508 174H275.223C275.095 173.745 275.013 173.446 274.977 173.104ZM274.874 170.356C274.427 170.539 273.757 170.694 272.864 170.821C272.358 170.894 272.001 170.976 271.791 171.067C271.581 171.159 271.42 171.293 271.306 171.471C271.192 171.644 271.135 171.838 271.135 172.052C271.135 172.38 271.258 172.653 271.504 172.872C271.755 173.091 272.119 173.2 272.598 173.2C273.072 173.2 273.493 173.098 273.862 172.893C274.231 172.683 274.503 172.398 274.676 172.038C274.808 171.76 274.874 171.35 274.874 170.808V170.356ZM277.54 171.833L278.757 171.642C278.825 172.129 279.014 172.503 279.324 172.763C279.639 173.022 280.076 173.152 280.637 173.152C281.202 173.152 281.621 173.038 281.895 172.811C282.168 172.578 282.305 172.307 282.305 171.997C282.305 171.719 282.184 171.5 281.942 171.341C281.774 171.231 281.354 171.092 280.685 170.924C279.782 170.696 279.156 170.5 278.805 170.336C278.458 170.167 278.194 169.937 278.012 169.646C277.834 169.349 277.745 169.023 277.745 168.668C277.745 168.344 277.818 168.046 277.964 167.772C278.114 167.494 278.317 167.264 278.572 167.082C278.764 166.941 279.023 166.822 279.352 166.727C279.684 166.626 280.04 166.576 280.418 166.576C280.988 166.576 281.487 166.658 281.915 166.822C282.348 166.986 282.667 167.21 282.872 167.492C283.077 167.77 283.218 168.144 283.296 168.613L282.093 168.777C282.038 168.404 281.879 168.112 281.614 167.902C281.354 167.693 280.985 167.588 280.507 167.588C279.942 167.588 279.538 167.681 279.297 167.868C279.055 168.055 278.935 168.274 278.935 168.524C278.935 168.684 278.985 168.827 279.085 168.955C279.185 169.087 279.342 169.197 279.557 169.283C279.68 169.329 280.042 169.434 280.644 169.598C281.514 169.83 282.12 170.021 282.462 170.172C282.808 170.318 283.079 170.532 283.275 170.814C283.471 171.097 283.569 171.448 283.569 171.867C283.569 172.277 283.449 172.665 283.207 173.029C282.97 173.389 282.626 173.67 282.175 173.87C281.724 174.066 281.213 174.164 280.644 174.164C279.7 174.164 278.98 173.968 278.483 173.576C277.991 173.184 277.677 172.603 277.54 171.833Z" fill="#303030"/>
<path d="M519 133L526 140L519 147" stroke="#303030" stroke-width="2" stroke-linecap="round" stroke-linejoin="round"/>
<g clip-path="url(#clip0_3767_5315)">
<rect x="72" y="140" width="48" height="1" fill="#C54600"/>
<g clip-path="url(#clip1_3767_5315)">
<rect x="72" y="128" width="24" height="24" rx="12" fill="#C54600"/>
<path d="M85.5687 135.273V144H83.7235V137.024H83.6724L81.6738 138.277V136.641L83.8343 135.273H85.5687Z" fill="white"/>
</g>
</g>
<g clip-path="url(#clip2_3767_5315)">
<rect x="269.504" y="52" width="1" height="56.8203" fill="#C54600"/>
<g clip-path="url(#clip3_3767_5315)">
<rect x="257.504" y="52" width="24" height="24" rx="12" fill="#C54600"/>
<path d="M266.432 68V66.6705L269.539 63.794C269.803 63.5384 270.024 63.3082 270.203 63.1037C270.385 62.8991 270.523 62.6989 270.617 62.5028C270.71 62.304 270.757 62.0895 270.757 61.8594C270.757 61.6037 270.699 61.3835 270.583 61.1989C270.466 61.0114 270.307 60.8679 270.105 60.7685C269.904 60.6662 269.675 60.6151 269.419 60.6151C269.152 60.6151 268.919 60.669 268.72 60.777C268.521 60.8849 268.368 61.0398 268.26 61.2415C268.152 61.4432 268.098 61.6832 268.098 61.9616H266.347C266.347 61.3906 266.476 60.8949 266.735 60.4744C266.993 60.054 267.355 59.7287 267.821 59.4986C268.287 59.2685 268.824 59.1534 269.432 59.1534C270.057 59.1534 270.601 59.2642 271.064 59.4858C271.53 59.7045 271.892 60.0085 272.151 60.3977C272.409 60.7869 272.539 61.233 272.539 61.7358C272.539 62.0653 272.473 62.3906 272.343 62.7116C272.215 63.0327 271.986 63.3892 271.656 63.7812C271.327 64.1705 270.862 64.6378 270.263 65.1832L268.989 66.4318V66.4915H272.654V68H266.432Z" fill="white"/>
</g>
</g>
<g clip-path="url(#clip4_3767_5315)">
<rect x="322.992" y="176.946" width="1" height="51.0537" fill="#C54600"/>
<g clip-path="url(#clip5_3767_5315)">
<rect x="310.992" y="204" width="24" height="24" rx="12" fill="#C54600"/>
<path d="M322.97 220.119C322.334 220.119 321.767 220.01 321.27 219.791C320.776 219.57 320.385 219.266 320.098 218.879C319.814 218.49 319.668 218.041 319.659 217.533H321.517C321.529 217.746 321.598 217.933 321.726 218.095C321.857 218.254 322.03 218.378 322.246 218.466C322.462 218.554 322.705 218.598 322.975 218.598C323.256 218.598 323.504 218.548 323.72 218.449C323.936 218.349 324.105 218.212 324.227 218.036C324.35 217.859 324.411 217.656 324.411 217.426C324.411 217.193 324.345 216.987 324.215 216.808C324.087 216.626 323.902 216.484 323.661 216.382C323.422 216.28 323.138 216.229 322.808 216.229H321.994V214.874H322.808C323.087 214.874 323.333 214.825 323.546 214.729C323.762 214.632 323.929 214.499 324.048 214.328C324.168 214.155 324.227 213.953 324.227 213.723C324.227 213.504 324.175 213.312 324.07 213.148C323.968 212.98 323.823 212.849 323.635 212.756C323.45 212.662 323.235 212.615 322.987 212.615C322.737 212.615 322.509 212.661 322.301 212.751C322.094 212.839 321.928 212.966 321.803 213.131C321.678 213.295 321.611 213.489 321.602 213.71H319.834C319.843 213.207 319.986 212.764 320.264 212.381C320.543 211.997 320.918 211.697 321.389 211.482C321.864 211.263 322.399 211.153 322.996 211.153C323.598 211.153 324.125 211.263 324.577 211.482C325.029 211.7 325.379 211.996 325.629 212.368C325.882 212.737 326.007 213.152 326.004 213.612C326.007 214.101 325.855 214.509 325.548 214.835C325.244 215.162 324.848 215.369 324.36 215.457V215.526C325.002 215.608 325.49 215.831 325.825 216.195C326.164 216.555 326.331 217.007 326.328 217.55C326.331 218.047 326.188 218.489 325.898 218.875C325.611 219.261 325.215 219.565 324.709 219.787C324.203 220.009 323.624 220.119 322.97 220.119Z" fill="white"/>
</g>
</g>
<g clip-path="url(#clip6_3767_5315)">
<rect x="522" y="52" width="1" height="48" fill="#C54600"/>
<g clip-path="url(#clip7_3767_5315)">
<rect x="510" y="52" width="24" height="24" rx="12" fill="#C54600"/>
<path d="M518.509 66.4659V65.0128L522.152 59.2727H523.405V61.2841H522.664L520.367 64.919V64.9872H525.544V66.4659H518.509ZM522.698 68V66.0227L522.732 65.3793V59.2727H524.462V68H522.698Z" fill="white"/>
</g>
</g>
<g clip-path="url(#clip8_3767_5315)">
<rect x="534" y="140" width="58" height="1" fill="#C54600"/>
<g clip-path="url(#clip9_3767_5315)">
<rect x="568" y="128" width="24" height="24" rx="12" fill="#C54600"/>
<path d="M580.028 144.119C579.425 144.119 578.888 144.009 578.417 143.787C577.948 143.565 577.576 143.26 577.3 142.871C577.025 142.482 576.881 142.036 576.87 141.533H578.66C578.68 141.871 578.822 142.145 579.086 142.355C579.35 142.565 579.664 142.67 580.028 142.67C580.317 142.67 580.573 142.607 580.795 142.479C581.019 142.348 581.194 142.168 581.319 141.938C581.447 141.705 581.511 141.437 581.511 141.136C581.511 140.83 581.445 140.56 581.315 140.327C581.187 140.094 581.009 139.912 580.782 139.781C580.555 139.651 580.295 139.584 580.002 139.581C579.746 139.581 579.498 139.634 579.256 139.739C579.018 139.844 578.832 139.987 578.698 140.169L577.058 139.875L577.471 135.273H582.806V136.781H578.992L578.766 138.967H578.817C578.971 138.751 579.202 138.572 579.512 138.43C579.822 138.288 580.168 138.217 580.552 138.217C581.077 138.217 581.546 138.341 581.958 138.588C582.37 138.835 582.695 139.175 582.934 139.607C583.173 140.036 583.29 140.53 583.288 141.089C583.29 141.678 583.154 142.2 582.879 142.658C582.606 143.112 582.224 143.47 581.732 143.732C581.244 143.99 580.675 144.119 580.028 144.119Z" fill="white"/>
</g>
</g>
<defs>
<clipPath id="clip0_3767_5315">
<rect width="48" height="24" fill="white" transform="translate(72 128)"/>
</clipPath>
<clipPath id="clip1_3767_5315">
<rect x="72" y="128" width="24" height="24" rx="12" fill="white"/>
</clipPath>
<clipPath id="clip2_3767_5315">
<rect width="24" height="56.8203" fill="white" transform="translate(257.504 52)"/>
</clipPath>
<clipPath id="clip3_3767_5315">
<rect x="257.504" y="52" width="24" height="24" rx="12" fill="white"/>
</clipPath>
<clipPath id="clip4_3767_5315">
<rect width="24" height="51.0537" fill="white" transform="translate(310.992 176.946)"/>
</clipPath>
<clipPath id="clip5_3767_5315">
<rect x="310.992" y="204" width="24" height="24" rx="12" fill="white"/>
</clipPath>
<clipPath id="clip6_3767_5315">
<rect width="24" height="48" fill="white" transform="translate(510 52)"/>
</clipPath>
<clipPath id="clip7_3767_5315">
<rect x="510" y="52" width="24" height="24" rx="12" fill="white"/>
</clipPath>
<clipPath id="clip8_3767_5315">
<rect width="58" height="24" fill="white" transform="translate(534 128)"/>
</clipPath>
<clipPath id="clip9_3767_5315">
<rect x="568" y="128" width="24" height="24" rx="12" fill="white"/>
</clipPath>
</defs>
</svg>
