<svg width="80" height="80" viewBox="0 0 80 80" fill="none" xmlns="http://www.w3.org/2000/svg">
<rect x="18.5" y="18.5" width="43" height="43" rx="21.5" stroke="#00142E"/>
<rect x="18.5" y="18.5" width="43" height="43" rx="21.5" stroke="black" stroke-opacity="0.2"/>
<path d="M51.669 40.0016L48.789 31.3623C48.118 29.3517 46.35 28 44.389 28H35.611C33.65 28 31.882 29.3517 31.211 31.3623L28.331 40.0016C28.111 40.6595 28 41.349 28 42.0515V43.8178C28 45.3353 28.822 46.6379 30 47.2532V49.2726C30 50.7759 31.121 52 32.5 52C33.879 52 35 50.7759 35 49.2726V47.6362H45V49.2726C45 50.7759 46.121 52 47.5 52C48.879 52 50 50.7759 50 49.2726V47.2532C51.178 46.6379 52 45.3353 52 43.8178V42.0515C52 41.349 51.889 40.6595 51.669 40.0016ZM32.15 31.7354C32.677 30.1536 34.069 29.091 35.611 29.091H44.388C45.93 29.091 47.322 30.1536 47.849 31.7354L49.513 36.7277H30.486L32.15 31.7354ZM34 49.2737C34 50.1759 33.327 50.9101 32.5 50.9101C31.673 50.9101 31 50.1759 31 49.2737V47.5816C31.165 47.6078 31.329 47.6373 31.5 47.6373H34V49.2737ZM43 46.5463H37V45.4553C37 44.8542 37.448 44.3644 38 44.3644H42C42.552 44.3644 43 44.8542 43 45.4553V46.5463ZM49 49.2737C49 50.1759 48.327 50.9101 47.5 50.9101C46.673 50.9101 46 50.1759 46 49.2737V47.6373H48.5C48.671 47.6373 48.835 47.6078 49 47.5816V49.2737ZM51 43.8189C51 45.3222 49.879 46.5463 48.5 46.5463H44V45.4553C44 44.252 43.103 43.2734 42 43.2734H38C36.897 43.2734 36 44.252 36 45.4553V46.5463H31.5C30.121 46.5463 29 45.3222 29 43.8189V42.0526C29 41.7275 29.037 41.4079 29.095 41.0915H31.5C31.776 41.0915 32 40.8471 32 40.546C32 40.2449 31.776 40.0005 31.5 40.0005H29.395L30.122 37.8186H49.877L50.604 40.0005H48.499C48.223 40.0005 47.999 40.2449 47.999 40.546C47.999 40.8471 48.223 41.0915 48.499 41.0915H50.904C50.962 41.4068 50.999 41.7275 50.999 42.0526L51 43.8189Z" fill="#00142E"/>
<path d="M51.669 40.0016L48.789 31.3623C48.118 29.3517 46.35 28 44.389 28H35.611C33.65 28 31.882 29.3517 31.211 31.3623L28.331 40.0016C28.111 40.6595 28 41.349 28 42.0515V43.8178C28 45.3353 28.822 46.6379 30 47.2532V49.2726C30 50.7759 31.121 52 32.5 52C33.879 52 35 50.7759 35 49.2726V47.6362H45V49.2726C45 50.7759 46.121 52 47.5 52C48.879 52 50 50.7759 50 49.2726V47.2532C51.178 46.6379 52 45.3353 52 43.8178V42.0515C52 41.349 51.889 40.6595 51.669 40.0016ZM32.15 31.7354C32.677 30.1536 34.069 29.091 35.611 29.091H44.388C45.93 29.091 47.322 30.1536 47.849 31.7354L49.513 36.7277H30.486L32.15 31.7354ZM34 49.2737C34 50.1759 33.327 50.9101 32.5 50.9101C31.673 50.9101 31 50.1759 31 49.2737V47.5816C31.165 47.6078 31.329 47.6373 31.5 47.6373H34V49.2737ZM43 46.5463H37V45.4553C37 44.8542 37.448 44.3644 38 44.3644H42C42.552 44.3644 43 44.8542 43 45.4553V46.5463ZM49 49.2737C49 50.1759 48.327 50.9101 47.5 50.9101C46.673 50.9101 46 50.1759 46 49.2737V47.6373H48.5C48.671 47.6373 48.835 47.6078 49 47.5816V49.2737ZM51 43.8189C51 45.3222 49.879 46.5463 48.5 46.5463H44V45.4553C44 44.252 43.103 43.2734 42 43.2734H38C36.897 43.2734 36 44.252 36 45.4553V46.5463H31.5C30.121 46.5463 29 45.3222 29 43.8189V42.0526C29 41.7275 29.037 41.4079 29.095 41.0915H31.5C31.776 41.0915 32 40.8471 32 40.546C32 40.2449 31.776 40.0005 31.5 40.0005H29.395L30.122 37.8186H49.877L50.604 40.0005H48.499C48.223 40.0005 47.999 40.2449 47.999 40.546C47.999 40.8471 48.223 41.0915 48.499 41.0915H50.904C50.962 41.4068 50.999 41.7275 50.999 42.0526L51 43.8189Z" fill="black" fill-opacity="0.2"/>
</svg>
