<svg width="80" height="80" viewBox="0 0 80 80" fill="none" xmlns="http://www.w3.org/2000/svg">
<rect x="18.5" y="18.5" width="43" height="43" rx="21.5" stroke="#303030"/>
<path d="M43.8182 52C43.5171 52 43.2727 51.7759 43.2727 51.4997V49.8056C43.2727 48.5188 44.0004 47.3591 45.172 46.7787C48.7109 45.0277 50.9091 41.6516 50.9091 37.9683C50.9091 34.1739 48.6138 30.7518 44.9211 29.0377C44.7575 28.9607 44.6113 29.0237 44.5567 29.0547C44.4978 29.0877 44.3636 29.1838 44.3636 29.3669V35.991C44.3636 38.1984 42.4065 39.9935 40 39.9935C37.5935 39.9935 35.6364 38.1984 35.6364 35.991V29.3659C35.6364 29.1828 35.5022 29.0877 35.4433 29.0537C35.3898 29.0237 35.2425 28.9597 35.0789 29.0367C31.3862 30.7518 29.0909 34.1739 29.0909 37.9683C29.0909 41.6516 31.2891 45.0277 34.828 46.7787C35.9996 47.3591 36.7273 48.5188 36.7273 49.8056V51.4997C36.7273 51.7759 36.4829 52 36.1818 52C35.8807 52 35.6364 51.7759 35.6364 51.4997V49.8056C35.6364 48.8871 35.128 48.0646 34.3098 47.6593C30.4185 45.7331 28 42.0188 28 37.9673C28 33.7947 30.5233 30.0303 34.5869 28.1441C35.0407 27.934 35.5764 27.956 36.016 28.2022C36.4611 28.4533 36.7273 28.8896 36.7273 29.3659V35.99C36.7273 37.6451 38.1956 38.9919 40 38.9919C41.8044 38.9919 43.2727 37.6451 43.2727 35.99V29.3659C43.2727 28.8886 43.5389 28.4533 43.984 28.2022C44.4236 27.955 44.9593 27.933 45.4131 28.1441C49.4767 30.0303 52 33.7937 52 37.9673C52 42.0188 49.5815 45.7331 45.6902 47.6593C44.872 48.0635 44.3636 48.8871 44.3636 49.8056V51.4997C44.3636 51.7759 44.1193 52 43.8182 52Z" fill="#303030"/>
</svg>
