<svg width="80" height="80" viewBox="0 0 80 80" fill="none" xmlns="http://www.w3.org/2000/svg">
<rect x="18.5" y="18.5" width="43" height="43" rx="21.5" stroke="#00142E"/>
<rect x="18.5" y="18.5" width="43" height="43" rx="21.5" stroke="black" stroke-opacity="0.2"/>
<path d="M47.5 31.9997H45.972C45.723 29.7529 43.812 28 41.5 28H32.5C30.019 28 28 30.0188 28 32.4996V46.3525C28 46.9614 28.333 47.5184 28.871 47.8053C29.115 47.9363 29.382 48.0003 29.648 48.0003C29.967 48.0003 30.286 47.9073 30.562 47.7234L34.086 45.3746C34.495 47.4374 36.319 48.9972 38.5 48.9972H45.349L49.438 51.723C49.714 51.908 50.032 52 50.352 52C50.618 52 50.885 51.936 51.129 51.805C51.666 51.518 52 50.9611 52 50.3521V36.4993C52 34.0185 49.981 31.9997 47.5 31.9997ZM30.007 46.8924C29.804 47.0274 29.557 47.0404 29.342 46.9244C29.128 46.8104 29 46.5965 29 46.3535V32.4996C29 30.5698 30.57 28.9999 32.5 28.9999H41.5C43.43 28.9999 45 30.5698 45 32.4996V40.499C45 42.4288 43.43 43.9987 41.5 43.9987H34.563C34.409 43.9987 34.278 44.0527 34.218 44.0857L30.007 46.8924ZM51 50.3531C51 50.5961 50.872 50.8101 50.658 50.9241C50.444 51.0391 50.195 51.0261 49.993 50.8921L45.778 48.0823C45.696 48.0273 45.599 47.9983 45.501 47.9983H38.501C36.741 47.9983 35.28 46.6924 35.037 44.9986H41.501C43.982 44.9986 46.001 42.9798 46.001 40.499V32.9996H47.501C49.431 32.9996 51.001 34.5695 51.001 36.4993V50.3521L51 50.3531Z" fill="#00142E"/>
<path d="M47.5 31.9997H45.972C45.723 29.7529 43.812 28 41.5 28H32.5C30.019 28 28 30.0188 28 32.4996V46.3525C28 46.9614 28.333 47.5184 28.871 47.8053C29.115 47.9363 29.382 48.0003 29.648 48.0003C29.967 48.0003 30.286 47.9073 30.562 47.7234L34.086 45.3746C34.495 47.4374 36.319 48.9972 38.5 48.9972H45.349L49.438 51.723C49.714 51.908 50.032 52 50.352 52C50.618 52 50.885 51.936 51.129 51.805C51.666 51.518 52 50.9611 52 50.3521V36.4993C52 34.0185 49.981 31.9997 47.5 31.9997ZM30.007 46.8924C29.804 47.0274 29.557 47.0404 29.342 46.9244C29.128 46.8104 29 46.5965 29 46.3535V32.4996C29 30.5698 30.57 28.9999 32.5 28.9999H41.5C43.43 28.9999 45 30.5698 45 32.4996V40.499C45 42.4288 43.43 43.9987 41.5 43.9987H34.563C34.409 43.9987 34.278 44.0527 34.218 44.0857L30.007 46.8924ZM51 50.3531C51 50.5961 50.872 50.8101 50.658 50.9241C50.444 51.0391 50.195 51.0261 49.993 50.8921L45.778 48.0823C45.696 48.0273 45.599 47.9983 45.501 47.9983H38.501C36.741 47.9983 35.28 46.6924 35.037 44.9986H41.501C43.982 44.9986 46.001 42.9798 46.001 40.499V32.9996H47.501C49.431 32.9996 51.001 34.5695 51.001 36.4993V50.3521L51 50.3531Z" fill="black" fill-opacity="0.2"/>
</svg>
