<svg width="357" height="260" viewBox="0 0 357 260" fill="none" xmlns="http://www.w3.org/2000/svg">
<rect width="357" height="260" fill="#212121"/>
<g clip-path="url(#clip0_3681_8716)">
<path d="M224.977 123.111C225.083 122.93 224.972 122.795 224.742 122.795C223.545 122.795 221.977 122.8 220.734 122.8C220.439 122.8 220.284 122.835 220.143 123.111C219.682 123.994 214.077 132.405 213.035 134.035C212.86 134.285 212.644 134.25 212.619 133.964C212.514 132.996 211.677 131.878 210.36 131.346C209.358 130.94 208.371 130.865 207.354 131C205.511 131.246 203.868 132.224 202.425 133.317C200.251 134.972 198.372 137.119 195.948 138.709C194.625 139.572 192.812 140.324 191.6 139.201C190.503 138.182 190.628 135.92 192.306 134.17C192.481 133.984 192.697 134.14 192.662 134.305C192.501 135.098 192.697 135.885 193.298 136.437C194.029 137.094 195.076 137.169 195.973 136.728C197.03 136.201 197.651 135.188 197.836 134.04C198.117 132.254 196.744 130.679 195.026 130.554C193.628 130.454 192.291 130.94 190.988 132.018C190.337 132.56 189.962 132.961 189.4 133.769C189.265 133.964 189.05 133.984 189.06 133.694C189.125 131.406 188.183 130.123 186.295 130.077C184.832 130.042 183.264 130.84 182.047 131.813C180.709 132.886 179.542 134.315 178.29 135.655C178.134 135.82 177.999 135.81 177.954 135.489C177.914 133.974 177.538 132.51 176.837 131.467C176.591 131.106 176.07 130.925 175.63 131.171C175.429 131.281 174.723 131.607 174.212 132.018C173.956 132.229 173.861 132.53 173.971 132.921C174.648 135.183 174.497 137.756 173.581 139.928C172.739 141.919 171.101 143.714 169.177 144.321C167.91 144.723 166.593 144.527 165.776 143.403C164.659 141.854 165.11 139.15 166.778 136.913C168.251 134.942 170.38 133.689 172.504 132.881C172.754 132.786 172.804 132.625 172.734 132.41C172.619 132.058 172.434 131.582 172.358 131.366C172.163 130.85 171.617 130.764 170.951 130.835C169.408 131.015 168.015 131.542 166.638 132.279C163.036 134.21 161.233 137.947 160.441 139.948C160.06 140.911 159.735 141.508 159.314 142.039C158.748 142.751 158.032 143.403 156.729 144.552C156.609 144.657 156.524 144.878 156.624 145.079C156.759 145.354 157.435 146.312 157.626 146.398C157.836 146.503 158.087 146.358 158.182 146.287C159.094 145.67 160.186 144.687 160.722 144.02C160.907 143.795 161.102 143.89 161.202 144.236C161.703 146.017 163.006 147.471 164.809 148.078C168.11 149.191 171.537 147.576 174.122 144.768C175.765 142.982 176.356 141.834 176.987 141.051C178.054 139.727 180.158 136.763 182.668 134.862C183.59 134.16 184.677 133.628 185.223 133.979C185.663 134.265 185.804 134.927 185.097 136.211C182.543 140.886 178.781 146.378 178.089 147.712C177.964 147.942 178.074 148.123 178.315 148.123C179.652 148.118 180.98 148.118 182.192 148.118C182.392 148.108 182.482 148.018 182.588 147.872C184.551 144.798 186.395 141.869 188.374 138.844C188.484 138.664 188.584 138.804 188.589 138.885C188.629 139.587 188.804 140.55 189.22 141.177C189.967 142.34 191.029 142.842 192.206 142.852C193.143 142.862 193.613 142.721 194.625 142.345C195.447 142.039 196.108 141.638 196.609 141.277C196.905 141.071 196.955 141.417 196.95 141.467C196.494 143.91 197.055 146.799 199.479 148.003C202.38 149.432 205.566 147.421 207.399 145.605C207.58 145.43 207.77 145.45 207.79 145.826C207.83 146.518 208.141 147.341 208.717 147.917C210.255 149.462 213.351 148.85 216.461 146.438C218.46 144.893 220.549 142.711 222.438 140.404C222.508 140.314 222.558 140.174 222.423 140.028C222.137 139.727 221.721 139.381 221.436 139.115C221.306 139.005 221.115 139.035 221.005 139.12C219.071 140.961 217.328 143.062 214.808 144.803C213.962 145.395 212.604 145.876 211.998 145.054C211.763 144.733 211.788 144.291 212.023 143.709C212.749 141.874 224.376 124.159 224.977 123.111ZM209.614 137.967C209.639 138.102 209.814 138.233 209.989 138.298C210.049 138.318 210.084 138.363 210.014 138.508C209.518 139.567 209.067 140.179 208.446 141.101C207.875 141.954 207.234 142.616 206.458 143.253C205.285 144.226 203.657 145.279 202.31 144.572C201.714 144.261 201.453 143.424 201.463 142.746C201.493 140.841 202.34 138.88 203.903 136.959C205.811 134.606 207.92 133.388 209.303 134.055C210.736 134.737 210.28 136.397 209.639 137.701C209.593 137.801 209.588 137.886 209.614 137.967Z" fill="#FEFEFE"/>
<path d="M140.674 148.053C136.341 148.083 132.524 145.405 132.088 140.761C131.842 138.188 132.569 135.896 134.026 134.01C135.314 132.33 137.498 130.93 139.346 130.589C139.948 130.479 140.754 130.549 141.09 130.945C141.616 131.557 141.46 132.224 140.939 132.495C139.532 133.217 137.834 134.451 136.997 136.131C136.316 137.506 136.18 139.166 137.217 140.741C138.956 143.374 143.81 143.444 148.318 139.246C149.435 138.218 150.432 137.235 151.449 136.066C153.438 133.794 154.094 132.962 156.739 129.295C156.769 129.255 156.779 129.195 156.764 129.17C156.744 129.125 156.704 129.11 156.629 129.105C154.866 129.155 153.328 129.681 151.835 130.8C151.404 131.116 150.788 131.071 150.512 130.654C150.212 130.188 150.427 129.576 150.923 129.235C153.328 127.56 155.953 127.259 158.633 126.808C158.633 126.808 158.818 126.818 158.973 126.612C160.075 125.198 160.907 123.924 162.079 122.494C163.261 121.045 164.789 119.711 165.956 118.713C167.584 117.308 168.626 116.837 169.688 116.26C169.969 116.115 169.653 115.939 169.568 115.939C163.642 114.826 157.485 113.381 151.599 115.563C147.527 117.088 145.738 120.323 146.6 122.484C147.211 124.019 149.225 124.265 151.114 123.342C152.681 122.575 154.129 121.336 155.156 119.741C155.732 118.858 156.944 119.495 156.288 121.03C154.565 125.082 151.274 128.297 147.266 128.433C143.855 128.543 141.656 126.03 141.661 122.931C141.676 116.817 148.474 112.794 155.612 112.188C164.213 111.475 172.358 113.767 180.9 114.806C187.442 115.598 193.719 115.618 200.291 114.103C201.067 113.933 201.613 114.429 201.563 115.217C201.498 116.355 200.622 117.449 198.453 118.632C195.988 119.987 193.413 120.393 190.718 120.418C184.211 120.473 178.144 117.93 171.873 116.566C171.883 116.842 171.953 117.168 171.722 117.343C168.251 119.911 165.11 122.519 163.006 126.181C162.936 126.266 162.976 126.346 163.096 126.336C164.924 126.241 166.568 126.191 168.271 126.055C168.566 126.03 168.581 125.955 168.551 125.739C168.401 124.475 168.767 123.041 169.879 122.048C171.011 121.03 172.434 120.914 173.375 121.647C174.447 122.484 174.352 123.984 173.766 125.112C173.17 126.256 172.188 126.868 171.241 127.164C171.241 127.164 171.046 127.209 171.071 127.389C171.111 127.68 172.399 128.392 172.509 128.583C172.614 128.764 172.559 129.045 172.363 129.26C172.228 129.416 172.013 129.561 171.742 129.556C171.522 129.551 171.387 129.476 171.106 129.32C170.53 129.004 169.809 128.493 169.323 127.886C169.157 127.68 169.077 127.675 168.667 127.7C166.823 127.806 163.943 128.087 161.994 128.327C161.523 128.387 161.453 128.473 161.353 128.638C158.242 133.769 154.926 139.306 151.284 143.008C147.376 146.98 144.125 148.028 140.674 148.053ZM170.3 125.248C170.35 125.514 170.45 125.564 170.57 125.539C171.161 125.418 171.812 124.932 172.193 124.37C172.544 123.859 172.709 123.116 172.358 122.82C172.048 122.554 171.547 122.63 171.171 122.961C170.43 123.618 170.199 124.556 170.3 125.248Z" fill="#FEFEFE"/>
</g>
<g clip-path="url(#clip1_3681_8716)">
<rect x="72" y="130" width="48" height="1" fill="#C54600"/>
<g clip-path="url(#clip2_3681_8716)">
<rect x="72" y="118" width="24" height="24" rx="12" fill="#C54600"/>
<path d="M85.5687 125.273V134H83.7235V127.024H83.6724L81.6738 128.277V126.641L83.8343 125.273H85.5687Z" fill="white"/>
</g>
</g>
<g clip-path="url(#clip3_3681_8716)">
<rect x="166.804" y="52" width="1" height="60.0528" fill="#C54600"/>
<g clip-path="url(#clip4_3681_8716)">
<rect x="154.804" y="52" width="24" height="24" rx="12" fill="#C54600"/>
<path d="M163.732 68V66.6705L166.838 63.794C167.102 63.5384 167.324 63.3082 167.503 63.1037C167.685 62.8991 167.823 62.6989 167.916 62.5028C168.01 62.304 168.057 62.0895 168.057 61.8594C168.057 61.6037 167.999 61.3835 167.882 61.1989C167.766 61.0114 167.607 60.8679 167.405 60.7685C167.203 60.6662 166.975 60.6151 166.719 60.6151C166.452 60.6151 166.219 60.669 166.02 60.777C165.821 60.8849 165.668 61.0398 165.56 61.2415C165.452 61.4432 165.398 61.6832 165.398 61.9616H163.647C163.647 61.3906 163.776 60.8949 164.034 60.4744C164.293 60.054 164.655 59.7287 165.121 59.4986C165.587 59.2685 166.124 59.1534 166.732 59.1534C167.357 59.1534 167.901 59.2642 168.364 59.4858C168.83 59.7045 169.192 60.0085 169.45 60.3977C169.709 60.7869 169.838 61.233 169.838 61.7358C169.838 62.0653 169.773 62.3906 169.642 62.7116C169.514 63.0327 169.286 63.3892 168.956 63.7812C168.627 64.1705 168.162 64.6378 167.563 65.1832L166.289 66.4318V66.4915H169.953V68H163.732Z" fill="white"/>
</g>
</g>
<defs>
<clipPath id="clip0_3681_8716">
<rect width="117" height="60" fill="white" transform="translate(120 100)"/>
</clipPath>
<clipPath id="clip1_3681_8716">
<rect width="48" height="24" fill="white" transform="translate(72 118)"/>
</clipPath>
<clipPath id="clip2_3681_8716">
<rect x="72" y="118" width="24" height="24" rx="12" fill="white"/>
</clipPath>
<clipPath id="clip3_3681_8716">
<rect width="24" height="60.0528" fill="white" transform="translate(154.804 52)"/>
</clipPath>
<clipPath id="clip4_3681_8716">
<rect x="154.804" y="52" width="24" height="24" rx="12" fill="white"/>
</clipPath>
</defs>
</svg>
