<svg width="2160" height="260" viewBox="0 0 2160 260" fill="none" xmlns="http://www.w3.org/2000/svg">
<g opacity="0.2">
<rect width="1920" height="60" transform="translate(120 100)" fill="url(#paint0_linear_1418_8973)"/>
<g clip-path="url(#clip0_1418_8973)">
<path d="M384.977 123.111C385.083 122.931 384.972 122.795 384.742 122.795C383.545 122.795 381.977 122.8 380.734 122.8C380.439 122.8 380.284 122.835 380.143 123.111C379.682 123.994 374.077 132.405 373.035 134.035C372.86 134.286 372.644 134.251 372.619 133.965C372.514 132.997 371.677 131.878 370.36 131.347C369.358 130.94 368.371 130.865 367.354 131.001C365.511 131.246 363.868 132.224 362.425 133.318C360.251 134.973 358.372 137.119 355.948 138.709C354.625 139.572 352.812 140.324 351.6 139.201C350.503 138.183 350.628 135.921 352.306 134.17C352.481 133.985 352.697 134.14 352.662 134.306C352.501 135.098 352.697 135.886 353.298 136.437C354.029 137.094 355.076 137.17 355.973 136.728C357.03 136.202 357.651 135.189 357.836 134.04C358.117 132.254 356.744 130.68 355.026 130.554C353.628 130.454 352.291 130.94 350.988 132.019C350.337 132.56 349.961 132.962 349.4 133.769C349.265 133.965 349.05 133.985 349.06 133.694C349.125 131.407 348.183 130.123 346.295 130.078C344.832 130.043 343.264 130.84 342.047 131.813C340.709 132.886 339.542 134.316 338.29 135.655C338.134 135.82 337.999 135.81 337.954 135.489C337.914 133.975 337.538 132.51 336.837 131.467C336.591 131.106 336.07 130.925 335.63 131.171C335.429 131.281 334.723 131.607 334.212 132.019C333.956 132.229 333.861 132.53 333.971 132.922C334.648 135.183 334.497 137.756 333.581 139.928C332.739 141.919 331.101 143.715 329.177 144.322C327.91 144.723 326.593 144.527 325.776 143.404C324.659 141.854 325.11 139.151 326.778 136.914C328.251 134.943 330.38 133.689 332.504 132.881C332.754 132.786 332.804 132.626 332.734 132.41C332.619 132.059 332.434 131.582 332.358 131.367C332.163 130.85 331.617 130.765 330.951 130.835C329.408 131.016 328.015 131.542 326.638 132.28C323.036 134.21 321.232 137.947 320.441 139.948C320.06 140.911 319.735 141.508 319.314 142.04C318.748 142.752 318.031 143.404 316.729 144.552C316.609 144.658 316.524 144.878 316.624 145.079C316.759 145.355 317.435 146.313 317.626 146.398C317.836 146.503 318.087 146.358 318.182 146.288C319.093 145.671 320.186 144.688 320.722 144.021C320.907 143.795 321.102 143.89 321.202 144.236C321.703 146.017 323.006 147.471 324.809 148.078C328.11 149.192 331.537 147.577 334.122 144.768C335.765 142.983 336.356 141.834 336.987 141.052C338.054 139.727 340.158 136.763 342.668 134.862C343.59 134.16 344.677 133.629 345.223 133.98C345.663 134.266 345.804 134.928 345.097 136.212C342.543 140.886 338.78 146.378 338.089 147.712C337.964 147.943 338.074 148.123 338.315 148.123C339.652 148.118 340.98 148.118 342.192 148.118C342.392 148.108 342.482 148.018 342.588 147.873C344.551 144.798 346.395 141.869 348.374 138.845C348.484 138.664 348.584 138.805 348.589 138.885C348.629 139.587 348.804 140.55 349.22 141.177C349.967 142.341 351.029 142.842 352.206 142.852C353.142 142.862 353.613 142.722 354.625 142.346C355.447 142.04 356.108 141.638 356.609 141.277C356.905 141.072 356.955 141.418 356.95 141.468C356.494 143.91 357.055 146.799 359.479 148.003C362.38 149.432 365.566 147.421 367.399 145.606C367.58 145.43 367.77 145.45 367.79 145.826C367.83 146.518 368.141 147.341 368.717 147.918C370.255 149.463 373.35 148.851 376.461 146.438C378.46 144.893 380.549 142.712 382.438 140.405C382.508 140.314 382.558 140.174 382.423 140.028C382.137 139.727 381.721 139.381 381.436 139.116C381.305 139.005 381.115 139.035 381.005 139.121C379.071 140.961 377.328 143.063 374.808 144.803C373.962 145.395 372.604 145.876 371.998 145.054C371.762 144.733 371.788 144.292 372.023 143.71C372.749 141.874 384.376 124.159 384.977 123.111ZM369.613 137.967C369.638 138.102 369.814 138.233 369.989 138.298C370.049 138.318 370.084 138.363 370.014 138.509C369.518 139.567 369.067 140.179 368.446 141.102C367.875 141.954 367.234 142.616 366.458 143.253C365.285 144.226 363.657 145.28 362.31 144.572C361.714 144.261 361.453 143.424 361.463 142.747C361.493 140.841 362.34 138.88 363.903 136.959C365.811 134.607 367.92 133.388 369.303 134.055C370.736 134.737 370.28 136.397 369.638 137.701C369.593 137.802 369.588 137.887 369.613 137.967Z" fill="#FEFEFE"/>
<path d="M300.674 148.053C296.341 148.083 292.524 145.405 292.088 140.761C291.842 138.188 292.569 135.896 294.026 134.01C295.314 132.33 297.498 130.93 299.346 130.589C299.948 130.479 300.754 130.549 301.09 130.945C301.616 131.557 301.46 132.224 300.939 132.495C299.532 133.217 297.834 134.451 296.997 136.131C296.316 137.506 296.18 139.166 297.217 140.741C298.956 143.374 303.81 143.444 308.318 139.246C309.435 138.218 310.432 137.235 311.449 136.066C313.438 133.794 314.094 132.962 316.739 129.295C316.769 129.255 316.779 129.195 316.764 129.17C316.744 129.125 316.704 129.11 316.629 129.105C314.866 129.155 313.328 129.681 311.835 130.8C311.404 131.116 310.788 131.071 310.512 130.654C310.212 130.188 310.427 129.576 310.923 129.235C313.328 127.56 315.953 127.259 318.633 126.808C318.633 126.808 318.818 126.818 318.973 126.612C320.075 125.198 320.907 123.924 322.079 122.494C323.261 121.045 324.789 119.711 325.956 118.713C327.585 117.308 328.626 116.837 329.688 116.26C329.969 116.115 329.653 115.939 329.568 115.939C323.642 114.826 317.486 113.381 311.599 115.563C307.527 117.088 305.738 120.323 306.6 122.484C307.211 124.019 309.225 124.265 311.114 123.342C312.681 122.575 314.129 121.336 315.156 119.741C315.732 118.858 316.945 119.495 316.288 121.03C314.565 125.082 311.274 128.297 307.266 128.433C303.855 128.543 301.656 126.03 301.661 122.931C301.676 116.817 308.474 112.794 315.612 112.188C324.213 111.475 332.358 113.767 340.9 114.806C347.442 115.598 353.719 115.618 360.291 114.103C361.067 113.933 361.614 114.429 361.563 115.217C361.498 116.355 360.622 117.449 358.453 118.632C355.988 119.987 353.413 120.393 350.718 120.418C344.211 120.473 338.144 117.93 331.873 116.566C331.883 116.842 331.953 117.168 331.722 117.343C328.251 119.911 325.11 122.519 323.006 126.181C322.936 126.266 322.976 126.346 323.096 126.336C324.925 126.241 326.568 126.191 328.271 126.055C328.566 126.03 328.581 125.955 328.551 125.739C328.401 124.475 328.767 123.041 329.879 122.048C331.011 121.03 332.434 120.914 333.375 121.647C334.447 122.484 334.352 123.984 333.766 125.112C333.17 126.256 332.188 126.868 331.241 127.164C331.241 127.164 331.046 127.209 331.071 127.389C331.111 127.68 332.399 128.392 332.509 128.583C332.614 128.764 332.559 129.045 332.364 129.26C332.228 129.416 332.013 129.561 331.742 129.556C331.522 129.551 331.387 129.476 331.106 129.32C330.53 129.004 329.809 128.493 329.323 127.886C329.157 127.68 329.077 127.675 328.667 127.7C326.823 127.806 323.943 128.087 321.994 128.327C321.523 128.387 321.453 128.473 321.353 128.638C318.242 133.769 314.926 139.306 311.284 143.008C307.377 146.98 304.125 148.028 300.674 148.053ZM330.3 125.248C330.35 125.514 330.45 125.564 330.57 125.539C331.161 125.418 331.812 124.932 332.193 124.37C332.544 123.859 332.709 123.116 332.358 122.82C332.048 122.554 331.547 122.63 331.171 122.961C330.43 123.618 330.199 124.556 330.3 125.248Z" fill="#FEFEFE"/>
</g>
<path d="M746.086 136L741.992 124.547H744.5L747.398 133.023L750.203 124.547H752.656L748.555 136H746.086ZM757.734 133.359L759.922 133.727C759.641 134.529 759.195 135.141 758.586 135.562C757.982 135.979 757.224 136.188 756.312 136.188C754.87 136.188 753.802 135.716 753.109 134.773C752.562 134.018 752.289 133.065 752.289 131.914C752.289 130.539 752.648 129.464 753.367 128.688C754.086 127.906 754.995 127.516 756.094 127.516C757.328 127.516 758.302 127.924 759.016 128.742C759.729 129.555 760.07 130.802 760.039 132.484H754.539C754.555 133.135 754.732 133.643 755.07 134.008C755.409 134.367 755.831 134.547 756.336 134.547C756.68 134.547 756.969 134.453 757.203 134.266C757.438 134.078 757.615 133.776 757.734 133.359ZM757.859 131.141C757.844 130.505 757.68 130.023 757.367 129.695C757.055 129.362 756.674 129.195 756.227 129.195C755.747 129.195 755.352 129.37 755.039 129.719C754.727 130.068 754.573 130.542 754.578 131.141H757.859ZM764.023 124.547V128.758C764.732 127.93 765.578 127.516 766.562 127.516C767.068 127.516 767.523 127.609 767.93 127.797C768.336 127.984 768.641 128.224 768.844 128.516C769.052 128.807 769.193 129.13 769.266 129.484C769.344 129.839 769.383 130.388 769.383 131.133V136H767.188V131.617C767.188 130.747 767.146 130.195 767.062 129.961C766.979 129.727 766.831 129.542 766.617 129.406C766.409 129.266 766.146 129.195 765.828 129.195C765.464 129.195 765.138 129.284 764.852 129.461C764.565 129.638 764.354 129.906 764.219 130.266C764.089 130.62 764.023 131.146 764.023 131.844V136H761.828V124.547H764.023ZM771.617 136V127.703H773.812V136H771.617ZM771.453 126.688L772.531 124.352H774.992L772.844 126.688H771.453ZM783.305 130.156L781.141 130.547C781.068 130.115 780.901 129.789 780.641 129.57C780.385 129.352 780.052 129.242 779.641 129.242C779.094 129.242 778.656 129.432 778.328 129.812C778.005 130.188 777.844 130.818 777.844 131.703C777.844 132.688 778.008 133.383 778.336 133.789C778.669 134.195 779.115 134.398 779.672 134.398C780.089 134.398 780.43 134.281 780.695 134.047C780.961 133.807 781.148 133.398 781.258 132.82L783.414 133.188C783.19 134.177 782.76 134.924 782.125 135.43C781.49 135.935 780.638 136.188 779.57 136.188C778.357 136.188 777.388 135.805 776.664 135.039C775.945 134.273 775.586 133.214 775.586 131.859C775.586 130.49 775.948 129.424 776.672 128.664C777.396 127.898 778.375 127.516 779.609 127.516C780.62 127.516 781.422 127.734 782.016 128.172C782.615 128.604 783.044 129.266 783.305 130.156ZM790.438 136V134.758C790.135 135.201 789.737 135.549 789.242 135.805C788.753 136.06 788.234 136.188 787.688 136.188C787.13 136.188 786.63 136.065 786.188 135.82C785.745 135.576 785.424 135.232 785.227 134.789C785.029 134.346 784.93 133.734 784.93 132.953V127.703H787.125V131.516C787.125 132.682 787.164 133.398 787.242 133.664C787.326 133.924 787.474 134.133 787.688 134.289C787.901 134.44 788.172 134.516 788.5 134.516C788.875 134.516 789.211 134.414 789.508 134.211C789.805 134.003 790.008 133.747 790.117 133.445C790.227 133.138 790.281 132.391 790.281 131.203V127.703H792.477V136H790.438ZM794.758 136V124.547H796.953V136H794.758ZM798.703 131.734C798.703 131.005 798.883 130.299 799.242 129.617C799.602 128.935 800.109 128.414 800.766 128.055C801.427 127.695 802.164 127.516 802.977 127.516C804.232 127.516 805.26 127.924 806.062 128.742C806.865 129.555 807.266 130.583 807.266 131.828C807.266 133.083 806.859 134.125 806.047 134.953C805.24 135.776 804.221 136.188 802.992 136.188C802.232 136.188 801.505 136.016 800.812 135.672C800.125 135.328 799.602 134.826 799.242 134.164C798.883 133.497 798.703 132.688 798.703 131.734ZM800.953 131.852C800.953 132.674 801.148 133.305 801.539 133.742C801.93 134.18 802.411 134.398 802.984 134.398C803.557 134.398 804.036 134.18 804.422 133.742C804.812 133.305 805.008 132.669 805.008 131.836C805.008 131.023 804.812 130.398 804.422 129.961C804.036 129.523 803.557 129.305 802.984 129.305C802.411 129.305 801.93 129.523 801.539 129.961C801.148 130.398 800.953 131.029 800.953 131.852ZM808.219 133.633L810.422 133.297C810.516 133.724 810.706 134.049 810.992 134.273C811.279 134.492 811.68 134.602 812.195 134.602C812.763 134.602 813.19 134.497 813.477 134.289C813.669 134.143 813.766 133.948 813.766 133.703C813.766 133.536 813.714 133.398 813.609 133.289C813.5 133.185 813.255 133.089 812.875 133C811.104 132.609 809.982 132.253 809.508 131.93C808.852 131.482 808.523 130.859 808.523 130.062C808.523 129.344 808.807 128.74 809.375 128.25C809.943 127.76 810.823 127.516 812.016 127.516C813.151 127.516 813.995 127.701 814.547 128.07C815.099 128.44 815.479 128.987 815.688 129.711L813.617 130.094C813.529 129.771 813.359 129.523 813.109 129.352C812.865 129.18 812.513 129.094 812.055 129.094C811.477 129.094 811.062 129.174 810.812 129.336C810.646 129.451 810.562 129.599 810.562 129.781C810.562 129.938 810.635 130.07 810.781 130.18C810.979 130.326 811.661 130.531 812.828 130.797C814 131.062 814.818 131.388 815.281 131.773C815.74 132.164 815.969 132.708 815.969 133.406C815.969 134.167 815.651 134.82 815.016 135.367C814.38 135.914 813.44 136.188 812.195 136.188C811.065 136.188 810.169 135.958 809.508 135.5C808.852 135.042 808.422 134.419 808.219 133.633Z" fill="#FEFEFE"/>
<path d="M872.18 136V124.547H880.031V126.484H874.492V129.195H879.273V131.133H874.492V136H872.18ZM881.93 126.578V124.547H884.125V126.578H881.93ZM881.93 136V127.703H884.125V136H881.93ZM893.93 136H891.734V131.766C891.734 130.87 891.688 130.292 891.594 130.031C891.5 129.766 891.346 129.56 891.133 129.414C890.924 129.268 890.672 129.195 890.375 129.195C889.995 129.195 889.654 129.299 889.352 129.508C889.049 129.716 888.841 129.992 888.727 130.336C888.617 130.68 888.562 131.315 888.562 132.242V136H886.367V127.703H888.406V128.922C889.13 127.984 890.042 127.516 891.141 127.516C891.625 127.516 892.068 127.604 892.469 127.781C892.87 127.953 893.172 128.174 893.375 128.445C893.583 128.716 893.727 129.023 893.805 129.367C893.888 129.711 893.93 130.203 893.93 130.844V136ZM897.805 130.234L895.812 129.875C896.036 129.073 896.422 128.479 896.969 128.094C897.516 127.708 898.328 127.516 899.406 127.516C900.385 127.516 901.115 127.633 901.594 127.867C902.073 128.096 902.409 128.391 902.602 128.75C902.799 129.104 902.898 129.758 902.898 130.711L902.875 133.273C902.875 134.003 902.909 134.542 902.977 134.891C903.049 135.234 903.182 135.604 903.375 136H901.203C901.146 135.854 901.076 135.638 900.992 135.352C900.956 135.221 900.93 135.135 900.914 135.094C900.539 135.458 900.138 135.732 899.711 135.914C899.284 136.096 898.828 136.188 898.344 136.188C897.49 136.188 896.815 135.956 896.32 135.492C895.831 135.029 895.586 134.443 895.586 133.734C895.586 133.266 895.698 132.849 895.922 132.484C896.146 132.115 896.458 131.833 896.859 131.641C897.266 131.443 897.849 131.271 898.609 131.125C899.635 130.932 900.346 130.753 900.742 130.586V130.367C900.742 129.945 900.638 129.646 900.43 129.469C900.221 129.286 899.828 129.195 899.25 129.195C898.859 129.195 898.555 129.273 898.336 129.43C898.117 129.581 897.94 129.849 897.805 130.234ZM900.742 132.016C900.461 132.109 900.016 132.221 899.406 132.352C898.797 132.482 898.398 132.609 898.211 132.734C897.924 132.938 897.781 133.195 897.781 133.508C897.781 133.815 897.896 134.081 898.125 134.305C898.354 134.529 898.646 134.641 899 134.641C899.396 134.641 899.773 134.51 900.133 134.25C900.398 134.052 900.573 133.81 900.656 133.523C900.714 133.336 900.742 132.979 900.742 132.453V132.016ZM912.617 136H910.422V131.766C910.422 130.87 910.375 130.292 910.281 130.031C910.188 129.766 910.034 129.56 909.82 129.414C909.612 129.268 909.359 129.195 909.062 129.195C908.682 129.195 908.341 129.299 908.039 129.508C907.737 129.716 907.529 129.992 907.414 130.336C907.305 130.68 907.25 131.315 907.25 132.242V136H905.055V127.703H907.094V128.922C907.818 127.984 908.729 127.516 909.828 127.516C910.312 127.516 910.755 127.604 911.156 127.781C911.557 127.953 911.859 128.174 912.062 128.445C912.271 128.716 912.414 129.023 912.492 129.367C912.576 129.711 912.617 130.203 912.617 130.844V136ZM922.086 130.156L919.922 130.547C919.849 130.115 919.682 129.789 919.422 129.57C919.167 129.352 918.833 129.242 918.422 129.242C917.875 129.242 917.438 129.432 917.109 129.812C916.786 130.188 916.625 130.818 916.625 131.703C916.625 132.688 916.789 133.383 917.117 133.789C917.451 134.195 917.896 134.398 918.453 134.398C918.87 134.398 919.211 134.281 919.477 134.047C919.742 133.807 919.93 133.398 920.039 132.82L922.195 133.188C921.971 134.177 921.542 134.924 920.906 135.43C920.271 135.935 919.419 136.188 918.352 136.188C917.138 136.188 916.169 135.805 915.445 135.039C914.727 134.273 914.367 133.214 914.367 131.859C914.367 130.49 914.729 129.424 915.453 128.664C916.177 127.898 917.156 127.516 918.391 127.516C919.401 127.516 920.203 127.734 920.797 128.172C921.396 128.604 921.826 129.266 922.086 130.156ZM923.758 126.578V124.547H925.953V126.578H923.758ZM923.758 136V127.703H925.953V136H923.758ZM929.852 130.234L927.859 129.875C928.083 129.073 928.469 128.479 929.016 128.094C929.562 127.708 930.375 127.516 931.453 127.516C932.432 127.516 933.161 127.633 933.641 127.867C934.12 128.096 934.456 128.391 934.648 128.75C934.846 129.104 934.945 129.758 934.945 130.711L934.922 133.273C934.922 134.003 934.956 134.542 935.023 134.891C935.096 135.234 935.229 135.604 935.422 136H933.25C933.193 135.854 933.122 135.638 933.039 135.352C933.003 135.221 932.977 135.135 932.961 135.094C932.586 135.458 932.185 135.732 931.758 135.914C931.331 136.096 930.875 136.188 930.391 136.188C929.536 136.188 928.862 135.956 928.367 135.492C927.878 135.029 927.633 134.443 927.633 133.734C927.633 133.266 927.745 132.849 927.969 132.484C928.193 132.115 928.505 131.833 928.906 131.641C929.312 131.443 929.896 131.271 930.656 131.125C931.682 130.932 932.393 130.753 932.789 130.586V130.367C932.789 129.945 932.685 129.646 932.477 129.469C932.268 129.286 931.875 129.195 931.297 129.195C930.906 129.195 930.602 129.273 930.383 129.43C930.164 129.581 929.987 129.849 929.852 130.234ZM932.789 132.016C932.508 132.109 932.062 132.221 931.453 132.352C930.844 132.482 930.445 132.609 930.258 132.734C929.971 132.938 929.828 133.195 929.828 133.508C929.828 133.815 929.943 134.081 930.172 134.305C930.401 134.529 930.693 134.641 931.047 134.641C931.443 134.641 931.82 134.51 932.18 134.25C932.445 134.052 932.62 133.81 932.703 133.523C932.76 133.336 932.789 132.979 932.789 132.453V132.016ZM944.352 130.156L942.188 130.547C942.115 130.115 941.948 129.789 941.688 129.57C941.432 129.352 941.099 129.242 940.688 129.242C940.141 129.242 939.703 129.432 939.375 129.812C939.052 130.188 938.891 130.818 938.891 131.703C938.891 132.688 939.055 133.383 939.383 133.789C939.716 134.195 940.161 134.398 940.719 134.398C941.135 134.398 941.477 134.281 941.742 134.047C942.008 133.807 942.195 133.398 942.305 132.82L944.461 133.188C944.237 134.177 943.807 134.924 943.172 135.43C942.536 135.935 941.685 136.188 940.617 136.188C939.404 136.188 938.435 135.805 937.711 135.039C936.992 134.273 936.633 133.214 936.633 131.859C936.633 130.49 936.995 129.424 937.719 128.664C938.443 127.898 939.422 127.516 940.656 127.516C941.667 127.516 942.469 127.734 943.062 128.172C943.661 128.604 944.091 129.266 944.352 130.156ZM946.023 126.578V124.547H948.219V126.578H946.023ZM946.023 136V127.703H948.219V136H946.023ZM949.969 131.734C949.969 131.005 950.148 130.299 950.508 129.617C950.867 128.935 951.375 128.414 952.031 128.055C952.693 127.695 953.43 127.516 954.242 127.516C955.497 127.516 956.526 127.924 957.328 128.742C958.13 129.555 958.531 130.583 958.531 131.828C958.531 133.083 958.125 134.125 957.312 134.953C956.505 135.776 955.487 136.188 954.258 136.188C953.497 136.188 952.771 136.016 952.078 135.672C951.391 135.328 950.867 134.826 950.508 134.164C950.148 133.497 949.969 132.688 949.969 131.734ZM952.219 131.852C952.219 132.674 952.414 133.305 952.805 133.742C953.195 134.18 953.677 134.398 954.25 134.398C954.823 134.398 955.302 134.18 955.688 133.742C956.078 133.305 956.273 132.669 956.273 131.836C956.273 131.023 956.078 130.398 955.688 129.961C955.302 129.523 954.823 129.305 954.25 129.305C953.677 129.305 953.195 129.523 952.805 129.961C952.414 130.398 952.219 131.029 952.219 131.852ZM953.141 126.688L954.219 124.352H956.68L954.531 126.688H953.141ZM967.805 136H965.609V131.766C965.609 130.87 965.562 130.292 965.469 130.031C965.375 129.766 965.221 129.56 965.008 129.414C964.799 129.268 964.547 129.195 964.25 129.195C963.87 129.195 963.529 129.299 963.227 129.508C962.924 129.716 962.716 129.992 962.602 130.336C962.492 130.68 962.438 131.315 962.438 132.242V136H960.242V127.703H962.281V128.922C963.005 127.984 963.917 127.516 965.016 127.516C965.5 127.516 965.943 127.604 966.344 127.781C966.745 127.953 967.047 128.174 967.25 128.445C967.458 128.716 967.602 129.023 967.68 129.367C967.763 129.711 967.805 130.203 967.805 130.844V136Z" fill="#FEFEFE"/>
<path d="M1024.16 136V124.547H1027.88C1029.28 124.547 1030.2 124.604 1030.62 124.719C1031.28 124.891 1031.83 125.266 1032.27 125.844C1032.72 126.417 1032.94 127.159 1032.94 128.07C1032.94 128.773 1032.81 129.365 1032.55 129.844C1032.3 130.323 1031.97 130.701 1031.58 130.977C1031.19 131.247 1030.79 131.427 1030.38 131.516C1029.83 131.625 1029.03 131.68 1027.98 131.68H1026.48V136H1024.16ZM1026.48 126.484V129.734H1027.74C1028.65 129.734 1029.26 129.674 1029.57 129.555C1029.88 129.435 1030.12 129.247 1030.29 128.992C1030.47 128.737 1030.55 128.44 1030.55 128.102C1030.55 127.685 1030.43 127.341 1030.19 127.07C1029.94 126.799 1029.63 126.63 1029.26 126.562C1028.98 126.51 1028.43 126.484 1027.59 126.484H1026.48ZM1034.31 131.734C1034.31 131.005 1034.49 130.299 1034.85 129.617C1035.21 128.935 1035.72 128.414 1036.38 128.055C1037.04 127.695 1037.77 127.516 1038.59 127.516C1039.84 127.516 1040.87 127.924 1041.67 128.742C1042.47 129.555 1042.88 130.583 1042.88 131.828C1042.88 133.083 1042.47 134.125 1041.66 134.953C1040.85 135.776 1039.83 136.188 1038.6 136.188C1037.84 136.188 1037.11 136.016 1036.42 135.672C1035.73 135.328 1035.21 134.826 1034.85 134.164C1034.49 133.497 1034.31 132.688 1034.31 131.734ZM1036.56 131.852C1036.56 132.674 1036.76 133.305 1037.15 133.742C1037.54 134.18 1038.02 134.398 1038.59 134.398C1039.17 134.398 1039.65 134.18 1040.03 133.742C1040.42 133.305 1040.62 132.669 1040.62 131.836C1040.62 131.023 1040.42 130.398 1040.03 129.961C1039.65 129.523 1039.17 129.305 1038.59 129.305C1038.02 129.305 1037.54 129.523 1037.15 129.961C1036.76 130.398 1036.56 131.029 1036.56 131.852ZM1043.83 133.633L1046.03 133.297C1046.12 133.724 1046.32 134.049 1046.6 134.273C1046.89 134.492 1047.29 134.602 1047.8 134.602C1048.37 134.602 1048.8 134.497 1049.09 134.289C1049.28 134.143 1049.38 133.948 1049.38 133.703C1049.38 133.536 1049.32 133.398 1049.22 133.289C1049.11 133.185 1048.86 133.089 1048.48 133C1046.71 132.609 1045.59 132.253 1045.12 131.93C1044.46 131.482 1044.13 130.859 1044.13 130.062C1044.13 129.344 1044.42 128.74 1044.98 128.25C1045.55 127.76 1046.43 127.516 1047.62 127.516C1048.76 127.516 1049.6 127.701 1050.16 128.07C1050.71 128.44 1051.09 128.987 1051.3 129.711L1049.23 130.094C1049.14 129.771 1048.97 129.523 1048.72 129.352C1048.47 129.18 1048.12 129.094 1047.66 129.094C1047.09 129.094 1046.67 129.174 1046.42 129.336C1046.26 129.451 1046.17 129.599 1046.17 129.781C1046.17 129.938 1046.24 130.07 1046.39 130.18C1046.59 130.326 1047.27 130.531 1048.44 130.797C1049.61 131.062 1050.43 131.388 1050.89 131.773C1051.35 132.164 1051.58 132.708 1051.58 133.406C1051.58 134.167 1051.26 134.82 1050.62 135.367C1049.99 135.914 1049.05 136.188 1047.8 136.188C1046.67 136.188 1045.78 135.958 1045.12 135.5C1044.46 135.042 1044.03 134.419 1043.83 133.633ZM1055.79 136L1052.45 127.703H1054.75L1056.31 131.938L1056.77 133.352C1056.89 132.992 1056.96 132.755 1056.99 132.641C1057.07 132.406 1057.14 132.172 1057.23 131.938L1058.8 127.703H1061.06L1057.77 136H1055.79ZM1067.22 133.359L1069.41 133.727C1069.12 134.529 1068.68 135.141 1068.07 135.562C1067.47 135.979 1066.71 136.188 1065.8 136.188C1064.35 136.188 1063.29 135.716 1062.59 134.773C1062.05 134.018 1061.77 133.065 1061.77 131.914C1061.77 130.539 1062.13 129.464 1062.85 128.688C1063.57 127.906 1064.48 127.516 1065.58 127.516C1066.81 127.516 1067.79 127.924 1068.5 128.742C1069.21 129.555 1069.55 130.802 1069.52 132.484H1064.02C1064.04 133.135 1064.22 133.643 1064.55 134.008C1064.89 134.367 1065.32 134.547 1065.82 134.547C1066.16 134.547 1066.45 134.453 1066.69 134.266C1066.92 134.078 1067.1 133.776 1067.22 133.359ZM1067.34 131.141C1067.33 130.505 1067.16 130.023 1066.85 129.695C1066.54 129.362 1066.16 129.195 1065.71 129.195C1065.23 129.195 1064.84 129.37 1064.52 129.719C1064.21 130.068 1064.06 130.542 1064.06 131.141H1067.34ZM1078.87 136H1076.67V131.766C1076.67 130.87 1076.62 130.292 1076.53 130.031C1076.44 129.766 1076.28 129.56 1076.07 129.414C1075.86 129.268 1075.61 129.195 1075.31 129.195C1074.93 129.195 1074.59 129.299 1074.29 129.508C1073.99 129.716 1073.78 129.992 1073.66 130.336C1073.55 130.68 1073.5 131.315 1073.5 132.242V136H1071.3V127.703H1073.34V128.922C1074.07 127.984 1074.98 127.516 1076.08 127.516C1076.56 127.516 1077.01 127.604 1077.41 127.781C1077.81 127.953 1078.11 128.174 1078.31 128.445C1078.52 128.716 1078.66 129.023 1078.74 129.367C1078.83 129.711 1078.87 130.203 1078.87 130.844V136ZM1084.91 127.703V129.453H1083.41V132.797C1083.41 133.474 1083.42 133.87 1083.45 133.984C1083.48 134.094 1083.54 134.185 1083.64 134.258C1083.74 134.331 1083.87 134.367 1084.02 134.367C1084.22 134.367 1084.51 134.297 1084.9 134.156L1085.09 135.859C1084.58 136.078 1084 136.188 1083.35 136.188C1082.96 136.188 1082.6 136.122 1082.28 135.992C1081.96 135.857 1081.73 135.685 1081.58 135.477C1081.43 135.263 1081.33 134.977 1081.27 134.617C1081.23 134.362 1081.2 133.846 1081.2 133.07V129.453H1080.2V127.703H1081.2V126.055L1083.41 124.773V127.703H1084.91ZM1088.07 130.234L1086.08 129.875C1086.3 129.073 1086.69 128.479 1087.23 128.094C1087.78 127.708 1088.59 127.516 1089.67 127.516C1090.65 127.516 1091.38 127.633 1091.86 127.867C1092.34 128.096 1092.67 128.391 1092.87 128.75C1093.07 129.104 1093.16 129.758 1093.16 130.711L1093.14 133.273C1093.14 134.003 1093.17 134.542 1093.24 134.891C1093.32 135.234 1093.45 135.604 1093.64 136H1091.47C1091.41 135.854 1091.34 135.638 1091.26 135.352C1091.22 135.221 1091.2 135.135 1091.18 135.094C1090.8 135.458 1090.4 135.732 1089.98 135.914C1089.55 136.096 1089.09 136.188 1088.61 136.188C1087.76 136.188 1087.08 135.956 1086.59 135.492C1086.1 135.029 1085.85 134.443 1085.85 133.734C1085.85 133.266 1085.96 132.849 1086.19 132.484C1086.41 132.115 1086.72 131.833 1087.12 131.641C1087.53 131.443 1088.11 131.271 1088.88 131.125C1089.9 130.932 1090.61 130.753 1091.01 130.586V130.367C1091.01 129.945 1090.9 129.646 1090.7 129.469C1090.49 129.286 1090.09 129.195 1089.52 129.195C1089.12 129.195 1088.82 129.273 1088.6 129.43C1088.38 129.581 1088.21 129.849 1088.07 130.234ZM1091.01 132.016C1090.73 132.109 1090.28 132.221 1089.67 132.352C1089.06 132.482 1088.66 132.609 1088.48 132.734C1088.19 132.938 1088.05 133.195 1088.05 133.508C1088.05 133.815 1088.16 134.081 1088.39 134.305C1088.62 134.529 1088.91 134.641 1089.27 134.641C1089.66 134.641 1090.04 134.51 1090.4 134.25C1090.66 134.052 1090.84 133.81 1090.92 133.523C1090.98 133.336 1091.01 132.979 1091.01 132.453V132.016Z" fill="#FEFEFE"/>
<path d="M1157.49 131.789L1159.73 132.5C1159.39 133.75 1158.82 134.68 1158.02 135.289C1157.22 135.893 1156.21 136.195 1154.98 136.195C1153.46 136.195 1152.21 135.677 1151.23 134.641C1150.25 133.599 1149.76 132.177 1149.76 130.375C1149.76 128.469 1150.25 126.99 1151.23 125.938C1152.22 124.88 1153.51 124.352 1155.12 124.352C1156.52 124.352 1157.66 124.766 1158.53 125.594C1159.05 126.083 1159.44 126.786 1159.7 127.703L1157.41 128.25C1157.28 127.656 1156.99 127.188 1156.56 126.844C1156.14 126.5 1155.61 126.328 1155 126.328C1154.15 126.328 1153.46 126.633 1152.93 127.242C1152.4 127.852 1152.14 128.839 1152.14 130.203C1152.14 131.651 1152.4 132.682 1152.92 133.297C1153.44 133.911 1154.12 134.219 1154.95 134.219C1155.57 134.219 1156.1 134.023 1156.54 133.633C1156.98 133.242 1157.3 132.628 1157.49 131.789ZM1161.2 131.734C1161.2 131.005 1161.38 130.299 1161.74 129.617C1162.1 128.935 1162.61 128.414 1163.27 128.055C1163.93 127.695 1164.66 127.516 1165.48 127.516C1166.73 127.516 1167.76 127.924 1168.56 128.742C1169.36 129.555 1169.77 130.583 1169.77 131.828C1169.77 133.083 1169.36 134.125 1168.55 134.953C1167.74 135.776 1166.72 136.188 1165.49 136.188C1164.73 136.188 1164.01 136.016 1163.31 135.672C1162.62 135.328 1162.1 134.826 1161.74 134.164C1161.38 133.497 1161.2 132.688 1161.2 131.734ZM1163.45 131.852C1163.45 132.674 1163.65 133.305 1164.04 133.742C1164.43 134.18 1164.91 134.398 1165.48 134.398C1166.06 134.398 1166.54 134.18 1166.92 133.742C1167.31 133.305 1167.51 132.669 1167.51 131.836C1167.51 131.023 1167.31 130.398 1166.92 129.961C1166.54 129.523 1166.06 129.305 1165.48 129.305C1164.91 129.305 1164.43 129.523 1164.04 129.961C1163.65 130.398 1163.45 131.029 1163.45 131.852ZM1179.04 136H1176.84V131.766C1176.84 130.87 1176.8 130.292 1176.7 130.031C1176.61 129.766 1176.46 129.56 1176.24 129.414C1176.03 129.268 1175.78 129.195 1175.48 129.195C1175.1 129.195 1174.76 129.299 1174.46 129.508C1174.16 129.716 1173.95 129.992 1173.84 130.336C1173.73 130.68 1173.67 131.315 1173.67 132.242V136H1171.48V127.703H1173.52V128.922C1174.24 127.984 1175.15 127.516 1176.25 127.516C1176.73 127.516 1177.18 127.604 1177.58 127.781C1177.98 127.953 1178.28 128.174 1178.48 128.445C1178.69 128.716 1178.84 129.023 1178.91 129.367C1179 129.711 1179.04 130.203 1179.04 130.844V136ZM1188.51 130.156L1186.34 130.547C1186.27 130.115 1186.1 129.789 1185.84 129.57C1185.59 129.352 1185.26 129.242 1184.84 129.242C1184.3 129.242 1183.86 129.432 1183.53 129.812C1183.21 130.188 1183.05 130.818 1183.05 131.703C1183.05 132.688 1183.21 133.383 1183.54 133.789C1183.87 134.195 1184.32 134.398 1184.88 134.398C1185.29 134.398 1185.63 134.281 1185.9 134.047C1186.16 133.807 1186.35 133.398 1186.46 132.82L1188.62 133.188C1188.39 134.177 1187.96 134.924 1187.33 135.43C1186.69 135.935 1185.84 136.188 1184.77 136.188C1183.56 136.188 1182.59 135.805 1181.87 135.039C1181.15 134.273 1180.79 133.214 1180.79 131.859C1180.79 130.49 1181.15 129.424 1181.88 128.664C1182.6 127.898 1183.58 127.516 1184.81 127.516C1185.82 127.516 1186.62 127.734 1187.22 128.172C1187.82 128.604 1188.25 129.266 1188.51 130.156ZM1194.98 133.359L1197.17 133.727C1196.89 134.529 1196.45 135.141 1195.84 135.562C1195.23 135.979 1194.47 136.188 1193.56 136.188C1192.12 136.188 1191.05 135.716 1190.36 134.773C1189.81 134.018 1189.54 133.065 1189.54 131.914C1189.54 130.539 1189.9 129.464 1190.62 128.688C1191.34 127.906 1192.24 127.516 1193.34 127.516C1194.58 127.516 1195.55 127.924 1196.27 128.742C1196.98 129.555 1197.32 130.802 1197.29 132.484H1191.79C1191.8 133.135 1191.98 133.643 1192.32 134.008C1192.66 134.367 1193.08 134.547 1193.59 134.547C1193.93 134.547 1194.22 134.453 1194.45 134.266C1194.69 134.078 1194.86 133.776 1194.98 133.359ZM1195.11 131.141C1195.09 130.505 1194.93 130.023 1194.62 129.695C1194.3 129.362 1193.92 129.195 1193.48 129.195C1193 129.195 1192.6 129.37 1192.29 129.719C1191.98 130.068 1191.82 130.542 1191.83 131.141H1195.11ZM1198.31 133.633L1200.52 133.297C1200.61 133.724 1200.8 134.049 1201.09 134.273C1201.37 134.492 1201.77 134.602 1202.29 134.602C1202.86 134.602 1203.28 134.497 1203.57 134.289C1203.76 134.143 1203.86 133.948 1203.86 133.703C1203.86 133.536 1203.81 133.398 1203.7 133.289C1203.59 133.185 1203.35 133.089 1202.97 133C1201.2 132.609 1200.08 132.253 1199.6 131.93C1198.95 131.482 1198.62 130.859 1198.62 130.062C1198.62 129.344 1198.9 128.74 1199.47 128.25C1200.04 127.76 1200.92 127.516 1202.11 127.516C1203.24 127.516 1204.09 127.701 1204.64 128.07C1205.19 128.44 1205.57 128.987 1205.78 129.711L1203.71 130.094C1203.62 129.771 1203.45 129.523 1203.2 129.352C1202.96 129.18 1202.61 129.094 1202.15 129.094C1201.57 129.094 1201.16 129.174 1200.91 129.336C1200.74 129.451 1200.66 129.599 1200.66 129.781C1200.66 129.938 1200.73 130.07 1200.88 130.18C1201.07 130.326 1201.76 130.531 1202.92 130.797C1204.09 131.062 1204.91 131.388 1205.38 131.773C1205.83 132.164 1206.06 132.708 1206.06 133.406C1206.06 134.167 1205.74 134.82 1205.11 135.367C1204.47 135.914 1203.53 136.188 1202.29 136.188C1201.16 136.188 1200.26 135.958 1199.6 135.5C1198.95 135.042 1198.52 134.419 1198.31 133.633ZM1207.99 126.578V124.547H1210.19V126.578H1207.99ZM1207.99 136V127.703H1210.19V136H1207.99ZM1211.94 131.734C1211.94 131.005 1212.12 130.299 1212.48 129.617C1212.84 128.935 1213.34 128.414 1214 128.055C1214.66 127.695 1215.4 127.516 1216.21 127.516C1217.47 127.516 1218.49 127.924 1219.3 128.742C1220.1 129.555 1220.5 130.583 1220.5 131.828C1220.5 133.083 1220.09 134.125 1219.28 134.953C1218.47 135.776 1217.46 136.188 1216.23 136.188C1215.47 136.188 1214.74 136.016 1214.05 135.672C1213.36 135.328 1212.84 134.826 1212.48 134.164C1212.12 133.497 1211.94 132.688 1211.94 131.734ZM1214.19 131.852C1214.19 132.674 1214.38 133.305 1214.77 133.742C1215.16 134.18 1215.65 134.398 1216.22 134.398C1216.79 134.398 1217.27 134.18 1217.66 133.742C1218.05 133.305 1218.24 132.669 1218.24 131.836C1218.24 131.023 1218.05 130.398 1217.66 129.961C1217.27 129.523 1216.79 129.305 1216.22 129.305C1215.65 129.305 1215.16 129.523 1214.77 129.961C1214.38 130.398 1214.19 131.029 1214.19 131.852ZM1229.77 136H1227.58V131.766C1227.58 130.87 1227.53 130.292 1227.44 130.031C1227.34 129.766 1227.19 129.56 1226.98 129.414C1226.77 129.268 1226.52 129.195 1226.22 129.195C1225.84 129.195 1225.5 129.299 1225.2 129.508C1224.89 129.716 1224.68 129.992 1224.57 130.336C1224.46 130.68 1224.41 131.315 1224.41 132.242V136H1222.21V127.703H1224.25V128.922C1224.97 127.984 1225.89 127.516 1226.98 127.516C1227.47 127.516 1227.91 127.604 1228.31 127.781C1228.71 127.953 1229.02 128.174 1229.22 128.445C1229.43 128.716 1229.57 129.023 1229.65 129.367C1229.73 129.711 1229.77 130.203 1229.77 130.844V136ZM1233.65 130.234L1231.66 129.875C1231.88 129.073 1232.27 128.479 1232.81 128.094C1233.36 127.708 1234.17 127.516 1235.25 127.516C1236.23 127.516 1236.96 127.633 1237.44 127.867C1237.92 128.096 1238.25 128.391 1238.45 128.75C1238.64 129.104 1238.74 129.758 1238.74 130.711L1238.72 133.273C1238.72 134.003 1238.75 134.542 1238.82 134.891C1238.89 135.234 1239.03 135.604 1239.22 136H1237.05C1236.99 135.854 1236.92 135.638 1236.84 135.352C1236.8 135.221 1236.77 135.135 1236.76 135.094C1236.38 135.458 1235.98 135.732 1235.55 135.914C1235.13 136.096 1234.67 136.188 1234.19 136.188C1233.33 136.188 1232.66 135.956 1232.16 135.492C1231.67 135.029 1231.43 134.443 1231.43 133.734C1231.43 133.266 1231.54 132.849 1231.77 132.484C1231.99 132.115 1232.3 131.833 1232.7 131.641C1233.11 131.443 1233.69 131.271 1234.45 131.125C1235.48 130.932 1236.19 130.753 1236.59 130.586V130.367C1236.59 129.945 1236.48 129.646 1236.27 129.469C1236.07 129.286 1235.67 129.195 1235.09 129.195C1234.7 129.195 1234.4 129.273 1234.18 129.43C1233.96 129.581 1233.78 129.849 1233.65 130.234ZM1236.59 132.016C1236.3 132.109 1235.86 132.221 1235.25 132.352C1234.64 132.482 1234.24 132.609 1234.05 132.734C1233.77 132.938 1233.62 133.195 1233.62 133.508C1233.62 133.815 1233.74 134.081 1233.97 134.305C1234.2 134.529 1234.49 134.641 1234.84 134.641C1235.24 134.641 1235.62 134.51 1235.98 134.25C1236.24 134.052 1236.42 133.81 1236.5 133.523C1236.56 133.336 1236.59 132.979 1236.59 132.453V132.016ZM1243.02 136H1240.82V127.703H1242.86V128.883C1243.21 128.326 1243.52 127.958 1243.8 127.781C1244.08 127.604 1244.4 127.516 1244.75 127.516C1245.25 127.516 1245.73 127.654 1246.2 127.93L1245.52 129.844C1245.15 129.604 1244.8 129.484 1244.48 129.484C1244.18 129.484 1243.92 129.57 1243.7 129.742C1243.49 129.909 1243.32 130.214 1243.2 130.656C1243.08 131.099 1243.02 132.026 1243.02 133.438V136ZM1247.15 126.578V124.547H1249.34V126.578H1247.15ZM1247.15 136V127.703H1249.34V136H1247.15ZM1251.09 131.734C1251.09 131.005 1251.27 130.299 1251.63 129.617C1251.99 128.935 1252.5 128.414 1253.16 128.055C1253.82 127.695 1254.55 127.516 1255.37 127.516C1256.62 127.516 1257.65 127.924 1258.45 128.742C1259.26 129.555 1259.66 130.583 1259.66 131.828C1259.66 133.083 1259.25 134.125 1258.44 134.953C1257.63 135.776 1256.61 136.188 1255.38 136.188C1254.62 136.188 1253.9 136.016 1253.2 135.672C1252.52 135.328 1251.99 134.826 1251.63 134.164C1251.27 133.497 1251.09 132.688 1251.09 131.734ZM1253.34 131.852C1253.34 132.674 1253.54 133.305 1253.93 133.742C1254.32 134.18 1254.8 134.398 1255.38 134.398C1255.95 134.398 1256.43 134.18 1256.81 133.742C1257.2 133.305 1257.4 132.669 1257.4 131.836C1257.4 131.023 1257.2 130.398 1256.81 129.961C1256.43 129.523 1255.95 129.305 1255.38 129.305C1254.8 129.305 1254.32 129.523 1253.93 129.961C1253.54 130.398 1253.34 131.029 1253.34 131.852ZM1260.61 133.633L1262.81 133.297C1262.91 133.724 1263.1 134.049 1263.38 134.273C1263.67 134.492 1264.07 134.602 1264.59 134.602C1265.15 134.602 1265.58 134.497 1265.87 134.289C1266.06 134.143 1266.16 133.948 1266.16 133.703C1266.16 133.536 1266.1 133.398 1266 133.289C1265.89 133.185 1265.65 133.089 1265.27 133C1263.49 132.609 1262.37 132.253 1261.9 131.93C1261.24 131.482 1260.91 130.859 1260.91 130.062C1260.91 129.344 1261.2 128.74 1261.77 128.25C1262.33 127.76 1263.21 127.516 1264.41 127.516C1265.54 127.516 1266.39 127.701 1266.94 128.07C1267.49 128.44 1267.87 128.987 1268.08 129.711L1266.01 130.094C1265.92 129.771 1265.75 129.523 1265.5 129.352C1265.26 129.18 1264.9 129.094 1264.45 129.094C1263.87 129.094 1263.45 129.174 1263.2 129.336C1263.04 129.451 1262.95 129.599 1262.95 129.781C1262.95 129.938 1263.03 130.07 1263.17 130.18C1263.37 130.326 1264.05 130.531 1265.22 130.797C1266.39 131.062 1267.21 131.388 1267.67 131.773C1268.13 132.164 1268.36 132.708 1268.36 133.406C1268.36 134.167 1268.04 134.82 1267.41 135.367C1266.77 135.914 1265.83 136.188 1264.59 136.188C1263.46 136.188 1262.56 135.958 1261.9 135.5C1261.24 135.042 1260.81 134.419 1260.61 133.633Z" fill="#FEFEFE"/>
<path d="M1325.18 136V124.547H1333.03V126.484H1327.49V129.195H1332.27V131.133H1327.49V136H1325.18ZM1334.42 131.734C1334.42 131.005 1334.6 130.299 1334.96 129.617C1335.32 128.935 1335.83 128.414 1336.48 128.055C1337.15 127.695 1337.88 127.516 1338.7 127.516C1339.95 127.516 1340.98 127.924 1341.78 128.742C1342.58 129.555 1342.98 130.583 1342.98 131.828C1342.98 133.083 1342.58 134.125 1341.77 134.953C1340.96 135.776 1339.94 136.188 1338.71 136.188C1337.95 136.188 1337.22 136.016 1336.53 135.672C1335.84 135.328 1335.32 134.826 1334.96 134.164C1334.6 133.497 1334.42 132.688 1334.42 131.734ZM1336.67 131.852C1336.67 132.674 1336.87 133.305 1337.26 133.742C1337.65 134.18 1338.13 134.398 1338.7 134.398C1339.28 134.398 1339.76 134.18 1340.14 133.742C1340.53 133.305 1340.73 132.669 1340.73 131.836C1340.73 131.023 1340.53 130.398 1340.14 129.961C1339.76 129.523 1339.28 129.305 1338.7 129.305C1338.13 129.305 1337.65 129.523 1337.26 129.961C1336.87 130.398 1336.67 131.029 1336.67 131.852ZM1346.81 136H1344.62V127.703H1346.66V128.883C1347.01 128.326 1347.32 127.958 1347.59 127.781C1347.88 127.604 1348.19 127.516 1348.55 127.516C1349.05 127.516 1349.53 127.654 1349.99 127.93L1349.31 129.844C1348.94 129.604 1348.6 129.484 1348.28 129.484C1347.97 129.484 1347.71 129.57 1347.5 129.742C1347.29 129.909 1347.12 130.214 1346.99 130.656C1346.87 131.099 1346.81 132.026 1346.81 133.438V136ZM1358.55 136H1356.52V134.781C1356.18 135.255 1355.78 135.609 1355.31 135.844C1354.85 136.073 1354.39 136.188 1353.92 136.188C1352.97 136.188 1352.15 135.805 1351.47 135.039C1350.79 134.268 1350.45 133.195 1350.45 131.82C1350.45 130.414 1350.78 129.346 1351.45 128.617C1352.11 127.883 1352.94 127.516 1353.95 127.516C1354.88 127.516 1355.68 127.901 1356.36 128.672V124.547H1358.55V136ZM1352.7 131.672C1352.7 132.557 1352.82 133.198 1353.06 133.594C1353.42 134.167 1353.91 134.453 1354.55 134.453C1355.05 134.453 1355.48 134.24 1355.84 133.812C1356.19 133.38 1356.37 132.737 1356.37 131.883C1356.37 130.93 1356.2 130.245 1355.85 129.828C1355.51 129.406 1355.07 129.195 1354.53 129.195C1354.01 129.195 1353.57 129.404 1353.22 129.82C1352.87 130.232 1352.7 130.849 1352.7 131.672ZM1365.2 136V124.547H1368.91C1370.31 124.547 1371.23 124.604 1371.66 124.719C1372.31 124.891 1372.86 125.266 1373.3 125.844C1373.75 126.417 1373.97 127.159 1373.97 128.07C1373.97 128.773 1373.84 129.365 1373.59 129.844C1373.33 130.323 1373.01 130.701 1372.61 130.977C1372.22 131.247 1371.82 131.427 1371.41 131.516C1370.86 131.625 1370.06 131.68 1369.02 131.68H1367.51V136H1365.2ZM1367.51 126.484V129.734H1368.77C1369.68 129.734 1370.29 129.674 1370.6 129.555C1370.91 129.435 1371.15 129.247 1371.32 128.992C1371.5 128.737 1371.59 128.44 1371.59 128.102C1371.59 127.685 1371.46 127.341 1371.22 127.07C1370.97 126.799 1370.66 126.63 1370.29 126.562C1370.01 126.51 1369.46 126.484 1368.62 126.484H1367.51ZM1377.95 136H1375.76V127.703H1377.8V128.883C1378.15 128.326 1378.46 127.958 1378.73 127.781C1379.02 127.604 1379.33 127.516 1379.69 127.516C1380.19 127.516 1380.67 127.654 1381.13 127.93L1380.45 129.844C1380.08 129.604 1379.74 129.484 1379.42 129.484C1379.11 129.484 1378.85 129.57 1378.64 129.742C1378.43 129.909 1378.26 130.214 1378.13 130.656C1378.01 131.099 1377.95 132.026 1377.95 133.438V136ZM1381.58 131.734C1381.58 131.005 1381.76 130.299 1382.12 129.617C1382.48 128.935 1382.98 128.414 1383.64 128.055C1384.3 127.695 1385.04 127.516 1385.85 127.516C1387.11 127.516 1388.14 127.924 1388.94 128.742C1389.74 129.555 1390.14 130.583 1390.14 131.828C1390.14 133.083 1389.73 134.125 1388.92 134.953C1388.11 135.776 1387.1 136.188 1385.87 136.188C1385.11 136.188 1384.38 136.016 1383.69 135.672C1383 135.328 1382.48 134.826 1382.12 134.164C1381.76 133.497 1381.58 132.688 1381.58 131.734ZM1383.83 131.852C1383.83 132.674 1384.02 133.305 1384.41 133.742C1384.8 134.18 1385.29 134.398 1385.86 134.398C1386.43 134.398 1386.91 134.18 1387.3 133.742C1387.69 133.305 1387.88 132.669 1387.88 131.836C1387.88 131.023 1387.69 130.398 1387.3 129.961C1386.91 129.523 1386.43 129.305 1385.86 129.305C1385.29 129.305 1384.8 129.523 1384.41 129.961C1384.02 130.398 1383.83 131.029 1383.83 131.852Z" fill="#FEFEFE"/>
<path d="M1775 139L1769 133M1771 128C1771 131.866 1767.87 135 1764 135C1760.13 135 1757 131.866 1757 128C1757 124.134 1760.13 121 1764 121C1767.87 121 1771 124.134 1771 128Z" stroke="#FEFEFE" stroke-width="2" stroke-linecap="round" stroke-linejoin="round"/>
<path d="M1854 125C1854 127.209 1852.21 129 1850 129C1847.79 129 1846 127.209 1846 125C1846 122.791 1847.79 121 1850 121C1852.21 121 1854 122.791 1854 125Z" stroke="#FEFEFE" stroke-width="2" stroke-linecap="round" stroke-linejoin="round"/>
<path d="M1850 132C1846.13 132 1843 135.134 1843 139H1857C1857 135.134 1853.87 132 1850 132Z" stroke="#FEFEFE" stroke-width="2" stroke-linecap="round" stroke-linejoin="round"/>
</g>
<rect x="119.5" y="99.5" width="1921" height="61" stroke="#0D69D4"/>
<g clip-path="url(#clip1_1418_8973)">
<path d="M64.2929 51.2929C63.9024 51.6834 63.9024 52.3166 64.2929 52.7071L70.6569 59.0711C71.0474 59.4616 71.6805 59.4616 72.0711 59.0711C72.4616 58.6805 72.4616 58.0474 72.0711 57.6569L66.4142 52L72.0711 46.3431C72.4616 45.9526 72.4616 45.3195 72.0711 44.9289C71.6805 44.5384 71.0474 44.5384 70.6569 44.9289L64.2929 51.2929ZM95.7071 52.7071C96.0976 52.3166 96.0976 51.6834 95.7071 51.2929L89.3431 44.9289C88.9526 44.5384 88.3195 44.5384 87.9289 44.9289C87.5384 45.3195 87.5384 45.9526 87.9289 46.3431L93.5858 52L87.9289 57.6569C87.5384 58.0474 87.5384 58.6805 87.9289 59.0711C88.3195 59.4616 88.9526 59.4616 89.3431 59.0711L95.7071 52.7071ZM65 53H95V51H65V53Z" fill="#6B6B6B"/>
</g>
<path fill-rule="evenodd" clip-rule="evenodd" d="M64.0001 44L64 45L64.0001 49.024L64 50.024L64.0001 54.0185L64 55.0185L64.0001 59.014L64 60.014H65.0001H68.9891H69.9891H74.0113H75.0113H79H80V59.014V55.0185V54.0185V50.024V49.024V45V44H79H75.0113H74.0113H69.9891H68.9891H65.0001H64.0001ZM65.0001 45V49.024H68.9891V45H65.0001ZM65.0001 50.024V54.0185H68.9891V50.024H65.0001ZM65.0001 55.0185V59.014H68.9891V55.0185H65.0001ZM79 55.0185V59.014H75.0113V55.0185H79ZM79 50.024V54.0185H75.0113V50.024H79ZM79 45V49.024H75.0113V45H79ZM74.0113 45H69.9891V48.9915H74.0113V45ZM74.0113 55.0225H69.9891V59.014H74.0113V55.0225Z" fill="#6B6B6B"/>
<g clip-path="url(#clip2_1418_8973)">
<line x1="72.25" y1="100.75" x2="72.25" y2="159.25" stroke="#0D69D4" stroke-width="1.5" stroke-linecap="square"/>
<line x1="77.25" y1="100.75" x2="66.75" y2="100.75" stroke="#0D69D4" stroke-width="1.5" stroke-linecap="round"/>
<line x1="66.75" y1="159.25" x2="77.25" y2="159.25" stroke="#0D69D4" stroke-width="1.5" stroke-linecap="round"/>
</g>
<line x1="120.75" y1="51.75" x2="2039.25" y2="51.75" stroke="#0D69D4" stroke-width="1.5" stroke-linecap="square"/>
<line x1="120.75" y1="46.75" x2="120.75" y2="57.25" stroke="#0D69D4" stroke-width="1.5" stroke-linecap="round"/>
<line x1="2039.25" y1="57.25" x2="2039.25" y2="46.75" stroke="#0D69D4" stroke-width="1.5" stroke-linecap="round"/>
<rect x="408" y="100" width="324" height="60" fill="#C54600" fill-opacity="0.3"/>
<line x1="408.5" y1="84" x2="408.5" y2="160" stroke="#C54600"/>
<line x1="731.5" y1="84" x2="731.5" y2="160" stroke="#C54600"/>
<path d="M561.933 80.1193C561.297 80.1193 560.73 80.0099 560.233 79.7912C559.739 79.5696 559.348 79.2656 559.061 78.8793C558.777 78.4901 558.631 78.0412 558.622 77.5327H560.48C560.491 77.7457 560.561 77.9332 560.689 78.0952C560.82 78.2543 560.993 78.3778 561.209 78.4659C561.425 78.554 561.668 78.598 561.938 78.598C562.219 78.598 562.467 78.5483 562.683 78.4489C562.899 78.3494 563.068 78.2116 563.19 78.0355C563.313 77.8594 563.374 77.6562 563.374 77.4261C563.374 77.1932 563.308 76.9872 563.178 76.8082C563.05 76.6264 562.865 76.4844 562.624 76.3821C562.385 76.2798 562.101 76.2287 561.771 76.2287H560.957V74.8736H561.771C562.05 74.8736 562.295 74.8253 562.509 74.7287C562.724 74.6321 562.892 74.4986 563.011 74.3281C563.131 74.1548 563.19 73.9531 563.19 73.723C563.19 73.5043 563.138 73.3125 563.033 73.1477C562.93 72.9801 562.786 72.8494 562.598 72.7557C562.413 72.6619 562.197 72.6151 561.95 72.6151C561.7 72.6151 561.472 72.6605 561.264 72.7514C561.057 72.8395 560.891 72.9659 560.766 73.1307C560.641 73.2955 560.574 73.4886 560.565 73.7102H558.797C558.805 73.2074 558.949 72.7642 559.227 72.3807C559.506 71.9972 559.881 71.6974 560.352 71.4815C560.827 71.2628 561.362 71.1534 561.959 71.1534C562.561 71.1534 563.088 71.2628 563.54 71.4815C563.991 71.7003 564.342 71.9957 564.592 72.3679C564.845 72.7372 564.97 73.152 564.967 73.6122C564.97 74.1009 564.818 74.5085 564.511 74.8352C564.207 75.1619 563.811 75.3693 563.322 75.4574V75.5256C563.964 75.608 564.453 75.831 564.788 76.1946C565.126 76.5554 565.294 77.0071 565.291 77.5497C565.294 78.0469 565.151 78.4886 564.861 78.875C564.574 79.2614 564.178 79.5653 563.672 79.7869C563.166 80.0085 562.587 80.1193 561.933 80.1193ZM566.618 80V78.6705L569.724 75.794C569.988 75.5384 570.21 75.3082 570.389 75.1037C570.571 74.8991 570.708 74.6989 570.802 74.5028C570.896 74.304 570.943 74.0895 570.943 73.8594C570.943 73.6037 570.885 73.3835 570.768 73.1989C570.652 73.0114 570.493 72.8679 570.291 72.7685C570.089 72.6662 569.86 72.6151 569.605 72.6151C569.338 72.6151 569.105 72.669 568.906 72.777C568.707 72.8849 568.554 73.0398 568.446 73.2415C568.338 73.4432 568.284 73.6832 568.284 73.9616H566.532C566.532 73.3906 566.662 72.8949 566.92 72.4744C567.179 72.054 567.541 71.7287 568.007 71.4986C568.473 71.2685 569.01 71.1534 569.618 71.1534C570.243 71.1534 570.787 71.2642 571.25 71.4858C571.716 71.7045 572.078 72.0085 572.336 72.3977C572.595 72.7869 572.724 73.233 572.724 73.7358C572.724 74.0653 572.659 74.3906 572.528 74.7116C572.4 75.0327 572.172 75.3892 571.842 75.7812C571.512 76.1705 571.048 76.6378 570.449 77.1832L569.174 78.4318V78.4915H572.839V80H566.618ZM573.857 78.4659V77.0128L577.5 71.2727H578.753V73.2841H578.011L575.714 76.919V76.9872H580.892V78.4659H573.857ZM578.045 80V78.0227L578.08 77.3793V71.2727H579.81V80H578.045Z" fill="#C54600"/>
<rect x="291" y="100" width="117" height="60" fill="#0D69D4" fill-opacity="0.2"/>
<rect x="1395" y="100" width="324" height="60" fill="#C54600" fill-opacity="0.3"/>
<line x1="1395.5" y1="84" x2="1395.5" y2="160" stroke="#C54600"/>
<line x1="1718.5" y1="84" x2="1718.5" y2="160" stroke="#C54600"/>
<path d="M1548.93 80.1193C1548.3 80.1193 1547.73 80.0099 1547.23 79.7912C1546.74 79.5696 1546.35 79.2656 1546.06 78.8793C1545.78 78.4901 1545.63 78.0412 1545.62 77.5327H1547.48C1547.49 77.7457 1547.56 77.9332 1547.69 78.0952C1547.82 78.2543 1547.99 78.3778 1548.21 78.4659C1548.42 78.554 1548.67 78.598 1548.94 78.598C1549.22 78.598 1549.47 78.5483 1549.68 78.4489C1549.9 78.3494 1550.07 78.2116 1550.19 78.0355C1550.31 77.8594 1550.37 77.6562 1550.37 77.4261C1550.37 77.1932 1550.31 76.9872 1550.18 76.8082C1550.05 76.6264 1549.87 76.4844 1549.62 76.3821C1549.38 76.2798 1549.1 76.2287 1548.77 76.2287H1547.96V74.8736H1548.77C1549.05 74.8736 1549.3 74.8253 1549.51 74.7287C1549.72 74.6321 1549.89 74.4986 1550.01 74.3281C1550.13 74.1548 1550.19 73.9531 1550.19 73.723C1550.19 73.5043 1550.14 73.3125 1550.03 73.1477C1549.93 72.9801 1549.79 72.8494 1549.6 72.7557C1549.41 72.6619 1549.2 72.6151 1548.95 72.6151C1548.7 72.6151 1548.47 72.6605 1548.26 72.7514C1548.06 72.8395 1547.89 72.9659 1547.77 73.1307C1547.64 73.2955 1547.57 73.4886 1547.57 73.7102H1545.8C1545.81 73.2074 1545.95 72.7642 1546.23 72.3807C1546.51 71.9972 1546.88 71.6974 1547.35 71.4815C1547.83 71.2628 1548.36 71.1534 1548.96 71.1534C1549.56 71.1534 1550.09 71.2628 1550.54 71.4815C1550.99 71.7003 1551.34 71.9957 1551.59 72.3679C1551.85 72.7372 1551.97 73.152 1551.97 73.6122C1551.97 74.1009 1551.82 74.5085 1551.51 74.8352C1551.21 75.1619 1550.81 75.3693 1550.32 75.4574V75.5256C1550.96 75.608 1551.45 75.831 1551.79 76.1946C1552.13 76.5554 1552.29 77.0071 1552.29 77.5497C1552.29 78.0469 1552.15 78.4886 1551.86 78.875C1551.57 79.2614 1551.18 79.5653 1550.67 79.7869C1550.17 80.0085 1549.59 80.1193 1548.93 80.1193ZM1553.62 80V78.6705L1556.72 75.794C1556.99 75.5384 1557.21 75.3082 1557.39 75.1037C1557.57 74.8991 1557.71 74.6989 1557.8 74.5028C1557.9 74.304 1557.94 74.0895 1557.94 73.8594C1557.94 73.6037 1557.88 73.3835 1557.77 73.1989C1557.65 73.0114 1557.49 72.8679 1557.29 72.7685C1557.09 72.6662 1556.86 72.6151 1556.6 72.6151C1556.34 72.6151 1556.1 72.669 1555.91 72.777C1555.71 72.8849 1555.55 73.0398 1555.45 73.2415C1555.34 73.4432 1555.28 73.6832 1555.28 73.9616H1553.53C1553.53 73.3906 1553.66 72.8949 1553.92 72.4744C1554.18 72.054 1554.54 71.7287 1555.01 71.4986C1555.47 71.2685 1556.01 71.1534 1556.62 71.1534C1557.24 71.1534 1557.79 71.2642 1558.25 71.4858C1558.72 71.7045 1559.08 72.0085 1559.34 72.3977C1559.59 72.7869 1559.72 73.233 1559.72 73.7358C1559.72 74.0653 1559.66 74.3906 1559.53 74.7116C1559.4 75.0327 1559.17 75.3892 1558.84 75.7812C1558.51 76.1705 1558.05 76.6378 1557.45 77.1832L1556.17 78.4318V78.4915H1559.84V80H1553.62ZM1560.86 78.4659V77.0128L1564.5 71.2727H1565.75V73.2841H1565.01L1562.71 76.919V76.9872H1567.89V78.4659H1560.86ZM1565.05 80V78.0227L1565.08 77.3793V71.2727H1566.81V80H1565.05Z" fill="#C54600"/>
<g clip-path="url(#clip3_1418_8973)">
<path d="M722.146 91.1464C721.951 91.3417 721.951 91.6583 722.146 91.8536L725.328 95.0355C725.524 95.2308 725.84 95.2308 726.036 95.0355C726.231 94.8403 726.231 94.5237 726.036 94.3284L723.207 91.5L726.036 88.6716C726.231 88.4763 726.231 88.1597 726.036 87.9645C725.84 87.7692 725.524 87.7692 725.328 87.9645L722.146 91.1464ZM1062.85 91.8536C1063.05 91.6583 1063.05 91.3417 1062.85 91.1464L1059.67 87.9645C1059.48 87.7692 1059.16 87.7692 1058.96 87.9645C1058.77 88.1597 1058.77 88.4763 1058.96 88.6716L1061.79 91.5L1058.96 94.3284C1058.77 94.5237 1058.77 94.8403 1058.96 95.0355C1059.16 95.2308 1059.48 95.2308 1059.67 95.0355L1062.85 91.8536ZM722.5 92H1062.5V91H722.5V92Z" fill="#0D69D4"/>
<path d="M1064.15 91.1464C1063.95 91.3417 1063.95 91.6583 1064.15 91.8536L1067.33 95.0355C1067.52 95.2308 1067.84 95.2308 1068.04 95.0355C1068.23 94.8403 1068.23 94.5237 1068.04 94.3284L1065.21 91.5L1068.04 88.6716C1068.23 88.4763 1068.23 88.1597 1068.04 87.9645C1067.84 87.7692 1067.52 87.7692 1067.33 87.9645L1064.15 91.1464ZM1404.85 91.8536C1405.05 91.6583 1405.05 91.3417 1404.85 91.1464L1401.67 87.9645C1401.48 87.7692 1401.16 87.7692 1400.96 87.9645C1400.77 88.1597 1400.77 88.4763 1400.96 88.6716L1403.79 91.5L1400.96 94.3284C1400.77 94.5237 1400.77 94.8403 1400.96 95.0355C1401.16 95.2308 1401.48 95.2308 1401.67 95.0355L1404.85 91.8536ZM1064.5 92H1404.5V91H1064.5V92Z" fill="#0D69D4"/>
</g>
<rect x="732" y="100" width="663" height="60" fill="#0D69D4" fill-opacity="0.2"/>
<g clip-path="url(#clip4_1418_8973)">
<path d="M1709.15 91.1464C1708.95 91.3417 1708.95 91.6583 1709.15 91.8536L1712.33 95.0355C1712.52 95.2308 1712.84 95.2308 1713.04 95.0355C1713.23 94.8403 1713.23 94.5237 1713.04 94.3284L1710.21 91.5L1713.04 88.6716C1713.23 88.4763 1713.23 88.1597 1713.04 87.9645C1712.84 87.7692 1712.52 87.7692 1712.33 87.9645L1709.15 91.1464ZM1793.35 91.8536C1793.55 91.6583 1793.55 91.3417 1793.35 91.1464L1790.17 87.9645C1789.98 87.7692 1789.66 87.7692 1789.46 87.9645C1789.27 88.1597 1789.27 88.4763 1789.46 88.6716L1792.29 91.5L1789.46 94.3284C1789.27 94.5237 1789.27 94.8403 1789.46 95.0355C1789.66 95.2308 1789.98 95.2308 1790.17 95.0355L1793.35 91.8536ZM1709.5 92H1793V91H1709.5V92Z" fill="#0D69D4"/>
<path d="M1794.65 91.1464C1794.45 91.3417 1794.45 91.6583 1794.65 91.8536L1797.83 95.0355C1798.02 95.2308 1798.34 95.2308 1798.54 95.0355C1798.73 94.8403 1798.73 94.5237 1798.54 94.3284L1795.71 91.5L1798.54 88.6716C1798.73 88.4763 1798.73 88.1597 1798.54 87.9645C1798.34 87.7692 1798.02 87.7692 1797.83 87.9645L1794.65 91.1464ZM1878.85 91.8536C1879.05 91.6583 1879.05 91.3417 1878.85 91.1464L1875.67 87.9645C1875.48 87.7692 1875.16 87.7692 1874.96 87.9645C1874.77 88.1597 1874.77 88.4763 1874.96 88.6716L1877.79 91.5L1874.96 94.3284C1874.77 94.5237 1874.77 94.8403 1874.96 95.0355C1875.16 95.2308 1875.48 95.2308 1875.67 95.0355L1878.85 91.8536ZM1795 92H1878.5V91H1795V92Z" fill="#0D69D4"/>
</g>
<rect x="1719" y="100" width="150" height="60" fill="#0D69D4" fill-opacity="0.2"/>
<defs>
<linearGradient id="paint0_linear_1418_8973" x1="960" y1="0" x2="960" y2="60" gradientUnits="userSpaceOnUse">
<stop stop-opacity="0.4"/>
<stop offset="1" stop-color="#666666" stop-opacity="0"/>
</linearGradient>
<clipPath id="clip0_1418_8973">
<rect width="117" height="60" fill="white" transform="translate(280 100)"/>
</clipPath>
<clipPath id="clip1_1418_8973">
<rect width="16" height="16" fill="white" transform="translate(80 44)"/>
</clipPath>
<clipPath id="clip2_1418_8973">
<rect width="60" height="16" fill="white" transform="matrix(0 1 -1 0 80 100)"/>
</clipPath>
<clipPath id="clip3_1418_8973">
<rect width="663" height="16" fill="white" transform="translate(732 84)"/>
</clipPath>
<clipPath id="clip4_1418_8973">
<rect width="150" height="16" fill="white" transform="translate(1719 84)"/>
</clipPath>
</defs>
</svg>
