<svg width="450" height="234" viewBox="0 0 450 234" fill="none" xmlns="http://www.w3.org/2000/svg">
<mask id="path-1-inside-1_3753_7540" fill="white">
<path d="M120 104C120 101.791 121.791 100 124 100H326C328.209 100 330 101.791 330 104V130C330 132.209 328.209 134 326 134H124C121.791 134 120 132.209 120 130V104Z"/>
</mask>
<path d="M120 104C120 101.791 121.791 100 124 100H326C328.209 100 330 101.791 330 104V130C330 132.209 328.209 134 326 134H124C121.791 134 120 132.209 120 130V104Z" fill="#066FEF" fill-opacity="0.301961"/>
<path d="M120 100H330H120ZM330 134H120H330ZM124 134C120.686 134 118 131.314 118 128V106C118 102.686 120.686 100 124 100C122.895 100 122 101.791 122 104V130C122 132.209 122.895 134 124 134ZM330 100V134V100Z" fill="#066FEF" mask="url(#path-1-inside-1_3753_7540)"/>
<path d="M134 117L135.778 115.222M135.778 115.222L142 109L148.222 115.222M135.778 115.222V124.111C135.778 124.602 136.176 125 136.667 125H139.333M148.222 115.222L150 117M148.222 115.222V124.111C148.222 124.602 147.824 125 147.333 125H144.667M139.333 125C139.824 125 140.222 124.602 140.222 124.111V120.556C140.222 120.065 140.62 119.667 141.111 119.667H142.889C143.38 119.667 143.778 120.065 143.778 120.556V124.111C143.778 124.602 144.176 125 144.667 125M139.333 125H144.667" stroke="#066FEF" stroke-width="2" stroke-linecap="round" stroke-linejoin="round"/>
<path d="M165.234 123V111.547H169.18C170.07 111.547 170.75 111.602 171.219 111.711C171.875 111.862 172.435 112.135 172.898 112.531C173.503 113.042 173.953 113.695 174.25 114.492C174.552 115.284 174.703 116.19 174.703 117.211C174.703 118.081 174.602 118.852 174.398 119.523C174.195 120.195 173.935 120.753 173.617 121.195C173.299 121.633 172.951 121.979 172.57 122.234C172.195 122.484 171.74 122.674 171.203 122.805C170.672 122.935 170.06 123 169.367 123H165.234ZM166.75 121.648H169.195C169.951 121.648 170.542 121.578 170.969 121.438C171.401 121.297 171.745 121.099 172 120.844C172.359 120.484 172.638 120.003 172.836 119.398C173.039 118.789 173.141 118.052 173.141 117.188C173.141 115.99 172.943 115.07 172.547 114.43C172.156 113.784 171.68 113.352 171.117 113.133C170.711 112.977 170.057 112.898 169.156 112.898H166.75V121.648ZM176.602 123V114.703H177.867V115.961C178.19 115.372 178.487 114.984 178.758 114.797C179.034 114.609 179.336 114.516 179.664 114.516C180.138 114.516 180.62 114.667 181.109 114.969L180.625 116.273C180.281 116.07 179.938 115.969 179.594 115.969C179.286 115.969 179.01 116.062 178.766 116.25C178.521 116.432 178.346 116.688 178.242 117.016C178.086 117.516 178.008 118.062 178.008 118.656V123H176.602ZM181.422 118.852C181.422 117.315 181.849 116.177 182.703 115.438C183.417 114.823 184.286 114.516 185.312 114.516C186.453 114.516 187.385 114.891 188.109 115.641C188.833 116.385 189.195 117.417 189.195 118.734C189.195 119.802 189.034 120.643 188.711 121.258C188.393 121.867 187.927 122.341 187.312 122.68C186.703 123.018 186.036 123.188 185.312 123.188C184.151 123.188 183.211 122.815 182.492 122.07C181.779 121.326 181.422 120.253 181.422 118.852ZM182.867 118.852C182.867 119.914 183.099 120.711 183.562 121.242C184.026 121.768 184.609 122.031 185.312 122.031C186.01 122.031 186.591 121.766 187.055 121.234C187.518 120.703 187.75 119.893 187.75 118.805C187.75 117.779 187.516 117.003 187.047 116.477C186.583 115.945 186.005 115.68 185.312 115.68C184.609 115.68 184.026 115.943 183.562 116.469C183.099 116.995 182.867 117.789 182.867 118.852ZM190.852 126.18V114.703H192.133V115.781C192.435 115.359 192.776 115.044 193.156 114.836C193.536 114.622 193.997 114.516 194.539 114.516C195.247 114.516 195.872 114.698 196.414 115.062C196.956 115.427 197.365 115.943 197.641 116.609C197.917 117.271 198.055 117.997 198.055 118.789C198.055 119.638 197.901 120.404 197.594 121.086C197.292 121.763 196.849 122.284 196.266 122.648C195.688 123.008 195.078 123.188 194.438 123.188C193.969 123.188 193.547 123.089 193.172 122.891C192.802 122.693 192.497 122.443 192.258 122.141V126.18H190.852ZM192.125 118.898C192.125 119.966 192.341 120.755 192.773 121.266C193.206 121.776 193.729 122.031 194.344 122.031C194.969 122.031 195.503 121.768 195.945 121.242C196.393 120.711 196.617 119.891 196.617 118.781C196.617 117.724 196.398 116.932 195.961 116.406C195.529 115.88 195.01 115.617 194.406 115.617C193.807 115.617 193.276 115.898 192.812 116.461C192.354 117.018 192.125 117.831 192.125 118.898ZM205.141 123V121.953C204.615 122.776 203.841 123.188 202.82 123.188C202.159 123.188 201.549 123.005 200.992 122.641C200.44 122.276 200.01 121.768 199.703 121.117C199.401 120.461 199.25 119.708 199.25 118.859C199.25 118.031 199.388 117.281 199.664 116.609C199.94 115.932 200.354 115.414 200.906 115.055C201.458 114.695 202.076 114.516 202.758 114.516C203.258 114.516 203.703 114.622 204.094 114.836C204.484 115.044 204.802 115.318 205.047 115.656V111.547H206.445V123H205.141ZM200.695 118.859C200.695 119.922 200.919 120.716 201.367 121.242C201.815 121.768 202.344 122.031 202.953 122.031C203.568 122.031 204.089 121.781 204.516 121.281C204.948 120.776 205.164 120.008 205.164 118.977C205.164 117.841 204.945 117.008 204.508 116.477C204.07 115.945 203.531 115.68 202.891 115.68C202.266 115.68 201.742 115.935 201.32 116.445C200.904 116.956 200.695 117.76 200.695 118.859ZM208.141 118.852C208.141 117.315 208.568 116.177 209.422 115.438C210.135 114.823 211.005 114.516 212.031 114.516C213.172 114.516 214.104 114.891 214.828 115.641C215.552 116.385 215.914 117.417 215.914 118.734C215.914 119.802 215.753 120.643 215.43 121.258C215.112 121.867 214.646 122.341 214.031 122.68C213.422 123.018 212.755 123.188 212.031 123.188C210.87 123.188 209.93 122.815 209.211 122.07C208.497 121.326 208.141 120.253 208.141 118.852ZM209.586 118.852C209.586 119.914 209.818 120.711 210.281 121.242C210.745 121.768 211.328 122.031 212.031 122.031C212.729 122.031 213.31 121.766 213.773 121.234C214.237 120.703 214.469 119.893 214.469 118.805C214.469 117.779 214.234 117.003 213.766 116.477C213.302 115.945 212.724 115.68 212.031 115.68C211.328 115.68 210.745 115.943 210.281 116.469C209.818 116.995 209.586 117.789 209.586 118.852ZM219.102 123L216.562 114.703H218.016L219.336 119.492L219.828 121.273C219.849 121.185 219.992 120.615 220.258 119.562L221.578 114.703H223.023L224.266 119.516L224.68 121.102L225.156 119.5L226.578 114.703H227.945L225.352 123H223.891L222.57 118.031L222.25 116.617L220.57 123H219.102ZM229.133 123V114.703H230.398V115.883C231.008 114.971 231.888 114.516 233.039 114.516C233.539 114.516 233.997 114.607 234.414 114.789C234.836 114.966 235.151 115.201 235.359 115.492C235.568 115.784 235.714 116.13 235.797 116.531C235.849 116.792 235.875 117.247 235.875 117.898V123H234.469V117.953C234.469 117.38 234.414 116.953 234.305 116.672C234.195 116.385 234 116.159 233.719 115.992C233.443 115.82 233.117 115.734 232.742 115.734C232.143 115.734 231.625 115.924 231.188 116.305C230.755 116.685 230.539 117.406 230.539 118.469V123H229.133Z" fill="#066FEF"/>
<path d="M305 119.5L310 114.5L315 119.5" stroke="#066FEF" stroke-linecap="round" stroke-linejoin="round"/>
<g clip-path="url(#clip0_3753_7540)">
<rect x="72" y="117" width="48" height="1" fill="#C54600"/>
<g clip-path="url(#clip1_3753_7540)">
<rect x="72" y="105" width="24" height="24" rx="12" fill="#C54600"/>
<path d="M85.5687 112.273V121H83.7235V114.024H83.6724L81.6738 115.277V113.641L83.8343 112.273H85.5687Z" fill="white"/>
</g>
</g>
<g clip-path="url(#clip2_3753_7540)">
<rect x="142" y="52" width="1" height="55" fill="#C54600"/>
<g clip-path="url(#clip3_3753_7540)">
<rect x="130" y="52" width="24" height="24" rx="12" fill="#C54600"/>
<path d="M138.928 68V66.6705L142.035 63.794C142.299 63.5384 142.52 63.3082 142.699 63.1037C142.881 62.8991 143.019 62.6989 143.113 62.5028C143.206 62.304 143.253 62.0895 143.253 61.8594C143.253 61.6037 143.195 61.3835 143.079 61.1989C142.962 61.0114 142.803 60.8679 142.601 60.7685C142.4 60.6662 142.171 60.6151 141.915 60.6151C141.648 60.6151 141.415 60.669 141.216 60.777C141.018 60.8849 140.864 61.0398 140.756 61.2415C140.648 61.4432 140.594 61.6832 140.594 61.9616H138.843C138.843 61.3906 138.972 60.8949 139.231 60.4744C139.489 60.054 139.851 59.7287 140.317 59.4986C140.783 59.2685 141.32 59.1534 141.928 59.1534C142.553 59.1534 143.097 59.2642 143.56 59.4858C144.026 59.7045 144.388 60.0085 144.647 60.3977C144.905 60.7869 145.035 61.233 145.035 61.7358C145.035 62.0653 144.969 62.3906 144.839 62.7116C144.711 63.0327 144.482 63.3892 144.153 63.7812C143.823 64.1705 143.358 64.6378 142.759 65.1832L141.485 66.4318V66.4915H145.15V68H138.928Z" fill="white"/>
</g>
</g>
<g clip-path="url(#clip4_3753_7540)">
<rect x="200.555" y="126.18" width="1" height="55.8203" fill="#C54600"/>
<g clip-path="url(#clip5_3753_7540)">
<rect x="188.555" y="158" width="24" height="24" rx="12" fill="#C54600"/>
<path d="M200.533 174.119C199.896 174.119 199.33 174.01 198.833 173.791C198.338 173.57 197.948 173.266 197.661 172.879C197.377 172.49 197.23 172.041 197.222 171.533H199.08C199.091 171.746 199.161 171.933 199.289 172.095C199.419 172.254 199.593 172.378 199.808 172.466C200.024 172.554 200.267 172.598 200.537 172.598C200.818 172.598 201.067 172.548 201.283 172.449C201.499 172.349 201.668 172.212 201.79 172.036C201.912 171.859 201.973 171.656 201.973 171.426C201.973 171.193 201.908 170.987 201.777 170.808C201.649 170.626 201.465 170.484 201.223 170.382C200.985 170.28 200.7 170.229 200.371 170.229H199.557V168.874H200.371C200.649 168.874 200.895 168.825 201.108 168.729C201.324 168.632 201.492 168.499 201.611 168.328C201.73 168.155 201.79 167.953 201.79 167.723C201.79 167.504 201.737 167.312 201.632 167.148C201.53 166.98 201.385 166.849 201.198 166.756C201.013 166.662 200.797 166.615 200.55 166.615C200.3 166.615 200.071 166.661 199.864 166.751C199.656 166.839 199.49 166.966 199.365 167.131C199.24 167.295 199.173 167.489 199.165 167.71H197.396C197.405 167.207 197.548 166.764 197.827 166.381C198.105 165.997 198.48 165.697 198.952 165.482C199.426 165.263 199.962 165.153 200.558 165.153C201.161 165.153 201.688 165.263 202.139 165.482C202.591 165.7 202.942 165.996 203.192 166.368C203.445 166.737 203.57 167.152 203.567 167.612C203.57 168.101 203.418 168.509 203.111 168.835C202.807 169.162 202.411 169.369 201.922 169.457V169.526C202.564 169.608 203.053 169.831 203.388 170.195C203.726 170.555 203.894 171.007 203.891 171.55C203.894 172.047 203.75 172.489 203.46 172.875C203.173 173.261 202.777 173.565 202.271 173.787C201.766 174.009 201.186 174.119 200.533 174.119Z" fill="white"/>
</g>
</g>
<g clip-path="url(#clip6_3753_7540)">
<rect x="310" y="52" width="1" height="57" fill="#C54600"/>
<g clip-path="url(#clip7_3753_7540)">
<rect x="298" y="52" width="24" height="24" rx="12" fill="#C54600"/>
<path d="M306.509 66.4659V65.0128L310.152 59.2727H311.405V61.2841H310.664L308.367 64.919V64.9872H313.544V66.4659H306.509ZM310.698 68V66.0227L310.732 65.3793V59.2727H312.462V68H310.698Z" fill="white"/>
</g>
</g>
<defs>
<clipPath id="clip0_3753_7540">
<rect width="48" height="24" fill="white" transform="translate(72 105)"/>
</clipPath>
<clipPath id="clip1_3753_7540">
<rect x="72" y="105" width="24" height="24" rx="12" fill="white"/>
</clipPath>
<clipPath id="clip2_3753_7540">
<rect width="24" height="55" fill="white" transform="translate(130 52)"/>
</clipPath>
<clipPath id="clip3_3753_7540">
<rect x="130" y="52" width="24" height="24" rx="12" fill="white"/>
</clipPath>
<clipPath id="clip4_3753_7540">
<rect width="24" height="55.8203" fill="white" transform="translate(188.555 126.18)"/>
</clipPath>
<clipPath id="clip5_3753_7540">
<rect x="188.555" y="158" width="24" height="24" rx="12" fill="white"/>
</clipPath>
<clipPath id="clip6_3753_7540">
<rect width="24" height="57" fill="white" transform="translate(298 52)"/>
</clipPath>
<clipPath id="clip7_3753_7540">
<rect x="298" y="52" width="24" height="24" rx="12" fill="white"/>
</clipPath>
</defs>
</svg>
