<svg width="450" height="234" viewBox="0 0 450 234" fill="none" xmlns="http://www.w3.org/2000/svg">
<g opacity="0.2">
<mask id="path-1-inside-1_3753_7919" fill="white">
<path d="M120 104C120 101.791 121.791 100 124 100H326C328.209 100 330 101.791 330 104V130C330 132.209 328.209 134 326 134H124C121.791 134 120 132.209 120 130V104Z"/>
</mask>
<path d="M120 104C120 101.791 121.791 100 124 100H326C328.209 100 330 101.791 330 104V130C330 132.209 328.209 134 326 134H124C121.791 134 120 132.209 120 130V104Z" fill="#066FEF" fill-opacity="0.301961"/>
<path d="M120 100H330H120ZM330 134H120H330ZM124 134C120.686 134 118 131.314 118 128V106C118 102.686 120.686 100 124 100C122.895 100 122 101.791 122 104V130C122 132.209 122.895 134 124 134ZM330 100V134V100Z" fill="#066FEF" mask="url(#path-1-inside-1_3753_7919)"/>
<path d="M134 117L135.778 115.222M135.778 115.222L142 109L148.222 115.222M135.778 115.222V124.111C135.778 124.602 136.176 125 136.667 125H139.333M148.222 115.222L150 117M148.222 115.222V124.111C148.222 124.602 147.824 125 147.333 125H144.667M139.333 125C139.824 125 140.222 124.602 140.222 124.111V120.556C140.222 120.065 140.62 119.667 141.111 119.667H142.889C143.38 119.667 143.778 120.065 143.778 120.556V124.111C143.778 124.602 144.176 125 144.667 125M139.333 125H144.667" stroke="#066FEF" stroke-width="2" stroke-linecap="round" stroke-linejoin="round"/>
<path d="M165.234 123V111.547H169.18C170.07 111.547 170.75 111.602 171.219 111.711C171.875 111.862 172.435 112.135 172.898 112.531C173.503 113.042 173.953 113.695 174.25 114.492C174.552 115.284 174.703 116.19 174.703 117.211C174.703 118.081 174.602 118.852 174.398 119.523C174.195 120.195 173.935 120.753 173.617 121.195C173.299 121.633 172.951 121.979 172.57 122.234C172.195 122.484 171.74 122.674 171.203 122.805C170.672 122.935 170.06 123 169.367 123H165.234ZM166.75 121.648H169.195C169.951 121.648 170.542 121.578 170.969 121.438C171.401 121.297 171.745 121.099 172 120.844C172.359 120.484 172.638 120.003 172.836 119.398C173.039 118.789 173.141 118.052 173.141 117.188C173.141 115.99 172.943 115.07 172.547 114.43C172.156 113.784 171.68 113.352 171.117 113.133C170.711 112.977 170.057 112.898 169.156 112.898H166.75V121.648ZM176.602 123V114.703H177.867V115.961C178.19 115.372 178.487 114.984 178.758 114.797C179.034 114.609 179.336 114.516 179.664 114.516C180.138 114.516 180.62 114.667 181.109 114.969L180.625 116.273C180.281 116.07 179.938 115.969 179.594 115.969C179.286 115.969 179.01 116.062 178.766 116.25C178.521 116.432 178.346 116.688 178.242 117.016C178.086 117.516 178.008 118.062 178.008 118.656V123H176.602ZM181.422 118.852C181.422 117.315 181.849 116.177 182.703 115.438C183.417 114.823 184.286 114.516 185.312 114.516C186.453 114.516 187.385 114.891 188.109 115.641C188.833 116.385 189.195 117.417 189.195 118.734C189.195 119.802 189.034 120.643 188.711 121.258C188.393 121.867 187.927 122.341 187.312 122.68C186.703 123.018 186.036 123.188 185.312 123.188C184.151 123.188 183.211 122.815 182.492 122.07C181.779 121.326 181.422 120.253 181.422 118.852ZM182.867 118.852C182.867 119.914 183.099 120.711 183.562 121.242C184.026 121.768 184.609 122.031 185.312 122.031C186.01 122.031 186.591 121.766 187.055 121.234C187.518 120.703 187.75 119.893 187.75 118.805C187.75 117.779 187.516 117.003 187.047 116.477C186.583 115.945 186.005 115.68 185.312 115.68C184.609 115.68 184.026 115.943 183.562 116.469C183.099 116.995 182.867 117.789 182.867 118.852ZM190.852 126.18V114.703H192.133V115.781C192.435 115.359 192.776 115.044 193.156 114.836C193.536 114.622 193.997 114.516 194.539 114.516C195.247 114.516 195.872 114.698 196.414 115.062C196.956 115.427 197.365 115.943 197.641 116.609C197.917 117.271 198.055 117.997 198.055 118.789C198.055 119.638 197.901 120.404 197.594 121.086C197.292 121.763 196.849 122.284 196.266 122.648C195.688 123.008 195.078 123.188 194.438 123.188C193.969 123.188 193.547 123.089 193.172 122.891C192.802 122.693 192.497 122.443 192.258 122.141V126.18H190.852ZM192.125 118.898C192.125 119.966 192.341 120.755 192.773 121.266C193.206 121.776 193.729 122.031 194.344 122.031C194.969 122.031 195.503 121.768 195.945 121.242C196.393 120.711 196.617 119.891 196.617 118.781C196.617 117.724 196.398 116.932 195.961 116.406C195.529 115.88 195.01 115.617 194.406 115.617C193.807 115.617 193.276 115.898 192.812 116.461C192.354 117.018 192.125 117.831 192.125 118.898ZM205.141 123V121.953C204.615 122.776 203.841 123.188 202.82 123.188C202.159 123.188 201.549 123.005 200.992 122.641C200.44 122.276 200.01 121.768 199.703 121.117C199.401 120.461 199.25 119.708 199.25 118.859C199.25 118.031 199.388 117.281 199.664 116.609C199.94 115.932 200.354 115.414 200.906 115.055C201.458 114.695 202.076 114.516 202.758 114.516C203.258 114.516 203.703 114.622 204.094 114.836C204.484 115.044 204.802 115.318 205.047 115.656V111.547H206.445V123H205.141ZM200.695 118.859C200.695 119.922 200.919 120.716 201.367 121.242C201.815 121.768 202.344 122.031 202.953 122.031C203.568 122.031 204.089 121.781 204.516 121.281C204.948 120.776 205.164 120.008 205.164 118.977C205.164 117.841 204.945 117.008 204.508 116.477C204.07 115.945 203.531 115.68 202.891 115.68C202.266 115.68 201.742 115.935 201.32 116.445C200.904 116.956 200.695 117.76 200.695 118.859ZM208.141 118.852C208.141 117.315 208.568 116.177 209.422 115.438C210.135 114.823 211.005 114.516 212.031 114.516C213.172 114.516 214.104 114.891 214.828 115.641C215.552 116.385 215.914 117.417 215.914 118.734C215.914 119.802 215.753 120.643 215.43 121.258C215.112 121.867 214.646 122.341 214.031 122.68C213.422 123.018 212.755 123.188 212.031 123.188C210.87 123.188 209.93 122.815 209.211 122.07C208.497 121.326 208.141 120.253 208.141 118.852ZM209.586 118.852C209.586 119.914 209.818 120.711 210.281 121.242C210.745 121.768 211.328 122.031 212.031 122.031C212.729 122.031 213.31 121.766 213.773 121.234C214.237 120.703 214.469 119.893 214.469 118.805C214.469 117.779 214.234 117.003 213.766 116.477C213.302 115.945 212.724 115.68 212.031 115.68C211.328 115.68 210.745 115.943 210.281 116.469C209.818 116.995 209.586 117.789 209.586 118.852ZM219.102 123L216.562 114.703H218.016L219.336 119.492L219.828 121.273C219.849 121.185 219.992 120.615 220.258 119.562L221.578 114.703H223.023L224.266 119.516L224.68 121.102L225.156 119.5L226.578 114.703H227.945L225.352 123H223.891L222.57 118.031L222.25 116.617L220.57 123H219.102ZM229.133 123V114.703H230.398V115.883C231.008 114.971 231.888 114.516 233.039 114.516C233.539 114.516 233.997 114.607 234.414 114.789C234.836 114.966 235.151 115.201 235.359 115.492C235.568 115.784 235.714 116.13 235.797 116.531C235.849 116.792 235.875 117.247 235.875 117.898V123H234.469V117.953C234.469 117.38 234.414 116.953 234.305 116.672C234.195 116.385 234 116.159 233.719 115.992C233.443 115.82 233.117 115.734 232.742 115.734C232.143 115.734 231.625 115.924 231.188 116.305C230.755 116.685 230.539 117.406 230.539 118.469V123H229.133Z" fill="#066FEF"/>
<path d="M305 119.5L310 114.5L315 119.5" stroke="#066FEF" stroke-linecap="round" stroke-linejoin="round"/>
</g>
<rect x="119.5" y="99.5" width="211" height="35" stroke="#0D69D4"/>
<g clip-path="url(#clip0_3753_7919)">
<path d="M64.2929 51.2929C63.9024 51.6834 63.9024 52.3166 64.2929 52.7071L70.6569 59.0711C71.0474 59.4616 71.6805 59.4616 72.0711 59.0711C72.4616 58.6805 72.4616 58.0474 72.0711 57.6569L66.4142 52L72.0711 46.3431C72.4616 45.9526 72.4616 45.3195 72.0711 44.9289C71.6805 44.5384 71.0474 44.5384 70.6569 44.9289L64.2929 51.2929ZM95.7071 52.7071C96.0976 52.3166 96.0976 51.6834 95.7071 51.2929L89.3431 44.9289C88.9526 44.5384 88.3195 44.5384 87.9289 44.9289C87.5384 45.3195 87.5384 45.9526 87.9289 46.3431L93.5858 52L87.9289 57.6569C87.5384 58.0474 87.5384 58.6805 87.9289 59.0711C88.3195 59.4616 88.9526 59.4616 89.3431 59.0711L95.7071 52.7071ZM65 52V53H95V52V51H65V52Z" fill="#6B6B6B"/>
</g>
<path fill-rule="evenodd" clip-rule="evenodd" d="M64.0001 44L64 45L64.0001 48.9915L64 49.024V50.024V54.0185V55.0185V55.0225L64.0001 59.014L64 60.014H65.0001H68.9891H69.9891H74.0113H75.0113H79H80V59.014V55.0185V54.0185V50.024V49.024V45V44H79H75.0113H74.0113H69.9891H68.9891H65.0001H64.0001ZM65.0001 45V48.9915H68.9891V45H65.0001ZM65.0001 55.0225V59.014H68.9891V55.0225H65.0001ZM79 55.0185V59.014H75.0113V55.0185H79ZM79 50.024V54.0185H75.0113V50.024H79ZM79 45V49.024H75.0113V45H79ZM74.0113 45H69.9891V48.9915V49.024H74.0113V45ZM74.0113 50.024H69.9891V54.0185H74.0113V50.024ZM74.0113 55.0185H69.9891V55.0225V59.014H74.0113V55.0185Z" fill="#6B6B6B"/>
<g clip-path="url(#clip1_3753_7919)">
<line x1="72.25" y1="100.75" x2="72.25" y2="133.25" stroke="#0D69D4" stroke-width="1.5" stroke-linecap="square"/>
<line x1="77.25" y1="100.75" x2="66.75" y2="100.75" stroke="#0D69D4" stroke-width="1.5" stroke-linecap="round"/>
<line x1="66.75" y1="133.25" x2="77.25" y2="133.25" stroke="#0D69D4" stroke-width="1.5" stroke-linecap="round"/>
</g>
<path d="M120.22 51.2197C119.927 51.5126 119.927 51.9874 120.22 52.2803L124.993 57.0533C125.286 57.3462 125.76 57.3462 126.053 57.0533C126.346 56.7604 126.346 56.2855 126.053 55.9926L121.811 51.75L126.053 47.5074C126.346 47.2145 126.346 46.7396 126.053 46.4467C125.76 46.1538 125.286 46.1538 124.993 46.4467L120.22 51.2197ZM329.78 52.2803C330.073 51.9874 330.073 51.5126 329.78 51.2197L325.007 46.4467C324.714 46.1538 324.24 46.1538 323.947 46.4467C323.654 46.7396 323.654 47.2145 323.947 47.5074L328.189 51.75L323.947 55.9926C323.654 56.2855 323.654 56.7604 323.947 57.0533C324.24 57.3462 324.714 57.3462 325.007 57.0533L329.78 52.2803ZM120.75 51.75V52.5H329.25V51.75V51H120.75V51.75Z" fill="#0D69D4"/>
<rect x="152" y="100" width="12" height="34" fill="#C54600" fill-opacity="0.3"/>
<line x1="152.5" y1="84" x2="152.5" y2="134" stroke="#C54600"/>
<line x1="163.5" y1="84" x2="163.5" y2="134" stroke="#C54600"/>
<rect x="149" y="66" width="18" height="14" rx="4" fill="#C54600"/>
<path d="M155.641 69V77H154.672V70.0156H154.625L152.672 71.3125V70.3281L154.672 69H155.641ZM157.941 77V76.2969L160.582 73.4062C160.892 73.0677 161.147 72.7734 161.348 72.5234C161.548 72.2708 161.697 72.0339 161.793 71.8125C161.892 71.5885 161.941 71.3542 161.941 71.1094C161.941 70.8281 161.874 70.5846 161.738 70.3789C161.605 70.1732 161.423 70.0143 161.191 69.9023C160.96 69.7904 160.699 69.7344 160.41 69.7344C160.103 69.7344 159.835 69.7982 159.605 69.9258C159.379 70.0508 159.203 70.2266 159.078 70.4531C158.956 70.6797 158.895 70.9453 158.895 71.25H157.973C157.973 70.7812 158.081 70.3698 158.297 70.0156C158.513 69.6615 158.807 69.3854 159.18 69.1875C159.555 68.9896 159.975 68.8906 160.441 68.8906C160.91 68.8906 161.326 68.9896 161.688 69.1875C162.049 69.3854 162.333 69.6523 162.539 69.9883C162.745 70.3242 162.848 70.6979 162.848 71.1094C162.848 71.4036 162.794 71.6914 162.688 71.9727C162.583 72.2513 162.401 72.5625 162.141 72.9062C161.883 73.2474 161.525 73.6641 161.066 74.1562L159.27 76.0781V76.1406H162.988V77H157.941Z" fill="white"/>
<rect x="132" y="107" width="20" height="20" fill="#0D69D4" fill-opacity="0.2"/>
<rect x="290" y="100" width="12" height="34" fill="#C54600" fill-opacity="0.3"/>
<line x1="290.5" y1="84" x2="290.5" y2="134" stroke="#C54600"/>
<line x1="301.5" y1="84" x2="301.5" y2="134" stroke="#C54600"/>
<rect x="287" y="66" width="18" height="14" rx="4" fill="#C54600"/>
<path d="M293.641 69V77H292.672V70.0156H292.625L290.672 71.3125V70.3281L292.672 69H293.641ZM295.941 77V76.2969L298.582 73.4062C298.892 73.0677 299.147 72.7734 299.348 72.5234C299.548 72.2708 299.697 72.0339 299.793 71.8125C299.892 71.5885 299.941 71.3542 299.941 71.1094C299.941 70.8281 299.874 70.5846 299.738 70.3789C299.605 70.1732 299.423 70.0143 299.191 69.9023C298.96 69.7904 298.699 69.7344 298.41 69.7344C298.103 69.7344 297.835 69.7982 297.605 69.9258C297.379 70.0508 297.203 70.2266 297.078 70.4531C296.956 70.6797 296.895 70.9453 296.895 71.25H295.973C295.973 70.7812 296.081 70.3698 296.297 70.0156C296.513 69.6615 296.807 69.3854 297.18 69.1875C297.555 68.9896 297.975 68.8906 298.441 68.8906C298.91 68.8906 299.326 68.9896 299.688 69.1875C300.049 69.3854 300.333 69.6523 300.539 69.9883C300.745 70.3242 300.848 70.6979 300.848 71.1094C300.848 71.4036 300.794 71.6914 300.688 71.9727C300.583 72.2513 300.401 72.5625 300.141 72.9062C299.883 73.2474 299.525 73.6641 299.066 74.1562L297.27 76.0781V76.1406H300.988V77H295.941Z" fill="white"/>
<path d="M164.146 91.1464C163.951 91.3417 163.951 91.6583 164.146 91.8536L167.328 95.0355C167.524 95.2308 167.84 95.2308 168.036 95.0355C168.231 94.8403 168.231 94.5237 168.036 94.3284L165.207 91.5L168.036 88.6716C168.231 88.4763 168.231 88.1597 168.036 87.9645C167.84 87.7692 167.524 87.7692 167.328 87.9645L164.146 91.1464ZM289.854 91.8536C290.049 91.6583 290.049 91.3417 289.854 91.1464L286.672 87.9645C286.476 87.7692 286.16 87.7692 285.964 87.9645C285.769 88.1597 285.769 88.4763 285.964 88.6716L288.793 91.5L285.964 94.3284C285.769 94.5237 285.769 94.8403 285.964 95.0355C286.16 95.2308 286.476 95.2308 286.672 95.0355L289.854 91.8536ZM164.5 91.5V92H289.5V91.5V91H164.5V91.5Z" fill="#0D69D4"/>
<rect x="164" y="105" width="126" height="24" fill="#0D69D4" fill-opacity="0.2"/>
<rect x="302" y="109" width="16" height="16" fill="#0D69D4" fill-opacity="0.2"/>
<rect x="120" y="100" width="12" height="34" fill="#007D00" fill-opacity="0.3"/>
<line x1="120.5" y1="84" x2="120.5" y2="134" stroke="#007D00"/>
<line x1="131.5" y1="84" x2="131.5" y2="134" stroke="#007D00"/>
<rect x="117" y="66" width="18" height="14" rx="4" fill="#007D00"/>
<path d="M123.641 69V77H122.672V70.0156H122.625L120.672 71.3125V70.3281L122.672 69H123.641ZM125.941 77V76.2969L128.582 73.4062C128.892 73.0677 129.147 72.7734 129.348 72.5234C129.548 72.2708 129.697 72.0339 129.793 71.8125C129.892 71.5885 129.941 71.3542 129.941 71.1094C129.941 70.8281 129.874 70.5846 129.738 70.3789C129.605 70.1732 129.423 70.0143 129.191 69.9023C128.96 69.7904 128.699 69.7344 128.41 69.7344C128.103 69.7344 127.835 69.7982 127.605 69.9258C127.379 70.0508 127.203 70.2266 127.078 70.4531C126.956 70.6797 126.895 70.9453 126.895 71.25H125.973C125.973 70.7812 126.081 70.3698 126.297 70.0156C126.513 69.6615 126.807 69.3854 127.18 69.1875C127.555 68.9896 127.975 68.8906 128.441 68.8906C128.91 68.8906 129.326 68.9896 129.688 69.1875C130.049 69.3854 130.333 69.6523 130.539 69.9883C130.745 70.3242 130.848 70.6979 130.848 71.1094C130.848 71.4036 130.794 71.6914 130.688 71.9727C130.583 72.2513 130.401 72.5625 130.141 72.9062C129.883 73.2474 129.525 73.6641 129.066 74.1562L127.27 76.0781V76.1406H130.988V77H125.941Z" fill="white"/>
<rect x="318" y="100" width="12" height="34" fill="#007D00" fill-opacity="0.3"/>
<line x1="318.5" y1="84" x2="318.5" y2="134" stroke="#007D00"/>
<line x1="329.5" y1="84" x2="329.5" y2="134" stroke="#007D00"/>
<rect x="315" y="66" width="18" height="14" rx="4" fill="#007D00"/>
<path d="M321.641 69V77H320.672V70.0156H320.625L318.672 71.3125V70.3281L320.672 69H321.641ZM323.941 77V76.2969L326.582 73.4062C326.892 73.0677 327.147 72.7734 327.348 72.5234C327.548 72.2708 327.697 72.0339 327.793 71.8125C327.892 71.5885 327.941 71.3542 327.941 71.1094C327.941 70.8281 327.874 70.5846 327.738 70.3789C327.605 70.1732 327.423 70.0143 327.191 69.9023C326.96 69.7904 326.699 69.7344 326.41 69.7344C326.103 69.7344 325.835 69.7982 325.605 69.9258C325.379 70.0508 325.203 70.2266 325.078 70.4531C324.956 70.6797 324.895 70.9453 324.895 71.25H323.973C323.973 70.7812 324.081 70.3698 324.297 70.0156C324.513 69.6615 324.807 69.3854 325.18 69.1875C325.555 68.9896 325.975 68.8906 326.441 68.8906C326.91 68.8906 327.326 68.9896 327.688 69.1875C328.049 69.3854 328.333 69.6523 328.539 69.9883C328.745 70.3242 328.848 70.6979 328.848 71.1094C328.848 71.4036 328.794 71.6914 328.688 71.9727C328.583 72.2513 328.401 72.5625 328.141 72.9062C327.883 73.2474 327.525 73.6641 327.066 74.1562L325.27 76.0781V76.1406H328.988V77H323.941Z" fill="white"/>
<defs>
<clipPath id="clip0_3753_7919">
<rect width="16" height="16" fill="white" transform="translate(80 44)"/>
</clipPath>
<clipPath id="clip1_3753_7919">
<rect width="34" height="16" fill="white" transform="matrix(0 1 -1 0 80 100)"/>
</clipPath>
</defs>
</svg>
