<svg width="24" height="24" viewBox="0 0 24 24" fill="none" xmlns="http://www.w3.org/2000/svg">
<path d="M10.7999 6.13451C9.53127 5.5163 8.10609 5.16943 6.5999 5.16943C5.09371 5.16943 3.66854 5.5163 2.3999 6.13451V18.1345C3.66854 17.5163 5.09371 17.1694 6.5999 17.1694C8.60223 17.1694 10.4614 17.7825 11.9999 18.8311C13.5384 17.7825 15.3976 17.1694 17.3999 17.1694C18.9061 17.1694 20.3313 17.5163 21.5999 18.1345V6.13451C20.3313 5.5163 18.9061 5.16943 17.3999 5.16943C15.8937 5.16943 14.4685 5.5163 13.1999 6.13451V14.7694C13.1999 15.4322 12.6626 15.9694 11.9999 15.9694C11.3372 15.9694 10.7999 15.4322 10.7999 14.7694V6.13451Z" fill="#FEFEFE"/>
</svg>
