<svg width="24" height="24" viewBox="0 0 24 24" fill="none" xmlns="http://www.w3.org/2000/svg">
<path d="M20.897 3.10285C19.9597 2.16559 18.4401 2.16559 17.5028 3.10285L8.3999 12.2058V15.5999H11.794L20.897 6.49696C21.8342 5.5597 21.8342 4.0401 20.897 3.10285Z" fill="#FEFEFE"/>
<path fill-rule="evenodd" clip-rule="evenodd" d="M2.3999 7.1999C2.3999 5.87442 3.47442 4.7999 4.7999 4.7999H9.5999C10.2626 4.7999 10.7999 5.33716 10.7999 5.9999C10.7999 6.66264 10.2626 7.1999 9.5999 7.1999H4.7999V19.1999H16.7999V14.3999C16.7999 13.7372 17.3372 13.1999 17.9999 13.1999C18.6626 13.1999 19.1999 13.7372 19.1999 14.3999V19.1999C19.1999 20.5254 18.1254 21.5999 16.7999 21.5999H4.7999C3.47442 21.5999 2.3999 20.5254 2.3999 19.1999V7.1999Z" fill="#FEFEFE"/>
</svg>
