<svg width="24" height="24" viewBox="0 0 24 24" fill="none" xmlns="http://www.w3.org/2000/svg">
<path d="M12.4731 2.49705C12.1712 2.36768 11.8295 2.36768 11.5277 2.49705L3.12769 6.09705C2.68647 6.28614 2.40039 6.71999 2.40039 7.20002C2.40039 7.68006 2.68647 8.1139 3.12769 8.303L6.30084 9.66292C6.41623 9.53218 6.56087 9.4257 6.72769 9.35421L11.5277 7.29706C12.1368 7.036 12.8423 7.31818 13.1034 7.92734C13.3644 8.53649 13.0822 9.24195 12.4731 9.50301L9.20041 10.9056L11.5277 11.903C11.8295 12.0324 12.1712 12.0324 12.4731 11.903L20.8731 8.303C21.3143 8.1139 21.6004 7.68006 21.6004 7.20002C21.6004 6.71999 21.3143 6.28614 20.8731 6.09705L12.4731 2.49705Z" fill="#00142E"/>
<path d="M12.4731 2.49705C12.1712 2.36768 11.8295 2.36768 11.5277 2.49705L3.12769 6.09705C2.68647 6.28614 2.40039 6.71999 2.40039 7.20002C2.40039 7.68006 2.68647 8.1139 3.12769 8.303L6.30084 9.66292C6.41623 9.53218 6.56087 9.4257 6.72769 9.35421L11.5277 7.29706C12.1368 7.036 12.8423 7.31818 13.1034 7.92734C13.3644 8.53649 13.0822 9.24195 12.4731 9.50301L9.20041 10.9056L11.5277 11.903C11.8295 12.0324 12.1712 12.0324 12.4731 11.903L20.8731 8.303C21.3143 8.1139 21.6004 7.68006 21.6004 7.20002C21.6004 6.71999 21.3143 6.28614 20.8731 6.09705L12.4731 2.49705Z" fill="black" fill-opacity="0.2"/>
<path d="M3.97244 11.2761L6.00039 12.1452V17.0672C5.58907 16.9739 5.16885 16.9041 4.74124 16.8593C4.17752 16.8002 3.73203 16.3547 3.67292 15.7909C3.62495 15.3334 3.60039 14.8693 3.60039 14.3998C3.60039 13.324 3.72928 12.2778 3.97244 11.2761Z" fill="#00142E"/>
<path d="M3.97244 11.2761L6.00039 12.1452V17.0672C5.58907 16.9739 5.16885 16.9041 4.74124 16.8593C4.17752 16.8002 3.73203 16.3547 3.67292 15.7909C3.62495 15.3334 3.60039 14.8693 3.60039 14.3998C3.60039 13.324 3.72928 12.2778 3.97244 11.2761Z" fill="black" fill-opacity="0.2"/>
<path d="M11.1603 19.887C10.3529 19.0955 9.4224 18.4301 8.40039 17.9221V13.1738L10.5823 14.1089C11.4879 14.497 12.5129 14.497 13.4185 14.1089L20.0283 11.2761C20.2715 12.2778 20.4004 13.324 20.4004 14.3998C20.4004 14.8693 20.3758 15.3334 20.3279 15.7909C20.2688 16.3547 19.8233 16.8002 19.2595 16.8593C16.7721 17.1201 14.5353 18.2256 12.8404 19.887C12.3738 20.3445 11.627 20.3445 11.1603 19.887Z" fill="#00142E"/>
<path d="M11.1603 19.887C10.3529 19.0955 9.4224 18.4301 8.40039 17.9221V13.1738L10.5823 14.1089C11.4879 14.497 12.5129 14.497 13.4185 14.1089L20.0283 11.2761C20.2715 12.2778 20.4004 13.324 20.4004 14.3998C20.4004 14.8693 20.3758 15.3334 20.3279 15.7909C20.2688 16.3547 19.8233 16.8002 19.2595 16.8593C16.7721 17.1201 14.5353 18.2256 12.8404 19.887C12.3738 20.3445 11.627 20.3445 11.1603 19.887Z" fill="black" fill-opacity="0.2"/>
<path d="M7.20039 21.6C7.86313 21.6 8.40039 21.0627 8.40039 20.4V17.9221C7.64602 17.5472 6.8418 17.258 6.00039 17.0672V20.4C6.00039 21.0627 6.53765 21.6 7.20039 21.6Z" fill="#00142E"/>
<path d="M7.20039 21.6C7.86313 21.6 8.40039 21.0627 8.40039 20.4V17.9221C7.64602 17.5472 6.8418 17.258 6.00039 17.0672V20.4C6.00039 21.0627 6.53765 21.6 7.20039 21.6Z" fill="black" fill-opacity="0.2"/>
</svg>
