<svg width="24" height="24" viewBox="0 0 24 24" fill="none" xmlns="http://www.w3.org/2000/svg">
<path d="M6.00039 4.79998C6.00039 4.13723 5.46313 3.59998 4.80039 3.59998C4.13765 3.59998 3.60039 4.13723 3.60039 4.79998V13.5211C2.88303 13.936 2.40039 14.7116 2.40039 15.6C2.40039 16.4883 2.88303 17.2639 3.60039 17.6789V19.2C3.60039 19.8627 4.13765 20.4 4.80039 20.4C5.46313 20.4 6.00039 19.8627 6.00039 19.2V17.6789C6.71775 17.2639 7.20039 16.4883 7.20039 15.6C7.20039 14.7116 6.71775 13.936 6.00039 13.5211V4.79998Z" fill="#00142E"/>
<path d="M6.00039 4.79998C6.00039 4.13723 5.46313 3.59998 4.80039 3.59998C4.13765 3.59998 3.60039 4.13723 3.60039 4.79998V13.5211C2.88303 13.936 2.40039 14.7116 2.40039 15.6C2.40039 16.4883 2.88303 17.2639 3.60039 17.6789V19.2C3.60039 19.8627 4.13765 20.4 4.80039 20.4C5.46313 20.4 6.00039 19.8627 6.00039 19.2V17.6789C6.71775 17.2639 7.20039 16.4883 7.20039 15.6C7.20039 14.7116 6.71775 13.936 6.00039 13.5211V4.79998Z" fill="black" fill-opacity="0.2"/>
<path d="M13.2004 4.79998C13.2004 4.13723 12.6631 3.59998 12.0004 3.59998C11.3376 3.59998 10.8004 4.13723 10.8004 4.79998V6.32105C10.083 6.73602 9.60039 7.51164 9.60039 8.39998C9.60039 9.28831 10.083 10.0639 10.8004 10.4789V19.2C10.8004 19.8627 11.3376 20.4 12.0004 20.4C12.6631 20.4 13.2004 19.8627 13.2004 19.2V10.4789C13.9178 10.0639 14.4004 9.28831 14.4004 8.39998C14.4004 7.51164 13.9178 6.73602 13.2004 6.32105V4.79998Z" fill="#00142E"/>
<path d="M13.2004 4.79998C13.2004 4.13723 12.6631 3.59998 12.0004 3.59998C11.3376 3.59998 10.8004 4.13723 10.8004 4.79998V6.32105C10.083 6.73602 9.60039 7.51164 9.60039 8.39998C9.60039 9.28831 10.083 10.0639 10.8004 10.4789V19.2C10.8004 19.8627 11.3376 20.4 12.0004 20.4C12.6631 20.4 13.2004 19.8627 13.2004 19.2V10.4789C13.9178 10.0639 14.4004 9.28831 14.4004 8.39998C14.4004 7.51164 13.9178 6.73602 13.2004 6.32105V4.79998Z" fill="black" fill-opacity="0.2"/>
<path d="M19.2004 3.59998C19.8631 3.59998 20.4004 4.13723 20.4004 4.79998V13.5211C21.1178 13.936 21.6004 14.7116 21.6004 15.6C21.6004 16.4883 21.1178 17.2639 20.4004 17.6789V19.2C20.4004 19.8627 19.8631 20.4 19.2004 20.4C18.5376 20.4 18.0004 19.8627 18.0004 19.2V17.6789C17.283 17.2639 16.8004 16.4883 16.8004 15.6C16.8004 14.7116 17.283 13.936 18.0004 13.5211V4.79998C18.0004 4.13723 18.5376 3.59998 19.2004 3.59998Z" fill="#00142E"/>
<path d="M19.2004 3.59998C19.8631 3.59998 20.4004 4.13723 20.4004 4.79998V13.5211C21.1178 13.936 21.6004 14.7116 21.6004 15.6C21.6004 16.4883 21.1178 17.2639 20.4004 17.6789V19.2C20.4004 19.8627 19.8631 20.4 19.2004 20.4C18.5376 20.4 18.0004 19.8627 18.0004 19.2V17.6789C17.283 17.2639 16.8004 16.4883 16.8004 15.6C16.8004 14.7116 17.283 13.936 18.0004 13.5211V4.79998C18.0004 4.13723 18.5376 3.59998 19.2004 3.59998Z" fill="black" fill-opacity="0.2"/>
</svg>
