<svg width="24" height="24" viewBox="0 0 24 24" fill="none" xmlns="http://www.w3.org/2000/svg">
<path fill-rule="evenodd" clip-rule="evenodd" d="M21.6004 15.6V5.99998C21.6004 4.67449 20.5259 3.59998 19.2004 3.59998H4.80039C3.47491 3.59998 2.40039 4.67449 2.40039 5.99998V15.6C2.40039 16.9255 3.47491 18 4.80039 18H8.40039L12.0004 21.6L15.6004 18H19.2004C20.5259 18 21.6004 16.9255 21.6004 15.6ZM6.00039 8.39998C6.00039 7.73723 6.53765 7.19998 7.20039 7.19998H16.8004C17.4631 7.19998 18.0004 7.73723 18.0004 8.39998C18.0004 9.06272 17.4631 9.59998 16.8004 9.59998H7.20039C6.53765 9.59998 6.00039 9.06272 6.00039 8.39998ZM7.20039 12C6.53765 12 6.00039 12.5372 6.00039 13.2C6.00039 13.8627 6.53765 14.4 7.20039 14.4H10.8004C11.4631 14.4 12.0004 13.8627 12.0004 13.2C12.0004 12.5372 11.4631 12 10.8004 12H7.20039Z" fill="#00142E"/>
<path fill-rule="evenodd" clip-rule="evenodd" d="M21.6004 15.6V5.99998C21.6004 4.67449 20.5259 3.59998 19.2004 3.59998H4.80039C3.47491 3.59998 2.40039 4.67449 2.40039 5.99998V15.6C2.40039 16.9255 3.47491 18 4.80039 18H8.40039L12.0004 21.6L15.6004 18H19.2004C20.5259 18 21.6004 16.9255 21.6004 15.6ZM6.00039 8.39998C6.00039 7.73723 6.53765 7.19998 7.20039 7.19998H16.8004C17.4631 7.19998 18.0004 7.73723 18.0004 8.39998C18.0004 9.06272 17.4631 9.59998 16.8004 9.59998H7.20039C6.53765 9.59998 6.00039 9.06272 6.00039 8.39998ZM7.20039 12C6.53765 12 6.00039 12.5372 6.00039 13.2C6.00039 13.8627 6.53765 14.4 7.20039 14.4H10.8004C11.4631 14.4 12.0004 13.8627 12.0004 13.2C12.0004 12.5372 11.4631 12 10.8004 12H7.20039Z" fill="black" fill-opacity="0.2"/>
</svg>
