<svg width="24" height="24" viewBox="0 0 24 24" fill="none" xmlns="http://www.w3.org/2000/svg">
<path fill-rule="evenodd" clip-rule="evenodd" d="M3.95108 11.6486C3.48245 11.1799 3.48245 10.4201 3.95108 9.9515L11.1511 2.7515C11.6197 2.28287 12.3795 2.28287 12.8481 2.7515L20.0481 9.9515C20.5168 10.4201 20.5168 11.1799 20.0481 11.6486C19.5795 12.1172 18.8197 12.1172 18.3511 11.6486L13.1996 6.49708L13.1996 20.4C13.1996 21.0628 12.6624 21.6 11.9996 21.6C11.3369 21.6 10.7996 21.0628 10.7996 20.4L10.7996 6.49708L5.64814 11.6486C5.17951 12.1172 4.41971 12.1172 3.95108 11.6486Z" fill="#00142E"/>
<path fill-rule="evenodd" clip-rule="evenodd" d="M3.95108 11.6486C3.48245 11.1799 3.48245 10.4201 3.95108 9.9515L11.1511 2.7515C11.6197 2.28287 12.3795 2.28287 12.8481 2.7515L20.0481 9.9515C20.5168 10.4201 20.5168 11.1799 20.0481 11.6486C19.5795 12.1172 18.8197 12.1172 18.3511 11.6486L13.1996 6.49708L13.1996 20.4C13.1996 21.0628 12.6624 21.6 11.9996 21.6C11.3369 21.6 10.7996 21.0628 10.7996 20.4L10.7996 6.49708L5.64814 11.6486C5.17951 12.1172 4.41971 12.1172 3.95108 11.6486Z" fill="black" fill-opacity="0.2"/>
</svg>
