<svg width="24" height="24" viewBox="0 0 24 24" fill="none" xmlns="http://www.w3.org/2000/svg">
<path fill-rule="evenodd" clip-rule="evenodd" d="M12.0004 21.6C17.3023 21.6 21.6004 17.302 21.6004 12C21.6004 6.69809 17.3023 2.40002 12.0004 2.40002C6.69846 2.40002 2.40039 6.69809 2.40039 12C2.40039 17.302 6.69846 21.6 12.0004 21.6ZM13.2004 8.40002C13.2004 7.73728 12.6631 7.20002 12.0004 7.20002C11.3376 7.20002 10.8004 7.73728 10.8004 8.40002V12.703L9.24892 11.1515C8.78029 10.6829 8.02049 10.6829 7.55186 11.1515C7.08323 11.6201 7.08323 12.3799 7.55186 12.8486L11.1519 16.4486C11.6205 16.9172 12.3803 16.9172 12.8489 16.4486L16.4489 12.8486C16.9175 12.3799 16.9175 11.6201 16.4489 11.1515C15.9803 10.6829 15.2205 10.6829 14.7519 11.1515L13.2004 12.703V8.40002Z" fill="#00142E"/>
<path fill-rule="evenodd" clip-rule="evenodd" d="M12.0004 21.6C17.3023 21.6 21.6004 17.302 21.6004 12C21.6004 6.69809 17.3023 2.40002 12.0004 2.40002C6.69846 2.40002 2.40039 6.69809 2.40039 12C2.40039 17.302 6.69846 21.6 12.0004 21.6ZM13.2004 8.40002C13.2004 7.73728 12.6631 7.20002 12.0004 7.20002C11.3376 7.20002 10.8004 7.73728 10.8004 8.40002V12.703L9.24892 11.1515C8.78029 10.6829 8.02049 10.6829 7.55186 11.1515C7.08323 11.6201 7.08323 12.3799 7.55186 12.8486L11.1519 16.4486C11.6205 16.9172 12.3803 16.9172 12.8489 16.4486L16.4489 12.8486C16.9175 12.3799 16.9175 11.6201 16.4489 11.1515C15.9803 10.6829 15.2205 10.6829 14.7519 11.1515L13.2004 12.703V8.40002Z" fill="black" fill-opacity="0.2"/>
</svg>
