<svg width="24" height="24" viewBox="0 0 24 24" fill="none" xmlns="http://www.w3.org/2000/svg">
<path fill-rule="evenodd" clip-rule="evenodd" d="M14.7519 6.35147C15.2205 5.88284 15.9803 5.88284 16.4489 6.35147L21.2489 11.1515C21.7176 11.6201 21.7176 12.3799 21.2489 12.8485L16.4489 17.6485C15.9803 18.1172 15.2205 18.1172 14.7519 17.6485C14.2832 17.1799 14.2832 16.4201 14.7519 15.9515L17.5033 13.2H3.60039C2.93765 13.2 2.40039 12.6627 2.40039 12C2.40039 11.3373 2.93765 10.8 3.60039 10.8H17.5033L14.7519 8.04853C14.2832 7.5799 14.2832 6.8201 14.7519 6.35147Z" fill="#00142E"/>
<path fill-rule="evenodd" clip-rule="evenodd" d="M14.7519 6.35147C15.2205 5.88284 15.9803 5.88284 16.4489 6.35147L21.2489 11.1515C21.7176 11.6201 21.7176 12.3799 21.2489 12.8485L16.4489 17.6485C15.9803 18.1172 15.2205 18.1172 14.7519 17.6485C14.2832 17.1799 14.2832 16.4201 14.7519 15.9515L17.5033 13.2H3.60039C2.93765 13.2 2.40039 12.6627 2.40039 12C2.40039 11.3373 2.93765 10.8 3.60039 10.8H17.5033L14.7519 8.04853C14.2832 7.5799 14.2832 6.8201 14.7519 6.35147Z" fill="black" fill-opacity="0.2"/>
</svg>
