<svg width="24" height="24" viewBox="0 0 24 24" fill="none" xmlns="http://www.w3.org/2000/svg">
<path fill-rule="evenodd" clip-rule="evenodd" d="M12.0004 21.6C17.3023 21.6 21.6004 17.302 21.6004 12C21.6004 6.69809 17.3023 2.40002 12.0004 2.40002C6.69846 2.40002 2.40039 6.69809 2.40039 12C2.40039 17.302 6.69846 21.6 12.0004 21.6ZM12.8489 9.24855C13.3175 8.77992 13.3175 8.02013 12.8489 7.5515C12.3803 7.08287 11.6205 7.08287 11.1519 7.5515L7.55186 11.1515C7.08323 11.6201 7.08323 12.3799 7.55186 12.8486L11.1519 16.4486C11.6205 16.9172 12.3803 16.9172 12.8489 16.4486C13.3175 15.9799 13.3175 15.2201 12.8489 14.7515L11.2974 13.2H15.6004C16.2631 13.2 16.8004 12.6628 16.8004 12C16.8004 11.3373 16.2631 10.8 15.6004 10.8L11.2974 10.8L12.8489 9.24855Z" fill="#00142E"/>
<path fill-rule="evenodd" clip-rule="evenodd" d="M12.0004 21.6C17.3023 21.6 21.6004 17.302 21.6004 12C21.6004 6.69809 17.3023 2.40002 12.0004 2.40002C6.69846 2.40002 2.40039 6.69809 2.40039 12C2.40039 17.302 6.69846 21.6 12.0004 21.6ZM12.8489 9.24855C13.3175 8.77992 13.3175 8.02013 12.8489 7.5515C12.3803 7.08287 11.6205 7.08287 11.1519 7.5515L7.55186 11.1515C7.08323 11.6201 7.08323 12.3799 7.55186 12.8486L11.1519 16.4486C11.6205 16.9172 12.3803 16.9172 12.8489 16.4486C13.3175 15.9799 13.3175 15.2201 12.8489 14.7515L11.2974 13.2H15.6004C16.2631 13.2 16.8004 12.6628 16.8004 12C16.8004 11.3373 16.2631 10.8 15.6004 10.8L11.2974 10.8L12.8489 9.24855Z" fill="black" fill-opacity="0.2"/>
</svg>
