<svg width="24" height="24" viewBox="0 0 24 24" fill="none" xmlns="http://www.w3.org/2000/svg">
<path fill-rule="evenodd" clip-rule="evenodd" d="M3.59961 4.79998C3.59961 4.13723 4.13687 3.59998 4.79961 3.59998H9.59961C10.2624 3.59998 10.7996 4.13723 10.7996 4.79998C10.7996 5.46272 10.2624 5.99998 9.59961 5.99998H7.69667L10.4481 8.75145C10.9168 9.22008 10.9168 9.97987 10.4481 10.4485C9.97951 10.9171 9.21971 10.9171 8.75108 10.4485L5.99961 7.69703V9.59998C5.99961 10.2627 5.46235 10.8 4.79961 10.8C4.13687 10.8 3.59961 10.2627 3.59961 9.59998V4.79998ZM14.3996 5.99998C13.7369 5.99998 13.1996 5.46272 13.1996 4.79998C13.1996 4.13723 13.7369 3.59998 14.3996 3.59998H19.1996C19.8624 3.59998 20.3996 4.13723 20.3996 4.79998V9.59998C20.3996 10.2627 19.8624 10.8 19.1996 10.8C18.5369 10.8 17.9996 10.2627 17.9996 9.59998V7.69703L15.2481 10.4485C14.7795 10.9171 14.0197 10.9171 13.5511 10.4485C13.0825 9.97987 13.0825 9.22008 13.5511 8.75145L16.3026 5.99998H14.3996ZM3.59961 14.4C3.59961 13.7372 4.13687 13.2 4.79961 13.2C5.46235 13.2 5.99961 13.7372 5.99961 14.4V16.3029L8.75108 13.5514C9.21971 13.0828 9.97951 13.0828 10.4481 13.5514C10.9168 14.0201 10.9168 14.7799 10.4481 15.2485L7.69666 18H9.59961C10.2624 18 10.7996 18.5372 10.7996 19.2C10.7996 19.8627 10.2624 20.4 9.59961 20.4H4.79961C4.13687 20.4 3.59961 19.8627 3.59961 19.2V14.4ZM19.1996 13.2C19.8624 13.2 20.3996 13.7372 20.3996 14.4V19.2C20.3996 19.8627 19.8624 20.4 19.1996 20.4H14.3996C13.7369 20.4 13.1996 19.8627 13.1996 19.2C13.1996 18.5372 13.7369 18 14.3996 18H16.3026L13.5511 15.2485C13.0825 14.7799 13.0825 14.0201 13.5511 13.5514C14.0197 13.0828 14.7795 13.0828 15.2481 13.5514L17.9996 16.3029V14.4C17.9996 13.7372 18.5369 13.2 19.1996 13.2Z" fill="#00142E"/>
<path fill-rule="evenodd" clip-rule="evenodd" d="M3.59961 4.79998C3.59961 4.13723 4.13687 3.59998 4.79961 3.59998H9.59961C10.2624 3.59998 10.7996 4.13723 10.7996 4.79998C10.7996 5.46272 10.2624 5.99998 9.59961 5.99998H7.69667L10.4481 8.75145C10.9168 9.22008 10.9168 9.97987 10.4481 10.4485C9.97951 10.9171 9.21971 10.9171 8.75108 10.4485L5.99961 7.69703V9.59998C5.99961 10.2627 5.46235 10.8 4.79961 10.8C4.13687 10.8 3.59961 10.2627 3.59961 9.59998V4.79998ZM14.3996 5.99998C13.7369 5.99998 13.1996 5.46272 13.1996 4.79998C13.1996 4.13723 13.7369 3.59998 14.3996 3.59998H19.1996C19.8624 3.59998 20.3996 4.13723 20.3996 4.79998V9.59998C20.3996 10.2627 19.8624 10.8 19.1996 10.8C18.5369 10.8 17.9996 10.2627 17.9996 9.59998V7.69703L15.2481 10.4485C14.7795 10.9171 14.0197 10.9171 13.5511 10.4485C13.0825 9.97987 13.0825 9.22008 13.5511 8.75145L16.3026 5.99998H14.3996ZM3.59961 14.4C3.59961 13.7372 4.13687 13.2 4.79961 13.2C5.46235 13.2 5.99961 13.7372 5.99961 14.4V16.3029L8.75108 13.5514C9.21971 13.0828 9.97951 13.0828 10.4481 13.5514C10.9168 14.0201 10.9168 14.7799 10.4481 15.2485L7.69666 18H9.59961C10.2624 18 10.7996 18.5372 10.7996 19.2C10.7996 19.8627 10.2624 20.4 9.59961 20.4H4.79961C4.13687 20.4 3.59961 19.8627 3.59961 19.2V14.4ZM19.1996 13.2C19.8624 13.2 20.3996 13.7372 20.3996 14.4V19.2C20.3996 19.8627 19.8624 20.4 19.1996 20.4H14.3996C13.7369 20.4 13.1996 19.8627 13.1996 19.2C13.1996 18.5372 13.7369 18 14.3996 18H16.3026L13.5511 15.2485C13.0825 14.7799 13.0825 14.0201 13.5511 13.5514C14.0197 13.0828 14.7795 13.0828 15.2481 13.5514L17.9996 16.3029V14.4C17.9996 13.7372 18.5369 13.2 19.1996 13.2Z" fill="black" fill-opacity="0.2"/>
</svg>
