<svg width="24" height="24" viewBox="0 0 24 24" fill="none" xmlns="http://www.w3.org/2000/svg">
<path fill-rule="evenodd" clip-rule="evenodd" d="M20.0481 12.3515C20.5168 12.8201 20.5168 13.5799 20.0481 14.0486L12.8481 21.2486C12.3795 21.7172 11.6197 21.7172 11.1511 21.2486L3.95108 14.0486C3.48245 13.5799 3.48245 12.8201 3.95108 12.3515C4.41971 11.8829 5.17951 11.8829 5.64814 12.3515L10.7996 17.503L10.7996 3.60003C10.7996 2.93728 11.3369 2.40002 11.9996 2.40002C12.6624 2.40002 13.1996 2.93728 13.1996 3.60003L13.1996 17.503L18.3511 12.3515C18.8197 11.8829 19.5795 11.8829 20.0481 12.3515Z" fill="#00142E"/>
<path fill-rule="evenodd" clip-rule="evenodd" d="M20.0481 12.3515C20.5168 12.8201 20.5168 13.5799 20.0481 14.0486L12.8481 21.2486C12.3795 21.7172 11.6197 21.7172 11.1511 21.2486L3.95108 14.0486C3.48245 13.5799 3.48245 12.8201 3.95108 12.3515C4.41971 11.8829 5.17951 11.8829 5.64814 12.3515L10.7996 17.503L10.7996 3.60003C10.7996 2.93728 11.3369 2.40002 11.9996 2.40002C12.6624 2.40002 13.1996 2.93728 13.1996 3.60003L13.1996 17.503L18.3511 12.3515C18.8197 11.8829 19.5795 11.8829 20.0481 12.3515Z" fill="black" fill-opacity="0.2"/>
</svg>
