<svg width="24" height="24" viewBox="0 0 24 24" fill="none" xmlns="http://www.w3.org/2000/svg">
<path fill-rule="evenodd" clip-rule="evenodd" d="M12.0004 21.6C17.3023 21.6 21.6004 17.302 21.6004 12C21.6004 6.69809 17.3023 2.40002 12.0004 2.40002C6.69846 2.40002 2.40039 6.69809 2.40039 12C2.40039 17.302 6.69846 21.6 12.0004 21.6ZM16.4489 11.1515L12.8489 7.5515C12.3803 7.08287 11.6205 7.08287 11.1519 7.5515C10.6832 8.02013 10.6832 8.77992 11.1519 9.24855L12.7033 10.8L8.40039 10.8C7.73765 10.8 7.20039 11.3373 7.20039 12C7.20039 12.6628 7.73765 13.2 8.40039 13.2H12.7033L11.1519 14.7515C10.6832 15.2201 10.6832 15.9799 11.1519 16.4486C11.6205 16.9172 12.3803 16.9172 12.8489 16.4486L16.4489 12.8486C16.9175 12.3799 16.9175 11.6201 16.4489 11.1515Z" fill="#00142E"/>
<path fill-rule="evenodd" clip-rule="evenodd" d="M12.0004 21.6C17.3023 21.6 21.6004 17.302 21.6004 12C21.6004 6.69809 17.3023 2.40002 12.0004 2.40002C6.69846 2.40002 2.40039 6.69809 2.40039 12C2.40039 17.302 6.69846 21.6 12.0004 21.6ZM16.4489 11.1515L12.8489 7.5515C12.3803 7.08287 11.6205 7.08287 11.1519 7.5515C10.6832 8.02013 10.6832 8.77992 11.1519 9.24855L12.7033 10.8L8.40039 10.8C7.73765 10.8 7.20039 11.3373 7.20039 12C7.20039 12.6628 7.73765 13.2 8.40039 13.2H12.7033L11.1519 14.7515C10.6832 15.2201 10.6832 15.9799 11.1519 16.4486C11.6205 16.9172 12.3803 16.9172 12.8489 16.4486L16.4489 12.8486C16.9175 12.3799 16.9175 11.6201 16.4489 11.1515Z" fill="black" fill-opacity="0.2"/>
</svg>
