<svg width="24" height="24" viewBox="0 0 24 24" fill="none" xmlns="http://www.w3.org/2000/svg">
<path fill-rule="evenodd" clip-rule="evenodd" d="M11.6489 20.0485C11.1803 20.5171 10.4205 20.5171 9.95186 20.0485L2.75186 12.8485C2.28323 12.3799 2.28323 11.6201 2.75186 11.1514L9.95186 3.95145C10.4205 3.48282 11.1803 3.48282 11.6489 3.95145C12.1175 4.42008 12.1175 5.17988 11.6489 5.6485L6.49745 10.8H20.4004C21.0631 10.8 21.6004 11.3372 21.6004 12C21.6004 12.6627 21.0631 13.2 20.4004 13.2L6.49745 13.2L11.6489 18.3514C12.1175 18.8201 12.1175 19.5799 11.6489 20.0485Z" fill="#00142E"/>
<path fill-rule="evenodd" clip-rule="evenodd" d="M11.6489 20.0485C11.1803 20.5171 10.4205 20.5171 9.95186 20.0485L2.75186 12.8485C2.28323 12.3799 2.28323 11.6201 2.75186 11.1514L9.95186 3.95145C10.4205 3.48282 11.1803 3.48282 11.6489 3.95145C12.1175 4.42008 12.1175 5.17988 11.6489 5.6485L6.49745 10.8H20.4004C21.0631 10.8 21.6004 11.3372 21.6004 12C21.6004 12.6627 21.0631 13.2 20.4004 13.2L6.49745 13.2L11.6489 18.3514C12.1175 18.8201 12.1175 19.5799 11.6489 20.0485Z" fill="black" fill-opacity="0.2"/>
</svg>
