<svg width="24" height="24" viewBox="0 0 24 24" fill="none" xmlns="http://www.w3.org/2000/svg">
<path fill-rule="evenodd" clip-rule="evenodd" d="M12.3519 3.95145C12.8205 3.48282 13.5803 3.48282 14.0489 3.95145L21.2489 11.1514C21.7176 11.6201 21.7176 12.3799 21.2489 12.8485L14.0489 20.0485C13.5803 20.5171 12.8205 20.5171 12.3519 20.0485C11.8832 19.5799 11.8832 18.8201 12.3519 18.3514L17.5033 13.2L3.60039 13.2C2.93765 13.2 2.40039 12.6627 2.40039 12C2.40039 11.3372 2.93765 10.8 3.60039 10.8H17.5033L12.3519 5.6485C11.8832 5.17987 11.8832 4.42008 12.3519 3.95145Z" fill="#00142E"/>
<path fill-rule="evenodd" clip-rule="evenodd" d="M12.3519 3.95145C12.8205 3.48282 13.5803 3.48282 14.0489 3.95145L21.2489 11.1514C21.7176 11.6201 21.7176 12.3799 21.2489 12.8485L14.0489 20.0485C13.5803 20.5171 12.8205 20.5171 12.3519 20.0485C11.8832 19.5799 11.8832 18.8201 12.3519 18.3514L17.5033 13.2L3.60039 13.2C2.93765 13.2 2.40039 12.6627 2.40039 12C2.40039 11.3372 2.93765 10.8 3.60039 10.8H17.5033L12.3519 5.6485C11.8832 5.17987 11.8832 4.42008 12.3519 3.95145Z" fill="black" fill-opacity="0.2"/>
</svg>
