<svg width="24" height="24" viewBox="0 0 24 24" fill="none" xmlns="http://www.w3.org/2000/svg">
<path fill-rule="evenodd" clip-rule="evenodd" d="M17.0916 6.90886C14.2798 4.09708 9.721 4.09708 6.90922 6.90886C4.09745 9.72063 4.09745 14.2794 6.90922 17.0912C9.35313 19.5351 13.1194 19.8558 15.9087 18.049C16.465 17.6887 17.208 17.8475 17.5683 18.4038C17.9286 18.96 17.7698 19.703 17.2135 20.0633C13.4937 22.4728 8.47311 22.0492 5.21217 18.7882C1.46313 15.0392 1.46313 8.96083 5.21217 5.2118C8.9612 1.46277 15.0396 1.46277 18.7886 5.2118C20.6629 7.08606 21.6004 9.54507 21.6004 12C21.6004 13.9883 19.9886 15.6 18.0004 15.6C17.19 15.6 16.4422 15.3323 15.8405 14.8804C14.9648 16.046 13.5706 16.8 12.0004 16.8C9.34942 16.8 7.20039 14.651 7.20039 12C7.20039 9.34906 9.34942 7.20002 12.0004 7.20002C14.6514 7.20002 16.8004 9.34906 16.8004 12C16.8004 12.6628 17.3376 13.2 18.0004 13.2C18.6631 13.2 19.2004 12.6628 19.2004 12C19.2004 10.1556 18.4977 8.31495 17.0916 6.90886ZM14.4004 12C14.4004 10.6745 13.3259 9.60002 12.0004 9.60002C10.6749 9.60002 9.60039 10.6745 9.60039 12C9.60039 13.3255 10.6749 14.4 12.0004 14.4C13.3259 14.4 14.4004 13.3255 14.4004 12Z" fill="#00142E"/>
<path fill-rule="evenodd" clip-rule="evenodd" d="M17.0916 6.90886C14.2798 4.09708 9.721 4.09708 6.90922 6.90886C4.09745 9.72063 4.09745 14.2794 6.90922 17.0912C9.35313 19.5351 13.1194 19.8558 15.9087 18.049C16.465 17.6887 17.208 17.8475 17.5683 18.4038C17.9286 18.96 17.7698 19.703 17.2135 20.0633C13.4937 22.4728 8.47311 22.0492 5.21217 18.7882C1.46313 15.0392 1.46313 8.96083 5.21217 5.2118C8.9612 1.46277 15.0396 1.46277 18.7886 5.2118C20.6629 7.08606 21.6004 9.54507 21.6004 12C21.6004 13.9883 19.9886 15.6 18.0004 15.6C17.19 15.6 16.4422 15.3323 15.8405 14.8804C14.9648 16.046 13.5706 16.8 12.0004 16.8C9.34942 16.8 7.20039 14.651 7.20039 12C7.20039 9.34906 9.34942 7.20002 12.0004 7.20002C14.6514 7.20002 16.8004 9.34906 16.8004 12C16.8004 12.6628 17.3376 13.2 18.0004 13.2C18.6631 13.2 19.2004 12.6628 19.2004 12C19.2004 10.1556 18.4977 8.31495 17.0916 6.90886ZM14.4004 12C14.4004 10.6745 13.3259 9.60002 12.0004 9.60002C10.6749 9.60002 9.60039 10.6745 9.60039 12C9.60039 13.3255 10.6749 14.4 12.0004 14.4C13.3259 14.4 14.4004 13.3255 14.4004 12Z" fill="black" fill-opacity="0.2"/>
</svg>
