<svg width="24" height="24" viewBox="0 0 24 24" fill="none" xmlns="http://www.w3.org/2000/svg">
<path fill-rule="evenodd" clip-rule="evenodd" d="M8.04892 5.8544C8.72405 5.17927 9.63972 4.79999 10.5945 4.79999H18.0004C19.9886 4.79999 21.6004 6.41176 21.6004 8.39999V15.6C21.6004 17.5882 19.9886 19.2 18.0004 19.2H10.5945C9.63972 19.2 8.72405 18.8207 8.04892 18.1456L2.75186 12.8485C2.52682 12.6235 2.40039 12.3182 2.40039 12C2.40039 11.6817 2.52682 11.3765 2.75186 11.1515L8.04892 5.8544ZM12.8489 8.75146C12.3803 8.28283 11.6205 8.28283 11.1519 8.75146C10.6832 9.22009 10.6832 9.97989 11.1519 10.4485L12.7033 12L11.1519 13.5515C10.6832 14.0201 10.6832 14.7799 11.1519 15.2485C11.6205 15.7171 12.3803 15.7171 12.8489 15.2485L14.4004 13.697L15.9519 15.2485C16.4205 15.7171 17.1803 15.7171 17.6489 15.2485C18.1175 14.7799 18.1175 14.0201 17.6489 13.5515L16.0974 12L17.6489 10.4485C18.1175 9.97989 18.1175 9.22009 17.6489 8.75146C17.1803 8.28283 16.4205 8.28283 15.9519 8.75146L14.4004 10.3029L12.8489 8.75146Z" fill="#00142E"/>
<path fill-rule="evenodd" clip-rule="evenodd" d="M8.04892 5.8544C8.72405 5.17927 9.63972 4.79999 10.5945 4.79999H18.0004C19.9886 4.79999 21.6004 6.41176 21.6004 8.39999V15.6C21.6004 17.5882 19.9886 19.2 18.0004 19.2H10.5945C9.63972 19.2 8.72405 18.8207 8.04892 18.1456L2.75186 12.8485C2.52682 12.6235 2.40039 12.3182 2.40039 12C2.40039 11.6817 2.52682 11.3765 2.75186 11.1515L8.04892 5.8544ZM12.8489 8.75146C12.3803 8.28283 11.6205 8.28283 11.1519 8.75146C10.6832 9.22009 10.6832 9.97989 11.1519 10.4485L12.7033 12L11.1519 13.5515C10.6832 14.0201 10.6832 14.7799 11.1519 15.2485C11.6205 15.7171 12.3803 15.7171 12.8489 15.2485L14.4004 13.697L15.9519 15.2485C16.4205 15.7171 17.1803 15.7171 17.6489 15.2485C18.1175 14.7799 18.1175 14.0201 17.6489 13.5515L16.0974 12L17.6489 10.4485C18.1175 9.97989 18.1175 9.22009 17.6489 8.75146C17.1803 8.28283 16.4205 8.28283 15.9519 8.75146L14.4004 10.3029L12.8489 8.75146Z" fill="black" fill-opacity="0.2"/>
</svg>
