<svg width="24" height="24" viewBox="0 0 24 24" fill="none" xmlns="http://www.w3.org/2000/svg">
<path fill-rule="evenodd" clip-rule="evenodd" d="M21.6004 12C21.6004 17.302 17.3023 21.6 12.0004 21.6C6.69846 21.6 2.40039 17.302 2.40039 12C2.40039 6.69809 6.69846 2.40002 12.0004 2.40002C17.3023 2.40002 21.6004 6.69809 21.6004 12ZM16.1723 17.8689C14.9953 18.7071 13.5554 19.2 12.0004 19.2C8.02394 19.2 4.80039 15.9765 4.80039 12C4.80039 10.445 5.29336 9.0051 6.13155 7.8281L16.1723 17.8689ZM17.8693 16.1718L7.82864 6.13107C9.0056 5.29295 10.4454 4.80002 12.0004 4.80002C15.9768 4.80002 19.2004 8.02357 19.2004 12C19.2004 13.555 18.7075 14.9948 17.8693 16.1718Z" fill="#00142E"/>
<path fill-rule="evenodd" clip-rule="evenodd" d="M21.6004 12C21.6004 17.302 17.3023 21.6 12.0004 21.6C6.69846 21.6 2.40039 17.302 2.40039 12C2.40039 6.69809 6.69846 2.40002 12.0004 2.40002C17.3023 2.40002 21.6004 6.69809 21.6004 12ZM16.1723 17.8689C14.9953 18.7071 13.5554 19.2 12.0004 19.2C8.02394 19.2 4.80039 15.9765 4.80039 12C4.80039 10.445 5.29336 9.0051 6.13155 7.8281L16.1723 17.8689ZM17.8693 16.1718L7.82864 6.13107C9.0056 5.29295 10.4454 4.80002 12.0004 4.80002C15.9768 4.80002 19.2004 8.02357 19.2004 12C19.2004 13.555 18.7075 14.9948 17.8693 16.1718Z" fill="black" fill-opacity="0.2"/>
</svg>
