<svg width="24" height="24" viewBox="0 0 24 24" fill="none" xmlns="http://www.w3.org/2000/svg">
<path fill-rule="evenodd" clip-rule="evenodd" d="M8.39963 2.40002C7.91427 2.40002 7.47671 2.6924 7.29097 3.1408C7.10524 3.58921 7.2079 4.10536 7.5511 4.44855L8.39963 5.29708V9.80591C8.39963 10.1242 8.2732 10.4294 8.04816 10.6544L3.24816 15.4544C0.980284 17.7223 2.58648 21.6 5.79374 21.6H18.2055C21.4128 21.6 23.019 17.7223 20.7511 15.4544L15.9511 10.6544C15.7261 10.4294 15.5996 10.1242 15.5996 9.80591V5.29708L16.4482 4.44855C16.7914 4.10536 16.894 3.58921 16.7083 3.1408C16.5225 2.6924 16.085 2.40002 15.5996 2.40002H8.39963ZM10.7996 9.80591V4.80002H13.1996V9.80591C13.1996 10.7607 13.5789 11.6764 14.254 12.3515L15.4871 13.5846C14.6269 13.3845 13.725 13.425 12.8817 13.7061L12.3175 13.8941C11.3322 14.2226 10.267 14.2226 9.28167 13.8941L8.60673 13.6692C8.56103 13.6539 8.51509 13.6401 8.46895 13.6278L9.74521 12.3515C10.4203 11.6764 10.7996 10.7607 10.7996 9.80591Z" fill="#00142E"/>
<path fill-rule="evenodd" clip-rule="evenodd" d="M8.39963 2.40002C7.91427 2.40002 7.47671 2.6924 7.29097 3.1408C7.10524 3.58921 7.2079 4.10536 7.5511 4.44855L8.39963 5.29708V9.80591C8.39963 10.1242 8.2732 10.4294 8.04816 10.6544L3.24816 15.4544C0.980284 17.7223 2.58648 21.6 5.79374 21.6H18.2055C21.4128 21.6 23.019 17.7223 20.7511 15.4544L15.9511 10.6544C15.7261 10.4294 15.5996 10.1242 15.5996 9.80591V5.29708L16.4482 4.44855C16.7914 4.10536 16.894 3.58921 16.7083 3.1408C16.5225 2.6924 16.085 2.40002 15.5996 2.40002H8.39963ZM10.7996 9.80591V4.80002H13.1996V9.80591C13.1996 10.7607 13.5789 11.6764 14.254 12.3515L15.4871 13.5846C14.6269 13.3845 13.725 13.425 12.8817 13.7061L12.3175 13.8941C11.3322 14.2226 10.267 14.2226 9.28167 13.8941L8.60673 13.6692C8.56103 13.6539 8.51509 13.6401 8.46895 13.6278L9.74521 12.3515C10.4203 11.6764 10.7996 10.7607 10.7996 9.80591Z" fill="black" fill-opacity="0.2"/>
</svg>
