<svg width="24" height="24" viewBox="0 0 24 24" fill="none" xmlns="http://www.w3.org/2000/svg">
<path d="M11.9996 2.40002C8.02319 2.40002 4.79964 5.62357 4.79964 9.60002V13.903L3.95112 14.7515C3.60792 15.0947 3.50525 15.6108 3.69099 16.0592C3.87673 16.5077 4.31429 16.8 4.79964 16.8H19.1996C19.685 16.8 20.1226 16.5077 20.3083 16.0592C20.494 15.6108 20.3914 15.0947 20.0482 14.7515L19.1996 13.903V9.60002C19.1996 5.62357 15.9761 2.40002 11.9996 2.40002Z" fill="#00142E"/>
<path d="M11.9996 2.40002C8.02319 2.40002 4.79964 5.62357 4.79964 9.60002V13.903L3.95112 14.7515C3.60792 15.0947 3.50525 15.6108 3.69099 16.0592C3.87673 16.5077 4.31429 16.8 4.79964 16.8H19.1996C19.685 16.8 20.1226 16.5077 20.3083 16.0592C20.494 15.6108 20.3914 15.0947 20.0482 14.7515L19.1996 13.903V9.60002C19.1996 5.62357 15.9761 2.40002 11.9996 2.40002Z" fill="black" fill-opacity="0.2"/>
<path d="M11.9996 21.6C10.0114 21.6 8.39961 19.9883 8.39961 18H15.5996C15.5996 19.9883 13.9878 21.6 11.9996 21.6Z" fill="#00142E"/>
<path d="M11.9996 21.6C10.0114 21.6 8.39961 19.9883 8.39961 18H15.5996C15.5996 19.9883 13.9878 21.6 11.9996 21.6Z" fill="black" fill-opacity="0.2"/>
</svg>
