<svg width="24" height="24" viewBox="0 0 24 24" fill="none" xmlns="http://www.w3.org/2000/svg">
<path d="M10.8004 5.76513C9.53176 5.14692 8.10658 4.80005 6.60039 4.80005C5.0942 4.80005 3.66903 5.14692 2.40039 5.76513V17.7651C3.66903 17.1469 5.0942 16.8 6.60039 16.8C8.60272 16.8 10.4619 17.4131 12.0004 18.4617C13.5389 17.4131 15.3981 16.8 17.4004 16.8C18.9066 16.8 20.3318 17.1469 21.6004 17.7651V5.76513C20.3318 5.14692 18.9066 4.80005 17.4004 4.80005C15.8942 4.80005 14.469 5.14692 13.2004 5.76513V14.4C13.2004 15.0628 12.6631 15.6 12.0004 15.6C11.3376 15.6 10.8004 15.0628 10.8004 14.4V5.76513Z" fill="#00142E"/>
<path d="M10.8004 5.76513C9.53176 5.14692 8.10658 4.80005 6.60039 4.80005C5.0942 4.80005 3.66903 5.14692 2.40039 5.76513V17.7651C3.66903 17.1469 5.0942 16.8 6.60039 16.8C8.60272 16.8 10.4619 17.4131 12.0004 18.4617C13.5389 17.4131 15.3981 16.8 17.4004 16.8C18.9066 16.8 20.3318 17.1469 21.6004 17.7651V5.76513C20.3318 5.14692 18.9066 4.80005 17.4004 4.80005C15.8942 4.80005 14.469 5.14692 13.2004 5.76513V14.4C13.2004 15.0628 12.6631 15.6 12.0004 15.6C11.3376 15.6 10.8004 15.0628 10.8004 14.4V5.76513Z" fill="black" fill-opacity="0.2"/>
</svg>
