<svg width="24" height="24" viewBox="0 0 24 24" fill="none" xmlns="http://www.w3.org/2000/svg">
<path fill-rule="evenodd" clip-rule="evenodd" d="M7.20039 7.20002V6.00002C7.20039 4.0118 8.81217 2.40002 10.8004 2.40002H13.2004C15.1886 2.40002 16.8004 4.0118 16.8004 6.00002V7.20002H19.2004C20.5259 7.20002 21.6004 8.27454 21.6004 9.60002V13.8849C18.612 14.9937 15.3783 15.6 12.0004 15.6C8.62256 15.6 5.38883 14.9937 2.40039 13.8849V9.60002C2.40039 8.27454 3.47491 7.20002 4.80039 7.20002H7.20039ZM9.60039 6.00002C9.60039 5.33728 10.1376 4.80002 10.8004 4.80002H13.2004C13.8631 4.80002 14.4004 5.33728 14.4004 6.00002V7.20002H9.60039V6.00002ZM10.8004 12C10.8004 11.3373 11.3376 10.8 12.0004 10.8H12.0124C12.6751 10.8 13.2124 11.3373 13.2124 12C13.2124 12.6628 12.6751 13.2 12.0124 13.2H12.0004C11.3376 13.2 10.8004 12.6628 10.8004 12Z" fill="#00142E"/>
<path fill-rule="evenodd" clip-rule="evenodd" d="M7.20039 7.20002V6.00002C7.20039 4.0118 8.81217 2.40002 10.8004 2.40002H13.2004C15.1886 2.40002 16.8004 4.0118 16.8004 6.00002V7.20002H19.2004C20.5259 7.20002 21.6004 8.27454 21.6004 9.60002V13.8849C18.612 14.9937 15.3783 15.6 12.0004 15.6C8.62256 15.6 5.38883 14.9937 2.40039 13.8849V9.60002C2.40039 8.27454 3.47491 7.20002 4.80039 7.20002H7.20039ZM9.60039 6.00002C9.60039 5.33728 10.1376 4.80002 10.8004 4.80002H13.2004C13.8631 4.80002 14.4004 5.33728 14.4004 6.00002V7.20002H9.60039V6.00002ZM10.8004 12C10.8004 11.3373 11.3376 10.8 12.0004 10.8H12.0124C12.6751 10.8 13.2124 11.3373 13.2124 12C13.2124 12.6628 12.6751 13.2 12.0124 13.2H12.0004C11.3376 13.2 10.8004 12.6628 10.8004 12Z" fill="black" fill-opacity="0.2"/>
<path d="M2.40039 16.4307V19.2C2.40039 20.5255 3.47491 21.6 4.80039 21.6H19.2004C20.5259 21.6 21.6004 20.5255 21.6004 19.2V16.4308C18.5851 17.4486 15.3561 18 12.0004 18C8.64474 18 5.41574 17.4486 2.40039 16.4307Z" fill="#00142E"/>
<path d="M2.40039 16.4307V19.2C2.40039 20.5255 3.47491 21.6 4.80039 21.6H19.2004C20.5259 21.6 21.6004 20.5255 21.6004 19.2V16.4308C18.5851 17.4486 15.3561 18 12.0004 18C8.64474 18 5.41574 17.4486 2.40039 16.4307Z" fill="black" fill-opacity="0.2"/>
</svg>
