<svg width="24" height="24" viewBox="0 0 24 24" fill="none" xmlns="http://www.w3.org/2000/svg">
<path d="M7.20039 3.60002C7.20039 2.93728 7.73765 2.40002 8.40039 2.40002H8.41239C9.07513 2.40002 9.61239 2.93728 9.61239 3.60002C9.61239 4.26277 9.07513 4.80002 8.41239 4.80002H8.40039C7.73765 4.80002 7.20039 4.26277 7.20039 3.60002Z" fill="#00142E"/>
<path d="M7.20039 3.60002C7.20039 2.93728 7.73765 2.40002 8.40039 2.40002H8.41239C9.07513 2.40002 9.61239 2.93728 9.61239 3.60002C9.61239 4.26277 9.07513 4.80002 8.41239 4.80002H8.40039C7.73765 4.80002 7.20039 4.26277 7.20039 3.60002Z" fill="black" fill-opacity="0.2"/>
<path d="M9.60039 7.20002C9.60039 6.53728 9.06313 6.00002 8.40039 6.00002C7.73765 6.00002 7.20039 6.53728 7.20039 7.20002V8.40002C5.87491 8.40002 4.80039 9.47454 4.80039 10.8V12C3.47491 12 2.40039 13.0745 2.40039 14.4V15.22C2.84281 15.344 3.27038 15.5379 3.66603 15.8016C4.35294 16.2596 5.24784 16.2596 5.93475 15.8016C7.42782 14.8063 9.37296 14.8063 10.866 15.8016C11.5529 16.2596 12.4478 16.2596 13.1348 15.8016C14.6278 14.8063 16.573 14.8063 18.066 15.8016C18.7529 16.2596 19.6478 16.2596 20.3348 15.8016C20.7304 15.5379 21.158 15.344 21.6004 15.22V14.4C21.6004 13.0745 20.5259 12 19.2004 12V10.8C19.2004 9.47454 18.1259 8.40002 16.8004 8.40002V7.20002C16.8004 6.53728 16.2631 6.00002 15.6004 6.00002C14.9376 6.00002 14.4004 6.53728 14.4004 7.20002V8.40002H13.2004V7.20002C13.2004 6.53728 12.6631 6.00002 12.0004 6.00002C11.3376 6.00002 10.8004 6.53728 10.8004 7.20002V8.40002H9.60039V7.20002Z" fill="#00142E"/>
<path d="M9.60039 7.20002C9.60039 6.53728 9.06313 6.00002 8.40039 6.00002C7.73765 6.00002 7.20039 6.53728 7.20039 7.20002V8.40002C5.87491 8.40002 4.80039 9.47454 4.80039 10.8V12C3.47491 12 2.40039 13.0745 2.40039 14.4V15.22C2.84281 15.344 3.27038 15.5379 3.66603 15.8016C4.35294 16.2596 5.24784 16.2596 5.93475 15.8016C7.42782 14.8063 9.37296 14.8063 10.866 15.8016C11.5529 16.2596 12.4478 16.2596 13.1348 15.8016C14.6278 14.8063 16.573 14.8063 18.066 15.8016C18.7529 16.2596 19.6478 16.2596 20.3348 15.8016C20.7304 15.5379 21.158 15.344 21.6004 15.22V14.4C21.6004 13.0745 20.5259 12 19.2004 12V10.8C19.2004 9.47454 18.1259 8.40002 16.8004 8.40002V7.20002C16.8004 6.53728 16.2631 6.00002 15.6004 6.00002C14.9376 6.00002 14.4004 6.53728 14.4004 7.20002V8.40002H13.2004V7.20002C13.2004 6.53728 12.6631 6.00002 12.0004 6.00002C11.3376 6.00002 10.8004 6.53728 10.8004 7.20002V8.40002H9.60039V7.20002Z" fill="black" fill-opacity="0.2"/>
<path d="M21.6004 17.8415C20.1163 18.7937 18.206 18.7794 16.7348 17.7986C16.0478 17.3406 15.1529 17.3406 14.466 17.7986C12.973 18.7939 11.0278 18.7939 9.53475 17.7986C8.84784 17.3406 7.95294 17.3406 7.26603 17.7986C5.79474 18.7794 3.88449 18.7937 2.40039 17.8415V20.4C2.40039 21.0628 2.93765 21.6 3.60039 21.6H20.4004C21.0631 21.6 21.6004 21.0628 21.6004 20.4V17.8415Z" fill="#00142E"/>
<path d="M21.6004 17.8415C20.1163 18.7937 18.206 18.7794 16.7348 17.7986C16.0478 17.3406 15.1529 17.3406 14.466 17.7986C12.973 18.7939 11.0278 18.7939 9.53475 17.7986C8.84784 17.3406 7.95294 17.3406 7.26603 17.7986C5.79474 18.7794 3.88449 18.7937 2.40039 17.8415V20.4C2.40039 21.0628 2.93765 21.6 3.60039 21.6H20.4004C21.0631 21.6 21.6004 21.0628 21.6004 20.4V17.8415Z" fill="black" fill-opacity="0.2"/>
<path d="M10.8004 3.60002C10.8004 2.93728 11.3376 2.40002 12.0004 2.40002H12.0124C12.6751 2.40002 13.2124 2.93728 13.2124 3.60002C13.2124 4.26277 12.6751 4.80002 12.0124 4.80002H12.0004C11.3376 4.80002 10.8004 4.26277 10.8004 3.60002Z" fill="#00142E"/>
<path d="M10.8004 3.60002C10.8004 2.93728 11.3376 2.40002 12.0004 2.40002H12.0124C12.6751 2.40002 13.2124 2.93728 13.2124 3.60002C13.2124 4.26277 12.6751 4.80002 12.0124 4.80002H12.0004C11.3376 4.80002 10.8004 4.26277 10.8004 3.60002Z" fill="black" fill-opacity="0.2"/>
<path d="M14.4004 3.60002C14.4004 2.93728 14.9376 2.40002 15.6004 2.40002H15.6124C16.2751 2.40002 16.8124 2.93728 16.8124 3.60002C16.8124 4.26277 16.2751 4.80002 15.6124 4.80002H15.6004C14.9376 4.80002 14.4004 4.26277 14.4004 3.60002Z" fill="#00142E"/>
<path d="M14.4004 3.60002C14.4004 2.93728 14.9376 2.40002 15.6004 2.40002H15.6124C16.2751 2.40002 16.8124 2.93728 16.8124 3.60002C16.8124 4.26277 16.2751 4.80002 15.6124 4.80002H15.6004C14.9376 4.80002 14.4004 4.26277 14.4004 3.60002Z" fill="black" fill-opacity="0.2"/>
</svg>
