<svg width="24" height="24" viewBox="0 0 24 24" fill="none" xmlns="http://www.w3.org/2000/svg">
<path fill-rule="evenodd" clip-rule="evenodd" d="M7.20039 2.40002C6.53765 2.40002 6.00039 2.93728 6.00039 3.60002V4.80002H4.80039C3.47491 4.80002 2.40039 5.87454 2.40039 7.20002V19.2C2.40039 20.5255 3.47491 21.6 4.80039 21.6H19.2004C20.5259 21.6 21.6004 20.5255 21.6004 19.2V7.20002C21.6004 5.87454 20.5259 4.80002 19.2004 4.80002H18.0004V3.60002C18.0004 2.93728 17.4631 2.40002 16.8004 2.40002C16.1376 2.40002 15.6004 2.93728 15.6004 3.60002V4.80002H8.40039V3.60002C8.40039 2.93728 7.86313 2.40002 7.20039 2.40002ZM7.20039 8.40002C6.53765 8.40002 6.00039 8.93728 6.00039 9.60002C6.00039 10.2628 6.53765 10.8 7.20039 10.8H16.8004C17.4631 10.8 18.0004 10.2628 18.0004 9.60002C18.0004 8.93728 17.4631 8.40002 16.8004 8.40002H7.20039Z" fill="#00142E"/>
<path fill-rule="evenodd" clip-rule="evenodd" d="M7.20039 2.40002C6.53765 2.40002 6.00039 2.93728 6.00039 3.60002V4.80002H4.80039C3.47491 4.80002 2.40039 5.87454 2.40039 7.20002V19.2C2.40039 20.5255 3.47491 21.6 4.80039 21.6H19.2004C20.5259 21.6 21.6004 20.5255 21.6004 19.2V7.20002C21.6004 5.87454 20.5259 4.80002 19.2004 4.80002H18.0004V3.60002C18.0004 2.93728 17.4631 2.40002 16.8004 2.40002C16.1376 2.40002 15.6004 2.93728 15.6004 3.60002V4.80002H8.40039V3.60002C8.40039 2.93728 7.86313 2.40002 7.20039 2.40002ZM7.20039 8.40002C6.53765 8.40002 6.00039 8.93728 6.00039 9.60002C6.00039 10.2628 6.53765 10.8 7.20039 10.8H16.8004C17.4631 10.8 18.0004 10.2628 18.0004 9.60002C18.0004 8.93728 17.4631 8.40002 16.8004 8.40002H7.20039Z" fill="black" fill-opacity="0.2"/>
</svg>
