<svg width="24" height="24" viewBox="0 0 24 24" fill="none" xmlns="http://www.w3.org/2000/svg">
<path d="M2.40039 13.2C2.40039 12.5372 2.93765 12 3.60039 12H6.00039C6.66313 12 7.20039 12.5372 7.20039 13.2V19.2C7.20039 19.8627 6.66313 20.4 6.00039 20.4H3.60039C2.93765 20.4 2.40039 19.8627 2.40039 19.2V13.2Z" fill="#00142E"/>
<path d="M2.40039 13.2C2.40039 12.5372 2.93765 12 3.60039 12H6.00039C6.66313 12 7.20039 12.5372 7.20039 13.2V19.2C7.20039 19.8627 6.66313 20.4 6.00039 20.4H3.60039C2.93765 20.4 2.40039 19.8627 2.40039 19.2V13.2Z" fill="black" fill-opacity="0.2"/>
<path d="M9.60039 8.39998C9.60039 7.73723 10.1376 7.19998 10.8004 7.19998H13.2004C13.8631 7.19998 14.4004 7.73723 14.4004 8.39998V19.2C14.4004 19.8627 13.8631 20.4 13.2004 20.4H10.8004C10.1376 20.4 9.60039 19.8627 9.60039 19.2V8.39998Z" fill="#00142E"/>
<path d="M9.60039 8.39998C9.60039 7.73723 10.1376 7.19998 10.8004 7.19998H13.2004C13.8631 7.19998 14.4004 7.73723 14.4004 8.39998V19.2C14.4004 19.8627 13.8631 20.4 13.2004 20.4H10.8004C10.1376 20.4 9.60039 19.8627 9.60039 19.2V8.39998Z" fill="black" fill-opacity="0.2"/>
<path d="M16.8004 4.79998C16.8004 4.13723 17.3376 3.59998 18.0004 3.59998H20.4004C21.0631 3.59998 21.6004 4.13723 21.6004 4.79998V19.2C21.6004 19.8627 21.0631 20.4 20.4004 20.4H18.0004C17.3376 20.4 16.8004 19.8627 16.8004 19.2V4.79998Z" fill="#00142E"/>
<path d="M16.8004 4.79998C16.8004 4.13723 17.3376 3.59998 18.0004 3.59998H20.4004C21.0631 3.59998 21.6004 4.13723 21.6004 4.79998V19.2C21.6004 19.8627 21.0631 20.4 20.4004 20.4H18.0004C17.3376 20.4 16.8004 19.8627 16.8004 19.2V4.79998Z" fill="black" fill-opacity="0.2"/>
</svg>
