<svg width="24" height="24" viewBox="0 0 24 24" fill="none" xmlns="http://www.w3.org/2000/svg">
<path d="M2.40039 12C2.40039 6.69809 6.69846 2.40002 12.0004 2.40002V12H21.6004C21.6004 17.302 17.3023 21.6 12.0004 21.6C6.69846 21.6 2.40039 17.302 2.40039 12Z" fill="#00142E"/>
<path d="M2.40039 12C2.40039 6.69809 6.69846 2.40002 12.0004 2.40002V12H21.6004C21.6004 17.302 17.3023 21.6 12.0004 21.6C6.69846 21.6 2.40039 17.302 2.40039 12Z" fill="black" fill-opacity="0.2"/>
<path d="M14.4004 2.70237C17.7739 3.57065 20.4298 6.22655 21.298 9.60008H14.4004V2.70237Z" fill="#00142E"/>
<path d="M14.4004 2.70237C17.7739 3.57065 20.4298 6.22655 21.298 9.60008H14.4004V2.70237Z" fill="black" fill-opacity="0.2"/>
</svg>
