<svg width="24" height="24" viewBox="0 0 24 24" fill="none" xmlns="http://www.w3.org/2000/svg">
<path fill-rule="evenodd" clip-rule="evenodd" d="M5.99961 3.59998C4.67413 3.59998 3.59961 4.67449 3.59961 5.99998V18C3.59961 19.3255 4.67413 20.4 5.99961 20.4H17.9996C19.3251 20.4 20.3996 19.3255 20.3996 18V5.99998C20.3996 4.67449 19.3251 3.59998 17.9996 3.59998H5.99961ZM16.7996 8.39998C16.7996 7.73723 16.2623 7.19998 15.5996 7.19998C14.9369 7.19998 14.3996 7.73723 14.3996 8.39998V15.6C14.3996 16.2627 14.9369 16.8 15.5996 16.8C16.2623 16.8 16.7996 16.2627 16.7996 15.6V8.39998ZM13.1996 10.8C13.1996 10.1372 12.6624 9.59998 11.9996 9.59998C11.3369 9.59998 10.7996 10.1372 10.7996 10.8V15.6C10.7996 16.2627 11.3369 16.8 11.9996 16.8C12.6624 16.8 13.1996 16.2627 13.1996 15.6V10.8ZM9.59961 14.4C9.59961 13.7372 9.06235 13.2 8.39961 13.2C7.73687 13.2 7.19961 13.7372 7.19961 14.4V15.6C7.19961 16.2627 7.73687 16.8 8.39961 16.8C9.06235 16.8 9.59961 16.2627 9.59961 15.6V14.4Z" fill="#00142E"/>
<path fill-rule="evenodd" clip-rule="evenodd" d="M5.99961 3.59998C4.67413 3.59998 3.59961 4.67449 3.59961 5.99998V18C3.59961 19.3255 4.67413 20.4 5.99961 20.4H17.9996C19.3251 20.4 20.3996 19.3255 20.3996 18V5.99998C20.3996 4.67449 19.3251 3.59998 17.9996 3.59998H5.99961ZM16.7996 8.39998C16.7996 7.73723 16.2623 7.19998 15.5996 7.19998C14.9369 7.19998 14.3996 7.73723 14.3996 8.39998V15.6C14.3996 16.2627 14.9369 16.8 15.5996 16.8C16.2623 16.8 16.7996 16.2627 16.7996 15.6V8.39998ZM13.1996 10.8C13.1996 10.1372 12.6624 9.59998 11.9996 9.59998C11.3369 9.59998 10.7996 10.1372 10.7996 10.8V15.6C10.7996 16.2627 11.3369 16.8 11.9996 16.8C12.6624 16.8 13.1996 16.2627 13.1996 15.6V10.8ZM9.59961 14.4C9.59961 13.7372 9.06235 13.2 8.39961 13.2C7.73687 13.2 7.19961 13.7372 7.19961 14.4V15.6C7.19961 16.2627 7.73687 16.8 8.39961 16.8C9.06235 16.8 9.59961 16.2627 9.59961 15.6V14.4Z" fill="black" fill-opacity="0.2"/>
</svg>
