<svg width="24" height="24" viewBox="0 0 24 24" fill="none" xmlns="http://www.w3.org/2000/svg">
<path fill-rule="evenodd" clip-rule="evenodd" d="M21.6004 5.99998V15.6C21.6004 16.9255 20.5259 18 19.2004 18H13.2004L7.20039 22.8V18H4.80039C3.47491 18 2.40039 16.9255 2.40039 15.6V5.99998C2.40039 4.67449 3.47491 3.59998 4.80039 3.59998H19.2004C20.5259 3.59998 21.6004 4.67449 21.6004 5.99998ZM8.40039 9.59998H6.00039V12H8.40039V9.59998ZM10.8004 9.59998H13.2004V12H10.8004V9.59998ZM18.0004 9.59998H15.6004V12H18.0004V9.59998Z" fill="#00142E"/>
<path fill-rule="evenodd" clip-rule="evenodd" d="M21.6004 5.99998V15.6C21.6004 16.9255 20.5259 18 19.2004 18H13.2004L7.20039 22.8V18H4.80039C3.47491 18 2.40039 16.9255 2.40039 15.6V5.99998C2.40039 4.67449 3.47491 3.59998 4.80039 3.59998H19.2004C20.5259 3.59998 21.6004 4.67449 21.6004 5.99998ZM8.40039 9.59998H6.00039V12H8.40039V9.59998ZM10.8004 9.59998H13.2004V12H10.8004V9.59998ZM18.0004 9.59998H15.6004V12H18.0004V9.59998Z" fill="black" fill-opacity="0.2"/>
</svg>
