<svg width="24" height="24" viewBox="0 0 24 24" fill="none" xmlns="http://www.w3.org/2000/svg">
<path fill-rule="evenodd" clip-rule="evenodd" d="M21.6004 12C21.6004 16.6392 17.3023 20.4 12.0004 20.4C10.2104 20.4 8.53488 19.9713 7.10051 19.2249L2.40039 20.4L4.00635 16.6527C2.99175 15.3207 2.40039 13.7208 2.40039 12C2.40039 7.36078 6.69846 3.59998 12.0004 3.59998C17.3023 3.59998 21.6004 7.36078 21.6004 12ZM8.40039 10.8H6.00039V13.2H8.40039V10.8ZM18.0004 10.8H15.6004V13.2H18.0004V10.8ZM10.8004 10.8H13.2004V13.2H10.8004V10.8Z" fill="#00142E"/>
<path fill-rule="evenodd" clip-rule="evenodd" d="M21.6004 12C21.6004 16.6392 17.3023 20.4 12.0004 20.4C10.2104 20.4 8.53488 19.9713 7.10051 19.2249L2.40039 20.4L4.00635 16.6527C2.99175 15.3207 2.40039 13.7208 2.40039 12C2.40039 7.36078 6.69846 3.59998 12.0004 3.59998C17.3023 3.59998 21.6004 7.36078 21.6004 12ZM8.40039 10.8H6.00039V13.2H8.40039V10.8ZM18.0004 10.8H15.6004V13.2H18.0004V10.8ZM10.8004 10.8H13.2004V13.2H10.8004V10.8Z" fill="black" fill-opacity="0.2"/>
</svg>
