<svg width="24" height="24" viewBox="0 0 24 24" fill="none" xmlns="http://www.w3.org/2000/svg">
<path d="M2.40039 5.99998C2.40039 4.67449 3.47491 3.59998 4.80039 3.59998H13.2004C14.5259 3.59998 15.6004 4.67449 15.6004 5.99998V10.8C15.6004 12.1255 14.5259 13.2 13.2004 13.2H10.8004L7.20039 16.8V13.2H4.80039C3.47491 13.2 2.40039 12.1255 2.40039 10.8V5.99998Z" fill="#00142E"/>
<path d="M2.40039 5.99998C2.40039 4.67449 3.47491 3.59998 4.80039 3.59998H13.2004C14.5259 3.59998 15.6004 4.67449 15.6004 5.99998V10.8C15.6004 12.1255 14.5259 13.2 13.2004 13.2H10.8004L7.20039 16.8V13.2H4.80039C3.47491 13.2 2.40039 12.1255 2.40039 10.8V5.99998Z" fill="black" fill-opacity="0.2"/>
<path d="M18.0004 8.39998V11.6C18.0004 13.8091 16.2095 15.6 14.0004 15.6H11.7945L9.67446 17.72C10.0102 17.8987 10.3935 18 10.8004 18H13.2004L16.8004 21.6V18H19.2004C20.5259 18 21.6004 16.9255 21.6004 15.6V10.8C21.6004 9.47449 20.5259 8.39998 19.2004 8.39998H18.0004Z" fill="#00142E"/>
<path d="M18.0004 8.39998V11.6C18.0004 13.8091 16.2095 15.6 14.0004 15.6H11.7945L9.67446 17.72C10.0102 17.8987 10.3935 18 10.8004 18H13.2004L16.8004 21.6V18H19.2004C20.5259 18 21.6004 16.9255 21.6004 15.6V10.8C21.6004 9.47449 20.5259 8.39998 19.2004 8.39998H18.0004Z" fill="black" fill-opacity="0.2"/>
</svg>
