<svg width="24" height="24" viewBox="0 0 24 24" fill="none" xmlns="http://www.w3.org/2000/svg">
<path fill-rule="evenodd" clip-rule="evenodd" d="M12.0004 21.6C17.3023 21.6 21.6004 17.302 21.6004 12C21.6004 6.69809 17.3023 2.40002 12.0004 2.40002C6.69846 2.40002 2.40039 6.69809 2.40039 12C2.40039 17.302 6.69846 21.6 12.0004 21.6ZM16.4489 10.4486C16.9175 9.97992 16.9175 9.22013 16.4489 8.7515C15.9803 8.28287 15.2205 8.28287 14.7519 8.7515L10.8004 12.703L9.24892 11.1515C8.78029 10.6829 8.02049 10.6829 7.55186 11.1515C7.08323 11.6201 7.08323 12.3799 7.55186 12.8486L9.95186 15.2486C10.4205 15.7172 11.1803 15.7172 11.6489 15.2486L16.4489 10.4486Z" fill="#00142E"/>
<path fill-rule="evenodd" clip-rule="evenodd" d="M12.0004 21.6C17.3023 21.6 21.6004 17.302 21.6004 12C21.6004 6.69809 17.3023 2.40002 12.0004 2.40002C6.69846 2.40002 2.40039 6.69809 2.40039 12C2.40039 17.302 6.69846 21.6 12.0004 21.6ZM16.4489 10.4486C16.9175 9.97992 16.9175 9.22013 16.4489 8.7515C15.9803 8.28287 15.2205 8.28287 14.7519 8.7515L10.8004 12.703L9.24892 11.1515C8.78029 10.6829 8.02049 10.6829 7.55186 11.1515C7.08323 11.6201 7.08323 12.3799 7.55186 12.8486L9.95186 15.2486C10.4205 15.7172 11.1803 15.7172 11.6489 15.2486L16.4489 10.4486Z" fill="black" fill-opacity="0.2"/>
</svg>
