<svg width="24" height="24" viewBox="0 0 24 24" fill="none" xmlns="http://www.w3.org/2000/svg">
<path fill-rule="evenodd" clip-rule="evenodd" d="M18.8481 18.8485C18.3795 19.3171 17.6197 19.3171 17.1511 18.8485L11.1511 12.8485C10.6825 12.3799 10.6825 11.6201 11.1511 11.1515L17.1511 5.15146C17.6197 4.68283 18.3795 4.68283 18.8481 5.15146C19.3168 5.62009 19.3168 6.37989 18.8481 6.84852L13.6967 12L18.8481 17.1515C19.3168 17.6201 19.3168 18.3799 18.8481 18.8485ZM11.6481 18.8485C11.1795 19.3171 10.4197 19.3171 9.95108 18.8485L3.95108 12.8485C3.48245 12.3799 3.48245 11.6201 3.95108 11.1515L9.95108 5.15146C10.4197 4.68283 11.1795 4.68283 11.6481 5.15146C12.1168 5.62009 12.1168 6.37989 11.6481 6.84852L6.49667 12L11.6481 17.1515C12.1168 17.6201 12.1168 18.3799 11.6481 18.8485Z" fill="#00142E"/>
<path fill-rule="evenodd" clip-rule="evenodd" d="M18.8481 18.8485C18.3795 19.3171 17.6197 19.3171 17.1511 18.8485L11.1511 12.8485C10.6825 12.3799 10.6825 11.6201 11.1511 11.1515L17.1511 5.15146C17.6197 4.68283 18.3795 4.68283 18.8481 5.15146C19.3168 5.62009 19.3168 6.37989 18.8481 6.84852L13.6967 12L18.8481 17.1515C19.3168 17.6201 19.3168 18.3799 18.8481 18.8485ZM11.6481 18.8485C11.1795 19.3171 10.4197 19.3171 9.95108 18.8485L3.95108 12.8485C3.48245 12.3799 3.48245 11.6201 3.95108 11.1515L9.95108 5.15146C10.4197 4.68283 11.1795 4.68283 11.6481 5.15146C12.1168 5.62009 12.1168 6.37989 11.6481 6.84852L6.49667 12L11.6481 17.1515C12.1168 17.6201 12.1168 18.3799 11.6481 18.8485Z" fill="black" fill-opacity="0.2"/>
</svg>
