<svg width="24" height="24" viewBox="0 0 24 24" fill="none" xmlns="http://www.w3.org/2000/svg">
<path fill-rule="evenodd" clip-rule="evenodd" d="M5.15128 18.8485C4.68265 18.3799 4.68265 17.6201 5.15128 17.1514L11.1513 11.1514C11.6199 10.6828 12.3797 10.6828 12.8483 11.1514L18.8483 17.1514C19.317 17.6201 19.317 18.3799 18.8483 18.8485C18.3797 19.3171 17.6199 19.3171 17.1513 18.8485L11.9998 13.697L6.84833 18.8485C6.3797 19.3171 5.61991 19.3171 5.15128 18.8485ZM5.15128 11.6485C4.68265 11.1799 4.68265 10.4201 5.15128 9.95145L11.1513 3.95145C11.6199 3.48282 12.3797 3.48282 12.8483 3.95145L18.8483 9.95145C19.317 10.4201 19.317 11.1799 18.8483 11.6485C18.3797 12.1171 17.6199 12.1171 17.1513 11.6485L11.9998 6.49703L6.84833 11.6485C6.3797 12.1171 5.61991 12.1171 5.15128 11.6485Z" fill="#00142E"/>
<path fill-rule="evenodd" clip-rule="evenodd" d="M5.15128 18.8485C4.68265 18.3799 4.68265 17.6201 5.15128 17.1514L11.1513 11.1514C11.6199 10.6828 12.3797 10.6828 12.8483 11.1514L18.8483 17.1514C19.317 17.6201 19.317 18.3799 18.8483 18.8485C18.3797 19.3171 17.6199 19.3171 17.1513 18.8485L11.9998 13.697L6.84833 18.8485C6.3797 19.3171 5.61991 19.3171 5.15128 18.8485ZM5.15128 11.6485C4.68265 11.1799 4.68265 10.4201 5.15128 9.95145L11.1513 3.95145C11.6199 3.48282 12.3797 3.48282 12.8483 3.95145L18.8483 9.95145C19.317 10.4201 19.317 11.1799 18.8483 11.6485C18.3797 12.1171 17.6199 12.1171 17.1513 11.6485L11.9998 6.49703L6.84833 11.6485C6.3797 12.1171 5.61991 12.1171 5.15128 11.6485Z" fill="black" fill-opacity="0.2"/>
</svg>
