<svg width="24" height="24" viewBox="0 0 24 24" fill="none" xmlns="http://www.w3.org/2000/svg">
<path fill-rule="evenodd" clip-rule="evenodd" d="M18.8483 5.15146C19.317 5.62009 19.317 6.37989 18.8483 6.84852L12.8483 12.8485C12.3797 13.3171 11.6199 13.3171 11.1513 12.8485L5.15128 6.84852C4.68265 6.37989 4.68265 5.62009 5.15128 5.15146C5.61991 4.68283 6.3797 4.68283 6.84833 5.15146L11.9998 10.3029L17.1513 5.15146C17.6199 4.68283 18.3797 4.68283 18.8483 5.15146ZM18.8483 12.3515C19.317 12.8201 19.317 13.5799 18.8483 14.0485L12.8483 20.0485C12.3797 20.5171 11.6199 20.5171 11.1513 20.0485L5.15128 14.0485C4.68265 13.5799 4.68265 12.8201 5.15128 12.3515C5.61991 11.8828 6.3797 11.8828 6.84833 12.3515L11.9998 17.5029L17.1513 12.3515C17.6199 11.8828 18.3797 11.8828 18.8483 12.3515Z" fill="#00142E"/>
<path fill-rule="evenodd" clip-rule="evenodd" d="M18.8483 5.15146C19.317 5.62009 19.317 6.37989 18.8483 6.84852L12.8483 12.8485C12.3797 13.3171 11.6199 13.3171 11.1513 12.8485L5.15128 6.84852C4.68265 6.37989 4.68265 5.62009 5.15128 5.15146C5.61991 4.68283 6.3797 4.68283 6.84833 5.15146L11.9998 10.3029L17.1513 5.15146C17.6199 4.68283 18.3797 4.68283 18.8483 5.15146ZM18.8483 12.3515C19.317 12.8201 19.317 13.5799 18.8483 14.0485L12.8483 20.0485C12.3797 20.5171 11.6199 20.5171 11.1513 20.0485L5.15128 14.0485C4.68265 13.5799 4.68265 12.8201 5.15128 12.3515C5.61991 11.8828 6.3797 11.8828 6.84833 12.3515L11.9998 17.5029L17.1513 12.3515C17.6199 11.8828 18.3797 11.8828 18.8483 12.3515Z" fill="black" fill-opacity="0.2"/>
</svg>
