<svg width="24" height="24" viewBox="0 0 24 24" fill="none" xmlns="http://www.w3.org/2000/svg">
<path fill-rule="evenodd" clip-rule="evenodd" d="M12.3513 18.8485C11.8826 18.3799 11.8826 17.6201 12.3513 17.1515L17.5027 12L12.3513 6.84852C11.8826 6.37989 11.8826 5.62009 12.3513 5.15146C12.8199 4.68283 13.5797 4.68283 14.0483 5.15146L20.0483 11.1515C20.517 11.6201 20.517 12.3799 20.0483 12.8485L14.0483 18.8485C13.5797 19.3171 12.8199 19.3171 12.3513 18.8485Z" fill="#00142E"/>
<path fill-rule="evenodd" clip-rule="evenodd" d="M12.3513 18.8485C11.8826 18.3799 11.8826 17.6201 12.3513 17.1515L17.5027 12L12.3513 6.84852C11.8826 6.37989 11.8826 5.62009 12.3513 5.15146C12.8199 4.68283 13.5797 4.68283 14.0483 5.15146L20.0483 11.1515C20.517 11.6201 20.517 12.3799 20.0483 12.8485L14.0483 18.8485C13.5797 19.3171 12.8199 19.3171 12.3513 18.8485Z" fill="black" fill-opacity="0.2"/>
<path fill-rule="evenodd" clip-rule="evenodd" d="M5.15128 18.8485C4.68265 18.3799 4.68265 17.6201 5.15128 17.1515L10.3027 12L5.15128 6.84852C4.68265 6.37989 4.68265 5.62009 5.15128 5.15146C5.61991 4.68283 6.3797 4.68283 6.84833 5.15146L12.8483 11.1515C13.317 11.6201 13.317 12.3799 12.8483 12.8485L6.84833 18.8485C6.3797 19.3171 5.61991 19.3171 5.15128 18.8485Z" fill="#00142E"/>
<path fill-rule="evenodd" clip-rule="evenodd" d="M5.15128 18.8485C4.68265 18.3799 4.68265 17.6201 5.15128 17.1515L10.3027 12L5.15128 6.84852C4.68265 6.37989 4.68265 5.62009 5.15128 5.15146C5.61991 4.68283 6.3797 4.68283 6.84833 5.15146L12.8483 11.1515C13.317 11.6201 13.317 12.3799 12.8483 12.8485L6.84833 18.8485C6.3797 19.3171 5.61991 19.3171 5.15128 18.8485Z" fill="black" fill-opacity="0.2"/>
</svg>
