<svg width="24" height="24" viewBox="0 0 24 24" fill="none" xmlns="http://www.w3.org/2000/svg">
<path d="M15.6002 8.40001H8.40019V15.6H15.6002V8.40001Z" fill="#00142E"/>
<path d="M15.6002 8.40001H8.40019V15.6H15.6002V8.40001Z" fill="black" fill-opacity="0.2"/>
<path fill-rule="evenodd" clip-rule="evenodd" d="M8.40019 2.40001C8.40019 1.73727 8.93745 1.20001 9.60019 1.20001C10.2629 1.20001 10.8002 1.73727 10.8002 2.40001V3.60001H13.2002V2.40001C13.2002 1.73727 13.7375 1.20001 14.4002 1.20001C15.0629 1.20001 15.6002 1.73727 15.6002 2.40001V3.60001H18.0002C19.3257 3.60001 20.4002 4.67453 20.4002 6.00001V8.40001H21.6002C22.2629 8.40001 22.8002 8.93727 22.8002 9.60001C22.8002 10.2628 22.2629 10.8 21.6002 10.8H20.4002V13.2H21.6002C22.2629 13.2 22.8002 13.7373 22.8002 14.4C22.8002 15.0628 22.2629 15.6 21.6002 15.6H20.4002V18C20.4002 19.3255 19.3257 20.4 18.0002 20.4H15.6002V21.6C15.6002 22.2628 15.0629 22.8 14.4002 22.8C13.7375 22.8 13.2002 22.2628 13.2002 21.6V20.4H10.8002V21.6C10.8002 22.2628 10.2629 22.8 9.60019 22.8C8.93745 22.8 8.40019 22.2628 8.40019 21.6V20.4H6.00019C4.67471 20.4 3.60019 19.3255 3.60019 18V15.6H2.4002C1.73745 15.6 1.2002 15.0628 1.2002 14.4C1.2002 13.7373 1.73745 13.2 2.4002 13.2H3.60019V10.8H2.4002C1.73745 10.8 1.2002 10.2628 1.2002 9.60001C1.2002 8.93727 1.73745 8.40001 2.4002 8.40001H3.60019V6.00001C3.60019 4.67453 4.67471 3.60001 6.00019 3.60001H8.40019V2.40001ZM6.00019 6.00001H18.0002V18H6.00019V6.00001Z" fill="#00142E"/>
<path fill-rule="evenodd" clip-rule="evenodd" d="M8.40019 2.40001C8.40019 1.73727 8.93745 1.20001 9.60019 1.20001C10.2629 1.20001 10.8002 1.73727 10.8002 2.40001V3.60001H13.2002V2.40001C13.2002 1.73727 13.7375 1.20001 14.4002 1.20001C15.0629 1.20001 15.6002 1.73727 15.6002 2.40001V3.60001H18.0002C19.3257 3.60001 20.4002 4.67453 20.4002 6.00001V8.40001H21.6002C22.2629 8.40001 22.8002 8.93727 22.8002 9.60001C22.8002 10.2628 22.2629 10.8 21.6002 10.8H20.4002V13.2H21.6002C22.2629 13.2 22.8002 13.7373 22.8002 14.4C22.8002 15.0628 22.2629 15.6 21.6002 15.6H20.4002V18C20.4002 19.3255 19.3257 20.4 18.0002 20.4H15.6002V21.6C15.6002 22.2628 15.0629 22.8 14.4002 22.8C13.7375 22.8 13.2002 22.2628 13.2002 21.6V20.4H10.8002V21.6C10.8002 22.2628 10.2629 22.8 9.60019 22.8C8.93745 22.8 8.40019 22.2628 8.40019 21.6V20.4H6.00019C4.67471 20.4 3.60019 19.3255 3.60019 18V15.6H2.4002C1.73745 15.6 1.2002 15.0628 1.2002 14.4C1.2002 13.7373 1.73745 13.2 2.4002 13.2H3.60019V10.8H2.4002C1.73745 10.8 1.2002 10.2628 1.2002 9.60001C1.2002 8.93727 1.73745 8.40001 2.4002 8.40001H3.60019V6.00001C3.60019 4.67453 4.67471 3.60001 6.00019 3.60001H8.40019V2.40001ZM6.00019 6.00001H18.0002V18H6.00019V6.00001Z" fill="black" fill-opacity="0.2"/>
</svg>
