<svg width="24" height="24" viewBox="0 0 24 24" fill="none" xmlns="http://www.w3.org/2000/svg">
<path d="M9.5998 3.60002C9.5998 2.93728 10.1371 2.40002 10.7998 2.40002H13.1998C13.8625 2.40002 14.3998 2.93728 14.3998 3.60002C14.3998 4.26277 13.8625 4.80002 13.1998 4.80002H10.7998C10.1371 4.80002 9.5998 4.26277 9.5998 3.60002Z" fill="#00142E"/>
<path d="M9.5998 3.60002C9.5998 2.93728 10.1371 2.40002 10.7998 2.40002H13.1998C13.8625 2.40002 14.3998 2.93728 14.3998 3.60002C14.3998 4.26277 13.8625 4.80002 13.1998 4.80002H10.7998C10.1371 4.80002 9.5998 4.26277 9.5998 3.60002Z" fill="black" fill-opacity="0.2"/>
<path d="M7.1998 3.60002C5.87432 3.60002 4.7998 4.67454 4.7998 6.00002V19.2C4.7998 20.5255 5.87432 21.6 7.19981 21.6H16.7998C18.1253 21.6 19.1998 20.5255 19.1998 19.2V6.00002C19.1998 4.67454 18.1253 3.60002 16.7998 3.60002C16.7998 5.58825 15.188 7.20002 13.1998 7.20002H10.7998C8.81158 7.20002 7.1998 5.58825 7.1998 3.60002Z" fill="#00142E"/>
<path d="M7.1998 3.60002C5.87432 3.60002 4.7998 4.67454 4.7998 6.00002V19.2C4.7998 20.5255 5.87432 21.6 7.19981 21.6H16.7998C18.1253 21.6 19.1998 20.5255 19.1998 19.2V6.00002C19.1998 4.67454 18.1253 3.60002 16.7998 3.60002C16.7998 5.58825 15.188 7.20002 13.1998 7.20002H10.7998C8.81158 7.20002 7.1998 5.58825 7.1998 3.60002Z" fill="black" fill-opacity="0.2"/>
</svg>
