<svg width="24" height="24" viewBox="0 0 24 24" fill="none" xmlns="http://www.w3.org/2000/svg">
<path d="M10.7998 2.40002C10.1371 2.40002 9.5998 2.93728 9.5998 3.60002C9.5998 4.26277 10.1371 4.80002 10.7998 4.80002H13.1998C13.8625 4.80002 14.3998 4.26277 14.3998 3.60002C14.3998 2.93728 13.8625 2.40002 13.1998 2.40002H10.7998Z" fill="#00142E"/>
<path d="M10.7998 2.40002C10.1371 2.40002 9.5998 2.93728 9.5998 3.60002C9.5998 4.26277 10.1371 4.80002 10.7998 4.80002H13.1998C13.8625 4.80002 14.3998 4.26277 14.3998 3.60002C14.3998 2.93728 13.8625 2.40002 13.1998 2.40002H10.7998Z" fill="black" fill-opacity="0.2"/>
<path fill-rule="evenodd" clip-rule="evenodd" d="M4.7998 6.00002C4.7998 4.67454 5.87432 3.60002 7.1998 3.60002C7.1998 5.58825 8.81158 7.20002 10.7998 7.20002H13.1998C15.188 7.20002 16.7998 5.58825 16.7998 3.60002C18.1253 3.60002 19.1998 4.67454 19.1998 6.00002V19.2C19.1998 20.5255 18.1253 21.6 16.7998 21.6H7.19981C5.87432 21.6 4.7998 20.5255 4.7998 19.2V6.00002ZM8.3998 10.8C7.73706 10.8 7.1998 11.3373 7.1998 12C7.1998 12.6628 7.73706 13.2 8.3998 13.2H8.41181C9.07455 13.2 9.61181 12.6628 9.61181 12C9.61181 11.3373 9.07455 10.8 8.41181 10.8H8.3998ZM11.9998 10.8C11.3371 10.8 10.7998 11.3373 10.7998 12C10.7998 12.6628 11.3371 13.2 11.9998 13.2H15.5998C16.2625 13.2 16.7998 12.6628 16.7998 12C16.7998 11.3373 16.2625 10.8 15.5998 10.8H11.9998ZM8.3998 15.6C7.73706 15.6 7.1998 16.1373 7.1998 16.8C7.1998 17.4628 7.73706 18 8.3998 18H8.41181C9.07455 18 9.61181 17.4628 9.61181 16.8C9.61181 16.1373 9.07455 15.6 8.41181 15.6H8.3998ZM11.9998 15.6C11.3371 15.6 10.7998 16.1373 10.7998 16.8C10.7998 17.4628 11.3371 18 11.9998 18H15.5998C16.2625 18 16.7998 17.4628 16.7998 16.8C16.7998 16.1373 16.2625 15.6 15.5998 15.6H11.9998Z" fill="#00142E"/>
<path fill-rule="evenodd" clip-rule="evenodd" d="M4.7998 6.00002C4.7998 4.67454 5.87432 3.60002 7.1998 3.60002C7.1998 5.58825 8.81158 7.20002 10.7998 7.20002H13.1998C15.188 7.20002 16.7998 5.58825 16.7998 3.60002C18.1253 3.60002 19.1998 4.67454 19.1998 6.00002V19.2C19.1998 20.5255 18.1253 21.6 16.7998 21.6H7.19981C5.87432 21.6 4.7998 20.5255 4.7998 19.2V6.00002ZM8.3998 10.8C7.73706 10.8 7.1998 11.3373 7.1998 12C7.1998 12.6628 7.73706 13.2 8.3998 13.2H8.41181C9.07455 13.2 9.61181 12.6628 9.61181 12C9.61181 11.3373 9.07455 10.8 8.41181 10.8H8.3998ZM11.9998 10.8C11.3371 10.8 10.7998 11.3373 10.7998 12C10.7998 12.6628 11.3371 13.2 11.9998 13.2H15.5998C16.2625 13.2 16.7998 12.6628 16.7998 12C16.7998 11.3373 16.2625 10.8 15.5998 10.8H11.9998ZM8.3998 15.6C7.73706 15.6 7.1998 16.1373 7.1998 16.8C7.1998 17.4628 7.73706 18 8.3998 18H8.41181C9.07455 18 9.61181 17.4628 9.61181 16.8C9.61181 16.1373 9.07455 15.6 8.41181 15.6H8.3998ZM11.9998 15.6C11.3371 15.6 10.7998 16.1373 10.7998 16.8C10.7998 17.4628 11.3371 18 11.9998 18H15.5998C16.2625 18 16.7998 17.4628 16.7998 16.8C16.7998 16.1373 16.2625 15.6 15.5998 15.6H11.9998Z" fill="black" fill-opacity="0.2"/>
</svg>
