<svg width="24" height="24" viewBox="0 0 24 24" fill="none" xmlns="http://www.w3.org/2000/svg">
<path d="M10.7998 2.40002C10.1371 2.40002 9.5998 2.93728 9.5998 3.60002C9.5998 4.26277 10.1371 4.80002 10.7998 4.80002H13.1998C13.8625 4.80002 14.3998 4.26277 14.3998 3.60002C14.3998 2.93728 13.8625 2.40002 13.1998 2.40002H10.7998Z" fill="#00142E"/>
<path d="M10.7998 2.40002C10.1371 2.40002 9.5998 2.93728 9.5998 3.60002C9.5998 4.26277 10.1371 4.80002 10.7998 4.80002H13.1998C13.8625 4.80002 14.3998 4.26277 14.3998 3.60002C14.3998 2.93728 13.8625 2.40002 13.1998 2.40002H10.7998Z" fill="black" fill-opacity="0.2"/>
<path fill-rule="evenodd" clip-rule="evenodd" d="M4.7998 6.00002C4.7998 4.67454 5.87432 3.60002 7.1998 3.60002C7.1998 5.58825 8.81158 7.20002 10.7998 7.20002H13.1998C15.188 7.20002 16.7998 5.58825 16.7998 3.60002C18.1253 3.60002 19.1998 4.67454 19.1998 6.00002V19.2C19.1998 20.5255 18.1253 21.6 16.7998 21.6H7.19981C5.87432 21.6 4.7998 20.5255 4.7998 19.2V6.00002ZM16.4483 12.8486C16.917 12.3799 16.917 11.6201 16.4483 11.1515C15.9797 10.6829 15.2199 10.6829 14.7513 11.1515L10.7998 15.103L9.24833 13.5515C8.7797 13.0829 8.01991 13.0829 7.55128 13.5515C7.08265 14.0201 7.08265 14.7799 7.55128 15.2486L9.95128 17.6486C10.4199 18.1172 11.1797 18.1172 11.6483 17.6486L16.4483 12.8486Z" fill="#00142E"/>
<path fill-rule="evenodd" clip-rule="evenodd" d="M4.7998 6.00002C4.7998 4.67454 5.87432 3.60002 7.1998 3.60002C7.1998 5.58825 8.81158 7.20002 10.7998 7.20002H13.1998C15.188 7.20002 16.7998 5.58825 16.7998 3.60002C18.1253 3.60002 19.1998 4.67454 19.1998 6.00002V19.2C19.1998 20.5255 18.1253 21.6 16.7998 21.6H7.19981C5.87432 21.6 4.7998 20.5255 4.7998 19.2V6.00002ZM16.4483 12.8486C16.917 12.3799 16.917 11.6201 16.4483 11.1515C15.9797 10.6829 15.2199 10.6829 14.7513 11.1515L10.7998 15.103L9.24833 13.5515C8.7797 13.0829 8.01991 13.0829 7.55128 13.5515C7.08265 14.0201 7.08265 14.7799 7.55128 15.2486L9.95128 17.6486C10.4199 18.1172 11.1797 18.1172 11.6483 17.6486L16.4483 12.8486Z" fill="black" fill-opacity="0.2"/>
</svg>
