<svg width="24" height="24" viewBox="0 0 24 24" fill="none" xmlns="http://www.w3.org/2000/svg">
<path d="M12 2.40039C17.3019 2.40039 21.5996 6.69807 21.5996 12C21.5996 17.3019 17.3019 21.5996 12 21.5996C6.69807 21.5996 2.40039 17.3019 2.40039 12C2.40039 6.69807 6.69807 2.40039 12 2.40039ZM12 6.2002C11.4477 6.2002 11 6.64791 11 7.2002V12C11.0001 12.2651 11.1055 12.5196 11.293 12.707L14.6865 16.1016C15.077 16.492 15.7111 16.492 16.1016 16.1016C16.4918 15.7112 16.4916 15.078 16.1016 14.6875L13 11.5859V7.2002C13 6.64791 12.5523 6.2002 12 6.2002Z" fill="#00142E"/>
<path d="M12 2.40039C17.3019 2.40039 21.5996 6.69807 21.5996 12C21.5996 17.3019 17.3019 21.5996 12 21.5996C6.69807 21.5996 2.40039 17.3019 2.40039 12C2.40039 6.69807 6.69807 2.40039 12 2.40039ZM12 6.2002C11.4477 6.2002 11 6.64791 11 7.2002V12C11.0001 12.2651 11.1055 12.5196 11.293 12.707L14.6865 16.1016C15.077 16.492 15.7111 16.492 16.1016 16.1016C16.4918 15.7112 16.4916 15.078 16.1016 14.6875L13 11.5859V7.2002C13 6.64791 12.5523 6.2002 12 6.2002Z" fill="black" fill-opacity="0.2"/>
</svg>
