<svg width="24" height="24" viewBox="0 0 24 24" fill="none" xmlns="http://www.w3.org/2000/svg">
<path d="M6.60039 19.2C4.28079 19.2 2.40039 17.3196 2.40039 15C2.40039 12.8299 4.04615 11.0443 6.15761 10.8231C6.05502 10.4326 6.00039 10.0227 6.00039 9.59999C6.00039 6.94902 8.14942 4.79999 10.8004 4.79999C13.055 4.79999 14.9465 6.35444 15.4618 8.45008C15.7033 8.41705 15.9498 8.39999 16.2004 8.39999C19.1827 8.39999 21.6004 10.8177 21.6004 13.8C21.6004 16.7823 19.1827 19.2 16.2004 19.2H6.60039Z" fill="#00142E"/>
<path d="M6.60039 19.2C4.28079 19.2 2.40039 17.3196 2.40039 15C2.40039 12.8299 4.04615 11.0443 6.15761 10.8231C6.05502 10.4326 6.00039 10.0227 6.00039 9.59999C6.00039 6.94902 8.14942 4.79999 10.8004 4.79999C13.055 4.79999 14.9465 6.35444 15.4618 8.45008C15.7033 8.41705 15.9498 8.39999 16.2004 8.39999C19.1827 8.39999 21.6004 10.8177 21.6004 13.8C21.6004 16.7823 19.1827 19.2 16.2004 19.2H6.60039Z" fill="black" fill-opacity="0.2"/>
</svg>
