<svg width="24" height="24" viewBox="0 0 24 24" fill="none" xmlns="http://www.w3.org/2000/svg">
<path fill-rule="evenodd" clip-rule="evenodd" d="M2.40039 11.4C2.40039 13.7195 4.28079 15.6 6.60039 15.6H10.8004V18.7029L9.24892 17.1514C8.78029 16.6828 8.02049 16.6828 7.55186 17.1514C7.08323 17.6201 7.08323 18.3798 7.55186 18.8485L11.1519 22.4485C11.6205 22.9171 12.3803 22.9171 12.8489 22.4485L16.4489 18.8485C16.9175 18.3798 16.9175 17.6201 16.4489 17.1514C15.9803 16.6828 15.2205 16.6828 14.7519 17.1514L13.2004 18.7029V15.6H16.2004C19.1827 15.6 21.6004 13.1823 21.6004 10.2C21.6004 7.21761 19.1827 4.79995 16.2004 4.79995C15.9498 4.79995 15.7033 4.81702 15.4618 4.85005C14.9465 2.7544 13.055 1.19995 10.8004 1.19995C8.14942 1.19995 6.00039 3.34898 6.00039 5.99995C6.00039 6.42262 6.05502 6.83254 6.15761 7.22301C4.04615 7.44424 2.40039 9.2299 2.40039 11.4ZM13.2004 15.6H10.8004V9.59995C10.8004 8.93721 11.3376 8.39995 12.0004 8.39995C12.6631 8.39995 13.2004 8.93721 13.2004 9.59995V15.6Z" fill="#00142E"/>
<path fill-rule="evenodd" clip-rule="evenodd" d="M2.40039 11.4C2.40039 13.7195 4.28079 15.6 6.60039 15.6H10.8004V18.7029L9.24892 17.1514C8.78029 16.6828 8.02049 16.6828 7.55186 17.1514C7.08323 17.6201 7.08323 18.3798 7.55186 18.8485L11.1519 22.4485C11.6205 22.9171 12.3803 22.9171 12.8489 22.4485L16.4489 18.8485C16.9175 18.3798 16.9175 17.6201 16.4489 17.1514C15.9803 16.6828 15.2205 16.6828 14.7519 17.1514L13.2004 18.7029V15.6H16.2004C19.1827 15.6 21.6004 13.1823 21.6004 10.2C21.6004 7.21761 19.1827 4.79995 16.2004 4.79995C15.9498 4.79995 15.7033 4.81702 15.4618 4.85005C14.9465 2.7544 13.055 1.19995 10.8004 1.19995C8.14942 1.19995 6.00039 3.34898 6.00039 5.99995C6.00039 6.42262 6.05502 6.83254 6.15761 7.22301C4.04615 7.44424 2.40039 9.2299 2.40039 11.4ZM13.2004 15.6H10.8004V9.59995C10.8004 8.93721 11.3376 8.39995 12.0004 8.39995C12.6631 8.39995 13.2004 8.93721 13.2004 9.59995V15.6Z" fill="black" fill-opacity="0.2"/>
</svg>
