<svg width="24" height="24" viewBox="0 0 24 24" fill="none" xmlns="http://www.w3.org/2000/svg">
<path d="M6.60039 15.6C4.28079 15.6 2.40039 13.7195 2.40039 11.4C2.40039 9.2299 4.04615 7.44424 6.15761 7.22301C6.05502 6.83254 6.00039 6.42262 6.00039 5.99995C6.00039 3.34898 8.14942 1.19995 10.8004 1.19995C13.055 1.19995 14.9465 2.7544 15.4618 4.85005C15.7033 4.81702 15.9498 4.79995 16.2004 4.79995C19.1827 4.79995 21.6004 7.21761 21.6004 10.2C21.6004 13.1823 19.1827 15.6 16.2004 15.6H13.2004V11.297L14.7519 12.8485C15.2205 13.3171 15.9803 13.3171 16.4489 12.8485C16.9175 12.3798 16.9175 11.6201 16.4489 11.1514L12.8489 7.55142C12.3803 7.08279 11.6205 7.08279 11.1519 7.55142L7.55186 11.1514C7.08323 11.6201 7.08323 12.3798 7.55186 12.8485C8.02049 13.3171 8.78029 13.3171 9.24892 12.8485L10.8004 11.297L10.8004 15.6H6.60039Z" fill="#00142E"/>
<path d="M6.60039 15.6C4.28079 15.6 2.40039 13.7195 2.40039 11.4C2.40039 9.2299 4.04615 7.44424 6.15761 7.22301C6.05502 6.83254 6.00039 6.42262 6.00039 5.99995C6.00039 3.34898 8.14942 1.19995 10.8004 1.19995C13.055 1.19995 14.9465 2.7544 15.4618 4.85005C15.7033 4.81702 15.9498 4.79995 16.2004 4.79995C19.1827 4.79995 21.6004 7.21761 21.6004 10.2C21.6004 13.1823 19.1827 15.6 16.2004 15.6H13.2004V11.297L14.7519 12.8485C15.2205 13.3171 15.9803 13.3171 16.4489 12.8485C16.9175 12.3798 16.9175 11.6201 16.4489 11.1514L12.8489 7.55142C12.3803 7.08279 11.6205 7.08279 11.1519 7.55142L7.55186 11.1514C7.08323 11.6201 7.08323 12.3798 7.55186 12.8485C8.02049 13.3171 8.78029 13.3171 9.24892 12.8485L10.8004 11.297L10.8004 15.6H6.60039Z" fill="black" fill-opacity="0.2"/>
<path d="M10.8004 15.6H13.2004L13.2004 21.6C13.2004 22.2627 12.6631 22.7999 12.0004 22.7999C11.3376 22.7999 10.8004 22.2627 10.8004 21.6V15.6Z" fill="#00142E"/>
<path d="M10.8004 15.6H13.2004L13.2004 21.6C13.2004 22.2627 12.6631 22.7999 12.0004 22.7999C11.3376 22.7999 10.8004 22.2627 10.8004 21.6V15.6Z" fill="black" fill-opacity="0.2"/>
</svg>
