<svg width="24" height="24" viewBox="0 0 24 24" fill="none" xmlns="http://www.w3.org/2000/svg">
<path fill-rule="evenodd" clip-rule="evenodd" d="M14.7797 3.66164C15.4084 3.87121 15.7482 4.5508 15.5386 5.17953L10.7386 19.5795C10.529 20.2083 9.84945 20.5481 9.22072 20.3385C8.59199 20.1289 8.2522 19.4493 8.46177 18.8206L13.2618 4.42058C13.4714 3.79185 14.1509 3.45206 14.7797 3.66164ZM6.84872 7.55153C7.31735 8.02016 7.31735 8.77996 6.84872 9.24859L4.09725 12.0001L6.84872 14.7515C7.31735 15.2202 7.31735 15.98 6.84872 16.4486C6.38009 16.9172 5.6203 16.9172 5.15167 16.4486L1.55167 12.8486C1.08304 12.38 1.08304 11.6202 1.55167 11.1515L5.15167 7.55153C5.6203 7.0829 6.38009 7.0829 6.84872 7.55153ZM17.1517 7.55153C17.6203 7.0829 18.3801 7.0829 18.8487 7.55153L22.4487 11.1515C22.9174 11.6202 22.9174 12.38 22.4487 12.8486L18.8487 16.4486C18.3801 16.9172 17.6203 16.9172 17.1517 16.4486C16.683 15.98 16.683 15.2202 17.1517 14.7515L19.9031 12.0001L17.1517 9.24859C16.683 8.77996 16.683 8.02016 17.1517 7.55153Z" fill="#00142E"/>
<path fill-rule="evenodd" clip-rule="evenodd" d="M14.7797 3.66164C15.4084 3.87121 15.7482 4.5508 15.5386 5.17953L10.7386 19.5795C10.529 20.2083 9.84945 20.5481 9.22072 20.3385C8.59199 20.1289 8.2522 19.4493 8.46177 18.8206L13.2618 4.42058C13.4714 3.79185 14.1509 3.45206 14.7797 3.66164ZM6.84872 7.55153C7.31735 8.02016 7.31735 8.77996 6.84872 9.24859L4.09725 12.0001L6.84872 14.7515C7.31735 15.2202 7.31735 15.98 6.84872 16.4486C6.38009 16.9172 5.6203 16.9172 5.15167 16.4486L1.55167 12.8486C1.08304 12.38 1.08304 11.6202 1.55167 11.1515L5.15167 7.55153C5.6203 7.0829 6.38009 7.0829 6.84872 7.55153ZM17.1517 7.55153C17.6203 7.0829 18.3801 7.0829 18.8487 7.55153L22.4487 11.1515C22.9174 11.6202 22.9174 12.38 22.4487 12.8486L18.8487 16.4486C18.3801 16.9172 17.6203 16.9172 17.1517 16.4486C16.683 15.98 16.683 15.2202 17.1517 14.7515L19.9031 12.0001L17.1517 9.24859C16.683 8.77996 16.683 8.02016 17.1517 7.55153Z" fill="black" fill-opacity="0.2"/>
</svg>
