<svg width="24" height="24" viewBox="0 0 24 24" fill="none" xmlns="http://www.w3.org/2000/svg">
<path d="M8.40039 3.59998C7.73765 3.59998 7.20039 4.13723 7.20039 4.79998C7.20039 5.46272 7.73765 5.99998 8.40039 5.99998H15.6004C16.2631 5.99998 16.8004 5.46272 16.8004 4.79998C16.8004 4.13723 16.2631 3.59998 15.6004 3.59998H8.40039Z" fill="#00142E"/>
<path d="M8.40039 3.59998C7.73765 3.59998 7.20039 4.13723 7.20039 4.79998C7.20039 5.46272 7.73765 5.99998 8.40039 5.99998H15.6004C16.2631 5.99998 16.8004 5.46272 16.8004 4.79998C16.8004 4.13723 16.2631 3.59998 15.6004 3.59998H8.40039Z" fill="black" fill-opacity="0.2"/>
<path d="M4.80039 8.39998C4.80039 7.73723 5.33765 7.19998 6.00039 7.19998H18.0004C18.6631 7.19998 19.2004 7.73723 19.2004 8.39998C19.2004 9.06272 18.6631 9.59998 18.0004 9.59998H6.00039C5.33765 9.59998 4.80039 9.06272 4.80039 8.39998Z" fill="#00142E"/>
<path d="M4.80039 8.39998C4.80039 7.73723 5.33765 7.19998 6.00039 7.19998H18.0004C18.6631 7.19998 19.2004 7.73723 19.2004 8.39998C19.2004 9.06272 18.6631 9.59998 18.0004 9.59998H6.00039C5.33765 9.59998 4.80039 9.06272 4.80039 8.39998Z" fill="black" fill-opacity="0.2"/>
<path d="M2.40039 13.2C2.40039 11.8745 3.47491 10.8 4.80039 10.8H19.2004C20.5259 10.8 21.6004 11.8745 21.6004 13.2V18C21.6004 19.3255 20.5259 20.4 19.2004 20.4H4.80039C3.47491 20.4 2.40039 19.3255 2.40039 18V13.2Z" fill="#00142E"/>
<path d="M2.40039 13.2C2.40039 11.8745 3.47491 10.8 4.80039 10.8H19.2004C20.5259 10.8 21.6004 11.8745 21.6004 13.2V18C21.6004 19.3255 20.5259 20.4 19.2004 20.4H4.80039C3.47491 20.4 2.40039 19.3255 2.40039 18V13.2Z" fill="black" fill-opacity="0.2"/>
</svg>
