<svg width="24" height="24" viewBox="0 0 24 24" fill="none" xmlns="http://www.w3.org/2000/svg">
<path fill-rule="evenodd" clip-rule="evenodd" d="M4.80039 2.40002C3.47491 2.40002 2.40039 3.47454 2.40039 4.80002V18C2.40039 19.9883 4.01217 21.6 6.00039 21.6C7.98862 21.6 9.60039 19.9883 9.60039 18V4.80002C9.60039 3.47454 8.52587 2.40002 7.20039 2.40002H4.80039ZM6.00039 19.2C6.66313 19.2 7.20039 18.6628 7.20039 18C7.20039 17.3373 6.66313 16.8 6.00039 16.8C5.33765 16.8 4.80039 17.3373 4.80039 18C4.80039 18.6628 5.33765 19.2 6.00039 19.2Z" fill="#00142E"/>
<path fill-rule="evenodd" clip-rule="evenodd" d="M4.80039 2.40002C3.47491 2.40002 2.40039 3.47454 2.40039 4.80002V18C2.40039 19.9883 4.01217 21.6 6.00039 21.6C7.98862 21.6 9.60039 19.9883 9.60039 18V4.80002C9.60039 3.47454 8.52587 2.40002 7.20039 2.40002H4.80039ZM6.00039 19.2C6.66313 19.2 7.20039 18.6628 7.20039 18C7.20039 17.3373 6.66313 16.8 6.00039 16.8C5.33765 16.8 4.80039 17.3373 4.80039 18C4.80039 18.6628 5.33765 19.2 6.00039 19.2Z" fill="black" fill-opacity="0.2"/>
<path d="M12.0004 17.0911L17.8798 11.2117C18.817 10.2745 18.817 8.75486 17.8798 7.8176L16.1827 6.12055C15.2455 5.18329 13.7259 5.18329 12.7886 6.12055L12.0004 6.90876V17.0911Z" fill="#00142E"/>
<path d="M12.0004 17.0911L17.8798 11.2117C18.817 10.2745 18.817 8.75486 17.8798 7.8176L16.1827 6.12055C15.2455 5.18329 13.7259 5.18329 12.7886 6.12055L12.0004 6.90876V17.0911Z" fill="black" fill-opacity="0.2"/>
<path d="M19.2004 21.6H10.8856L18.0856 14.4H19.2004C20.5259 14.4 21.6004 15.4745 21.6004 16.8V19.2C21.6004 20.5255 20.5259 21.6 19.2004 21.6Z" fill="#00142E"/>
<path d="M19.2004 21.6H10.8856L18.0856 14.4H19.2004C20.5259 14.4 21.6004 15.4745 21.6004 16.8V19.2C21.6004 20.5255 20.5259 21.6 19.2004 21.6Z" fill="black" fill-opacity="0.2"/>
</svg>
