<svg width="24" height="24" viewBox="0 0 24 24" fill="none" xmlns="http://www.w3.org/2000/svg">
<path d="M11.405 1.35812C11.7739 1.14731 12.2268 1.14731 12.5958 1.35812L14.6958 2.55812C15.2712 2.88693 15.4711 3.61996 15.1423 4.19538C14.8135 4.7708 14.0804 4.97072 13.505 4.6419L12.0004 3.78211L10.4958 4.6419C9.92034 4.97072 9.18731 4.7708 8.8585 4.19538C8.52969 3.61996 8.7296 2.88693 9.30502 2.55812L11.405 1.35812Z" fill="#00142E"/>
<path d="M11.405 1.35812C11.7739 1.14731 12.2268 1.14731 12.5958 1.35812L14.6958 2.55812C15.2712 2.88693 15.4711 3.61996 15.1423 4.19538C14.8135 4.7708 14.0804 4.97072 13.505 4.6419L12.0004 3.78211L10.4958 4.6419C9.92034 4.97072 9.18731 4.7708 8.8585 4.19538C8.52969 3.61996 8.7296 2.88693 9.30502 2.55812L11.405 1.35812Z" fill="black" fill-opacity="0.2"/>
<path d="M6.74228 5.40464C7.07109 5.98007 6.87118 6.71309 6.29576 7.0419L6.01907 7.20001L6.29576 7.35812C6.87118 7.68693 7.07109 8.41996 6.74228 8.99538C6.41347 9.5708 5.68044 9.77071 5.10502 9.4419L4.80039 9.26783V9.60001C4.80039 10.2628 4.26313 10.8 3.60039 10.8C2.93765 10.8 2.40039 10.2628 2.40039 9.60001V7.20001C2.40039 6.90003 2.51047 6.62576 2.69243 6.41538C2.73401 6.36725 2.77956 6.32226 2.82878 6.28095C2.88944 6.22996 2.95522 6.18488 3.02525 6.14656L5.10502 4.95812C5.68044 4.62931 6.41347 4.82922 6.74228 5.40464Z" fill="#00142E"/>
<path d="M6.74228 5.40464C7.07109 5.98007 6.87118 6.71309 6.29576 7.0419L6.01907 7.20001L6.29576 7.35812C6.87118 7.68693 7.07109 8.41996 6.74228 8.99538C6.41347 9.5708 5.68044 9.77071 5.10502 9.4419L4.80039 9.26783V9.60001C4.80039 10.2628 4.26313 10.8 3.60039 10.8C2.93765 10.8 2.40039 10.2628 2.40039 9.60001V7.20001C2.40039 6.90003 2.51047 6.62576 2.69243 6.41538C2.73401 6.36725 2.77956 6.32226 2.82878 6.28095C2.88944 6.22996 2.95522 6.18488 3.02525 6.14656L5.10502 4.95812C5.68044 4.62931 6.41347 4.82922 6.74228 5.40464Z" fill="black" fill-opacity="0.2"/>
<path d="M17.2585 5.40464C17.5873 4.82922 18.3203 4.62931 18.8958 4.95812L20.9755 6.14656C21.0455 6.18487 21.1113 6.22996 21.172 6.28095C21.4339 6.50108 21.6004 6.8311 21.6004 7.20001V9.60001C21.6004 10.2628 21.0631 10.8 20.4004 10.8C19.7376 10.8 19.2004 10.2628 19.2004 9.60001V9.26783L18.8958 9.4419C18.3203 9.77071 17.5873 9.5708 17.2585 8.99538C16.9297 8.41996 17.1296 7.68693 17.705 7.35812L17.9817 7.20001L17.705 7.0419C17.1296 6.71309 16.9297 5.98007 17.2585 5.40464Z" fill="#00142E"/>
<path d="M17.2585 5.40464C17.5873 4.82922 18.3203 4.62931 18.8958 4.95812L20.9755 6.14656C21.0455 6.18487 21.1113 6.22996 21.172 6.28095C21.4339 6.50108 21.6004 6.8311 21.6004 7.20001V9.60001C21.6004 10.2628 21.0631 10.8 20.4004 10.8C19.7376 10.8 19.2004 10.2628 19.2004 9.60001V9.26783L18.8958 9.4419C18.3203 9.77071 17.5873 9.5708 17.2585 8.99538C16.9297 8.41996 17.1296 7.68693 17.705 7.35812L17.9817 7.20001L17.705 7.0419C17.1296 6.71309 16.9297 5.98007 17.2585 5.40464Z" fill="black" fill-opacity="0.2"/>
<path d="M8.8585 10.2046C9.18731 9.62922 9.92034 9.42931 10.4958 9.75812L12.0004 10.6179L13.505 9.75812C14.0804 9.42931 14.8135 9.62922 15.1423 10.2046C15.4711 10.7801 15.2712 11.5131 14.6958 11.8419L13.2004 12.6964V14.4C13.2004 15.0628 12.6631 15.6 12.0004 15.6C11.3376 15.6 10.8004 15.0628 10.8004 14.4V12.6964L9.30502 11.8419C8.7296 11.5131 8.52969 10.7801 8.8585 10.2046Z" fill="#00142E"/>
<path d="M8.8585 10.2046C9.18731 9.62922 9.92034 9.42931 10.4958 9.75812L12.0004 10.6179L13.505 9.75812C14.0804 9.42931 14.8135 9.62922 15.1423 10.2046C15.4711 10.7801 15.2712 11.5131 14.6958 11.8419L13.2004 12.6964V14.4C13.2004 15.0628 12.6631 15.6 12.0004 15.6C11.3376 15.6 10.8004 15.0628 10.8004 14.4V12.6964L9.30502 11.8419C8.7296 11.5131 8.52969 10.7801 8.8585 10.2046Z" fill="black" fill-opacity="0.2"/>
<path d="M3.60039 13.2C4.26313 13.2 4.80039 13.7373 4.80039 14.4V16.1036L6.29576 16.9581C6.87118 17.2869 7.07109 18.02 6.74228 18.5954C6.41347 19.1708 5.68044 19.3707 5.10502 19.0419L3.00502 17.8419C2.63113 17.6283 2.40039 17.2306 2.40039 16.8V14.4C2.40039 13.7373 2.93765 13.2 3.60039 13.2Z" fill="#00142E"/>
<path d="M3.60039 13.2C4.26313 13.2 4.80039 13.7373 4.80039 14.4V16.1036L6.29576 16.9581C6.87118 17.2869 7.07109 18.02 6.74228 18.5954C6.41347 19.1708 5.68044 19.3707 5.10502 19.0419L3.00502 17.8419C2.63113 17.6283 2.40039 17.2306 2.40039 16.8V14.4C2.40039 13.7373 2.93765 13.2 3.60039 13.2Z" fill="black" fill-opacity="0.2"/>
<path d="M20.4004 13.2C21.0631 13.2 21.6004 13.7373 21.6004 14.4V16.8C21.6004 17.2306 21.3696 17.6283 20.9958 17.8419L18.8958 19.0419C18.3203 19.3707 17.5873 19.1708 17.2585 18.5954C16.9297 18.02 17.1296 17.2869 17.705 16.9581L19.2004 16.1036V14.4C19.2004 13.7373 19.7376 13.2 20.4004 13.2Z" fill="#00142E"/>
<path d="M20.4004 13.2C21.0631 13.2 21.6004 13.7373 21.6004 14.4V16.8C21.6004 17.2306 21.3696 17.6283 20.9958 17.8419L18.8958 19.0419C18.3203 19.3707 17.5873 19.1708 17.2585 18.5954C16.9297 18.02 17.1296 17.2869 17.705 16.9581L19.2004 16.1036V14.4C19.2004 13.7373 19.7376 13.2 20.4004 13.2Z" fill="black" fill-opacity="0.2"/>
<path d="M8.8585 19.8046C9.18731 19.2292 9.92034 19.0293 10.4958 19.3581L10.8004 19.5322V19.2C10.8004 18.5373 11.3376 18 12.0004 18C12.6631 18 13.2004 18.5373 13.2004 19.2V19.5322L13.505 19.3581C14.0804 19.0293 14.8135 19.2292 15.1423 19.8046C15.4711 20.3801 15.2712 21.1131 14.6958 21.4419L12.614 22.6315C12.4344 22.7385 12.2246 22.8 12.0004 22.8C11.7762 22.8 11.5663 22.7385 11.3868 22.6315L9.30502 21.4419C8.7296 21.1131 8.52969 20.3801 8.8585 19.8046Z" fill="#00142E"/>
<path d="M8.8585 19.8046C9.18731 19.2292 9.92034 19.0293 10.4958 19.3581L10.8004 19.5322V19.2C10.8004 18.5373 11.3376 18 12.0004 18C12.6631 18 13.2004 18.5373 13.2004 19.2V19.5322L13.505 19.3581C14.0804 19.0293 14.8135 19.2292 15.1423 19.8046C15.4711 20.3801 15.2712 21.1131 14.6958 21.4419L12.614 22.6315C12.4344 22.7385 12.2246 22.8 12.0004 22.8C11.7762 22.8 11.5663 22.7385 11.3868 22.6315L9.30502 21.4419C8.7296 21.1131 8.52969 20.3801 8.8585 19.8046Z" fill="black" fill-opacity="0.2"/>
</svg>
