<svg width="24" height="24" viewBox="0 0 24 24" fill="none" xmlns="http://www.w3.org/2000/svg">
<path fill-rule="evenodd" clip-rule="evenodd" d="M12.0004 21.6C17.3023 21.6 21.6004 17.302 21.6004 12C21.6004 6.69809 17.3023 2.40002 12.0004 2.40002C6.69846 2.40002 2.40039 6.69809 2.40039 12C2.40039 17.302 6.69846 21.6 12.0004 21.6ZM8.40039 4.80002C7.73765 4.80002 7.20039 5.33728 7.20039 6.00002C7.20039 6.66277 7.73765 7.20002 8.40039 7.20002C9.06313 7.20002 9.60039 7.73728 9.60039 8.40002V9.60002H8.40039C7.73765 9.60002 7.20039 10.1373 7.20039 10.8C7.20039 11.4628 7.73765 12 8.40039 12H9.60039V15.6C9.60039 17.5883 11.2122 19.2 13.2004 19.2C15.1886 19.2 16.8004 17.5883 16.8004 15.6V14.4C16.8004 13.7373 16.2631 13.2 15.6004 13.2C14.9376 13.2 14.4004 13.7373 14.4004 14.4V15.6C14.4004 16.2628 13.8631 16.8 13.2004 16.8C12.5377 16.8 12.0004 16.2628 12.0004 15.6V12H15.6004C16.2631 12 16.8004 11.4628 16.8004 10.8C16.8004 10.1373 16.2631 9.60002 15.6004 9.60002H12.0004V8.40002C12.0004 6.4118 10.3886 4.80002 8.40039 4.80002Z" fill="#00142E"/>
<path fill-rule="evenodd" clip-rule="evenodd" d="M12.0004 21.6C17.3023 21.6 21.6004 17.302 21.6004 12C21.6004 6.69809 17.3023 2.40002 12.0004 2.40002C6.69846 2.40002 2.40039 6.69809 2.40039 12C2.40039 17.302 6.69846 21.6 12.0004 21.6ZM8.40039 4.80002C7.73765 4.80002 7.20039 5.33728 7.20039 6.00002C7.20039 6.66277 7.73765 7.20002 8.40039 7.20002C9.06313 7.20002 9.60039 7.73728 9.60039 8.40002V9.60002H8.40039C7.73765 9.60002 7.20039 10.1373 7.20039 10.8C7.20039 11.4628 7.73765 12 8.40039 12H9.60039V15.6C9.60039 17.5883 11.2122 19.2 13.2004 19.2C15.1886 19.2 16.8004 17.5883 16.8004 15.6V14.4C16.8004 13.7373 16.2631 13.2 15.6004 13.2C14.9376 13.2 14.4004 13.7373 14.4004 14.4V15.6C14.4004 16.2628 13.8631 16.8 13.2004 16.8C12.5377 16.8 12.0004 16.2628 12.0004 15.6V12H15.6004C16.2631 12 16.8004 11.4628 16.8004 10.8C16.8004 10.1373 16.2631 9.60002 15.6004 9.60002H12.0004V8.40002C12.0004 6.4118 10.3886 4.80002 8.40039 4.80002Z" fill="black" fill-opacity="0.2"/>
</svg>
