<svg width="24" height="24" viewBox="0 0 24 24" fill="none" xmlns="http://www.w3.org/2000/svg">
<path d="M10.1204 8.90143C10.3062 8.77759 10.5357 8.6669 10.8004 8.58123L10.8004 10.6188C10.5357 10.5331 10.3062 10.4225 10.1204 10.2986C9.68352 10.0073 9.60039 9.73671 9.60039 9.60002C9.60039 9.46334 9.68352 9.19272 10.1204 8.90143Z" fill="#00142E"/>
<path d="M10.1204 8.90143C10.3062 8.77759 10.5357 8.6669 10.8004 8.58123L10.8004 10.6188C10.5357 10.5331 10.3062 10.4225 10.1204 10.2986C9.68352 10.0073 9.60039 9.73671 9.60039 9.60002C9.60039 9.46334 9.68352 9.19272 10.1204 8.90143Z" fill="black" fill-opacity="0.2"/>
<path d="M13.2004 15.4188L13.2004 13.3812C13.4651 13.4669 13.6946 13.5776 13.8804 13.7014C14.3173 13.9927 14.4004 14.2634 14.4004 14.4C14.4004 14.5367 14.3173 14.8073 13.8804 15.0986C13.6946 15.2225 13.4651 15.3331 13.2004 15.4188Z" fill="#00142E"/>
<path d="M13.2004 15.4188L13.2004 13.3812C13.4651 13.4669 13.6946 13.5776 13.8804 13.7014C14.3173 13.9927 14.4004 14.2634 14.4004 14.4C14.4004 14.5367 14.3173 14.8073 13.8804 15.0986C13.6946 15.2225 13.4651 15.3331 13.2004 15.4188Z" fill="black" fill-opacity="0.2"/>
<path fill-rule="evenodd" clip-rule="evenodd" d="M12.0004 21.6C17.3023 21.6 21.6004 17.302 21.6004 12C21.6004 6.69809 17.3023 2.40002 12.0004 2.40002C6.69846 2.40002 2.40039 6.69809 2.40039 12C2.40039 17.302 6.69846 21.6 12.0004 21.6ZM13.2004 6.00002C13.2004 5.33728 12.6631 4.80002 12.0004 4.80002C11.3376 4.80002 10.8004 5.33728 10.8004 6.00002V6.11042C10.0545 6.2505 9.36456 6.52091 8.78917 6.90451C7.92315 7.48185 7.20039 8.41122 7.20039 9.60002C7.20039 10.7888 7.92315 11.7182 8.78917 12.2955C9.36457 12.6791 10.0545 12.9496 10.8004 13.0896L10.8004 15.4191C10.3312 15.2668 9.9834 15.0383 9.78839 14.8136C9.35405 14.313 8.59615 14.2593 8.09558 14.6937C7.59501 15.128 7.54132 15.8859 7.97567 16.3865C8.65066 17.1644 9.67186 17.677 10.8004 17.8892L10.8004 18C10.8004 18.6627 11.3376 19.2 12.0004 19.2C12.6631 19.2 13.2004 18.6628 13.2004 18.0001L13.2004 17.8896C13.9463 17.7496 14.6362 17.4791 15.2116 17.0955C16.0777 16.5182 16.8004 15.5888 16.8004 14.4C16.8004 13.2112 16.0776 12.2818 15.2116 11.7045C14.6362 11.3209 13.9463 11.0505 13.2004 10.9104L13.2004 8.58092C13.6696 8.73327 14.0174 8.96174 14.2124 9.18648C14.6468 9.68705 15.4047 9.74073 15.9052 9.30639C16.4058 8.87204 16.4595 8.11414 16.0251 7.61357C15.3501 6.83566 14.3289 6.32301 13.2004 6.11085V6.00002Z" fill="#00142E"/>
<path fill-rule="evenodd" clip-rule="evenodd" d="M12.0004 21.6C17.3023 21.6 21.6004 17.302 21.6004 12C21.6004 6.69809 17.3023 2.40002 12.0004 2.40002C6.69846 2.40002 2.40039 6.69809 2.40039 12C2.40039 17.302 6.69846 21.6 12.0004 21.6ZM13.2004 6.00002C13.2004 5.33728 12.6631 4.80002 12.0004 4.80002C11.3376 4.80002 10.8004 5.33728 10.8004 6.00002V6.11042C10.0545 6.2505 9.36456 6.52091 8.78917 6.90451C7.92315 7.48185 7.20039 8.41122 7.20039 9.60002C7.20039 10.7888 7.92315 11.7182 8.78917 12.2955C9.36457 12.6791 10.0545 12.9496 10.8004 13.0896L10.8004 15.4191C10.3312 15.2668 9.9834 15.0383 9.78839 14.8136C9.35405 14.313 8.59615 14.2593 8.09558 14.6937C7.59501 15.128 7.54132 15.8859 7.97567 16.3865C8.65066 17.1644 9.67186 17.677 10.8004 17.8892L10.8004 18C10.8004 18.6627 11.3376 19.2 12.0004 19.2C12.6631 19.2 13.2004 18.6628 13.2004 18.0001L13.2004 17.8896C13.9463 17.7496 14.6362 17.4791 15.2116 17.0955C16.0777 16.5182 16.8004 15.5888 16.8004 14.4C16.8004 13.2112 16.0776 12.2818 15.2116 11.7045C14.6362 11.3209 13.9463 11.0505 13.2004 10.9104L13.2004 8.58092C13.6696 8.73327 14.0174 8.96174 14.2124 9.18648C14.6468 9.68705 15.4047 9.74073 15.9052 9.30639C16.4058 8.87204 16.4595 8.11414 16.0251 7.61357C15.3501 6.83566 14.3289 6.32301 13.2004 6.11085V6.00002Z" fill="black" fill-opacity="0.2"/>
</svg>
