<svg width="24" height="24" viewBox="0 0 24 24" fill="none" xmlns="http://www.w3.org/2000/svg">
<path fill-rule="evenodd" clip-rule="evenodd" d="M12.0004 21.6C17.3023 21.6 21.6004 17.302 21.6004 12C21.6004 6.69809 17.3023 2.40002 12.0004 2.40002C6.69846 2.40002 2.40039 6.69809 2.40039 12C2.40039 17.302 6.69846 21.6 12.0004 21.6ZM13.2004 4.80002C11.2122 4.80002 9.60039 6.4118 9.60039 8.40002V10.8H8.40039C7.73765 10.8 7.20039 11.3373 7.20039 12C7.20039 12.6628 7.73765 13.2 8.40039 13.2H9.60039V14.4C9.60039 15.0628 9.06313 15.6 8.40039 15.6C7.73765 15.6 7.20039 16.1373 7.20039 16.8C7.20039 17.4628 7.73765 18 8.40039 18H15.6004C16.2631 18 16.8004 17.4628 16.8004 16.8C16.8004 16.1373 16.2631 15.6 15.6004 15.6H11.7955C11.9282 15.2247 12.0004 14.8208 12.0004 14.4V13.2H13.2004C13.8631 13.2 14.4004 12.6628 14.4004 12C14.4004 11.3373 13.8631 10.8 13.2004 10.8H12.0004V8.40002C12.0004 7.73728 12.5377 7.20002 13.2004 7.20002C13.8631 7.20002 14.4004 7.73728 14.4004 8.40002C14.4004 9.06277 14.9376 9.60002 15.6004 9.60002C16.2631 9.60002 16.8004 9.06277 16.8004 8.40002C16.8004 6.4118 15.1886 4.80002 13.2004 4.80002Z" fill="#00142E"/>
<path fill-rule="evenodd" clip-rule="evenodd" d="M12.0004 21.6C17.3023 21.6 21.6004 17.302 21.6004 12C21.6004 6.69809 17.3023 2.40002 12.0004 2.40002C6.69846 2.40002 2.40039 6.69809 2.40039 12C2.40039 17.302 6.69846 21.6 12.0004 21.6ZM13.2004 4.80002C11.2122 4.80002 9.60039 6.4118 9.60039 8.40002V10.8H8.40039C7.73765 10.8 7.20039 11.3373 7.20039 12C7.20039 12.6628 7.73765 13.2 8.40039 13.2H9.60039V14.4C9.60039 15.0628 9.06313 15.6 8.40039 15.6C7.73765 15.6 7.20039 16.1373 7.20039 16.8C7.20039 17.4628 7.73765 18 8.40039 18H15.6004C16.2631 18 16.8004 17.4628 16.8004 16.8C16.8004 16.1373 16.2631 15.6 15.6004 15.6H11.7955C11.9282 15.2247 12.0004 14.8208 12.0004 14.4V13.2H13.2004C13.8631 13.2 14.4004 12.6628 14.4004 12C14.4004 11.3373 13.8631 10.8 13.2004 10.8H12.0004V8.40002C12.0004 7.73728 12.5377 7.20002 13.2004 7.20002C13.8631 7.20002 14.4004 7.73728 14.4004 8.40002C14.4004 9.06277 14.9376 9.60002 15.6004 9.60002C16.2631 9.60002 16.8004 9.06277 16.8004 8.40002C16.8004 6.4118 15.1886 4.80002 13.2004 4.80002Z" fill="black" fill-opacity="0.2"/>
</svg>
