<svg width="24" height="24" viewBox="0 0 24 24" fill="none" xmlns="http://www.w3.org/2000/svg">
<path fill-rule="evenodd" clip-rule="evenodd" d="M12.0004 21.6C17.3023 21.6 21.6004 17.302 21.6004 12C21.6004 6.69809 17.3023 2.40002 12.0004 2.40002C6.69846 2.40002 2.40039 6.69809 2.40039 12C2.40039 17.302 6.69846 21.6 12.0004 21.6ZM10.4838 8.37478C11.0499 7.43127 11.6358 7.20002 12.0004 7.20002C12.365 7.20002 12.9509 7.43127 13.517 8.37478C13.858 8.94308 14.5951 9.12735 15.1634 8.78638C15.7317 8.4454 15.9159 7.70829 15.575 7.13999C14.7352 5.74035 13.4784 4.80002 12.0004 4.80002C10.5223 4.80002 9.2656 5.74035 8.42582 7.13999C8.08398 7.70972 7.81746 8.33929 7.62155 9.00002H7.20039C6.53765 9.00002 6.00039 9.53728 6.00039 10.2C6.00039 10.8628 6.53765 11.4 7.20039 11.4H7.21644C7.2057 11.6005 7.20039 11.8007 7.20039 12C7.20039 12.1994 7.2057 12.3996 7.21644 12.6H7.20039C6.53765 12.6 6.00039 13.1373 6.00039 13.8C6.00039 14.4628 6.53765 15 7.20039 15H7.62155C7.81746 15.6608 8.08398 16.2903 8.42582 16.8601C9.2656 18.2597 10.5223 19.2 12.0004 19.2C13.4784 19.2 14.7352 18.2597 15.575 16.8601C15.9159 16.2918 15.7317 15.5547 15.1634 15.2137C14.5951 14.8727 13.858 15.057 13.517 15.6253C12.9509 16.5688 12.365 16.8 12.0004 16.8C11.6358 16.8 11.0499 16.5688 10.4838 15.6253C10.3675 15.4315 10.2617 15.2222 10.167 15H12.0004C12.6631 15 13.2004 14.4628 13.2004 13.8C13.2004 13.1373 12.6631 12.6 12.0004 12.6H9.62073C9.60724 12.402 9.60039 12.2017 9.60039 12C9.60039 11.7983 9.60724 11.598 9.62073 11.4H12.0004C12.6631 11.4 13.2004 10.8628 13.2004 10.2C13.2004 9.53728 12.6631 9.00002 12.0004 9.00002H10.167C10.2617 8.77787 10.3675 8.56858 10.4838 8.37478Z" fill="#00142E"/>
<path fill-rule="evenodd" clip-rule="evenodd" d="M12.0004 21.6C17.3023 21.6 21.6004 17.302 21.6004 12C21.6004 6.69809 17.3023 2.40002 12.0004 2.40002C6.69846 2.40002 2.40039 6.69809 2.40039 12C2.40039 17.302 6.69846 21.6 12.0004 21.6ZM10.4838 8.37478C11.0499 7.43127 11.6358 7.20002 12.0004 7.20002C12.365 7.20002 12.9509 7.43127 13.517 8.37478C13.858 8.94308 14.5951 9.12735 15.1634 8.78638C15.7317 8.4454 15.9159 7.70829 15.575 7.13999C14.7352 5.74035 13.4784 4.80002 12.0004 4.80002C10.5223 4.80002 9.2656 5.74035 8.42582 7.13999C8.08398 7.70972 7.81746 8.33929 7.62155 9.00002H7.20039C6.53765 9.00002 6.00039 9.53728 6.00039 10.2C6.00039 10.8628 6.53765 11.4 7.20039 11.4H7.21644C7.2057 11.6005 7.20039 11.8007 7.20039 12C7.20039 12.1994 7.2057 12.3996 7.21644 12.6H7.20039C6.53765 12.6 6.00039 13.1373 6.00039 13.8C6.00039 14.4628 6.53765 15 7.20039 15H7.62155C7.81746 15.6608 8.08398 16.2903 8.42582 16.8601C9.2656 18.2597 10.5223 19.2 12.0004 19.2C13.4784 19.2 14.7352 18.2597 15.575 16.8601C15.9159 16.2918 15.7317 15.5547 15.1634 15.2137C14.5951 14.8727 13.858 15.057 13.517 15.6253C12.9509 16.5688 12.365 16.8 12.0004 16.8C11.6358 16.8 11.0499 16.5688 10.4838 15.6253C10.3675 15.4315 10.2617 15.2222 10.167 15H12.0004C12.6631 15 13.2004 14.4628 13.2004 13.8C13.2004 13.1373 12.6631 12.6 12.0004 12.6H9.62073C9.60724 12.402 9.60039 12.2017 9.60039 12C9.60039 11.7983 9.60724 11.598 9.62073 11.4H12.0004C12.6631 11.4 13.2004 10.8628 13.2004 10.2C13.2004 9.53728 12.6631 9.00002 12.0004 9.00002H10.167C10.2617 8.77787 10.3675 8.56858 10.4838 8.37478Z" fill="black" fill-opacity="0.2"/>
</svg>
