<svg width="24" height="24" viewBox="0 0 24 24" fill="none" xmlns="http://www.w3.org/2000/svg">
<path fill-rule="evenodd" clip-rule="evenodd" d="M12.0004 21.6C17.3023 21.6 21.6004 17.302 21.6004 12C21.6004 6.69809 17.3023 2.40002 12.0004 2.40002C6.69846 2.40002 2.40039 6.69809 2.40039 12C2.40039 17.302 6.69846 21.6 12.0004 21.6ZM9.42942 6.58252C9.08844 6.01422 8.35133 5.82994 7.78303 6.17092C7.21473 6.5119 7.03046 7.24901 7.37143 7.81731L9.161 10.7999H8.40043C7.73768 10.7999 7.20043 11.3372 7.20043 11.9999C7.20043 12.6627 7.73768 13.1999 8.40043 13.1999H10.601L10.8004 13.5323V14.3999H8.40043C7.73768 14.3999 7.20043 14.9372 7.20043 15.5999C7.20043 16.2627 7.73768 16.7999 8.40043 16.7999H10.8004V17.9999C10.8004 18.6627 11.3377 19.1999 12.0004 19.1999C12.6632 19.1999 13.2004 18.6627 13.2004 17.9999V16.7999H15.6004C16.2632 16.7999 16.8004 16.2627 16.8004 15.5999C16.8004 14.9372 16.2632 14.3999 15.6004 14.3999H13.2004V13.5323L13.3999 13.1999H15.6004C16.2632 13.1999 16.8004 12.6627 16.8004 11.9999C16.8004 11.3372 16.2632 10.7999 15.6004 10.7999H14.8399L16.6294 7.81731C16.9704 7.24901 16.7861 6.5119 16.2178 6.17092C15.6495 5.82994 14.9124 6.01422 14.5714 6.58252L12.041 10.7999H11.9599L9.42942 6.58252Z" fill="#00142E"/>
<path fill-rule="evenodd" clip-rule="evenodd" d="M12.0004 21.6C17.3023 21.6 21.6004 17.302 21.6004 12C21.6004 6.69809 17.3023 2.40002 12.0004 2.40002C6.69846 2.40002 2.40039 6.69809 2.40039 12C2.40039 17.302 6.69846 21.6 12.0004 21.6ZM9.42942 6.58252C9.08844 6.01422 8.35133 5.82994 7.78303 6.17092C7.21473 6.5119 7.03046 7.24901 7.37143 7.81731L9.161 10.7999H8.40043C7.73768 10.7999 7.20043 11.3372 7.20043 11.9999C7.20043 12.6627 7.73768 13.1999 8.40043 13.1999H10.601L10.8004 13.5323V14.3999H8.40043C7.73768 14.3999 7.20043 14.9372 7.20043 15.5999C7.20043 16.2627 7.73768 16.7999 8.40043 16.7999H10.8004V17.9999C10.8004 18.6627 11.3377 19.1999 12.0004 19.1999C12.6632 19.1999 13.2004 18.6627 13.2004 17.9999V16.7999H15.6004C16.2632 16.7999 16.8004 16.2627 16.8004 15.5999C16.8004 14.9372 16.2632 14.3999 15.6004 14.3999H13.2004V13.5323L13.3999 13.1999H15.6004C16.2632 13.1999 16.8004 12.6627 16.8004 11.9999C16.8004 11.3372 16.2632 10.7999 15.6004 10.7999H14.8399L16.6294 7.81731C16.9704 7.24901 16.7861 6.5119 16.2178 6.17092C15.6495 5.82994 14.9124 6.01422 14.5714 6.58252L12.041 10.7999H11.9599L9.42942 6.58252Z" fill="black" fill-opacity="0.2"/>
</svg>
