<svg width="24" height="24" viewBox="0 0 24 24" fill="none" xmlns="http://www.w3.org/2000/svg">
<path fill-rule="evenodd" clip-rule="evenodd" d="M12.0004 21.6C17.3023 21.6 21.6004 17.302 21.6004 12C21.6004 6.69809 17.3023 2.40002 12.0004 2.40002C6.69846 2.40002 2.40039 6.69809 2.40039 12C2.40039 17.302 6.69846 21.6 12.0004 21.6ZM8.40043 6.00002C7.73768 6.00002 7.20043 6.53728 7.20043 7.20002C7.20043 7.86277 7.73768 8.40002 8.40043 8.40002H9.60043C10.4888 8.40002 11.2644 8.88266 11.6793 9.60002H8.40043C7.73768 9.60002 7.20043 10.1373 7.20043 10.8C7.20043 11.4628 7.73768 12 8.40043 12H11.6793C11.2644 12.7174 10.4888 13.2 9.60043 13.2H8.40043C7.91507 13.2 7.47751 13.4924 7.29177 13.9408C7.10603 14.3892 7.2087 14.9054 7.5519 15.2486L11.1519 18.8486C11.6205 19.3172 12.3803 19.3172 12.849 18.8486C13.3176 18.3799 13.3176 17.6201 12.849 17.1515L11.0687 15.3713C12.6271 14.8711 13.8384 13.5963 14.2492 12H15.6004C16.2632 12 16.8004 11.4628 16.8004 10.8C16.8004 10.1373 16.2632 9.60002 15.6004 9.60002H14.2492C14.1396 9.1743 13.9731 8.77143 13.7583 8.40002H15.6004C16.2632 8.40002 16.8004 7.86277 16.8004 7.20002C16.8004 6.53728 16.2632 6.00002 15.6004 6.00002H8.40043Z" fill="#00142E"/>
<path fill-rule="evenodd" clip-rule="evenodd" d="M12.0004 21.6C17.3023 21.6 21.6004 17.302 21.6004 12C21.6004 6.69809 17.3023 2.40002 12.0004 2.40002C6.69846 2.40002 2.40039 6.69809 2.40039 12C2.40039 17.302 6.69846 21.6 12.0004 21.6ZM8.40043 6.00002C7.73768 6.00002 7.20043 6.53728 7.20043 7.20002C7.20043 7.86277 7.73768 8.40002 8.40043 8.40002H9.60043C10.4888 8.40002 11.2644 8.88266 11.6793 9.60002H8.40043C7.73768 9.60002 7.20043 10.1373 7.20043 10.8C7.20043 11.4628 7.73768 12 8.40043 12H11.6793C11.2644 12.7174 10.4888 13.2 9.60043 13.2H8.40043C7.91507 13.2 7.47751 13.4924 7.29177 13.9408C7.10603 14.3892 7.2087 14.9054 7.5519 15.2486L11.1519 18.8486C11.6205 19.3172 12.3803 19.3172 12.849 18.8486C13.3176 18.3799 13.3176 17.6201 12.849 17.1515L11.0687 15.3713C12.6271 14.8711 13.8384 13.5963 14.2492 12H15.6004C16.2632 12 16.8004 11.4628 16.8004 10.8C16.8004 10.1373 16.2632 9.60002 15.6004 9.60002H14.2492C14.1396 9.1743 13.9731 8.77143 13.7583 8.40002H15.6004C16.2632 8.40002 16.8004 7.86277 16.8004 7.20002C16.8004 6.53728 16.2632 6.00002 15.6004 6.00002H8.40043Z" fill="black" fill-opacity="0.2"/>
</svg>
