<svg width="24" height="24" viewBox="0 0 24 24" fill="none" xmlns="http://www.w3.org/2000/svg">
<path d="M3.59961 14.4V18C3.59961 19.9883 7.36042 21.6 11.9996 21.6C16.6388 21.6 20.3996 19.9883 20.3996 18V14.4C20.3996 16.3883 16.6388 18 11.9996 18C7.36042 18 3.59961 16.3883 3.59961 14.4Z" fill="#00142E"/>
<path d="M3.59961 14.4V18C3.59961 19.9883 7.36042 21.6 11.9996 21.6C16.6388 21.6 20.3996 19.9883 20.3996 18V14.4C20.3996 16.3883 16.6388 18 11.9996 18C7.36042 18 3.59961 16.3883 3.59961 14.4Z" fill="black" fill-opacity="0.2"/>
<path d="M3.59961 8.40002V12C3.59961 13.9883 7.36042 15.6 11.9996 15.6C16.6388 15.6 20.3996 13.9883 20.3996 12V8.40002C20.3996 10.3883 16.6388 12 11.9996 12C7.36042 12 3.59961 10.3883 3.59961 8.40002Z" fill="#00142E"/>
<path d="M3.59961 8.40002V12C3.59961 13.9883 7.36042 15.6 11.9996 15.6C16.6388 15.6 20.3996 13.9883 20.3996 12V8.40002C20.3996 10.3883 16.6388 12 11.9996 12C7.36042 12 3.59961 10.3883 3.59961 8.40002Z" fill="black" fill-opacity="0.2"/>
<path d="M20.3996 6.00002C20.3996 7.98825 16.6388 9.60002 11.9996 9.60002C7.36042 9.60002 3.59961 7.98825 3.59961 6.00002C3.59961 4.0118 7.36042 2.40002 11.9996 2.40002C16.6388 2.40002 20.3996 4.0118 20.3996 6.00002Z" fill="#00142E"/>
<path d="M20.3996 6.00002C20.3996 7.98825 16.6388 9.60002 11.9996 9.60002C7.36042 9.60002 3.59961 7.98825 3.59961 6.00002C3.59961 4.0118 7.36042 2.40002 11.9996 2.40002C16.6388 2.40002 20.3996 4.0118 20.3996 6.00002Z" fill="black" fill-opacity="0.2"/>
</svg>
