<svg width="24" height="24" viewBox="0 0 24 24" fill="none" xmlns="http://www.w3.org/2000/svg">
<path fill-rule="evenodd" clip-rule="evenodd" d="M3.59961 5.99998C3.59961 4.67449 4.67413 3.59998 5.99961 3.59998H17.9996C19.3251 3.59998 20.3996 4.67449 20.3996 5.99998V15.6C20.3996 16.9255 19.3251 18 17.9996 18H15.3366L15.4832 18.5865L16.4482 19.5514C16.7914 19.8946 16.894 20.4108 16.7083 20.8592C16.5226 21.3076 16.085 21.6 15.5996 21.6H8.39964C7.91429 21.6 7.47673 21.3076 7.29099 20.8592C7.10525 20.4108 7.20792 19.8946 7.55112 19.5514L8.51609 18.5865L8.66271 18H5.99961C4.67413 18 3.59961 16.9255 3.59961 15.6V5.99998ZM10.5252 14.4C10.5075 14.3996 10.4899 14.3996 10.4723 14.4H5.99961V5.99998H17.9996V14.4H13.527C13.5094 14.3996 13.4918 14.3996 13.4741 14.4H10.5252Z" fill="#00142E"/>
<path fill-rule="evenodd" clip-rule="evenodd" d="M3.59961 5.99998C3.59961 4.67449 4.67413 3.59998 5.99961 3.59998H17.9996C19.3251 3.59998 20.3996 4.67449 20.3996 5.99998V15.6C20.3996 16.9255 19.3251 18 17.9996 18H15.3366L15.4832 18.5865L16.4482 19.5514C16.7914 19.8946 16.894 20.4108 16.7083 20.8592C16.5226 21.3076 16.085 21.6 15.5996 21.6H8.39964C7.91429 21.6 7.47673 21.3076 7.29099 20.8592C7.10525 20.4108 7.20792 19.8946 7.55112 19.5514L8.51609 18.5865L8.66271 18H5.99961C4.67413 18 3.59961 16.9255 3.59961 15.6V5.99998ZM10.5252 14.4C10.5075 14.3996 10.4899 14.3996 10.4723 14.4H5.99961V5.99998H17.9996V14.4H13.527C13.5094 14.3996 13.4918 14.3996 13.4741 14.4H10.5252Z" fill="black" fill-opacity="0.2"/>
</svg>
