<svg width="24" height="24" viewBox="0 0 24 24" fill="none" xmlns="http://www.w3.org/2000/svg">
<path fill-rule="evenodd" clip-rule="evenodd" d="M7.1998 2.40002C5.87432 2.40002 4.7998 3.47454 4.7998 4.80002V19.2C4.7998 20.5255 5.87432 21.6 7.1998 21.6H16.7998C18.1253 21.6 19.1998 20.5255 19.1998 19.2V8.89708C19.1998 8.26056 18.9469 7.65011 18.4969 7.20002L14.3998 3.10297C13.9497 2.65288 13.3393 2.40002 12.7027 2.40002H7.1998ZM9.5998 14.4C9.5998 13.7373 9.06255 13.2 8.3998 13.2C7.73706 13.2 7.1998 13.7373 7.1998 14.4V18C7.1998 18.6628 7.73706 19.2 8.3998 19.2C9.06255 19.2 9.5998 18.6628 9.5998 18V14.4ZM11.9998 10.8C12.6625 10.8 13.1998 11.3373 13.1998 12V18C13.1998 18.6628 12.6625 19.2 11.9998 19.2C11.3371 19.2 10.7998 18.6628 10.7998 18V12C10.7998 11.3373 11.3371 10.8 11.9998 10.8ZM16.7998 9.60002C16.7998 8.93728 16.2625 8.40002 15.5998 8.40002C14.9371 8.40002 14.3998 8.93728 14.3998 9.60002V18C14.3998 18.6628 14.9371 19.2 15.5998 19.2C16.2625 19.2 16.7998 18.6628 16.7998 18V9.60002Z" fill="#00142E"/>
<path fill-rule="evenodd" clip-rule="evenodd" d="M7.1998 2.40002C5.87432 2.40002 4.7998 3.47454 4.7998 4.80002V19.2C4.7998 20.5255 5.87432 21.6 7.1998 21.6H16.7998C18.1253 21.6 19.1998 20.5255 19.1998 19.2V8.89708C19.1998 8.26056 18.9469 7.65011 18.4969 7.20002L14.3998 3.10297C13.9497 2.65288 13.3393 2.40002 12.7027 2.40002H7.1998ZM9.5998 14.4C9.5998 13.7373 9.06255 13.2 8.3998 13.2C7.73706 13.2 7.1998 13.7373 7.1998 14.4V18C7.1998 18.6628 7.73706 19.2 8.3998 19.2C9.06255 19.2 9.5998 18.6628 9.5998 18V14.4ZM11.9998 10.8C12.6625 10.8 13.1998 11.3373 13.1998 12V18C13.1998 18.6628 12.6625 19.2 11.9998 19.2C11.3371 19.2 10.7998 18.6628 10.7998 18V12C10.7998 11.3373 11.3371 10.8 11.9998 10.8ZM16.7998 9.60002C16.7998 8.93728 16.2625 8.40002 15.5998 8.40002C14.9371 8.40002 14.3998 8.93728 14.3998 9.60002V18C14.3998 18.6628 14.9371 19.2 15.5998 19.2C16.2625 19.2 16.7998 18.6628 16.7998 18V9.60002Z" fill="black" fill-opacity="0.2"/>
</svg>
