<svg width="24" height="24" viewBox="0 0 24 24" fill="none" xmlns="http://www.w3.org/2000/svg">
<path d="M4.79961 4.80002C4.79961 3.47454 5.87413 2.40002 7.19961 2.40002H12.7026C13.3391 2.40002 13.9495 2.65288 14.3996 3.10297L18.4967 7.20002C18.9468 7.65011 19.1996 8.26056 19.1996 8.89708V19.2C19.1996 20.5255 18.1251 21.6 16.7996 21.6H14.9663C16.1064 20.3262 16.7996 18.6441 16.7996 16.8C16.7996 12.8236 13.5761 9.60002 9.59961 9.60002C7.75556 9.60002 6.07343 10.2933 4.79961 11.4334V4.80002Z" fill="#00142E"/>
<path d="M4.79961 4.80002C4.79961 3.47454 5.87413 2.40002 7.19961 2.40002H12.7026C13.3391 2.40002 13.9495 2.65288 14.3996 3.10297L18.4967 7.20002C18.9468 7.65011 19.1996 8.26056 19.1996 8.89708V19.2C19.1996 20.5255 18.1251 21.6 16.7996 21.6H14.9663C16.1064 20.3262 16.7996 18.6441 16.7996 16.8C16.7996 12.8236 13.5761 9.60002 9.59961 9.60002C7.75556 9.60002 6.07343 10.2933 4.79961 11.4334V4.80002Z" fill="black" fill-opacity="0.2"/>
<path fill-rule="evenodd" clip-rule="evenodd" d="M9.59961 12C6.94864 12 4.79961 14.1491 4.79961 16.8C4.79961 17.6897 5.04236 18.5237 5.46437 19.2382L3.95108 20.7515C3.48245 21.2201 3.48245 21.9799 3.95108 22.4486C4.41971 22.9172 5.17951 22.9172 5.64814 22.4486L7.16143 20.9353C7.87595 21.3573 8.70995 21.6 9.59961 21.6C12.2506 21.6 14.3996 19.451 14.3996 16.8C14.3996 14.1491 12.2506 12 9.59961 12ZM7.19961 16.8C7.19961 15.4745 8.27413 14.4 9.59961 14.4C10.9251 14.4 11.9996 15.4745 11.9996 16.8C11.9996 18.1255 10.9251 19.2 9.59961 19.2C8.93654 19.2 8.33818 18.9327 7.90255 18.4971C7.46692 18.0615 7.19961 17.4631 7.19961 16.8Z" fill="#00142E"/>
<path fill-rule="evenodd" clip-rule="evenodd" d="M9.59961 12C6.94864 12 4.79961 14.1491 4.79961 16.8C4.79961 17.6897 5.04236 18.5237 5.46437 19.2382L3.95108 20.7515C3.48245 21.2201 3.48245 21.9799 3.95108 22.4486C4.41971 22.9172 5.17951 22.9172 5.64814 22.4486L7.16143 20.9353C7.87595 21.3573 8.70995 21.6 9.59961 21.6C12.2506 21.6 14.3996 19.451 14.3996 16.8C14.3996 14.1491 12.2506 12 9.59961 12ZM7.19961 16.8C7.19961 15.4745 8.27413 14.4 9.59961 14.4C10.9251 14.4 11.9996 15.4745 11.9996 16.8C11.9996 18.1255 10.9251 19.2 9.59961 19.2C8.93654 19.2 8.33818 18.9327 7.90255 18.4971C7.46692 18.0615 7.19961 17.4631 7.19961 16.8Z" fill="black" fill-opacity="0.2"/>
</svg>
