<svg width="24" height="24" viewBox="0 0 24 24" fill="none" xmlns="http://www.w3.org/2000/svg">
<path fill-rule="evenodd" clip-rule="evenodd" d="M7.1998 2.40002C5.87432 2.40002 4.7998 3.47454 4.7998 4.80002V19.2C4.7998 20.5255 5.87432 21.6 7.1998 21.6H16.7998C18.1253 21.6 19.1998 20.5255 19.1998 19.2V8.89708C19.1998 8.26056 18.9469 7.65011 18.4969 7.20002L14.3998 3.10297C13.9497 2.65288 13.3393 2.40002 12.7027 2.40002H7.1998ZM13.1998 9.60002C13.1998 8.93728 12.6625 8.40002 11.9998 8.40002C11.3371 8.40002 10.7998 8.93728 10.7998 9.60002V13.903L9.24833 12.3515C8.7797 11.8829 8.01991 11.8829 7.55128 12.3515C7.08265 12.8201 7.08265 13.5799 7.55128 14.0486L11.1513 17.6486C11.6199 18.1172 12.3797 18.1172 12.8483 17.6486L16.4483 14.0486C16.917 13.5799 16.917 12.8201 16.4483 12.3515C15.9797 11.8829 15.2199 11.8829 14.7513 12.3515L13.1998 13.903V9.60002Z" fill="#00142E"/>
<path fill-rule="evenodd" clip-rule="evenodd" d="M7.1998 2.40002C5.87432 2.40002 4.7998 3.47454 4.7998 4.80002V19.2C4.7998 20.5255 5.87432 21.6 7.1998 21.6H16.7998C18.1253 21.6 19.1998 20.5255 19.1998 19.2V8.89708C19.1998 8.26056 18.9469 7.65011 18.4969 7.20002L14.3998 3.10297C13.9497 2.65288 13.3393 2.40002 12.7027 2.40002H7.1998ZM13.1998 9.60002C13.1998 8.93728 12.6625 8.40002 11.9998 8.40002C11.3371 8.40002 10.7998 8.93728 10.7998 9.60002V13.903L9.24833 12.3515C8.7797 11.8829 8.01991 11.8829 7.55128 12.3515C7.08265 12.8201 7.08265 13.5799 7.55128 14.0486L11.1513 17.6486C11.6199 18.1172 12.3797 18.1172 12.8483 17.6486L16.4483 14.0486C16.917 13.5799 16.917 12.8201 16.4483 12.3515C15.9797 11.8829 15.2199 11.8829 14.7513 12.3515L13.1998 13.903V9.60002Z" fill="black" fill-opacity="0.2"/>
</svg>
