<svg width="24" height="24" viewBox="0 0 24 24" fill="none" xmlns="http://www.w3.org/2000/svg">
<path fill-rule="evenodd" clip-rule="evenodd" d="M7.1998 2.40002C5.87432 2.40002 4.7998 3.47454 4.7998 4.80003V19.2C4.7998 20.5255 5.87432 21.6 7.1998 21.6H16.7998C18.1253 21.6 19.1998 20.5255 19.1998 19.2V8.89708C19.1998 8.26056 18.9469 7.65011 18.4969 7.20002L14.3998 3.10297C13.9497 2.65288 13.3393 2.40002 12.7027 2.40002H7.1998ZM8.3998 12C7.73706 12 7.1998 12.5373 7.1998 13.2C7.1998 13.8628 7.73706 14.4 8.3998 14.4H15.5998C16.2625 14.4 16.7998 13.8628 16.7998 13.2C16.7998 12.5373 16.2625 12 15.5998 12H8.3998Z" fill="#00142E"/>
<path fill-rule="evenodd" clip-rule="evenodd" d="M7.1998 2.40002C5.87432 2.40002 4.7998 3.47454 4.7998 4.80003V19.2C4.7998 20.5255 5.87432 21.6 7.1998 21.6H16.7998C18.1253 21.6 19.1998 20.5255 19.1998 19.2V8.89708C19.1998 8.26056 18.9469 7.65011 18.4969 7.20002L14.3998 3.10297C13.9497 2.65288 13.3393 2.40002 12.7027 2.40002H7.1998ZM8.3998 12C7.73706 12 7.1998 12.5373 7.1998 13.2C7.1998 13.8628 7.73706 14.4 8.3998 14.4H15.5998C16.2625 14.4 16.7998 13.8628 16.7998 13.2C16.7998 12.5373 16.2625 12 15.5998 12H8.3998Z" fill="black" fill-opacity="0.2"/>
</svg>
