<svg width="24" height="24" viewBox="0 0 24 24" fill="none" xmlns="http://www.w3.org/2000/svg">
<path d="M10.7996 2.40002C9.47413 2.40002 8.39961 3.47454 8.39961 4.80003V14.4C8.39961 15.7255 9.47412 16.8 10.7996 16.8H17.9996C19.3251 16.8 20.3996 15.7255 20.3996 14.4V7.69708C20.3996 7.06056 20.1468 6.45011 19.6967 6.00002L16.7996 3.10297C16.3495 2.65288 15.7391 2.40002 15.1026 2.40002H10.7996Z" fill="#00142E"/>
<path d="M10.7996 2.40002C9.47413 2.40002 8.39961 3.47454 8.39961 4.80003V14.4C8.39961 15.7255 9.47412 16.8 10.7996 16.8H17.9996C19.3251 16.8 20.3996 15.7255 20.3996 14.4V7.69708C20.3996 7.06056 20.1468 6.45011 19.6967 6.00002L16.7996 3.10297C16.3495 2.65288 15.7391 2.40002 15.1026 2.40002H10.7996Z" fill="black" fill-opacity="0.2"/>
<path d="M3.59961 9.60003C3.59961 8.27454 4.67413 7.20002 5.99961 7.20002V19.2H15.5996C15.5996 20.5255 14.5251 21.6 13.1996 21.6H5.99961C4.67413 21.6 3.59961 20.5255 3.59961 19.2V9.60003Z" fill="#00142E"/>
<path d="M3.59961 9.60003C3.59961 8.27454 4.67413 7.20002 5.99961 7.20002V19.2H15.5996C15.5996 20.5255 14.5251 21.6 13.1996 21.6H5.99961C4.67413 21.6 3.59961 20.5255 3.59961 19.2V9.60003Z" fill="black" fill-opacity="0.2"/>
</svg>
