<svg width="24" height="24" viewBox="0 0 24 24" fill="none" xmlns="http://www.w3.org/2000/svg">
<path fill-rule="evenodd" clip-rule="evenodd" d="M4.7998 4.80002C4.7998 3.47454 5.87432 2.40002 7.1998 2.40002H12.7027C13.3393 2.40002 13.9497 2.65288 14.3998 3.10297L18.4969 7.20002C18.9469 7.65011 19.1998 8.26056 19.1998 8.89708V19.2C19.1998 20.5255 18.1253 21.6 16.7998 21.6H7.1998C5.87432 21.6 4.7998 20.5255 4.7998 19.2V4.80002Z" fill="#00142E"/>
<path fill-rule="evenodd" clip-rule="evenodd" d="M4.7998 4.80002C4.7998 3.47454 5.87432 2.40002 7.1998 2.40002H12.7027C13.3393 2.40002 13.9497 2.65288 14.3998 3.10297L18.4969 7.20002C18.9469 7.65011 19.1998 8.26056 19.1998 8.89708V19.2C19.1998 20.5255 18.1253 21.6 16.7998 21.6H7.1998C5.87432 21.6 4.7998 20.5255 4.7998 19.2V4.80002Z" fill="black" fill-opacity="0.2"/>
</svg>
