<svg width="24" height="24" viewBox="0 0 24 24" fill="none" xmlns="http://www.w3.org/2000/svg">
<path d="M7.20039 12C7.20039 13.3255 6.12587 14.4 4.80039 14.4C3.47491 14.4 2.40039 13.3255 2.40039 12C2.40039 10.6745 3.47491 9.59998 4.80039 9.59998C6.12587 9.59998 7.20039 10.6745 7.20039 12Z" fill="#00142E"/>
<path d="M7.20039 12C7.20039 13.3255 6.12587 14.4 4.80039 14.4C3.47491 14.4 2.40039 13.3255 2.40039 12C2.40039 10.6745 3.47491 9.59998 4.80039 9.59998C6.12587 9.59998 7.20039 10.6745 7.20039 12Z" fill="black" fill-opacity="0.2"/>
<path d="M14.4004 12C14.4004 13.3255 13.3259 14.4 12.0004 14.4C10.6749 14.4 9.60039 13.3255 9.60039 12C9.60039 10.6745 10.6749 9.59998 12.0004 9.59998C13.3259 9.59998 14.4004 10.6745 14.4004 12Z" fill="#00142E"/>
<path d="M14.4004 12C14.4004 13.3255 13.3259 14.4 12.0004 14.4C10.6749 14.4 9.60039 13.3255 9.60039 12C9.60039 10.6745 10.6749 9.59998 12.0004 9.59998C13.3259 9.59998 14.4004 10.6745 14.4004 12Z" fill="black" fill-opacity="0.2"/>
<path d="M19.2004 14.4C20.5259 14.4 21.6004 13.3255 21.6004 12C21.6004 10.6745 20.5259 9.59998 19.2004 9.59998C17.8749 9.59998 16.8004 10.6745 16.8004 12C16.8004 13.3255 17.8749 14.4 19.2004 14.4Z" fill="#00142E"/>
<path d="M19.2004 14.4C20.5259 14.4 21.6004 13.3255 21.6004 12C21.6004 10.6745 20.5259 9.59998 19.2004 9.59998C17.8749 9.59998 16.8004 10.6745 16.8004 12C16.8004 13.3255 17.8749 14.4 19.2004 14.4Z" fill="black" fill-opacity="0.2"/>
</svg>
