<svg width="24" height="24" viewBox="0 0 24 24" fill="none" xmlns="http://www.w3.org/2000/svg">
<path fill-rule="evenodd" clip-rule="evenodd" d="M12.0004 21.6C17.3023 21.6 21.6004 17.302 21.6004 12C21.6004 6.69809 17.3023 2.40002 12.0004 2.40002C6.69846 2.40002 2.40039 6.69809 2.40039 12C2.40039 17.302 6.69846 21.6 12.0004 21.6ZM8.40039 10.8H6.00039V13.2H8.40039V10.8ZM18.0004 10.8H15.6004V13.2H18.0004V10.8ZM10.8004 10.8H13.2004V13.2H10.8004V10.8Z" fill="#00142E"/>
<path fill-rule="evenodd" clip-rule="evenodd" d="M12.0004 21.6C17.3023 21.6 21.6004 17.302 21.6004 12C21.6004 6.69809 17.3023 2.40002 12.0004 2.40002C6.69846 2.40002 2.40039 6.69809 2.40039 12C2.40039 17.302 6.69846 21.6 12.0004 21.6ZM8.40039 10.8H6.00039V13.2H8.40039V10.8ZM18.0004 10.8H15.6004V13.2H18.0004V10.8ZM10.8004 10.8H13.2004V13.2H10.8004V10.8Z" fill="black" fill-opacity="0.2"/>
</svg>
