<svg width="24" height="24" viewBox="0 0 24 24" fill="none" xmlns="http://www.w3.org/2000/svg">
<path d="M3.60039 1.19995C2.93765 1.19995 2.40039 1.73721 2.40039 2.39995C2.40039 3.06269 2.93765 3.59995 3.60039 3.59995H5.06346L5.43013 5.06664C5.43398 5.0836 5.43819 5.10042 5.44275 5.1171L7.07142 11.6318L6.00033 12.7029C4.48842 14.2148 5.55921 16.8 7.69739 16.8H18.0003C18.6631 16.8 19.2003 16.2627 19.2003 15.6C19.2003 14.9372 18.6631 14.4 18.0003 14.4L7.69739 14.3999L8.89739 13.2H16.8004C17.2549 13.2 17.6704 12.9431 17.8737 12.5366L21.4737 5.33661C21.6597 4.96462 21.6398 4.52285 21.4212 4.16907C21.2025 3.81529 20.8163 3.59995 20.4004 3.59995H7.53732L7.16456 2.10891C7.03101 1.57471 6.55103 1.19995 6.00039 1.19995H3.60039Z" fill="#00142E"/>
<path d="M3.60039 1.19995C2.93765 1.19995 2.40039 1.73721 2.40039 2.39995C2.40039 3.06269 2.93765 3.59995 3.60039 3.59995H5.06346L5.43013 5.06664C5.43398 5.0836 5.43819 5.10042 5.44275 5.1171L7.07142 11.6318L6.00033 12.7029C4.48842 14.2148 5.55921 16.8 7.69739 16.8H18.0003C18.6631 16.8 19.2003 16.2627 19.2003 15.6C19.2003 14.9372 18.6631 14.4 18.0003 14.4L7.69739 14.3999L8.89739 13.2H16.8004C17.2549 13.2 17.6704 12.9431 17.8737 12.5366L21.4737 5.33661C21.6597 4.96462 21.6398 4.52285 21.4212 4.16907C21.2025 3.81529 20.8163 3.59995 20.4004 3.59995H7.53732L7.16456 2.10891C7.03101 1.57471 6.55103 1.19995 6.00039 1.19995H3.60039Z" fill="black" fill-opacity="0.2"/>
<path d="M19.2004 19.8C19.2004 20.7941 18.3945 21.5999 17.4004 21.5999C16.4063 21.5999 15.6004 20.7941 15.6004 19.8C15.6004 18.8058 16.4063 18 17.4004 18C18.3945 18 19.2004 18.8058 19.2004 19.8Z" fill="#00142E"/>
<path d="M19.2004 19.8C19.2004 20.7941 18.3945 21.5999 17.4004 21.5999C16.4063 21.5999 15.6004 20.7941 15.6004 19.8C15.6004 18.8058 16.4063 18 17.4004 18C18.3945 18 19.2004 18.8058 19.2004 19.8Z" fill="black" fill-opacity="0.2"/>
<path d="M7.80039 21.5999C8.7945 21.5999 9.60039 20.7941 9.60039 19.8C9.60039 18.8058 8.7945 18 7.80039 18C6.80628 18 6.00039 18.8058 6.00039 19.8C6.00039 20.7941 6.80628 21.5999 7.80039 21.5999Z" fill="#00142E"/>
<path d="M7.80039 21.5999C8.7945 21.5999 9.60039 20.7941 9.60039 19.8C9.60039 18.8058 8.7945 18 7.80039 18C6.80628 18 6.00039 18.8058 6.00039 19.8C6.00039 20.7941 6.80628 21.5999 7.80039 21.5999Z" fill="black" fill-opacity="0.2"/>
</svg>
