<svg width="24" height="24" viewBox="0 0 24 24" fill="none" xmlns="http://www.w3.org/2000/svg">
<path d="M8.39961 10.8C8.39961 9.47449 9.47413 8.39998 10.7996 8.39998H17.9996C19.3251 8.39998 20.3996 9.47449 20.3996 10.8V18C20.3996 19.3255 19.3251 20.4 17.9996 20.4H10.7996C9.47413 20.4 8.39961 19.3255 8.39961 18V10.8Z" fill="#00142E"/>
<path d="M8.39961 10.8C8.39961 9.47449 9.47413 8.39998 10.7996 8.39998H17.9996C19.3251 8.39998 20.3996 9.47449 20.3996 10.8V18C20.3996 19.3255 19.3251 20.4 17.9996 20.4H10.7996C9.47413 20.4 8.39961 19.3255 8.39961 18V10.8Z" fill="black" fill-opacity="0.2"/>
<path d="M5.99961 3.59998C4.67413 3.59998 3.59961 4.67449 3.59961 5.99998V13.2C3.59961 14.5255 4.67413 15.6 5.99961 15.6L5.99961 5.99998H15.5996C15.5996 4.67449 14.5251 3.59998 13.1996 3.59998H5.99961Z" fill="#00142E"/>
<path d="M5.99961 3.59998C4.67413 3.59998 3.59961 4.67449 3.59961 5.99998V13.2C3.59961 14.5255 4.67413 15.6 5.99961 15.6L5.99961 5.99998H15.5996C15.5996 4.67449 14.5251 3.59998 13.1996 3.59998H5.99961Z" fill="black" fill-opacity="0.2"/>
</svg>
