<svg width="24" height="24" viewBox="0 0 24 24" fill="none" xmlns="http://www.w3.org/2000/svg">
<path fill-rule="evenodd" clip-rule="evenodd" d="M12.0004 21.6C17.3023 21.6 21.6004 17.302 21.6004 12C21.6004 6.69809 17.3023 2.40002 12.0004 2.40002C6.69846 2.40002 2.40039 6.69809 2.40039 12C2.40039 17.302 6.69846 21.6 12.0004 21.6ZM8.40039 10.8C9.06313 10.8 9.60039 10.2628 9.60039 9.60002C9.60039 8.93728 9.06313 8.40002 8.40039 8.40002C7.73765 8.40002 7.20039 8.93728 7.20039 9.60002C7.20039 10.2628 7.73765 10.8 8.40039 10.8ZM16.8004 9.60002C16.8004 10.2628 16.2631 10.8 15.6004 10.8C14.9376 10.8 14.4004 10.2628 14.4004 9.60002C14.4004 8.93728 14.9376 8.40002 15.6004 8.40002C16.2631 8.40002 16.8004 8.93728 16.8004 9.60002ZM16.243 16.2426C16.7117 15.7739 16.7117 15.0141 16.243 14.5455C15.7744 14.0769 15.0146 14.0769 14.546 14.5455C13.1401 15.9514 10.8607 15.9514 9.45481 14.5455C8.98618 14.0769 8.22638 14.0769 7.75775 14.5455C7.28912 15.0141 7.28912 15.7739 7.75775 16.2426C10.1009 18.5857 13.8999 18.5857 16.243 16.2426Z" fill="#00142E"/>
<path fill-rule="evenodd" clip-rule="evenodd" d="M12.0004 21.6C17.3023 21.6 21.6004 17.302 21.6004 12C21.6004 6.69809 17.3023 2.40002 12.0004 2.40002C6.69846 2.40002 2.40039 6.69809 2.40039 12C2.40039 17.302 6.69846 21.6 12.0004 21.6ZM8.40039 10.8C9.06313 10.8 9.60039 10.2628 9.60039 9.60002C9.60039 8.93728 9.06313 8.40002 8.40039 8.40002C7.73765 8.40002 7.20039 8.93728 7.20039 9.60002C7.20039 10.2628 7.73765 10.8 8.40039 10.8ZM16.8004 9.60002C16.8004 10.2628 16.2631 10.8 15.6004 10.8C14.9376 10.8 14.4004 10.2628 14.4004 9.60002C14.4004 8.93728 14.9376 8.40002 15.6004 8.40002C16.2631 8.40002 16.8004 8.93728 16.8004 9.60002ZM16.243 16.2426C16.7117 15.7739 16.7117 15.0141 16.243 14.5455C15.7744 14.0769 15.0146 14.0769 14.546 14.5455C13.1401 15.9514 10.8607 15.9514 9.45481 14.5455C8.98618 14.0769 8.22638 14.0769 7.75775 14.5455C7.28912 15.0141 7.28912 15.7739 7.75775 16.2426C10.1009 18.5857 13.8999 18.5857 16.243 16.2426Z" fill="black" fill-opacity="0.2"/>
</svg>
