<svg width="24" height="24" viewBox="0 0 24 24" fill="none" xmlns="http://www.w3.org/2000/svg">
<path fill-rule="evenodd" clip-rule="evenodd" d="M12.0004 21.6C17.3023 21.6 21.6004 17.302 21.6004 12C21.6004 6.69809 17.3023 2.40002 12.0004 2.40002C6.69846 2.40002 2.40039 6.69809 2.40039 12C2.40039 17.302 6.69846 21.6 12.0004 21.6ZM8.40039 10.8C9.06313 10.8 9.60039 10.2628 9.60039 9.60002C9.60039 8.93728 9.06313 8.40002 8.40039 8.40002C7.73765 8.40002 7.20039 8.93728 7.20039 9.60002C7.20039 10.2628 7.73765 10.8 8.40039 10.8ZM16.8004 9.60002C16.8004 10.2628 16.2631 10.8 15.6004 10.8C14.9376 10.8 14.4004 10.2628 14.4004 9.60002C14.4004 8.93728 14.9376 8.40002 15.6004 8.40002C16.2631 8.40002 16.8004 8.93728 16.8004 9.60002ZM7.75775 16.6542C8.22638 17.1228 8.98618 17.1228 9.45481 16.6542C10.8607 15.2483 13.1401 15.2483 14.546 16.6542C15.0146 17.1228 15.7744 17.1228 16.243 16.6542C16.7117 16.1855 16.7117 15.4257 16.243 14.9571C13.8999 12.614 10.1009 12.614 7.75775 14.9571C7.28912 15.4257 7.28912 16.1855 7.75775 16.6542Z" fill="#00142E"/>
<path fill-rule="evenodd" clip-rule="evenodd" d="M12.0004 21.6C17.3023 21.6 21.6004 17.302 21.6004 12C21.6004 6.69809 17.3023 2.40002 12.0004 2.40002C6.69846 2.40002 2.40039 6.69809 2.40039 12C2.40039 17.302 6.69846 21.6 12.0004 21.6ZM8.40039 10.8C9.06313 10.8 9.60039 10.2628 9.60039 9.60002C9.60039 8.93728 9.06313 8.40002 8.40039 8.40002C7.73765 8.40002 7.20039 8.93728 7.20039 9.60002C7.20039 10.2628 7.73765 10.8 8.40039 10.8ZM16.8004 9.60002C16.8004 10.2628 16.2631 10.8 15.6004 10.8C14.9376 10.8 14.4004 10.2628 14.4004 9.60002C14.4004 8.93728 14.9376 8.40002 15.6004 8.40002C16.2631 8.40002 16.8004 8.93728 16.8004 9.60002ZM7.75775 16.6542C8.22638 17.1228 8.98618 17.1228 9.45481 16.6542C10.8607 15.2483 13.1401 15.2483 14.546 16.6542C15.0146 17.1228 15.7744 17.1228 16.243 16.6542C16.7117 16.1855 16.7117 15.4257 16.243 14.9571C13.8999 12.614 10.1009 12.614 7.75775 14.9571C7.28912 15.4257 7.28912 16.1855 7.75775 16.6542Z" fill="black" fill-opacity="0.2"/>
</svg>
