<svg width="24" height="24" viewBox="0 0 24 24" fill="none" xmlns="http://www.w3.org/2000/svg">
<path fill-rule="evenodd" clip-rule="evenodd" d="M21.6004 12C21.6004 17.302 17.3023 21.6 12.0004 21.6C6.69846 21.6 2.40039 17.302 2.40039 12C2.40039 6.69809 6.69846 2.40002 12.0004 2.40002C17.3023 2.40002 21.6004 6.69809 21.6004 12ZM13.2004 16.8C13.2004 17.4628 12.6631 18 12.0004 18C11.3376 18 10.8004 17.4628 10.8004 16.8C10.8004 16.1373 11.3376 15.6 12.0004 15.6C12.6631 15.6 13.2004 16.1373 13.2004 16.8ZM12.0004 6.00002C11.3376 6.00002 10.8004 6.53728 10.8004 7.20002V12C10.8004 12.6628 11.3376 13.2 12.0004 13.2C12.6631 13.2 13.2004 12.6628 13.2004 12V7.20002C13.2004 6.53728 12.6631 6.00002 12.0004 6.00002Z" fill="#00142E"/>
<path fill-rule="evenodd" clip-rule="evenodd" d="M21.6004 12C21.6004 17.302 17.3023 21.6 12.0004 21.6C6.69846 21.6 2.40039 17.302 2.40039 12C2.40039 6.69809 6.69846 2.40002 12.0004 2.40002C17.3023 2.40002 21.6004 6.69809 21.6004 12ZM13.2004 16.8C13.2004 17.4628 12.6631 18 12.0004 18C11.3376 18 10.8004 17.4628 10.8004 16.8C10.8004 16.1373 11.3376 15.6 12.0004 15.6C12.6631 15.6 13.2004 16.1373 13.2004 16.8ZM12.0004 6.00002C11.3376 6.00002 10.8004 6.53728 10.8004 7.20002V12C10.8004 12.6628 11.3376 13.2 12.0004 13.2C12.6631 13.2 13.2004 12.6628 13.2004 12V7.20002C13.2004 6.53728 12.6631 6.00002 12.0004 6.00002Z" fill="black" fill-opacity="0.2"/>
</svg>
