<svg width="24" height="24" viewBox="0 0 24 24" fill="none" xmlns="http://www.w3.org/2000/svg">
<path d="M13.1996 3.59998C12.5369 3.59998 11.9996 4.13723 11.9996 4.79998C11.9996 5.46272 12.5369 5.99998 13.1996 5.99998H16.3026L8.75108 13.5514C8.28245 14.0201 8.28245 14.7799 8.75108 15.2485C9.21971 15.7171 9.97951 15.7171 10.4481 15.2485L17.9996 7.69703V10.8C17.9996 11.4627 18.5369 12 19.1996 12C19.8624 12 20.3996 11.4627 20.3996 10.8V4.79998C20.3996 4.13723 19.8624 3.59998 19.1996 3.59998H13.1996Z" fill="#00142E"/>
<path d="M13.1996 3.59998C12.5369 3.59998 11.9996 4.13723 11.9996 4.79998C11.9996 5.46272 12.5369 5.99998 13.1996 5.99998H16.3026L8.75108 13.5514C8.28245 14.0201 8.28245 14.7799 8.75108 15.2485C9.21971 15.7171 9.97951 15.7171 10.4481 15.2485L17.9996 7.69703V10.8C17.9996 11.4627 18.5369 12 19.1996 12C19.8624 12 20.3996 11.4627 20.3996 10.8V4.79998C20.3996 4.13723 19.8624 3.59998 19.1996 3.59998H13.1996Z" fill="black" fill-opacity="0.2"/>
<path d="M5.99961 5.99998C4.67413 5.99998 3.59961 7.07449 3.59961 8.39997V18C3.59961 19.3255 4.67413 20.4 5.99961 20.4H15.5996C16.9251 20.4 17.9996 19.3255 17.9996 18V14.4C17.9996 13.7372 17.4624 13.2 16.7996 13.2C16.1369 13.2 15.5996 13.7372 15.5996 14.4V18H5.99961V8.39997L9.59961 8.39998C10.2624 8.39998 10.7996 7.86272 10.7996 7.19998C10.7996 6.53723 10.2624 5.99998 9.59961 5.99998H5.99961Z" fill="#00142E"/>
<path d="M5.99961 5.99998C4.67413 5.99998 3.59961 7.07449 3.59961 8.39997V18C3.59961 19.3255 4.67413 20.4 5.99961 20.4H15.5996C16.9251 20.4 17.9996 19.3255 17.9996 18V14.4C17.9996 13.7372 17.4624 13.2 16.7996 13.2C16.1369 13.2 15.5996 13.7372 15.5996 14.4V18H5.99961V8.39997L9.59961 8.39998C10.2624 8.39998 10.7996 7.86272 10.7996 7.19998C10.7996 6.53723 10.2624 5.99998 9.59961 5.99998H5.99961Z" fill="black" fill-opacity="0.2"/>
</svg>
