<svg width="24" height="24" viewBox="0 0 24 24" fill="none" xmlns="http://www.w3.org/2000/svg">
<path fill-rule="evenodd" clip-rule="evenodd" d="M4.44872 2.7515C3.98009 2.28287 3.2203 2.28287 2.75167 2.7515C2.28304 3.22013 2.28304 3.97992 2.75167 4.44855L19.5517 21.2486C20.0203 21.7172 20.7801 21.7172 21.2487 21.2486C21.7174 20.7799 21.7174 20.0201 21.2487 19.5515L19.4809 17.7837C21.326 16.3109 22.727 14.3053 23.4511 12C21.9219 7.13148 17.3736 3.60002 12.0005 3.60002C10.0522 3.60002 8.21233 4.06433 6.58554 4.88832L4.44872 2.7515ZM9.56195 7.86472L11.3786 9.68138C11.577 9.62832 11.7854 9.60002 12.0005 9.60002C13.326 9.60002 14.4005 10.6745 14.4005 12C14.4005 12.2151 14.3722 12.4236 14.3191 12.6219L16.1358 14.4386C16.5581 13.7239 16.8005 12.8903 16.8005 12C16.8005 9.34906 14.6515 7.20002 12.0005 7.20002C11.1102 7.20002 10.2766 7.44238 9.56195 7.86472Z" fill="#00142E"/>
<path fill-rule="evenodd" clip-rule="evenodd" d="M4.44872 2.7515C3.98009 2.28287 3.2203 2.28287 2.75167 2.7515C2.28304 3.22013 2.28304 3.97992 2.75167 4.44855L19.5517 21.2486C20.0203 21.7172 20.7801 21.7172 21.2487 21.2486C21.7174 20.7799 21.7174 20.0201 21.2487 19.5515L19.4809 17.7837C21.326 16.3109 22.727 14.3053 23.4511 12C21.9219 7.13148 17.3736 3.60002 12.0005 3.60002C10.0522 3.60002 8.21233 4.06433 6.58554 4.88832L4.44872 2.7515ZM9.56195 7.86472L11.3786 9.68138C11.577 9.62832 11.7854 9.60002 12.0005 9.60002C13.326 9.60002 14.4005 10.6745 14.4005 12C14.4005 12.2151 14.3722 12.4236 14.3191 12.6219L16.1358 14.4386C16.5581 13.7239 16.8005 12.8903 16.8005 12C16.8005 9.34906 14.6515 7.20002 12.0005 7.20002C11.1102 7.20002 10.2766 7.44238 9.56195 7.86472Z" fill="black" fill-opacity="0.2"/>
<path d="M14.9451 20.0361L11.6998 16.7908C9.28835 16.6417 7.35883 14.7122 7.20977 12.3007L2.8021 7.89308C1.80095 9.0867 1.02784 10.478 0.549805 12.0001C2.07894 16.8686 6.62727 20.4 12.0004 20.4C13.0164 20.4 14.0029 20.2738 14.9451 20.0361Z" fill="#00142E"/>
<path d="M14.9451 20.0361L11.6998 16.7908C9.28835 16.6417 7.35883 14.7122 7.20977 12.3007L2.8021 7.89308C1.80095 9.0867 1.02784 10.478 0.549805 12.0001C2.07894 16.8686 6.62727 20.4 12.0004 20.4C13.0164 20.4 14.0029 20.2738 14.9451 20.0361Z" fill="black" fill-opacity="0.2"/>
</svg>
