<svg width="24" height="24" viewBox="0 0 24 24" fill="none" xmlns="http://www.w3.org/2000/svg">
<path d="M12.0005 14.4C13.326 14.4 14.4005 13.3255 14.4005 12C14.4005 10.6745 13.326 9.59998 12.0005 9.59998C10.675 9.59998 9.6005 10.6745 9.6005 12C9.6005 13.3255 10.675 14.4 12.0005 14.4Z" fill="#00142E"/>
<path d="M12.0005 14.4C13.326 14.4 14.4005 13.3255 14.4005 12C14.4005 10.6745 13.326 9.59998 12.0005 9.59998C10.675 9.59998 9.6005 10.6745 9.6005 12C9.6005 13.3255 10.675 14.4 12.0005 14.4Z" fill="black" fill-opacity="0.2"/>
<path fill-rule="evenodd" clip-rule="evenodd" d="M0.549805 12C2.07891 7.13147 6.62727 3.59998 12.0005 3.59998C17.3736 3.59998 21.9219 7.13143 23.4511 11.9999C21.922 16.8685 17.3736 20.4 12.0004 20.4C6.62727 20.4 2.07894 16.8685 0.549805 12ZM16.8005 12C16.8005 14.6509 14.6515 16.8 12.0005 16.8C9.34953 16.8 7.2005 14.6509 7.2005 12C7.2005 9.34901 9.34953 7.19998 12.0005 7.19998C14.6515 7.19998 16.8005 9.34901 16.8005 12Z" fill="#00142E"/>
<path fill-rule="evenodd" clip-rule="evenodd" d="M0.549805 12C2.07891 7.13147 6.62727 3.59998 12.0005 3.59998C17.3736 3.59998 21.9219 7.13143 23.4511 11.9999C21.922 16.8685 17.3736 20.4 12.0004 20.4C6.62727 20.4 2.07894 16.8685 0.549805 12ZM16.8005 12C16.8005 14.6509 14.6515 16.8 12.0005 16.8C9.34953 16.8 7.2005 14.6509 7.2005 12C7.2005 9.34901 9.34953 7.19998 12.0005 7.19998C14.6515 7.19998 16.8005 9.34901 16.8005 12Z" fill="black" fill-opacity="0.2"/>
</svg>
