<svg width="24" height="24" viewBox="0 0 24 24" fill="none" xmlns="http://www.w3.org/2000/svg">
<path d="M5.46525 6.20154C5.09702 5.95606 4.62357 5.93317 4.23338 6.14199C3.84319 6.35082 3.59961 6.75745 3.59961 7.2V16.8C3.59961 17.2426 3.84319 17.6492 4.23338 17.858C4.62357 18.0668 5.09702 18.0439 5.46525 17.7985L11.9996 13.4422V16.8C11.9996 17.2426 12.2432 17.6492 12.6334 17.858C13.0236 18.0668 13.497 18.0439 13.8652 17.7985L21.0652 12.9985C21.3991 12.7759 21.5996 12.4012 21.5996 12C21.5996 11.5988 21.3991 11.2241 21.0652 11.0015L13.8652 6.20154C13.497 5.95606 13.0236 5.93317 12.6334 6.14199C12.2432 6.35082 11.9996 6.75745 11.9996 7.2V10.5578L5.46525 6.20154Z" fill="#00142E"/>
<path d="M5.46525 6.20154C5.09702 5.95606 4.62357 5.93317 4.23338 6.14199C3.84319 6.35082 3.59961 6.75745 3.59961 7.2V16.8C3.59961 17.2426 3.84319 17.6492 4.23338 17.858C4.62357 18.0668 5.09702 18.0439 5.46525 17.7985L11.9996 13.4422V16.8C11.9996 17.2426 12.2432 17.6492 12.6334 17.858C13.0236 18.0668 13.497 18.0439 13.8652 17.7985L21.0652 12.9985C21.3991 12.7759 21.5996 12.4012 21.5996 12C21.5996 11.5988 21.3991 11.2241 21.0652 11.0015L13.8652 6.20154C13.497 5.95606 13.0236 5.93317 12.6334 6.14199C12.2432 6.35082 11.9996 6.75745 11.9996 7.2V10.5578L5.46525 6.20154Z" fill="black" fill-opacity="0.2"/>
</svg>
