<svg width="24" height="24" viewBox="0 0 24 24" fill="none" xmlns="http://www.w3.org/2000/svg">
<path fill-rule="evenodd" clip-rule="evenodd" d="M4.80039 3.59998C3.47491 3.59998 2.40039 4.67449 2.40039 5.99998V18C2.40039 19.3255 3.47491 20.4 4.80039 20.4H19.2004C20.5259 20.4 21.6004 19.3255 21.6004 18V5.99998C21.6004 4.67449 20.5259 3.59998 19.2004 3.59998H4.80039ZM8.40039 5.99998H15.6004V10.8H8.40039V5.99998ZM18.0004 15.6V18H19.2004V15.6H18.0004ZM15.6004 13.2H8.40039V18H15.6004V13.2ZM18.0004 13.2H19.2004V10.8H18.0004V13.2ZM19.2004 8.39998V5.99998H18.0004V8.39998H19.2004ZM6.00039 5.99998V8.39998H4.80039V5.99998H6.00039ZM6.00039 10.8H4.80039V13.2H6.00039V10.8ZM4.80039 15.6H6.00039V18H4.80039V15.6Z" fill="#00142E"/>
<path fill-rule="evenodd" clip-rule="evenodd" d="M4.80039 3.59998C3.47491 3.59998 2.40039 4.67449 2.40039 5.99998V18C2.40039 19.3255 3.47491 20.4 4.80039 20.4H19.2004C20.5259 20.4 21.6004 19.3255 21.6004 18V5.99998C21.6004 4.67449 20.5259 3.59998 19.2004 3.59998H4.80039ZM8.40039 5.99998H15.6004V10.8H8.40039V5.99998ZM18.0004 15.6V18H19.2004V15.6H18.0004ZM15.6004 13.2H8.40039V18H15.6004V13.2ZM18.0004 13.2H19.2004V10.8H18.0004V13.2ZM19.2004 8.39998V5.99998H18.0004V8.39998H19.2004ZM6.00039 5.99998V8.39998H4.80039V5.99998H6.00039ZM6.00039 10.8H4.80039V13.2H6.00039V10.8ZM4.80039 15.6H6.00039V18H4.80039V15.6Z" fill="black" fill-opacity="0.2"/>
</svg>
