<svg width="24" height="24" viewBox="0 0 24 24" fill="none" xmlns="http://www.w3.org/2000/svg">
<path fill-rule="evenodd" clip-rule="evenodd" d="M3.59961 3.60002C3.59961 2.93728 4.13687 2.40002 4.79961 2.40002H19.1996C19.8624 2.40002 20.3996 2.93728 20.3996 3.60002V7.20002C20.3996 7.51828 20.2732 7.82351 20.0481 8.04855L14.3996 13.6971V18C14.3996 18.3183 14.2732 18.6235 14.0481 18.8486L11.6481 21.2486C11.3049 21.5918 10.7888 21.6944 10.3404 21.5087C9.89198 21.3229 9.59961 20.8854 9.59961 20.4V13.6971L3.95108 8.04855C3.72604 7.82351 3.59961 7.51828 3.59961 7.20002V3.60002Z" fill="#00142E"/>
<path fill-rule="evenodd" clip-rule="evenodd" d="M3.59961 3.60002C3.59961 2.93728 4.13687 2.40002 4.79961 2.40002H19.1996C19.8624 2.40002 20.3996 2.93728 20.3996 3.60002V7.20002C20.3996 7.51828 20.2732 7.82351 20.0481 8.04855L14.3996 13.6971V18C14.3996 18.3183 14.2732 18.6235 14.0481 18.8486L11.6481 21.2486C11.3049 21.5918 10.7888 21.6944 10.3404 21.5087C9.89198 21.3229 9.59961 20.8854 9.59961 20.4V13.6971L3.95108 8.04855C3.72604 7.82351 3.59961 7.51828 3.59961 7.20002V3.60002Z" fill="black" fill-opacity="0.2"/>
</svg>
