<svg width="24" height="24" viewBox="0 0 24 24" fill="none" xmlns="http://www.w3.org/2000/svg">
<path fill-rule="evenodd" clip-rule="evenodd" d="M7.94994 3.18552C9.20228 2.67859 10.5702 2.40002 12.0002 2.40002C17.9649 2.40002 22.8002 7.23535 22.8002 13.2C22.8002 13.8628 22.2629 14.4 21.6002 14.4C20.9375 14.4 20.4002 13.8628 20.4002 13.2C20.4002 8.56083 16.6394 4.80002 12.0002 4.80002C10.884 4.80002 9.82155 5.01708 8.85045 5.41017C8.23613 5.65884 7.53654 5.36242 7.28787 4.7481C7.0392 4.13378 7.33562 3.43419 7.94994 3.18552ZM5.59427 5.95036C6.09116 6.38892 6.13844 7.14724 5.69988 7.64413C4.39228 9.12563 3.6002 11.0689 3.6002 13.2C3.6002 13.8628 3.06294 14.4 2.4002 14.4C1.73745 14.4 1.2002 13.8628 1.2002 13.2C1.2002 10.4618 2.22077 7.9591 3.90051 6.05597C4.33907 5.55908 5.09739 5.5118 5.59427 5.95036Z" fill="#00142E"/>
<path fill-rule="evenodd" clip-rule="evenodd" d="M7.94994 3.18552C9.20228 2.67859 10.5702 2.40002 12.0002 2.40002C17.9649 2.40002 22.8002 7.23535 22.8002 13.2C22.8002 13.8628 22.2629 14.4 21.6002 14.4C20.9375 14.4 20.4002 13.8628 20.4002 13.2C20.4002 8.56083 16.6394 4.80002 12.0002 4.80002C10.884 4.80002 9.82155 5.01708 8.85045 5.41017C8.23613 5.65884 7.53654 5.36242 7.28787 4.7481C7.0392 4.13378 7.33562 3.43419 7.94994 3.18552ZM5.59427 5.95036C6.09116 6.38892 6.13844 7.14724 5.69988 7.64413C4.39228 9.12563 3.6002 11.0689 3.6002 13.2C3.6002 13.8628 3.06294 14.4 2.4002 14.4C1.73745 14.4 1.2002 13.8628 1.2002 13.2C1.2002 10.4618 2.22077 7.9591 3.90051 6.05597C4.33907 5.55908 5.09739 5.5118 5.59427 5.95036Z" fill="black" fill-opacity="0.2"/>
<path fill-rule="evenodd" clip-rule="evenodd" d="M6.0002 13.2C6.0002 9.88632 8.68649 7.20002 12.0002 7.20002C15.3139 7.20002 18.0002 9.88632 18.0002 13.2C18.0002 13.8628 17.4629 14.4 16.8002 14.4C16.1375 14.4 15.6002 13.8628 15.6002 13.2C15.6002 11.2118 13.9884 9.60002 12.0002 9.60002C10.012 9.60002 8.4002 11.2118 8.4002 13.2C8.4002 15.2126 7.98662 17.1317 7.23867 18.8745C6.97731 19.4836 6.27171 19.7654 5.66268 19.504C5.05366 19.2427 4.77182 18.5371 5.03319 17.9281C5.65516 16.4787 6.0002 14.8812 6.0002 13.2ZM16.7056 15.6148C17.3601 15.7187 17.8066 16.3335 17.7028 16.988C17.5448 17.984 17.3255 18.9598 17.0489 19.9113C16.8639 20.5477 16.198 20.9137 15.5616 20.7287C14.9252 20.5436 14.5593 19.8778 14.7443 19.2414C14.993 18.3858 15.1903 17.5082 15.3324 16.612C15.4362 15.9575 16.051 15.511 16.7056 15.6148Z" fill="#00142E"/>
<path fill-rule="evenodd" clip-rule="evenodd" d="M6.0002 13.2C6.0002 9.88632 8.68649 7.20002 12.0002 7.20002C15.3139 7.20002 18.0002 9.88632 18.0002 13.2C18.0002 13.8628 17.4629 14.4 16.8002 14.4C16.1375 14.4 15.6002 13.8628 15.6002 13.2C15.6002 11.2118 13.9884 9.60002 12.0002 9.60002C10.012 9.60002 8.4002 11.2118 8.4002 13.2C8.4002 15.2126 7.98662 17.1317 7.23867 18.8745C6.97731 19.4836 6.27171 19.7654 5.66268 19.504C5.05366 19.2427 4.77182 18.5371 5.03319 17.9281C5.65516 16.4787 6.0002 14.8812 6.0002 13.2ZM16.7056 15.6148C17.3601 15.7187 17.8066 16.3335 17.7028 16.988C17.5448 17.984 17.3255 18.9598 17.0489 19.9113C16.8639 20.5477 16.198 20.9137 15.5616 20.7287C14.9252 20.5436 14.5593 19.8778 14.7443 19.2414C14.993 18.3858 15.1903 17.5082 15.3324 16.612C15.4362 15.9575 16.051 15.511 16.7056 15.6148Z" fill="black" fill-opacity="0.2"/>
<path fill-rule="evenodd" clip-rule="evenodd" d="M12.0002 12C12.6629 12 13.2002 12.5373 13.2002 13.2C13.2002 15.8836 12.6489 18.4415 11.6524 20.7643C11.3911 21.3733 10.6855 21.6552 10.0764 21.3939C9.46739 21.1326 9.18549 20.427 9.4468 19.818C10.3175 17.7887 10.8002 15.5523 10.8002 13.2C10.8002 12.5373 11.3375 12 12.0002 12Z" fill="#00142E"/>
<path fill-rule="evenodd" clip-rule="evenodd" d="M12.0002 12C12.6629 12 13.2002 12.5373 13.2002 13.2C13.2002 15.8836 12.6489 18.4415 11.6524 20.7643C11.3911 21.3733 10.6855 21.6552 10.0764 21.3939C9.46739 21.1326 9.18549 20.427 9.4468 19.818C10.3175 17.7887 10.8002 15.5523 10.8002 13.2C10.8002 12.5373 11.3375 12 12.0002 12Z" fill="black" fill-opacity="0.2"/>
</svg>
