<svg width="24" height="24" viewBox="0 0 24 24" fill="none" xmlns="http://www.w3.org/2000/svg">
<path fill-rule="evenodd" clip-rule="evenodd" d="M14.1077 2.44023C14.4404 2.52858 14.7191 2.75551 14.873 3.06337C15.4533 4.22392 15.8864 4.92829 16.3221 5.49938C16.7631 6.07746 17.2296 6.55069 17.9393 7.26036C19.5793 8.90033 20.3996 11.0522 20.3996 13.2001C20.3996 15.348 19.5793 17.4998 17.9393 19.1398C14.6589 22.4202 9.34032 22.4202 6.05991 19.1398C4.41995 17.4998 3.59961 15.348 3.59961 13.2001C3.59961 11.0522 4.41994 8.90033 6.05991 7.26036C6.40311 6.91716 6.91925 6.81449 7.36766 7.00023C7.81607 7.18597 8.10844 7.62353 8.10844 8.10889C8.10844 9.45266 8.19235 10.4766 8.58538 11.2933C8.8015 11.7423 9.13863 12.1814 9.71966 12.5732C9.85843 11.3003 10.1126 9.7494 10.4561 8.27735C10.7265 7.11837 11.0629 5.9613 11.4632 4.99642C11.6634 4.51381 11.8899 4.05427 12.147 3.65751C12.3973 3.27132 12.719 2.87832 13.1341 2.60157C13.4205 2.41064 13.7751 2.35189 14.1077 2.44023ZM14.5452 18.1456C13.1393 19.5515 10.8599 19.5515 9.45402 18.1456C8.75108 17.4427 8.39961 16.5214 8.39961 15.6C8.39961 15.6 9.45402 16.2 11.3997 16.2C11.3997 15 11.9997 11.4 12.8997 10.8C13.4997 12 13.8422 12.3515 14.5452 13.0544C15.2481 13.7574 15.5996 14.6787 15.5996 15.6C15.5996 16.5214 15.2481 17.4427 14.5452 18.1456Z" fill="#00142E"/>
<path fill-rule="evenodd" clip-rule="evenodd" d="M14.1077 2.44023C14.4404 2.52858 14.7191 2.75551 14.873 3.06337C15.4533 4.22392 15.8864 4.92829 16.3221 5.49938C16.7631 6.07746 17.2296 6.55069 17.9393 7.26036C19.5793 8.90033 20.3996 11.0522 20.3996 13.2001C20.3996 15.348 19.5793 17.4998 17.9393 19.1398C14.6589 22.4202 9.34032 22.4202 6.05991 19.1398C4.41995 17.4998 3.59961 15.348 3.59961 13.2001C3.59961 11.0522 4.41994 8.90033 6.05991 7.26036C6.40311 6.91716 6.91925 6.81449 7.36766 7.00023C7.81607 7.18597 8.10844 7.62353 8.10844 8.10889C8.10844 9.45266 8.19235 10.4766 8.58538 11.2933C8.8015 11.7423 9.13863 12.1814 9.71966 12.5732C9.85843 11.3003 10.1126 9.7494 10.4561 8.27735C10.7265 7.11837 11.0629 5.9613 11.4632 4.99642C11.6634 4.51381 11.8899 4.05427 12.147 3.65751C12.3973 3.27132 12.719 2.87832 13.1341 2.60157C13.4205 2.41064 13.7751 2.35189 14.1077 2.44023ZM14.5452 18.1456C13.1393 19.5515 10.8599 19.5515 9.45402 18.1456C8.75108 17.4427 8.39961 16.5214 8.39961 15.6C8.39961 15.6 9.45402 16.2 11.3997 16.2C11.3997 15 11.9997 11.4 12.8997 10.8C13.4997 12 13.8422 12.3515 14.5452 13.0544C15.2481 13.7574 15.5996 14.6787 15.5996 15.6C15.5996 16.5214 15.2481 17.4427 14.5452 18.1456Z" fill="black" fill-opacity="0.2"/>
</svg>
