<svg width="24" height="24" viewBox="0 0 24 24" fill="none" xmlns="http://www.w3.org/2000/svg">
<path fill-rule="evenodd" clip-rule="evenodd" d="M3.59961 7.19998C3.59961 5.21175 5.21138 3.59998 7.19961 3.59998H19.1996C19.6541 3.59998 20.0697 3.85678 20.2729 4.26332C20.4762 4.66986 20.4323 5.15635 20.1596 5.51998L17.0996 9.59998L20.1596 13.68C20.4323 14.0436 20.4762 14.5301 20.2729 14.9366C20.0697 15.3432 19.6541 15.6 19.1996 15.6H7.19961C6.53687 15.6 5.99961 16.1372 5.99961 16.8V20.4C5.99961 21.0627 5.46235 21.6 4.79961 21.6C4.13687 21.6 3.59961 21.0627 3.59961 20.4V7.19998Z" fill="#00142E"/>
<path fill-rule="evenodd" clip-rule="evenodd" d="M3.59961 7.19998C3.59961 5.21175 5.21138 3.59998 7.19961 3.59998H19.1996C19.6541 3.59998 20.0697 3.85678 20.2729 4.26332C20.4762 4.66986 20.4323 5.15635 20.1596 5.51998L17.0996 9.59998L20.1596 13.68C20.4323 14.0436 20.4762 14.5301 20.2729 14.9366C20.0697 15.3432 19.6541 15.6 19.1996 15.6H7.19961C6.53687 15.6 5.99961 16.1372 5.99961 16.8V20.4C5.99961 21.0627 5.46235 21.6 4.79961 21.6C4.13687 21.6 3.59961 21.0627 3.59961 20.4V7.19998Z" fill="black" fill-opacity="0.2"/>
</svg>
