<svg width="24" height="24" viewBox="0 0 24 24" fill="none" xmlns="http://www.w3.org/2000/svg">
<path fill-rule="evenodd" clip-rule="evenodd" d="M4.80039 4.79999C3.47491 4.79999 2.40039 5.8745 2.40039 7.19999V16.8C2.40039 18.1255 3.47491 19.2 4.80039 19.2H19.2004C20.5259 19.2 21.6004 18.1255 21.6004 16.8V9.59999C21.6004 8.2745 20.5259 7.19999 19.2004 7.19999H13.2004L10.8004 4.79999H4.80039ZM13.2004 10.8C13.2004 10.1372 12.6631 9.59999 12.0004 9.59999C11.3376 9.59999 10.8004 10.1372 10.8004 10.8V12H9.60039C8.93765 12 8.40039 12.5372 8.40039 13.2C8.40039 13.8627 8.93765 14.4 9.60039 14.4H10.8004V15.6C10.8004 16.2627 11.3376 16.8 12.0004 16.8C12.6631 16.8 13.2004 16.2627 13.2004 15.6V14.4H14.4004C15.0631 14.4 15.6004 13.8627 15.6004 13.2C15.6004 12.5372 15.0631 12 14.4004 12H13.2004V10.8Z" fill="#00142E"/>
<path fill-rule="evenodd" clip-rule="evenodd" d="M4.80039 4.79999C3.47491 4.79999 2.40039 5.8745 2.40039 7.19999V16.8C2.40039 18.1255 3.47491 19.2 4.80039 19.2H19.2004C20.5259 19.2 21.6004 18.1255 21.6004 16.8V9.59999C21.6004 8.2745 20.5259 7.19999 19.2004 7.19999H13.2004L10.8004 4.79999H4.80039ZM13.2004 10.8C13.2004 10.1372 12.6631 9.59999 12.0004 9.59999C11.3376 9.59999 10.8004 10.1372 10.8004 10.8V12H9.60039C8.93765 12 8.40039 12.5372 8.40039 13.2C8.40039 13.8627 8.93765 14.4 9.60039 14.4H10.8004V15.6C10.8004 16.2627 11.3376 16.8 12.0004 16.8C12.6631 16.8 13.2004 16.2627 13.2004 15.6V14.4H14.4004C15.0631 14.4 15.6004 13.8627 15.6004 13.2C15.6004 12.5372 15.0631 12 14.4004 12H13.2004V10.8Z" fill="black" fill-opacity="0.2"/>
</svg>
