<svg width="24" height="24" viewBox="0 0 24 24" fill="none" xmlns="http://www.w3.org/2000/svg">
<path fill-rule="evenodd" clip-rule="evenodd" d="M4.80039 4.79999C3.47491 4.79999 2.40039 5.8745 2.40039 7.19999V16.8C2.40039 18.1255 3.47491 19.2 4.80039 19.2H19.2004C20.5259 19.2 21.6004 18.1255 21.6004 16.8V9.59999C21.6004 8.2745 20.5259 7.19999 19.2004 7.19999H13.2004L10.8004 4.79999H4.80039ZM13.2004 10.8C13.2004 10.1372 12.6631 9.59999 12.0004 9.59999C11.3376 9.59999 10.8004 10.1372 10.8004 10.8V12.7029L10.4489 12.3515C9.98029 11.8828 9.22049 11.8828 8.75186 12.3515C8.28323 12.8201 8.28323 13.5799 8.75186 14.0485L11.1519 16.4485C11.6205 16.9171 12.3803 16.9171 12.8489 16.4485L15.2489 14.0485C15.7175 13.5799 15.7175 12.8201 15.2489 12.3515C14.7803 11.8828 14.0205 11.8828 13.5519 12.3515L13.2004 12.7029V10.8Z" fill="#00142E"/>
<path fill-rule="evenodd" clip-rule="evenodd" d="M4.80039 4.79999C3.47491 4.79999 2.40039 5.8745 2.40039 7.19999V16.8C2.40039 18.1255 3.47491 19.2 4.80039 19.2H19.2004C20.5259 19.2 21.6004 18.1255 21.6004 16.8V9.59999C21.6004 8.2745 20.5259 7.19999 19.2004 7.19999H13.2004L10.8004 4.79999H4.80039ZM13.2004 10.8C13.2004 10.1372 12.6631 9.59999 12.0004 9.59999C11.3376 9.59999 10.8004 10.1372 10.8004 10.8V12.7029L10.4489 12.3515C9.98029 11.8828 9.22049 11.8828 8.75186 12.3515C8.28323 12.8201 8.28323 13.5799 8.75186 14.0485L11.1519 16.4485C11.6205 16.9171 12.3803 16.9171 12.8489 16.4485L15.2489 14.0485C15.7175 13.5799 15.7175 12.8201 15.2489 12.3515C14.7803 11.8828 14.0205 11.8828 13.5519 12.3515L13.2004 12.7029V10.8Z" fill="black" fill-opacity="0.2"/>
</svg>
