<svg width="24" height="24" viewBox="0 0 24 24" fill="none" xmlns="http://www.w3.org/2000/svg">
<path fill-rule="evenodd" clip-rule="evenodd" d="M2.40039 7.19999C2.40039 5.8745 3.47491 4.79999 4.80039 4.79999H9.60039L12.0004 7.19999H16.8004C18.1259 7.19999 19.2004 8.2745 19.2004 9.59999V10.8H9.60039C7.61217 10.8 6.00039 12.4118 6.00039 14.4V16.2C6.00039 17.1941 5.1945 18 4.20039 18C3.20628 18 2.40039 17.1941 2.40039 16.2V7.19999Z" fill="#00142E"/>
<path fill-rule="evenodd" clip-rule="evenodd" d="M2.40039 7.19999C2.40039 5.8745 3.47491 4.79999 4.80039 4.79999H9.60039L12.0004 7.19999H16.8004C18.1259 7.19999 19.2004 8.2745 19.2004 9.59999V10.8H9.60039C7.61217 10.8 6.00039 12.4118 6.00039 14.4V16.2C6.00039 17.1941 5.1945 18 4.20039 18C3.20628 18 2.40039 17.1941 2.40039 16.2V7.19999Z" fill="black" fill-opacity="0.2"/>
<path d="M7.20039 14.4C7.20039 13.0745 8.27491 12 9.60039 12H19.2004C20.5259 12 21.6004 13.0745 21.6004 14.4V16.8C21.6004 18.1255 20.5259 19.2 19.2004 19.2H2.40039H4.80039C6.12587 19.2 7.20039 18.1255 7.20039 16.8V14.4Z" fill="#00142E"/>
<path d="M7.20039 14.4C7.20039 13.0745 8.27491 12 9.60039 12H19.2004C20.5259 12 21.6004 13.0745 21.6004 14.4V16.8C21.6004 18.1255 20.5259 19.2 19.2004 19.2H2.40039H4.80039C6.12587 19.2 7.20039 18.1255 7.20039 16.8V14.4Z" fill="black" fill-opacity="0.2"/>
</svg>
