<svg width="24" height="24" viewBox="0 0 24 24" fill="none" xmlns="http://www.w3.org/2000/svg">
<path fill-rule="evenodd" clip-rule="evenodd" d="M6.00039 6.00002C6.00039 4.0118 7.61217 2.40002 9.60039 2.40002C10.5224 2.40002 11.3635 2.74665 12.0004 3.3167C12.6373 2.74665 13.4784 2.40002 14.4004 2.40002C16.3886 2.40002 18.0004 4.0118 18.0004 6.00002C18.0004 6.42079 17.9282 6.82469 17.7955 7.20002H19.2004C20.5259 7.20002 21.6004 8.27454 21.6004 9.60002C21.6004 10.9255 20.5259 12 19.2004 12H13.2004V10.8C13.2004 10.1373 12.6631 9.60002 12.0004 9.60002C11.3376 9.60002 10.8004 10.1373 10.8004 10.8V12H4.80039C3.47491 12 2.40039 10.9255 2.40039 9.60002C2.40039 8.27454 3.47491 7.20002 4.80039 7.20002H6.20524C6.07258 6.82469 6.00039 6.42079 6.00039 6.00002ZM10.8004 7.20002V6.00002C10.8004 5.33728 10.2631 4.80002 9.60039 4.80002C8.93765 4.80002 8.40039 5.33728 8.40039 6.00002C8.40039 6.66277 8.93765 7.20002 9.60039 7.20002H10.8004ZM14.4004 7.20002C15.0631 7.20002 15.6004 6.66277 15.6004 6.00002C15.6004 5.33728 15.0631 4.80002 14.4004 4.80002C13.7376 4.80002 13.2004 5.33728 13.2004 6.00002V7.20002H14.4004Z" fill="#00142E"/>
<path fill-rule="evenodd" clip-rule="evenodd" d="M6.00039 6.00002C6.00039 4.0118 7.61217 2.40002 9.60039 2.40002C10.5224 2.40002 11.3635 2.74665 12.0004 3.3167C12.6373 2.74665 13.4784 2.40002 14.4004 2.40002C16.3886 2.40002 18.0004 4.0118 18.0004 6.00002C18.0004 6.42079 17.9282 6.82469 17.7955 7.20002H19.2004C20.5259 7.20002 21.6004 8.27454 21.6004 9.60002C21.6004 10.9255 20.5259 12 19.2004 12H13.2004V10.8C13.2004 10.1373 12.6631 9.60002 12.0004 9.60002C11.3376 9.60002 10.8004 10.1373 10.8004 10.8V12H4.80039C3.47491 12 2.40039 10.9255 2.40039 9.60002C2.40039 8.27454 3.47491 7.20002 4.80039 7.20002H6.20524C6.07258 6.82469 6.00039 6.42079 6.00039 6.00002ZM10.8004 7.20002V6.00002C10.8004 5.33728 10.2631 4.80002 9.60039 4.80002C8.93765 4.80002 8.40039 5.33728 8.40039 6.00002C8.40039 6.66277 8.93765 7.20002 9.60039 7.20002H10.8004ZM14.4004 7.20002C15.0631 7.20002 15.6004 6.66277 15.6004 6.00002C15.6004 5.33728 15.0631 4.80002 14.4004 4.80002C13.7376 4.80002 13.2004 5.33728 13.2004 6.00002V7.20002H14.4004Z" fill="black" fill-opacity="0.2"/>
<path d="M10.8004 13.2H3.60039V19.2C3.60039 20.5255 4.67491 21.6 6.00039 21.6H10.8004V13.2Z" fill="#00142E"/>
<path d="M10.8004 13.2H3.60039V19.2C3.60039 20.5255 4.67491 21.6 6.00039 21.6H10.8004V13.2Z" fill="black" fill-opacity="0.2"/>
<path d="M13.2004 21.6H18.0004C19.3259 21.6 20.4004 20.5255 20.4004 19.2V13.2H13.2004V21.6Z" fill="#00142E"/>
<path d="M13.2004 21.6H18.0004C19.3259 21.6 20.4004 20.5255 20.4004 19.2V13.2H13.2004V21.6Z" fill="black" fill-opacity="0.2"/>
</svg>
