<svg width="24" height="24" viewBox="0 0 24 24" fill="none" xmlns="http://www.w3.org/2000/svg">
<path fill-rule="evenodd" clip-rule="evenodd" d="M4.89994 10.8H7.23475C7.34179 8.94435 7.69512 7.23491 8.24012 5.85876C6.50141 6.92564 5.25055 8.7102 4.89994 10.8ZM12.0004 2.40002C6.69846 2.40002 2.40039 6.69809 2.40039 12C2.40039 17.302 6.69846 21.6 12.0004 21.6C17.3023 21.6 21.6004 17.302 21.6004 12C21.6004 6.69809 17.3023 2.40002 12.0004 2.40002ZM12.0004 4.80002C11.9091 4.80002 11.7218 4.83809 11.442 5.11424C11.1571 5.39547 10.8454 5.86191 10.5578 6.53303C10.0914 7.62135 9.75028 9.10273 9.63923 10.8H14.3615C14.2505 9.10273 13.9094 7.62135 13.443 6.53303C13.1554 5.86191 12.8437 5.39547 12.5588 5.11424C12.2789 4.83809 12.0917 4.80002 12.0004 4.80002ZM16.766 10.8C16.659 8.94435 16.3057 7.23491 15.7607 5.85876C17.4994 6.92564 18.7502 8.7102 19.1008 10.8H16.766ZM14.3615 13.2H9.63923C9.75028 14.8973 10.0914 16.3787 10.5578 17.467C10.8454 18.1381 11.1571 18.6046 11.442 18.8858C11.7218 19.162 11.9091 19.2 12.0004 19.2C12.0917 19.2 12.2789 19.162 12.5588 18.8858C12.8437 18.6046 13.1554 18.1381 13.443 17.467C13.9094 16.3787 14.2505 14.8973 14.3615 13.2ZM15.7607 18.1413C16.3057 16.7651 16.659 15.0557 16.766 13.2H19.1008C18.7502 15.2899 17.4994 17.0744 15.7607 18.1413ZM8.24012 18.1413C7.69513 16.7651 7.34179 15.0557 7.23475 13.2H4.89994C5.25055 15.2899 6.50141 17.0744 8.24012 18.1413Z" fill="#00142E"/>
<path fill-rule="evenodd" clip-rule="evenodd" d="M4.89994 10.8H7.23475C7.34179 8.94435 7.69512 7.23491 8.24012 5.85876C6.50141 6.92564 5.25055 8.7102 4.89994 10.8ZM12.0004 2.40002C6.69846 2.40002 2.40039 6.69809 2.40039 12C2.40039 17.302 6.69846 21.6 12.0004 21.6C17.3023 21.6 21.6004 17.302 21.6004 12C21.6004 6.69809 17.3023 2.40002 12.0004 2.40002ZM12.0004 4.80002C11.9091 4.80002 11.7218 4.83809 11.442 5.11424C11.1571 5.39547 10.8454 5.86191 10.5578 6.53303C10.0914 7.62135 9.75028 9.10273 9.63923 10.8H14.3615C14.2505 9.10273 13.9094 7.62135 13.443 6.53303C13.1554 5.86191 12.8437 5.39547 12.5588 5.11424C12.2789 4.83809 12.0917 4.80002 12.0004 4.80002ZM16.766 10.8C16.659 8.94435 16.3057 7.23491 15.7607 5.85876C17.4994 6.92564 18.7502 8.7102 19.1008 10.8H16.766ZM14.3615 13.2H9.63923C9.75028 14.8973 10.0914 16.3787 10.5578 17.467C10.8454 18.1381 11.1571 18.6046 11.442 18.8858C11.7218 19.162 11.9091 19.2 12.0004 19.2C12.0917 19.2 12.2789 19.162 12.5588 18.8858C12.8437 18.6046 13.1554 18.1381 13.443 17.467C13.9094 16.3787 14.2505 14.8973 14.3615 13.2ZM15.7607 18.1413C16.3057 16.7651 16.659 15.0557 16.766 13.2H19.1008C18.7502 15.2899 17.4994 17.0744 15.7607 18.1413ZM8.24012 18.1413C7.69513 16.7651 7.34179 15.0557 7.23475 13.2H4.89994C5.25055 15.2899 6.50141 17.0744 8.24012 18.1413Z" fill="black" fill-opacity="0.2"/>
</svg>
