<svg width="24" height="24" viewBox="0 0 24 24" fill="none" xmlns="http://www.w3.org/2000/svg">
<path fill-rule="evenodd" clip-rule="evenodd" d="M12.0004 21.6C17.3023 21.6 21.6004 17.302 21.6004 12C21.6004 6.69809 17.3023 2.40002 12.0004 2.40002C6.69846 2.40002 2.40039 6.69809 2.40039 12C2.40039 17.302 6.69846 21.6 12.0004 21.6ZM5.19854 9.63291C5.6469 8.34435 6.45108 7.22239 7.49344 6.38469C7.8149 6.87562 8.36978 7.19992 9.00041 7.19992C9.99452 7.19992 10.8004 8.0058 10.8004 8.99992V9.59992C10.8004 10.9254 11.8749 11.9999 13.2004 11.9999C14.5259 11.9999 15.6004 10.9254 15.6004 9.59992C15.6004 8.47178 16.3788 7.52543 17.4278 7.26865C18.5317 8.53396 19.2004 10.1889 19.2004 11.9999C19.2004 12.4089 19.1663 12.8098 19.1008 13.2001H18.0004C16.6749 13.2001 15.6004 14.2747 15.6004 15.6001V18.2367C14.5413 18.8493 13.3117 19.1999 12.0003 19.1999V16.8C12.0003 15.4745 10.9258 14.4 9.60029 14.4C8.27481 14.4 7.20029 13.3255 7.20029 12C7.20029 10.8102 6.33448 9.82262 5.19854 9.63291Z" fill="#00142E"/>
<path fill-rule="evenodd" clip-rule="evenodd" d="M12.0004 21.6C17.3023 21.6 21.6004 17.302 21.6004 12C21.6004 6.69809 17.3023 2.40002 12.0004 2.40002C6.69846 2.40002 2.40039 6.69809 2.40039 12C2.40039 17.302 6.69846 21.6 12.0004 21.6ZM5.19854 9.63291C5.6469 8.34435 6.45108 7.22239 7.49344 6.38469C7.8149 6.87562 8.36978 7.19992 9.00041 7.19992C9.99452 7.19992 10.8004 8.0058 10.8004 8.99992V9.59992C10.8004 10.9254 11.8749 11.9999 13.2004 11.9999C14.5259 11.9999 15.6004 10.9254 15.6004 9.59992C15.6004 8.47178 16.3788 7.52543 17.4278 7.26865C18.5317 8.53396 19.2004 10.1889 19.2004 11.9999C19.2004 12.4089 19.1663 12.8098 19.1008 13.2001H18.0004C16.6749 13.2001 15.6004 14.2747 15.6004 15.6001V18.2367C14.5413 18.8493 13.3117 19.1999 12.0003 19.1999V16.8C12.0003 15.4745 10.9258 14.4 9.60029 14.4C8.27481 14.4 7.20029 13.3255 7.20029 12C7.20029 10.8102 6.33448 9.82262 5.19854 9.63291Z" fill="black" fill-opacity="0.2"/>
</svg>
