<svg width="24" height="24" viewBox="0 0 24 24" fill="none" xmlns="http://www.w3.org/2000/svg">
<path d="M10.7996 3.60002C10.7996 2.93728 11.3369 2.40002 11.9996 2.40002C12.6624 2.40002 13.1996 2.93728 13.1996 3.60002V10.2C13.1996 10.5314 13.4682 10.8 13.7996 10.8C14.131 10.8 14.3996 10.5314 14.3996 10.2V4.80002C14.3996 4.13728 14.9369 3.60002 15.5996 3.60002C16.2624 3.60002 16.7996 4.13728 16.7996 4.80002V10.2C16.7996 10.5314 17.0682 10.8 17.3996 10.8C17.731 10.8 17.9996 10.5314 17.9996 10.2V7.20002C17.9996 6.53728 18.5369 6.00002 19.1996 6.00002C19.8623 6.00002 20.3996 6.53728 20.3996 7.20002V13.2C20.3996 17.8392 16.6388 21.6 11.9996 21.6C7.36042 21.6 3.59961 17.8392 3.59961 13.2V10.8C3.59961 10.1373 4.13687 9.60002 4.79961 9.60002C5.46235 9.60002 5.99961 10.1373 5.99961 10.8V13.8C5.99961 14.1314 6.26824 14.4 6.59961 14.4C6.93098 14.4 7.19961 14.1314 7.19961 13.8V4.80002C7.19961 4.13728 7.73687 3.60002 8.39961 3.60002C9.06235 3.60002 9.59961 4.13728 9.59961 4.80002V10.2C9.59961 10.5314 9.86824 10.8 10.1996 10.8C10.531 10.8 10.7996 10.5314 10.7996 10.2V3.60002Z" fill="#00142E"/>
<path d="M10.7996 3.60002C10.7996 2.93728 11.3369 2.40002 11.9996 2.40002C12.6624 2.40002 13.1996 2.93728 13.1996 3.60002V10.2C13.1996 10.5314 13.4682 10.8 13.7996 10.8C14.131 10.8 14.3996 10.5314 14.3996 10.2V4.80002C14.3996 4.13728 14.9369 3.60002 15.5996 3.60002C16.2624 3.60002 16.7996 4.13728 16.7996 4.80002V10.2C16.7996 10.5314 17.0682 10.8 17.3996 10.8C17.731 10.8 17.9996 10.5314 17.9996 10.2V7.20002C17.9996 6.53728 18.5369 6.00002 19.1996 6.00002C19.8623 6.00002 20.3996 6.53728 20.3996 7.20002V13.2C20.3996 17.8392 16.6388 21.6 11.9996 21.6C7.36042 21.6 3.59961 17.8392 3.59961 13.2V10.8C3.59961 10.1373 4.13687 9.60002 4.79961 9.60002C5.46235 9.60002 5.99961 10.1373 5.99961 10.8V13.8C5.99961 14.1314 6.26824 14.4 6.59961 14.4C6.93098 14.4 7.19961 14.1314 7.19961 13.8V4.80002C7.19961 4.13728 7.73687 3.60002 8.39961 3.60002C9.06235 3.60002 9.59961 4.13728 9.59961 4.80002V10.2C9.59961 10.5314 9.86824 10.8 10.1996 10.8C10.531 10.8 10.7996 10.5314 10.7996 10.2V3.60002Z" fill="black" fill-opacity="0.2"/>
</svg>
