<svg width="24" height="24" viewBox="0 0 24 24" fill="none" xmlns="http://www.w3.org/2000/svg">
<path fill-rule="evenodd" clip-rule="evenodd" d="M3.80628 6.20594C5.68079 4.33142 8.71999 4.33142 10.5945 6.20594L12.0004 7.61182L13.4063 6.20594C15.2808 4.33142 18.32 4.33142 20.1945 6.20594C22.069 8.08045 22.069 11.1196 20.1945 12.9942L12.0004 21.1883L3.80628 12.9942C1.93176 11.1196 1.93176 8.08045 3.80628 6.20594Z" fill="#00142E"/>
<path fill-rule="evenodd" clip-rule="evenodd" d="M3.80628 6.20594C5.68079 4.33142 8.71999 4.33142 10.5945 6.20594L12.0004 7.61182L13.4063 6.20594C15.2808 4.33142 18.32 4.33142 20.1945 6.20594C22.069 8.08045 22.069 11.1196 20.1945 12.9942L12.0004 21.1883L3.80628 12.9942C1.93176 11.1196 1.93176 8.08045 3.80628 6.20594Z" fill="black" fill-opacity="0.2"/>
</svg>
