<svg width="24" height="24" viewBox="0 0 24 24" fill="none" xmlns="http://www.w3.org/2000/svg">
<path d="M12.8489 2.7515C12.3803 2.28287 11.6205 2.28287 11.1519 2.7515L2.75186 11.1515C2.28323 11.6201 2.28323 12.3799 2.75186 12.8486C3.22049 13.3172 3.98029 13.3172 4.44892 12.8486L4.80039 12.4971V20.4C4.80039 21.0628 5.33765 21.6 6.00039 21.6H8.40039C9.06313 21.6 9.60039 21.0628 9.60039 20.4V18C9.60039 17.3373 10.1376 16.8 10.8004 16.8H13.2004C13.8631 16.8 14.4004 17.3373 14.4004 18V20.4C14.4004 21.0628 14.9376 21.6 15.6004 21.6H18.0004C18.6631 21.6 19.2004 21.0628 19.2004 20.4V12.4971L19.5519 12.8486C20.0205 13.3172 20.7803 13.3172 21.2489 12.8486C21.7175 12.3799 21.7175 11.6201 21.2489 11.1515L12.8489 2.7515Z" fill="#00142E"/>
<path d="M12.8489 2.7515C12.3803 2.28287 11.6205 2.28287 11.1519 2.7515L2.75186 11.1515C2.28323 11.6201 2.28323 12.3799 2.75186 12.8486C3.22049 13.3172 3.98029 13.3172 4.44892 12.8486L4.80039 12.4971V20.4C4.80039 21.0628 5.33765 21.6 6.00039 21.6H8.40039C9.06313 21.6 9.60039 21.0628 9.60039 20.4V18C9.60039 17.3373 10.1376 16.8 10.8004 16.8H13.2004C13.8631 16.8 14.4004 17.3373 14.4004 18V20.4C14.4004 21.0628 14.9376 21.6 15.6004 21.6H18.0004C18.6631 21.6 19.2004 21.0628 19.2004 20.4V12.4971L19.5519 12.8486C20.0205 13.3172 20.7803 13.3172 21.2489 12.8486C21.7175 12.3799 21.7175 11.6201 21.2489 11.1515L12.8489 2.7515Z" fill="black" fill-opacity="0.2"/>
</svg>
