<svg width="20" height="20" viewBox="0 0 20 20" fill="none" xmlns="http://www.w3.org/2000/svg">
<path fill-rule="evenodd" clip-rule="evenodd" d="M5.52081 2.14597C6.29249 2.08439 7.02508 1.78094 7.61428 1.27883C8.98925 0.10709 11.0115 0.10709 12.3865 1.27883C12.9757 1.78094 13.7083 2.08439 14.48 2.14597C16.2808 2.28968 17.7107 3.71965 17.8544 5.52044C17.916 6.29212 18.2195 7.02471 18.7216 7.61391C19.8933 8.98888 19.8933 11.0112 18.7216 12.3861C18.2195 12.9753 17.916 13.7079 17.8544 14.4796C17.7107 16.2804 16.2808 17.7104 14.48 17.8541C13.7083 17.9157 12.9757 18.2191 12.3865 18.7212C11.0115 19.893 8.98925 19.893 7.61428 18.7212C7.02508 18.2191 6.29249 17.9157 5.52081 17.8541C3.72002 17.7104 2.29004 16.2804 2.14634 14.4796C2.08476 13.7079 1.78131 12.9753 1.27919 12.3861C0.107456 11.0112 0.107456 8.98888 1.27919 7.61391C1.78131 7.02471 2.08476 6.29212 2.14634 5.52044C2.29004 3.71965 3.72002 2.28968 5.52081 2.14597ZM14.4489 8.44855C14.9175 7.97992 14.9175 7.22013 14.4489 6.7515C13.9803 6.28287 13.2205 6.28287 12.7519 6.7515L8.80039 10.703L7.24892 9.1515C6.78029 8.68287 6.02049 8.68287 5.55186 9.1515C5.08323 9.62013 5.08323 10.3799 5.55186 10.8486L7.95186 13.2486C8.42049 13.7172 9.18029 13.7172 9.64892 13.2486L14.4489 8.44855Z" fill="#00142E"/>
<path fill-rule="evenodd" clip-rule="evenodd" d="M5.52081 2.14597C6.29249 2.08439 7.02508 1.78094 7.61428 1.27883C8.98925 0.10709 11.0115 0.10709 12.3865 1.27883C12.9757 1.78094 13.7083 2.08439 14.48 2.14597C16.2808 2.28968 17.7107 3.71965 17.8544 5.52044C17.916 6.29212 18.2195 7.02471 18.7216 7.61391C19.8933 8.98888 19.8933 11.0112 18.7216 12.3861C18.2195 12.9753 17.916 13.7079 17.8544 14.4796C17.7107 16.2804 16.2808 17.7104 14.48 17.8541C13.7083 17.9157 12.9757 18.2191 12.3865 18.7212C11.0115 19.893 8.98925 19.893 7.61428 18.7212C7.02508 18.2191 6.29249 17.9157 5.52081 17.8541C3.72002 17.7104 2.29004 16.2804 2.14634 14.4796C2.08476 13.7079 1.78131 12.9753 1.27919 12.3861C0.107456 11.0112 0.107456 8.98888 1.27919 7.61391C1.78131 7.02471 2.08476 6.29212 2.14634 5.52044C2.29004 3.71965 3.72002 2.28968 5.52081 2.14597ZM14.4489 8.44855C14.9175 7.97992 14.9175 7.22013 14.4489 6.7515C13.9803 6.28287 13.2205 6.28287 12.7519 6.7515L8.80039 10.703L7.24892 9.1515C6.78029 8.68287 6.02049 8.68287 5.55186 9.1515C5.08323 9.62013 5.08323 10.3799 5.55186 10.8486L7.95186 13.2486C8.42049 13.7172 9.18029 13.7172 9.64892 13.2486L14.4489 8.44855Z" fill="black" fill-opacity="0.2"/>
</svg>
