<svg width="20" height="20" viewBox="0 0 20 20" fill="none" xmlns="http://www.w3.org/2000/svg">
<path d="M11.2004 1.60002C11.2004 0.937283 10.6631 0.400024 10.0004 0.400024C9.33765 0.400024 8.80039 0.937283 8.80039 1.60002V2.80002C8.80039 3.46277 9.33765 4.00002 10.0004 4.00002C10.6631 4.00002 11.2004 3.46277 11.2004 2.80002V1.60002Z" fill="#00142E"/>
<path d="M11.2004 1.60002C11.2004 0.937283 10.6631 0.400024 10.0004 0.400024C9.33765 0.400024 8.80039 0.937283 8.80039 1.60002V2.80002C8.80039 3.46277 9.33765 4.00002 10.0004 4.00002C10.6631 4.00002 11.2004 3.46277 11.2004 2.80002V1.60002Z" fill="black" fill-opacity="0.2"/>
<path d="M16.7886 4.90879C17.2572 4.44016 17.2572 3.68037 16.7886 3.21174C16.3199 2.74311 15.5601 2.74311 15.0915 3.21174L14.243 4.06026C13.7744 4.52889 13.7744 5.28869 14.243 5.75732C14.7116 6.22595 15.4714 6.22595 15.94 5.75732L16.7886 4.90879Z" fill="#00142E"/>
<path d="M16.7886 4.90879C17.2572 4.44016 17.2572 3.68037 16.7886 3.21174C16.3199 2.74311 15.5601 2.74311 15.0915 3.21174L14.243 4.06026C13.7744 4.52889 13.7744 5.28869 14.243 5.75732C14.7116 6.22595 15.4714 6.22595 15.94 5.75732L16.7886 4.90879Z" fill="black" fill-opacity="0.2"/>
<path d="M19.6004 10C19.6004 10.6628 19.0631 11.2 18.4004 11.2H17.2004C16.5376 11.2 16.0004 10.6628 16.0004 10C16.0004 9.33728 16.5377 8.80002 17.2004 8.80002H18.4004C19.0631 8.80002 19.6004 9.33728 19.6004 10Z" fill="#00142E"/>
<path d="M19.6004 10C19.6004 10.6628 19.0631 11.2 18.4004 11.2H17.2004C16.5376 11.2 16.0004 10.6628 16.0004 10C16.0004 9.33728 16.5377 8.80002 17.2004 8.80002H18.4004C19.0631 8.80002 19.6004 9.33728 19.6004 10Z" fill="black" fill-opacity="0.2"/>
<path d="M4.06062 5.75734C4.52925 6.22597 5.28904 6.22597 5.75767 5.75734C6.2263 5.28871 6.2263 4.52891 5.75767 4.06029L4.90914 3.21176C4.44052 2.74313 3.68072 2.74313 3.21209 3.21176C2.74346 3.68039 2.74346 4.44018 3.21209 4.90881L4.06062 5.75734Z" fill="#00142E"/>
<path d="M4.06062 5.75734C4.52925 6.22597 5.28904 6.22597 5.75767 5.75734C6.2263 5.28871 6.2263 4.52891 5.75767 4.06029L4.90914 3.21176C4.44052 2.74313 3.68072 2.74313 3.21209 3.21176C2.74346 3.68039 2.74346 4.44018 3.21209 4.90881L4.06062 5.75734Z" fill="black" fill-opacity="0.2"/>
<path d="M4.00039 10C4.00039 10.6628 3.46313 11.2 2.80039 11.2H1.60039C0.937649 11.2 0.40039 10.6628 0.400391 10C0.400391 9.33728 0.937649 8.80002 1.60039 8.80002H2.80039C3.46313 8.80002 4.00039 9.33728 4.00039 10Z" fill="#00142E"/>
<path d="M4.00039 10C4.00039 10.6628 3.46313 11.2 2.80039 11.2H1.60039C0.937649 11.2 0.40039 10.6628 0.400391 10C0.400391 9.33728 0.937649 8.80002 1.60039 8.80002H2.80039C3.46313 8.80002 4.00039 9.33728 4.00039 10Z" fill="black" fill-opacity="0.2"/>
<path d="M7.60039 17.2V16H12.4004V17.2C12.4004 18.5255 11.3259 19.6 10.0004 19.6C8.67491 19.6 7.60039 18.5255 7.60039 17.2Z" fill="#00142E"/>
<path d="M7.60039 17.2V16H12.4004V17.2C12.4004 18.5255 11.3259 19.6 10.0004 19.6C8.67491 19.6 7.60039 18.5255 7.60039 17.2Z" fill="black" fill-opacity="0.2"/>
<path d="M12.4015 14.8C12.419 14.3916 12.6495 14.0245 12.9726 13.7694C14.0859 12.8903 14.8004 11.5286 14.8004 10C14.8004 7.34906 12.6514 5.20002 10.0004 5.20002C7.34942 5.20002 5.20039 7.34906 5.20039 10C5.20039 11.5286 5.91493 12.8903 7.02822 13.7694C7.35128 14.0245 7.58181 14.3916 7.59932 14.8H12.4015Z" fill="#00142E"/>
<path d="M12.4015 14.8C12.419 14.3916 12.6495 14.0245 12.9726 13.7694C14.0859 12.8903 14.8004 11.5286 14.8004 10C14.8004 7.34906 12.6514 5.20002 10.0004 5.20002C7.34942 5.20002 5.20039 7.34906 5.20039 10C5.20039 11.5286 5.91493 12.8903 7.02822 13.7694C7.35128 14.0245 7.58181 14.3916 7.59932 14.8H12.4015Z" fill="black" fill-opacity="0.2"/>
</svg>
