<svg width="20" height="20" viewBox="0 0 20 20" fill="none" xmlns="http://www.w3.org/2000/svg">
<path fill-rule="evenodd" clip-rule="evenodd" d="M0.599719 3.99871C4.20964 3.94974 7.49873 2.57242 10.0004 0.333374C12.5021 2.57242 15.7911 3.94974 19.4011 3.99871C19.5322 4.77964 19.6004 5.58188 19.6004 6.40006C19.6004 12.6699 15.5933 18.0038 10.0004 19.9806C4.40747 18.0038 0.400391 12.6699 0.400391 6.40006C0.400391 5.58188 0.468627 4.77964 0.599719 3.99871ZM14.4489 8.44855C14.9175 7.97992 14.9175 7.22013 14.4489 6.7515C13.9803 6.28287 13.2205 6.28287 12.7519 6.7515L8.80039 10.703L7.24892 9.1515C6.78029 8.68287 6.02049 8.68287 5.55186 9.1515C5.08323 9.62013 5.08323 10.3799 5.55186 10.8486L7.95186 13.2486C8.42049 13.7172 9.18029 13.7172 9.64892 13.2486L14.4489 8.44855Z" fill="#00142E"/>
<path fill-rule="evenodd" clip-rule="evenodd" d="M0.599719 3.99871C4.20964 3.94974 7.49873 2.57242 10.0004 0.333374C12.5021 2.57242 15.7911 3.94974 19.4011 3.99871C19.5322 4.77964 19.6004 5.58188 19.6004 6.40006C19.6004 12.6699 15.5933 18.0038 10.0004 19.9806C4.40747 18.0038 0.400391 12.6699 0.400391 6.40006C0.400391 5.58188 0.468627 4.77964 0.599719 3.99871ZM14.4489 8.44855C14.9175 7.97992 14.9175 7.22013 14.4489 6.7515C13.9803 6.28287 13.2205 6.28287 12.7519 6.7515L8.80039 10.703L7.24892 9.1515C6.78029 8.68287 6.02049 8.68287 5.55186 9.1515C5.08323 9.62013 5.08323 10.3799 5.55186 10.8486L7.95186 13.2486C8.42049 13.7172 9.18029 13.7172 9.64892 13.2486L14.4489 8.44855Z" fill="black" fill-opacity="0.2"/>
</svg>
