<svg width="18" height="20" viewBox="0 0 18 20" fill="none" xmlns="http://www.w3.org/2000/svg">
<path d="M8.99964 0.400024C5.02319 0.400024 1.79964 3.62357 1.79964 7.60002V11.903L0.951116 12.7515C0.607919 13.0947 0.505252 13.6108 0.690989 14.0592C0.876726 14.5077 1.31429 14.8 1.79964 14.8H16.1996C16.685 14.8 17.1226 14.5077 17.3083 14.0592C17.494 13.6108 17.3914 13.0947 17.0482 12.7515L16.1996 11.903V7.60002C16.1996 3.62357 12.9761 0.400024 8.99964 0.400024Z" fill="#00142E"/>
<path d="M8.99964 0.400024C5.02319 0.400024 1.79964 3.62357 1.79964 7.60002V11.903L0.951116 12.7515C0.607919 13.0947 0.505252 13.6108 0.690989 14.0592C0.876726 14.5077 1.31429 14.8 1.79964 14.8H16.1996C16.685 14.8 17.1226 14.5077 17.3083 14.0592C17.494 13.6108 17.3914 13.0947 17.0482 12.7515L16.1996 11.903V7.60002C16.1996 3.62357 12.9761 0.400024 8.99964 0.400024Z" fill="black" fill-opacity="0.2"/>
<path d="M8.99961 19.6C7.01138 19.6 5.39961 17.9883 5.39961 16H12.5996C12.5996 17.9883 10.9878 19.6 8.99961 19.6Z" fill="#00142E"/>
<path d="M8.99961 19.6C7.01138 19.6 5.39961 17.9883 5.39961 16H12.5996C12.5996 17.9883 10.9878 19.6 8.99961 19.6Z" fill="black" fill-opacity="0.2"/>
</svg>
