<svg width="20" height="20" viewBox="0 0 20 20" fill="none" xmlns="http://www.w3.org/2000/svg">
<path d="M5.20039 1.60002C5.20039 0.937283 5.73765 0.400024 6.40039 0.400024H6.41239C7.07513 0.400024 7.61239 0.937283 7.61239 1.60002C7.61239 2.26277 7.07513 2.80002 6.41239 2.80002H6.40039C5.73765 2.80002 5.20039 2.26277 5.20039 1.60002Z" fill="#00142E"/>
<path d="M5.20039 1.60002C5.20039 0.937283 5.73765 0.400024 6.40039 0.400024H6.41239C7.07513 0.400024 7.61239 0.937283 7.61239 1.60002C7.61239 2.26277 7.07513 2.80002 6.41239 2.80002H6.40039C5.73765 2.80002 5.20039 2.26277 5.20039 1.60002Z" fill="black" fill-opacity="0.2"/>
<path d="M7.60039 5.20002C7.60039 4.53728 7.06313 4.00002 6.40039 4.00002C5.73765 4.00002 5.20039 4.53728 5.20039 5.20002V6.40002C3.87491 6.40002 2.80039 7.47454 2.80039 8.80002V10C1.47491 10 0.400391 11.0745 0.400391 12.4V13.22C0.842812 13.344 1.27038 13.5379 1.66603 13.8016C2.35294 14.2596 3.24784 14.2596 3.93475 13.8016C5.42782 12.8063 7.37296 12.8063 8.86603 13.8016C9.55294 14.2596 10.4478 14.2596 11.1348 13.8016C12.6278 12.8063 14.573 12.8063 16.066 13.8016C16.7529 14.2596 17.6478 14.2596 18.3348 13.8016C18.7304 13.5379 19.158 13.344 19.6004 13.22V12.4C19.6004 11.0745 18.5259 10 17.2004 10V8.80002C17.2004 7.47454 16.1259 6.40002 14.8004 6.40002V5.20002C14.8004 4.53728 14.2631 4.00002 13.6004 4.00002C12.9376 4.00002 12.4004 4.53728 12.4004 5.20002V6.40002H11.2004V5.20002C11.2004 4.53728 10.6631 4.00002 10.0004 4.00002C9.33765 4.00002 8.80039 4.53728 8.80039 5.20002V6.40002H7.60039V5.20002Z" fill="#00142E"/>
<path d="M7.60039 5.20002C7.60039 4.53728 7.06313 4.00002 6.40039 4.00002C5.73765 4.00002 5.20039 4.53728 5.20039 5.20002V6.40002C3.87491 6.40002 2.80039 7.47454 2.80039 8.80002V10C1.47491 10 0.400391 11.0745 0.400391 12.4V13.22C0.842812 13.344 1.27038 13.5379 1.66603 13.8016C2.35294 14.2596 3.24784 14.2596 3.93475 13.8016C5.42782 12.8063 7.37296 12.8063 8.86603 13.8016C9.55294 14.2596 10.4478 14.2596 11.1348 13.8016C12.6278 12.8063 14.573 12.8063 16.066 13.8016C16.7529 14.2596 17.6478 14.2596 18.3348 13.8016C18.7304 13.5379 19.158 13.344 19.6004 13.22V12.4C19.6004 11.0745 18.5259 10 17.2004 10V8.80002C17.2004 7.47454 16.1259 6.40002 14.8004 6.40002V5.20002C14.8004 4.53728 14.2631 4.00002 13.6004 4.00002C12.9376 4.00002 12.4004 4.53728 12.4004 5.20002V6.40002H11.2004V5.20002C11.2004 4.53728 10.6631 4.00002 10.0004 4.00002C9.33765 4.00002 8.80039 4.53728 8.80039 5.20002V6.40002H7.60039V5.20002Z" fill="black" fill-opacity="0.2"/>
<path d="M19.6004 15.8415C18.1163 16.7937 16.206 16.7794 14.7348 15.7986C14.0478 15.3406 13.1529 15.3406 12.466 15.7986C10.973 16.7939 9.02782 16.7939 7.53475 15.7986C6.84784 15.3406 5.95294 15.3406 5.26603 15.7986C3.79474 16.7794 1.88449 16.7937 0.400391 15.8415V18.4C0.400391 19.0628 0.937649 19.6 1.60039 19.6H18.4004C19.0631 19.6 19.6004 19.0628 19.6004 18.4V15.8415Z" fill="#00142E"/>
<path d="M19.6004 15.8415C18.1163 16.7937 16.206 16.7794 14.7348 15.7986C14.0478 15.3406 13.1529 15.3406 12.466 15.7986C10.973 16.7939 9.02782 16.7939 7.53475 15.7986C6.84784 15.3406 5.95294 15.3406 5.26603 15.7986C3.79474 16.7794 1.88449 16.7937 0.400391 15.8415V18.4C0.400391 19.0628 0.937649 19.6 1.60039 19.6H18.4004C19.0631 19.6 19.6004 19.0628 19.6004 18.4V15.8415Z" fill="black" fill-opacity="0.2"/>
<path d="M8.80039 1.60002C8.80039 0.937283 9.33765 0.400024 10.0004 0.400024H10.0124C10.6751 0.400024 11.2124 0.937283 11.2124 1.60002C11.2124 2.26277 10.6751 2.80002 10.0124 2.80002H10.0004C9.33765 2.80002 8.80039 2.26277 8.80039 1.60002Z" fill="#00142E"/>
<path d="M8.80039 1.60002C8.80039 0.937283 9.33765 0.400024 10.0004 0.400024H10.0124C10.6751 0.400024 11.2124 0.937283 11.2124 1.60002C11.2124 2.26277 10.6751 2.80002 10.0124 2.80002H10.0004C9.33765 2.80002 8.80039 2.26277 8.80039 1.60002Z" fill="black" fill-opacity="0.2"/>
<path d="M12.4004 1.60002C12.4004 0.937283 12.9376 0.400024 13.6004 0.400024H13.6124C14.2751 0.400024 14.8124 0.937283 14.8124 1.60002C14.8124 2.26277 14.2751 2.80002 13.6124 2.80002H13.6004C12.9376 2.80002 12.4004 2.26277 12.4004 1.60002Z" fill="#00142E"/>
<path d="M12.4004 1.60002C12.4004 0.937283 12.9376 0.400024 13.6004 0.400024H13.6124C14.2751 0.400024 14.8124 0.937283 14.8124 1.60002C14.8124 2.26277 14.2751 2.80002 13.6124 2.80002H13.6004C12.9376 2.80002 12.4004 2.26277 12.4004 1.60002Z" fill="black" fill-opacity="0.2"/>
</svg>
