<svg width="20" height="16" viewBox="0 0 20 16" fill="none" xmlns="http://www.w3.org/2000/svg">
<path d="M0.404391 3.06031L10.0003 7.85828L19.5964 3.06025C19.524 1.79983 18.4789 0.800049 17.2004 0.800049H2.80039C1.52181 0.800049 0.476752 1.79986 0.404391 3.06031Z" fill="#00142E"/>
<path d="M0.404391 3.06031L10.0003 7.85828L19.5964 3.06025C19.524 1.79983 18.4789 0.800049 17.2004 0.800049H2.80039C1.52181 0.800049 0.476752 1.79986 0.404391 3.06031Z" fill="black" fill-opacity="0.2"/>
<path d="M19.6004 5.74153L10.0003 10.5416L0.400391 5.7416V12.8C0.400391 14.1255 1.47491 15.2 2.80039 15.2H17.2004C18.5259 15.2 19.6004 14.1255 19.6004 12.8V5.74153Z" fill="#00142E"/>
<path d="M19.6004 5.74153L10.0003 10.5416L0.400391 5.7416V12.8C0.400391 14.1255 1.47491 15.2 2.80039 15.2H17.2004C18.5259 15.2 19.6004 14.1255 19.6004 12.8V5.74153Z" fill="black" fill-opacity="0.2"/>
</svg>
