<svg width="18" height="22" viewBox="0 0 18 22" fill="none" xmlns="http://www.w3.org/2000/svg">
<path fill-rule="evenodd" clip-rule="evenodd" d="M10.5604 0.255553C11.0599 0.413017 11.3996 0.876274 11.3996 1.40004V7.40004L16.1996 7.40004C16.6471 7.40004 17.0574 7.64899 17.264 8.04587C17.4706 8.44275 17.4393 8.92163 17.1827 9.28819L8.78269 21.2882C8.48233 21.7173 7.93838 21.902 7.43885 21.7445C6.93931 21.5871 6.59961 21.1238 6.59961 20.6L6.59961 14.6H1.79961C1.35216 14.6 0.941876 14.3511 0.735238 13.9542C0.528601 13.5573 0.559939 13.0784 0.816535 12.7119L9.21653 0.711883C9.51689 0.282799 10.0608 0.0980885 10.5604 0.255553Z" fill="#00142E"/>
<path fill-rule="evenodd" clip-rule="evenodd" d="M10.5604 0.255553C11.0599 0.413017 11.3996 0.876274 11.3996 1.40004V7.40004L16.1996 7.40004C16.6471 7.40004 17.0574 7.64899 17.264 8.04587C17.4706 8.44275 17.4393 8.92163 17.1827 9.28819L8.78269 21.2882C8.48233 21.7173 7.93838 21.902 7.43885 21.7445C6.93931 21.5871 6.59961 21.1238 6.59961 20.6L6.59961 14.6H1.79961C1.35216 14.6 0.941876 14.3511 0.735238 13.9542C0.528601 13.5573 0.559939 13.0784 0.816535 12.7119L9.21653 0.711883C9.51689 0.282799 10.0608 0.0980885 10.5604 0.255553Z" fill="black" fill-opacity="0.2"/>
</svg>
