<svg width="18" height="20" viewBox="0 0 18 20" fill="none" xmlns="http://www.w3.org/2000/svg">
<path fill-rule="evenodd" clip-rule="evenodd" d="M1.79961 0.400024C2.46235 0.400024 2.99961 0.937283 2.99961 1.60002V4.12153C4.52372 2.56589 6.64823 1.60002 8.99961 1.60002C12.6589 1.60002 15.7688 3.93921 16.9213 7.20013C17.1422 7.82499 16.8147 8.51058 16.1898 8.73143C15.565 8.95229 14.8794 8.62478 14.6585 7.99992C13.8343 5.66792 11.6102 4.00002 8.99961 4.00002C7.03769 4.00002 5.29405 4.94205 4.19883 6.40002H7.79961C8.46235 6.40002 8.99961 6.93728 8.99961 7.60002C8.99961 8.26277 8.46235 8.80002 7.79961 8.80002H1.79961C1.13687 8.80002 0.599609 8.26277 0.599609 7.60002V1.60002C0.599609 0.937283 1.13687 0.400024 1.79961 0.400024ZM1.80941 11.2686C2.43427 11.0478 3.11986 11.3753 3.34071 12.0001C4.16496 14.3321 6.38905 16 8.99961 16C10.9615 16 12.7052 15.058 13.8004 13.6L10.1996 13.6C9.53687 13.6 8.99961 13.0628 8.99961 12.4C8.99961 11.7373 9.53687 11.2 10.1996 11.2H16.1996C16.5179 11.2 16.8231 11.3265 17.0481 11.5515C17.2732 11.7765 17.3996 12.0818 17.3996 12.4V18.4C17.3996 19.0628 16.8624 19.6 16.1996 19.6C15.5369 19.6 14.9996 19.0628 14.9996 18.4V15.8785C13.4755 17.4342 11.351 18.4 8.99961 18.4C5.34032 18.4 2.23047 16.0608 1.0779 12.7999C0.857039 12.1751 1.18455 11.4895 1.80941 11.2686Z" fill="#00142E"/>
<path fill-rule="evenodd" clip-rule="evenodd" d="M1.79961 0.400024C2.46235 0.400024 2.99961 0.937283 2.99961 1.60002V4.12153C4.52372 2.56589 6.64823 1.60002 8.99961 1.60002C12.6589 1.60002 15.7688 3.93921 16.9213 7.20013C17.1422 7.82499 16.8147 8.51058 16.1898 8.73143C15.565 8.95229 14.8794 8.62478 14.6585 7.99992C13.8343 5.66792 11.6102 4.00002 8.99961 4.00002C7.03769 4.00002 5.29405 4.94205 4.19883 6.40002H7.79961C8.46235 6.40002 8.99961 6.93728 8.99961 7.60002C8.99961 8.26277 8.46235 8.80002 7.79961 8.80002H1.79961C1.13687 8.80002 0.599609 8.26277 0.599609 7.60002V1.60002C0.599609 0.937283 1.13687 0.400024 1.79961 0.400024ZM1.80941 11.2686C2.43427 11.0478 3.11986 11.3753 3.34071 12.0001C4.16496 14.3321 6.38905 16 8.99961 16C10.9615 16 12.7052 15.058 13.8004 13.6L10.1996 13.6C9.53687 13.6 8.99961 13.0628 8.99961 12.4C8.99961 11.7373 9.53687 11.2 10.1996 11.2H16.1996C16.5179 11.2 16.8231 11.3265 17.0481 11.5515C17.2732 11.7765 17.3996 12.0818 17.3996 12.4V18.4C17.3996 19.0628 16.8624 19.6 16.1996 19.6C15.5369 19.6 14.9996 19.0628 14.9996 18.4V15.8785C13.4755 17.4342 11.351 18.4 8.99961 18.4C5.34032 18.4 2.23047 16.0608 1.0779 12.7999C0.857039 12.1751 1.18455 11.4895 1.80941 11.2686Z" fill="black" fill-opacity="0.2"/>
</svg>
