<svg width="20" height="20" viewBox="0 0 20 20" fill="none" xmlns="http://www.w3.org/2000/svg">
<path fill-rule="evenodd" clip-rule="evenodd" d="M10.0004 0.333374C7.49873 2.57242 4.20964 3.94974 0.599719 3.99871C0.468627 4.77964 0.400391 5.58188 0.400391 6.40006C0.400391 12.6699 4.40747 18.0038 10.0004 19.9806C15.5933 18.0038 19.6004 12.6699 19.6004 6.40006C19.6004 5.58188 19.5322 4.77964 19.4011 3.99871C15.7911 3.94974 12.5021 2.57242 10.0004 0.333374ZM11.2004 14.8C11.2004 15.4628 10.6631 16 10.0004 16C9.33765 16 8.80039 15.4628 8.80039 14.8C8.80039 14.1373 9.33765 13.6 10.0004 13.6C10.6631 13.6 11.2004 14.1373 11.2004 14.8ZM11.2004 6.40002C11.2004 5.73728 10.6631 5.20002 10.0004 5.20002C9.33765 5.20002 8.80039 5.73728 8.80039 6.40002V10C8.80039 10.6628 9.33765 11.2 10.0004 11.2C10.6631 11.2 11.2004 10.6628 11.2004 10V6.40002Z" fill="#00142E"/>
<path fill-rule="evenodd" clip-rule="evenodd" d="M10.0004 0.333374C7.49873 2.57242 4.20964 3.94974 0.599719 3.99871C0.468627 4.77964 0.400391 5.58188 0.400391 6.40006C0.400391 12.6699 4.40747 18.0038 10.0004 19.9806C15.5933 18.0038 19.6004 12.6699 19.6004 6.40006C19.6004 5.58188 19.5322 4.77964 19.4011 3.99871C15.7911 3.94974 12.5021 2.57242 10.0004 0.333374ZM11.2004 14.8C11.2004 15.4628 10.6631 16 10.0004 16C9.33765 16 8.80039 15.4628 8.80039 14.8C8.80039 14.1373 9.33765 13.6 10.0004 13.6C10.6631 13.6 11.2004 14.1373 11.2004 14.8ZM11.2004 6.40002C11.2004 5.73728 10.6631 5.20002 10.0004 5.20002C9.33765 5.20002 8.80039 5.73728 8.80039 6.40002V10C8.80039 10.6628 9.33765 11.2 10.0004 11.2C10.6631 11.2 11.2004 10.6628 11.2004 10V6.40002Z" fill="black" fill-opacity="0.2"/>
</svg>
