<svg width="18" height="20" viewBox="0 0 18 20" fill="none" xmlns="http://www.w3.org/2000/svg">
<path d="M7.79961 1.60002C7.79961 0.937283 8.33687 0.400024 8.99961 0.400024C9.66235 0.400024 10.1996 0.937283 10.1996 1.60002V8.20002C10.1996 8.5314 10.4682 8.80002 10.7996 8.80002C11.131 8.80002 11.3996 8.5314 11.3996 8.20002V2.80002C11.3996 2.13728 11.9369 1.60002 12.5996 1.60002C13.2623 1.60002 13.7996 2.13728 13.7996 2.80002V8.20002C13.7996 8.5314 14.0682 8.80002 14.3996 8.80002C14.731 8.80002 14.9996 8.5314 14.9996 8.20002V5.20002C14.9996 4.53728 15.5369 4.00002 16.1996 4.00002C16.8623 4.00002 17.3996 4.53728 17.3996 5.20002V11.2C17.3996 15.8392 13.6388 19.6 8.99961 19.6C4.36042 19.6 0.599609 15.8392 0.599609 11.2V8.80002C0.599609 8.13728 1.13687 7.60002 1.79961 7.60002C2.46235 7.60002 2.99961 8.13728 2.99961 8.80002V11.8C2.99961 12.1314 3.26824 12.4 3.59961 12.4C3.93098 12.4 4.19961 12.1314 4.19961 11.8V2.80002C4.19961 2.13728 4.73687 1.60002 5.39961 1.60002C6.06235 1.60002 6.59961 2.13728 6.59961 2.80002V8.20002C6.59961 8.5314 6.86824 8.80002 7.19961 8.80002C7.53098 8.80002 7.79961 8.5314 7.79961 8.20002V1.60002Z" fill="#00142E"/>
<path d="M7.79961 1.60002C7.79961 0.937283 8.33687 0.400024 8.99961 0.400024C9.66235 0.400024 10.1996 0.937283 10.1996 1.60002V8.20002C10.1996 8.5314 10.4682 8.80002 10.7996 8.80002C11.131 8.80002 11.3996 8.5314 11.3996 8.20002V2.80002C11.3996 2.13728 11.9369 1.60002 12.5996 1.60002C13.2623 1.60002 13.7996 2.13728 13.7996 2.80002V8.20002C13.7996 8.5314 14.0682 8.80002 14.3996 8.80002C14.731 8.80002 14.9996 8.5314 14.9996 8.20002V5.20002C14.9996 4.53728 15.5369 4.00002 16.1996 4.00002C16.8623 4.00002 17.3996 4.53728 17.3996 5.20002V11.2C17.3996 15.8392 13.6388 19.6 8.99961 19.6C4.36042 19.6 0.599609 15.8392 0.599609 11.2V8.80002C0.599609 8.13728 1.13687 7.60002 1.79961 7.60002C2.46235 7.60002 2.99961 8.13728 2.99961 8.80002V11.8C2.99961 12.1314 3.26824 12.4 3.59961 12.4C3.93098 12.4 4.19961 12.1314 4.19961 11.8V2.80002C4.19961 2.13728 4.73687 1.60002 5.39961 1.60002C6.06235 1.60002 6.59961 2.13728 6.59961 2.80002V8.20002C6.59961 8.5314 6.86824 8.80002 7.19961 8.80002C7.53098 8.80002 7.79961 8.5314 7.79961 8.20002V1.60002Z" fill="black" fill-opacity="0.2"/>
</svg>
