<svg width="20" height="18" viewBox="0 0 20 18" fill="none" xmlns="http://www.w3.org/2000/svg">
<path d="M1.60039 0.599976C0.937649 0.599976 0.400391 1.13723 0.400391 1.79998C0.400391 2.46272 0.937649 2.99998 1.60039 2.99998H14.8004C15.4631 2.99998 16.0004 2.46272 16.0004 1.79998C16.0004 1.13723 15.4631 0.599976 14.8004 0.599976H1.60039Z" fill="#00142E"/>
<path d="M1.60039 0.599976C0.937649 0.599976 0.400391 1.13723 0.400391 1.79998C0.400391 2.46272 0.937649 2.99998 1.60039 2.99998H14.8004C15.4631 2.99998 16.0004 2.46272 16.0004 1.79998C16.0004 1.13723 15.4631 0.599976 14.8004 0.599976H1.60039Z" fill="black" fill-opacity="0.2"/>
<path d="M1.60039 5.39998C0.937649 5.39998 0.400391 5.93723 0.400391 6.59998C0.400391 7.26272 0.937649 7.79998 1.60039 7.79998H10.0004C10.6631 7.79998 11.2004 7.26272 11.2004 6.59998C11.2004 5.93723 10.6631 5.39998 10.0004 5.39998H1.60039Z" fill="#00142E"/>
<path d="M1.60039 5.39998C0.937649 5.39998 0.400391 5.93723 0.400391 6.59998C0.400391 7.26272 0.937649 7.79998 1.60039 7.79998H10.0004C10.6631 7.79998 11.2004 7.26272 11.2004 6.59998C11.2004 5.93723 10.6631 5.39998 10.0004 5.39998H1.60039Z" fill="black" fill-opacity="0.2"/>
<path d="M1.60039 10.2C0.937649 10.2 0.400391 10.7372 0.400391 11.4C0.400391 12.0627 0.937649 12.6 1.60039 12.6H6.40039C7.06313 12.6 7.60039 12.0627 7.60039 11.4C7.60039 10.7372 7.06313 10.2 6.40039 10.2H1.60039Z" fill="#00142E"/>
<path d="M1.60039 10.2C0.937649 10.2 0.400391 10.7372 0.400391 11.4C0.400391 12.0627 0.937649 12.6 1.60039 12.6H6.40039C7.06313 12.6 7.60039 12.0627 7.60039 11.4C7.60039 10.7372 7.06313 10.2 6.40039 10.2H1.60039Z" fill="black" fill-opacity="0.2"/>
<path d="M16.0004 6.59998C16.0004 5.93723 15.4631 5.39998 14.8004 5.39998C14.1377 5.39998 13.6004 5.93723 13.6004 6.59998L13.6004 13.3029L12.0489 11.7514C11.5803 11.2828 10.8205 11.2828 10.3519 11.7514C9.88323 12.2201 9.88323 12.9799 10.3519 13.4485L13.9519 17.0485C14.1769 17.2735 14.4821 17.4 14.8004 17.4C15.1187 17.4 15.4239 17.2735 15.6489 17.0485L19.2489 13.4485C19.7175 12.9799 19.7175 12.2201 19.2489 11.7514C18.7803 11.2828 18.0205 11.2828 17.5519 11.7514L16.0004 13.3029L16.0004 6.59998Z" fill="#00142E"/>
<path d="M16.0004 6.59998C16.0004 5.93723 15.4631 5.39998 14.8004 5.39998C14.1377 5.39998 13.6004 5.93723 13.6004 6.59998L13.6004 13.3029L12.0489 11.7514C11.5803 11.2828 10.8205 11.2828 10.3519 11.7514C9.88323 12.2201 9.88323 12.9799 10.3519 13.4485L13.9519 17.0485C14.1769 17.2735 14.4821 17.4 14.8004 17.4C15.1187 17.4 15.4239 17.2735 15.6489 17.0485L19.2489 13.4485C19.7175 12.9799 19.7175 12.2201 19.2489 11.7514C18.7803 11.2828 18.0205 11.2828 17.5519 11.7514L16.0004 13.3029L16.0004 6.59998Z" fill="black" fill-opacity="0.2"/>
</svg>
