<svg width="20" height="20" viewBox="0 0 20 20" fill="none" xmlns="http://www.w3.org/2000/svg">
<path d="M15.2974 6.40002L19.2489 2.44855C19.7175 1.97992 19.7175 1.22013 19.2489 0.751496C18.7803 0.282867 18.0205 0.282867 17.5519 0.751496L13.6004 4.70297V2.80002C13.6004 2.13728 13.0631 1.60002 12.4004 1.60002C11.7376 1.60002 11.2004 2.13728 11.2004 2.80002V7.59919C11.2004 7.60039 11.2004 7.60242 11.2004 7.60362C11.2009 7.76502 11.2332 7.91892 11.2914 8.05936C11.3487 8.19768 11.4329 8.32747 11.5441 8.44068C11.5492 8.44595 11.5545 8.45118 11.5597 8.45635C11.6729 8.56753 11.8027 8.65174 11.9411 8.70897C12.0825 8.76764 12.2377 8.80002 12.4004 8.80002H17.2004C17.8631 8.80002 18.4004 8.26277 18.4004 7.60002C18.4004 6.93728 17.8631 6.40002 17.2004 6.40002H15.2974Z" fill="#00142E"/>
<path d="M15.2974 6.40002L19.2489 2.44855C19.7175 1.97992 19.7175 1.22013 19.2489 0.751496C18.7803 0.282867 18.0205 0.282867 17.5519 0.751496L13.6004 4.70297V2.80002C13.6004 2.13728 13.0631 1.60002 12.4004 1.60002C11.7376 1.60002 11.2004 2.13728 11.2004 2.80002V7.59919C11.2004 7.60039 11.2004 7.60242 11.2004 7.60362C11.2009 7.76502 11.2332 7.91892 11.2914 8.05936C11.3487 8.19768 11.4329 8.32747 11.5441 8.44068C11.5492 8.44595 11.5545 8.45118 11.5597 8.45635C11.6729 8.56753 11.8027 8.65174 11.9411 8.70897C12.0825 8.76764 12.2377 8.80002 12.4004 8.80002H17.2004C17.8631 8.80002 18.4004 8.26277 18.4004 7.60002C18.4004 6.93728 17.8631 6.40002 17.2004 6.40002H15.2974Z" fill="black" fill-opacity="0.2"/>
<path d="M0.400391 1.60002C0.400391 0.937283 0.937649 0.400024 1.60039 0.400024H4.18384C4.77045 0.400024 5.27107 0.82412 5.36751 1.40275L6.25469 6.72579C6.34129 7.24543 6.07886 7.76079 5.60767 7.99639L3.7499 8.92527C5.08946 12.254 7.74641 14.911 11.0751 16.2505L12.004 14.3927C12.2396 13.9216 12.755 13.6591 13.2746 13.7457L18.5977 14.6329C19.1763 14.7293 19.6004 15.23 19.6004 15.8166V18.4C19.6004 19.0628 19.0631 19.6 18.4004 19.6H16.0004C7.38475 19.6 0.400391 12.6157 0.400391 4.00002V1.60002Z" fill="#00142E"/>
<path d="M0.400391 1.60002C0.400391 0.937283 0.937649 0.400024 1.60039 0.400024H4.18384C4.77045 0.400024 5.27107 0.82412 5.36751 1.40275L6.25469 6.72579C6.34129 7.24543 6.07886 7.76079 5.60767 7.99639L3.7499 8.92527C5.08946 12.254 7.74641 14.911 11.0751 16.2505L12.004 14.3927C12.2396 13.9216 12.755 13.6591 13.2746 13.7457L18.5977 14.6329C19.1763 14.7293 19.6004 15.23 19.6004 15.8166V18.4C19.6004 19.0628 19.0631 19.6 18.4004 19.6H16.0004C7.38475 19.6 0.400391 12.6157 0.400391 4.00002V1.60002Z" fill="black" fill-opacity="0.2"/>
</svg>
