<svg width="20" height="20" viewBox="0 0 20 20" fill="none" xmlns="http://www.w3.org/2000/svg">
<path d="M10.8489 0.751496C10.3803 0.282867 9.62049 0.282867 9.15186 0.751496L0.751863 9.1515C0.283233 9.62013 0.283233 10.3799 0.751863 10.8486C1.22049 11.3172 1.98029 11.3172 2.44892 10.8486L2.80039 10.4971V18.4C2.80039 19.0628 3.33765 19.6 4.00039 19.6H6.40039C7.06313 19.6 7.60039 19.0628 7.60039 18.4V16C7.60039 15.3373 8.13765 14.8 8.80039 14.8H11.2004C11.8631 14.8 12.4004 15.3373 12.4004 16V18.4C12.4004 19.0628 12.9376 19.6 13.6004 19.6H16.0004C16.6631 19.6 17.2004 19.0628 17.2004 18.4V10.4971L17.5519 10.8486C18.0205 11.3172 18.7803 11.3172 19.2489 10.8486C19.7175 10.3799 19.7175 9.62013 19.2489 9.1515L10.8489 0.751496Z" fill="#00142E"/>
<path d="M10.8489 0.751496C10.3803 0.282867 9.62049 0.282867 9.15186 0.751496L0.751863 9.1515C0.283233 9.62013 0.283233 10.3799 0.751863 10.8486C1.22049 11.3172 1.98029 11.3172 2.44892 10.8486L2.80039 10.4971V18.4C2.80039 19.0628 3.33765 19.6 4.00039 19.6H6.40039C7.06313 19.6 7.60039 19.0628 7.60039 18.4V16C7.60039 15.3373 8.13765 14.8 8.80039 14.8H11.2004C11.8631 14.8 12.4004 15.3373 12.4004 16V18.4C12.4004 19.0628 12.9376 19.6 13.6004 19.6H16.0004C16.6631 19.6 17.2004 19.0628 17.2004 18.4V10.4971L17.5519 10.8486C18.0205 11.3172 18.7803 11.3172 19.2489 10.8486C19.7175 10.3799 19.7175 9.62013 19.2489 9.1515L10.8489 0.751496Z" fill="black" fill-opacity="0.2"/>
</svg>
