<svg width="20" height="20" viewBox="0 0 20 20" fill="none" xmlns="http://www.w3.org/2000/svg">
<path fill-rule="evenodd" clip-rule="evenodd" d="M10.0004 19.6C15.3023 19.6 19.6004 15.302 19.6004 10C19.6004 4.69809 15.3023 0.400024 10.0004 0.400024C4.69846 0.400024 0.400391 4.69809 0.400391 10C0.400391 15.302 4.69846 19.6 10.0004 19.6ZM7.60039 6.40002C6.93765 6.40002 6.40039 6.93728 6.40039 7.60002V12.4C6.40039 13.0628 6.93765 13.6 7.60039 13.6H12.4004C13.0631 13.6 13.6004 13.0628 13.6004 12.4V7.60002C13.6004 6.93728 13.0631 6.40002 12.4004 6.40002H7.60039Z" fill="#00142E"/>
<path fill-rule="evenodd" clip-rule="evenodd" d="M10.0004 19.6C15.3023 19.6 19.6004 15.302 19.6004 10C19.6004 4.69809 15.3023 0.400024 10.0004 0.400024C4.69846 0.400024 0.400391 4.69809 0.400391 10C0.400391 15.302 4.69846 19.6 10.0004 19.6ZM7.60039 6.40002C6.93765 6.40002 6.40039 6.93728 6.40039 7.60002V12.4C6.40039 13.0628 6.93765 13.6 7.60039 13.6H12.4004C13.0631 13.6 13.6004 13.0628 13.6004 12.4V7.60002C13.6004 6.93728 13.0631 6.40002 12.4004 6.40002H7.60039Z" fill="black" fill-opacity="0.2"/>
</svg>
