<svg width="18" height="12" viewBox="0 0 18 12" fill="none" xmlns="http://www.w3.org/2000/svg">
<path fill-rule="evenodd" clip-rule="evenodd" d="M17.0481 0.351472C17.5168 0.820101 17.5168 1.5799 17.0481 2.04853L7.44814 11.6485C6.97951 12.1172 6.21971 12.1172 5.75108 11.6485L0.951081 6.84853C0.482452 6.3799 0.482452 5.6201 0.951081 5.15147C1.41971 4.68284 2.17951 4.68284 2.64814 5.15147L6.59961 9.10294L15.3511 0.351472C15.8197 -0.117157 16.5795 -0.117157 17.0481 0.351472Z" fill="#00142E"/>
<path fill-rule="evenodd" clip-rule="evenodd" d="M17.0481 0.351472C17.5168 0.820101 17.5168 1.5799 17.0481 2.04853L7.44814 11.6485C6.97951 12.1172 6.21971 12.1172 5.75108 11.6485L0.951081 6.84853C0.482452 6.3799 0.482452 5.6201 0.951081 5.15147C1.41971 4.68284 2.17951 4.68284 2.64814 5.15147L6.59961 9.10294L15.3511 0.351472C15.8197 -0.117157 16.5795 -0.117157 17.0481 0.351472Z" fill="black" fill-opacity="0.2"/>
</svg>
