<svg width="20" height="18" viewBox="0 0 20 18" fill="none" xmlns="http://www.w3.org/2000/svg">
<path d="M7.60039 7.79998C9.58862 7.79998 11.2004 6.1882 11.2004 4.19998C11.2004 2.21175 9.58862 0.599976 7.60039 0.599976C5.61217 0.599976 4.00039 2.21175 4.00039 4.19998C4.00039 6.1882 5.61217 7.79998 7.60039 7.79998Z" fill="#00142E"/>
<path d="M7.60039 7.79998C9.58862 7.79998 11.2004 6.1882 11.2004 4.19998C11.2004 2.21175 9.58862 0.599976 7.60039 0.599976C5.61217 0.599976 4.00039 2.21175 4.00039 4.19998C4.00039 6.1882 5.61217 7.79998 7.60039 7.79998Z" fill="black" fill-opacity="0.2"/>
<path d="M7.60039 10.2C11.5768 10.2 14.8004 13.4235 14.8004 17.4H0.400391C0.400391 13.4235 3.62394 10.2 7.60039 10.2Z" fill="#00142E"/>
<path d="M7.60039 10.2C11.5768 10.2 14.8004 13.4235 14.8004 17.4H0.400391C0.400391 13.4235 3.62394 10.2 7.60039 10.2Z" fill="black" fill-opacity="0.2"/>
<path d="M17.2004 5.39998C17.2004 4.73723 16.6631 4.19998 16.0004 4.19998C15.3377 4.19998 14.8004 4.73723 14.8004 5.39998V6.59998H13.6004C12.9377 6.59997 12.4004 7.13723 12.4004 7.79998C12.4004 8.46272 12.9376 8.99998 13.6004 8.99998H14.8004V10.2C14.8004 10.8627 15.3377 11.4 16.0004 11.4C16.6631 11.4 17.2004 10.8627 17.2004 10.2V8.99998H18.4004C19.0631 8.99998 19.6004 8.46272 19.6004 7.79998C19.6004 7.13723 19.0631 6.59998 18.4004 6.59998H17.2004V5.39998Z" fill="#00142E"/>
<path d="M17.2004 5.39998C17.2004 4.73723 16.6631 4.19998 16.0004 4.19998C15.3377 4.19998 14.8004 4.73723 14.8004 5.39998V6.59998H13.6004C12.9377 6.59997 12.4004 7.13723 12.4004 7.79998C12.4004 8.46272 12.9376 8.99998 13.6004 8.99998H14.8004V10.2C14.8004 10.8627 15.3377 11.4 16.0004 11.4C16.6631 11.4 17.2004 10.8627 17.2004 10.2V8.99998H18.4004C19.0631 8.99998 19.6004 8.46272 19.6004 7.79998C19.6004 7.13723 19.0631 6.59998 18.4004 6.59998H17.2004V5.39998Z" fill="black" fill-opacity="0.2"/>
</svg>
