<svg width="10" height="18" viewBox="0 0 10 18" fill="none" xmlns="http://www.w3.org/2000/svg">
<path fill-rule="evenodd" clip-rule="evenodd" d="M5.0002 0.599976C5.31846 0.599976 5.62368 0.726404 5.84872 0.951448L9.44872 4.55145C9.91735 5.02008 9.91735 5.77988 9.44872 6.2485C8.98009 6.71713 8.2203 6.71713 7.75167 6.2485L5.0002 3.49703L2.24872 6.2485C1.78009 6.71713 1.0203 6.71713 0.551667 6.2485C0.083038 5.77987 0.0830381 5.02008 0.551667 4.55145L4.15167 0.951447C4.37671 0.726404 4.68194 0.599976 5.0002 0.599976ZM0.551667 11.7514C1.0203 11.2828 1.78009 11.2828 2.24872 11.7514L5.0002 14.5029L7.75167 11.7514C8.2203 11.2828 8.98009 11.2828 9.44872 11.7514C9.91735 12.2201 9.91735 12.9799 9.44872 13.4485L5.84872 17.0485C5.38009 17.5171 4.6203 17.5171 4.15167 17.0485L0.551667 13.4485C0.083038 12.9799 0.083038 12.2201 0.551667 11.7514Z" fill="#00142E"/>
<path fill-rule="evenodd" clip-rule="evenodd" d="M5.0002 0.599976C5.31846 0.599976 5.62368 0.726404 5.84872 0.951448L9.44872 4.55145C9.91735 5.02008 9.91735 5.77988 9.44872 6.2485C8.98009 6.71713 8.2203 6.71713 7.75167 6.2485L5.0002 3.49703L2.24872 6.2485C1.78009 6.71713 1.0203 6.71713 0.551667 6.2485C0.083038 5.77987 0.0830381 5.02008 0.551667 4.55145L4.15167 0.951447C4.37671 0.726404 4.68194 0.599976 5.0002 0.599976ZM0.551667 11.7514C1.0203 11.2828 1.78009 11.2828 2.24872 11.7514L5.0002 14.5029L7.75167 11.7514C8.2203 11.2828 8.98009 11.2828 9.44872 11.7514C9.91735 12.2201 9.91735 12.9799 9.44872 13.4485L5.84872 17.0485C5.38009 17.5171 4.6203 17.5171 4.15167 17.0485L0.551667 13.4485C0.083038 12.9799 0.083038 12.2201 0.551667 11.7514Z" fill="black" fill-opacity="0.2"/>
</svg>
