<svg width="16" height="20" viewBox="0 0 16 20" fill="none" xmlns="http://www.w3.org/2000/svg">
<path fill-rule="evenodd" clip-rule="evenodd" d="M0.799805 2.80003C0.799805 1.47454 1.87432 0.400024 3.1998 0.400024H8.70275C9.33927 0.400024 9.94972 0.652881 10.3998 1.10297L14.4969 5.20002C14.9469 5.65011 15.1998 6.26056 15.1998 6.89708V17.2C15.1998 18.5255 14.1253 19.6 12.7998 19.6H3.1998C1.87432 19.6 0.799805 18.5255 0.799805 17.2V2.80003ZM3.1998 10C3.1998 9.33728 3.73706 8.80002 4.3998 8.80002H11.5998C12.2625 8.80002 12.7998 9.33728 12.7998 10C12.7998 10.6628 12.2625 11.2 11.5998 11.2H4.3998C3.73706 11.2 3.1998 10.6628 3.1998 10ZM4.3998 13.6C3.73706 13.6 3.1998 14.1373 3.1998 14.8C3.1998 15.4628 3.73706 16 4.3998 16H11.5998C12.2625 16 12.7998 15.4628 12.7998 14.8C12.7998 14.1373 12.2625 13.6 11.5998 13.6H4.3998Z" fill="#00142E"/>
<path fill-rule="evenodd" clip-rule="evenodd" d="M0.799805 2.80003C0.799805 1.47454 1.87432 0.400024 3.1998 0.400024H8.70275C9.33927 0.400024 9.94972 0.652881 10.3998 1.10297L14.4969 5.20002C14.9469 5.65011 15.1998 6.26056 15.1998 6.89708V17.2C15.1998 18.5255 14.1253 19.6 12.7998 19.6H3.1998C1.87432 19.6 0.799805 18.5255 0.799805 17.2V2.80003ZM3.1998 10C3.1998 9.33728 3.73706 8.80002 4.3998 8.80002H11.5998C12.2625 8.80002 12.7998 9.33728 12.7998 10C12.7998 10.6628 12.2625 11.2 11.5998 11.2H4.3998C3.73706 11.2 3.1998 10.6628 3.1998 10ZM4.3998 13.6C3.73706 13.6 3.1998 14.1373 3.1998 14.8C3.1998 15.4628 3.73706 16 4.3998 16H11.5998C12.2625 16 12.7998 15.4628 12.7998 14.8C12.7998 14.1373 12.2625 13.6 11.5998 13.6H4.3998Z" fill="black" fill-opacity="0.2"/>
</svg>
