<svg width="24" height="24" viewBox="0 0 24 24" fill="none" xmlns="http://www.w3.org/2000/svg">
<path d="M9.59961 2.40002C8.93687 2.40002 8.39961 2.93728 8.39961 3.60002C8.39961 4.26277 8.93687 4.80002 9.59961 4.80002H11.9996C12.6624 4.80002 13.1996 4.26277 13.1996 3.60002C13.1996 2.93728 12.6624 2.40002 11.9996 2.40002H9.59961Z" fill="#00142E"/>
<path d="M9.59961 2.40002C8.93687 2.40002 8.39961 2.93728 8.39961 3.60002C8.39961 4.26277 8.93687 4.80002 9.59961 4.80002H11.9996C12.6624 4.80002 13.1996 4.26277 13.1996 3.60002C13.1996 2.93728 12.6624 2.40002 11.9996 2.40002H9.59961Z" fill="black" fill-opacity="0.2"/>
<path d="M3.59961 6.00002C3.59961 4.67454 4.67413 3.60002 5.99961 3.60002C5.99961 5.58825 7.61138 7.20002 9.59961 7.20002H11.9996C13.9878 7.20002 15.5996 5.58825 15.5996 3.60002C16.9251 3.60002 17.9996 4.67454 17.9996 6.00002V13.2H12.4967L14.0481 11.6486C14.5168 11.1799 14.5168 10.4201 14.0481 9.9515C13.5795 9.48287 12.8197 9.48287 12.3511 9.9515L8.75108 13.5515C8.28245 14.0201 8.28245 14.7799 8.75108 15.2486L12.3511 18.8486C12.8197 19.3172 13.5795 19.3172 14.0481 18.8486C14.5168 18.3799 14.5168 17.6201 14.0481 17.1515L12.4967 15.6H17.9996V19.2C17.9996 20.5255 16.9251 21.6 15.5996 21.6H5.99961C4.67413 21.6 3.59961 20.5255 3.59961 19.2V6.00002Z" fill="#00142E"/>
<path d="M3.59961 6.00002C3.59961 4.67454 4.67413 3.60002 5.99961 3.60002C5.99961 5.58825 7.61138 7.20002 9.59961 7.20002H11.9996C13.9878 7.20002 15.5996 5.58825 15.5996 3.60002C16.9251 3.60002 17.9996 4.67454 17.9996 6.00002V13.2H12.4967L14.0481 11.6486C14.5168 11.1799 14.5168 10.4201 14.0481 9.9515C13.5795 9.48287 12.8197 9.48287 12.3511 9.9515L8.75108 13.5515C8.28245 14.0201 8.28245 14.7799 8.75108 15.2486L12.3511 18.8486C12.8197 19.3172 13.5795 19.3172 14.0481 18.8486C14.5168 18.3799 14.5168 17.6201 14.0481 17.1515L12.4967 15.6H17.9996V19.2C17.9996 20.5255 16.9251 21.6 15.5996 21.6H5.99961C4.67413 21.6 3.59961 20.5255 3.59961 19.2V6.00002Z" fill="black" fill-opacity="0.2"/>
<path d="M17.9996 13.2H20.3996C21.0624 13.2 21.5996 13.7373 21.5996 14.4C21.5996 15.0628 21.0624 15.6 20.3996 15.6H17.9996V13.2Z" fill="#00142E"/>
<path d="M17.9996 13.2H20.3996C21.0624 13.2 21.5996 13.7373 21.5996 14.4C21.5996 15.0628 21.0624 15.6 20.3996 15.6H17.9996V13.2Z" fill="black" fill-opacity="0.2"/>
</svg>
