<svg width="20" height="20" viewBox="0 0 20 20" fill="none" xmlns="http://www.w3.org/2000/svg">
<path fill-rule="evenodd" clip-rule="evenodd" d="M5.20039 5.20002V4.00002C5.20039 2.0118 6.81217 0.400024 8.80039 0.400024H11.2004C13.1886 0.400024 14.8004 2.0118 14.8004 4.00002V5.20002H17.2004C18.5259 5.20002 19.6004 6.27454 19.6004 7.60002V11.8849C16.612 12.9937 13.3783 13.6 10.0004 13.6C6.62256 13.6 3.38883 12.9937 0.400391 11.8849V7.60002C0.400391 6.27454 1.47491 5.20002 2.80039 5.20002H5.20039ZM7.60039 4.00002C7.60039 3.33728 8.13765 2.80002 8.80039 2.80002H11.2004C11.8631 2.80002 12.4004 3.33728 12.4004 4.00002V5.20002H7.60039V4.00002ZM8.80039 10C8.80039 9.33728 9.33765 8.80002 10.0004 8.80002H10.0124C10.6751 8.80002 11.2124 9.33728 11.2124 10C11.2124 10.6628 10.6751 11.2 10.0124 11.2H10.0004C9.33765 11.2 8.80039 10.6628 8.80039 10Z" fill="#00142E"/>
<path fill-rule="evenodd" clip-rule="evenodd" d="M5.20039 5.20002V4.00002C5.20039 2.0118 6.81217 0.400024 8.80039 0.400024H11.2004C13.1886 0.400024 14.8004 2.0118 14.8004 4.00002V5.20002H17.2004C18.5259 5.20002 19.6004 6.27454 19.6004 7.60002V11.8849C16.612 12.9937 13.3783 13.6 10.0004 13.6C6.62256 13.6 3.38883 12.9937 0.400391 11.8849V7.60002C0.400391 6.27454 1.47491 5.20002 2.80039 5.20002H5.20039ZM7.60039 4.00002C7.60039 3.33728 8.13765 2.80002 8.80039 2.80002H11.2004C11.8631 2.80002 12.4004 3.33728 12.4004 4.00002V5.20002H7.60039V4.00002ZM8.80039 10C8.80039 9.33728 9.33765 8.80002 10.0004 8.80002H10.0124C10.6751 8.80002 11.2124 9.33728 11.2124 10C11.2124 10.6628 10.6751 11.2 10.0124 11.2H10.0004C9.33765 11.2 8.80039 10.6628 8.80039 10Z" fill="black" fill-opacity="0.2"/>
<path d="M0.400391 14.4307V17.2C0.400391 18.5255 1.47491 19.6 2.80039 19.6H17.2004C18.5259 19.6 19.6004 18.5255 19.6004 17.2V14.4308C16.5851 15.4486 13.3561 16 10.0004 16C6.64474 16 3.41574 15.4486 0.400391 14.4307Z" fill="#00142E"/>
<path d="M0.400391 14.4307V17.2C0.400391 18.5255 1.47491 19.6 2.80039 19.6H17.2004C18.5259 19.6 19.6004 18.5255 19.6004 17.2V14.4308C16.5851 15.4486 13.3561 16 10.0004 16C6.64474 16 3.41574 15.4486 0.400391 14.4307Z" fill="black" fill-opacity="0.2"/>
</svg>
