<svg width="20" height="20" viewBox="0 0 20 20" fill="none" xmlns="http://www.w3.org/2000/svg">
<path fill-rule="evenodd" clip-rule="evenodd" d="M6.4004 0.400024C7.06314 0.400024 7.6004 0.937283 7.6004 1.60002V2.80002H8.47907C8.49319 2.79977 8.50736 2.79977 8.52157 2.80002H11.2004C11.8631 2.80002 12.4004 3.33728 12.4004 4.00002C12.4004 4.66277 11.8631 5.20002 11.2004 5.20002H9.494C9.06001 7.225 8.3573 9.14987 7.42526 10.9356C7.77418 11.3606 8.13996 11.7713 8.52159 12.1666C8.98188 12.6434 8.96848 13.4031 8.49166 13.8634C8.01483 14.3237 7.25515 14.3103 6.79487 13.8335C6.56794 13.5984 6.34601 13.3584 6.12925 13.1138C5.06713 14.6921 3.81303 16.1301 2.4007 17.3942C1.90687 17.8361 1.14823 17.7941 0.70624 17.3003C0.264249 16.8065 0.306274 16.0478 0.800106 15.6058C2.25582 14.3029 3.52296 12.7946 4.55611 11.1267C3.88835 10.1799 3.2908 9.17985 2.77109 8.13406C2.47615 7.54057 2.71817 6.82035 3.31167 6.52541C3.90516 6.23047 4.62538 6.47249 4.92032 7.06599C5.20064 7.63005 5.50634 8.17936 5.83592 8.71241C6.33679 7.59129 6.73936 6.41685 7.03276 5.20002H1.6004C0.93766 5.20002 0.400402 4.66277 0.400402 4.00002C0.400402 3.33728 0.93766 2.80002 1.6004 2.80002H5.2004V1.60002C5.2004 0.937283 5.73766 0.400024 6.4004 0.400024ZM13.6004 7.60002C14.0549 7.60002 14.4704 7.85683 14.6737 8.26337L18.2629 15.4418C18.2707 15.4565 18.2782 15.4715 18.2853 15.4866L19.4737 17.8634C19.7701 18.4561 19.5298 19.177 18.9371 19.4733C18.3443 19.7697 17.6235 19.5295 17.3271 18.9367L16.4588 17.2H10.742L9.87372 18.9367C9.57733 19.5295 8.85652 19.7697 8.26375 19.4733C7.67097 19.177 7.4307 18.4561 7.72709 17.8634L8.91546 15.4866C8.92263 15.4715 8.93011 15.4565 8.93789 15.4418L12.5271 8.26337C12.7304 7.85683 13.1459 7.60002 13.6004 7.60002ZM11.942 14.8H15.2588L13.6004 11.4833L11.942 14.8Z" fill="#00142E"/>
<path fill-rule="evenodd" clip-rule="evenodd" d="M6.4004 0.400024C7.06314 0.400024 7.6004 0.937283 7.6004 1.60002V2.80002H8.47907C8.49319 2.79977 8.50736 2.79977 8.52157 2.80002H11.2004C11.8631 2.80002 12.4004 3.33728 12.4004 4.00002C12.4004 4.66277 11.8631 5.20002 11.2004 5.20002H9.494C9.06001 7.225 8.3573 9.14987 7.42526 10.9356C7.77418 11.3606 8.13996 11.7713 8.52159 12.1666C8.98188 12.6434 8.96848 13.4031 8.49166 13.8634C8.01483 14.3237 7.25515 14.3103 6.79487 13.8335C6.56794 13.5984 6.34601 13.3584 6.12925 13.1138C5.06713 14.6921 3.81303 16.1301 2.4007 17.3942C1.90687 17.8361 1.14823 17.7941 0.70624 17.3003C0.264249 16.8065 0.306274 16.0478 0.800106 15.6058C2.25582 14.3029 3.52296 12.7946 4.55611 11.1267C3.88835 10.1799 3.2908 9.17985 2.77109 8.13406C2.47615 7.54057 2.71817 6.82035 3.31167 6.52541C3.90516 6.23047 4.62538 6.47249 4.92032 7.06599C5.20064 7.63005 5.50634 8.17936 5.83592 8.71241C6.33679 7.59129 6.73936 6.41685 7.03276 5.20002H1.6004C0.93766 5.20002 0.400402 4.66277 0.400402 4.00002C0.400402 3.33728 0.93766 2.80002 1.6004 2.80002H5.2004V1.60002C5.2004 0.937283 5.73766 0.400024 6.4004 0.400024ZM13.6004 7.60002C14.0549 7.60002 14.4704 7.85683 14.6737 8.26337L18.2629 15.4418C18.2707 15.4565 18.2782 15.4715 18.2853 15.4866L19.4737 17.8634C19.7701 18.4561 19.5298 19.177 18.9371 19.4733C18.3443 19.7697 17.6235 19.5295 17.3271 18.9367L16.4588 17.2H10.742L9.87372 18.9367C9.57733 19.5295 8.85652 19.7697 8.26375 19.4733C7.67097 19.177 7.4307 18.4561 7.72709 17.8634L8.91546 15.4866C8.92263 15.4715 8.93011 15.4565 8.93789 15.4418L12.5271 8.26337C12.7304 7.85683 13.1459 7.60002 13.6004 7.60002ZM11.942 14.8H15.2588L13.6004 11.4833L11.942 14.8Z" fill="black" fill-opacity="0.2"/>
</svg>
