<svg width="20" height="20" viewBox="0 0 20 20" fill="none" xmlns="http://www.w3.org/2000/svg">
<path fill-rule="evenodd" clip-rule="evenodd" d="M4.00039 2.80002V6.40002H2.80039C1.47491 6.40002 0.400391 7.47454 0.400391 8.80002V12.4C0.400391 13.7255 1.47491 14.8 2.80039 14.8H4.00039V17.2C4.00039 18.5255 5.07491 19.6 6.40039 19.6H13.6004C14.9259 19.6 16.0004 18.5255 16.0004 17.2V14.8H17.2004C18.5259 14.8 19.6004 13.7255 19.6004 12.4V8.80002C19.6004 7.47454 18.5259 6.40002 17.2004 6.40002H16.0004V2.80002C16.0004 1.47454 14.9259 0.400024 13.6004 0.400024H6.40039C5.07491 0.400024 4.00039 1.47454 4.00039 2.80002ZM13.6004 2.80002H6.40039V6.40002H13.6004V2.80002ZM13.6004 12.4H6.40039V17.2H13.6004V12.4Z" fill="#00142E"/>
<path fill-rule="evenodd" clip-rule="evenodd" d="M4.00039 2.80002V6.40002H2.80039C1.47491 6.40002 0.400391 7.47454 0.400391 8.80002V12.4C0.400391 13.7255 1.47491 14.8 2.80039 14.8H4.00039V17.2C4.00039 18.5255 5.07491 19.6 6.40039 19.6H13.6004C14.9259 19.6 16.0004 18.5255 16.0004 17.2V14.8H17.2004C18.5259 14.8 19.6004 13.7255 19.6004 12.4V8.80002C19.6004 7.47454 18.5259 6.40002 17.2004 6.40002H16.0004V2.80002C16.0004 1.47454 14.9259 0.400024 13.6004 0.400024H6.40039C5.07491 0.400024 4.00039 1.47454 4.00039 2.80002ZM13.6004 2.80002H6.40039V6.40002H13.6004V2.80002ZM13.6004 12.4H6.40039V17.2H13.6004V12.4Z" fill="black" fill-opacity="0.2"/>
</svg>
