<svg width="19" height="20" viewBox="0 0 19 20" fill="none" xmlns="http://www.w3.org/2000/svg">
<path fill-rule="evenodd" clip-rule="evenodd" d="M4.60039 0.400024C2.28079 0.400024 0.400391 2.28043 0.400391 4.60002C0.400391 6.91962 2.28079 8.80002 4.60039 8.80002C5.3237 8.80002 6.00431 8.61718 6.59851 8.2952L8.30338 10.0001L6.59857 11.7049C6.00435 11.3829 5.32372 11.2 4.60039 11.2C2.28079 11.2 0.400391 13.0804 0.400391 15.4C0.400391 17.7196 2.28079 19.6 4.60039 19.6C6.91999 19.6 8.80039 17.7196 8.80039 15.4C8.80039 14.6767 8.61756 13.9962 8.2956 13.402L18.049 3.64855C18.5176 3.17992 18.5176 2.42013 18.049 1.9515C17.5804 1.48287 16.8206 1.48287 16.352 1.9515L10.0004 8.30301L8.29556 6.59814C8.61755 6.00394 8.80039 5.32333 8.80039 4.60002C8.80039 2.28043 6.91999 0.400024 4.60039 0.400024ZM2.80039 4.60002C2.80039 3.60591 3.60628 2.80002 4.60039 2.80002C5.5945 2.80002 6.40039 3.60591 6.40039 4.60002C6.40039 5.59414 5.5945 6.40002 4.60039 6.40002C3.60628 6.40002 2.80039 5.59414 2.80039 4.60002ZM2.80039 15.4C2.80039 14.4059 3.60628 13.6 4.60039 13.6C5.5945 13.6 6.40039 14.4059 6.40039 15.4C6.40039 16.3941 5.5945 17.2 4.60039 17.2C3.60628 17.2 2.80039 16.3941 2.80039 15.4Z" fill="#00142E"/>
<path fill-rule="evenodd" clip-rule="evenodd" d="M4.60039 0.400024C2.28079 0.400024 0.400391 2.28043 0.400391 4.60002C0.400391 6.91962 2.28079 8.80002 4.60039 8.80002C5.3237 8.80002 6.00431 8.61718 6.59851 8.2952L8.30338 10.0001L6.59857 11.7049C6.00435 11.3829 5.32372 11.2 4.60039 11.2C2.28079 11.2 0.400391 13.0804 0.400391 15.4C0.400391 17.7196 2.28079 19.6 4.60039 19.6C6.91999 19.6 8.80039 17.7196 8.80039 15.4C8.80039 14.6767 8.61756 13.9962 8.2956 13.402L18.049 3.64855C18.5176 3.17992 18.5176 2.42013 18.049 1.9515C17.5804 1.48287 16.8206 1.48287 16.352 1.9515L10.0004 8.30301L8.29556 6.59814C8.61755 6.00394 8.80039 5.32333 8.80039 4.60002C8.80039 2.28043 6.91999 0.400024 4.60039 0.400024ZM2.80039 4.60002C2.80039 3.60591 3.60628 2.80002 4.60039 2.80002C5.5945 2.80002 6.40039 3.60591 6.40039 4.60002C6.40039 5.59414 5.5945 6.40002 4.60039 6.40002C3.60628 6.40002 2.80039 5.59414 2.80039 4.60002ZM2.80039 15.4C2.80039 14.4059 3.60628 13.6 4.60039 13.6C5.5945 13.6 6.40039 14.4059 6.40039 15.4C6.40039 16.3941 5.5945 17.2 4.60039 17.2C3.60628 17.2 2.80039 16.3941 2.80039 15.4Z" fill="black" fill-opacity="0.2"/>
<path d="M13.3945 11.6971C12.9259 11.2285 12.1661 11.2285 11.6974 11.6971C11.2288 12.1657 11.2288 12.9255 11.6974 13.3941L16.3519 18.0486C16.8205 18.5172 17.5803 18.5172 18.0489 18.0486C18.5175 17.5799 18.5175 16.8201 18.0489 16.3515L13.3945 11.6971Z" fill="#00142E"/>
<path d="M13.3945 11.6971C12.9259 11.2285 12.1661 11.2285 11.6974 11.6971C11.2288 12.1657 11.2288 12.9255 11.6974 13.3941L16.3519 18.0486C16.8205 18.5172 17.5803 18.5172 18.0489 18.0486C18.5175 17.5799 18.5175 16.8201 18.0489 16.3515L13.3945 11.6971Z" fill="black" fill-opacity="0.2"/>
</svg>
