<svg width="20" height="16" viewBox="0 0 20 16" fill="none" xmlns="http://www.w3.org/2000/svg">
<path d="M2.80039 0.800049C1.47491 0.800049 0.400391 1.87457 0.400391 3.20005V8.00005C0.400391 9.32553 1.47491 10.4 2.80039 10.4L2.80039 3.20005H14.8004C14.8004 1.87457 13.7259 0.800049 12.4004 0.800049H2.80039Z" fill="#00142E"/>
<path d="M2.80039 0.800049C1.47491 0.800049 0.400391 1.87457 0.400391 3.20005V8.00005C0.400391 9.32553 1.47491 10.4 2.80039 10.4L2.80039 3.20005H14.8004C14.8004 1.87457 13.7259 0.800049 12.4004 0.800049H2.80039Z" fill="black" fill-opacity="0.2"/>
<path fill-rule="evenodd" clip-rule="evenodd" d="M5.20039 8.00005C5.20039 6.67457 6.27491 5.60005 7.60039 5.60005H17.2004C18.5259 5.60005 19.6004 6.67457 19.6004 8.00005V12.8C19.6004 14.1255 18.5259 15.2 17.2004 15.2H7.60039C6.27491 15.2 5.20039 14.1255 5.20039 12.8V8.00005ZM12.4004 12.8C13.7259 12.8 14.8004 11.7255 14.8004 10.4C14.8004 9.07457 13.7259 8.00005 12.4004 8.00005C11.0749 8.00005 10.0004 9.07457 10.0004 10.4C10.0004 11.7255 11.0749 12.8 12.4004 12.8Z" fill="#00142E"/>
<path fill-rule="evenodd" clip-rule="evenodd" d="M5.20039 8.00005C5.20039 6.67457 6.27491 5.60005 7.60039 5.60005H17.2004C18.5259 5.60005 19.6004 6.67457 19.6004 8.00005V12.8C19.6004 14.1255 18.5259 15.2 17.2004 15.2H7.60039C6.27491 15.2 5.20039 14.1255 5.20039 12.8V8.00005ZM12.4004 12.8C13.7259 12.8 14.8004 11.7255 14.8004 10.4C14.8004 9.07457 13.7259 8.00005 12.4004 8.00005C11.0749 8.00005 10.0004 9.07457 10.0004 10.4C10.0004 11.7255 11.0749 12.8 12.4004 12.8Z" fill="black" fill-opacity="0.2"/>
</svg>
