<svg width="16" height="20" viewBox="0 0 16 20" fill="none" xmlns="http://www.w3.org/2000/svg">
<path d="M5.5998 1.60002C5.5998 0.937283 6.13706 0.400024 6.7998 0.400024H9.19981C9.86255 0.400024 10.3998 0.937283 10.3998 1.60002C10.3998 2.26277 9.86255 2.80002 9.19981 2.80002H6.7998C6.13706 2.80002 5.5998 2.26277 5.5998 1.60002Z" fill="#00142E"/>
<path d="M5.5998 1.60002C5.5998 0.937283 6.13706 0.400024 6.7998 0.400024H9.19981C9.86255 0.400024 10.3998 0.937283 10.3998 1.60002C10.3998 2.26277 9.86255 2.80002 9.19981 2.80002H6.7998C6.13706 2.80002 5.5998 2.26277 5.5998 1.60002Z" fill="black" fill-opacity="0.2"/>
<path d="M3.1998 1.60002C1.87432 1.60002 0.799805 2.67454 0.799805 4.00002V17.2C0.799805 18.5255 1.87432 19.6 3.19981 19.6H12.7998C14.1253 19.6 15.1998 18.5255 15.1998 17.2V4.00002C15.1998 2.67454 14.1253 1.60002 12.7998 1.60002C12.7998 3.58825 11.188 5.20002 9.19981 5.20002H6.7998C4.81158 5.20002 3.1998 3.58825 3.1998 1.60002Z" fill="#00142E"/>
<path d="M3.1998 1.60002C1.87432 1.60002 0.799805 2.67454 0.799805 4.00002V17.2C0.799805 18.5255 1.87432 19.6 3.19981 19.6H12.7998C14.1253 19.6 15.1998 18.5255 15.1998 17.2V4.00002C15.1998 2.67454 14.1253 1.60002 12.7998 1.60002C12.7998 3.58825 11.188 5.20002 9.19981 5.20002H6.7998C4.81158 5.20002 3.1998 3.58825 3.1998 1.60002Z" fill="black" fill-opacity="0.2"/>
</svg>
