<svg width="19" height="12" viewBox="0 0 19 12" fill="none" xmlns="http://www.w3.org/2000/svg">
<path d="M8.13475 11.7985C8.50298 12.044 8.97643 12.0669 9.36662 11.8581C9.75681 11.6492 10.0004 11.2426 10.0004 10.8001L10.0004 7.44228L16.5348 11.7985C16.903 12.044 17.3764 12.0669 17.7666 11.8581C18.1568 11.6492 18.4004 11.2426 18.4004 10.8001V1.20006C18.4004 0.757509 18.1568 0.350876 17.7666 0.142053C17.3764 -0.0667694 16.903 -0.0438824 16.5348 0.201602L10.0004 4.55784V1.20006C10.0004 0.757509 9.75681 0.350876 9.36662 0.142054C8.97643 -0.066769 8.50298 -0.043882 8.13475 0.201603L0.93475 5.0016C0.600912 5.22416 0.400391 5.59884 0.400391 6.00006C0.400391 6.40129 0.600912 6.77596 0.93475 6.99852L8.13475 11.7985Z" fill="#00142E"/>
<path d="M8.13475 11.7985C8.50298 12.044 8.97643 12.0669 9.36662 11.8581C9.75681 11.6492 10.0004 11.2426 10.0004 10.8001L10.0004 7.44228L16.5348 11.7985C16.903 12.044 17.3764 12.0669 17.7666 11.8581C18.1568 11.6492 18.4004 11.2426 18.4004 10.8001V1.20006C18.4004 0.757509 18.1568 0.350876 17.7666 0.142053C17.3764 -0.0667694 16.903 -0.0438824 16.5348 0.201602L10.0004 4.55784V1.20006C10.0004 0.757509 9.75681 0.350876 9.36662 0.142054C8.97643 -0.066769 8.50298 -0.043882 8.13475 0.201603L0.93475 5.0016C0.600912 5.22416 0.400391 5.59884 0.400391 6.00006C0.400391 6.40129 0.600912 6.77596 0.93475 6.99852L8.13475 11.7985Z" fill="black" fill-opacity="0.2"/>
</svg>
