<svg width="20" height="20" viewBox="0 0 20 20" fill="none" xmlns="http://www.w3.org/2000/svg">
<path fill-rule="evenodd" clip-rule="evenodd" d="M11.7875 1.80515C11.3326 -0.0683518 8.66815 -0.0683527 8.21333 1.80515C7.91951 3.01542 6.53293 3.58976 5.46939 2.94173C3.82301 1.93857 1.93894 3.82264 2.9421 5.46902C3.59012 6.53256 3.01578 7.91915 1.80552 8.21296C-0.0679865 8.66779 -0.0679856 11.3323 1.80552 11.7871C3.01578 12.0809 3.59012 13.4675 2.9421 14.531C1.93894 16.1774 3.82301 18.0615 5.46939 17.0583C6.53293 16.4103 7.91951 16.9846 8.21333 18.1949C8.66815 20.0684 11.3326 20.0684 11.7875 18.1949C12.0813 16.9846 13.4679 16.4103 14.5314 17.0583C16.1778 18.0615 18.0618 16.1774 17.0587 14.531C16.4107 13.4675 16.985 12.0809 18.1953 11.7871C20.0688 11.3323 20.0688 8.66779 18.1953 8.21296C16.985 7.91915 16.4107 6.53256 17.0587 5.46902C18.0618 3.82264 16.1778 1.93857 14.5314 2.94173C13.4679 3.58976 12.0813 3.01542 11.7875 1.80515ZM10.0004 13.6C11.9886 13.6 13.6004 11.9883 13.6004 10C13.6004 8.0118 11.9886 6.40002 10.0004 6.40002C8.01217 6.40002 6.40039 8.0118 6.40039 10C6.40039 11.9883 8.01217 13.6 10.0004 13.6Z" fill="#00142E"/>
<path fill-rule="evenodd" clip-rule="evenodd" d="M11.7875 1.80515C11.3326 -0.0683518 8.66815 -0.0683527 8.21333 1.80515C7.91951 3.01542 6.53293 3.58976 5.46939 2.94173C3.82301 1.93857 1.93894 3.82264 2.9421 5.46902C3.59012 6.53256 3.01578 7.91915 1.80552 8.21296C-0.0679865 8.66779 -0.0679856 11.3323 1.80552 11.7871C3.01578 12.0809 3.59012 13.4675 2.9421 14.531C1.93894 16.1774 3.82301 18.0615 5.46939 17.0583C6.53293 16.4103 7.91951 16.9846 8.21333 18.1949C8.66815 20.0684 11.3326 20.0684 11.7875 18.1949C12.0813 16.9846 13.4679 16.4103 14.5314 17.0583C16.1778 18.0615 18.0618 16.1774 17.0587 14.531C16.4107 13.4675 16.985 12.0809 18.1953 11.7871C20.0688 11.3323 20.0688 8.66779 18.1953 8.21296C16.985 7.91915 16.4107 6.53256 17.0587 5.46902C18.0618 3.82264 16.1778 1.93857 14.5314 2.94173C13.4679 3.58976 12.0813 3.01542 11.7875 1.80515ZM10.0004 13.6C11.9886 13.6 13.6004 11.9883 13.6004 10C13.6004 8.0118 11.9886 6.40002 10.0004 6.40002C8.01217 6.40002 6.40039 8.0118 6.40039 10C6.40039 11.9883 8.01217 13.6 10.0004 13.6Z" fill="black" fill-opacity="0.2"/>
</svg>
