<svg width="16" height="20" viewBox="0 0 16 20" fill="none" xmlns="http://www.w3.org/2000/svg">
<path fill-rule="evenodd" clip-rule="evenodd" d="M3.1998 0.400024C1.87432 0.400024 0.799805 1.47454 0.799805 2.80002V17.2C0.799805 18.5255 1.87432 19.6 3.19981 19.6H12.7998C14.1253 19.6 15.1998 18.5255 15.1998 17.2V2.80002C15.1998 1.47454 14.1253 0.400024 12.7998 0.400024H3.1998ZM7.9998 17.2C8.66255 17.2 9.19981 16.6628 9.19981 16C9.19981 15.3373 8.66255 14.8 7.9998 14.8C7.33706 14.8 6.7998 15.3373 6.7998 16C6.7998 16.6628 7.33706 17.2 7.9998 17.2Z" fill="#00142E"/>
<path fill-rule="evenodd" clip-rule="evenodd" d="M3.1998 0.400024C1.87432 0.400024 0.799805 1.47454 0.799805 2.80002V17.2C0.799805 18.5255 1.87432 19.6 3.19981 19.6H12.7998C14.1253 19.6 15.1998 18.5255 15.1998 17.2V2.80002C15.1998 1.47454 14.1253 0.400024 12.7998 0.400024H3.1998ZM7.9998 17.2C8.66255 17.2 9.19981 16.6628 9.19981 16C9.19981 15.3373 8.66255 14.8 7.9998 14.8C7.33706 14.8 6.7998 15.3373 6.7998 16C6.7998 16.6628 7.33706 17.2 7.9998 17.2Z" fill="black" fill-opacity="0.2"/>
</svg>
