<svg width="24" height="24" viewBox="0 0 24 24" fill="none" xmlns="http://www.w3.org/2000/svg">
<path d="M12.0004 2.40002C11.3376 2.40002 10.8004 2.93728 10.8004 3.60002V4.80002C10.8004 5.46277 11.3376 6.00002 12.0004 6.00002C12.6631 6.00002 13.2004 5.46277 13.2004 4.80002V3.60002C13.2004 2.93728 12.6631 2.40002 12.0004 2.40002Z" fill="#00142E"/>
<path d="M12.0004 2.40002C11.3376 2.40002 10.8004 2.93728 10.8004 3.60002V4.80002C10.8004 5.46277 11.3376 6.00002 12.0004 6.00002C12.6631 6.00002 13.2004 5.46277 13.2004 4.80002V3.60002C13.2004 2.93728 12.6631 2.40002 12.0004 2.40002Z" fill="black" fill-opacity="0.2"/>
<path fill-rule="evenodd" clip-rule="evenodd" d="M4.80039 4.80002H8.40039C8.40039 6.78825 10.0122 8.40002 12.0004 8.40002C13.9886 8.40002 15.6004 6.78825 15.6004 4.80002H19.2004C20.5259 4.80002 21.6004 5.87454 21.6004 7.20002V18C21.6004 19.3255 20.5259 20.4 19.2004 20.4H4.80039C3.47491 20.4 2.40039 19.3255 2.40039 18V7.20002C2.40039 5.87454 3.47491 4.80002 4.80039 4.80002ZM7.80039 13.2C8.7945 13.2 9.60039 12.3941 9.60039 11.4C9.60039 10.4059 8.7945 9.60002 7.80039 9.60002C6.80628 9.60002 6.00039 10.4059 6.00039 11.4C6.00039 12.3941 6.80628 13.2 7.80039 13.2ZM10.741 18C10.7803 17.8062 10.801 17.6055 10.801 17.4C10.801 15.7432 9.45783 14.4 7.80098 14.4C6.14412 14.4 4.80098 15.7432 4.80098 17.4C4.80098 17.6055 4.82163 17.8062 4.86099 18H10.741ZM14.4004 10.8C13.7376 10.8 13.2004 11.3373 13.2004 12C13.2004 12.6628 13.7376 13.2 14.4004 13.2H18.0004C18.6631 13.2 19.2004 12.6628 19.2004 12C19.2004 11.3373 18.6631 10.8 18.0004 10.8H14.4004ZM13.2004 15.6C13.2004 14.9373 13.7376 14.4 14.4004 14.4H16.8004C17.4631 14.4 18.0004 14.9373 18.0004 15.6C18.0004 16.2628 17.4631 16.8 16.8004 16.8H14.4004C13.7376 16.8 13.2004 16.2628 13.2004 15.6Z" fill="#00142E"/>
<path fill-rule="evenodd" clip-rule="evenodd" d="M4.80039 4.80002H8.40039C8.40039 6.78825 10.0122 8.40002 12.0004 8.40002C13.9886 8.40002 15.6004 6.78825 15.6004 4.80002H19.2004C20.5259 4.80002 21.6004 5.87454 21.6004 7.20002V18C21.6004 19.3255 20.5259 20.4 19.2004 20.4H4.80039C3.47491 20.4 2.40039 19.3255 2.40039 18V7.20002C2.40039 5.87454 3.47491 4.80002 4.80039 4.80002ZM7.80039 13.2C8.7945 13.2 9.60039 12.3941 9.60039 11.4C9.60039 10.4059 8.7945 9.60002 7.80039 9.60002C6.80628 9.60002 6.00039 10.4059 6.00039 11.4C6.00039 12.3941 6.80628 13.2 7.80039 13.2ZM10.741 18C10.7803 17.8062 10.801 17.6055 10.801 17.4C10.801 15.7432 9.45783 14.4 7.80098 14.4C6.14412 14.4 4.80098 15.7432 4.80098 17.4C4.80098 17.6055 4.82163 17.8062 4.86099 18H10.741ZM14.4004 10.8C13.7376 10.8 13.2004 11.3373 13.2004 12C13.2004 12.6628 13.7376 13.2 14.4004 13.2H18.0004C18.6631 13.2 19.2004 12.6628 19.2004 12C19.2004 11.3373 18.6631 10.8 18.0004 10.8H14.4004ZM13.2004 15.6C13.2004 14.9373 13.7376 14.4 14.4004 14.4H16.8004C17.4631 14.4 18.0004 14.9373 18.0004 15.6C18.0004 16.2628 17.4631 16.8 16.8004 16.8H14.4004C13.7376 16.8 13.2004 16.2628 13.2004 15.6Z" fill="black" fill-opacity="0.2"/>
</svg>
