<svg width="24" height="24" viewBox="0 0 24 24" fill="none" xmlns="http://www.w3.org/2000/svg">
<path fill-rule="evenodd" clip-rule="evenodd" d="M3.59961 6.00002C3.59961 4.67454 4.67413 3.60002 5.99961 3.60002H7.19961C7.86235 3.60002 8.39961 4.13728 8.39961 4.80002C8.39961 5.46277 7.86235 6.00002 7.19961 6.00002L5.99961 6.00002V18H17.9996V6.00002H16.7996C16.1369 6.00002 15.5996 5.46277 15.5996 4.80002C15.5996 4.13728 16.1369 3.60002 16.7996 3.60002H17.9996C19.3251 3.60002 20.3996 4.67454 20.3996 6.00002V18C20.3996 19.3255 19.3251 20.4 17.9996 20.4H5.99961C4.67413 20.4 3.59961 19.3255 3.59961 18V6.00002Z" fill="#00142E"/>
<path fill-rule="evenodd" clip-rule="evenodd" d="M3.59961 6.00002C3.59961 4.67454 4.67413 3.60002 5.99961 3.60002H7.19961C7.86235 3.60002 8.39961 4.13728 8.39961 4.80002C8.39961 5.46277 7.86235 6.00002 7.19961 6.00002L5.99961 6.00002V18H17.9996V6.00002H16.7996C16.1369 6.00002 15.5996 5.46277 15.5996 4.80002C15.5996 4.13728 16.1369 3.60002 16.7996 3.60002H17.9996C19.3251 3.60002 20.3996 4.67454 20.3996 6.00002V18C20.3996 19.3255 19.3251 20.4 17.9996 20.4H5.99961C4.67413 20.4 3.59961 19.3255 3.59961 18V6.00002Z" fill="black" fill-opacity="0.2"/>
<path d="M4.79961 14.4H8.39961L9.59961 16.8H14.3996L15.5996 14.4H19.1996V19.2H4.79961V14.4Z" fill="#00142E"/>
<path d="M4.79961 14.4H8.39961L9.59961 16.8H14.3996L15.5996 14.4H19.1996V19.2H4.79961V14.4Z" fill="black" fill-opacity="0.2"/>
<path d="M8.75108 8.7515C9.21971 8.28287 9.97951 8.28287 10.4481 8.7515L10.7996 9.10297V3.60002C10.7996 2.93728 11.3369 2.40002 11.9996 2.40002C12.6623 2.40002 13.1996 2.93728 13.1996 3.60002V9.10297L13.5511 8.7515C14.0197 8.28287 14.7795 8.28287 15.2481 8.7515C15.7168 9.22013 15.7168 9.97992 15.2481 10.4486L12.8481 12.8486C12.6231 13.0736 12.3179 13.2 11.9996 13.2C11.6813 13.2 11.3761 13.0736 11.1511 12.8486L8.75108 10.4486C8.28245 9.97992 8.28245 9.22012 8.75108 8.7515Z" fill="#00142E"/>
<path d="M8.75108 8.7515C9.21971 8.28287 9.97951 8.28287 10.4481 8.7515L10.7996 9.10297V3.60002C10.7996 2.93728 11.3369 2.40002 11.9996 2.40002C12.6623 2.40002 13.1996 2.93728 13.1996 3.60002V9.10297L13.5511 8.7515C14.0197 8.28287 14.7795 8.28287 15.2481 8.7515C15.7168 9.22013 15.7168 9.97992 15.2481 10.4486L12.8481 12.8486C12.6231 13.0736 12.3179 13.2 11.9996 13.2C11.6813 13.2 11.3761 13.0736 11.1511 12.8486L8.75108 10.4486C8.28245 9.97992 8.28245 9.22012 8.75108 8.7515Z" fill="black" fill-opacity="0.2"/>
</svg>
