<svg width="24" height="24" viewBox="0 0 24 24" fill="none" xmlns="http://www.w3.org/2000/svg">
<path fill-rule="evenodd" clip-rule="evenodd" d="M3.59961 5.99998C3.59961 4.67449 4.67413 3.59998 5.99961 3.59998H17.9996C19.3251 3.59998 20.3996 4.67449 20.3996 5.99998V18C20.3996 19.3255 19.3251 20.4 17.9996 20.4H5.99961C4.67413 20.4 3.59961 19.3255 3.59961 18V5.99998ZM17.9996 5.99998L5.99961 5.99998V18H17.9996V5.99998Z" fill="#00142E"/>
<path fill-rule="evenodd" clip-rule="evenodd" d="M3.59961 5.99998C3.59961 4.67449 4.67413 3.59998 5.99961 3.59998H17.9996C19.3251 3.59998 20.3996 4.67449 20.3996 5.99998V18C20.3996 19.3255 19.3251 20.4 17.9996 20.4H5.99961C4.67413 20.4 3.59961 19.3255 3.59961 18V5.99998ZM17.9996 5.99998L5.99961 5.99998V18H17.9996V5.99998Z" fill="black" fill-opacity="0.2"/>
<path d="M4.79961 14.4H8.39961L9.59961 16.8H14.3996L15.5996 14.4H19.1996V19.2H4.79961V14.4Z" fill="#00142E"/>
<path d="M4.79961 14.4H8.39961L9.59961 16.8H14.3996L15.5996 14.4H19.1996V19.2H4.79961V14.4Z" fill="black" fill-opacity="0.2"/>
</svg>
