<svg width="24" height="24" viewBox="0 0 24 24" fill="none" xmlns="http://www.w3.org/2000/svg">
<path fill-rule="evenodd" clip-rule="evenodd" d="M21.6004 12C21.6004 17.302 17.3023 21.6 12.0004 21.6C6.69846 21.6 2.40039 17.302 2.40039 12C2.40039 6.69809 6.69846 2.40002 12.0004 2.40002C17.3023 2.40002 21.6004 6.69809 21.6004 12ZM13.2004 7.20002C13.2004 7.86277 12.6631 8.40002 12.0004 8.40002C11.3376 8.40002 10.8004 7.86277 10.8004 7.20002C10.8004 6.53728 11.3376 6.00002 12.0004 6.00002C12.6631 6.00002 13.2004 6.53728 13.2004 7.20002ZM10.8004 10.8C10.1376 10.8 9.60039 11.3373 9.60039 12C9.60039 12.6628 10.1376 13.2 10.8004 13.2V16.8C10.8004 17.4628 11.3376 18 12.0004 18H13.2004C13.8631 18 14.4004 17.4628 14.4004 16.8C14.4004 16.1373 13.8631 15.6 13.2004 15.6V12C13.2004 11.3373 12.6631 10.8 12.0004 10.8H10.8004Z" fill="#00142E"/>
<path fill-rule="evenodd" clip-rule="evenodd" d="M21.6004 12C21.6004 17.302 17.3023 21.6 12.0004 21.6C6.69846 21.6 2.40039 17.302 2.40039 12C2.40039 6.69809 6.69846 2.40002 12.0004 2.40002C17.3023 2.40002 21.6004 6.69809 21.6004 12ZM13.2004 7.20002C13.2004 7.86277 12.6631 8.40002 12.0004 8.40002C11.3376 8.40002 10.8004 7.86277 10.8004 7.20002C10.8004 6.53728 11.3376 6.00002 12.0004 6.00002C12.6631 6.00002 13.2004 6.53728 13.2004 7.20002ZM10.8004 10.8C10.1376 10.8 9.60039 11.3373 9.60039 12C9.60039 12.6628 10.1376 13.2 10.8004 13.2V16.8C10.8004 17.4628 11.3376 18 12.0004 18H13.2004C13.8631 18 14.4004 17.4628 14.4004 16.8C14.4004 16.1373 13.8631 15.6 13.2004 15.6V12C13.2004 11.3373 12.6631 10.8 12.0004 10.8H10.8004Z" fill="black" fill-opacity="0.2"/>
</svg>
