<svg width="24" height="24" viewBox="0 0 24 24" fill="none" xmlns="http://www.w3.org/2000/svg">
<path fill-rule="evenodd" clip-rule="evenodd" d="M21.6004 9.60002C21.6004 13.5765 18.3768 16.8 14.4004 16.8C13.673 16.8 12.9708 16.6922 12.3089 16.4915L9.60039 19.2H7.20039V21.6H2.40039V16.8L7.50888 11.6915C7.30826 11.0296 7.20039 10.3274 7.20039 9.60002C7.20039 5.62357 10.4239 2.40002 14.4004 2.40002C18.3768 2.40002 21.6004 5.62357 21.6004 9.60002ZM14.4004 4.80002C13.7376 4.80002 13.2004 5.33728 13.2004 6.00002C13.2004 6.66277 13.7376 7.20002 14.4004 7.20002C15.7259 7.20002 16.8004 8.27454 16.8004 9.60002C16.8004 10.2628 17.3377 10.8 18.0004 10.8C18.6631 10.8 19.2004 10.2628 19.2004 9.60002C19.2004 6.94906 17.0514 4.80002 14.4004 4.80002Z" fill="#00142E"/>
<path fill-rule="evenodd" clip-rule="evenodd" d="M21.6004 9.60002C21.6004 13.5765 18.3768 16.8 14.4004 16.8C13.673 16.8 12.9708 16.6922 12.3089 16.4915L9.60039 19.2H7.20039V21.6H2.40039V16.8L7.50888 11.6915C7.30826 11.0296 7.20039 10.3274 7.20039 9.60002C7.20039 5.62357 10.4239 2.40002 14.4004 2.40002C18.3768 2.40002 21.6004 5.62357 21.6004 9.60002ZM14.4004 4.80002C13.7376 4.80002 13.2004 5.33728 13.2004 6.00002C13.2004 6.66277 13.7376 7.20002 14.4004 7.20002C15.7259 7.20002 16.8004 8.27454 16.8004 9.60002C16.8004 10.2628 17.3377 10.8 18.0004 10.8C18.6631 10.8 19.2004 10.2628 19.2004 9.60002C19.2004 6.94906 17.0514 4.80002 14.4004 4.80002Z" fill="black" fill-opacity="0.2"/>
</svg>
