<svg width="24" height="24" viewBox="0 0 24 24" fill="none" xmlns="http://www.w3.org/2000/svg">
<path d="M13.2004 3.60002C13.2004 2.93728 12.6631 2.40002 12.0004 2.40002C11.3376 2.40002 10.8004 2.93728 10.8004 3.60002V4.80002C10.8004 5.46277 11.3376 6.00002 12.0004 6.00002C12.6631 6.00002 13.2004 5.46277 13.2004 4.80002V3.60002Z" fill="#00142E"/>
<path d="M13.2004 3.60002C13.2004 2.93728 12.6631 2.40002 12.0004 2.40002C11.3376 2.40002 10.8004 2.93728 10.8004 3.60002V4.80002C10.8004 5.46277 11.3376 6.00002 12.0004 6.00002C12.6631 6.00002 13.2004 5.46277 13.2004 4.80002V3.60002Z" fill="black" fill-opacity="0.2"/>
<path d="M18.7886 6.90879C19.2572 6.44016 19.2572 5.68037 18.7886 5.21174C18.3199 4.74311 17.5601 4.74311 17.0915 5.21174L16.243 6.06026C15.7744 6.52889 15.7744 7.28869 16.243 7.75732C16.7116 8.22595 17.4714 8.22595 17.94 7.75732L18.7886 6.90879Z" fill="#00142E"/>
<path d="M18.7886 6.90879C19.2572 6.44016 19.2572 5.68037 18.7886 5.21174C18.3199 4.74311 17.5601 4.74311 17.0915 5.21174L16.243 6.06026C15.7744 6.52889 15.7744 7.28869 16.243 7.75732C16.7116 8.22595 17.4714 8.22595 17.94 7.75732L18.7886 6.90879Z" fill="black" fill-opacity="0.2"/>
<path d="M21.6004 12C21.6004 12.6628 21.0631 13.2 20.4004 13.2H19.2004C18.5376 13.2 18.0004 12.6628 18.0004 12C18.0004 11.3373 18.5377 10.8 19.2004 10.8H20.4004C21.0631 10.8 21.6004 11.3373 21.6004 12Z" fill="#00142E"/>
<path d="M21.6004 12C21.6004 12.6628 21.0631 13.2 20.4004 13.2H19.2004C18.5376 13.2 18.0004 12.6628 18.0004 12C18.0004 11.3373 18.5377 10.8 19.2004 10.8H20.4004C21.0631 10.8 21.6004 11.3373 21.6004 12Z" fill="black" fill-opacity="0.2"/>
<path d="M6.06062 7.75734C6.52925 8.22597 7.28904 8.22597 7.75767 7.75734C8.2263 7.28871 8.2263 6.52891 7.75767 6.06029L6.90914 5.21176C6.44052 4.74313 5.68072 4.74313 5.21209 5.21176C4.74346 5.68039 4.74346 6.44018 5.21209 6.90881L6.06062 7.75734Z" fill="#00142E"/>
<path d="M6.06062 7.75734C6.52925 8.22597 7.28904 8.22597 7.75767 7.75734C8.2263 7.28871 8.2263 6.52891 7.75767 6.06029L6.90914 5.21176C6.44052 4.74313 5.68072 4.74313 5.21209 5.21176C4.74346 5.68039 4.74346 6.44018 5.21209 6.90881L6.06062 7.75734Z" fill="black" fill-opacity="0.2"/>
<path d="M6.00039 12C6.00039 12.6628 5.46313 13.2 4.80039 13.2H3.60039C2.93765 13.2 2.40039 12.6628 2.40039 12C2.40039 11.3373 2.93765 10.8 3.60039 10.8H4.80039C5.46313 10.8 6.00039 11.3373 6.00039 12Z" fill="#00142E"/>
<path d="M6.00039 12C6.00039 12.6628 5.46313 13.2 4.80039 13.2H3.60039C2.93765 13.2 2.40039 12.6628 2.40039 12C2.40039 11.3373 2.93765 10.8 3.60039 10.8H4.80039C5.46313 10.8 6.00039 11.3373 6.00039 12Z" fill="black" fill-opacity="0.2"/>
<path d="M9.60039 19.2V18H14.4004V19.2C14.4004 20.5255 13.3259 21.6 12.0004 21.6C10.6749 21.6 9.60039 20.5255 9.60039 19.2Z" fill="#00142E"/>
<path d="M9.60039 19.2V18H14.4004V19.2C14.4004 20.5255 13.3259 21.6 12.0004 21.6C10.6749 21.6 9.60039 20.5255 9.60039 19.2Z" fill="black" fill-opacity="0.2"/>
<path d="M14.4015 16.8C14.419 16.3916 14.6495 16.0245 14.9726 15.7694C16.0859 14.8903 16.8004 13.5286 16.8004 12C16.8004 9.34906 14.6514 7.20002 12.0004 7.20002C9.34942 7.20002 7.20039 9.34906 7.20039 12C7.20039 13.5286 7.91493 14.8903 9.02822 15.7694C9.35128 16.0245 9.58181 16.3916 9.59932 16.8H14.4015Z" fill="#00142E"/>
<path d="M14.4015 16.8C14.419 16.3916 14.6495 16.0245 14.9726 15.7694C16.0859 14.8903 16.8004 13.5286 16.8004 12C16.8004 9.34906 14.6514 7.20002 12.0004 7.20002C9.34942 7.20002 7.20039 9.34906 7.20039 12C7.20039 13.5286 7.91493 14.8903 9.02822 15.7694C9.35128 16.0245 9.58181 16.3916 9.59932 16.8H14.4015Z" fill="black" fill-opacity="0.2"/>
</svg>
