<svg width="24" height="24" viewBox="0 0 24 24" fill="none" xmlns="http://www.w3.org/2000/svg">
<path d="M15.1033 5.50297C16.0406 4.56571 17.5602 4.56571 18.4974 5.50297C19.4347 6.44023 19.4347 7.95982 18.4974 8.89708L14.8974 12.4971C13.9602 13.4343 12.4406 13.4343 11.5033 12.4971C11.0347 12.0285 10.2749 12.0285 9.80626 12.4971C9.33763 12.9657 9.33763 13.7255 9.80626 14.1941C11.6808 16.0687 14.72 16.0687 16.5945 14.1941L20.1945 10.5941C22.069 8.71962 22.069 5.68043 20.1945 3.80591C18.32 1.9314 15.2808 1.9314 13.4063 3.80591L11.6063 5.60591C11.1376 6.07454 11.1376 6.83434 11.6063 7.30297C12.0749 7.7716 12.8347 7.7716 13.3033 7.30297L15.1033 5.50297Z" fill="#00142E"/>
<path d="M15.1033 5.50297C16.0406 4.56571 17.5602 4.56571 18.4974 5.50297C19.4347 6.44023 19.4347 7.95982 18.4974 8.89708L14.8974 12.4971C13.9602 13.4343 12.4406 13.4343 11.5033 12.4971C11.0347 12.0285 10.2749 12.0285 9.80626 12.4971C9.33763 12.9657 9.33763 13.7255 9.80626 14.1941C11.6808 16.0687 14.72 16.0687 16.5945 14.1941L20.1945 10.5941C22.069 8.71962 22.069 5.68043 20.1945 3.80591C18.32 1.9314 15.2808 1.9314 13.4063 3.80591L11.6063 5.60591C11.1376 6.07454 11.1376 6.83434 11.6063 7.30297C12.0749 7.7716 12.8347 7.7716 13.3033 7.30297L15.1033 5.50297Z" fill="black" fill-opacity="0.2"/>
<path d="M9.10333 11.503C10.0406 10.5657 11.5602 10.5657 12.4974 11.503C12.9661 11.9716 13.7259 11.9716 14.1945 11.503C14.6631 11.0343 14.6631 10.2745 14.1945 9.80591C12.32 7.9314 9.28079 7.9314 7.40628 9.80591L3.80628 13.4059C1.93176 15.2804 1.93176 18.3196 3.80628 20.1941C5.68079 22.0687 8.71999 22.0687 10.5945 20.1941L12.3945 18.3941C12.8631 17.9255 12.8631 17.1657 12.3945 16.6971C11.9259 16.2285 11.1661 16.2285 10.6974 16.6971L8.89745 18.4971C7.96019 19.4343 6.44059 19.4343 5.50333 18.4971C4.56608 17.5598 4.56608 16.0402 5.50333 15.103L9.10333 11.503Z" fill="#00142E"/>
<path d="M9.10333 11.503C10.0406 10.5657 11.5602 10.5657 12.4974 11.503C12.9661 11.9716 13.7259 11.9716 14.1945 11.503C14.6631 11.0343 14.6631 10.2745 14.1945 9.80591C12.32 7.9314 9.28079 7.9314 7.40628 9.80591L3.80628 13.4059C1.93176 15.2804 1.93176 18.3196 3.80628 20.1941C5.68079 22.0687 8.71999 22.0687 10.5945 20.1941L12.3945 18.3941C12.8631 17.9255 12.8631 17.1657 12.3945 16.6971C11.9259 16.2285 11.1661 16.2285 10.6974 16.6971L8.89745 18.4971C7.96019 19.4343 6.44059 19.4343 5.50333 18.4971C4.56608 17.5598 4.56608 16.0402 5.50333 15.103L9.10333 11.503Z" fill="black" fill-opacity="0.2"/>
</svg>
