<svg width="24" height="24" viewBox="0 0 24 24" fill="none" xmlns="http://www.w3.org/2000/svg">
<path fill-rule="evenodd" clip-rule="evenodd" d="M6.05991 4.86033C9.34032 1.57992 14.6589 1.57992 17.9393 4.86033C21.2197 8.14073 21.2197 13.4593 17.9393 16.7397L11.9996 22.6794L6.05991 16.7397C2.77951 13.4593 2.77951 8.14073 6.05991 4.86033ZM11.9996 13.2C13.3251 13.2 14.3996 12.1255 14.3996 10.8C14.3996 9.47454 13.3251 8.40002 11.9996 8.40002C10.6741 8.40002 9.59961 9.47454 9.59961 10.8C9.59961 12.1255 10.6741 13.2 11.9996 13.2Z" fill="#00142E"/>
<path fill-rule="evenodd" clip-rule="evenodd" d="M6.05991 4.86033C9.34032 1.57992 14.6589 1.57992 17.9393 4.86033C21.2197 8.14073 21.2197 13.4593 17.9393 16.7397L11.9996 22.6794L6.05991 16.7397C2.77951 13.4593 2.77951 8.14073 6.05991 4.86033ZM11.9996 13.2C13.3251 13.2 14.3996 12.1255 14.3996 10.8C14.3996 9.47454 13.3251 8.40002 11.9996 8.40002C10.6741 8.40002 9.59961 9.47454 9.59961 10.8C9.59961 12.1255 10.6741 13.2 11.9996 13.2Z" fill="black" fill-opacity="0.2"/>
</svg>
