<svg width="24" height="24" viewBox="0 0 24 24" fill="none" xmlns="http://www.w3.org/2000/svg">
<path d="M11.9996 2.40002C8.6859 2.40002 5.99961 5.08632 5.99961 8.40002V10.8C4.67413 10.8 3.59961 11.8745 3.59961 13.2V19.2C3.59961 20.5255 4.67413 21.6 5.99961 21.6H17.9996C19.3251 21.6 20.3996 20.5255 20.3996 19.2V13.2C20.3996 11.8745 19.3251 10.8 17.9996 10.8H8.39961V8.40002C8.39961 6.4118 10.0114 4.80002 11.9996 4.80002C13.6754 4.80002 15.0866 5.94617 15.4863 7.49913C15.6515 8.14096 16.3057 8.52734 16.9475 8.36215C17.5893 8.19695 17.9757 7.54274 17.8105 6.90091C17.1445 4.31333 14.797 2.40002 11.9996 2.40002Z" fill="#00142E"/>
<path d="M11.9996 2.40002C8.6859 2.40002 5.99961 5.08632 5.99961 8.40002V10.8C4.67413 10.8 3.59961 11.8745 3.59961 13.2V19.2C3.59961 20.5255 4.67413 21.6 5.99961 21.6H17.9996C19.3251 21.6 20.3996 20.5255 20.3996 19.2V13.2C20.3996 11.8745 19.3251 10.8 17.9996 10.8H8.39961V8.40002C8.39961 6.4118 10.0114 4.80002 11.9996 4.80002C13.6754 4.80002 15.0866 5.94617 15.4863 7.49913C15.6515 8.14096 16.3057 8.52734 16.9475 8.36215C17.5893 8.19695 17.9757 7.54274 17.8105 6.90091C17.1445 4.31333 14.797 2.40002 11.9996 2.40002Z" fill="black" fill-opacity="0.2"/>
</svg>
