<svg width="24" height="24" viewBox="0 0 24 24" fill="none" xmlns="http://www.w3.org/2000/svg">
<path d="M3.60039 3.59998C2.93765 3.59998 2.40039 4.13723 2.40039 4.79998V19.2C2.40039 19.8627 2.93765 20.4 3.60039 20.4C4.26313 20.4 4.80039 19.8627 4.80039 19.2V4.79998C4.80039 4.13723 4.26313 3.59998 3.60039 3.59998Z" fill="#00142E"/>
<path d="M3.60039 3.59998C2.93765 3.59998 2.40039 4.13723 2.40039 4.79998V19.2C2.40039 19.8627 2.93765 20.4 3.60039 20.4C4.26313 20.4 4.80039 19.8627 4.80039 19.2V4.79998C4.80039 4.13723 4.26313 3.59998 3.60039 3.59998Z" fill="black" fill-opacity="0.2"/>
<path d="M15.9519 14.7514C15.4832 15.2201 15.4832 15.9799 15.9519 16.4485C16.4205 16.9171 17.1803 16.9171 17.6489 16.4485L21.2489 12.8485C21.474 12.6235 21.6004 12.3182 21.6004 12C21.6004 11.6817 21.474 11.3765 21.2489 11.1514L17.6489 7.55145C17.1803 7.08282 16.4205 7.08282 15.9519 7.55145C15.4832 8.02008 15.4832 8.77987 15.9519 9.2485L17.5033 10.8L8.40039 10.8C7.73765 10.8 7.20039 11.3372 7.20039 12C7.20039 12.6627 7.73765 13.2 8.40039 13.2H17.5033L15.9519 14.7514Z" fill="#00142E"/>
<path d="M15.9519 14.7514C15.4832 15.2201 15.4832 15.9799 15.9519 16.4485C16.4205 16.9171 17.1803 16.9171 17.6489 16.4485L21.2489 12.8485C21.474 12.6235 21.6004 12.3182 21.6004 12C21.6004 11.6817 21.474 11.3765 21.2489 11.1514L17.6489 7.55145C17.1803 7.08282 16.4205 7.08282 15.9519 7.55145C15.4832 8.02008 15.4832 8.77987 15.9519 9.2485L17.5033 10.8L8.40039 10.8C7.73765 10.8 7.20039 11.3372 7.20039 12C7.20039 12.6627 7.73765 13.2 8.40039 13.2H17.5033L15.9519 14.7514Z" fill="black" fill-opacity="0.2"/>
</svg>
