<svg width="24" height="24" viewBox="0 0 24 24" fill="none" xmlns="http://www.w3.org/2000/svg">
<path fill-rule="evenodd" clip-rule="evenodd" d="M3.59961 3.59997C4.26235 3.59997 4.79961 4.13723 4.79961 4.79997L4.79961 19.2C4.79961 19.8627 4.26235 20.4 3.59961 20.4C2.93687 20.4 2.39961 19.8627 2.39961 19.2L2.39961 4.79997C2.39961 4.13723 2.93687 3.59997 3.59961 3.59997ZM12.8481 7.55145C13.3168 8.02008 13.3168 8.77987 12.8481 9.2485L11.2967 10.8L20.3996 10.8C21.0624 10.8 21.5996 11.3372 21.5996 12C21.5996 12.6627 21.0624 13.2 20.3996 13.2L11.2967 13.2L12.8481 14.7514C13.3168 15.2201 13.3168 15.9799 12.8481 16.4485C12.3795 16.9171 11.6197 16.9171 11.1511 16.4485L7.55108 12.8485C7.32604 12.6235 7.19961 12.3182 7.19961 12C7.19961 11.6817 7.32604 11.3765 7.55108 11.1514L11.1511 7.55145C11.6197 7.08282 12.3795 7.08282 12.8481 7.55145Z" fill="#00142E"/>
<path fill-rule="evenodd" clip-rule="evenodd" d="M3.59961 3.59997C4.26235 3.59997 4.79961 4.13723 4.79961 4.79997L4.79961 19.2C4.79961 19.8627 4.26235 20.4 3.59961 20.4C2.93687 20.4 2.39961 19.8627 2.39961 19.2L2.39961 4.79997C2.39961 4.13723 2.93687 3.59997 3.59961 3.59997ZM12.8481 7.55145C13.3168 8.02008 13.3168 8.77987 12.8481 9.2485L11.2967 10.8L20.3996 10.8C21.0624 10.8 21.5996 11.3372 21.5996 12C21.5996 12.6627 21.0624 13.2 20.3996 13.2L11.2967 13.2L12.8481 14.7514C13.3168 15.2201 13.3168 15.9799 12.8481 16.4485C12.3795 16.9171 11.6197 16.9171 11.1511 16.4485L7.55108 12.8485C7.32604 12.6235 7.19961 12.3182 7.19961 12C7.19961 11.6817 7.32604 11.3765 7.55108 11.1514L11.1511 7.55145C11.6197 7.08282 12.3795 7.08282 12.8481 7.55145Z" fill="black" fill-opacity="0.2"/>
</svg>
