<svg width="24" height="24" viewBox="0 0 24 24" fill="none" xmlns="http://www.w3.org/2000/svg">
<path fill-rule="evenodd" clip-rule="evenodd" d="M3.52839 7.69488C2.82668 8.13345 2.40039 8.90258 2.40039 9.73008V19.1999C2.40039 20.5254 3.47491 21.5999 4.80039 21.5999H19.2004C20.5259 21.5999 21.6004 20.5254 21.6004 19.1999V9.73008C21.6004 8.90258 21.1741 8.13346 20.4724 7.69488L13.2724 3.19488C12.4941 2.70848 11.5066 2.70848 10.7284 3.19488L3.52839 7.69488ZM6.66603 10.6015C6.1146 10.2339 5.36955 10.3829 5.00193 10.9344C4.63431 11.4858 4.78332 12.2308 5.33475 12.5985L11.3348 16.5985C11.7378 16.8672 12.263 16.8672 12.666 16.5985L18.666 12.5985C19.2175 12.2308 19.3665 11.4858 18.9989 10.9344C18.6312 10.3829 17.8862 10.2339 17.3348 10.6015L12.0004 14.1578L6.66603 10.6015Z" fill="#00142E"/>
<path fill-rule="evenodd" clip-rule="evenodd" d="M3.52839 7.69488C2.82668 8.13345 2.40039 8.90258 2.40039 9.73008V19.1999C2.40039 20.5254 3.47491 21.5999 4.80039 21.5999H19.2004C20.5259 21.5999 21.6004 20.5254 21.6004 19.1999V9.73008C21.6004 8.90258 21.1741 8.13346 20.4724 7.69488L13.2724 3.19488C12.4941 2.70848 11.5066 2.70848 10.7284 3.19488L3.52839 7.69488ZM6.66603 10.6015C6.1146 10.2339 5.36955 10.3829 5.00193 10.9344C4.63431 11.4858 4.78332 12.2308 5.33475 12.5985L11.3348 16.5985C11.7378 16.8672 12.263 16.8672 12.666 16.5985L18.666 12.5985C19.2175 12.2308 19.3665 11.4858 18.9989 10.9344C18.6312 10.3829 17.8862 10.2339 17.3348 10.6015L12.0004 14.1578L6.66603 10.6015Z" fill="black" fill-opacity="0.2"/>
</svg>
