<svg width="24" height="24" viewBox="0 0 24 24" fill="none" xmlns="http://www.w3.org/2000/svg">
<path fill-rule="evenodd" clip-rule="evenodd" d="M7.1998 2.40002C5.87432 2.40002 4.7998 3.47454 4.7998 4.80002V19.2C4.7998 20.5255 5.87432 21.6 7.1998 21.6H16.7998C18.1253 21.6 19.1998 20.5255 19.1998 19.2V4.80002C19.1998 3.47454 18.1253 2.40002 16.7998 2.40002H7.1998ZM11.9998 19.2C12.6625 19.2 13.1998 18.6628 13.1998 18C13.1998 17.3373 12.6625 16.8 11.9998 16.8C11.3371 16.8 10.7998 17.3373 10.7998 18C10.7998 18.6628 11.3371 19.2 11.9998 19.2Z" fill="#00142E"/>
<path fill-rule="evenodd" clip-rule="evenodd" d="M7.1998 2.40002C5.87432 2.40002 4.7998 3.47454 4.7998 4.80002V19.2C4.7998 20.5255 5.87432 21.6 7.1998 21.6H16.7998C18.1253 21.6 19.1998 20.5255 19.1998 19.2V4.80002C19.1998 3.47454 18.1253 2.40002 16.7998 2.40002H7.1998ZM11.9998 19.2C12.6625 19.2 13.1998 18.6628 13.1998 18C13.1998 17.3373 12.6625 16.8 11.9998 16.8C11.3371 16.8 10.7998 17.3373 10.7998 18C10.7998 18.6628 11.3371 19.2 11.9998 19.2Z" fill="black" fill-opacity="0.2"/>
</svg>
