<svg width="24" height="24" viewBox="0 0 24 24" fill="none" xmlns="http://www.w3.org/2000/svg">
<path fill-rule="evenodd" clip-rule="evenodd" d="M14.4004 1.90295L9.60039 6.70295V22.0971L14.4004 17.2971V1.90295Z" fill="#00142E"/>
<path fill-rule="evenodd" clip-rule="evenodd" d="M14.4004 1.90295L9.60039 6.70295V22.0971L14.4004 17.2971V1.90295Z" fill="black" fill-opacity="0.2"/>
<path fill-rule="evenodd" clip-rule="evenodd" d="M4.44892 3.95148C4.10572 3.60828 3.58958 3.50562 3.14117 3.69136C2.69276 3.87709 2.40039 4.31466 2.40039 4.80001V16.8C2.40039 17.1183 2.52682 17.4235 2.75186 17.6485L7.20039 22.0971V6.70295L4.44892 3.95148Z" fill="#00142E"/>
<path fill-rule="evenodd" clip-rule="evenodd" d="M4.44892 3.95148C4.10572 3.60828 3.58958 3.50562 3.14117 3.69136C2.69276 3.87709 2.40039 4.31466 2.40039 4.80001V16.8C2.40039 17.1183 2.52682 17.4235 2.75186 17.6485L7.20039 22.0971V6.70295L4.44892 3.95148Z" fill="black" fill-opacity="0.2"/>
<path fill-rule="evenodd" clip-rule="evenodd" d="M21.2489 6.35148L16.8004 1.90295V17.2971L19.5519 20.0485C19.8951 20.3917 20.4112 20.4944 20.8596 20.3087C21.308 20.1229 21.6004 19.6854 21.6004 19.2V7.20001C21.6004 6.88175 21.474 6.57653 21.2489 6.35148Z" fill="#00142E"/>
<path fill-rule="evenodd" clip-rule="evenodd" d="M21.2489 6.35148L16.8004 1.90295V17.2971L19.5519 20.0485C19.8951 20.3917 20.4112 20.4944 20.8596 20.3087C21.308 20.1229 21.6004 19.6854 21.6004 19.2V7.20001C21.6004 6.88175 21.474 6.57653 21.2489 6.35148Z" fill="black" fill-opacity="0.2"/>
</svg>
