<svg width="24" height="24" viewBox="0 0 24 24" fill="none" xmlns="http://www.w3.org/2000/svg">
<path fill-rule="evenodd" clip-rule="evenodd" d="M12.596 2.55813C12.227 2.34732 11.7741 2.34732 11.4052 2.55813L3.00523 7.35813C2.42981 7.68694 2.22989 8.41997 2.5587 8.99539C2.77996 9.3826 3.18425 9.59977 3.60039 9.60023V18C2.93765 18 2.40039 18.5373 2.40039 19.2C2.40039 19.8628 2.93765 20.4 3.60039 20.4H20.4004C21.0631 20.4 21.6004 19.8628 21.6004 19.2C21.6004 18.5373 21.0631 18 20.4004 18V9.60023C20.8167 9.59991 21.2212 9.38272 21.4425 8.99539C21.7713 8.41997 21.5714 7.68694 20.996 7.35813L12.596 2.55813ZM7.20039 10.8C6.53765 10.8 6.00039 11.3373 6.00039 12V15.6C6.00039 16.2628 6.53765 16.8 7.20039 16.8C7.86313 16.8 8.40039 16.2628 8.40039 15.6V12C8.40039 11.3373 7.86313 10.8 7.20039 10.8ZM10.8004 12C10.8004 11.3373 11.3376 10.8 12.0004 10.8C12.6631 10.8 13.2004 11.3373 13.2004 12V15.6C13.2004 16.2628 12.6631 16.8 12.0004 16.8C11.3376 16.8 10.8004 16.2628 10.8004 15.6V12ZM16.8004 10.8C16.1376 10.8 15.6004 11.3373 15.6004 12V15.6C15.6004 16.2628 16.1376 16.8 16.8004 16.8C17.4631 16.8 18.0004 16.2628 18.0004 15.6V12C18.0004 11.3373 17.4631 10.8 16.8004 10.8Z" fill="#00142E"/>
<path fill-rule="evenodd" clip-rule="evenodd" d="M12.596 2.55813C12.227 2.34732 11.7741 2.34732 11.4052 2.55813L3.00523 7.35813C2.42981 7.68694 2.22989 8.41997 2.5587 8.99539C2.77996 9.3826 3.18425 9.59977 3.60039 9.60023V18C2.93765 18 2.40039 18.5373 2.40039 19.2C2.40039 19.8628 2.93765 20.4 3.60039 20.4H20.4004C21.0631 20.4 21.6004 19.8628 21.6004 19.2C21.6004 18.5373 21.0631 18 20.4004 18V9.60023C20.8167 9.59991 21.2212 9.38272 21.4425 8.99539C21.7713 8.41997 21.5714 7.68694 20.996 7.35813L12.596 2.55813ZM7.20039 10.8C6.53765 10.8 6.00039 11.3373 6.00039 12V15.6C6.00039 16.2628 6.53765 16.8 7.20039 16.8C7.86313 16.8 8.40039 16.2628 8.40039 15.6V12C8.40039 11.3373 7.86313 10.8 7.20039 10.8ZM10.8004 12C10.8004 11.3373 11.3376 10.8 12.0004 10.8C12.6631 10.8 13.2004 11.3373 13.2004 12V15.6C13.2004 16.2628 12.6631 16.8 12.0004 16.8C11.3376 16.8 10.8004 16.2628 10.8004 15.6V12ZM16.8004 10.8C16.1376 10.8 15.6004 11.3373 15.6004 12V15.6C15.6004 16.2628 16.1376 16.8 16.8004 16.8C17.4631 16.8 18.0004 16.2628 18.0004 15.6V12C18.0004 11.3373 17.4631 10.8 16.8004 10.8Z" fill="black" fill-opacity="0.2"/>
</svg>
