<svg width="24" height="24" viewBox="0 0 24 24" fill="none" xmlns="http://www.w3.org/2000/svg">
<path fill-rule="evenodd" clip-rule="evenodd" d="M3.59961 8.39995C3.59961 7.73721 4.13687 7.19995 4.79961 7.19995H19.1996C19.8624 7.19995 20.3996 7.73721 20.3996 8.39995C20.3996 9.06269 19.8624 9.59995 19.1996 9.59995H4.79961C4.13687 9.59995 3.59961 9.06269 3.59961 8.39995Z" fill="#00142E"/>
<path fill-rule="evenodd" clip-rule="evenodd" d="M3.59961 8.39995C3.59961 7.73721 4.13687 7.19995 4.79961 7.19995H19.1996C19.8624 7.19995 20.3996 7.73721 20.3996 8.39995C20.3996 9.06269 19.8624 9.59995 19.1996 9.59995H4.79961C4.13687 9.59995 3.59961 9.06269 3.59961 8.39995Z" fill="black" fill-opacity="0.2"/>
<path fill-rule="evenodd" clip-rule="evenodd" d="M3.59961 15.6C3.59961 14.9372 4.13687 14.4 4.79961 14.4H19.1996C19.8624 14.4 20.3996 14.9372 20.3996 15.6C20.3996 16.2627 19.8624 16.8 19.1996 16.8H4.79961C4.13687 16.8 3.59961 16.2627 3.59961 15.6Z" fill="#00142E"/>
<path fill-rule="evenodd" clip-rule="evenodd" d="M3.59961 15.6C3.59961 14.9372 4.13687 14.4 4.79961 14.4H19.1996C19.8624 14.4 20.3996 14.9372 20.3996 15.6C20.3996 16.2627 19.8624 16.8 19.1996 16.8H4.79961C4.13687 16.8 3.59961 16.2627 3.59961 15.6Z" fill="black" fill-opacity="0.2"/>
</svg>
