<svg width="24" height="24" viewBox="0 0 24 24" fill="none" xmlns="http://www.w3.org/2000/svg">
<path d="M8.39961 4.79995C8.39961 2.81173 10.0114 1.19995 11.9996 1.19995C13.9878 1.19995 15.5996 2.81173 15.5996 4.79995V9.59995C15.5996 11.5882 13.9878 13.2 11.9996 13.2C10.0114 13.2 8.39961 11.5882 8.39961 9.59995V4.79995Z" fill="#00142E"/>
<path d="M8.39961 4.79995C8.39961 2.81173 10.0114 1.19995 11.9996 1.19995C13.9878 1.19995 15.5996 2.81173 15.5996 4.79995V9.59995C15.5996 11.5882 13.9878 13.2 11.9996 13.2C10.0114 13.2 8.39961 11.5882 8.39961 9.59995V4.79995Z" fill="black" fill-opacity="0.2"/>
<path d="M13.1996 17.9149C17.2704 17.3326 20.3996 13.8317 20.3996 9.59995C20.3996 8.93721 19.8624 8.39995 19.1996 8.39995C18.5369 8.39995 17.9996 8.93721 17.9996 9.59995C17.9996 12.9137 15.3133 15.6 11.9996 15.6C8.6859 15.6 5.99961 12.9137 5.99961 9.59995C5.99961 8.93721 5.46235 8.39995 4.79961 8.39995C4.13687 8.39995 3.59961 8.93721 3.59961 9.59995C3.59961 13.8317 6.72886 17.3326 10.7996 17.9149V20.4H7.19961C6.53687 20.4 5.99961 20.9372 5.99961 21.5999C5.99961 22.2627 6.53687 22.7999 7.19961 22.7999H16.7996C17.4624 22.7999 17.9996 22.2627 17.9996 21.5999C17.9996 20.9372 17.4624 20.4 16.7996 20.4H13.1996V17.9149Z" fill="#00142E"/>
<path d="M13.1996 17.9149C17.2704 17.3326 20.3996 13.8317 20.3996 9.59995C20.3996 8.93721 19.8624 8.39995 19.1996 8.39995C18.5369 8.39995 17.9996 8.93721 17.9996 9.59995C17.9996 12.9137 15.3133 15.6 11.9996 15.6C8.6859 15.6 5.99961 12.9137 5.99961 9.59995C5.99961 8.93721 5.46235 8.39995 4.79961 8.39995C4.13687 8.39995 3.59961 8.93721 3.59961 9.59995C3.59961 13.8317 6.72886 17.3326 10.7996 17.9149V20.4H7.19961C6.53687 20.4 5.99961 20.9372 5.99961 21.5999C5.99961 22.2627 6.53687 22.7999 7.19961 22.7999H16.7996C17.4624 22.7999 17.9996 22.2627 17.9996 21.5999C17.9996 20.9372 17.4624 20.4 16.7996 20.4H13.1996V17.9149Z" fill="black" fill-opacity="0.2"/>
</svg>
