<svg width="24" height="24" viewBox="0 0 24 24" fill="none" xmlns="http://www.w3.org/2000/svg">
<path fill-rule="evenodd" clip-rule="evenodd" d="M6 12C6 11.3372 6.53726 10.8 7.2 10.8L16.8 10.8C17.4627 10.8 18 11.3372 18 12C18 12.6627 17.4627 13.2 16.8 13.2L7.2 13.2C6.53726 13.2 6 12.6627 6 12Z" fill="#00142E"/>
<path fill-rule="evenodd" clip-rule="evenodd" d="M6 12C6 11.3372 6.53726 10.8 7.2 10.8L16.8 10.8C17.4627 10.8 18 11.3372 18 12C18 12.6627 17.4627 13.2 16.8 13.2L7.2 13.2C6.53726 13.2 6 12.6627 6 12Z" fill="black" fill-opacity="0.2"/>
</svg>
