<svg width="24" height="24" viewBox="0 0 24 24" fill="none" xmlns="http://www.w3.org/2000/svg">
<path fill-rule="evenodd" clip-rule="evenodd" d="M12.0004 21.6C17.3023 21.6 21.6004 17.302 21.6004 12C21.6004 6.69809 17.3023 2.40002 12.0004 2.40002C6.69846 2.40002 2.40039 6.69809 2.40039 12C2.40039 17.302 6.69846 21.6 12.0004 21.6ZM8.40039 10.8C7.73765 10.8 7.20039 11.3373 7.20039 12C7.20039 12.6628 7.73765 13.2 8.40039 13.2H15.6004C16.2631 13.2 16.8004 12.6628 16.8004 12C16.8004 11.3373 16.2631 10.8 15.6004 10.8H8.40039Z" fill="#00142E"/>
<path fill-rule="evenodd" clip-rule="evenodd" d="M12.0004 21.6C17.3023 21.6 21.6004 17.302 21.6004 12C21.6004 6.69809 17.3023 2.40002 12.0004 2.40002C6.69846 2.40002 2.40039 6.69809 2.40039 12C2.40039 17.302 6.69846 21.6 12.0004 21.6ZM8.40039 10.8C7.73765 10.8 7.20039 11.3373 7.20039 12C7.20039 12.6628 7.73765 13.2 8.40039 13.2H15.6004C16.2631 13.2 16.8004 12.6628 16.8004 12C16.8004 11.3373 16.2631 10.8 15.6004 10.8H8.40039Z" fill="black" fill-opacity="0.2"/>
</svg>
