<svg width="24" height="24" viewBox="0 0 24 24" fill="none" xmlns="http://www.w3.org/2000/svg">
<path d="M20.7518 15.9516C19.5467 16.4965 18.209 16.7999 16.8004 16.7999C11.4985 16.7999 7.20039 12.5019 7.20039 7.19992C7.20039 5.79116 7.50384 4.45327 8.04893 3.24805C4.71804 4.75435 2.40039 8.10636 2.40039 11.9997C2.40039 17.3016 6.69846 21.5997 12.0004 21.5997C15.8936 21.5997 19.2455 19.2822 20.7518 15.9516Z" fill="#00142E"/>
<path d="M20.7518 15.9516C19.5467 16.4965 18.209 16.7999 16.8004 16.7999C11.4985 16.7999 7.20039 12.5019 7.20039 7.19992C7.20039 5.79116 7.50384 4.45327 8.04893 3.24805C4.71804 4.75435 2.40039 8.10636 2.40039 11.9997C2.40039 17.3016 6.69846 21.5997 12.0004 21.5997C15.8936 21.5997 19.2455 19.2822 20.7518 15.9516Z" fill="black" fill-opacity="0.2"/>
</svg>
