<svg width="24" height="24" viewBox="0 0 24 24" fill="none" xmlns="http://www.w3.org/2000/svg">
<path d="M21.6004 3.60003C21.6004 3.24052 21.4392 2.89995 21.1612 2.67202C20.8832 2.4441 20.5176 2.35283 20.1651 2.42334L8.16505 4.82334C7.60414 4.93552 7.20039 5.42802 7.20039 6.00003V16.9366C6.82506 16.8481 6.42115 16.8 6.00039 16.8C4.01217 16.8 2.40039 17.8745 2.40039 19.2C2.40039 20.5255 4.01217 21.6 6.00039 21.6C7.98861 21.6 9.60038 20.5255 9.60039 19.2V9.38379L19.2004 7.46379V14.5366C18.8251 14.4481 18.4212 14.4 18.0004 14.4C16.0122 14.4 14.4004 15.4745 14.4004 16.8C14.4004 18.1255 16.0122 19.2 18.0004 19.2C19.9886 19.2 21.6004 18.1255 21.6004 16.8V3.60003Z" fill="#00142E"/>
<path d="M21.6004 3.60003C21.6004 3.24052 21.4392 2.89995 21.1612 2.67202C20.8832 2.4441 20.5176 2.35283 20.1651 2.42334L8.16505 4.82334C7.60414 4.93552 7.20039 5.42802 7.20039 6.00003V16.9366C6.82506 16.8481 6.42115 16.8 6.00039 16.8C4.01217 16.8 2.40039 17.8745 2.40039 19.2C2.40039 20.5255 4.01217 21.6 6.00039 21.6C7.98861 21.6 9.60038 20.5255 9.60039 19.2V9.38379L19.2004 7.46379V14.5366C18.8251 14.4481 18.4212 14.4 18.0004 14.4C16.0122 14.4 14.4004 15.4745 14.4004 16.8C14.4004 18.1255 16.0122 19.2 18.0004 19.2C19.9886 19.2 21.6004 18.1255 21.6004 16.8V3.60003Z" fill="black" fill-opacity="0.2"/>
</svg>
