<svg width="24" height="24" viewBox="0 0 24 24" fill="none" xmlns="http://www.w3.org/2000/svg">
<path fill-rule="evenodd" clip-rule="evenodd" d="M2.40039 5.99998C2.40039 4.67449 3.47491 3.59998 4.80039 3.59998H14.4004C15.7259 3.59998 16.8004 4.67449 16.8004 5.99998V18C16.8004 19.3255 17.8749 20.4 19.2004 20.4H4.80039C3.47491 20.4 2.40039 19.3255 2.40039 18V5.99998ZM6.00039 7.19998H13.2004V12H6.00039V7.19998ZM13.2004 14.4H6.00039V16.8H13.2004V14.4Z" fill="#00142E"/>
<path fill-rule="evenodd" clip-rule="evenodd" d="M2.40039 5.99998C2.40039 4.67449 3.47491 3.59998 4.80039 3.59998H14.4004C15.7259 3.59998 16.8004 4.67449 16.8004 5.99998V18C16.8004 19.3255 17.8749 20.4 19.2004 20.4H4.80039C3.47491 20.4 2.40039 19.3255 2.40039 18V5.99998ZM6.00039 7.19998H13.2004V12H6.00039V7.19998ZM13.2004 14.4H6.00039V16.8H13.2004V14.4Z" fill="black" fill-opacity="0.2"/>
<path d="M18.0004 8.39998H19.2004C20.5259 8.39998 21.6004 9.47449 21.6004 10.8V17.4C21.6004 18.3941 20.7945 19.2 19.8004 19.2C18.8063 19.2 18.0004 18.3941 18.0004 17.4V8.39998Z" fill="#00142E"/>
<path d="M18.0004 8.39998H19.2004C20.5259 8.39998 21.6004 9.47449 21.6004 10.8V17.4C21.6004 18.3941 20.7945 19.2 19.8004 19.2C18.8063 19.2 18.0004 18.3941 18.0004 17.4V8.39998Z" fill="black" fill-opacity="0.2"/>
</svg>
