<svg width="24" height="24" viewBox="0 0 24 24" fill="none" xmlns="http://www.w3.org/2000/svg">
<path fill-rule="evenodd" clip-rule="evenodd" d="M4.79961 4.80002C4.79961 3.47454 5.87413 2.40002 7.19961 2.40002H16.7996C18.1251 2.40002 19.1996 3.47454 19.1996 4.80002V19.2C19.8623 19.2 20.3996 19.7373 20.3996 20.4C20.3996 21.0628 19.8623 21.6 19.1996 21.6H15.3996C14.8473 21.6 14.3996 21.1523 14.3996 20.6V18C14.3996 17.3373 13.8624 16.8 13.1996 16.8H10.7996C10.1369 16.8 9.59961 17.3373 9.59961 18V20.6C9.59961 21.1523 9.15189 21.6 8.59961 21.6H4.79961C4.13687 21.6 3.59961 21.0628 3.59961 20.4C3.59961 19.7373 4.13687 19.2 4.79961 19.2V4.80002ZM8.39961 6.00002H10.7996V8.40002H8.39961V6.00002ZM10.7996 10.8H8.39961V13.2H10.7996V10.8ZM13.1996 6.00002H15.5996V8.40002H13.1996V6.00002ZM15.5996 10.8H13.1996V13.2H15.5996V10.8Z" fill="#00142E"/>
<path fill-rule="evenodd" clip-rule="evenodd" d="M4.79961 4.80002C4.79961 3.47454 5.87413 2.40002 7.19961 2.40002H16.7996C18.1251 2.40002 19.1996 3.47454 19.1996 4.80002V19.2C19.8623 19.2 20.3996 19.7373 20.3996 20.4C20.3996 21.0628 19.8623 21.6 19.1996 21.6H15.3996C14.8473 21.6 14.3996 21.1523 14.3996 20.6V18C14.3996 17.3373 13.8624 16.8 13.1996 16.8H10.7996C10.1369 16.8 9.59961 17.3373 9.59961 18V20.6C9.59961 21.1523 9.15189 21.6 8.59961 21.6H4.79961C4.13687 21.6 3.59961 21.0628 3.59961 20.4C3.59961 19.7373 4.13687 19.2 4.79961 19.2V4.80002ZM8.39961 6.00002H10.7996V8.40002H8.39961V6.00002ZM10.7996 10.8H8.39961V13.2H10.7996V10.8ZM13.1996 6.00002H15.5996V8.40002H13.1996V6.00002ZM15.5996 10.8H13.1996V13.2H15.5996V10.8Z" fill="black" fill-opacity="0.2"/>
</svg>
