<svg width="24" height="24" viewBox="0 0 24 24" fill="none" xmlns="http://www.w3.org/2000/svg">
<path d="M13.0737 3.06337C12.8704 2.65683 12.4549 2.40002 12.0004 2.40002C11.5459 2.40002 11.1304 2.65683 10.9271 3.06337L2.52709 19.8634C2.31427 20.289 2.37308 20.8002 2.67699 21.1664C2.98091 21.5326 3.4725 21.6846 3.93007 21.5539L9.93006 19.8396C10.4452 19.6924 10.8004 19.2215 10.8004 18.6857V13.2C10.8004 12.5373 11.3376 12 12.0004 12C12.6631 12 13.2004 12.5373 13.2004 13.2V18.6857C13.2004 19.2215 13.5556 19.6924 14.0707 19.8396L20.0707 21.5539C20.5283 21.6846 21.0199 21.5326 21.3238 21.1664C21.6277 20.8002 21.6865 20.289 21.4737 19.8634L13.0737 3.06337Z" fill="#00142E"/>
<path d="M13.0737 3.06337C12.8704 2.65683 12.4549 2.40002 12.0004 2.40002C11.5459 2.40002 11.1304 2.65683 10.9271 3.06337L2.52709 19.8634C2.31427 20.289 2.37308 20.8002 2.67699 21.1664C2.98091 21.5326 3.4725 21.6846 3.93007 21.5539L9.93006 19.8396C10.4452 19.6924 10.8004 19.2215 10.8004 18.6857V13.2C10.8004 12.5373 11.3376 12 12.0004 12C12.6631 12 13.2004 12.5373 13.2004 13.2V18.6857C13.2004 19.2215 13.5556 19.6924 14.0707 19.8396L20.0707 21.5539C20.5283 21.6846 21.0199 21.5326 21.3238 21.1664C21.6277 20.8002 21.6865 20.289 21.4737 19.8634L13.0737 3.06337Z" fill="black" fill-opacity="0.2"/>
</svg>
