<svg width="24" height="24" viewBox="0 0 24 24" fill="none" xmlns="http://www.w3.org/2000/svg">
<path fill-rule="evenodd" clip-rule="evenodd" d="M9.59961 4.80002C7.61138 4.80002 5.99961 6.4118 5.99961 8.40002V13.2C5.99961 16.5137 8.6859 19.2 11.9996 19.2C15.3133 19.2 17.9996 16.5137 17.9996 13.2V8.40002C17.9996 7.73728 18.5369 7.20002 19.1996 7.20002C19.8624 7.20002 20.3996 7.73728 20.3996 8.40002V13.2C20.3996 17.8392 16.6388 21.6 11.9996 21.6C7.36042 21.6 3.59961 17.8392 3.59961 13.2V8.40002C3.59961 5.08632 6.2859 2.40002 9.59961 2.40002C12.9133 2.40002 15.5996 5.08632 15.5996 8.40002V13.2C15.5996 15.1883 13.9878 16.8 11.9996 16.8C10.0114 16.8 8.39961 15.1883 8.39961 13.2V8.40002C8.39961 7.73728 8.93687 7.20002 9.59961 7.20002C10.2624 7.20002 10.7996 7.73728 10.7996 8.40002V13.2C10.7996 13.8628 11.3369 14.4 11.9996 14.4C12.6624 14.4 13.1996 13.8628 13.1996 13.2V8.40002C13.1996 6.4118 11.5878 4.80002 9.59961 4.80002Z" fill="#00142E"/>
<path fill-rule="evenodd" clip-rule="evenodd" d="M9.59961 4.80002C7.61138 4.80002 5.99961 6.4118 5.99961 8.40002V13.2C5.99961 16.5137 8.6859 19.2 11.9996 19.2C15.3133 19.2 17.9996 16.5137 17.9996 13.2V8.40002C17.9996 7.73728 18.5369 7.20002 19.1996 7.20002C19.8624 7.20002 20.3996 7.73728 20.3996 8.40002V13.2C20.3996 17.8392 16.6388 21.6 11.9996 21.6C7.36042 21.6 3.59961 17.8392 3.59961 13.2V8.40002C3.59961 5.08632 6.2859 2.40002 9.59961 2.40002C12.9133 2.40002 15.5996 5.08632 15.5996 8.40002V13.2C15.5996 15.1883 13.9878 16.8 11.9996 16.8C10.0114 16.8 8.39961 15.1883 8.39961 13.2V8.40002C8.39961 7.73728 8.93687 7.20002 9.59961 7.20002C10.2624 7.20002 10.7996 7.73728 10.7996 8.40002V13.2C10.7996 13.8628 11.3369 14.4 11.9996 14.4C12.6624 14.4 13.1996 13.8628 13.1996 13.2V8.40002C13.1996 6.4118 11.5878 4.80002 9.59961 4.80002Z" fill="black" fill-opacity="0.2"/>
</svg>
