<svg width="24" height="24" viewBox="0 0 24 24" fill="none" xmlns="http://www.w3.org/2000/svg">
<path fill-rule="evenodd" clip-rule="evenodd" d="M21.6004 12C21.6004 17.302 17.3023 21.6 12.0004 21.6C6.69846 21.6 2.40039 17.302 2.40039 12C2.40039 6.69809 6.69846 2.40002 12.0004 2.40002C17.3023 2.40002 21.6004 6.69809 21.6004 12ZM8.40039 9.60002C8.40039 8.93728 8.93765 8.40002 9.60039 8.40002C10.2631 8.40002 10.8004 8.93728 10.8004 9.60002V14.4C10.8004 15.0628 10.2631 15.6 9.60039 15.6C8.93765 15.6 8.40039 15.0628 8.40039 14.4V9.60002ZM14.4004 8.40002C13.7376 8.40002 13.2004 8.93728 13.2004 9.60002V14.4C13.2004 15.0628 13.7376 15.6 14.4004 15.6C15.0631 15.6 15.6004 15.0628 15.6004 14.4V9.60002C15.6004 8.93728 15.0631 8.40002 14.4004 8.40002Z" fill="#00142E"/>
<path fill-rule="evenodd" clip-rule="evenodd" d="M21.6004 12C21.6004 17.302 17.3023 21.6 12.0004 21.6C6.69846 21.6 2.40039 17.302 2.40039 12C2.40039 6.69809 6.69846 2.40002 12.0004 2.40002C17.3023 2.40002 21.6004 6.69809 21.6004 12ZM8.40039 9.60002C8.40039 8.93728 8.93765 8.40002 9.60039 8.40002C10.2631 8.40002 10.8004 8.93728 10.8004 9.60002V14.4C10.8004 15.0628 10.2631 15.6 9.60039 15.6C8.93765 15.6 8.40039 15.0628 8.40039 14.4V9.60002ZM14.4004 8.40002C13.7376 8.40002 13.2004 8.93728 13.2004 9.60002V14.4C13.2004 15.0628 13.7376 15.6 14.4004 15.6C15.0631 15.6 15.6004 15.0628 15.6004 14.4V9.60002C15.6004 8.93728 15.0631 8.40002 14.4004 8.40002Z" fill="black" fill-opacity="0.2"/>
</svg>
