<svg width="24" height="24" viewBox="0 0 24 24" fill="none" xmlns="http://www.w3.org/2000/svg">
<path d="M16.3026 4.30292C17.2398 3.36566 18.7594 3.36566 19.6967 4.30292C20.6339 5.24018 20.6339 6.75977 19.6967 7.69703L18.7452 8.6485L15.3511 5.25439L16.3026 4.30292Z" fill="#00142E"/>
<path d="M16.3026 4.30292C17.2398 3.36566 18.7594 3.36566 19.6967 4.30292C20.6339 5.24018 20.6339 6.75977 19.6967 7.69703L18.7452 8.6485L15.3511 5.25439L16.3026 4.30292Z" fill="black" fill-opacity="0.2"/>
<path d="M13.654 6.95145L3.59961 17.0059V20.4H6.99372L17.0481 10.3456L13.654 6.95145Z" fill="#00142E"/>
<path d="M13.654 6.95145L3.59961 17.0059V20.4H6.99372L17.0481 10.3456L13.654 6.95145Z" fill="black" fill-opacity="0.2"/>
</svg>
