<svg width="24" height="24" viewBox="0 0 24 24" fill="none" xmlns="http://www.w3.org/2000/svg">
<path d="M21.5093 3.14068C21.4512 3.00019 21.3653 2.8685 21.2515 2.75404C21.2498 2.75234 21.2481 2.75065 21.2464 2.74896C21.0294 2.53329 20.7305 2.40002 20.4004 2.40002H15.6004C14.9376 2.40002 14.4004 2.93728 14.4004 3.60002C14.4004 4.26277 14.9376 4.80002 15.6004 4.80002H17.5033L13.5519 8.7515C13.0832 9.22013 13.0832 9.97992 13.5519 10.4486C14.0205 10.9172 14.7803 10.9172 15.2489 10.4486L19.2004 6.49708V8.40002C19.2004 9.06277 19.7376 9.60002 20.4004 9.60002C21.0631 9.60002 21.6004 9.06277 21.6004 8.40002V3.60002C21.6004 3.43732 21.568 3.28217 21.5093 3.14068Z" fill="#00142E"/>
<path d="M21.5093 3.14068C21.4512 3.00019 21.3653 2.8685 21.2515 2.75404C21.2498 2.75234 21.2481 2.75065 21.2464 2.74896C21.0294 2.53329 20.7305 2.40002 20.4004 2.40002H15.6004C14.9376 2.40002 14.4004 2.93728 14.4004 3.60002C14.4004 4.26277 14.9376 4.80002 15.6004 4.80002H17.5033L13.5519 8.7515C13.0832 9.22013 13.0832 9.97992 13.5519 10.4486C14.0205 10.9172 14.7803 10.9172 15.2489 10.4486L19.2004 6.49708V8.40002C19.2004 9.06277 19.7376 9.60002 20.4004 9.60002C21.0631 9.60002 21.6004 9.06277 21.6004 8.40002V3.60002C21.6004 3.43732 21.568 3.28217 21.5093 3.14068Z" fill="black" fill-opacity="0.2"/>
<path d="M2.40039 3.60002C2.40039 2.93728 2.93765 2.40002 3.60039 2.40002H6.18384C6.77045 2.40002 7.27107 2.82412 7.36751 3.40275L8.25469 8.72579C8.34129 9.24543 8.07886 9.76079 7.60767 9.99639L5.7499 10.9253C7.08946 14.254 9.74641 16.911 13.0751 18.2505L14.004 16.3927C14.2396 15.9216 14.755 15.6591 15.2746 15.7457L20.5977 16.6329C21.1763 16.7293 21.6004 17.23 21.6004 17.8166V20.4C21.6004 21.0628 21.0631 21.6 20.4004 21.6H18.0004C9.38475 21.6 2.40039 14.6157 2.40039 6.00002V3.60002Z" fill="#00142E"/>
<path d="M2.40039 3.60002C2.40039 2.93728 2.93765 2.40002 3.60039 2.40002H6.18384C6.77045 2.40002 7.27107 2.82412 7.36751 3.40275L8.25469 8.72579C8.34129 9.24543 8.07886 9.76079 7.60767 9.99639L5.7499 10.9253C7.08946 14.254 9.74641 16.911 13.0751 18.2505L14.004 16.3927C14.2396 15.9216 14.755 15.6591 15.2746 15.7457L20.5977 16.6329C21.1763 16.7293 21.6004 17.23 21.6004 17.8166V20.4C21.6004 21.0628 21.0631 21.6 20.4004 21.6H18.0004C9.38475 21.6 2.40039 14.6157 2.40039 6.00002V3.60002Z" fill="black" fill-opacity="0.2"/>
</svg>
