<svg width="24" height="24" viewBox="0 0 24 24" fill="none" xmlns="http://www.w3.org/2000/svg">
<path d="M2.40039 3.60002C2.40039 2.93728 2.93765 2.40002 3.60039 2.40002H6.18384C6.77045 2.40002 7.27107 2.82412 7.36751 3.40275L8.25469 8.72579C8.34129 9.24543 8.07886 9.76079 7.60767 9.99639L5.7499 10.9253C7.08946 14.254 9.74641 16.911 13.0751 18.2505L14.004 16.3927C14.2396 15.9216 14.755 15.6591 15.2746 15.7457L20.5977 16.6329C21.1763 16.7293 21.6004 17.23 21.6004 17.8166V20.4C21.6004 21.0628 21.0631 21.6 20.4004 21.6H18.0004C9.38475 21.6 2.40039 14.6157 2.40039 6.00002V3.60002Z" fill="#00142E"/>
<path d="M2.40039 3.60002C2.40039 2.93728 2.93765 2.40002 3.60039 2.40002H6.18384C6.77045 2.40002 7.27107 2.82412 7.36751 3.40275L8.25469 8.72579C8.34129 9.24543 8.07886 9.76079 7.60767 9.99639L5.7499 10.9253C7.08946 14.254 9.74641 16.911 13.0751 18.2505L14.004 16.3927C14.2396 15.9216 14.755 15.6591 15.2746 15.7457L20.5977 16.6329C21.1763 16.7293 21.6004 17.23 21.6004 17.8166V20.4C21.6004 21.0628 21.0631 21.6 20.4004 21.6H18.0004C9.38475 21.6 2.40039 14.6157 2.40039 6.00002V3.60002Z" fill="black" fill-opacity="0.2"/>
<path d="M20.0489 3.9515C20.5175 4.42013 20.5175 5.17992 20.0489 5.64855L18.4974 7.20002L20.0489 8.7515C20.5175 9.22013 20.5175 9.97992 20.0489 10.4486C19.5803 10.9172 18.8205 10.9172 18.3519 10.4486L16.8004 8.89708L15.2489 10.4486C14.7803 10.9172 14.0205 10.9172 13.5519 10.4486C13.0832 9.97992 13.0832 9.22013 13.5519 8.7515L15.1033 7.20002L13.5519 5.64855C13.0832 5.17992 13.0832 4.42013 13.5519 3.9515C14.0205 3.48287 14.7803 3.48287 15.2489 3.9515L16.8004 5.50297L18.3519 3.9515C18.8205 3.48287 19.5803 3.48287 20.0489 3.9515Z" fill="#00142E"/>
<path d="M20.0489 3.9515C20.5175 4.42013 20.5175 5.17992 20.0489 5.64855L18.4974 7.20002L20.0489 8.7515C20.5175 9.22013 20.5175 9.97992 20.0489 10.4486C19.5803 10.9172 18.8205 10.9172 18.3519 10.4486L16.8004 8.89708L15.2489 10.4486C14.7803 10.9172 14.0205 10.9172 13.5519 10.4486C13.0832 9.97992 13.0832 9.22013 13.5519 8.7515L15.1033 7.20002L13.5519 5.64855C13.0832 5.17992 13.0832 4.42013 13.5519 3.9515C14.0205 3.48287 14.7803 3.48287 15.2489 3.9515L16.8004 5.50297L18.3519 3.9515C18.8205 3.48287 19.5803 3.48287 20.0489 3.9515Z" fill="black" fill-opacity="0.2"/>
</svg>
