<svg width="24" height="24" viewBox="0 0 24 24" fill="none" xmlns="http://www.w3.org/2000/svg">
<path d="M17.2974 8.40002L21.2489 4.44855C21.7175 3.97992 21.7175 3.22013 21.2489 2.7515C20.7803 2.28287 20.0205 2.28287 19.5519 2.7515L15.6004 6.70297V4.80002C15.6004 4.13728 15.0631 3.60002 14.4004 3.60002C13.7376 3.60002 13.2004 4.13728 13.2004 4.80002V9.59919C13.2004 9.60039 13.2004 9.60242 13.2004 9.60362C13.2009 9.76502 13.2332 9.91892 13.2914 10.0594C13.3487 10.1977 13.4329 10.3275 13.5441 10.4407C13.5492 10.446 13.5545 10.4512 13.5597 10.4564C13.6729 10.5675 13.8027 10.6517 13.9411 10.709C14.0825 10.7676 14.2377 10.8 14.4004 10.8H19.2004C19.8631 10.8 20.4004 10.2628 20.4004 9.60002C20.4004 8.93728 19.8631 8.40002 19.2004 8.40002H17.2974Z" fill="#00142E"/>
<path d="M17.2974 8.40002L21.2489 4.44855C21.7175 3.97992 21.7175 3.22013 21.2489 2.7515C20.7803 2.28287 20.0205 2.28287 19.5519 2.7515L15.6004 6.70297V4.80002C15.6004 4.13728 15.0631 3.60002 14.4004 3.60002C13.7376 3.60002 13.2004 4.13728 13.2004 4.80002V9.59919C13.2004 9.60039 13.2004 9.60242 13.2004 9.60362C13.2009 9.76502 13.2332 9.91892 13.2914 10.0594C13.3487 10.1977 13.4329 10.3275 13.5441 10.4407C13.5492 10.446 13.5545 10.4512 13.5597 10.4564C13.6729 10.5675 13.8027 10.6517 13.9411 10.709C14.0825 10.7676 14.2377 10.8 14.4004 10.8H19.2004C19.8631 10.8 20.4004 10.2628 20.4004 9.60002C20.4004 8.93728 19.8631 8.40002 19.2004 8.40002H17.2974Z" fill="black" fill-opacity="0.2"/>
<path d="M2.40039 3.60002C2.40039 2.93728 2.93765 2.40002 3.60039 2.40002H6.18384C6.77045 2.40002 7.27107 2.82412 7.36751 3.40275L8.25469 8.72579C8.34129 9.24543 8.07886 9.76079 7.60767 9.99639L5.7499 10.9253C7.08946 14.254 9.74641 16.911 13.0751 18.2505L14.004 16.3927C14.2396 15.9216 14.755 15.6591 15.2746 15.7457L20.5977 16.6329C21.1763 16.7293 21.6004 17.23 21.6004 17.8166V20.4C21.6004 21.0628 21.0631 21.6 20.4004 21.6H18.0004C9.38475 21.6 2.40039 14.6157 2.40039 6.00002V3.60002Z" fill="#00142E"/>
<path d="M2.40039 3.60002C2.40039 2.93728 2.93765 2.40002 3.60039 2.40002H6.18384C6.77045 2.40002 7.27107 2.82412 7.36751 3.40275L8.25469 8.72579C8.34129 9.24543 8.07886 9.76079 7.60767 9.99639L5.7499 10.9253C7.08946 14.254 9.74641 16.911 13.0751 18.2505L14.004 16.3927C14.2396 15.9216 14.755 15.6591 15.2746 15.7457L20.5977 16.6329C21.1763 16.7293 21.6004 17.23 21.6004 17.8166V20.4C21.6004 21.0628 21.0631 21.6 20.4004 21.6H18.0004C9.38475 21.6 2.40039 14.6157 2.40039 6.00002V3.60002Z" fill="black" fill-opacity="0.2"/>
</svg>
