<svg width="24" height="24" viewBox="0 0 24 24" fill="none" xmlns="http://www.w3.org/2000/svg">
<path fill-rule="evenodd" clip-rule="evenodd" d="M4.80039 3.59998C3.47491 3.59998 2.40039 4.67449 2.40039 5.99998V18C2.40039 19.3255 3.47491 20.4 4.80039 20.4H19.2004C20.5259 20.4 21.6004 19.3255 21.6004 18V5.99998C21.6004 4.67449 20.5259 3.59998 19.2004 3.59998H4.80039ZM19.2004 18H4.80039L9.60039 8.39998L13.2004 15.6L15.6004 10.8L19.2004 18Z" fill="#00142E"/>
<path fill-rule="evenodd" clip-rule="evenodd" d="M4.80039 3.59998C3.47491 3.59998 2.40039 4.67449 2.40039 5.99998V18C2.40039 19.3255 3.47491 20.4 4.80039 20.4H19.2004C20.5259 20.4 21.6004 19.3255 21.6004 18V5.99998C21.6004 4.67449 20.5259 3.59998 19.2004 3.59998H4.80039ZM19.2004 18H4.80039L9.60039 8.39998L13.2004 15.6L15.6004 10.8L19.2004 18Z" fill="black" fill-opacity="0.2"/>
</svg>
