<svg width="24" height="24" viewBox="0 0 24 24" fill="none" xmlns="http://www.w3.org/2000/svg">
<path fill-rule="evenodd" clip-rule="evenodd" d="M12.0004 21.6C17.3023 21.6 21.6004 17.302 21.6004 12C21.6004 6.69809 17.3023 2.40002 12.0004 2.40002C6.69846 2.40002 2.40039 6.69809 2.40039 12C2.40039 17.302 6.69846 21.6 12.0004 21.6ZM11.466 8.60157C11.0978 8.35608 10.6244 8.33319 10.2342 8.54202C9.84397 8.75084 9.60039 9.15747 9.60039 9.60003V14.4C9.60039 14.8426 9.84397 15.2492 10.2342 15.458C10.6244 15.6669 11.0978 15.644 11.466 15.3985L15.066 12.9985C15.3999 12.7759 15.6004 12.4013 15.6004 12C15.6004 11.5988 15.3999 11.2241 15.066 11.0016L11.466 8.60157Z" fill="#00142E"/>
<path fill-rule="evenodd" clip-rule="evenodd" d="M12.0004 21.6C17.3023 21.6 21.6004 17.302 21.6004 12C21.6004 6.69809 17.3023 2.40002 12.0004 2.40002C6.69846 2.40002 2.40039 6.69809 2.40039 12C2.40039 17.302 6.69846 21.6 12.0004 21.6ZM11.466 8.60157C11.0978 8.35608 10.6244 8.33319 10.2342 8.54202C9.84397 8.75084 9.60039 9.15747 9.60039 9.60003V14.4C9.60039 14.8426 9.84397 15.2492 10.2342 15.458C10.6244 15.6669 11.0978 15.644 11.466 15.3985L15.066 12.9985C15.3999 12.7759 15.6004 12.4013 15.6004 12C15.6004 11.5988 15.3999 11.2241 15.066 11.0016L11.466 8.60157Z" fill="black" fill-opacity="0.2"/>
</svg>
