<svg width="24" height="24" viewBox="0 0 24 24" fill="none" xmlns="http://www.w3.org/2000/svg">
<path fill-rule="evenodd" clip-rule="evenodd" d="M3.60039 3.59998C2.93765 3.59998 2.40039 4.13723 2.40039 4.79998C2.40039 5.46272 2.93765 5.99998 3.60039 5.99998V15.6C3.60039 16.9255 4.67491 18 6.00039 18H9.10333L7.55186 19.5514C7.08323 20.0201 7.08323 20.7799 7.55186 21.2485C8.02049 21.7171 8.78029 21.7171 9.24892 21.2485L12.0004 18.497L14.7519 21.2485C15.2205 21.7171 15.9803 21.7171 16.4489 21.2485C16.9175 20.7799 16.9175 20.0201 16.4489 19.5514L14.8974 18H18.0004C19.3259 18 20.4004 16.9255 20.4004 15.6V5.99998C21.0631 5.99998 21.6004 5.46272 21.6004 4.79998C21.6004 4.13723 21.0631 3.59998 20.4004 3.59998H3.60039ZM16.8004 8.39998C16.8004 7.73723 16.2631 7.19998 15.6004 7.19998C14.9376 7.19998 14.4004 7.73723 14.4004 8.39998V13.2C14.4004 13.8627 14.9376 14.4 15.6004 14.4C16.2631 14.4 16.8004 13.8627 16.8004 13.2V8.39998ZM13.2004 9.59998C13.2004 8.93723 12.6631 8.39998 12.0004 8.39998C11.3376 8.39998 10.8004 8.93723 10.8004 9.59998V13.2C10.8004 13.8627 11.3376 14.4 12.0004 14.4C12.6631 14.4 13.2004 13.8627 13.2004 13.2V9.59998ZM9.60039 10.8C9.60039 10.1372 9.06313 9.59998 8.40039 9.59998C7.73765 9.59998 7.20039 10.1372 7.20039 10.8V13.2C7.20039 13.8627 7.73765 14.4 8.40039 14.4C9.06313 14.4 9.60039 13.8627 9.60039 13.2V10.8Z" fill="#00142E"/>
<path fill-rule="evenodd" clip-rule="evenodd" d="M3.60039 3.59998C2.93765 3.59998 2.40039 4.13723 2.40039 4.79998C2.40039 5.46272 2.93765 5.99998 3.60039 5.99998V15.6C3.60039 16.9255 4.67491 18 6.00039 18H9.10333L7.55186 19.5514C7.08323 20.0201 7.08323 20.7799 7.55186 21.2485C8.02049 21.7171 8.78029 21.7171 9.24892 21.2485L12.0004 18.497L14.7519 21.2485C15.2205 21.7171 15.9803 21.7171 16.4489 21.2485C16.9175 20.7799 16.9175 20.0201 16.4489 19.5514L14.8974 18H18.0004C19.3259 18 20.4004 16.9255 20.4004 15.6V5.99998C21.0631 5.99998 21.6004 5.46272 21.6004 4.79998C21.6004 4.13723 21.0631 3.59998 20.4004 3.59998H3.60039ZM16.8004 8.39998C16.8004 7.73723 16.2631 7.19998 15.6004 7.19998C14.9376 7.19998 14.4004 7.73723 14.4004 8.39998V13.2C14.4004 13.8627 14.9376 14.4 15.6004 14.4C16.2631 14.4 16.8004 13.8627 16.8004 13.2V8.39998ZM13.2004 9.59998C13.2004 8.93723 12.6631 8.39998 12.0004 8.39998C11.3376 8.39998 10.8004 8.93723 10.8004 9.59998V13.2C10.8004 13.8627 11.3376 14.4 12.0004 14.4C12.6631 14.4 13.2004 13.8627 13.2004 13.2V9.59998ZM9.60039 10.8C9.60039 10.1372 9.06313 9.59998 8.40039 9.59998C7.73765 9.59998 7.20039 10.1372 7.20039 10.8V13.2C7.20039 13.8627 7.73765 14.4 8.40039 14.4C9.06313 14.4 9.60039 13.8627 9.60039 13.2V10.8Z" fill="black" fill-opacity="0.2"/>
</svg>
