<svg width="24" height="24" viewBox="0 0 24 24" fill="none" xmlns="http://www.w3.org/2000/svg">
<path fill-rule="evenodd" clip-rule="evenodd" d="M3.60039 3.59998C2.93765 3.59998 2.40039 4.13723 2.40039 4.79998C2.40039 5.46272 2.93765 5.99998 3.60039 5.99998V15.6C3.60039 16.9255 4.67491 18 6.00039 18H9.10333L7.55186 19.5514C7.08323 20.0201 7.08323 20.7799 7.55186 21.2485C8.02049 21.7171 8.78029 21.7171 9.24892 21.2485L12.0004 18.497L14.7519 21.2485C15.2205 21.7171 15.9803 21.7171 16.4489 21.2485C16.9175 20.7799 16.9175 20.0201 16.4489 19.5514L14.8974 18H18.0004C19.3259 18 20.4004 16.9255 20.4004 15.6V5.99998C21.0631 5.99998 21.6004 5.46272 21.6004 4.79998C21.6004 4.13723 21.0631 3.59998 20.4004 3.59998H3.60039ZM17.6489 9.2485C18.1175 8.77988 18.1175 8.02008 17.6489 7.55145C17.1803 7.08282 16.4205 7.08282 15.9519 7.55145L12.0004 11.5029L10.4489 9.95145C9.98029 9.48282 9.22049 9.48282 8.75186 9.95145L6.35186 12.3514C5.88323 12.8201 5.88323 13.5799 6.35186 14.0485C6.82049 14.5171 7.58029 14.5171 8.04892 14.0485L9.60039 12.497L11.1519 14.0485C11.6205 14.5171 12.3803 14.5171 12.8489 14.0485L17.6489 9.2485Z" fill="#00142E"/>
<path fill-rule="evenodd" clip-rule="evenodd" d="M3.60039 3.59998C2.93765 3.59998 2.40039 4.13723 2.40039 4.79998C2.40039 5.46272 2.93765 5.99998 3.60039 5.99998V15.6C3.60039 16.9255 4.67491 18 6.00039 18H9.10333L7.55186 19.5514C7.08323 20.0201 7.08323 20.7799 7.55186 21.2485C8.02049 21.7171 8.78029 21.7171 9.24892 21.2485L12.0004 18.497L14.7519 21.2485C15.2205 21.7171 15.9803 21.7171 16.4489 21.2485C16.9175 20.7799 16.9175 20.0201 16.4489 19.5514L14.8974 18H18.0004C19.3259 18 20.4004 16.9255 20.4004 15.6V5.99998C21.0631 5.99998 21.6004 5.46272 21.6004 4.79998C21.6004 4.13723 21.0631 3.59998 20.4004 3.59998H3.60039ZM17.6489 9.2485C18.1175 8.77988 18.1175 8.02008 17.6489 7.55145C17.1803 7.08282 16.4205 7.08282 15.9519 7.55145L12.0004 11.5029L10.4489 9.95145C9.98029 9.48282 9.22049 9.48282 8.75186 9.95145L6.35186 12.3514C5.88323 12.8201 5.88323 13.5799 6.35186 14.0485C6.82049 14.5171 7.58029 14.5171 8.04892 14.0485L9.60039 12.497L11.1519 14.0485C11.6205 14.5171 12.3803 14.5171 12.8489 14.0485L17.6489 9.2485Z" fill="black" fill-opacity="0.2"/>
</svg>
