<svg width="24" height="24" viewBox="0 0 24 24" fill="none" xmlns="http://www.w3.org/2000/svg">
<path fill-rule="evenodd" clip-rule="evenodd" d="M6.00039 4.80002V8.40002H4.80039C3.47491 8.40002 2.40039 9.47454 2.40039 10.8V14.4C2.40039 15.7255 3.47491 16.8 4.80039 16.8H6.00039V19.2C6.00039 20.5255 7.07491 21.6 8.40039 21.6H15.6004C16.9259 21.6 18.0004 20.5255 18.0004 19.2V16.8H19.2004C20.5259 16.8 21.6004 15.7255 21.6004 14.4V10.8C21.6004 9.47454 20.5259 8.40002 19.2004 8.40002H18.0004V4.80002C18.0004 3.47454 16.9259 2.40002 15.6004 2.40002H8.40039C7.07491 2.40002 6.00039 3.47454 6.00039 4.80002ZM15.6004 4.80002H8.40039V8.40002H15.6004V4.80002ZM15.6004 14.4H8.40039V19.2H15.6004V14.4Z" fill="#00142E"/>
<path fill-rule="evenodd" clip-rule="evenodd" d="M6.00039 4.80002V8.40002H4.80039C3.47491 8.40002 2.40039 9.47454 2.40039 10.8V14.4C2.40039 15.7255 3.47491 16.8 4.80039 16.8H6.00039V19.2C6.00039 20.5255 7.07491 21.6 8.40039 21.6H15.6004C16.9259 21.6 18.0004 20.5255 18.0004 19.2V16.8H19.2004C20.5259 16.8 21.6004 15.7255 21.6004 14.4V10.8C21.6004 9.47454 20.5259 8.40002 19.2004 8.40002H18.0004V4.80002C18.0004 3.47454 16.9259 2.40002 15.6004 2.40002H8.40039C7.07491 2.40002 6.00039 3.47454 6.00039 4.80002ZM15.6004 4.80002H8.40039V8.40002H15.6004V4.80002ZM15.6004 14.4H8.40039V19.2H15.6004V14.4Z" fill="black" fill-opacity="0.2"/>
</svg>
