<svg width="24" height="24" viewBox="0 0 24 24" fill="none" xmlns="http://www.w3.org/2000/svg">
<path d="M12.0004 4.20002C12.0004 3.20591 12.8063 2.40002 13.8004 2.40002C14.7945 2.40002 15.6004 3.20591 15.6004 4.20002V4.80002C15.6004 5.46277 16.1376 6.00002 16.8004 6.00002H20.4004C21.0631 6.00002 21.6004 6.53728 21.6004 7.20002V10.8C21.6004 11.4628 21.0631 12 20.4004 12H19.8004C18.8063 12 18.0004 12.8059 18.0004 13.8C18.0004 14.7941 18.8063 15.6 19.8004 15.6H20.4004C21.0631 15.6 21.6004 16.1373 21.6004 16.8V20.4C21.6004 21.0628 21.0631 21.6 20.4004 21.6H16.8004C16.1376 21.6 15.6004 21.0628 15.6004 20.4V19.8C15.6004 18.8059 14.7945 18 13.8004 18C12.8063 18 12.0004 18.8059 12.0004 19.8V20.4C12.0004 21.0628 11.4631 21.6 10.8004 21.6H7.20039C6.53765 21.6 6.00039 21.0628 6.00039 20.4V16.8C6.00039 16.1373 5.46313 15.6 4.80039 15.6H4.20039C3.20628 15.6 2.40039 14.7941 2.40039 13.8C2.40039 12.8059 3.20628 12 4.20039 12H4.80039C5.46313 12 6.00039 11.4628 6.00039 10.8V7.20002C6.00039 6.53728 6.53765 6.00002 7.20039 6.00002H10.8004C11.4631 6.00002 12.0004 5.46277 12.0004 4.80002V4.20002Z" fill="#00142E"/>
<path d="M12.0004 4.20002C12.0004 3.20591 12.8063 2.40002 13.8004 2.40002C14.7945 2.40002 15.6004 3.20591 15.6004 4.20002V4.80002C15.6004 5.46277 16.1376 6.00002 16.8004 6.00002H20.4004C21.0631 6.00002 21.6004 6.53728 21.6004 7.20002V10.8C21.6004 11.4628 21.0631 12 20.4004 12H19.8004C18.8063 12 18.0004 12.8059 18.0004 13.8C18.0004 14.7941 18.8063 15.6 19.8004 15.6H20.4004C21.0631 15.6 21.6004 16.1373 21.6004 16.8V20.4C21.6004 21.0628 21.0631 21.6 20.4004 21.6H16.8004C16.1376 21.6 15.6004 21.0628 15.6004 20.4V19.8C15.6004 18.8059 14.7945 18 13.8004 18C12.8063 18 12.0004 18.8059 12.0004 19.8V20.4C12.0004 21.0628 11.4631 21.6 10.8004 21.6H7.20039C6.53765 21.6 6.00039 21.0628 6.00039 20.4V16.8C6.00039 16.1373 5.46313 15.6 4.80039 15.6H4.20039C3.20628 15.6 2.40039 14.7941 2.40039 13.8C2.40039 12.8059 3.20628 12 4.20039 12H4.80039C5.46313 12 6.00039 11.4628 6.00039 10.8V7.20002C6.00039 6.53728 6.53765 6.00002 7.20039 6.00002H10.8004C11.4631 6.00002 12.0004 5.46277 12.0004 4.80002V4.20002Z" fill="black" fill-opacity="0.2"/>
</svg>
