<svg width="24" height="24" viewBox="0 0 24 24" fill="none" xmlns="http://www.w3.org/2000/svg">
<path fill-rule="evenodd" clip-rule="evenodd" d="M3.59961 4.79998C3.59961 4.13723 4.13687 3.59998 4.79961 3.59998H8.39961C9.06235 3.59998 9.59961 4.13723 9.59961 4.79998V8.39998C9.59961 9.06272 9.06235 9.59998 8.39961 9.59998H4.79961C4.13687 9.59998 3.59961 9.06272 3.59961 8.39998V4.79998ZM5.99961 7.19998V5.99998H7.19961V7.19998H5.99961Z" fill="#00142E"/>
<path fill-rule="evenodd" clip-rule="evenodd" d="M3.59961 4.79998C3.59961 4.13723 4.13687 3.59998 4.79961 3.59998H8.39961C9.06235 3.59998 9.59961 4.13723 9.59961 4.79998V8.39998C9.59961 9.06272 9.06235 9.59998 8.39961 9.59998H4.79961C4.13687 9.59998 3.59961 9.06272 3.59961 8.39998V4.79998ZM5.99961 7.19998V5.99998H7.19961V7.19998H5.99961Z" fill="black" fill-opacity="0.2"/>
<path fill-rule="evenodd" clip-rule="evenodd" d="M3.59961 15.6C3.59961 14.9372 4.13687 14.4 4.79961 14.4H8.39961C9.06235 14.4 9.59961 14.9372 9.59961 15.6V19.2C9.59961 19.8627 9.06235 20.4 8.39961 20.4H4.79961C4.13687 20.4 3.59961 19.8627 3.59961 19.2V15.6ZM5.99961 18V16.8H7.19961V18H5.99961Z" fill="#00142E"/>
<path fill-rule="evenodd" clip-rule="evenodd" d="M3.59961 15.6C3.59961 14.9372 4.13687 14.4 4.79961 14.4H8.39961C9.06235 14.4 9.59961 14.9372 9.59961 15.6V19.2C9.59961 19.8627 9.06235 20.4 8.39961 20.4H4.79961C4.13687 20.4 3.59961 19.8627 3.59961 19.2V15.6ZM5.99961 18V16.8H7.19961V18H5.99961Z" fill="black" fill-opacity="0.2"/>
<path fill-rule="evenodd" clip-rule="evenodd" d="M15.5996 3.59998C14.9369 3.59998 14.3996 4.13723 14.3996 4.79998V8.39998C14.3996 9.06272 14.9369 9.59998 15.5996 9.59998H19.1996C19.8623 9.59998 20.3996 9.06272 20.3996 8.39998V4.79998C20.3996 4.13723 19.8623 3.59998 19.1996 3.59998H15.5996ZM16.7996 5.99998V7.19998H17.9996V5.99998H16.7996Z" fill="#00142E"/>
<path fill-rule="evenodd" clip-rule="evenodd" d="M15.5996 3.59998C14.9369 3.59998 14.3996 4.13723 14.3996 4.79998V8.39998C14.3996 9.06272 14.9369 9.59998 15.5996 9.59998H19.1996C19.8623 9.59998 20.3996 9.06272 20.3996 8.39998V4.79998C20.3996 4.13723 19.8623 3.59998 19.1996 3.59998H15.5996ZM16.7996 5.99998V7.19998H17.9996V5.99998H16.7996Z" fill="black" fill-opacity="0.2"/>
<path d="M13.1996 4.79998C13.1996 4.13723 12.6624 3.59998 11.9996 3.59998C11.3369 3.59998 10.7996 4.13723 10.7996 4.79998V5.99998C10.7996 6.66272 11.3369 7.19998 11.9996 7.19998C12.6624 7.19998 13.1996 6.66272 13.1996 5.99998V4.79998Z" fill="#00142E"/>
<path d="M13.1996 4.79998C13.1996 4.13723 12.6624 3.59998 11.9996 3.59998C11.3369 3.59998 10.7996 4.13723 10.7996 4.79998V5.99998C10.7996 6.66272 11.3369 7.19998 11.9996 7.19998C12.6624 7.19998 13.1996 6.66272 13.1996 5.99998V4.79998Z" fill="black" fill-opacity="0.2"/>
<path d="M11.9996 8.39998C12.6624 8.39998 13.1996 8.93723 13.1996 9.59998V10.8H15.5996C16.2624 10.8 16.7996 11.3372 16.7996 12C16.7996 12.6627 16.2624 13.2 15.5996 13.2H11.9996C11.3369 13.2 10.7996 12.6627 10.7996 12V9.59998C10.7996 8.93723 11.3369 8.39998 11.9996 8.39998Z" fill="#00142E"/>
<path d="M11.9996 8.39998C12.6624 8.39998 13.1996 8.93723 13.1996 9.59998V10.8H15.5996C16.2624 10.8 16.7996 11.3372 16.7996 12C16.7996 12.6627 16.2624 13.2 15.5996 13.2H11.9996C11.3369 13.2 10.7996 12.6627 10.7996 12V9.59998C10.7996 8.93723 11.3369 8.39998 11.9996 8.39998Z" fill="black" fill-opacity="0.2"/>
<path d="M19.1996 10.8C18.5369 10.8 17.9996 11.3372 17.9996 12C17.9996 12.6627 18.5369 13.2 19.1996 13.2C19.8623 13.2 20.3996 12.6627 20.3996 12C20.3996 11.3372 19.8623 10.8 19.1996 10.8Z" fill="#00142E"/>
<path d="M19.1996 10.8C18.5369 10.8 17.9996 11.3372 17.9996 12C17.9996 12.6627 18.5369 13.2 19.1996 13.2C19.8623 13.2 20.3996 12.6627 20.3996 12C20.3996 11.3372 19.8623 10.8 19.1996 10.8Z" fill="black" fill-opacity="0.2"/>
<path d="M10.7996 15.6C10.7996 14.9372 11.3369 14.4 11.9996 14.4H13.1996C13.8623 14.4 14.3996 14.9372 14.3996 15.6C14.3996 16.2627 13.8623 16.8 13.1996 16.8V19.2C13.1996 19.8627 12.6624 20.4 11.9996 20.4C11.3369 20.4 10.7996 19.8627 10.7996 19.2V15.6Z" fill="#00142E"/>
<path d="M10.7996 15.6C10.7996 14.9372 11.3369 14.4 11.9996 14.4H13.1996C13.8623 14.4 14.3996 14.9372 14.3996 15.6C14.3996 16.2627 13.8623 16.8 13.1996 16.8V19.2C13.1996 19.8627 12.6624 20.4 11.9996 20.4C11.3369 20.4 10.7996 19.8627 10.7996 19.2V15.6Z" fill="black" fill-opacity="0.2"/>
<path d="M8.39961 13.2C9.06235 13.2 9.59961 12.6627 9.59961 12C9.59961 11.3372 9.06235 10.8 8.39961 10.8H4.79961C4.13687 10.8 3.59961 11.3372 3.59961 12C3.59961 12.6627 4.13687 13.2 4.79961 13.2H8.39961Z" fill="#00142E"/>
<path d="M8.39961 13.2C9.06235 13.2 9.59961 12.6627 9.59961 12C9.59961 11.3372 9.06235 10.8 8.39961 10.8H4.79961C4.13687 10.8 3.59961 11.3372 3.59961 12C3.59961 12.6627 4.13687 13.2 4.79961 13.2H8.39961Z" fill="black" fill-opacity="0.2"/>
<path d="M20.3996 15.6C20.3996 16.2627 19.8623 16.8 19.1996 16.8H16.7996C16.1369 16.8 15.5996 16.2627 15.5996 15.6C15.5996 14.9372 16.1369 14.4 16.7996 14.4H19.1996C19.8624 14.4 20.3996 14.9372 20.3996 15.6Z" fill="#00142E"/>
<path d="M20.3996 15.6C20.3996 16.2627 19.8623 16.8 19.1996 16.8H16.7996C16.1369 16.8 15.5996 16.2627 15.5996 15.6C15.5996 14.9372 16.1369 14.4 16.7996 14.4H19.1996C19.8624 14.4 20.3996 14.9372 20.3996 15.6Z" fill="black" fill-opacity="0.2"/>
<path d="M19.1996 20.4C19.8624 20.4 20.3996 19.8627 20.3996 19.2C20.3996 18.5372 19.8624 18 19.1996 18H15.5996C14.9369 18 14.3996 18.5372 14.3996 19.2C14.3996 19.8627 14.9369 20.4 15.5996 20.4H19.1996Z" fill="#00142E"/>
<path d="M19.1996 20.4C19.8624 20.4 20.3996 19.8627 20.3996 19.2C20.3996 18.5372 19.8624 18 19.1996 18H15.5996C14.9369 18 14.3996 18.5372 14.3996 19.2C14.3996 19.8627 14.9369 20.4 15.5996 20.4H19.1996Z" fill="black" fill-opacity="0.2"/>
</svg>
