<svg width="24" height="24" viewBox="0 0 24 24" fill="none" xmlns="http://www.w3.org/2000/svg">
<path fill-rule="evenodd" clip-rule="evenodd" d="M21.6004 12C21.6004 17.302 17.3023 21.6 12.0004 21.6C6.69846 21.6 2.40039 17.302 2.40039 12C2.40039 6.69809 6.69846 2.40002 12.0004 2.40002C17.3023 2.40002 21.6004 6.69809 21.6004 12ZM12.0004 8.40002C11.5577 8.40002 11.1695 8.63908 10.9602 9.0009C10.6284 9.57457 9.89429 9.7706 9.32061 9.43875C8.74694 9.1069 8.55091 8.37283 8.88276 7.79915C9.5034 6.72624 10.6664 6.00002 12.0004 6.00002C13.9886 6.00002 15.6004 7.6118 15.6004 9.60002C15.6004 11.1675 14.5986 12.501 13.2004 12.9952V13.2C13.2004 13.8628 12.6631 14.4 12.0004 14.4C11.3377 14.4 10.8004 13.8628 10.8004 13.2V12C10.8004 11.3373 11.3377 10.8 12.0004 10.8C12.6631 10.8 13.2004 10.2628 13.2004 9.60002C13.2004 8.93728 12.6631 8.40002 12.0004 8.40002ZM12.0004 18C12.6631 18 13.2004 17.4628 13.2004 16.8C13.2004 16.1373 12.6631 15.6 12.0004 15.6C11.3376 15.6 10.8004 16.1373 10.8004 16.8C10.8004 17.4628 11.3376 18 12.0004 18Z" fill="#00142E"/>
<path fill-rule="evenodd" clip-rule="evenodd" d="M21.6004 12C21.6004 17.302 17.3023 21.6 12.0004 21.6C6.69846 21.6 2.40039 17.302 2.40039 12C2.40039 6.69809 6.69846 2.40002 12.0004 2.40002C17.3023 2.40002 21.6004 6.69809 21.6004 12ZM12.0004 8.40002C11.5577 8.40002 11.1695 8.63908 10.9602 9.0009C10.6284 9.57457 9.89429 9.7706 9.32061 9.43875C8.74694 9.1069 8.55091 8.37283 8.88276 7.79915C9.5034 6.72624 10.6664 6.00002 12.0004 6.00002C13.9886 6.00002 15.6004 7.6118 15.6004 9.60002C15.6004 11.1675 14.5986 12.501 13.2004 12.9952V13.2C13.2004 13.8628 12.6631 14.4 12.0004 14.4C11.3377 14.4 10.8004 13.8628 10.8004 13.2V12C10.8004 11.3373 11.3377 10.8 12.0004 10.8C12.6631 10.8 13.2004 10.2628 13.2004 9.60002C13.2004 8.93728 12.6631 8.40002 12.0004 8.40002ZM12.0004 18C12.6631 18 13.2004 17.4628 13.2004 16.8C13.2004 16.1373 12.6631 15.6 12.0004 15.6C11.3376 15.6 10.8004 16.1373 10.8004 16.8C10.8004 17.4628 11.3376 18 12.0004 18Z" fill="black" fill-opacity="0.2"/>
</svg>
