<svg width="24" height="24" viewBox="0 0 24 24" fill="none" xmlns="http://www.w3.org/2000/svg">
<path fill-rule="evenodd" clip-rule="evenodd" d="M5.99961 2.40002C4.67413 2.40002 3.59961 3.47454 3.59961 4.80002V21.6L7.79961 19.2L11.9996 21.6L16.1996 19.2L20.3996 21.6V4.80002C20.3996 3.47454 19.3251 2.40002 17.9996 2.40002H5.99961ZM11.6481 6.84855C12.1168 6.37992 12.1168 5.62013 11.6481 5.1515C11.1795 4.68287 10.4197 4.68287 9.95108 5.1515L6.35108 8.7515C5.88245 9.22013 5.88245 9.97992 6.35108 10.4486L9.95108 14.0486C10.4197 14.5172 11.1795 14.5172 11.6481 14.0486C12.1168 13.5799 12.1168 12.8201 11.6481 12.3515L10.0967 10.8H11.9996C13.9878 10.8 15.5996 12.4118 15.5996 14.4V15.6C15.5996 16.2628 16.1369 16.8 16.7996 16.8C17.4624 16.8 17.9996 16.2628 17.9996 15.6V14.4C17.9996 11.0863 15.3133 8.40002 11.9996 8.40002H10.0967L11.6481 6.84855Z" fill="#00142E"/>
<path fill-rule="evenodd" clip-rule="evenodd" d="M5.99961 2.40002C4.67413 2.40002 3.59961 3.47454 3.59961 4.80002V21.6L7.79961 19.2L11.9996 21.6L16.1996 19.2L20.3996 21.6V4.80002C20.3996 3.47454 19.3251 2.40002 17.9996 2.40002H5.99961ZM11.6481 6.84855C12.1168 6.37992 12.1168 5.62013 11.6481 5.1515C11.1795 4.68287 10.4197 4.68287 9.95108 5.1515L6.35108 8.7515C5.88245 9.22013 5.88245 9.97992 6.35108 10.4486L9.95108 14.0486C10.4197 14.5172 11.1795 14.5172 11.6481 14.0486C12.1168 13.5799 12.1168 12.8201 11.6481 12.3515L10.0967 10.8H11.9996C13.9878 10.8 15.5996 12.4118 15.5996 14.4V15.6C15.5996 16.2628 16.1369 16.8 16.7996 16.8C17.4624 16.8 17.9996 16.2628 17.9996 15.6V14.4C17.9996 11.0863 15.3133 8.40002 11.9996 8.40002H10.0967L11.6481 6.84855Z" fill="black" fill-opacity="0.2"/>
</svg>
