<svg width="24" height="24" viewBox="0 0 24 24" fill="none" xmlns="http://www.w3.org/2000/svg">
<path fill-rule="evenodd" clip-rule="evenodd" d="M5.99961 2.40002C4.67413 2.40002 3.59961 3.47454 3.59961 4.80002V21.6L7.79961 19.2L11.9996 21.6L16.1996 19.2L20.3996 21.6V4.80002C20.3996 3.47454 19.3251 2.40002 17.9996 2.40002H5.99961ZM8.99961 6.00002C8.0055 6.00002 7.19961 6.80591 7.19961 7.80002C7.19961 8.79414 8.0055 9.60002 8.99961 9.60002C9.99372 9.60002 10.7996 8.79414 10.7996 7.80002C10.7996 6.80591 9.99372 6.00002 8.99961 6.00002ZM16.4481 6.3515C15.9795 5.88287 15.2197 5.88287 14.7511 6.3515L7.55108 13.5515C7.08245 14.0201 7.08245 14.7799 7.55108 15.2486C8.01971 15.7172 8.77951 15.7172 9.24814 15.2486L16.4481 8.04855C16.9168 7.57992 16.9168 6.82013 16.4481 6.3515ZM14.9996 12C14.0055 12 13.1996 12.8059 13.1996 13.8C13.1996 14.7941 14.0055 15.6 14.9996 15.6C15.9937 15.6 16.7996 14.7941 16.7996 13.8C16.7996 12.8059 15.9937 12 14.9996 12Z" fill="#00142E"/>
<path fill-rule="evenodd" clip-rule="evenodd" d="M5.99961 2.40002C4.67413 2.40002 3.59961 3.47454 3.59961 4.80002V21.6L7.79961 19.2L11.9996 21.6L16.1996 19.2L20.3996 21.6V4.80002C20.3996 3.47454 19.3251 2.40002 17.9996 2.40002H5.99961ZM8.99961 6.00002C8.0055 6.00002 7.19961 6.80591 7.19961 7.80002C7.19961 8.79414 8.0055 9.60002 8.99961 9.60002C9.99372 9.60002 10.7996 8.79414 10.7996 7.80002C10.7996 6.80591 9.99372 6.00002 8.99961 6.00002ZM16.4481 6.3515C15.9795 5.88287 15.2197 5.88287 14.7511 6.3515L7.55108 13.5515C7.08245 14.0201 7.08245 14.7799 7.55108 15.2486C8.01971 15.7172 8.77951 15.7172 9.24814 15.2486L16.4481 8.04855C16.9168 7.57992 16.9168 6.82013 16.4481 6.3515ZM14.9996 12C14.0055 12 13.1996 12.8059 13.1996 13.8C13.1996 14.7941 14.0055 15.6 14.9996 15.6C15.9937 15.6 16.7996 14.7941 16.7996 13.8C16.7996 12.8059 15.9937 12 14.9996 12Z" fill="black" fill-opacity="0.2"/>
</svg>
