<svg width="24" height="24" viewBox="0 0 24 24" fill="none" xmlns="http://www.w3.org/2000/svg">
<path fill-rule="evenodd" clip-rule="evenodd" d="M4.79961 2.40002C5.46235 2.40002 5.99961 2.93728 5.99961 3.60002V6.12153C7.52372 4.56589 9.64823 3.60002 11.9996 3.60002C15.6589 3.60002 18.7688 5.93921 19.9213 9.20013C20.1422 9.82499 19.8147 10.5106 19.1898 10.7314C18.565 10.9523 17.8794 10.6248 17.6585 9.99992C16.8343 7.66792 14.6102 6.00002 11.9996 6.00002C10.0377 6.00002 8.29405 6.94205 7.19883 8.40002H10.7996C11.4624 8.40002 11.9996 8.93728 11.9996 9.60002C11.9996 10.2628 11.4624 10.8 10.7996 10.8H4.79961C4.13687 10.8 3.59961 10.2628 3.59961 9.60002V3.60002C3.59961 2.93728 4.13687 2.40002 4.79961 2.40002ZM4.80941 13.2686C5.43427 13.0478 6.11985 13.3753 6.34071 14.0001C7.16496 16.3321 9.38905 18 11.9996 18C13.9615 18 15.7052 17.058 16.8004 15.6L13.1996 15.6C12.5369 15.6 11.9996 15.0628 11.9996 14.4C11.9996 13.7373 12.5369 13.2 13.1996 13.2H19.1996C19.5179 13.2 19.8231 13.3265 20.0481 13.5515C20.2732 13.7765 20.3996 14.0818 20.3996 14.4V20.4C20.3996 21.0628 19.8624 21.6 19.1996 21.6C18.5369 21.6 17.9996 21.0628 17.9996 20.4V17.8785C16.4755 19.4342 14.351 20.4 11.9996 20.4C8.34032 20.4 5.23047 18.0608 4.0779 14.7999C3.85704 14.1751 4.18455 13.4895 4.80941 13.2686Z" fill="#00142E"/>
<path fill-rule="evenodd" clip-rule="evenodd" d="M4.79961 2.40002C5.46235 2.40002 5.99961 2.93728 5.99961 3.60002V6.12153C7.52372 4.56589 9.64823 3.60002 11.9996 3.60002C15.6589 3.60002 18.7688 5.93921 19.9213 9.20013C20.1422 9.82499 19.8147 10.5106 19.1898 10.7314C18.565 10.9523 17.8794 10.6248 17.6585 9.99992C16.8343 7.66792 14.6102 6.00002 11.9996 6.00002C10.0377 6.00002 8.29405 6.94205 7.19883 8.40002H10.7996C11.4624 8.40002 11.9996 8.93728 11.9996 9.60002C11.9996 10.2628 11.4624 10.8 10.7996 10.8H4.79961C4.13687 10.8 3.59961 10.2628 3.59961 9.60002V3.60002C3.59961 2.93728 4.13687 2.40002 4.79961 2.40002ZM4.80941 13.2686C5.43427 13.0478 6.11985 13.3753 6.34071 14.0001C7.16496 16.3321 9.38905 18 11.9996 18C13.9615 18 15.7052 17.058 16.8004 15.6L13.1996 15.6C12.5369 15.6 11.9996 15.0628 11.9996 14.4C11.9996 13.7373 12.5369 13.2 13.1996 13.2H19.1996C19.5179 13.2 19.8231 13.3265 20.0481 13.5515C20.2732 13.7765 20.3996 14.0818 20.3996 14.4V20.4C20.3996 21.0628 19.8624 21.6 19.1996 21.6C18.5369 21.6 17.9996 21.0628 17.9996 20.4V17.8785C16.4755 19.4342 14.351 20.4 11.9996 20.4C8.34032 20.4 5.23047 18.0608 4.0779 14.7999C3.85704 14.1751 4.18455 13.4895 4.80941 13.2686Z" fill="black" fill-opacity="0.2"/>
</svg>
