<svg width="24" height="24" viewBox="0 0 24 24" fill="none" xmlns="http://www.w3.org/2000/svg">
<path fill-rule="evenodd" clip-rule="evenodd" d="M9.24892 3.95145C9.71755 4.42008 9.71755 5.17987 9.24892 5.6485L6.49745 8.39998H13.2004C17.8396 8.39998 21.6004 12.1608 21.6004 16.8V19.2C21.6004 19.8627 21.0631 20.4 20.4004 20.4C19.7376 20.4 19.2004 19.8627 19.2004 19.2V16.8C19.2004 13.4863 16.5141 10.8 13.2004 10.8H6.49745L9.24892 13.5514C9.71755 14.0201 9.71755 14.7799 9.24892 15.2485C8.78029 15.7171 8.02049 15.7171 7.55186 15.2485L2.75186 10.4485C2.28323 9.97987 2.28323 9.22008 2.75186 8.75145L7.55186 3.95145C8.02049 3.48282 8.78029 3.48282 9.24892 3.95145Z" fill="#00142E"/>
<path fill-rule="evenodd" clip-rule="evenodd" d="M9.24892 3.95145C9.71755 4.42008 9.71755 5.17987 9.24892 5.6485L6.49745 8.39998H13.2004C17.8396 8.39998 21.6004 12.1608 21.6004 16.8V19.2C21.6004 19.8627 21.0631 20.4 20.4004 20.4C19.7376 20.4 19.2004 19.8627 19.2004 19.2V16.8C19.2004 13.4863 16.5141 10.8 13.2004 10.8H6.49745L9.24892 13.5514C9.71755 14.0201 9.71755 14.7799 9.24892 15.2485C8.78029 15.7171 8.02049 15.7171 7.55186 15.2485L2.75186 10.4485C2.28323 9.97987 2.28323 9.22008 2.75186 8.75145L7.55186 3.95145C8.02049 3.48282 8.78029 3.48282 9.24892 3.95145Z" fill="black" fill-opacity="0.2"/>
</svg>
