<svg width="24" height="24" viewBox="0 0 24 24" fill="none" xmlns="http://www.w3.org/2000/svg">
<path d="M10.1348 17.7985C10.503 18.044 10.9764 18.0669 11.3666 17.8581C11.7568 17.6493 12.0004 17.2426 12.0004 16.8001L12.0004 13.4423L18.5347 17.7985C18.903 18.044 19.3764 18.0669 19.7666 17.8581C20.1568 17.6493 20.4004 17.2426 20.4004 16.8001V7.20006C20.4004 6.75751 20.1568 6.35088 19.7666 6.14205C19.3764 5.93323 18.903 5.95612 18.5348 6.2016L12.0004 10.5578V7.20006C12.0004 6.75751 11.7568 6.35088 11.3666 6.14205C10.9764 5.93323 10.503 5.95612 10.1348 6.2016L2.93475 11.0016C2.60091 11.2242 2.40039 11.5988 2.40039 12.0001C2.40039 12.4013 2.60091 12.776 2.93475 12.9985L10.1348 17.7985Z" fill="#00142E"/>
<path d="M10.1348 17.7985C10.503 18.044 10.9764 18.0669 11.3666 17.8581C11.7568 17.6493 12.0004 17.2426 12.0004 16.8001L12.0004 13.4423L18.5347 17.7985C18.903 18.044 19.3764 18.0669 19.7666 17.8581C20.1568 17.6493 20.4004 17.2426 20.4004 16.8001V7.20006C20.4004 6.75751 20.1568 6.35088 19.7666 6.14205C19.3764 5.93323 18.903 5.95612 18.5348 6.2016L12.0004 10.5578V7.20006C12.0004 6.75751 11.7568 6.35088 11.3666 6.14205C10.9764 5.93323 10.503 5.95612 10.1348 6.2016L2.93475 11.0016C2.60091 11.2242 2.40039 11.5988 2.40039 12.0001C2.40039 12.4013 2.60091 12.776 2.93475 12.9985L10.1348 17.7985Z" fill="black" fill-opacity="0.2"/>
</svg>
