<svg width="24" height="24" viewBox="0 0 24 24" fill="none" xmlns="http://www.w3.org/2000/svg">
<path d="M5.99961 3.59998C5.33687 3.59998 4.79961 4.13723 4.79961 4.79998C4.79961 5.46272 5.33687 5.99998 5.99961 5.99998C12.627 5.99998 17.9996 11.3726 17.9996 18C17.9996 18.6627 18.5369 19.2 19.1996 19.2C19.8624 19.2 20.3996 18.6627 20.3996 18C20.3996 10.0471 13.9525 3.59998 5.99961 3.59998Z" fill="#00142E"/>
<path d="M5.99961 3.59998C5.33687 3.59998 4.79961 4.13723 4.79961 4.79998C4.79961 5.46272 5.33687 5.99998 5.99961 5.99998C12.627 5.99998 17.9996 11.3726 17.9996 18C17.9996 18.6627 18.5369 19.2 19.1996 19.2C19.8624 19.2 20.3996 18.6627 20.3996 18C20.3996 10.0471 13.9525 3.59998 5.99961 3.59998Z" fill="black" fill-opacity="0.2"/>
<path d="M4.79961 10.8C4.79961 10.1372 5.33687 9.59998 5.99961 9.59998C10.6388 9.59998 14.3996 13.3608 14.3996 18C14.3996 18.6627 13.8623 19.2 13.1996 19.2C12.5369 19.2 11.9996 18.6627 11.9996 18C11.9996 14.6863 9.31332 12 5.99961 12C5.33687 12 4.79961 11.4627 4.79961 10.8Z" fill="#00142E"/>
<path d="M4.79961 10.8C4.79961 10.1372 5.33687 9.59998 5.99961 9.59998C10.6388 9.59998 14.3996 13.3608 14.3996 18C14.3996 18.6627 13.8623 19.2 13.1996 19.2C12.5369 19.2 11.9996 18.6627 11.9996 18C11.9996 14.6863 9.31332 12 5.99961 12C5.33687 12 4.79961 11.4627 4.79961 10.8Z" fill="black" fill-opacity="0.2"/>
<path d="M3.59961 18C3.59961 16.6745 4.67413 15.6 5.99961 15.6C7.32509 15.6 8.39961 16.6745 8.39961 18C8.39961 19.3255 7.32509 20.4 5.99961 20.4C4.67413 20.4 3.59961 19.3255 3.59961 18Z" fill="#00142E"/>
<path d="M3.59961 18C3.59961 16.6745 4.67413 15.6 5.99961 15.6C7.32509 15.6 8.39961 16.6745 8.39961 18C8.39961 19.3255 7.32509 20.4 5.99961 20.4C4.67413 20.4 3.59961 19.3255 3.59961 18Z" fill="black" fill-opacity="0.2"/>
</svg>
