<svg width="24" height="24" viewBox="0 0 24 24" fill="none" xmlns="http://www.w3.org/2000/svg">
<path d="M9.24892 12.3514C8.78029 11.8828 8.02049 11.8828 7.55186 12.3514C7.08323 12.8201 7.08323 13.5799 7.55186 14.0485L11.1519 17.6485C11.6205 18.1171 12.3803 18.1171 12.8489 17.6485L16.4489 14.0485C16.9175 13.5799 16.9175 12.8201 16.4489 12.3514C15.9803 11.8828 15.2205 11.8828 14.7519 12.3514L13.2004 13.9029L13.2004 7.19998H19.2004C20.5259 7.19998 21.6004 8.27449 21.6004 9.59998V18C21.6004 19.3255 20.5259 20.4 19.2004 20.4H4.80039C3.47491 20.4 2.40039 19.3255 2.40039 18V9.59998C2.40039 8.27449 3.47491 7.19998 4.80039 7.19998H10.8004V13.9029L9.24892 12.3514Z" fill="#00142E"/>
<path d="M9.24892 12.3514C8.78029 11.8828 8.02049 11.8828 7.55186 12.3514C7.08323 12.8201 7.08323 13.5799 7.55186 14.0485L11.1519 17.6485C11.6205 18.1171 12.3803 18.1171 12.8489 17.6485L16.4489 14.0485C16.9175 13.5799 16.9175 12.8201 16.4489 12.3514C15.9803 11.8828 15.2205 11.8828 14.7519 12.3514L13.2004 13.9029L13.2004 7.19998H19.2004C20.5259 7.19998 21.6004 8.27449 21.6004 9.59998V18C21.6004 19.3255 20.5259 20.4 19.2004 20.4H4.80039C3.47491 20.4 2.40039 19.3255 2.40039 18V9.59998C2.40039 8.27449 3.47491 7.19998 4.80039 7.19998H10.8004V13.9029L9.24892 12.3514Z" fill="black" fill-opacity="0.2"/>
<path d="M10.8004 4.79998C10.8004 4.13723 11.3376 3.59998 12.0004 3.59998C12.6631 3.59998 13.2004 4.13723 13.2004 4.79998L13.2004 7.19998H10.8004L10.8004 4.79998Z" fill="#00142E"/>
<path d="M10.8004 4.79998C10.8004 4.13723 11.3376 3.59998 12.0004 3.59998C12.6631 3.59998 13.2004 4.13723 13.2004 4.79998L13.2004 7.19998H10.8004L10.8004 4.79998Z" fill="black" fill-opacity="0.2"/>
</svg>
