<svg width="24" height="24" viewBox="0 0 24 24" fill="none" xmlns="http://www.w3.org/2000/svg">
<path d="M11.6489 8.7515C11.1803 8.28287 10.4205 8.28287 9.95186 8.7515C9.48323 9.22013 9.48323 9.97992 9.95186 10.4486L13.5519 14.0486C14.0205 14.5172 14.7803 14.5172 15.2489 14.0486L18.8489 10.4486C19.3175 9.97992 19.3175 9.22013 18.8489 8.7515C18.3803 8.28287 17.6205 8.28287 17.1519 8.7515L15.6004 10.303L15.6004 6.00002H19.2004C20.5259 6.00002 21.6004 7.07454 21.6004 8.40002V14.4C21.6004 15.7255 20.5259 16.8 19.2004 16.8H9.60039C8.27491 16.8 7.20039 15.7255 7.20039 14.4V8.40002C7.20039 7.07454 8.27491 6.00002 9.60039 6.00002H13.2004L13.2004 10.303L11.6489 8.7515Z" fill="#00142E"/>
<path d="M11.6489 8.7515C11.1803 8.28287 10.4205 8.28287 9.95186 8.7515C9.48323 9.22013 9.48323 9.97992 9.95186 10.4486L13.5519 14.0486C14.0205 14.5172 14.7803 14.5172 15.2489 14.0486L18.8489 10.4486C19.3175 9.97992 19.3175 9.22013 18.8489 8.7515C18.3803 8.28287 17.6205 8.28287 17.1519 8.7515L15.6004 10.303L15.6004 6.00002H19.2004C20.5259 6.00002 21.6004 7.07454 21.6004 8.40002V14.4C21.6004 15.7255 20.5259 16.8 19.2004 16.8H9.60039C8.27491 16.8 7.20039 15.7255 7.20039 14.4V8.40002C7.20039 7.07454 8.27491 6.00002 9.60039 6.00002H13.2004L13.2004 10.303L11.6489 8.7515Z" fill="black" fill-opacity="0.2"/>
<path d="M13.2004 3.60002C13.2004 2.93728 13.7376 2.40002 14.4004 2.40002C15.0631 2.40002 15.6004 2.93728 15.6004 3.60002L15.6004 6.00002H13.2004L13.2004 3.60002Z" fill="#00142E"/>
<path d="M13.2004 3.60002C13.2004 2.93728 13.7376 2.40002 14.4004 2.40002C15.0631 2.40002 15.6004 2.93728 15.6004 3.60002L15.6004 6.00002H13.2004L13.2004 3.60002Z" fill="black" fill-opacity="0.2"/>
<path d="M4.80039 10.8C3.47491 10.8 2.40039 11.8745 2.40039 13.2V19.2C2.40039 20.5255 3.47491 21.6 4.80039 21.6H14.4004C15.7259 21.6 16.8004 20.5255 16.8004 19.2H4.80039V10.8Z" fill="#00142E"/>
<path d="M4.80039 10.8C3.47491 10.8 2.40039 11.8745 2.40039 13.2V19.2C2.40039 20.5255 3.47491 21.6 4.80039 21.6H14.4004C15.7259 21.6 16.8004 20.5255 16.8004 19.2H4.80039V10.8Z" fill="black" fill-opacity="0.2"/>
</svg>
