<svg width="24" height="24" viewBox="0 0 24 24" fill="none" xmlns="http://www.w3.org/2000/svg">
<path fill-rule="evenodd" clip-rule="evenodd" d="M11.9997 2.40002C12.6624 2.40002 13.1997 2.93728 13.1997 3.60002V5.18758L17.945 7.08572L19.863 6.12671C20.4558 5.83032 21.1766 6.07059 21.473 6.66337C21.7694 7.25614 21.5291 7.97695 20.9363 8.27334L19.4565 9.01323L21.5424 15.5169C21.687 15.9678 21.5529 16.4617 21.2 16.7775C20.3516 17.5368 19.2283 18 17.9997 18C16.7711 18 15.6478 17.5368 14.7994 16.7775C14.4465 16.4617 14.3124 15.9678 14.457 15.5169L16.5154 9.09875L13.1997 7.77246V19.2H15.5997C16.2624 19.2 16.7997 19.7373 16.7997 20.4C16.7997 21.0628 16.2624 21.6 15.5997 21.6H8.39968C7.73694 21.6 7.19968 21.0628 7.19968 20.4C7.19968 19.7373 7.73694 19.2 8.39968 19.2H10.7997V7.77246L7.48397 9.09875L9.54235 15.5169C9.68698 15.9678 9.55286 16.4617 9.19997 16.7775C8.35156 17.5368 7.22828 18 5.99968 18C4.77108 18 3.64779 17.5368 2.79938 16.7775C2.4465 16.4617 2.31238 15.9678 2.45701 15.5169L4.54281 9.01323L3.06302 8.27334C2.47025 7.97695 2.22998 7.25614 2.52636 6.66337C2.82275 6.07059 3.54356 5.83032 4.13633 6.12671L6.05435 7.08572L10.7997 5.18758V3.60002C10.7997 2.93728 11.3369 2.40002 11.9997 2.40002ZM5.99968 12.3294L5.01779 15.391C5.31729 15.5254 5.64931 15.6 5.99968 15.6C6.35004 15.6 6.68206 15.5254 6.98156 15.391L5.99968 12.3294ZM17.9997 12.3294L17.0178 15.391C17.3173 15.5254 17.6493 15.6 17.9997 15.6C18.35 15.6 18.6821 15.5254 18.9816 15.391L17.9997 12.3294Z" fill="#00142E"/>
<path fill-rule="evenodd" clip-rule="evenodd" d="M11.9997 2.40002C12.6624 2.40002 13.1997 2.93728 13.1997 3.60002V5.18758L17.945 7.08572L19.863 6.12671C20.4558 5.83032 21.1766 6.07059 21.473 6.66337C21.7694 7.25614 21.5291 7.97695 20.9363 8.27334L19.4565 9.01323L21.5424 15.5169C21.687 15.9678 21.5529 16.4617 21.2 16.7775C20.3516 17.5368 19.2283 18 17.9997 18C16.7711 18 15.6478 17.5368 14.7994 16.7775C14.4465 16.4617 14.3124 15.9678 14.457 15.5169L16.5154 9.09875L13.1997 7.77246V19.2H15.5997C16.2624 19.2 16.7997 19.7373 16.7997 20.4C16.7997 21.0628 16.2624 21.6 15.5997 21.6H8.39968C7.73694 21.6 7.19968 21.0628 7.19968 20.4C7.19968 19.7373 7.73694 19.2 8.39968 19.2H10.7997V7.77246L7.48397 9.09875L9.54235 15.5169C9.68698 15.9678 9.55286 16.4617 9.19997 16.7775C8.35156 17.5368 7.22828 18 5.99968 18C4.77108 18 3.64779 17.5368 2.79938 16.7775C2.4465 16.4617 2.31238 15.9678 2.45701 15.5169L4.54281 9.01323L3.06302 8.27334C2.47025 7.97695 2.22998 7.25614 2.52636 6.66337C2.82275 6.07059 3.54356 5.83032 4.13633 6.12671L6.05435 7.08572L10.7997 5.18758V3.60002C10.7997 2.93728 11.3369 2.40002 11.9997 2.40002ZM5.99968 12.3294L5.01779 15.391C5.31729 15.5254 5.64931 15.6 5.99968 15.6C6.35004 15.6 6.68206 15.5254 6.98156 15.391L5.99968 12.3294ZM17.9997 12.3294L17.0178 15.391C17.3173 15.5254 17.6493 15.6 17.9997 15.6C18.35 15.6 18.6821 15.5254 18.9816 15.391L17.9997 12.3294Z" fill="black" fill-opacity="0.2"/>
</svg>
