<svg width="24" height="24" viewBox="0 0 24 24" fill="none" xmlns="http://www.w3.org/2000/svg">
<path fill-rule="evenodd" clip-rule="evenodd" d="M6.60039 2.40002C4.28079 2.40002 2.40039 4.28043 2.40039 6.60002C2.40039 8.91962 4.28079 10.8 6.60039 10.8C7.3237 10.8 8.00431 10.6172 8.59851 10.2952L10.3034 12.0001L8.59857 13.7049C8.00435 13.3829 7.32372 13.2 6.60039 13.2C4.28079 13.2 2.40039 15.0804 2.40039 17.4C2.40039 19.7196 4.28079 21.6 6.60039 21.6C8.91999 21.6 10.8004 19.7196 10.8004 17.4C10.8004 16.6767 10.6176 15.9962 10.2956 15.402L20.049 5.64855C20.5176 5.17992 20.5176 4.42013 20.049 3.9515C19.5804 3.48287 18.8206 3.48287 18.352 3.9515L12.0004 10.303L10.2956 8.59814C10.6175 8.00394 10.8004 7.32333 10.8004 6.60002C10.8004 4.28043 8.91999 2.40002 6.60039 2.40002ZM4.80039 6.60002C4.80039 5.60591 5.60628 4.80002 6.60039 4.80002C7.5945 4.80002 8.40039 5.60591 8.40039 6.60002C8.40039 7.59414 7.5945 8.40002 6.60039 8.40002C5.60628 8.40002 4.80039 7.59414 4.80039 6.60002ZM4.80039 17.4C4.80039 16.4059 5.60628 15.6 6.60039 15.6C7.5945 15.6 8.40039 16.4059 8.40039 17.4C8.40039 18.3941 7.5945 19.2 6.60039 19.2C5.60628 19.2 4.80039 18.3941 4.80039 17.4Z" fill="#00142E"/>
<path fill-rule="evenodd" clip-rule="evenodd" d="M6.60039 2.40002C4.28079 2.40002 2.40039 4.28043 2.40039 6.60002C2.40039 8.91962 4.28079 10.8 6.60039 10.8C7.3237 10.8 8.00431 10.6172 8.59851 10.2952L10.3034 12.0001L8.59857 13.7049C8.00435 13.3829 7.32372 13.2 6.60039 13.2C4.28079 13.2 2.40039 15.0804 2.40039 17.4C2.40039 19.7196 4.28079 21.6 6.60039 21.6C8.91999 21.6 10.8004 19.7196 10.8004 17.4C10.8004 16.6767 10.6176 15.9962 10.2956 15.402L20.049 5.64855C20.5176 5.17992 20.5176 4.42013 20.049 3.9515C19.5804 3.48287 18.8206 3.48287 18.352 3.9515L12.0004 10.303L10.2956 8.59814C10.6175 8.00394 10.8004 7.32333 10.8004 6.60002C10.8004 4.28043 8.91999 2.40002 6.60039 2.40002ZM4.80039 6.60002C4.80039 5.60591 5.60628 4.80002 6.60039 4.80002C7.5945 4.80002 8.40039 5.60591 8.40039 6.60002C8.40039 7.59414 7.5945 8.40002 6.60039 8.40002C5.60628 8.40002 4.80039 7.59414 4.80039 6.60002ZM4.80039 17.4C4.80039 16.4059 5.60628 15.6 6.60039 15.6C7.5945 15.6 8.40039 16.4059 8.40039 17.4C8.40039 18.3941 7.5945 19.2 6.60039 19.2C5.60628 19.2 4.80039 18.3941 4.80039 17.4Z" fill="black" fill-opacity="0.2"/>
<path d="M15.3945 13.6971C14.9259 13.2285 14.1661 13.2285 13.6974 13.6971C13.2288 14.1657 13.2288 14.9255 13.6974 15.3941L18.3519 20.0486C18.8205 20.5172 19.5803 20.5172 20.0489 20.0486C20.5175 19.5799 20.5175 18.8201 20.0489 18.3515L15.3945 13.6971Z" fill="#00142E"/>
<path d="M15.3945 13.6971C14.9259 13.2285 14.1661 13.2285 13.6974 13.6971C13.2288 14.1657 13.2288 14.9255 13.6974 15.3941L18.3519 20.0486C18.8205 20.5172 19.5803 20.5172 20.0489 20.0486C20.5175 19.5799 20.5175 18.8201 20.0489 18.3515L15.3945 13.6971Z" fill="black" fill-opacity="0.2"/>
</svg>
