<svg width="24" height="24" viewBox="0 0 24 24" fill="none" xmlns="http://www.w3.org/2000/svg">
<path d="M10.8004 10.8C10.8004 9.47454 11.8749 8.40002 13.2004 8.40002C14.5259 8.40002 15.6004 9.47454 15.6004 10.8C15.6004 12.1255 14.5259 13.2 13.2004 13.2C12.5373 13.2 11.939 12.9327 11.5033 12.4971C11.0677 12.0615 10.8004 11.4631 10.8004 10.8Z" fill="#00142E"/>
<path d="M10.8004 10.8C10.8004 9.47454 11.8749 8.40002 13.2004 8.40002C14.5259 8.40002 15.6004 9.47454 15.6004 10.8C15.6004 12.1255 14.5259 13.2 13.2004 13.2C12.5373 13.2 11.939 12.9327 11.5033 12.4971C11.0677 12.0615 10.8004 11.4631 10.8004 10.8Z" fill="black" fill-opacity="0.2"/>
<path fill-rule="evenodd" clip-rule="evenodd" d="M12.0004 21.6C17.3023 21.6 21.6004 17.302 21.6004 12C21.6004 6.69809 17.3023 2.40002 12.0004 2.40002C6.69846 2.40002 2.40039 6.69809 2.40039 12C2.40039 17.302 6.69846 21.6 12.0004 21.6ZM13.2004 6.00002C10.5494 6.00002 8.40039 8.14906 8.40039 10.8C8.40039 11.6897 8.64314 12.5237 9.06515 13.2382L6.35186 15.9515C5.88323 16.4201 5.88323 17.1799 6.35186 17.6486C6.82049 18.1172 7.58029 18.1172 8.04892 17.6486L10.7622 14.9353C11.4767 15.3573 12.3107 15.6 13.2004 15.6C15.8514 15.6 18.0004 13.451 18.0004 10.8C18.0004 8.14906 15.8514 6.00002 13.2004 6.00002Z" fill="#00142E"/>
<path fill-rule="evenodd" clip-rule="evenodd" d="M12.0004 21.6C17.3023 21.6 21.6004 17.302 21.6004 12C21.6004 6.69809 17.3023 2.40002 12.0004 2.40002C6.69846 2.40002 2.40039 6.69809 2.40039 12C2.40039 17.302 6.69846 21.6 12.0004 21.6ZM13.2004 6.00002C10.5494 6.00002 8.40039 8.14906 8.40039 10.8C8.40039 11.6897 8.64314 12.5237 9.06515 13.2382L6.35186 15.9515C5.88323 16.4201 5.88323 17.1799 6.35186 17.6486C6.82049 18.1172 7.58029 18.1172 8.04892 17.6486L10.7622 14.9353C11.4767 15.3573 12.3107 15.6 13.2004 15.6C15.8514 15.6 18.0004 13.451 18.0004 10.8C18.0004 8.14906 15.8514 6.00002 13.2004 6.00002Z" fill="black" fill-opacity="0.2"/>
</svg>
