<svg width="24" height="24" viewBox="0 0 24 24" fill="none" xmlns="http://www.w3.org/2000/svg">
<path fill-rule="evenodd" clip-rule="evenodd" d="M9.60039 4.80002C6.94942 4.80002 4.80039 6.94906 4.80039 9.60002C4.80039 12.251 6.94942 14.4 9.60039 14.4C12.2514 14.4 14.4004 12.251 14.4004 9.60002C14.4004 6.94906 12.2514 4.80002 9.60039 4.80002ZM2.40039 9.60002C2.40039 5.62357 5.62394 2.40002 9.60039 2.40002C13.5768 2.40002 16.8004 5.62357 16.8004 9.60002C16.8004 11.155 16.3074 12.5949 15.4693 13.7719L21.2489 19.5515C21.7175 20.0201 21.7175 20.7799 21.2489 21.2486C20.7803 21.7172 20.0205 21.7172 19.5519 21.2486L13.7722 15.4689C12.5953 16.3071 11.1554 16.8 9.60039 16.8C5.62394 16.8 2.40039 13.5765 2.40039 9.60002Z" fill="#00142E"/>
<path fill-rule="evenodd" clip-rule="evenodd" d="M9.60039 4.80002C6.94942 4.80002 4.80039 6.94906 4.80039 9.60002C4.80039 12.251 6.94942 14.4 9.60039 14.4C12.2514 14.4 14.4004 12.251 14.4004 9.60002C14.4004 6.94906 12.2514 4.80002 9.60039 4.80002ZM2.40039 9.60002C2.40039 5.62357 5.62394 2.40002 9.60039 2.40002C13.5768 2.40002 16.8004 5.62357 16.8004 9.60002C16.8004 11.155 16.3074 12.5949 15.4693 13.7719L21.2489 19.5515C21.7175 20.0201 21.7175 20.7799 21.2489 21.2486C20.7803 21.7172 20.0205 21.7172 19.5519 21.2486L13.7722 15.4689C12.5953 16.3071 11.1554 16.8 9.60039 16.8C5.62394 16.8 2.40039 13.5765 2.40039 9.60002Z" fill="black" fill-opacity="0.2"/>
</svg>
