<svg width="24" height="24" viewBox="0 0 24 24" fill="none" xmlns="http://www.w3.org/2000/svg">
<path fill-rule="evenodd" clip-rule="evenodd" d="M12.0002 3.59998C12.3185 3.59998 12.6237 3.7264 12.8487 3.95145L16.4487 7.55145C16.9174 8.02008 16.9174 8.77988 16.4487 9.2485C15.9801 9.71713 15.2203 9.71713 14.7517 9.2485L12.0002 6.49703L9.24872 9.2485C8.78009 9.71713 8.0203 9.71713 7.55167 9.2485C7.08304 8.77987 7.08304 8.02008 7.55167 7.55145L11.1517 3.95145C11.3767 3.7264 11.6819 3.59998 12.0002 3.59998ZM7.55167 14.7514C8.0203 14.2828 8.78009 14.2828 9.24872 14.7514L12.0002 17.5029L14.7517 14.7514C15.2203 14.2828 15.9801 14.2828 16.4487 14.7514C16.9174 15.2201 16.9174 15.9799 16.4487 16.4485L12.8487 20.0485C12.3801 20.5171 11.6203 20.5171 11.1517 20.0485L7.55167 16.4485C7.08304 15.9799 7.08304 15.2201 7.55167 14.7514Z" fill="#00142E"/>
<path fill-rule="evenodd" clip-rule="evenodd" d="M12.0002 3.59998C12.3185 3.59998 12.6237 3.7264 12.8487 3.95145L16.4487 7.55145C16.9174 8.02008 16.9174 8.77988 16.4487 9.2485C15.9801 9.71713 15.2203 9.71713 14.7517 9.2485L12.0002 6.49703L9.24872 9.2485C8.78009 9.71713 8.0203 9.71713 7.55167 9.2485C7.08304 8.77987 7.08304 8.02008 7.55167 7.55145L11.1517 3.95145C11.3767 3.7264 11.6819 3.59998 12.0002 3.59998ZM7.55167 14.7514C8.0203 14.2828 8.78009 14.2828 9.24872 14.7514L12.0002 17.5029L14.7517 14.7514C15.2203 14.2828 15.9801 14.2828 16.4487 14.7514C16.9174 15.2201 16.9174 15.9799 16.4487 16.4485L12.8487 20.0485C12.3801 20.5171 11.6203 20.5171 11.1517 20.0485L7.55167 16.4485C7.08304 15.9799 7.08304 15.2201 7.55167 14.7514Z" fill="black" fill-opacity="0.2"/>
</svg>
