<svg width="24" height="24" viewBox="0 0 24 24" fill="none" xmlns="http://www.w3.org/2000/svg">
<path fill-rule="evenodd" clip-rule="evenodd" d="M2.40039 5.99998C2.40039 4.67449 3.47491 3.59998 4.80039 3.59998H19.2004C20.5259 3.59998 21.6004 4.67449 21.6004 5.99998V8.39998C21.6004 9.72546 20.5259 10.8 19.2004 10.8H4.80039C3.47491 10.8 2.40039 9.72546 2.40039 8.39998V5.99998ZM19.2004 7.19998C19.2004 7.86272 18.6631 8.39998 18.0004 8.39998C17.3376 8.39998 16.8004 7.86272 16.8004 7.19998C16.8004 6.53723 17.3376 5.99998 18.0004 5.99998C18.6631 5.99998 19.2004 6.53723 19.2004 7.19998Z" fill="#00142E"/>
<path fill-rule="evenodd" clip-rule="evenodd" d="M2.40039 5.99998C2.40039 4.67449 3.47491 3.59998 4.80039 3.59998H19.2004C20.5259 3.59998 21.6004 4.67449 21.6004 5.99998V8.39998C21.6004 9.72546 20.5259 10.8 19.2004 10.8H4.80039C3.47491 10.8 2.40039 9.72546 2.40039 8.39998V5.99998ZM19.2004 7.19998C19.2004 7.86272 18.6631 8.39998 18.0004 8.39998C17.3376 8.39998 16.8004 7.86272 16.8004 7.19998C16.8004 6.53723 17.3376 5.99998 18.0004 5.99998C18.6631 5.99998 19.2004 6.53723 19.2004 7.19998Z" fill="black" fill-opacity="0.2"/>
<path fill-rule="evenodd" clip-rule="evenodd" d="M2.40039 15.6C2.40039 14.2745 3.47491 13.2 4.80039 13.2H19.2004C20.5259 13.2 21.6004 14.2745 21.6004 15.6V18C21.6004 19.3255 20.5259 20.4 19.2004 20.4H4.80039C3.47491 20.4 2.40039 19.3255 2.40039 18V15.6ZM19.2004 16.8C19.2004 17.4627 18.6631 18 18.0004 18C17.3376 18 16.8004 17.4627 16.8004 16.8C16.8004 16.1372 17.3376 15.6 18.0004 15.6C18.6631 15.6 19.2004 16.1372 19.2004 16.8Z" fill="#00142E"/>
<path fill-rule="evenodd" clip-rule="evenodd" d="M2.40039 15.6C2.40039 14.2745 3.47491 13.2 4.80039 13.2H19.2004C20.5259 13.2 21.6004 14.2745 21.6004 15.6V18C21.6004 19.3255 20.5259 20.4 19.2004 20.4H4.80039C3.47491 20.4 2.40039 19.3255 2.40039 18V15.6ZM19.2004 16.8C19.2004 17.4627 18.6631 18 18.0004 18C17.3376 18 16.8004 17.4627 16.8004 16.8C16.8004 16.1372 17.3376 15.6 18.0004 15.6C18.6631 15.6 19.2004 16.1372 19.2004 16.8Z" fill="black" fill-opacity="0.2"/>
</svg>
