<svg width="24" height="24" viewBox="0 0 24 24" fill="none" xmlns="http://www.w3.org/2000/svg">
<path fill-rule="evenodd" clip-rule="evenodd" d="M13.7875 3.80515C13.3326 1.93165 10.6682 1.93165 10.2133 3.80515C9.91951 5.01542 8.53293 5.58976 7.46939 4.94173C5.82301 3.93857 3.93894 5.82264 4.9421 7.46902C5.59012 8.53256 5.01578 9.91915 3.80552 10.213C1.93201 10.6678 1.93201 13.3323 3.80552 13.7871C5.01578 14.0809 5.59012 15.4675 4.9421 16.531C3.93894 18.1774 5.82301 20.0615 7.46939 19.0583C8.53293 18.4103 9.91951 18.9846 10.2133 20.1949C10.6682 22.0684 13.3326 22.0684 13.7875 20.1949C14.0813 18.9846 15.4679 18.4103 16.5314 19.0583C18.1778 20.0615 20.0618 18.1774 19.0587 16.531C18.4107 15.4675 18.985 14.0809 20.1953 13.7871C22.0688 13.3323 22.0688 10.6678 20.1953 10.213C18.985 9.91915 18.4107 8.53256 19.0587 7.46902C20.0618 5.82264 18.1778 3.93857 16.5314 4.94173C15.4679 5.58976 14.0813 5.01542 13.7875 3.80515ZM12.0004 15.6C13.9886 15.6 15.6004 13.9883 15.6004 12C15.6004 10.0118 13.9886 8.40002 12.0004 8.40002C10.0122 8.40002 8.40039 10.0118 8.40039 12C8.40039 13.9883 10.0122 15.6 12.0004 15.6Z" fill="#00142E"/>
<path fill-rule="evenodd" clip-rule="evenodd" d="M13.7875 3.80515C13.3326 1.93165 10.6682 1.93165 10.2133 3.80515C9.91951 5.01542 8.53293 5.58976 7.46939 4.94173C5.82301 3.93857 3.93894 5.82264 4.9421 7.46902C5.59012 8.53256 5.01578 9.91915 3.80552 10.213C1.93201 10.6678 1.93201 13.3323 3.80552 13.7871C5.01578 14.0809 5.59012 15.4675 4.9421 16.531C3.93894 18.1774 5.82301 20.0615 7.46939 19.0583C8.53293 18.4103 9.91951 18.9846 10.2133 20.1949C10.6682 22.0684 13.3326 22.0684 13.7875 20.1949C14.0813 18.9846 15.4679 18.4103 16.5314 19.0583C18.1778 20.0615 20.0618 18.1774 19.0587 16.531C18.4107 15.4675 18.985 14.0809 20.1953 13.7871C22.0688 13.3323 22.0688 10.6678 20.1953 10.213C18.985 9.91915 18.4107 8.53256 19.0587 7.46902C20.0618 5.82264 18.1778 3.93857 16.5314 4.94173C15.4679 5.58976 14.0813 5.01542 13.7875 3.80515ZM12.0004 15.6C13.9886 15.6 15.6004 13.9883 15.6004 12C15.6004 10.0118 13.9886 8.40002 12.0004 8.40002C10.0122 8.40002 8.40039 10.0118 8.40039 12C8.40039 13.9883 10.0122 15.6 12.0004 15.6Z" fill="black" fill-opacity="0.2"/>
</svg>
