<svg width="24" height="24" viewBox="0 0 24 24" fill="none" xmlns="http://www.w3.org/2000/svg">
<path fill-rule="evenodd" clip-rule="evenodd" d="M12.0004 2.33337C9.49873 4.57242 6.20964 5.94974 2.59972 5.99871C2.46863 6.77964 2.40039 7.58188 2.40039 8.40006C2.40039 14.6699 6.40747 20.0038 12.0004 21.9806C17.5933 20.0038 21.6004 14.6699 21.6004 8.40006C21.6004 7.58188 21.5322 6.77964 21.4011 5.99871C17.7911 5.94974 14.5021 4.57242 12.0004 2.33337ZM13.2004 16.8C13.2004 17.4628 12.6631 18 12.0004 18C11.3376 18 10.8004 17.4628 10.8004 16.8C10.8004 16.1373 11.3376 15.6 12.0004 15.6C12.6631 15.6 13.2004 16.1373 13.2004 16.8ZM13.2004 8.40002C13.2004 7.73728 12.6631 7.20002 12.0004 7.20002C11.3376 7.20002 10.8004 7.73728 10.8004 8.40002V12C10.8004 12.6628 11.3376 13.2 12.0004 13.2C12.6631 13.2 13.2004 12.6628 13.2004 12V8.40002Z" fill="#00142E"/>
<path fill-rule="evenodd" clip-rule="evenodd" d="M12.0004 2.33337C9.49873 4.57242 6.20964 5.94974 2.59972 5.99871C2.46863 6.77964 2.40039 7.58188 2.40039 8.40006C2.40039 14.6699 6.40747 20.0038 12.0004 21.9806C17.5933 20.0038 21.6004 14.6699 21.6004 8.40006C21.6004 7.58188 21.5322 6.77964 21.4011 5.99871C17.7911 5.94974 14.5021 4.57242 12.0004 2.33337ZM13.2004 16.8C13.2004 17.4628 12.6631 18 12.0004 18C11.3376 18 10.8004 17.4628 10.8004 16.8C10.8004 16.1373 11.3376 15.6 12.0004 15.6C12.6631 15.6 13.2004 16.1373 13.2004 16.8ZM13.2004 8.40002C13.2004 7.73728 12.6631 7.20002 12.0004 7.20002C11.3376 7.20002 10.8004 7.73728 10.8004 8.40002V12C10.8004 12.6628 11.3376 13.2 12.0004 13.2C12.6631 13.2 13.2004 12.6628 13.2004 12V8.40002Z" fill="black" fill-opacity="0.2"/>
</svg>
