<svg width="24" height="24" viewBox="0 0 24 24" fill="none" xmlns="http://www.w3.org/2000/svg">
<path fill-rule="evenodd" clip-rule="evenodd" d="M2.59972 5.99871C6.20964 5.94974 9.49873 4.57242 12.0004 2.33337C14.5021 4.57242 17.7911 5.94974 21.4011 5.99871C21.5322 6.77964 21.6004 7.58188 21.6004 8.40006C21.6004 14.6699 17.5933 20.0038 12.0004 21.9806C6.40747 20.0038 2.40039 14.6699 2.40039 8.40006C2.40039 7.58188 2.46863 6.77964 2.59972 5.99871ZM16.4489 10.4486C16.9175 9.97992 16.9175 9.22013 16.4489 8.7515C15.9803 8.28287 15.2205 8.28287 14.7519 8.7515L10.8004 12.703L9.24892 11.1515C8.78029 10.6829 8.02049 10.6829 7.55186 11.1515C7.08323 11.6201 7.08323 12.3799 7.55186 12.8486L9.95186 15.2486C10.4205 15.7172 11.1803 15.7172 11.6489 15.2486L16.4489 10.4486Z" fill="#00142E"/>
<path fill-rule="evenodd" clip-rule="evenodd" d="M2.59972 5.99871C6.20964 5.94974 9.49873 4.57242 12.0004 2.33337C14.5021 4.57242 17.7911 5.94974 21.4011 5.99871C21.5322 6.77964 21.6004 7.58188 21.6004 8.40006C21.6004 14.6699 17.5933 20.0038 12.0004 21.9806C6.40747 20.0038 2.40039 14.6699 2.40039 8.40006C2.40039 7.58188 2.46863 6.77964 2.59972 5.99871ZM16.4489 10.4486C16.9175 9.97992 16.9175 9.22013 16.4489 8.7515C15.9803 8.28287 15.2205 8.28287 14.7519 8.7515L10.8004 12.703L9.24892 11.1515C8.78029 10.6829 8.02049 10.6829 7.55186 11.1515C7.08323 11.6201 7.08323 12.3799 7.55186 12.8486L9.95186 15.2486C10.4205 15.7172 11.1803 15.7172 11.6489 15.2486L16.4489 10.4486Z" fill="black" fill-opacity="0.2"/>
</svg>
