<svg width="24" height="24" viewBox="0 0 24 24" fill="none" xmlns="http://www.w3.org/2000/svg">
<path fill-rule="evenodd" clip-rule="evenodd" d="M11.9996 2.40002C9.34864 2.40002 7.19961 4.54906 7.19961 7.20002V8.40002H5.99961C5.38816 8.40002 4.87448 8.85979 4.80695 9.46751L3.60695 20.2675C3.56926 20.6068 3.67782 20.946 3.90546 21.2003C4.1331 21.4547 4.45828 21.6 4.79962 21.6H19.1996C19.5409 21.6 19.8661 21.4547 20.0938 21.2003C20.3214 20.946 20.43 20.6068 20.3923 20.2675L19.1923 9.46751C19.1248 8.85979 18.6111 8.40002 17.9996 8.40002H16.7996V7.20002C16.7996 4.54906 14.6506 2.40002 11.9996 2.40002ZM14.3996 8.40002V7.20002C14.3996 5.87454 13.3251 4.80002 11.9996 4.80002C10.6741 4.80002 9.59961 5.87454 9.59961 7.20002V8.40002H14.3996ZM7.19961 12C7.19961 11.3373 7.73687 10.8 8.39961 10.8C9.06235 10.8 9.59961 11.3373 9.59961 12C9.59961 12.6628 9.06235 13.2 8.39961 13.2C7.73687 13.2 7.19961 12.6628 7.19961 12ZM15.5996 10.8C14.9369 10.8 14.3996 11.3373 14.3996 12C14.3996 12.6628 14.9369 13.2 15.5996 13.2C16.2624 13.2 16.7996 12.6628 16.7996 12C16.7996 11.3373 16.2624 10.8 15.5996 10.8Z" fill="#00142E"/>
<path fill-rule="evenodd" clip-rule="evenodd" d="M11.9996 2.40002C9.34864 2.40002 7.19961 4.54906 7.19961 7.20002V8.40002H5.99961C5.38816 8.40002 4.87448 8.85979 4.80695 9.46751L3.60695 20.2675C3.56926 20.6068 3.67782 20.946 3.90546 21.2003C4.1331 21.4547 4.45828 21.6 4.79962 21.6H19.1996C19.5409 21.6 19.8661 21.4547 20.0938 21.2003C20.3214 20.946 20.43 20.6068 20.3923 20.2675L19.1923 9.46751C19.1248 8.85979 18.6111 8.40002 17.9996 8.40002H16.7996V7.20002C16.7996 4.54906 14.6506 2.40002 11.9996 2.40002ZM14.3996 8.40002V7.20002C14.3996 5.87454 13.3251 4.80002 11.9996 4.80002C10.6741 4.80002 9.59961 5.87454 9.59961 7.20002V8.40002H14.3996ZM7.19961 12C7.19961 11.3373 7.73687 10.8 8.39961 10.8C9.06235 10.8 9.59961 11.3373 9.59961 12C9.59961 12.6628 9.06235 13.2 8.39961 13.2C7.73687 13.2 7.19961 12.6628 7.19961 12ZM15.5996 10.8C14.9369 10.8 14.3996 11.3373 14.3996 12C14.3996 12.6628 14.9369 13.2 15.5996 13.2C16.2624 13.2 16.7996 12.6628 16.7996 12C16.7996 11.3373 16.2624 10.8 15.5996 10.8Z" fill="black" fill-opacity="0.2"/>
</svg>
