<svg width="24" height="24" viewBox="0 0 24 24" fill="none" xmlns="http://www.w3.org/2000/svg">
<path d="M3.60039 3.59998C2.93765 3.59998 2.40039 4.13723 2.40039 4.79998C2.40039 5.46272 2.93765 5.99998 3.60039 5.99998H16.8004C17.4631 5.99998 18.0004 5.46272 18.0004 4.79998C18.0004 4.13723 17.4631 3.59998 16.8004 3.59998H3.60039Z" fill="#00142E"/>
<path d="M3.60039 3.59998C2.93765 3.59998 2.40039 4.13723 2.40039 4.79998C2.40039 5.46272 2.93765 5.99998 3.60039 5.99998H16.8004C17.4631 5.99998 18.0004 5.46272 18.0004 4.79998C18.0004 4.13723 17.4631 3.59998 16.8004 3.59998H3.60039Z" fill="black" fill-opacity="0.2"/>
<path d="M3.60039 8.39998C2.93765 8.39998 2.40039 8.93723 2.40039 9.59998C2.40039 10.2627 2.93765 10.8 3.60039 10.8H9.60039C10.2631 10.8 10.8004 10.2627 10.8004 9.59998C10.8004 8.93723 10.2631 8.39998 9.60039 8.39998H3.60039Z" fill="#00142E"/>
<path d="M3.60039 8.39998C2.93765 8.39998 2.40039 8.93723 2.40039 9.59998C2.40039 10.2627 2.93765 10.8 3.60039 10.8H9.60039C10.2631 10.8 10.8004 10.2627 10.8004 9.59998C10.8004 8.93723 10.2631 8.39998 9.60039 8.39998H3.60039Z" fill="black" fill-opacity="0.2"/>
<path d="M3.60039 13.2C2.93765 13.2 2.40039 13.7372 2.40039 14.4C2.40039 15.0627 2.93765 15.6 3.60039 15.6H8.40039C9.06313 15.6 9.60039 15.0627 9.60039 14.4C9.60039 13.7372 9.06313 13.2 8.40039 13.2H3.60039Z" fill="#00142E"/>
<path d="M3.60039 13.2C2.93765 13.2 2.40039 13.7372 2.40039 14.4C2.40039 15.0627 2.93765 15.6 3.60039 15.6H8.40039C9.06313 15.6 9.60039 15.0627 9.60039 14.4C9.60039 13.7372 9.06313 13.2 8.40039 13.2H3.60039Z" fill="black" fill-opacity="0.2"/>
<path d="M15.6004 19.2C15.6004 19.8627 16.1376 20.4 16.8004 20.4C17.4631 20.4 18.0004 19.8627 18.0004 19.2L18.0004 12.497L19.5519 14.0485C20.0205 14.5171 20.7803 14.5171 21.2489 14.0485C21.7175 13.5799 21.7175 12.8201 21.2489 12.3514L17.6489 8.75145C17.4239 8.5264 17.1187 8.39997 16.8004 8.39997C16.4821 8.39997 16.1769 8.5264 15.9519 8.75145L12.3519 12.3514C11.8832 12.8201 11.8832 13.5799 12.3519 14.0485C12.8205 14.5171 13.5803 14.5171 14.0489 14.0485L15.6004 12.497L15.6004 19.2Z" fill="#00142E"/>
<path d="M15.6004 19.2C15.6004 19.8627 16.1376 20.4 16.8004 20.4C17.4631 20.4 18.0004 19.8627 18.0004 19.2L18.0004 12.497L19.5519 14.0485C20.0205 14.5171 20.7803 14.5171 21.2489 14.0485C21.7175 13.5799 21.7175 12.8201 21.2489 12.3514L17.6489 8.75145C17.4239 8.5264 17.1187 8.39997 16.8004 8.39997C16.4821 8.39997 16.1769 8.5264 15.9519 8.75145L12.3519 12.3514C11.8832 12.8201 11.8832 13.5799 12.3519 14.0485C12.8205 14.5171 13.5803 14.5171 14.0489 14.0485L15.6004 12.497L15.6004 19.2Z" fill="black" fill-opacity="0.2"/>
</svg>
