<svg width="24" height="24" viewBox="0 0 24 24" fill="none" xmlns="http://www.w3.org/2000/svg">
<path d="M3.60039 3.59998C2.93765 3.59998 2.40039 4.13723 2.40039 4.79998C2.40039 5.46272 2.93765 5.99998 3.60039 5.99998H16.8004C17.4631 5.99998 18.0004 5.46272 18.0004 4.79998C18.0004 4.13723 17.4631 3.59998 16.8004 3.59998H3.60039Z" fill="#00142E"/>
<path d="M3.60039 3.59998C2.93765 3.59998 2.40039 4.13723 2.40039 4.79998C2.40039 5.46272 2.93765 5.99998 3.60039 5.99998H16.8004C17.4631 5.99998 18.0004 5.46272 18.0004 4.79998C18.0004 4.13723 17.4631 3.59998 16.8004 3.59998H3.60039Z" fill="black" fill-opacity="0.2"/>
<path d="M3.60039 8.39998C2.93765 8.39998 2.40039 8.93723 2.40039 9.59998C2.40039 10.2627 2.93765 10.8 3.60039 10.8H12.0004C12.6631 10.8 13.2004 10.2627 13.2004 9.59998C13.2004 8.93723 12.6631 8.39998 12.0004 8.39998H3.60039Z" fill="#00142E"/>
<path d="M3.60039 8.39998C2.93765 8.39998 2.40039 8.93723 2.40039 9.59998C2.40039 10.2627 2.93765 10.8 3.60039 10.8H12.0004C12.6631 10.8 13.2004 10.2627 13.2004 9.59998C13.2004 8.93723 12.6631 8.39998 12.0004 8.39998H3.60039Z" fill="black" fill-opacity="0.2"/>
<path d="M3.60039 13.2C2.93765 13.2 2.40039 13.7372 2.40039 14.4C2.40039 15.0627 2.93765 15.6 3.60039 15.6H8.40039C9.06313 15.6 9.60039 15.0627 9.60039 14.4C9.60039 13.7372 9.06313 13.2 8.40039 13.2H3.60039Z" fill="#00142E"/>
<path d="M3.60039 13.2C2.93765 13.2 2.40039 13.7372 2.40039 14.4C2.40039 15.0627 2.93765 15.6 3.60039 15.6H8.40039C9.06313 15.6 9.60039 15.0627 9.60039 14.4C9.60039 13.7372 9.06313 13.2 8.40039 13.2H3.60039Z" fill="black" fill-opacity="0.2"/>
<path d="M18.0004 9.59998C18.0004 8.93723 17.4631 8.39998 16.8004 8.39998C16.1377 8.39998 15.6004 8.93723 15.6004 9.59998L15.6004 16.3029L14.0489 14.7514C13.5803 14.2828 12.8205 14.2828 12.3519 14.7514C11.8832 15.2201 11.8832 15.9799 12.3519 16.4485L15.9519 20.0485C16.1769 20.2735 16.4821 20.4 16.8004 20.4C17.1187 20.4 17.4239 20.2735 17.6489 20.0485L21.2489 16.4485C21.7175 15.9799 21.7175 15.2201 21.2489 14.7514C20.7803 14.2828 20.0205 14.2828 19.5519 14.7514L18.0004 16.3029L18.0004 9.59998Z" fill="#00142E"/>
<path d="M18.0004 9.59998C18.0004 8.93723 17.4631 8.39998 16.8004 8.39998C16.1377 8.39998 15.6004 8.93723 15.6004 9.59998L15.6004 16.3029L14.0489 14.7514C13.5803 14.2828 12.8205 14.2828 12.3519 14.7514C11.8832 15.2201 11.8832 15.9799 12.3519 16.4485L15.9519 20.0485C16.1769 20.2735 16.4821 20.4 16.8004 20.4C17.1187 20.4 17.4239 20.2735 17.6489 20.0485L21.2489 16.4485C21.7175 15.9799 21.7175 15.2201 21.2489 14.7514C20.7803 14.2828 20.0205 14.2828 19.5519 14.7514L18.0004 16.3029L18.0004 9.59998Z" fill="black" fill-opacity="0.2"/>
</svg>
