<svg width="24" height="24" viewBox="0 0 24 24" fill="none" xmlns="http://www.w3.org/2000/svg">
<path fill-rule="evenodd" clip-rule="evenodd" d="M6.00039 2.40002C6.66313 2.40002 7.20039 2.93728 7.20039 3.60002V4.80002H8.40039C9.06313 4.80002 9.60039 5.33728 9.60039 6.00002C9.60039 6.66277 9.06313 7.20002 8.40039 7.20002H7.20039V8.40002C7.20039 9.06277 6.66313 9.60002 6.00039 9.60002C5.33765 9.60002 4.80039 9.06277 4.80039 8.40002V7.20002H3.60039C2.93765 7.20002 2.40039 6.66277 2.40039 6.00002C2.40039 5.33728 2.93765 4.80002 3.60039 4.80002H4.80039V3.60002C4.80039 2.93728 5.33765 2.40002 6.00039 2.40002ZM6.00039 14.4C6.66313 14.4 7.20039 14.9373 7.20039 15.6V16.8H8.40039C9.06313 16.8 9.60039 17.3373 9.60039 18C9.60039 18.6628 9.06313 19.2 8.40039 19.2H7.20039V20.4C7.20039 21.0628 6.66313 21.6 6.00039 21.6C5.33765 21.6 4.80039 21.0628 4.80039 20.4V19.2H3.60039C2.93765 19.2 2.40039 18.6628 2.40039 18C2.40039 17.3373 2.93765 16.8 3.60039 16.8H4.80039V15.6C4.80039 14.9373 5.33765 14.4 6.00039 14.4Z" fill="#00142E"/>
<path fill-rule="evenodd" clip-rule="evenodd" d="M6.00039 2.40002C6.66313 2.40002 7.20039 2.93728 7.20039 3.60002V4.80002H8.40039C9.06313 4.80002 9.60039 5.33728 9.60039 6.00002C9.60039 6.66277 9.06313 7.20002 8.40039 7.20002H7.20039V8.40002C7.20039 9.06277 6.66313 9.60002 6.00039 9.60002C5.33765 9.60002 4.80039 9.06277 4.80039 8.40002V7.20002H3.60039C2.93765 7.20002 2.40039 6.66277 2.40039 6.00002C2.40039 5.33728 2.93765 4.80002 3.60039 4.80002H4.80039V3.60002C4.80039 2.93728 5.33765 2.40002 6.00039 2.40002ZM6.00039 14.4C6.66313 14.4 7.20039 14.9373 7.20039 15.6V16.8H8.40039C9.06313 16.8 9.60039 17.3373 9.60039 18C9.60039 18.6628 9.06313 19.2 8.40039 19.2H7.20039V20.4C7.20039 21.0628 6.66313 21.6 6.00039 21.6C5.33765 21.6 4.80039 21.0628 4.80039 20.4V19.2H3.60039C2.93765 19.2 2.40039 18.6628 2.40039 18C2.40039 17.3373 2.93765 16.8 3.60039 16.8H4.80039V15.6C4.80039 14.9373 5.33765 14.4 6.00039 14.4Z" fill="black" fill-opacity="0.2"/>
<path fill-rule="evenodd" clip-rule="evenodd" d="M14.4003 2.40002C14.9448 2.40002 15.421 2.7666 15.5604 3.29295L16.9754 8.63874L21 10.9606C21.3715 11.1749 21.6003 11.5712 21.6003 12C21.6003 12.4289 21.3715 12.8251 21 13.0394L16.9754 15.3613L15.5604 20.7071C15.421 21.2334 14.9448 21.6 14.4003 21.6C13.8558 21.6 13.3796 21.2334 13.2403 20.7071L11.8252 15.3613L7.80072 13.0394C7.42925 12.8251 7.20039 12.4289 7.20039 12C7.20039 11.5712 7.42925 11.1749 7.80072 10.9606L11.8252 8.63874L13.2403 3.29295C13.3796 2.7666 13.8558 2.40002 14.4003 2.40002Z" fill="#00142E"/>
<path fill-rule="evenodd" clip-rule="evenodd" d="M14.4003 2.40002C14.9448 2.40002 15.421 2.7666 15.5604 3.29295L16.9754 8.63874L21 10.9606C21.3715 11.1749 21.6003 11.5712 21.6003 12C21.6003 12.4289 21.3715 12.8251 21 13.0394L16.9754 15.3613L15.5604 20.7071C15.421 21.2334 14.9448 21.6 14.4003 21.6C13.8558 21.6 13.3796 21.2334 13.2403 20.7071L11.8252 15.3613L7.80072 13.0394C7.42925 12.8251 7.20039 12.4289 7.20039 12C7.20039 11.5712 7.42925 11.1749 7.80072 10.9606L11.8252 8.63874L13.2403 3.29295C13.3796 2.7666 13.8558 2.40002 14.4003 2.40002Z" fill="black" fill-opacity="0.2"/>
</svg>
