<svg width="24" height="24" viewBox="0 0 24 24" fill="none" xmlns="http://www.w3.org/2000/svg">
<path d="M21.6004 3.60003C21.6004 3.18413 21.385 2.79789 21.0313 2.57924C20.6775 2.3606 20.2357 2.34072 19.8637 2.52671L10.5171 7.20003H6.00039C4.01217 7.20003 2.40039 8.8118 2.40039 10.8C2.40039 12.7883 4.01217 14.4 6.00039 14.4H6.33549L8.46198 20.7795C8.62532 21.2695 9.08388 21.6 9.6004 21.6H10.8004C11.4631 21.6 12.0004 21.0628 12.0004 20.4V15.1417L19.8637 19.0733C20.2357 19.2593 20.6775 19.2395 21.0313 19.0208C21.385 18.8022 21.6004 18.4159 21.6004 18V3.60003Z" fill="#00142E"/>
<path d="M21.6004 3.60003C21.6004 3.18413 21.385 2.79789 21.0313 2.57924C20.6775 2.3606 20.2357 2.34072 19.8637 2.52671L10.5171 7.20003H6.00039C4.01217 7.20003 2.40039 8.8118 2.40039 10.8C2.40039 12.7883 4.01217 14.4 6.00039 14.4H6.33549L8.46198 20.7795C8.62532 21.2695 9.08388 21.6 9.6004 21.6H10.8004C11.4631 21.6 12.0004 21.0628 12.0004 20.4V15.1417L19.8637 19.0733C20.2357 19.2593 20.6775 19.2395 21.0313 19.0208C21.385 18.8022 21.6004 18.4159 21.6004 18V3.60003Z" fill="black" fill-opacity="0.2"/>
</svg>
