<svg width="24" height="24" viewBox="0 0 24 24" fill="none" xmlns="http://www.w3.org/2000/svg">
<path d="M4.44843 2.7515C3.9798 2.28287 3.22 2.28287 2.75137 2.7515C2.28275 3.22013 2.28275 3.97992 2.75137 4.44855L11.057 12.7542C11.1158 12.8288 11.1833 12.8962 11.2579 12.955L19.5514 21.2486C20.02 21.7172 20.7798 21.7172 21.2484 21.2486C21.7171 20.7799 21.7171 20.0201 21.2484 19.5515L20.4387 18.7417C23.835 14.5013 23.5677 8.29414 19.6368 4.36326C19.1682 3.89463 18.4084 3.89463 17.9397 4.36326C17.4711 4.83189 17.4711 5.59169 17.9397 6.06032C20.9321 9.05266 21.1949 13.7409 18.7281 17.0311L17.0063 15.3094C18.5498 12.9797 18.2953 9.80996 16.2427 7.75738C15.7741 7.28875 15.0143 7.28875 14.5456 7.75738C14.077 8.22601 14.077 8.9858 14.5456 9.45443C15.654 10.5628 15.8886 12.2142 15.2493 13.5523L12.8596 11.1627C12.8523 11.1552 12.8449 11.1478 12.8374 11.1405L4.44843 2.7515Z" fill="#00142E"/>
<path d="M4.44843 2.7515C3.9798 2.28287 3.22 2.28287 2.75137 2.7515C2.28275 3.22013 2.28275 3.97992 2.75137 4.44855L11.057 12.7542C11.1158 12.8288 11.1833 12.8962 11.2579 12.955L19.5514 21.2486C20.02 21.7172 20.7798 21.7172 21.2484 21.2486C21.7171 20.7799 21.7171 20.0201 21.2484 19.5515L20.4387 18.7417C23.835 14.5013 23.5677 8.29414 19.6368 4.36326C19.1682 3.89463 18.4084 3.89463 17.9397 4.36326C17.4711 4.83189 17.4711 5.59169 17.9397 6.06032C20.9321 9.05266 21.1949 13.7409 18.7281 17.0311L17.0063 15.3094C18.5498 12.9797 18.2953 9.80996 16.2427 7.75738C15.7741 7.28875 15.0143 7.28875 14.5456 7.75738C14.077 8.22601 14.077 8.9858 14.5456 9.45443C15.654 10.5628 15.8886 12.2142 15.2493 13.5523L12.8596 11.1627C12.8523 11.1552 12.8449 11.1478 12.8374 11.1405L4.44843 2.7515Z" fill="black" fill-opacity="0.2"/>
<path d="M3.88509 9.82383C4.05605 9.18351 3.67556 8.52585 3.03525 8.35489C2.39494 8.18393 1.73728 8.56442 1.56632 9.20473C0.605302 12.8042 1.53569 16.8089 4.36328 19.6365C4.83191 20.1051 5.59171 20.1051 6.06034 19.6365C6.52897 19.1679 6.52897 18.4081 6.06034 17.9394C3.863 15.7421 3.13598 12.6296 3.88509 9.82383Z" fill="#00142E"/>
<path d="M3.88509 9.82383C4.05605 9.18351 3.67556 8.52585 3.03525 8.35489C2.39494 8.18393 1.73728 8.56442 1.56632 9.20473C0.605302 12.8042 1.53569 16.8089 4.36328 19.6365C4.83191 20.1051 5.59171 20.1051 6.06034 19.6365C6.52897 19.1679 6.52897 18.4081 6.06034 17.9394C3.863 15.7421 3.13598 12.6296 3.88509 9.82383Z" fill="black" fill-opacity="0.2"/>
<path d="M8.88081 13.7994C8.54912 13.2257 7.8151 13.0294 7.24133 13.3611C6.66756 13.6928 6.47132 14.4268 6.80301 15.0006C7.0603 15.4457 7.37878 15.8638 7.7574 16.2424C8.22603 16.711 8.98583 16.711 9.45446 16.2424C9.92309 15.7738 9.92309 15.014 9.45446 14.5453C9.22515 14.316 9.03429 14.0649 8.88081 13.7994Z" fill="#00142E"/>
<path d="M8.88081 13.7994C8.54912 13.2257 7.8151 13.0294 7.24133 13.3611C6.66756 13.6928 6.47132 14.4268 6.80301 15.0006C7.0603 15.4457 7.37878 15.8638 7.7574 16.2424C8.22603 16.711 8.98583 16.711 9.45446 16.2424C9.92309 15.7738 9.92309 15.014 9.45446 14.5453C9.22515 14.316 9.03429 14.0649 8.88081 13.7994Z" fill="black" fill-opacity="0.2"/>
</svg>
