<svg width="24" height="24" viewBox="0 0 24 24" fill="none" xmlns="http://www.w3.org/2000/svg">
<path fill-rule="evenodd" clip-rule="evenodd" d="M6.0605 4.36295C6.52913 4.83158 6.52913 5.59137 6.0605 6.06C2.78009 9.34041 2.78009 14.659 6.0605 17.9394C6.52913 18.408 6.52913 19.1678 6.0605 19.6365C5.59187 20.1051 4.83207 20.1051 4.36344 19.6365C0.14578 15.4188 0.14578 8.58061 4.36344 4.36295C4.83207 3.89432 5.59187 3.89432 6.0605 4.36295ZM17.9399 4.36323C18.4085 3.8946 19.1683 3.8946 19.637 4.36323C23.8546 8.58089 23.8546 15.4191 19.637 19.6367C19.1683 20.1054 18.4085 20.1054 17.9399 19.6367C17.4713 19.1681 17.4713 18.4083 17.9399 17.9397C21.2203 14.6593 21.2203 9.34069 17.9399 6.06028C17.4713 5.59165 17.4713 4.83185 17.9399 4.36323ZM9.45462 7.75706C9.92325 8.22569 9.92325 8.98549 9.45462 9.45412C8.04873 10.86 8.04873 13.1394 9.45462 14.5453C9.92325 15.0139 9.92325 15.7737 9.45462 16.2423C8.98599 16.711 8.22619 16.711 7.75756 16.2423C5.41442 13.8992 5.41442 10.1002 7.75756 7.75706C8.22619 7.28843 8.98599 7.28843 9.45462 7.75706ZM14.5458 7.75734C15.0144 7.28871 15.7742 7.28871 16.2428 7.75734C18.586 10.1005 18.586 13.8995 16.2428 16.2426C15.7742 16.7112 15.0144 16.7112 14.5458 16.2426C14.0772 15.774 14.0772 15.0142 14.5458 14.5456C15.9517 13.1397 15.9517 10.8603 14.5458 9.45439C14.0772 8.98576 14.0772 8.22597 14.5458 7.75734ZM12.0002 10.8C12.6629 10.8 13.2002 11.3372 13.2002 12V12.012C13.2002 12.6747 12.6629 13.212 12.0002 13.212C11.3375 13.212 10.8002 12.6747 10.8002 12.012V12C10.8002 11.3372 11.3375 10.8 12.0002 10.8Z" fill="#00142E"/>
<path fill-rule="evenodd" clip-rule="evenodd" d="M6.0605 4.36295C6.52913 4.83158 6.52913 5.59137 6.0605 6.06C2.78009 9.34041 2.78009 14.659 6.0605 17.9394C6.52913 18.408 6.52913 19.1678 6.0605 19.6365C5.59187 20.1051 4.83207 20.1051 4.36344 19.6365C0.14578 15.4188 0.14578 8.58061 4.36344 4.36295C4.83207 3.89432 5.59187 3.89432 6.0605 4.36295ZM17.9399 4.36323C18.4085 3.8946 19.1683 3.8946 19.637 4.36323C23.8546 8.58089 23.8546 15.4191 19.637 19.6367C19.1683 20.1054 18.4085 20.1054 17.9399 19.6367C17.4713 19.1681 17.4713 18.4083 17.9399 17.9397C21.2203 14.6593 21.2203 9.34069 17.9399 6.06028C17.4713 5.59165 17.4713 4.83185 17.9399 4.36323ZM9.45462 7.75706C9.92325 8.22569 9.92325 8.98549 9.45462 9.45412C8.04873 10.86 8.04873 13.1394 9.45462 14.5453C9.92325 15.0139 9.92325 15.7737 9.45462 16.2423C8.98599 16.711 8.22619 16.711 7.75756 16.2423C5.41442 13.8992 5.41442 10.1002 7.75756 7.75706C8.22619 7.28843 8.98599 7.28843 9.45462 7.75706ZM14.5458 7.75734C15.0144 7.28871 15.7742 7.28871 16.2428 7.75734C18.586 10.1005 18.586 13.8995 16.2428 16.2426C15.7742 16.7112 15.0144 16.7112 14.5458 16.2426C14.0772 15.774 14.0772 15.0142 14.5458 14.5456C15.9517 13.1397 15.9517 10.8603 14.5458 9.45439C14.0772 8.98576 14.0772 8.22597 14.5458 7.75734ZM12.0002 10.8C12.6629 10.8 13.2002 11.3372 13.2002 12V12.012C13.2002 12.6747 12.6629 13.212 12.0002 13.212C11.3375 13.212 10.8002 12.6747 10.8002 12.012V12C10.8002 11.3372 11.3375 10.8 12.0002 10.8Z" fill="black" fill-opacity="0.2"/>
</svg>
