<svg width="24" height="24" viewBox="0 0 24 24" fill="none" xmlns="http://www.w3.org/2000/svg">
<path fill-rule="evenodd" clip-rule="evenodd" d="M12.0004 21.6C17.3023 21.6 21.6004 17.302 21.6004 12C21.6004 6.69809 17.3023 2.40002 12.0004 2.40002C6.69846 2.40002 2.40039 6.69809 2.40039 12C2.40039 17.302 6.69846 21.6 12.0004 21.6ZM9.60039 8.40002C8.93765 8.40002 8.40039 8.93728 8.40039 9.60002V14.4C8.40039 15.0628 8.93765 15.6 9.60039 15.6H14.4004C15.0631 15.6 15.6004 15.0628 15.6004 14.4V9.60002C15.6004 8.93728 15.0631 8.40002 14.4004 8.40002H9.60039Z" fill="#00142E"/>
<path fill-rule="evenodd" clip-rule="evenodd" d="M12.0004 21.6C17.3023 21.6 21.6004 17.302 21.6004 12C21.6004 6.69809 17.3023 2.40002 12.0004 2.40002C6.69846 2.40002 2.40039 6.69809 2.40039 12C2.40039 17.302 6.69846 21.6 12.0004 21.6ZM9.60039 8.40002C8.93765 8.40002 8.40039 8.93728 8.40039 9.60002V14.4C8.40039 15.0628 8.93765 15.6 9.60039 15.6H14.4004C15.0631 15.6 15.6004 15.0628 15.6004 14.4V9.60002C15.6004 8.93728 15.0631 8.40002 14.4004 8.40002H9.60039Z" fill="black" fill-opacity="0.2"/>
</svg>
