<svg width="24" height="24" viewBox="0 0 24 24" fill="none" xmlns="http://www.w3.org/2000/svg">
<path d="M12.0004 2.40002C12.6631 2.40002 13.2004 2.93728 13.2004 3.60002V4.80002C13.2004 5.46277 12.6631 6.00002 12.0004 6.00002C11.3376 6.00002 10.8004 5.46277 10.8004 4.80002V3.60002C10.8004 2.93728 11.3376 2.40002 12.0004 2.40002Z" fill="#00142E"/>
<path d="M12.0004 2.40002C12.6631 2.40002 13.2004 2.93728 13.2004 3.60002V4.80002C13.2004 5.46277 12.6631 6.00002 12.0004 6.00002C11.3376 6.00002 10.8004 5.46277 10.8004 4.80002V3.60002C10.8004 2.93728 11.3376 2.40002 12.0004 2.40002Z" fill="black" fill-opacity="0.2"/>
<path d="M16.8004 12C16.8004 14.651 14.6514 16.8 12.0004 16.8C9.34942 16.8 7.20039 14.651 7.20039 12C7.20039 9.34906 9.34942 7.20002 12.0004 7.20002C14.6514 7.20002 16.8004 9.34906 16.8004 12Z" fill="#00142E"/>
<path d="M16.8004 12C16.8004 14.651 14.6514 16.8 12.0004 16.8C9.34942 16.8 7.20039 14.651 7.20039 12C7.20039 9.34906 9.34942 7.20002 12.0004 7.20002C14.6514 7.20002 16.8004 9.34906 16.8004 12Z" fill="black" fill-opacity="0.2"/>
<path d="M16.2431 17.9397L17.0916 18.7882C17.5603 19.2568 18.32 19.2568 18.7887 18.7882C19.2573 18.3196 19.2573 17.5598 18.7887 17.0911L17.9402 16.2426C17.4715 15.774 16.7117 15.774 16.2431 16.2426C15.7745 16.7112 15.7745 17.471 16.2431 17.9397Z" fill="#00142E"/>
<path d="M16.2431 17.9397L17.0916 18.7882C17.5603 19.2568 18.32 19.2568 18.7887 18.7882C19.2573 18.3196 19.2573 17.5598 18.7887 17.0911L17.9402 16.2426C17.4715 15.774 16.7117 15.774 16.2431 16.2426C15.7745 16.7112 15.7745 17.471 16.2431 17.9397Z" fill="black" fill-opacity="0.2"/>
<path d="M18.7886 5.21174C19.2572 5.68037 19.2572 6.44016 18.7886 6.90879L17.94 7.75732C17.4714 8.22595 16.7116 8.22595 16.243 7.75732C15.7744 7.28869 15.7744 6.52889 16.243 6.06026L17.0915 5.21174C17.5601 4.74311 18.3199 4.74311 18.7886 5.21174Z" fill="#00142E"/>
<path d="M18.7886 5.21174C19.2572 5.68037 19.2572 6.44016 18.7886 6.90879L17.94 7.75732C17.4714 8.22595 16.7116 8.22595 16.243 7.75732C15.7744 7.28869 15.7744 6.52889 16.243 6.06026L17.0915 5.21174C17.5601 4.74311 18.3199 4.74311 18.7886 5.21174Z" fill="black" fill-opacity="0.2"/>
<path d="M20.4004 13.2C21.0631 13.2 21.6004 12.6628 21.6004 12C21.6004 11.3373 21.0631 10.8 20.4004 10.8H19.2004C18.5377 10.8 18.0004 11.3373 18.0004 12C18.0004 12.6628 18.5376 13.2 19.2004 13.2H20.4004Z" fill="#00142E"/>
<path d="M20.4004 13.2C21.0631 13.2 21.6004 12.6628 21.6004 12C21.6004 11.3373 21.0631 10.8 20.4004 10.8H19.2004C18.5377 10.8 18.0004 11.3373 18.0004 12C18.0004 12.6628 18.5376 13.2 19.2004 13.2H20.4004Z" fill="black" fill-opacity="0.2"/>
<path d="M12.0004 18C12.6631 18 13.2004 18.5373 13.2004 19.2V20.4C13.2004 21.0628 12.6631 21.6 12.0004 21.6C11.3376 21.6 10.8004 21.0628 10.8004 20.4V19.2C10.8004 18.5373 11.3376 18 12.0004 18Z" fill="#00142E"/>
<path d="M12.0004 18C12.6631 18 13.2004 18.5373 13.2004 19.2V20.4C13.2004 21.0628 12.6631 21.6 12.0004 21.6C11.3376 21.6 10.8004 21.0628 10.8004 20.4V19.2C10.8004 18.5373 11.3376 18 12.0004 18Z" fill="black" fill-opacity="0.2"/>
<path d="M6.06076 7.75734C6.52939 8.22597 7.28919 8.22597 7.75782 7.75734C8.22645 7.28871 8.22645 6.52891 7.75782 6.06029L6.90929 5.21176C6.44066 4.74313 5.68086 4.74313 5.21224 5.21176C4.74361 5.68039 4.74361 6.44018 5.21224 6.90881L6.06076 7.75734Z" fill="#00142E"/>
<path d="M6.06076 7.75734C6.52939 8.22597 7.28919 8.22597 7.75782 7.75734C8.22645 7.28871 8.22645 6.52891 7.75782 6.06029L6.90929 5.21176C6.44066 4.74313 5.68086 4.74313 5.21224 5.21176C4.74361 5.68039 4.74361 6.44018 5.21224 6.90881L6.06076 7.75734Z" fill="black" fill-opacity="0.2"/>
<path d="M7.75771 17.9397L6.90918 18.7882C6.44055 19.2568 5.68075 19.2568 5.21212 18.7882C4.74349 18.3196 4.74349 17.5598 5.21212 17.0911L6.06065 16.2426C6.52928 15.774 7.28908 15.774 7.75771 16.2426C8.22634 16.7112 8.22634 17.471 7.75771 17.9397Z" fill="#00142E"/>
<path d="M7.75771 17.9397L6.90918 18.7882C6.44055 19.2568 5.68075 19.2568 5.21212 18.7882C4.74349 18.3196 4.74349 17.5598 5.21212 17.0911L6.06065 16.2426C6.52928 15.774 7.28908 15.774 7.75771 16.2426C8.22634 16.7112 8.22634 17.471 7.75771 17.9397Z" fill="black" fill-opacity="0.2"/>
<path d="M4.80039 13.2C5.46313 13.2 6.00039 12.6628 6.00039 12C6.00039 11.3373 5.46313 10.8 4.80039 10.8H3.60039C2.93765 10.8 2.40039 11.3373 2.40039 12C2.40039 12.6628 2.93765 13.2 3.60039 13.2H4.80039Z" fill="#00142E"/>
<path d="M4.80039 13.2C5.46313 13.2 6.00039 12.6628 6.00039 12C6.00039 11.3373 5.46313 10.8 4.80039 10.8H3.60039C2.93765 10.8 2.40039 11.3373 2.40039 12C2.40039 12.6628 2.93765 13.2 3.60039 13.2H4.80039Z" fill="black" fill-opacity="0.2"/>
</svg>
