<svg width="24" height="24" viewBox="0 0 24 24" fill="none" xmlns="http://www.w3.org/2000/svg">
<path fill-rule="evenodd" clip-rule="evenodd" d="M21.6004 12C21.6004 17.302 17.3023 21.6 12.0004 21.6C6.69846 21.6 2.40039 17.302 2.40039 12C2.40039 6.69809 6.69846 2.40002 12.0004 2.40002C17.3023 2.40002 21.6004 6.69809 21.6004 12ZM19.2004 12C19.2004 13.1912 18.9111 14.3147 18.3991 15.3044L16.5696 13.4749C16.7194 13.0102 16.8004 12.5146 16.8004 12C16.8004 11.6057 16.7528 11.2224 16.6631 10.8557L18.5385 8.98034C18.9633 9.89869 19.2004 10.9217 19.2004 12ZM13.0019 16.6954L14.8992 18.5927C14.0123 18.9832 13.0317 19.2 12.0004 19.2C10.922 19.2 9.89905 18.963 8.98071 18.5381L10.856 16.6628C11.2228 16.7525 11.606 16.8 12.0004 16.8C12.3438 16.8 12.6789 16.764 13.0019 16.6954ZM7.39007 13.3405C7.26659 12.9151 7.20039 12.4653 7.20039 12C7.20039 11.6017 7.24891 11.2147 7.34035 10.8447L7.24576 10.9393L5.40773 9.10125C5.0172 9.98814 4.80039 10.9688 4.80039 12C4.80039 13.1447 5.06749 14.2269 5.54276 15.1878L7.39007 13.3405ZM8.69606 5.60136C9.68567 5.08927 10.8093 4.80002 12.0004 4.80002C13.145 4.80002 14.2273 5.06712 15.1882 5.54239L13.3409 7.38971C12.9155 7.26622 12.4657 7.20002 12.0004 7.20002C11.4859 7.20002 10.9902 7.28098 10.5256 7.43086L8.69606 5.60136ZM14.4004 12C14.4004 13.3255 13.3259 14.4 12.0004 14.4C10.6749 14.4 9.60039 13.3255 9.60039 12C9.60039 10.6745 10.6749 9.60002 12.0004 9.60002C13.3259 9.60002 14.4004 10.6745 14.4004 12Z" fill="#00142E"/>
<path fill-rule="evenodd" clip-rule="evenodd" d="M21.6004 12C21.6004 17.302 17.3023 21.6 12.0004 21.6C6.69846 21.6 2.40039 17.302 2.40039 12C2.40039 6.69809 6.69846 2.40002 12.0004 2.40002C17.3023 2.40002 21.6004 6.69809 21.6004 12ZM19.2004 12C19.2004 13.1912 18.9111 14.3147 18.3991 15.3044L16.5696 13.4749C16.7194 13.0102 16.8004 12.5146 16.8004 12C16.8004 11.6057 16.7528 11.2224 16.6631 10.8557L18.5385 8.98034C18.9633 9.89869 19.2004 10.9217 19.2004 12ZM13.0019 16.6954L14.8992 18.5927C14.0123 18.9832 13.0317 19.2 12.0004 19.2C10.922 19.2 9.89905 18.963 8.98071 18.5381L10.856 16.6628C11.2228 16.7525 11.606 16.8 12.0004 16.8C12.3438 16.8 12.6789 16.764 13.0019 16.6954ZM7.39007 13.3405C7.26659 12.9151 7.20039 12.4653 7.20039 12C7.20039 11.6017 7.24891 11.2147 7.34035 10.8447L7.24576 10.9393L5.40773 9.10125C5.0172 9.98814 4.80039 10.9688 4.80039 12C4.80039 13.1447 5.06749 14.2269 5.54276 15.1878L7.39007 13.3405ZM8.69606 5.60136C9.68567 5.08927 10.8093 4.80002 12.0004 4.80002C13.145 4.80002 14.2273 5.06712 15.1882 5.54239L13.3409 7.38971C12.9155 7.26622 12.4657 7.20002 12.0004 7.20002C11.4859 7.20002 10.9902 7.28098 10.5256 7.43086L8.69606 5.60136ZM14.4004 12C14.4004 13.3255 13.3259 14.4 12.0004 14.4C10.6749 14.4 9.60039 13.3255 9.60039 12C9.60039 10.6745 10.6749 9.60002 12.0004 9.60002C13.3259 9.60002 14.4004 10.6745 14.4004 12Z" fill="black" fill-opacity="0.2"/>
</svg>
