<svg width="24" height="24" viewBox="0 0 24 24" fill="none" xmlns="http://www.w3.org/2000/svg">
<path d="M9.59961 6.00002C8.93687 6.00002 8.39961 6.53728 8.39961 7.20002C8.39961 7.86276 8.93687 8.40002 9.59961 8.40002L16.3026 8.40002L14.7511 9.9515C14.2825 10.4201 14.2825 11.1799 14.7511 11.6486C15.2197 12.1172 15.9795 12.1172 16.4481 11.6486L20.0481 8.04855C20.2732 7.82351 20.3996 7.51829 20.3996 7.20003C20.3996 6.88177 20.2732 6.57654 20.0481 6.3515L16.4481 2.7515C15.9795 2.28287 15.2197 2.28287 14.7511 2.7515C14.2825 3.22012 14.2825 3.97992 14.7511 4.44855L16.3026 6.00002L9.59961 6.00002Z" fill="#00142E"/>
<path d="M9.59961 6.00002C8.93687 6.00002 8.39961 6.53728 8.39961 7.20002C8.39961 7.86276 8.93687 8.40002 9.59961 8.40002L16.3026 8.40002L14.7511 9.9515C14.2825 10.4201 14.2825 11.1799 14.7511 11.6486C15.2197 12.1172 15.9795 12.1172 16.4481 11.6486L20.0481 8.04855C20.2732 7.82351 20.3996 7.51829 20.3996 7.20003C20.3996 6.88177 20.2732 6.57654 20.0481 6.3515L16.4481 2.7515C15.9795 2.28287 15.2197 2.28287 14.7511 2.7515C14.2825 3.22012 14.2825 3.97992 14.7511 4.44855L16.3026 6.00002L9.59961 6.00002Z" fill="black" fill-opacity="0.2"/>
<path d="M14.3996 18C15.0623 18 15.5996 17.4628 15.5996 16.8C15.5996 16.1373 15.0624 15.6 14.3996 15.6L7.69666 15.6L9.24814 14.0486C9.71677 13.5799 9.71677 12.8201 9.24814 12.3515C8.77951 11.8829 8.01971 11.8829 7.55108 12.3515L3.95108 15.9515C3.72604 16.1765 3.59961 16.4818 3.59961 16.8C3.59961 17.1183 3.72604 17.4235 3.95108 17.6486L7.55108 21.2486C8.01971 21.7172 8.77951 21.7172 9.24814 21.2486C9.71677 20.7799 9.71677 20.0201 9.24814 19.5515L7.69666 18L14.3996 18Z" fill="#00142E"/>
<path d="M14.3996 18C15.0623 18 15.5996 17.4628 15.5996 16.8C15.5996 16.1373 15.0624 15.6 14.3996 15.6L7.69666 15.6L9.24814 14.0486C9.71677 13.5799 9.71677 12.8201 9.24814 12.3515C8.77951 11.8829 8.01971 11.8829 7.55108 12.3515L3.95108 15.9515C3.72604 16.1765 3.59961 16.4818 3.59961 16.8C3.59961 17.1183 3.72604 17.4235 3.95108 17.6486L7.55108 21.2486C8.01971 21.7172 8.77951 21.7172 9.24814 21.2486C9.71677 20.7799 9.71677 20.0201 9.24814 19.5515L7.69666 18L14.3996 18Z" fill="black" fill-opacity="0.2"/>
</svg>
