<svg width="24" height="24" viewBox="0 0 24 24" fill="none" xmlns="http://www.w3.org/2000/svg">
<path d="M6.00039 14.4C6.00039 15.0627 6.53765 15.6 7.20039 15.6C7.86313 15.6 8.40039 15.0627 8.40039 14.4L8.40039 7.69703L9.95186 9.2485C10.4205 9.71713 11.1803 9.71713 11.6489 9.2485C12.1175 8.77988 12.1175 8.02008 11.6489 7.55145L8.04892 3.95145C7.82388 3.7264 7.51865 3.59998 7.20039 3.59998C6.88213 3.59998 6.57691 3.7264 6.35186 3.95145L2.75186 7.55145C2.28323 8.02008 2.28323 8.77987 2.75186 9.2485C3.22049 9.71713 3.98029 9.71713 4.44892 9.2485L6.00039 7.69703L6.00039 14.4Z" fill="#00142E"/>
<path d="M6.00039 14.4C6.00039 15.0627 6.53765 15.6 7.20039 15.6C7.86313 15.6 8.40039 15.0627 8.40039 14.4L8.40039 7.69703L9.95186 9.2485C10.4205 9.71713 11.1803 9.71713 11.6489 9.2485C12.1175 8.77988 12.1175 8.02008 11.6489 7.55145L8.04892 3.95145C7.82388 3.7264 7.51865 3.59998 7.20039 3.59998C6.88213 3.59998 6.57691 3.7264 6.35186 3.95145L2.75186 7.55145C2.28323 8.02008 2.28323 8.77987 2.75186 9.2485C3.22049 9.71713 3.98029 9.71713 4.44892 9.2485L6.00039 7.69703L6.00039 14.4Z" fill="black" fill-opacity="0.2"/>
<path d="M18.0004 9.59998C18.0004 8.93723 17.4631 8.39998 16.8004 8.39998C16.1377 8.39998 15.6004 8.93723 15.6004 9.59998L15.6004 16.3029L14.0489 14.7514C13.5803 14.2828 12.8205 14.2828 12.3519 14.7514C11.8832 15.2201 11.8832 15.9799 12.3519 16.4485L15.9519 20.0485C16.1769 20.2735 16.4821 20.4 16.8004 20.4C17.1187 20.4 17.4239 20.2735 17.6489 20.0485L21.2489 16.4485C21.7175 15.9799 21.7175 15.2201 21.2489 14.7514C20.7803 14.2828 20.0205 14.2828 19.5519 14.7514L18.0004 16.3029L18.0004 9.59998Z" fill="#00142E"/>
<path d="M18.0004 9.59998C18.0004 8.93723 17.4631 8.39998 16.8004 8.39998C16.1377 8.39998 15.6004 8.93723 15.6004 9.59998L15.6004 16.3029L14.0489 14.7514C13.5803 14.2828 12.8205 14.2828 12.3519 14.7514C11.8832 15.2201 11.8832 15.9799 12.3519 16.4485L15.9519 20.0485C16.1769 20.2735 16.4821 20.4 16.8004 20.4C17.1187 20.4 17.4239 20.2735 17.6489 20.0485L21.2489 16.4485C21.7175 15.9799 21.7175 15.2201 21.2489 14.7514C20.7803 14.2828 20.0205 14.2828 19.5519 14.7514L18.0004 16.3029L18.0004 9.59998Z" fill="black" fill-opacity="0.2"/>
</svg>
