<svg width="24" height="24" viewBox="0 0 24 24" fill="none" xmlns="http://www.w3.org/2000/svg">
<path fill-rule="evenodd" clip-rule="evenodd" d="M7.1998 2.40002C5.87432 2.40002 4.7998 3.47454 4.7998 4.80002V19.2C4.7998 20.5255 5.87432 21.6 7.19981 21.6H16.7998C18.1253 21.6 19.1998 20.5255 19.1998 19.2V4.80002C19.1998 3.47454 18.1253 2.40002 16.7998 2.40002H7.1998ZM8.3998 4.80002C7.73706 4.80002 7.1998 5.33728 7.1998 6.00002C7.1998 6.66277 7.73706 7.20002 8.3998 7.20002H15.5998C16.2625 7.20002 16.7998 6.66277 16.7998 6.00002C16.7998 5.33728 16.2625 4.80002 15.5998 4.80002H8.3998ZM15.5998 13.2C16.2625 13.2 16.7998 13.7373 16.7998 14.4V18C16.7998 18.6628 16.2625 19.2 15.5998 19.2C14.9371 19.2 14.3998 18.6628 14.3998 18V14.4C14.3998 13.7373 14.9371 13.2 15.5998 13.2ZM11.9998 16.8C11.3371 16.8 10.7998 17.3373 10.7998 18C10.7998 18.6628 11.3371 19.2 11.9998 19.2H12.0118C12.6745 19.2 13.2118 18.6628 13.2118 18C13.2118 17.3373 12.6745 16.8 12.0118 16.8H11.9998ZM7.1998 18C7.1998 17.3373 7.73706 16.8 8.3998 16.8H8.41181C9.07455 16.8 9.61181 17.3373 9.61181 18C9.61181 18.6628 9.07455 19.2 8.41181 19.2H8.3998C7.73706 19.2 7.1998 18.6628 7.1998 18ZM8.3998 13.2C7.73706 13.2 7.1998 13.7373 7.1998 14.4C7.1998 15.0628 7.73706 15.6 8.3998 15.6H8.41181C9.07455 15.6 9.61181 15.0628 9.61181 14.4C9.61181 13.7373 9.07455 13.2 8.41181 13.2H8.3998ZM10.7998 14.4C10.7998 13.7373 11.3371 13.2 11.9998 13.2H12.0118C12.6745 13.2 13.2118 13.7373 13.2118 14.4C13.2118 15.0628 12.6745 15.6 12.0118 15.6H11.9998C11.3371 15.6 10.7998 15.0628 10.7998 14.4ZM15.5998 9.60002C14.9371 9.60002 14.3998 10.1373 14.3998 10.8C14.3998 11.4628 14.9371 12 15.5998 12H15.6118C16.2745 12 16.8118 11.4628 16.8118 10.8C16.8118 10.1373 16.2745 9.60002 15.6118 9.60002H15.5998ZM10.7998 10.8C10.7998 10.1373 11.3371 9.60002 11.9998 9.60002H12.0118C12.6745 9.60002 13.2118 10.1373 13.2118 10.8C13.2118 11.4628 12.6745 12 12.0118 12H11.9998C11.3371 12 10.7998 11.4628 10.7998 10.8ZM8.3998 9.60002C7.73706 9.60002 7.1998 10.1373 7.1998 10.8C7.1998 11.4628 7.73706 12 8.3998 12H8.41181C9.07455 12 9.61181 11.4628 9.61181 10.8C9.61181 10.1373 9.07455 9.60002 8.41181 9.60002H8.3998Z" fill="#00142E"/>
<path fill-rule="evenodd" clip-rule="evenodd" d="M7.1998 2.40002C5.87432 2.40002 4.7998 3.47454 4.7998 4.80002V19.2C4.7998 20.5255 5.87432 21.6 7.19981 21.6H16.7998C18.1253 21.6 19.1998 20.5255 19.1998 19.2V4.80002C19.1998 3.47454 18.1253 2.40002 16.7998 2.40002H7.1998ZM8.3998 4.80002C7.73706 4.80002 7.1998 5.33728 7.1998 6.00002C7.1998 6.66277 7.73706 7.20002 8.3998 7.20002H15.5998C16.2625 7.20002 16.7998 6.66277 16.7998 6.00002C16.7998 5.33728 16.2625 4.80002 15.5998 4.80002H8.3998ZM15.5998 13.2C16.2625 13.2 16.7998 13.7373 16.7998 14.4V18C16.7998 18.6628 16.2625 19.2 15.5998 19.2C14.9371 19.2 14.3998 18.6628 14.3998 18V14.4C14.3998 13.7373 14.9371 13.2 15.5998 13.2ZM11.9998 16.8C11.3371 16.8 10.7998 17.3373 10.7998 18C10.7998 18.6628 11.3371 19.2 11.9998 19.2H12.0118C12.6745 19.2 13.2118 18.6628 13.2118 18C13.2118 17.3373 12.6745 16.8 12.0118 16.8H11.9998ZM7.1998 18C7.1998 17.3373 7.73706 16.8 8.3998 16.8H8.41181C9.07455 16.8 9.61181 17.3373 9.61181 18C9.61181 18.6628 9.07455 19.2 8.41181 19.2H8.3998C7.73706 19.2 7.1998 18.6628 7.1998 18ZM8.3998 13.2C7.73706 13.2 7.1998 13.7373 7.1998 14.4C7.1998 15.0628 7.73706 15.6 8.3998 15.6H8.41181C9.07455 15.6 9.61181 15.0628 9.61181 14.4C9.61181 13.7373 9.07455 13.2 8.41181 13.2H8.3998ZM10.7998 14.4C10.7998 13.7373 11.3371 13.2 11.9998 13.2H12.0118C12.6745 13.2 13.2118 13.7373 13.2118 14.4C13.2118 15.0628 12.6745 15.6 12.0118 15.6H11.9998C11.3371 15.6 10.7998 15.0628 10.7998 14.4ZM15.5998 9.60002C14.9371 9.60002 14.3998 10.1373 14.3998 10.8C14.3998 11.4628 14.9371 12 15.5998 12H15.6118C16.2745 12 16.8118 11.4628 16.8118 10.8C16.8118 10.1373 16.2745 9.60002 15.6118 9.60002H15.5998ZM10.7998 10.8C10.7998 10.1373 11.3371 9.60002 11.9998 9.60002H12.0118C12.6745 9.60002 13.2118 10.1373 13.2118 10.8C13.2118 11.4628 12.6745 12 12.0118 12H11.9998C11.3371 12 10.7998 11.4628 10.7998 10.8ZM8.3998 9.60002C7.73706 9.60002 7.1998 10.1373 7.1998 10.8C7.1998 11.4628 7.73706 12 8.3998 12H8.41181C9.07455 12 9.61181 11.4628 9.61181 10.8C9.61181 10.1373 9.07455 9.60002 8.41181 9.60002H8.3998Z" fill="black" fill-opacity="0.2"/>
</svg>
