<svg width="24" height="24" viewBox="0 0 24 24" fill="none" xmlns="http://www.w3.org/2000/svg">
<path fill-rule="evenodd" clip-rule="evenodd" d="M6.00039 4.79999C4.01217 4.79999 2.40039 6.41176 2.40039 8.39999V15.6C2.40039 17.5882 4.01217 19.2 6.00039 19.2H18.0004C19.9886 19.2 21.6004 17.5882 21.6004 15.6V8.39999C21.6004 6.41176 19.9886 4.79999 18.0004 4.79999H6.00039ZM4.80039 15.6V14.4H10.8004V16.8H6.00039C5.33765 16.8 4.80039 16.2627 4.80039 15.6ZM13.2004 16.8H18.0004C18.6631 16.8 19.2004 16.2627 19.2004 15.6V14.4H13.2004V16.8ZM13.2004 12H19.2004V9.59999H13.2004V12ZM10.8004 9.59999H4.80039V12H10.8004V9.59999Z" fill="#00142E"/>
<path fill-rule="evenodd" clip-rule="evenodd" d="M6.00039 4.79999C4.01217 4.79999 2.40039 6.41176 2.40039 8.39999V15.6C2.40039 17.5882 4.01217 19.2 6.00039 19.2H18.0004C19.9886 19.2 21.6004 17.5882 21.6004 15.6V8.39999C21.6004 6.41176 19.9886 4.79999 18.0004 4.79999H6.00039ZM4.80039 15.6V14.4H10.8004V16.8H6.00039C5.33765 16.8 4.80039 16.2627 4.80039 15.6ZM13.2004 16.8H18.0004C18.6631 16.8 19.2004 16.2627 19.2004 15.6V14.4H13.2004V16.8ZM13.2004 12H19.2004V9.59999H13.2004V12ZM10.8004 9.59999H4.80039V12H10.8004V9.59999Z" fill="black" fill-opacity="0.2"/>
</svg>
