<svg width="24" height="24" viewBox="0 0 24 24" fill="none" xmlns="http://www.w3.org/2000/svg">
<path fill-rule="evenodd" clip-rule="evenodd" d="M21.2489 11.1515C21.7175 11.6201 21.7175 12.3799 21.2489 12.8486L12.8489 21.2486C12.3803 21.7172 11.6205 21.7172 11.1519 21.2486L2.75186 12.8486C2.51751 12.6142 2.40035 12.307 2.40039 11.9999V6.00002C2.40039 4.0118 4.01217 2.40002 6.00039 2.40002H12.0007C12.3077 2.40011 12.6147 2.51727 12.8489 2.7515L21.2489 11.1515ZM6.00039 7.20002C6.66313 7.20002 7.20039 6.66277 7.20039 6.00002C7.20039 5.33728 6.66313 4.80002 6.00039 4.80002C5.33765 4.80002 4.80039 5.33728 4.80039 6.00002C4.80039 6.66277 5.33765 7.20002 6.00039 7.20002Z" fill="#00142E"/>
<path fill-rule="evenodd" clip-rule="evenodd" d="M21.2489 11.1515C21.7175 11.6201 21.7175 12.3799 21.2489 12.8486L12.8489 21.2486C12.3803 21.7172 11.6205 21.7172 11.1519 21.2486L2.75186 12.8486C2.51751 12.6142 2.40035 12.307 2.40039 11.9999V6.00002C2.40039 4.0118 4.01217 2.40002 6.00039 2.40002H12.0007C12.3077 2.40011 12.6147 2.51727 12.8489 2.7515L21.2489 11.1515ZM6.00039 7.20002C6.66313 7.20002 7.20039 6.66277 7.20039 6.00002C7.20039 5.33728 6.66313 4.80002 6.00039 4.80002C5.33765 4.80002 4.80039 5.33728 4.80039 6.00002C4.80039 6.66277 5.33765 7.20002 6.00039 7.20002Z" fill="black" fill-opacity="0.2"/>
</svg>
