<svg width="24" height="24" viewBox="0 0 24 24" fill="none" xmlns="http://www.w3.org/2000/svg">
<path fill-rule="evenodd" clip-rule="evenodd" d="M2.40039 5.99998C2.40039 4.67449 3.47491 3.59998 4.80039 3.59998H19.2004C20.5259 3.59998 21.6004 4.67449 21.6004 5.99998V18C21.6004 19.3255 20.5259 20.4 19.2004 20.4H4.80039C3.47491 20.4 2.40039 19.3255 2.40039 18V5.99998ZM6.35186 7.55145C6.82049 7.08282 7.58029 7.08282 8.04892 7.55145L11.6489 11.1514C12.1175 11.6201 12.1175 12.3799 11.6489 12.8485L8.04892 16.4485C7.58029 16.9171 6.82049 16.9171 6.35186 16.4485C5.88323 15.9799 5.88323 15.2201 6.35186 14.7514L9.10333 12L6.35186 9.2485C5.88323 8.77987 5.88323 8.02008 6.35186 7.55145ZM13.2004 14.4C12.5376 14.4 12.0004 14.9372 12.0004 15.6C12.0004 16.2627 12.5376 16.8 13.2004 16.8H16.8004C17.4631 16.8 18.0004 16.2627 18.0004 15.6C18.0004 14.9372 17.4631 14.4 16.8004 14.4H13.2004Z" fill="#00142E"/>
<path fill-rule="evenodd" clip-rule="evenodd" d="M2.40039 5.99998C2.40039 4.67449 3.47491 3.59998 4.80039 3.59998H19.2004C20.5259 3.59998 21.6004 4.67449 21.6004 5.99998V18C21.6004 19.3255 20.5259 20.4 19.2004 20.4H4.80039C3.47491 20.4 2.40039 19.3255 2.40039 18V5.99998ZM6.35186 7.55145C6.82049 7.08282 7.58029 7.08282 8.04892 7.55145L11.6489 11.1514C12.1175 11.6201 12.1175 12.3799 11.6489 12.8485L8.04892 16.4485C7.58029 16.9171 6.82049 16.9171 6.35186 16.4485C5.88323 15.9799 5.88323 15.2201 6.35186 14.7514L9.10333 12L6.35186 9.2485C5.88323 8.77987 5.88323 8.02008 6.35186 7.55145ZM13.2004 14.4C12.5376 14.4 12.0004 14.9372 12.0004 15.6C12.0004 16.2627 12.5376 16.8 13.2004 16.8H16.8004C17.4631 16.8 18.0004 16.2627 18.0004 15.6C18.0004 14.9372 17.4631 14.4 16.8004 14.4H13.2004Z" fill="black" fill-opacity="0.2"/>
</svg>
