<svg width="24" height="24" viewBox="0 0 24 24" fill="none" xmlns="http://www.w3.org/2000/svg">
<path d="M2.40039 12.6C2.40039 11.6059 3.20628 10.8 4.20039 10.8C5.1945 10.8 6.00039 11.6059 6.00039 12.6V19.8C6.00039 20.7941 5.1945 21.6 4.20039 21.6C3.20628 21.6 2.40039 20.7941 2.40039 19.8V12.6Z" fill="#00142E"/>
<path d="M2.40039 12.6C2.40039 11.6059 3.20628 10.8 4.20039 10.8C5.1945 10.8 6.00039 11.6059 6.00039 12.6V19.8C6.00039 20.7941 5.1945 21.6 4.20039 21.6C3.20628 21.6 2.40039 20.7941 2.40039 19.8V12.6Z" fill="black" fill-opacity="0.2"/>
<path d="M7.20039 12.4V18.9167C7.20039 19.8258 7.714 20.6568 8.52708 21.0634L8.58689 21.0933C9.2534 21.4265 9.98834 21.6 10.7335 21.6H17.2329C18.3769 21.6 19.3619 20.7925 19.5863 19.6707L21.0263 12.4707C21.3233 10.9856 20.1874 9.60002 18.6729 9.60002H14.4004V4.80002C14.4004 3.47454 13.3259 2.40002 12.0004 2.40002C11.3376 2.40002 10.8004 2.93728 10.8004 3.60002V4.40002C10.8004 5.4386 10.4635 6.44916 9.84039 7.28002L8.16039 9.52002C7.53724 10.3509 7.20039 11.3614 7.20039 12.4Z" fill="#00142E"/>
<path d="M7.20039 12.4V18.9167C7.20039 19.8258 7.714 20.6568 8.52708 21.0634L8.58689 21.0933C9.2534 21.4265 9.98834 21.6 10.7335 21.6H17.2329C18.3769 21.6 19.3619 20.7925 19.5863 19.6707L21.0263 12.4707C21.3233 10.9856 20.1874 9.60002 18.6729 9.60002H14.4004V4.80002C14.4004 3.47454 13.3259 2.40002 12.0004 2.40002C11.3376 2.40002 10.8004 2.93728 10.8004 3.60002V4.40002C10.8004 5.4386 10.4635 6.44916 9.84039 7.28002L8.16039 9.52002C7.53724 10.3509 7.20039 11.3614 7.20039 12.4Z" fill="black" fill-opacity="0.2"/>
</svg>
