<svg width="24" height="24" viewBox="0 0 24 24" fill="none" xmlns="http://www.w3.org/2000/svg">
<path d="M2.40039 7.20005C2.40039 5.87457 3.47491 4.80005 4.80039 4.80005H19.2004C20.5259 4.80005 21.6004 5.87457 21.6004 7.20005V9.60005C20.2749 9.60005 19.2004 10.6746 19.2004 12C19.2004 13.3255 20.2749 14.4 21.6004 14.4V16.8C21.6004 18.1255 20.5259 19.2 19.2004 19.2H4.80039C3.47491 19.2 2.40039 18.1255 2.40039 16.8V14.4C3.72587 14.4 4.80039 13.3255 4.80039 12C4.80039 10.6746 3.72587 9.60005 2.40039 9.60005V7.20005Z" fill="#00142E"/>
<path d="M2.40039 7.20005C2.40039 5.87457 3.47491 4.80005 4.80039 4.80005H19.2004C20.5259 4.80005 21.6004 5.87457 21.6004 7.20005V9.60005C20.2749 9.60005 19.2004 10.6746 19.2004 12C19.2004 13.3255 20.2749 14.4 21.6004 14.4V16.8C21.6004 18.1255 20.5259 19.2 19.2004 19.2H4.80039C3.47491 19.2 2.40039 18.1255 2.40039 16.8V14.4C3.72587 14.4 4.80039 13.3255 4.80039 12C4.80039 10.6746 3.72587 9.60005 2.40039 9.60005V7.20005Z" fill="black" fill-opacity="0.2"/>
</svg>
