<svg width="24" height="24" viewBox="0 0 24 24" fill="none" xmlns="http://www.w3.org/2000/svg">
<path fill-rule="evenodd" clip-rule="evenodd" d="M8.4004 2.40002C9.06314 2.40002 9.6004 2.93728 9.6004 3.60002V4.80002H10.4791C10.4932 4.79977 10.5074 4.79977 10.5216 4.80002H13.2004C13.8631 4.80002 14.4004 5.33728 14.4004 6.00002C14.4004 6.66277 13.8631 7.20002 13.2004 7.20002H11.494C11.06 9.225 10.3573 11.1499 9.42526 12.9356C9.77418 13.3606 10.14 13.7713 10.5216 14.1666C10.9819 14.6434 10.9685 15.4031 10.4917 15.8634C10.0148 16.3237 9.25515 16.3103 8.79487 15.8335C8.56794 15.5984 8.34601 15.3584 8.12925 15.1138C7.06713 16.6921 5.81303 18.1301 4.4007 19.3942C3.90687 19.8361 3.14823 19.7941 2.70624 19.3003C2.26425 18.8065 2.30627 18.0478 2.80011 17.6058C4.25582 16.3029 5.52296 14.7946 6.55611 13.1267C5.88835 12.1799 5.2908 11.1799 4.77109 10.1341C4.47615 9.54057 4.71817 8.82035 5.31167 8.52541C5.90516 8.23047 6.62538 8.47249 6.92032 9.06599C7.20064 9.63005 7.50634 10.1794 7.83592 10.7124C8.33679 9.59129 8.73936 8.41685 9.03276 7.20002H3.6004C2.93766 7.20002 2.4004 6.66277 2.4004 6.00002C2.4004 5.33728 2.93766 4.80002 3.6004 4.80002H7.2004V3.60002C7.2004 2.93728 7.73766 2.40002 8.4004 2.40002ZM15.6004 9.60002C16.0549 9.60002 16.4704 9.85683 16.6737 10.2634L20.2629 17.4418C20.2707 17.4565 20.2782 17.4715 20.2853 17.4866L21.4737 19.8634C21.7701 20.4561 21.5298 21.177 20.9371 21.4733C20.3443 21.7697 19.6235 21.5295 19.3271 20.9367L18.4588 19.2H12.742L11.8737 20.9367C11.5773 21.5295 10.8565 21.7697 10.2637 21.4733C9.67097 21.177 9.4307 20.4561 9.72709 19.8634L10.9155 17.4866C10.9226 17.4715 10.9301 17.4565 10.9379 17.4418L14.5271 10.2634C14.7304 9.85683 15.1459 9.60002 15.6004 9.60002ZM13.942 16.8H17.2588L15.6004 13.4833L13.942 16.8Z" fill="#00142E"/>
<path fill-rule="evenodd" clip-rule="evenodd" d="M8.4004 2.40002C9.06314 2.40002 9.6004 2.93728 9.6004 3.60002V4.80002H10.4791C10.4932 4.79977 10.5074 4.79977 10.5216 4.80002H13.2004C13.8631 4.80002 14.4004 5.33728 14.4004 6.00002C14.4004 6.66277 13.8631 7.20002 13.2004 7.20002H11.494C11.06 9.225 10.3573 11.1499 9.42526 12.9356C9.77418 13.3606 10.14 13.7713 10.5216 14.1666C10.9819 14.6434 10.9685 15.4031 10.4917 15.8634C10.0148 16.3237 9.25515 16.3103 8.79487 15.8335C8.56794 15.5984 8.34601 15.3584 8.12925 15.1138C7.06713 16.6921 5.81303 18.1301 4.4007 19.3942C3.90687 19.8361 3.14823 19.7941 2.70624 19.3003C2.26425 18.8065 2.30627 18.0478 2.80011 17.6058C4.25582 16.3029 5.52296 14.7946 6.55611 13.1267C5.88835 12.1799 5.2908 11.1799 4.77109 10.1341C4.47615 9.54057 4.71817 8.82035 5.31167 8.52541C5.90516 8.23047 6.62538 8.47249 6.92032 9.06599C7.20064 9.63005 7.50634 10.1794 7.83592 10.7124C8.33679 9.59129 8.73936 8.41685 9.03276 7.20002H3.6004C2.93766 7.20002 2.4004 6.66277 2.4004 6.00002C2.4004 5.33728 2.93766 4.80002 3.6004 4.80002H7.2004V3.60002C7.2004 2.93728 7.73766 2.40002 8.4004 2.40002ZM15.6004 9.60002C16.0549 9.60002 16.4704 9.85683 16.6737 10.2634L20.2629 17.4418C20.2707 17.4565 20.2782 17.4715 20.2853 17.4866L21.4737 19.8634C21.7701 20.4561 21.5298 21.177 20.9371 21.4733C20.3443 21.7697 19.6235 21.5295 19.3271 20.9367L18.4588 19.2H12.742L11.8737 20.9367C11.5773 21.5295 10.8565 21.7697 10.2637 21.4733C9.67097 21.177 9.4307 20.4561 9.72709 19.8634L10.9155 17.4866C10.9226 17.4715 10.9301 17.4565 10.9379 17.4418L14.5271 10.2634C14.7304 9.85683 15.1459 9.60002 15.6004 9.60002ZM13.942 16.8H17.2588L15.6004 13.4833L13.942 16.8Z" fill="black" fill-opacity="0.2"/>
</svg>
