<svg width="24" height="24" viewBox="0 0 24 24" fill="none" xmlns="http://www.w3.org/2000/svg">
<path fill-rule="evenodd" clip-rule="evenodd" d="M10.7996 2.40002C10.3451 2.40002 9.92957 2.65683 9.7263 3.06337L8.85797 4.80002H4.79961C4.13687 4.80002 3.59961 5.33728 3.59961 6.00002C3.59961 6.66277 4.13687 7.20002 4.79961 7.20002L4.79961 19.2C4.79961 20.5255 5.87413 21.6 7.19961 21.6H16.7996C18.1251 21.6 19.1996 20.5255 19.1996 19.2V7.20002C19.8623 7.20002 20.3996 6.66277 20.3996 6.00002C20.3996 5.33728 19.8623 4.80002 19.1996 4.80002H15.1413L14.2729 3.06337C14.0697 2.65683 13.6541 2.40002 13.1996 2.40002H10.7996ZM8.39961 9.60002C8.39961 8.93728 8.93687 8.40002 9.59961 8.40002C10.2624 8.40002 10.7996 8.93728 10.7996 9.60002V16.8C10.7996 17.4628 10.2624 18 9.59961 18C8.93687 18 8.39961 17.4628 8.39961 16.8V9.60002ZM14.3996 8.40002C13.7369 8.40002 13.1996 8.93728 13.1996 9.60002V16.8C13.1996 17.4628 13.7369 18 14.3996 18C15.0624 18 15.5996 17.4628 15.5996 16.8V9.60002C15.5996 8.93728 15.0624 8.40002 14.3996 8.40002Z" fill="#00142E"/>
<path fill-rule="evenodd" clip-rule="evenodd" d="M10.7996 2.40002C10.3451 2.40002 9.92957 2.65683 9.7263 3.06337L8.85797 4.80002H4.79961C4.13687 4.80002 3.59961 5.33728 3.59961 6.00002C3.59961 6.66277 4.13687 7.20002 4.79961 7.20002L4.79961 19.2C4.79961 20.5255 5.87413 21.6 7.19961 21.6H16.7996C18.1251 21.6 19.1996 20.5255 19.1996 19.2V7.20002C19.8623 7.20002 20.3996 6.66277 20.3996 6.00002C20.3996 5.33728 19.8623 4.80002 19.1996 4.80002H15.1413L14.2729 3.06337C14.0697 2.65683 13.6541 2.40002 13.1996 2.40002H10.7996ZM8.39961 9.60002C8.39961 8.93728 8.93687 8.40002 9.59961 8.40002C10.2624 8.40002 10.7996 8.93728 10.7996 9.60002V16.8C10.7996 17.4628 10.2624 18 9.59961 18C8.93687 18 8.39961 17.4628 8.39961 16.8V9.60002ZM14.3996 8.40002C13.7369 8.40002 13.1996 8.93728 13.1996 9.60002V16.8C13.1996 17.4628 13.7369 18 14.3996 18C15.0624 18 15.5996 17.4628 15.5996 16.8V9.60002C15.5996 8.93728 15.0624 8.40002 14.3996 8.40002Z" fill="black" fill-opacity="0.2"/>
</svg>
