<svg width="24" height="24" viewBox="0 0 24 24" fill="none" xmlns="http://www.w3.org/2000/svg">
<path fill-rule="evenodd" clip-rule="evenodd" d="M14.4004 15.6C13.7376 15.6 13.2004 16.1373 13.2004 16.8C13.2004 17.4627 13.7376 18 14.4004 18H20.4004C21.0631 18 21.6004 17.4627 21.6004 16.8V10.8C21.6004 10.1373 21.0631 9.6 20.4004 9.6C19.7376 9.6 19.2004 10.1373 19.2004 10.8V13.9029L14.0489 8.75147C13.5803 8.28284 12.8205 8.28284 12.3519 8.75147L9.60039 11.5029L4.44892 6.35147C3.98029 5.88284 3.22049 5.88284 2.75186 6.35147C2.28323 6.8201 2.28323 7.5799 2.75186 8.04853L8.75186 14.0485C9.22049 14.5172 9.98029 14.5172 10.4489 14.0485L13.2004 11.2971L17.5033 15.6H14.4004Z" fill="#00142E"/>
<path fill-rule="evenodd" clip-rule="evenodd" d="M14.4004 15.6C13.7376 15.6 13.2004 16.1373 13.2004 16.8C13.2004 17.4627 13.7376 18 14.4004 18H20.4004C21.0631 18 21.6004 17.4627 21.6004 16.8V10.8C21.6004 10.1373 21.0631 9.6 20.4004 9.6C19.7376 9.6 19.2004 10.1373 19.2004 10.8V13.9029L14.0489 8.75147C13.5803 8.28284 12.8205 8.28284 12.3519 8.75147L9.60039 11.5029L4.44892 6.35147C3.98029 5.88284 3.22049 5.88284 2.75186 6.35147C2.28323 6.8201 2.28323 7.5799 2.75186 8.04853L8.75186 14.0485C9.22049 14.5172 9.98029 14.5172 10.4489 14.0485L13.2004 11.2971L17.5033 15.6H14.4004Z" fill="black" fill-opacity="0.2"/>
</svg>
