<svg width="24" height="24" viewBox="0 0 24 24" fill="none" xmlns="http://www.w3.org/2000/svg">
<path d="M9.60039 19.8C9.60039 20.7941 8.7945 21.6 7.80039 21.6C6.80628 21.6 6.00039 20.7941 6.00039 19.8C6.00039 18.8059 6.80628 18 7.80039 18C8.7945 18 9.60039 18.8059 9.60039 19.8Z" fill="#00142E"/>
<path d="M9.60039 19.8C9.60039 20.7941 8.7945 21.6 7.80039 21.6C6.80628 21.6 6.00039 20.7941 6.00039 19.8C6.00039 18.8059 6.80628 18 7.80039 18C8.7945 18 9.60039 18.8059 9.60039 19.8Z" fill="black" fill-opacity="0.2"/>
<path d="M18.0004 19.8C18.0004 20.7941 17.1945 21.6 16.2004 21.6C15.2063 21.6 14.4004 20.7941 14.4004 19.8C14.4004 18.8059 15.2063 18 16.2004 18C17.1945 18 18.0004 18.8059 18.0004 19.8Z" fill="#00142E"/>
<path d="M18.0004 19.8C18.0004 20.7941 17.1945 21.6 16.2004 21.6C15.2063 21.6 14.4004 20.7941 14.4004 19.8C14.4004 18.8059 15.2063 18 16.2004 18C17.1945 18 18.0004 18.8059 18.0004 19.8Z" fill="black" fill-opacity="0.2"/>
<path d="M3.60039 4.79999C2.93765 4.79999 2.40039 5.33725 2.40039 5.99999V18C2.40039 18.6627 2.93765 19.2 3.60039 19.2H4.8604C5.13836 17.8306 6.34902 16.8 7.80039 16.8C9.25177 16.8 10.4624 17.8306 10.7404 19.2H12.0004C12.6631 19.2 13.2004 18.6627 13.2004 18V5.99999C13.2004 5.33725 12.6631 4.79999 12.0004 4.79999H3.60039Z" fill="#00142E"/>
<path d="M3.60039 4.79999C2.93765 4.79999 2.40039 5.33725 2.40039 5.99999V18C2.40039 18.6627 2.93765 19.2 3.60039 19.2H4.8604C5.13836 17.8306 6.34902 16.8 7.80039 16.8C9.25177 16.8 10.4624 17.8306 10.7404 19.2H12.0004C12.6631 19.2 13.2004 18.6627 13.2004 18V5.99999C13.2004 5.33725 12.6631 4.79999 12.0004 4.79999H3.60039Z" fill="black" fill-opacity="0.2"/>
<path d="M16.8004 8.39999C16.1376 8.39999 15.6004 8.93725 15.6004 9.59999V16.86C15.7943 16.8206 15.9949 16.8 16.2004 16.8C17.6518 16.8 18.8624 17.8306 19.1404 19.2H20.4004C21.0631 19.2 21.6004 18.6627 21.6004 18V12C21.6004 11.6817 21.474 11.3765 21.2489 11.1515L18.8489 8.75146C18.6239 8.52642 18.3187 8.39999 18.0004 8.39999H16.8004Z" fill="#00142E"/>
<path d="M16.8004 8.39999C16.1376 8.39999 15.6004 8.93725 15.6004 9.59999V16.86C15.7943 16.8206 15.9949 16.8 16.2004 16.8C17.6518 16.8 18.8624 17.8306 19.1404 19.2H20.4004C21.0631 19.2 21.6004 18.6627 21.6004 18V12C21.6004 11.6817 21.474 11.3765 21.2489 11.1515L18.8489 8.75146C18.6239 8.52642 18.3187 8.39999 18.0004 8.39999H16.8004Z" fill="black" fill-opacity="0.2"/>
</svg>
