<svg width="24" height="24" viewBox="0 0 24 24" fill="none" xmlns="http://www.w3.org/2000/svg">
<path fill-rule="evenodd" clip-rule="evenodd" d="M3.59961 20.4C3.59961 19.7373 4.13687 19.2 4.79961 19.2H19.1996C19.8624 19.2 20.3996 19.7373 20.3996 20.4C20.3996 21.0628 19.8624 21.6 19.1996 21.6H4.79961C4.13687 21.6 3.59961 21.0628 3.59961 20.4ZM7.55108 8.04855C7.08245 7.57992 7.08245 6.82013 7.55108 6.3515L11.1511 2.7515C11.3761 2.52645 11.6813 2.40002 11.9996 2.40002C12.3179 2.40002 12.6231 2.52645 12.8481 2.7515L16.4481 6.3515C16.9168 6.82013 16.9168 7.57992 16.4481 8.04855C15.9795 8.51718 15.2197 8.51718 14.7511 8.04855L13.1996 6.49708L13.1996 15.6C13.1996 16.2628 12.6623 16.8 11.9996 16.8C11.3369 16.8 10.7996 16.2628 10.7996 15.6L10.7996 6.49708L9.24814 8.04855C8.77951 8.51718 8.01971 8.51718 7.55108 8.04855Z" fill="#00142E"/>
<path fill-rule="evenodd" clip-rule="evenodd" d="M3.59961 20.4C3.59961 19.7373 4.13687 19.2 4.79961 19.2H19.1996C19.8624 19.2 20.3996 19.7373 20.3996 20.4C20.3996 21.0628 19.8624 21.6 19.1996 21.6H4.79961C4.13687 21.6 3.59961 21.0628 3.59961 20.4ZM7.55108 8.04855C7.08245 7.57992 7.08245 6.82013 7.55108 6.3515L11.1511 2.7515C11.3761 2.52645 11.6813 2.40002 11.9996 2.40002C12.3179 2.40002 12.6231 2.52645 12.8481 2.7515L16.4481 6.3515C16.9168 6.82013 16.9168 7.57992 16.4481 8.04855C15.9795 8.51718 15.2197 8.51718 14.7511 8.04855L13.1996 6.49708L13.1996 15.6C13.1996 16.2628 12.6623 16.8 11.9996 16.8C11.3369 16.8 10.7996 16.2628 10.7996 15.6L10.7996 6.49708L9.24814 8.04855C8.77951 8.51718 8.01971 8.51718 7.55108 8.04855Z" fill="black" fill-opacity="0.2"/>
</svg>
