<svg width="24" height="24" viewBox="0 0 24 24" fill="none" xmlns="http://www.w3.org/2000/svg">
<path d="M13.2004 7.19998C13.2004 9.1882 11.5886 10.8 9.60039 10.8C7.61217 10.8 6.00039 9.1882 6.00039 7.19998C6.00039 5.21175 7.61217 3.59998 9.60039 3.59998C11.5886 3.59998 13.2004 5.21175 13.2004 7.19998Z" fill="#00142E"/>
<path d="M13.2004 7.19998C13.2004 9.1882 11.5886 10.8 9.60039 10.8C7.61217 10.8 6.00039 9.1882 6.00039 7.19998C6.00039 5.21175 7.61217 3.59998 9.60039 3.59998C11.5886 3.59998 13.2004 5.21175 13.2004 7.19998Z" fill="black" fill-opacity="0.2"/>
<path d="M16.8004 20.4C16.8004 16.4235 13.5768 13.2 9.60039 13.2C5.62394 13.2 2.40039 16.4235 2.40039 20.4H16.8004Z" fill="#00142E"/>
<path d="M16.8004 20.4C16.8004 16.4235 13.5768 13.2 9.60039 13.2C5.62394 13.2 2.40039 16.4235 2.40039 20.4H16.8004Z" fill="black" fill-opacity="0.2"/>
<path d="M15.6004 9.59998C14.9376 9.59998 14.4004 10.1372 14.4004 10.8C14.4004 11.4627 14.9376 12 15.6004 12H20.4004C21.0631 12 21.6004 11.4627 21.6004 10.8C21.6004 10.1372 21.0631 9.59998 20.4004 9.59998H15.6004Z" fill="#00142E"/>
<path d="M15.6004 9.59998C14.9376 9.59998 14.4004 10.1372 14.4004 10.8C14.4004 11.4627 14.9376 12 15.6004 12H20.4004C21.0631 12 21.6004 11.4627 21.6004 10.8C21.6004 10.1372 21.0631 9.59998 20.4004 9.59998H15.6004Z" fill="black" fill-opacity="0.2"/>
</svg>
