<svg width="24" height="24" viewBox="0 0 24 24" fill="none" xmlns="http://www.w3.org/2000/svg">
<path d="M10.8002 7.19998C10.8002 9.1882 9.18842 10.8 7.20019 10.8C5.21197 10.8 3.6002 9.1882 3.6002 7.19998C3.6002 5.21175 5.21197 3.59998 7.20019 3.59998C9.18842 3.59998 10.8002 5.21175 10.8002 7.19998Z" fill="#00142E"/>
<path d="M10.8002 7.19998C10.8002 9.1882 9.18842 10.8 7.20019 10.8C5.21197 10.8 3.6002 9.1882 3.6002 7.19998C3.6002 5.21175 5.21197 3.59998 7.20019 3.59998C9.18842 3.59998 10.8002 5.21175 10.8002 7.19998Z" fill="black" fill-opacity="0.2"/>
<path d="M20.4002 7.19998C20.4002 9.1882 18.7884 10.8 16.8002 10.8C14.812 10.8 13.2002 9.1882 13.2002 7.19998C13.2002 5.21175 14.812 3.59998 16.8002 3.59998C18.7884 3.59998 20.4002 5.21175 20.4002 7.19998Z" fill="#00142E"/>
<path d="M20.4002 7.19998C20.4002 9.1882 18.7884 10.8 16.8002 10.8C14.812 10.8 13.2002 9.1882 13.2002 7.19998C13.2002 5.21175 14.812 3.59998 16.8002 3.59998C18.7884 3.59998 20.4002 5.21175 20.4002 7.19998Z" fill="black" fill-opacity="0.2"/>
<path d="M15.5152 20.4C15.5712 20.0081 15.6002 19.6074 15.6002 19.2C15.6002 17.2378 14.9274 15.4327 13.7999 14.0029C14.6825 13.4922 15.7072 13.2 16.8002 13.2C20.1139 13.2 22.8002 15.8863 22.8002 19.2V20.4H15.5152Z" fill="#00142E"/>
<path d="M15.5152 20.4C15.5712 20.0081 15.6002 19.6074 15.6002 19.2C15.6002 17.2378 14.9274 15.4327 13.7999 14.0029C14.6825 13.4922 15.7072 13.2 16.8002 13.2C20.1139 13.2 22.8002 15.8863 22.8002 19.2V20.4H15.5152Z" fill="black" fill-opacity="0.2"/>
<path d="M7.20019 13.2C10.5139 13.2 13.2002 15.8863 13.2002 19.2V20.4H1.2002V19.2C1.2002 15.8863 3.88649 13.2 7.20019 13.2Z" fill="#00142E"/>
<path d="M7.20019 13.2C10.5139 13.2 13.2002 15.8863 13.2002 19.2V20.4H1.2002V19.2C1.2002 15.8863 3.88649 13.2 7.20019 13.2Z" fill="black" fill-opacity="0.2"/>
</svg>
