<svg width="24" height="24" viewBox="0 0 24 24" fill="none" xmlns="http://www.w3.org/2000/svg">
<path fill-rule="evenodd" clip-rule="evenodd" d="M21.6004 12C21.6004 17.302 17.3023 21.6 12.0004 21.6C6.69846 21.6 2.40039 17.302 2.40039 12C2.40039 6.69809 6.69846 2.40002 12.0004 2.40002C17.3023 2.40002 21.6004 6.69809 21.6004 12ZM14.4004 8.40002C14.4004 9.72551 13.3259 10.8 12.0004 10.8C10.6749 10.8 9.60039 9.72551 9.60039 8.40002C9.60039 7.07454 10.6749 6.00002 12.0004 6.00002C13.3259 6.00002 14.4004 7.07454 14.4004 8.40002ZM12.0003 13.2C9.57926 13.2 7.49312 14.634 6.54487 16.6989C7.86523 18.2305 9.81957 19.2 12.0004 19.2C14.1811 19.2 16.1354 18.2305 17.4558 16.699C16.5076 14.634 14.4214 13.2 12.0003 13.2Z" fill="#00142E"/>
<path fill-rule="evenodd" clip-rule="evenodd" d="M21.6004 12C21.6004 17.302 17.3023 21.6 12.0004 21.6C6.69846 21.6 2.40039 17.302 2.40039 12C2.40039 6.69809 6.69846 2.40002 12.0004 2.40002C17.3023 2.40002 21.6004 6.69809 21.6004 12ZM14.4004 8.40002C14.4004 9.72551 13.3259 10.8 12.0004 10.8C10.6749 10.8 9.60039 9.72551 9.60039 8.40002C9.60039 7.07454 10.6749 6.00002 12.0004 6.00002C13.3259 6.00002 14.4004 7.07454 14.4004 8.40002ZM12.0003 13.2C9.57926 13.2 7.49312 14.634 6.54487 16.6989C7.86523 18.2305 9.81957 19.2 12.0004 19.2C14.1811 19.2 16.1354 18.2305 17.4558 16.699C16.5076 14.634 14.4214 13.2 12.0003 13.2Z" fill="black" fill-opacity="0.2"/>
</svg>
