<svg width="24" height="24" viewBox="0 0 24 24" fill="none" xmlns="http://www.w3.org/2000/svg">
<path d="M9.60039 10.8C11.5886 10.8 13.2004 9.1882 13.2004 7.19998C13.2004 5.21175 11.5886 3.59998 9.60039 3.59998C7.61217 3.59998 6.00039 5.21175 6.00039 7.19998C6.00039 9.1882 7.61217 10.8 9.60039 10.8Z" fill="#00142E"/>
<path d="M9.60039 10.8C11.5886 10.8 13.2004 9.1882 13.2004 7.19998C13.2004 5.21175 11.5886 3.59998 9.60039 3.59998C7.61217 3.59998 6.00039 5.21175 6.00039 7.19998C6.00039 9.1882 7.61217 10.8 9.60039 10.8Z" fill="black" fill-opacity="0.2"/>
<path d="M9.60039 13.2C13.5768 13.2 16.8004 16.4235 16.8004 20.4H2.40039C2.40039 16.4235 5.62394 13.2 9.60039 13.2Z" fill="#00142E"/>
<path d="M9.60039 13.2C13.5768 13.2 16.8004 16.4235 16.8004 20.4H2.40039C2.40039 16.4235 5.62394 13.2 9.60039 13.2Z" fill="black" fill-opacity="0.2"/>
<path d="M19.2004 8.39998C19.2004 7.73723 18.6631 7.19998 18.0004 7.19998C17.3377 7.19998 16.8004 7.73723 16.8004 8.39998V9.59998H15.6004C14.9376 9.59997 14.4004 10.1372 14.4004 10.8C14.4004 11.4627 14.9376 12 15.6004 12H16.8004V13.2C16.8004 13.8627 17.3377 14.4 18.0004 14.4C18.6631 14.4 19.2004 13.8627 19.2004 13.2V12H20.4004C21.0631 12 21.6004 11.4627 21.6004 10.8C21.6004 10.1372 21.0631 9.59998 20.4004 9.59998H19.2004V8.39998Z" fill="#00142E"/>
<path d="M19.2004 8.39998C19.2004 7.73723 18.6631 7.19998 18.0004 7.19998C17.3377 7.19998 16.8004 7.73723 16.8004 8.39998V9.59998H15.6004C14.9376 9.59997 14.4004 10.1372 14.4004 10.8C14.4004 11.4627 14.9376 12 15.6004 12H16.8004V13.2C16.8004 13.8627 17.3377 14.4 18.0004 14.4C18.6631 14.4 19.2004 13.8627 19.2004 13.2V12H20.4004C21.0631 12 21.6004 11.4627 21.6004 10.8C21.6004 10.1372 21.0631 9.59998 20.4004 9.59998H19.2004V8.39998Z" fill="black" fill-opacity="0.2"/>
</svg>
