<svg width="24" height="24" viewBox="0 0 24 24" fill="none" xmlns="http://www.w3.org/2000/svg">
<path d="M11.9996 10.8C13.9878 10.8 15.5996 9.1882 15.5996 7.19998C15.5996 5.21175 13.9878 3.59998 11.9996 3.59998C10.0114 3.59998 8.39961 5.21175 8.39961 7.19998C8.39961 9.1882 10.0114 10.8 11.9996 10.8Z" fill="#00142E"/>
<path d="M11.9996 10.8C13.9878 10.8 15.5996 9.1882 15.5996 7.19998C15.5996 5.21175 13.9878 3.59998 11.9996 3.59998C10.0114 3.59998 8.39961 5.21175 8.39961 7.19998C8.39961 9.1882 10.0114 10.8 11.9996 10.8Z" fill="black" fill-opacity="0.2"/>
<path d="M3.59961 21.6C3.59961 16.9608 7.36042 13.2 11.9996 13.2C16.6388 13.2 20.3996 16.9608 20.3996 21.6H3.59961Z" fill="#00142E"/>
<path d="M3.59961 21.6C3.59961 16.9608 7.36042 13.2 11.9996 13.2C16.6388 13.2 20.3996 16.9608 20.3996 21.6H3.59961Z" fill="black" fill-opacity="0.2"/>
</svg>
