<svg width="24" height="24" viewBox="0 0 24 24" fill="none" xmlns="http://www.w3.org/2000/svg">
<path d="M5.57859 3.70041C6.1859 3.96575 6.46311 4.67318 6.19777 5.28048C5.29938 7.33669 4.80039 9.60851 4.80039 12C4.80039 14.3916 5.29938 16.6634 6.19777 18.7196C6.46311 19.3269 6.1859 20.0343 5.57859 20.2997C4.97129 20.565 4.26387 20.2878 3.99852 19.6805C2.97023 17.327 2.40039 14.7285 2.40039 12C2.40039 9.27161 2.97023 6.67311 3.99852 4.31959C4.26387 3.71228 4.97129 3.43507 5.57859 3.70041Z" fill="#00142E"/>
<path d="M5.57859 3.70041C6.1859 3.96575 6.46311 4.67318 6.19777 5.28048C5.29938 7.33669 4.80039 9.60851 4.80039 12C4.80039 14.3916 5.29938 16.6634 6.19777 18.7196C6.46311 19.3269 6.1859 20.0343 5.57859 20.2997C4.97129 20.565 4.26387 20.2878 3.99852 19.6805C2.97023 17.327 2.40039 14.7285 2.40039 12C2.40039 9.27161 2.97023 6.67311 3.99852 4.31959C4.26387 3.71228 4.97129 3.43507 5.57859 3.70041Z" fill="black" fill-opacity="0.2"/>
<path d="M15.5539 8.40002C14.4603 8.40002 13.4259 8.89715 12.7428 9.75112L12.3498 10.2424L12.2163 9.90869C11.8518 8.99751 10.9693 8.40002 9.98795 8.40002H9.60039C8.93765 8.40002 8.40039 8.93728 8.40039 9.60002C8.40039 10.2628 8.93765 10.8 9.60039 10.8H9.98795L10.6265 12.3964L9.38393 13.9497C9.15621 14.2343 8.81143 14.4 8.44689 14.4H8.40039C7.73765 14.4 7.20039 14.9373 7.20039 15.6C7.20039 16.2628 7.73765 16.8 8.40039 16.8H8.44689C9.54051 16.8 10.5748 16.3029 11.258 15.4489L11.651 14.9577L11.7845 15.2914C12.149 16.2025 13.0315 16.8 14.0128 16.8H14.4004C15.0631 16.8 15.6004 16.2628 15.6004 15.6C15.6004 14.9373 15.0631 14.4 14.4004 14.4H14.0128L13.3743 12.8036L14.6168 11.2504C14.8446 10.9657 15.1894 10.8 15.5539 10.8H15.6004C16.2631 10.8 16.8004 10.2628 16.8004 9.60002C16.8004 8.93728 16.2631 8.40002 15.6004 8.40002H15.5539Z" fill="#00142E"/>
<path d="M15.5539 8.40002C14.4603 8.40002 13.4259 8.89715 12.7428 9.75112L12.3498 10.2424L12.2163 9.90869C11.8518 8.99751 10.9693 8.40002 9.98795 8.40002H9.60039C8.93765 8.40002 8.40039 8.93728 8.40039 9.60002C8.40039 10.2628 8.93765 10.8 9.60039 10.8H9.98795L10.6265 12.3964L9.38393 13.9497C9.15621 14.2343 8.81143 14.4 8.44689 14.4H8.40039C7.73765 14.4 7.20039 14.9373 7.20039 15.6C7.20039 16.2628 7.73765 16.8 8.40039 16.8H8.44689C9.54051 16.8 10.5748 16.3029 11.258 15.4489L11.651 14.9577L11.7845 15.2914C12.149 16.2025 13.0315 16.8 14.0128 16.8H14.4004C15.0631 16.8 15.6004 16.2628 15.6004 15.6C15.6004 14.9373 15.0631 14.4 14.4004 14.4H14.0128L13.3743 12.8036L14.6168 11.2504C14.8446 10.9657 15.1894 10.8 15.5539 10.8H15.6004C16.2631 10.8 16.8004 10.2628 16.8004 9.60002C16.8004 8.93728 16.2631 8.40002 15.6004 8.40002H15.5539Z" fill="black" fill-opacity="0.2"/>
<path d="M17.803 5.28048C17.5377 4.67318 17.8149 3.96575 18.4222 3.70041C19.0295 3.43507 19.7369 3.71228 20.0023 4.31959C21.0306 6.67311 21.6004 9.27161 21.6004 12C21.6004 14.7285 21.0306 17.327 20.0023 19.6805C19.7369 20.2878 19.0295 20.565 18.4222 20.2997C17.8149 20.0343 17.5377 19.3269 17.803 18.7196C18.7014 16.6634 19.2004 14.3916 19.2004 12C19.2004 9.60851 18.7014 7.33669 17.803 5.28048Z" fill="#00142E"/>
<path d="M17.803 5.28048C17.5377 4.67318 17.8149 3.96575 18.4222 3.70041C19.0295 3.43507 19.7369 3.71228 20.0023 4.31959C21.0306 6.67311 21.6004 9.27161 21.6004 12C21.6004 14.7285 21.0306 17.327 20.0023 19.6805C19.7369 20.2878 19.0295 20.565 18.4222 20.2997C17.8149 20.0343 17.5377 19.3269 17.803 18.7196C18.7014 16.6634 19.2004 14.3916 19.2004 12C19.2004 9.60851 18.7014 7.33669 17.803 5.28048Z" fill="black" fill-opacity="0.2"/>
</svg>
