<svg width="24" height="24" viewBox="0 0 24 24" fill="none" xmlns="http://www.w3.org/2000/svg">
<path d="M2.40039 7.19999C2.40039 5.8745 3.47491 4.79999 4.80039 4.79999H12.0004C13.3259 4.79999 14.4004 5.8745 14.4004 7.19999V16.8C14.4004 18.1255 13.3259 19.2 12.0004 19.2H4.80039C3.47491 19.2 2.40039 18.1255 2.40039 16.8V7.19999Z" fill="#00142E"/>
<path d="M2.40039 7.19999C2.40039 5.8745 3.47491 4.79999 4.80039 4.79999H12.0004C13.3259 4.79999 14.4004 5.8745 14.4004 7.19999V16.8C14.4004 18.1255 13.3259 19.2 12.0004 19.2H4.80039C3.47491 19.2 2.40039 18.1255 2.40039 16.8V7.19999Z" fill="black" fill-opacity="0.2"/>
<path d="M17.4637 8.52668C17.0572 8.72995 16.8004 9.14546 16.8004 9.59999V14.4C16.8004 14.8545 17.0572 15.27 17.4637 15.4733L19.8637 16.6733C20.2357 16.8593 20.6775 16.8394 21.0313 16.6208C21.385 16.4021 21.6004 16.0159 21.6004 15.6V8.39999C21.6004 7.9841 21.385 7.59786 21.0313 7.37921C20.6775 7.16056 20.2357 7.14068 19.8637 7.32668L17.4637 8.52668Z" fill="#00142E"/>
<path d="M17.4637 8.52668C17.0572 8.72995 16.8004 9.14546 16.8004 9.59999V14.4C16.8004 14.8545 17.0572 15.27 17.4637 15.4733L19.8637 16.6733C20.2357 16.8593 20.6775 16.8394 21.0313 16.6208C21.385 16.4021 21.6004 16.0159 21.6004 15.6V8.39999C21.6004 7.9841 21.385 7.59786 21.0313 7.37921C20.6775 7.16056 20.2357 7.14068 19.8637 7.32668L17.4637 8.52668Z" fill="black" fill-opacity="0.2"/>
</svg>
