<svg width="24" height="24" viewBox="0 0 24 24" fill="none" xmlns="http://www.w3.org/2000/svg">
<path d="M5.99961 3.59998C4.67413 3.59998 3.59961 4.67449 3.59961 5.99998V8.39998C3.59961 9.72546 4.67413 10.8 5.99961 10.8H8.39961C9.72509 10.8 10.7996 9.72546 10.7996 8.39998V5.99998C10.7996 4.67449 9.72509 3.59998 8.39961 3.59998H5.99961Z" fill="#00142E"/>
<path d="M5.99961 3.59998C4.67413 3.59998 3.59961 4.67449 3.59961 5.99998V8.39998C3.59961 9.72546 4.67413 10.8 5.99961 10.8H8.39961C9.72509 10.8 10.7996 9.72546 10.7996 8.39998V5.99998C10.7996 4.67449 9.72509 3.59998 8.39961 3.59998H5.99961Z" fill="black" fill-opacity="0.2"/>
<path d="M5.99961 13.2C4.67413 13.2 3.59961 14.2745 3.59961 15.6V18C3.59961 19.3255 4.67413 20.4 5.99961 20.4H8.39961C9.72509 20.4 10.7996 19.3255 10.7996 18V15.6C10.7996 14.2745 9.72509 13.2 8.39961 13.2H5.99961Z" fill="#00142E"/>
<path d="M5.99961 13.2C4.67413 13.2 3.59961 14.2745 3.59961 15.6V18C3.59961 19.3255 4.67413 20.4 5.99961 20.4H8.39961C9.72509 20.4 10.7996 19.3255 10.7996 18V15.6C10.7996 14.2745 9.72509 13.2 8.39961 13.2H5.99961Z" fill="black" fill-opacity="0.2"/>
<path d="M13.1996 5.99998C13.1996 4.67449 14.2741 3.59998 15.5996 3.59998H17.9996C19.3251 3.59998 20.3996 4.67449 20.3996 5.99998V8.39998C20.3996 9.72546 19.3251 10.8 17.9996 10.8H15.5996C14.2741 10.8 13.1996 9.72546 13.1996 8.39998V5.99998Z" fill="#00142E"/>
<path d="M13.1996 5.99998C13.1996 4.67449 14.2741 3.59998 15.5996 3.59998H17.9996C19.3251 3.59998 20.3996 4.67449 20.3996 5.99998V8.39998C20.3996 9.72546 19.3251 10.8 17.9996 10.8H15.5996C14.2741 10.8 13.1996 9.72546 13.1996 8.39998V5.99998Z" fill="black" fill-opacity="0.2"/>
<path d="M16.7996 13.2C17.4623 13.2 17.9996 13.7372 17.9996 14.4V15.6H19.1996C19.8623 15.6 20.3996 16.1372 20.3996 16.8C20.3996 17.4627 19.8623 18 19.1996 18H17.9996V19.2C17.9996 19.8627 17.4623 20.4 16.7996 20.4C16.1369 20.4 15.5996 19.8627 15.5996 19.2V18H14.3996C13.7369 18 13.1996 17.4627 13.1996 16.8C13.1996 16.1372 13.7369 15.6 14.3996 15.6H15.5996V14.4C15.5996 13.7372 16.1369 13.2 16.7996 13.2Z" fill="#00142E"/>
<path d="M16.7996 13.2C17.4623 13.2 17.9996 13.7372 17.9996 14.4V15.6H19.1996C19.8623 15.6 20.3996 16.1372 20.3996 16.8C20.3996 17.4627 19.8623 18 19.1996 18H17.9996V19.2C17.9996 19.8627 17.4623 20.4 16.7996 20.4C16.1369 20.4 15.5996 19.8627 15.5996 19.2V18H14.3996C13.7369 18 13.1996 17.4627 13.1996 16.8C13.1996 16.1372 13.7369 15.6 14.3996 15.6H15.5996V14.4C15.5996 13.7372 16.1369 13.2 16.7996 13.2Z" fill="black" fill-opacity="0.2"/>
</svg>
