<svg width="24" height="24" viewBox="0 0 24 24" fill="none" xmlns="http://www.w3.org/2000/svg">
<path d="M5.99961 3.59998C4.67413 3.59998 3.59961 4.67449 3.59961 5.99998V8.39998C3.59961 9.72546 4.67413 10.8 5.99961 10.8H8.39961C9.72509 10.8 10.7996 9.72546 10.7996 8.39998V5.99998C10.7996 4.67449 9.72509 3.59998 8.39961 3.59998H5.99961Z" fill="#00142E"/>
<path d="M5.99961 3.59998C4.67413 3.59998 3.59961 4.67449 3.59961 5.99998V8.39998C3.59961 9.72546 4.67413 10.8 5.99961 10.8H8.39961C9.72509 10.8 10.7996 9.72546 10.7996 8.39998V5.99998C10.7996 4.67449 9.72509 3.59998 8.39961 3.59998H5.99961Z" fill="black" fill-opacity="0.2"/>
<path d="M5.99961 13.2C4.67413 13.2 3.59961 14.2745 3.59961 15.6V18C3.59961 19.3255 4.67413 20.4 5.99961 20.4H8.39961C9.72509 20.4 10.7996 19.3255 10.7996 18V15.6C10.7996 14.2745 9.72509 13.2 8.39961 13.2H5.99961Z" fill="#00142E"/>
<path d="M5.99961 13.2C4.67413 13.2 3.59961 14.2745 3.59961 15.6V18C3.59961 19.3255 4.67413 20.4 5.99961 20.4H8.39961C9.72509 20.4 10.7996 19.3255 10.7996 18V15.6C10.7996 14.2745 9.72509 13.2 8.39961 13.2H5.99961Z" fill="black" fill-opacity="0.2"/>
<path d="M13.1996 5.99998C13.1996 4.67449 14.2741 3.59998 15.5996 3.59998H17.9996C19.3251 3.59998 20.3996 4.67449 20.3996 5.99998V8.39998C20.3996 9.72546 19.3251 10.8 17.9996 10.8H15.5996C14.2741 10.8 13.1996 9.72546 13.1996 8.39998V5.99998Z" fill="#00142E"/>
<path d="M13.1996 5.99998C13.1996 4.67449 14.2741 3.59998 15.5996 3.59998H17.9996C19.3251 3.59998 20.3996 4.67449 20.3996 5.99998V8.39998C20.3996 9.72546 19.3251 10.8 17.9996 10.8H15.5996C14.2741 10.8 13.1996 9.72546 13.1996 8.39998V5.99998Z" fill="black" fill-opacity="0.2"/>
<path d="M13.1996 15.6C13.1996 14.2745 14.2741 13.2 15.5996 13.2H17.9996C19.3251 13.2 20.3996 14.2745 20.3996 15.6V18C20.3996 19.3255 19.3251 20.4 17.9996 20.4H15.5996C14.2741 20.4 13.1996 19.3255 13.1996 18V15.6Z" fill="#00142E"/>
<path d="M13.1996 15.6C13.1996 14.2745 14.2741 13.2 15.5996 13.2H17.9996C19.3251 13.2 20.3996 14.2745 20.3996 15.6V18C20.3996 19.3255 19.3251 20.4 17.9996 20.4H15.5996C14.2741 20.4 13.1996 19.3255 13.1996 18V15.6Z" fill="black" fill-opacity="0.2"/>
</svg>
