<svg width="24" height="24" viewBox="0 0 24 24" fill="none" xmlns="http://www.w3.org/2000/svg">
<path fill-rule="evenodd" clip-rule="evenodd" d="M3.59961 4.79998C3.59961 4.13723 4.13687 3.59998 4.79961 3.59998H19.1996C19.8624 3.59998 20.3996 4.13723 20.3996 4.79998C20.3996 5.46272 19.8624 5.99998 19.1996 5.99998H4.79961C4.13687 5.99998 3.59961 5.46272 3.59961 4.79998ZM3.59961 9.59998C3.59961 8.93723 4.13687 8.39998 4.79961 8.39998H19.1996C19.8624 8.39998 20.3996 8.93723 20.3996 9.59998C20.3996 10.2627 19.8624 10.8 19.1996 10.8H4.79961C4.13687 10.8 3.59961 10.2627 3.59961 9.59998ZM3.59961 14.4C3.59961 13.7372 4.13687 13.2 4.79961 13.2H19.1996C19.8624 13.2 20.3996 13.7372 20.3996 14.4C20.3996 15.0627 19.8624 15.6 19.1996 15.6H4.79961C4.13687 15.6 3.59961 15.0627 3.59961 14.4ZM3.59961 19.2C3.59961 18.5372 4.13687 18 4.79961 18H19.1996C19.8624 18 20.3996 18.5372 20.3996 19.2C20.3996 19.8627 19.8624 20.4 19.1996 20.4H4.79961C4.13687 20.4 3.59961 19.8627 3.59961 19.2Z" fill="#00142E"/>
<path fill-rule="evenodd" clip-rule="evenodd" d="M3.59961 4.79998C3.59961 4.13723 4.13687 3.59998 4.79961 3.59998H19.1996C19.8624 3.59998 20.3996 4.13723 20.3996 4.79998C20.3996 5.46272 19.8624 5.99998 19.1996 5.99998H4.79961C4.13687 5.99998 3.59961 5.46272 3.59961 4.79998ZM3.59961 9.59998C3.59961 8.93723 4.13687 8.39998 4.79961 8.39998H19.1996C19.8624 8.39998 20.3996 8.93723 20.3996 9.59998C20.3996 10.2627 19.8624 10.8 19.1996 10.8H4.79961C4.13687 10.8 3.59961 10.2627 3.59961 9.59998ZM3.59961 14.4C3.59961 13.7372 4.13687 13.2 4.79961 13.2H19.1996C19.8624 13.2 20.3996 13.7372 20.3996 14.4C20.3996 15.0627 19.8624 15.6 19.1996 15.6H4.79961C4.13687 15.6 3.59961 15.0627 3.59961 14.4ZM3.59961 19.2C3.59961 18.5372 4.13687 18 4.79961 18H19.1996C19.8624 18 20.3996 18.5372 20.3996 19.2C20.3996 19.8627 19.8624 20.4 19.1996 20.4H4.79961C4.13687 20.4 3.59961 19.8627 3.59961 19.2Z" fill="black" fill-opacity="0.2"/>
</svg>
