<svg width="24" height="24" viewBox="0 0 24 24" fill="none" xmlns="http://www.w3.org/2000/svg">
<path d="M2.40039 4.79998C2.40039 4.13723 2.93765 3.59998 3.60039 3.59998H6.00039C6.66313 3.59998 7.20039 4.13723 7.20039 4.79998V19.2C7.20039 19.8627 6.66313 20.4 6.00039 20.4H3.60039C2.93765 20.4 2.40039 19.8627 2.40039 19.2V4.79998Z" fill="#00142E"/>
<path d="M2.40039 4.79998C2.40039 4.13723 2.93765 3.59998 3.60039 3.59998H6.00039C6.66313 3.59998 7.20039 4.13723 7.20039 4.79998V19.2C7.20039 19.8627 6.66313 20.4 6.00039 20.4H3.60039C2.93765 20.4 2.40039 19.8627 2.40039 19.2V4.79998Z" fill="black" fill-opacity="0.2"/>
<path d="M9.60039 4.79998C9.60039 4.13723 10.1376 3.59998 10.8004 3.59998H13.2004C13.8631 3.59998 14.4004 4.13723 14.4004 4.79998V19.2C14.4004 19.8627 13.8631 20.4 13.2004 20.4H10.8004C10.1376 20.4 9.60039 19.8627 9.60039 19.2V4.79998Z" fill="#00142E"/>
<path d="M9.60039 4.79998C9.60039 4.13723 10.1376 3.59998 10.8004 3.59998H13.2004C13.8631 3.59998 14.4004 4.13723 14.4004 4.79998V19.2C14.4004 19.8627 13.8631 20.4 13.2004 20.4H10.8004C10.1376 20.4 9.60039 19.8627 9.60039 19.2V4.79998Z" fill="black" fill-opacity="0.2"/>
<path d="M18.0004 3.59998C17.3376 3.59998 16.8004 4.13723 16.8004 4.79998V19.2C16.8004 19.8627 17.3376 20.4 18.0004 20.4H20.4004C21.0631 20.4 21.6004 19.8627 21.6004 19.2V4.79998C21.6004 4.13723 21.0631 3.59998 20.4004 3.59998H18.0004Z" fill="#00142E"/>
<path d="M18.0004 3.59998C17.3376 3.59998 16.8004 4.13723 16.8004 4.79998V19.2C16.8004 19.8627 17.3376 20.4 18.0004 20.4H20.4004C21.0631 20.4 21.6004 19.8627 21.6004 19.2V4.79998C21.6004 4.13723 21.0631 3.59998 20.4004 3.59998H18.0004Z" fill="black" fill-opacity="0.2"/>
</svg>
