<svg width="24" height="24" viewBox="0 0 24 24" fill="none" xmlns="http://www.w3.org/2000/svg">
<path fill-rule="evenodd" clip-rule="evenodd" d="M11.2594 3.6914C11.7078 3.87714 12.0002 4.3147 12.0002 4.80006V19.2001C12.0002 19.6854 11.7078 20.123 11.2594 20.3087C10.811 20.4945 10.2949 20.3918 9.95167 20.0486L5.50314 15.6001H2.4002C1.73745 15.6001 1.2002 15.0628 1.2002 14.4001V9.60006C1.2002 8.93732 1.73745 8.40006 2.4002 8.40006H5.50314L9.95167 3.95153C10.2949 3.60833 10.811 3.50567 11.2594 3.6914Z" fill="#00142E"/>
<path fill-rule="evenodd" clip-rule="evenodd" d="M11.2594 3.6914C11.7078 3.87714 12.0002 4.3147 12.0002 4.80006V19.2001C12.0002 19.6854 11.7078 20.123 11.2594 20.3087C10.811 20.4945 10.2949 20.3918 9.95167 20.0486L5.50314 15.6001H2.4002C1.73745 15.6001 1.2002 15.0628 1.2002 14.4001V9.60006C1.2002 8.93732 1.73745 8.40006 2.4002 8.40006H5.50314L9.95167 3.95153C10.2949 3.60833 10.811 3.50567 11.2594 3.6914Z" fill="black" fill-opacity="0.2"/>
<path fill-rule="evenodd" clip-rule="evenodd" d="M17.5884 3.51468C18.057 3.04605 18.8168 3.04605 19.2855 3.51468C21.4557 5.68494 22.8002 8.68658 22.8002 12C22.8002 15.3133 21.4557 18.315 19.2855 20.4852C18.8168 20.9539 18.057 20.9539 17.5884 20.4852C17.1198 20.0166 17.1198 19.2568 17.5884 18.7882C19.327 17.0496 20.4002 14.6513 20.4002 12C20.4002 9.34866 19.327 6.95031 17.5884 5.21174C17.1198 4.74311 17.1198 3.98331 17.5884 3.51468ZM14.1943 6.90879C14.6629 6.44016 15.4227 6.44016 15.8913 6.90879C16.5224 7.53985 17.0374 8.28827 17.4006 9.11952C17.7866 10.0031 18.0002 10.9782 18.0002 12C18.0002 13.9879 17.193 15.7895 15.8913 17.0911C15.4227 17.5598 14.6629 17.5598 14.1943 17.0911C13.7257 16.6225 13.7257 15.8627 14.1943 15.3941C15.0642 14.5241 15.6002 13.3258 15.6002 12C15.6002 11.3151 15.4575 10.6667 15.2013 10.0804C14.9597 9.52752 14.6164 9.02795 14.1943 8.60585C13.7257 8.13722 13.7257 7.37742 14.1943 6.90879Z" fill="#00142E"/>
<path fill-rule="evenodd" clip-rule="evenodd" d="M17.5884 3.51468C18.057 3.04605 18.8168 3.04605 19.2855 3.51468C21.4557 5.68494 22.8002 8.68658 22.8002 12C22.8002 15.3133 21.4557 18.315 19.2855 20.4852C18.8168 20.9539 18.057 20.9539 17.5884 20.4852C17.1198 20.0166 17.1198 19.2568 17.5884 18.7882C19.327 17.0496 20.4002 14.6513 20.4002 12C20.4002 9.34866 19.327 6.95031 17.5884 5.21174C17.1198 4.74311 17.1198 3.98331 17.5884 3.51468ZM14.1943 6.90879C14.6629 6.44016 15.4227 6.44016 15.8913 6.90879C16.5224 7.53985 17.0374 8.28827 17.4006 9.11952C17.7866 10.0031 18.0002 10.9782 18.0002 12C18.0002 13.9879 17.193 15.7895 15.8913 17.0911C15.4227 17.5598 14.6629 17.5598 14.1943 17.0911C13.7257 16.6225 13.7257 15.8627 14.1943 15.3941C15.0642 14.5241 15.6002 13.3258 15.6002 12C15.6002 11.3151 15.4575 10.6667 15.2013 10.0804C14.9597 9.52752 14.6164 9.02795 14.1943 8.60585C13.7257 8.13722 13.7257 7.37742 14.1943 6.90879Z" fill="black" fill-opacity="0.2"/>
</svg>
