<svg width="24" height="24" viewBox="0 0 24 24" fill="none" xmlns="http://www.w3.org/2000/svg">
<path fill-rule="evenodd" clip-rule="evenodd" d="M11.2594 3.69136C11.7078 3.87709 12.0002 4.31466 12.0002 4.80001V19.2C12.0002 19.6854 11.7078 20.1229 11.2594 20.3087C10.811 20.4944 10.2949 20.3917 9.95167 20.0485L5.50314 15.6H2.4002C1.73745 15.6 1.2002 15.0628 1.2002 14.4V9.60001C1.2002 8.93727 1.73745 8.40001 2.4002 8.40001H5.50314L9.95167 3.95148C10.2949 3.60828 10.811 3.50562 11.2594 3.69136Z" fill="#00142E"/>
<path fill-rule="evenodd" clip-rule="evenodd" d="M11.2594 3.69136C11.7078 3.87709 12.0002 4.31466 12.0002 4.80001V19.2C12.0002 19.6854 11.7078 20.1229 11.2594 20.3087C10.811 20.4944 10.2949 20.3917 9.95167 20.0485L5.50314 15.6H2.4002C1.73745 15.6 1.2002 15.0628 1.2002 14.4V9.60001C1.2002 8.93727 1.73745 8.40001 2.4002 8.40001H5.50314L9.95167 3.95148C10.2949 3.60828 10.811 3.50562 11.2594 3.69136Z" fill="black" fill-opacity="0.2"/>
<path fill-rule="evenodd" clip-rule="evenodd" d="M14.7517 8.75145C15.2203 8.28282 15.9801 8.28282 16.4487 8.75145L18.0002 10.3029L19.5517 8.75145C20.0203 8.28282 20.7801 8.28282 21.2487 8.75145C21.7174 9.22008 21.7174 9.97987 21.2487 10.4485L19.6973 12L21.2487 13.5514C21.7173 14.0201 21.7174 14.7799 21.2487 15.2485C20.7801 15.7171 20.0203 15.7171 19.5517 15.2485L18.0002 13.697L16.4487 15.2485C15.9801 15.7171 15.2203 15.7171 14.7517 15.2485C14.283 14.7799 14.283 14.0201 14.7517 13.5514L16.3031 12L14.7517 10.4485C14.283 9.97987 14.283 9.22008 14.7517 8.75145Z" fill="#00142E"/>
<path fill-rule="evenodd" clip-rule="evenodd" d="M14.7517 8.75145C15.2203 8.28282 15.9801 8.28282 16.4487 8.75145L18.0002 10.3029L19.5517 8.75145C20.0203 8.28282 20.7801 8.28282 21.2487 8.75145C21.7174 9.22008 21.7174 9.97987 21.2487 10.4485L19.6973 12L21.2487 13.5514C21.7173 14.0201 21.7174 14.7799 21.2487 15.2485C20.7801 15.7171 20.0203 15.7171 19.5517 15.2485L18.0002 13.697L16.4487 15.2485C15.9801 15.7171 15.2203 15.7171 14.7517 15.2485C14.283 14.7799 14.283 14.0201 14.7517 13.5514L16.3031 12L14.7517 10.4485C14.283 9.97987 14.283 9.22008 14.7517 8.75145Z" fill="black" fill-opacity="0.2"/>
</svg>
