<svg width="24" height="24" viewBox="0 0 24 24" fill="none" xmlns="http://www.w3.org/2000/svg">
<path fill-rule="evenodd" clip-rule="evenodd" d="M21.3333 9.86617C16.1784 4.71125 7.82064 4.71125 2.66572 9.86617C2.19709 10.3348 1.43729 10.3348 0.968659 9.86617C0.50003 9.39754 0.50003 8.63774 0.968659 8.16911C7.06084 2.07693 16.9382 2.07693 23.0304 8.16911C23.499 8.63774 23.499 9.39754 23.0304 9.86617C22.5618 10.3348 21.802 10.3348 21.3333 9.86617ZM17.9392 13.2603C14.6588 9.97988 9.34023 9.97988 6.05983 13.2603C5.5912 13.7289 4.8314 13.7289 4.36277 13.2603C3.89414 12.7917 3.89414 12.0319 4.36277 11.5632C8.58043 7.34557 15.4186 7.34557 19.6363 11.5632C20.1049 12.0319 20.1049 12.7917 19.6363 13.2603C19.1676 13.7289 18.4078 13.7289 17.9392 13.2603ZM14.5451 16.6544C13.1392 15.2485 10.8598 15.2485 9.45394 16.6544C8.98531 17.123 8.22551 17.123 7.75688 16.6544C7.28825 16.1858 7.28825 15.426 7.75688 14.9574C10.1 12.6142 13.899 12.6142 16.2422 14.9574C16.7108 15.426 16.7108 16.1858 16.2422 16.6544C15.7735 17.123 15.0137 17.123 14.5451 16.6544ZM10.7995 19.2C10.7995 18.5373 11.3368 18 11.9995 18H12.0115C12.6743 18 13.2115 18.5373 13.2115 19.2C13.2115 19.8627 12.6743 20.4 12.0115 20.4H11.9995C11.3368 20.4 10.7995 19.8627 10.7995 19.2Z" fill="#00142E"/>
<path fill-rule="evenodd" clip-rule="evenodd" d="M21.3333 9.86617C16.1784 4.71125 7.82064 4.71125 2.66572 9.86617C2.19709 10.3348 1.43729 10.3348 0.968659 9.86617C0.50003 9.39754 0.50003 8.63774 0.968659 8.16911C7.06084 2.07693 16.9382 2.07693 23.0304 8.16911C23.499 8.63774 23.499 9.39754 23.0304 9.86617C22.5618 10.3348 21.802 10.3348 21.3333 9.86617ZM17.9392 13.2603C14.6588 9.97988 9.34023 9.97988 6.05983 13.2603C5.5912 13.7289 4.8314 13.7289 4.36277 13.2603C3.89414 12.7917 3.89414 12.0319 4.36277 11.5632C8.58043 7.34557 15.4186 7.34557 19.6363 11.5632C20.1049 12.0319 20.1049 12.7917 19.6363 13.2603C19.1676 13.7289 18.4078 13.7289 17.9392 13.2603ZM14.5451 16.6544C13.1392 15.2485 10.8598 15.2485 9.45394 16.6544C8.98531 17.123 8.22551 17.123 7.75688 16.6544C7.28825 16.1858 7.28825 15.426 7.75688 14.9574C10.1 12.6142 13.899 12.6142 16.2422 14.9574C16.7108 15.426 16.7108 16.1858 16.2422 16.6544C15.7735 17.123 15.0137 17.123 14.5451 16.6544ZM10.7995 19.2C10.7995 18.5373 11.3368 18 11.9995 18H12.0115C12.6743 18 13.2115 18.5373 13.2115 19.2C13.2115 19.8627 12.6743 20.4 12.0115 20.4H11.9995C11.3368 20.4 10.7995 19.8627 10.7995 19.2Z" fill="black" fill-opacity="0.2"/>
</svg>
