<svg width="24" height="24" viewBox="0 0 24 24" fill="none" xmlns="http://www.w3.org/2000/svg">
<path fill-rule="evenodd" clip-rule="evenodd" d="M12.0004 21.6C17.3023 21.6 21.6004 17.302 21.6004 12C21.6004 6.69809 17.3023 2.40002 12.0004 2.40002C6.69846 2.40002 2.40039 6.69809 2.40039 12C2.40039 17.302 6.69846 21.6 12.0004 21.6ZM10.4489 8.7515C9.98029 8.28287 9.22049 8.28287 8.75186 8.7515C8.28323 9.22013 8.28323 9.97992 8.75186 10.4486L10.3033 12L8.75186 13.5515C8.28323 14.0201 8.28323 14.7799 8.75186 15.2486C9.22049 15.7172 9.98029 15.7172 10.4489 15.2486L12.0004 13.6971L13.5519 15.2486C14.0205 15.7172 14.7803 15.7172 15.2489 15.2486C15.7175 14.7799 15.7175 14.0201 15.2489 13.5515L13.6974 12L15.2489 10.4486C15.7175 9.97992 15.7175 9.22013 15.2489 8.7515C14.7803 8.28287 14.0205 8.28287 13.5519 8.7515L12.0004 10.303L10.4489 8.7515Z" fill="#00142E"/>
<path fill-rule="evenodd" clip-rule="evenodd" d="M12.0004 21.6C17.3023 21.6 21.6004 17.302 21.6004 12C21.6004 6.69809 17.3023 2.40002 12.0004 2.40002C6.69846 2.40002 2.40039 6.69809 2.40039 12C2.40039 17.302 6.69846 21.6 12.0004 21.6ZM10.4489 8.7515C9.98029 8.28287 9.22049 8.28287 8.75186 8.7515C8.28323 9.22013 8.28323 9.97992 8.75186 10.4486L10.3033 12L8.75186 13.5515C8.28323 14.0201 8.28323 14.7799 8.75186 15.2486C9.22049 15.7172 9.98029 15.7172 10.4489 15.2486L12.0004 13.6971L13.5519 15.2486C14.0205 15.7172 14.7803 15.7172 15.2489 15.2486C15.7175 14.7799 15.7175 14.0201 15.2489 13.5515L13.6974 12L15.2489 10.4486C15.7175 9.97992 15.7175 9.22013 15.2489 8.7515C14.7803 8.28287 14.0205 8.28287 13.5519 8.7515L12.0004 10.303L10.4489 8.7515Z" fill="black" fill-opacity="0.2"/>
</svg>
