<svg width="24" height="24" viewBox="0 0 24 24" fill="none" xmlns="http://www.w3.org/2000/svg">
<path d="M6.00039 9.60002C6.00039 8.93728 6.53765 8.40002 7.20039 8.40002H8.40039V7.20002C8.40039 6.53728 8.93765 6.00002 9.60039 6.00002C10.2631 6.00002 10.8004 6.53728 10.8004 7.20002V8.40002H12.0004C12.6631 8.40002 13.2004 8.93728 13.2004 9.60002C13.2004 10.2628 12.6631 10.8 12.0004 10.8H10.8004V12C10.8004 12.6628 10.2631 13.2 9.60039 13.2C8.93765 13.2 8.40039 12.6628 8.40039 12V10.8H7.20039C6.53765 10.8 6.00039 10.2628 6.00039 9.60002Z" fill="#00142E"/>
<path d="M6.00039 9.60002C6.00039 8.93728 6.53765 8.40002 7.20039 8.40002H8.40039V7.20002C8.40039 6.53728 8.93765 6.00002 9.60039 6.00002C10.2631 6.00002 10.8004 6.53728 10.8004 7.20002V8.40002H12.0004C12.6631 8.40002 13.2004 8.93728 13.2004 9.60002C13.2004 10.2628 12.6631 10.8 12.0004 10.8H10.8004V12C10.8004 12.6628 10.2631 13.2 9.60039 13.2C8.93765 13.2 8.40039 12.6628 8.40039 12V10.8H7.20039C6.53765 10.8 6.00039 10.2628 6.00039 9.60002Z" fill="black" fill-opacity="0.2"/>
<path fill-rule="evenodd" clip-rule="evenodd" d="M2.40039 9.60002C2.40039 5.62357 5.62394 2.40002 9.60039 2.40002C13.5768 2.40002 16.8004 5.62357 16.8004 9.60002C16.8004 11.155 16.3074 12.5949 15.4693 13.7719L21.2489 19.5515C21.7175 20.0201 21.7175 20.7799 21.2489 21.2486C20.7803 21.7172 20.0205 21.7172 19.5519 21.2486L13.7722 15.4689C12.5953 16.3071 11.1554 16.8 9.60039 16.8C5.62394 16.8 2.40039 13.5765 2.40039 9.60002ZM9.60039 4.80002C6.94942 4.80002 4.80039 6.94906 4.80039 9.60002C4.80039 12.251 6.94942 14.4 9.60039 14.4C12.2514 14.4 14.4004 12.251 14.4004 9.60002C14.4004 6.94906 12.2514 4.80002 9.60039 4.80002Z" fill="#00142E"/>
<path fill-rule="evenodd" clip-rule="evenodd" d="M2.40039 9.60002C2.40039 5.62357 5.62394 2.40002 9.60039 2.40002C13.5768 2.40002 16.8004 5.62357 16.8004 9.60002C16.8004 11.155 16.3074 12.5949 15.4693 13.7719L21.2489 19.5515C21.7175 20.0201 21.7175 20.7799 21.2489 21.2486C20.7803 21.7172 20.0205 21.7172 19.5519 21.2486L13.7722 15.4689C12.5953 16.3071 11.1554 16.8 9.60039 16.8C5.62394 16.8 2.40039 13.5765 2.40039 9.60002ZM9.60039 4.80002C6.94942 4.80002 4.80039 6.94906 4.80039 9.60002C4.80039 12.251 6.94942 14.4 9.60039 14.4C12.2514 14.4 14.4004 12.251 14.4004 9.60002C14.4004 6.94906 12.2514 4.80002 9.60039 4.80002Z" fill="black" fill-opacity="0.2"/>
</svg>
