<svg width="350" height="210" viewBox="0 0 350 210" fill="none" xmlns="http://www.w3.org/2000/svg">
<path d="M210 105C210 102.239 212.239 100 215 100H225C227.761 100 230 102.239 230 105C230 107.761 227.761 110 225 110H215C212.239 110 210 107.761 210 105Z" fill="#FEFEFE"/>
<path d="M180 105C180 102.239 182.239 100 185 100H195C197.761 100 200 102.239 200 105C200 107.761 197.761 110 195 110H185C182.239 110 180 107.761 180 105Z" fill="#FEFEFE"/>
<path d="M120 105C120 102.239 122.239 100 125 100H165C167.761 100 170 102.239 170 105C170 107.761 167.761 110 165 110H125C122.239 110 120 107.761 120 105Z" fill="#066FEF"/>
<rect x="72" y="105" width="43" height="1" fill="#C54600"/>
<g clip-path="url(#clip0_3681_9441)">
<rect x="72" y="93" width="24" height="24" rx="12" fill="#C54600"/>
<path d="M85.5687 100.273V109H83.7235V102.024H83.6724L81.6738 103.277V101.641L83.8343 100.273H85.5687Z" fill="white"/>
</g>
<g clip-path="url(#clip1_3681_9441)">
<rect x="220" y="52" width="1" height="48" fill="#C54600"/>
<g clip-path="url(#clip2_3681_9441)">
<rect x="208" y="52" width="24" height="24" rx="12" fill="#C54600"/>
<path d="M216.928 68V66.6705L220.035 63.794C220.299 63.5384 220.52 63.3082 220.699 63.1037C220.881 62.8991 221.019 62.6989 221.113 62.5028C221.206 62.304 221.253 62.0895 221.253 61.8594C221.253 61.6037 221.195 61.3835 221.079 61.1989C220.962 61.0114 220.803 60.8679 220.601 60.7685C220.4 60.6662 220.171 60.6151 219.915 60.6151C219.648 60.6151 219.415 60.669 219.216 60.777C219.018 60.8849 218.864 61.0398 218.756 61.2415C218.648 61.4432 218.594 61.6832 218.594 61.9616H216.843C216.843 61.3906 216.972 60.8949 217.231 60.4744C217.489 60.054 217.851 59.7287 218.317 59.4986C218.783 59.2685 219.32 59.1534 219.928 59.1534C220.553 59.1534 221.097 59.2642 221.56 59.4858C222.026 59.7045 222.388 60.0085 222.647 60.3977C222.905 60.7869 223.035 61.233 223.035 61.7358C223.035 62.0653 222.969 62.3906 222.839 62.7116C222.711 63.0327 222.482 63.3892 222.153 63.7812C221.823 64.1705 221.358 64.6378 220.759 65.1832L219.485 66.4318V66.4915H223.15V68H216.928Z" fill="white"/>
</g>
</g>
<g clip-path="url(#clip3_3681_9441)">
<rect x="190" y="52" width="1" height="48" fill="#C54600"/>
<g clip-path="url(#clip4_3681_9441)">
<rect x="178" y="52" width="24" height="24" rx="12" fill="#C54600"/>
<path d="M189.978 68.1193C189.342 68.1193 188.775 68.0099 188.278 67.7912C187.784 67.5696 187.393 67.2656 187.106 66.8793C186.822 66.4901 186.676 66.0412 186.667 65.5327H188.525C188.536 65.7457 188.606 65.9332 188.734 66.0952C188.865 66.2543 189.038 66.3778 189.254 66.4659C189.47 66.554 189.713 66.598 189.982 66.598C190.264 66.598 190.512 66.5483 190.728 66.4489C190.944 66.3494 191.113 66.2116 191.235 66.0355C191.357 65.8594 191.419 65.6562 191.419 65.4261C191.419 65.1932 191.353 64.9872 191.222 64.8082C191.095 64.6264 190.91 64.4844 190.669 64.3821C190.43 64.2798 190.146 64.2287 189.816 64.2287H189.002V62.8736H189.816C190.095 62.8736 190.34 62.8253 190.553 62.7287C190.769 62.6321 190.937 62.4986 191.056 62.3281C191.176 62.1548 191.235 61.9531 191.235 61.723C191.235 61.5043 191.183 61.3125 191.078 61.1477C190.975 60.9801 190.83 60.8494 190.643 60.7557C190.458 60.6619 190.242 60.6151 189.995 60.6151C189.745 60.6151 189.517 60.6605 189.309 60.7514C189.102 60.8395 188.936 60.9659 188.811 61.1307C188.686 61.2955 188.619 61.4886 188.61 61.7102H186.842C186.85 61.2074 186.994 60.7642 187.272 60.3807C187.551 59.9972 187.926 59.6974 188.397 59.4815C188.872 59.2628 189.407 59.1534 190.004 59.1534C190.606 59.1534 191.133 59.2628 191.585 59.4815C192.036 59.7003 192.387 59.9957 192.637 60.3679C192.89 60.7372 193.015 61.152 193.012 61.6122C193.015 62.1009 192.863 62.5085 192.556 62.8352C192.252 63.1619 191.856 63.3693 191.367 63.4574V63.5256C192.009 63.608 192.498 63.831 192.833 64.1946C193.171 64.5554 193.339 65.0071 193.336 65.5497C193.339 66.0469 193.195 66.4886 192.906 66.875C192.619 67.2614 192.222 67.5653 191.717 67.7869C191.211 68.0085 190.632 68.1193 189.978 68.1193Z" fill="white"/>
</g>
</g>
<g clip-path="url(#clip5_3681_9441)">
<rect x="145" y="52" width="1" height="48" fill="#C54600"/>
<g clip-path="url(#clip6_3681_9441)">
<rect x="133" y="52" width="24" height="24" rx="12" fill="#C54600"/>
<path d="M141.509 66.4659V65.0128L145.152 59.2727H146.405V61.2841H145.664L143.367 64.919V64.9872H148.544V66.4659H141.509ZM145.698 68V66.0227L145.732 65.3793V59.2727H147.462V68H145.698Z" fill="white"/>
</g>
</g>
<defs>
<clipPath id="clip0_3681_9441">
<rect x="72" y="93" width="24" height="24" rx="12" fill="white"/>
</clipPath>
<clipPath id="clip1_3681_9441">
<rect width="24" height="48" fill="white" transform="translate(208 52)"/>
</clipPath>
<clipPath id="clip2_3681_9441">
<rect x="208" y="52" width="24" height="24" rx="12" fill="white"/>
</clipPath>
<clipPath id="clip3_3681_9441">
<rect width="24" height="48" fill="white" transform="translate(178 52)"/>
</clipPath>
<clipPath id="clip4_3681_9441">
<rect x="178" y="52" width="24" height="24" rx="12" fill="white"/>
</clipPath>
<clipPath id="clip5_3681_9441">
<rect width="24" height="48" fill="white" transform="translate(133 52)"/>
</clipPath>
<clipPath id="clip6_3681_9441">
<rect x="133" y="52" width="24" height="24" rx="12" fill="white"/>
</clipPath>
</defs>
</svg>
