<svg width="300" height="260" viewBox="0 0 300 260" fill="none" xmlns="http://www.w3.org/2000/svg">
<path d="M178 149C178 151.209 176.209 153 174 153C171.791 153 170 151.209 170 149C170 146.791 171.791 145 174 145C176.209 145 178 146.791 178 149Z" stroke="#FEFEFE" stroke-width="2" stroke-linecap="round" stroke-linejoin="round"/>
<path d="M174 156C170.134 156 167 159.134 167 163H181C181 159.134 177.866 156 174 156Z" stroke="#FEFEFE" stroke-width="2" stroke-linecap="round" stroke-linejoin="round"/>
<g clip-path="url(#clip0_3737_676)">
<rect x="96" y="154" width="48" height="1" fill="#C54600"/>
<g clip-path="url(#clip1_3737_676)">
<rect x="96" y="142" width="24" height="24" rx="12" fill="#C54600"/>
<path d="M109.569 149.273V158H107.724V151.024H107.672L105.674 152.277V150.641L107.834 149.273H109.569Z" fill="white"/>
</g>
</g>
<g clip-path="url(#clip2_3737_676)">
<rect x="174" y="76" width="1" height="66" fill="#C54600"/>
<g clip-path="url(#clip3_3737_676)">
<rect x="162" y="76" width="24" height="24" rx="12" fill="#C54600"/>
<path d="M170.928 92V90.6705L174.035 87.794C174.299 87.5384 174.52 87.3082 174.699 87.1037C174.881 86.8991 175.019 86.6989 175.113 86.5028C175.206 86.304 175.253 86.0895 175.253 85.8594C175.253 85.6037 175.195 85.3835 175.079 85.1989C174.962 85.0114 174.803 84.8679 174.601 84.7685C174.4 84.6662 174.171 84.6151 173.915 84.6151C173.648 84.6151 173.415 84.669 173.216 84.777C173.018 84.8849 172.864 85.0398 172.756 85.2415C172.648 85.4432 172.594 85.6832 172.594 85.9616H170.843C170.843 85.3906 170.972 84.8949 171.231 84.4744C171.489 84.054 171.851 83.7287 172.317 83.4986C172.783 83.2685 173.32 83.1534 173.928 83.1534C174.553 83.1534 175.097 83.2642 175.56 83.4858C176.026 83.7045 176.388 84.0085 176.647 84.3977C176.905 84.7869 177.035 85.233 177.035 85.7358C177.035 86.0653 176.969 86.3906 176.839 86.7116C176.711 87.0327 176.482 87.3892 176.153 87.7812C175.823 88.1705 175.358 88.6378 174.759 89.1832L173.485 90.4318V90.4915H177.15V92H170.928Z" fill="white"/>
</g>
</g>
<defs>
<clipPath id="clip0_3737_676">
<rect width="48" height="24" fill="white" transform="translate(96 142)"/>
</clipPath>
<clipPath id="clip1_3737_676">
<rect x="96" y="142" width="24" height="24" rx="12" fill="white"/>
</clipPath>
<clipPath id="clip2_3737_676">
<rect width="24" height="66" fill="white" transform="translate(162 76)"/>
</clipPath>
<clipPath id="clip3_3737_676">
<rect x="162" y="76" width="24" height="24" rx="12" fill="white"/>
</clipPath>
</defs>
</svg>
