<svg width="340" height="238" viewBox="0 0 340 238" fill="none" xmlns="http://www.w3.org/2000/svg">
<rect x="120" y="100" width="100" height="38" rx="19" fill="#0565D9"/>
<path d="M136.923 124V113.979H138.844V117.588C139.436 116.913 140.138 116.576 140.949 116.576C141.833 116.576 142.565 116.897 143.144 117.54C143.722 118.178 144.012 119.096 144.012 120.295C144.012 121.535 143.715 122.489 143.123 123.159C142.535 123.829 141.82 124.164 140.977 124.164C140.562 124.164 140.152 124.062 139.746 123.856C139.345 123.647 138.999 123.339 138.707 122.934V124H136.923ZM138.83 120.213C138.83 120.965 138.949 121.521 139.186 121.881C139.518 122.391 139.96 122.646 140.512 122.646C140.936 122.646 141.296 122.466 141.592 122.106C141.893 121.742 142.043 121.17 142.043 120.391C142.043 119.561 141.893 118.964 141.592 118.6C141.291 118.23 140.906 118.046 140.437 118.046C139.976 118.046 139.593 118.226 139.288 118.586C138.983 118.941 138.83 119.484 138.83 120.213ZM150.342 124V122.913C150.077 123.3 149.729 123.606 149.296 123.829C148.868 124.052 148.414 124.164 147.936 124.164C147.448 124.164 147.01 124.057 146.623 123.843C146.236 123.629 145.955 123.328 145.782 122.94C145.609 122.553 145.522 122.018 145.522 121.334V116.74H147.443V120.076C147.443 121.097 147.478 121.724 147.546 121.956C147.619 122.184 147.749 122.366 147.936 122.503C148.122 122.635 148.359 122.701 148.646 122.701C148.975 122.701 149.269 122.612 149.528 122.435C149.788 122.252 149.966 122.029 150.062 121.765C150.157 121.496 150.205 120.842 150.205 119.803V116.74H152.126V124H150.342ZM157.451 116.74V118.271H156.139V121.197C156.139 121.79 156.15 122.136 156.173 122.236C156.2 122.332 156.257 122.412 156.344 122.476C156.435 122.539 156.544 122.571 156.672 122.571C156.85 122.571 157.107 122.51 157.444 122.387L157.608 123.877C157.162 124.068 156.656 124.164 156.091 124.164C155.744 124.164 155.432 124.107 155.154 123.993C154.876 123.875 154.671 123.724 154.539 123.542C154.411 123.355 154.323 123.104 154.272 122.79C154.231 122.567 154.211 122.116 154.211 121.437V118.271H153.329V116.74H154.211V115.298L156.139 114.177V116.74H157.451ZM162.113 116.74V118.271H160.801V121.197C160.801 121.79 160.812 122.136 160.835 122.236C160.862 122.332 160.919 122.412 161.006 122.476C161.097 122.539 161.206 122.571 161.334 122.571C161.512 122.571 161.769 122.51 162.106 122.387L162.271 123.877C161.824 124.068 161.318 124.164 160.753 124.164C160.407 124.164 160.094 124.107 159.816 123.993C159.538 123.875 159.333 123.724 159.201 123.542C159.074 123.355 158.985 123.104 158.935 122.79C158.894 122.567 158.873 122.116 158.873 121.437V118.271H157.991V116.74H158.873V115.298L160.801 114.177V116.74H162.113ZM163.002 120.268C163.002 119.63 163.159 119.012 163.474 118.415C163.788 117.818 164.232 117.362 164.807 117.048C165.385 116.733 166.03 116.576 166.741 116.576C167.84 116.576 168.74 116.934 169.441 117.649C170.143 118.36 170.494 119.26 170.494 120.35C170.494 121.448 170.139 122.359 169.428 123.084C168.721 123.804 167.83 124.164 166.755 124.164C166.09 124.164 165.454 124.014 164.848 123.713C164.246 123.412 163.788 122.972 163.474 122.394C163.159 121.81 163.002 121.102 163.002 120.268ZM164.971 120.37C164.971 121.09 165.142 121.642 165.483 122.024C165.825 122.407 166.247 122.599 166.748 122.599C167.249 122.599 167.669 122.407 168.006 122.024C168.348 121.642 168.519 121.086 168.519 120.356C168.519 119.646 168.348 119.099 168.006 118.716C167.669 118.333 167.249 118.142 166.748 118.142C166.247 118.142 165.825 118.333 165.483 118.716C165.142 119.099 164.971 119.65 164.971 120.37ZM178.608 124H176.688V120.295C176.688 119.511 176.646 119.005 176.564 118.777C176.482 118.545 176.348 118.365 176.161 118.237C175.979 118.11 175.758 118.046 175.498 118.046C175.165 118.046 174.867 118.137 174.603 118.319C174.338 118.502 174.156 118.743 174.056 119.044C173.96 119.345 173.912 119.901 173.912 120.712V124H171.991V116.74H173.775V117.807C174.409 116.986 175.206 116.576 176.168 116.576C176.592 116.576 176.979 116.654 177.33 116.809C177.681 116.959 177.945 117.153 178.123 117.39C178.305 117.627 178.431 117.896 178.499 118.196C178.572 118.497 178.608 118.928 178.608 119.488V124Z" fill="#FEFEFE"/>
<path d="M198 114.333L202.667 119L198 123.667" stroke="#FEFEFE" stroke-width="2" stroke-linecap="round" stroke-linejoin="round"/>
</svg>
