<svg width="340" height="238" viewBox="0 0 340 238" fill="none" xmlns="http://www.w3.org/2000/svg">
<rect x="119" y="100" width="102" height="38" rx="19" fill="#066FEF"/>
<path d="M136.055 125V113.547H138.25V117.672C138.927 116.901 139.729 116.516 140.656 116.516C141.667 116.516 142.503 116.883 143.164 117.617C143.826 118.346 144.156 119.396 144.156 120.766C144.156 122.182 143.818 123.273 143.141 124.039C142.469 124.805 141.651 125.188 140.688 125.188C140.214 125.188 139.745 125.07 139.281 124.836C138.823 124.596 138.427 124.245 138.094 123.781V125H136.055ZM138.234 120.672C138.234 121.531 138.37 122.167 138.641 122.578C139.021 123.161 139.526 123.453 140.156 123.453C140.641 123.453 141.052 123.247 141.391 122.836C141.734 122.419 141.906 121.766 141.906 120.875C141.906 119.927 141.734 119.245 141.391 118.828C141.047 118.406 140.607 118.195 140.07 118.195C139.544 118.195 139.107 118.401 138.758 118.812C138.409 119.219 138.234 119.839 138.234 120.672ZM151.391 125V123.758C151.089 124.201 150.69 124.549 150.195 124.805C149.706 125.06 149.188 125.188 148.641 125.188C148.083 125.188 147.583 125.065 147.141 124.82C146.698 124.576 146.378 124.232 146.18 123.789C145.982 123.346 145.883 122.734 145.883 121.953V116.703H148.078V120.516C148.078 121.682 148.117 122.398 148.195 122.664C148.279 122.924 148.427 123.133 148.641 123.289C148.854 123.44 149.125 123.516 149.453 123.516C149.828 123.516 150.164 123.414 150.461 123.211C150.758 123.003 150.961 122.747 151.07 122.445C151.18 122.138 151.234 121.391 151.234 120.203V116.703H153.43V125H151.391ZM159.516 116.703V118.453H158.016V121.797C158.016 122.474 158.029 122.87 158.055 122.984C158.086 123.094 158.151 123.185 158.25 123.258C158.354 123.331 158.479 123.367 158.625 123.367C158.828 123.367 159.122 123.297 159.508 123.156L159.695 124.859C159.185 125.078 158.607 125.188 157.961 125.188C157.565 125.188 157.208 125.122 156.891 124.992C156.573 124.857 156.339 124.685 156.188 124.477C156.042 124.263 155.94 123.977 155.883 123.617C155.836 123.362 155.812 122.846 155.812 122.07V118.453H154.805V116.703H155.812V115.055L158.016 113.773V116.703H159.516ZM164.844 116.703V118.453H163.344V121.797C163.344 122.474 163.357 122.87 163.383 122.984C163.414 123.094 163.479 123.185 163.578 123.258C163.682 123.331 163.807 123.367 163.953 123.367C164.156 123.367 164.451 123.297 164.836 123.156L165.023 124.859C164.513 125.078 163.935 125.188 163.289 125.188C162.893 125.188 162.536 125.122 162.219 124.992C161.901 124.857 161.667 124.685 161.516 124.477C161.37 124.263 161.268 123.977 161.211 123.617C161.164 123.362 161.141 122.846 161.141 122.07V118.453H160.133V116.703H161.141V115.055L163.344 113.773V116.703H164.844ZM165.859 120.734C165.859 120.005 166.039 119.299 166.398 118.617C166.758 117.935 167.266 117.414 167.922 117.055C168.583 116.695 169.32 116.516 170.133 116.516C171.388 116.516 172.417 116.924 173.219 117.742C174.021 118.555 174.422 119.583 174.422 120.828C174.422 122.083 174.016 123.125 173.203 123.953C172.396 124.776 171.378 125.188 170.148 125.188C169.388 125.188 168.661 125.016 167.969 124.672C167.281 124.328 166.758 123.826 166.398 123.164C166.039 122.497 165.859 121.688 165.859 120.734ZM168.109 120.852C168.109 121.674 168.305 122.305 168.695 122.742C169.086 123.18 169.568 123.398 170.141 123.398C170.714 123.398 171.193 123.18 171.578 122.742C171.969 122.305 172.164 121.669 172.164 120.836C172.164 120.023 171.969 119.398 171.578 118.961C171.193 118.523 170.714 118.305 170.141 118.305C169.568 118.305 169.086 118.523 168.695 118.961C168.305 119.398 168.109 120.029 168.109 120.852ZM183.695 125H181.5V120.766C181.5 119.87 181.453 119.292 181.359 119.031C181.266 118.766 181.112 118.56 180.898 118.414C180.69 118.268 180.438 118.195 180.141 118.195C179.76 118.195 179.419 118.299 179.117 118.508C178.815 118.716 178.607 118.992 178.492 119.336C178.383 119.68 178.328 120.315 178.328 121.242V125H176.133V116.703H178.172V117.922C178.896 116.984 179.807 116.516 180.906 116.516C181.391 116.516 181.833 116.604 182.234 116.781C182.635 116.953 182.938 117.174 183.141 117.445C183.349 117.716 183.492 118.023 183.57 118.367C183.654 118.711 183.695 119.203 183.695 119.844V125Z" fill="#FEFEFE"/>
<path d="M199 114.333L203.667 119L199 123.667" stroke="#FEFEFE" stroke-width="2" stroke-linecap="round" stroke-linejoin="round"/>
<g clip-path="url(#clip0_3725_630)">
<rect x="72" y="119" width="48" height="1" fill="#C54600"/>
<g clip-path="url(#clip1_3725_630)">
<rect x="72" y="107" width="24" height="24" rx="12" fill="#C54600"/>
<path d="M85.5687 114.273V123H83.7235V116.024H83.6724L81.6738 117.277V115.641L83.8343 114.273H85.5687Z" fill="white"/>
</g>
</g>
<g clip-path="url(#clip2_3725_630)">
<rect x="157.766" y="124.164" width="1" height="61.8359" fill="#C54600"/>
<g clip-path="url(#clip3_3725_630)">
<rect x="145.766" y="162" width="24" height="24" rx="12" fill="#C54600"/>
<path d="M154.694 178V176.67L157.8 173.794C158.064 173.538 158.286 173.308 158.465 173.104C158.647 172.899 158.785 172.699 158.878 172.503C158.972 172.304 159.019 172.089 159.019 171.859C159.019 171.604 158.961 171.384 158.844 171.199C158.728 171.011 158.569 170.868 158.367 170.768C158.165 170.666 157.937 170.615 157.681 170.615C157.414 170.615 157.181 170.669 156.982 170.777C156.783 170.885 156.63 171.04 156.522 171.241C156.414 171.443 156.36 171.683 156.36 171.962H154.608C154.608 171.391 154.738 170.895 154.996 170.474C155.255 170.054 155.617 169.729 156.083 169.499C156.549 169.268 157.086 169.153 157.694 169.153C158.319 169.153 158.863 169.264 159.326 169.486C159.792 169.705 160.154 170.009 160.412 170.398C160.671 170.787 160.8 171.233 160.8 171.736C160.8 172.065 160.735 172.391 160.604 172.712C160.476 173.033 160.248 173.389 159.918 173.781C159.589 174.17 159.124 174.638 158.525 175.183L157.251 176.432V176.491H160.915V178H154.694Z" fill="white"/>
</g>
</g>
<g clip-path="url(#clip4_3725_630)">
<rect x="200" y="52" width="1" height="59" fill="#C54600"/>
<g clip-path="url(#clip5_3725_630)">
<rect x="188" y="52" width="24" height="24" rx="12" fill="#C54600"/>
<path d="M199.978 68.1193C199.342 68.1193 198.775 68.0099 198.278 67.7912C197.784 67.5696 197.393 67.2656 197.106 66.8793C196.822 66.4901 196.676 66.0412 196.667 65.5327H198.525C198.536 65.7457 198.606 65.9332 198.734 66.0952C198.865 66.2543 199.038 66.3778 199.254 66.4659C199.47 66.554 199.713 66.598 199.982 66.598C200.264 66.598 200.512 66.5483 200.728 66.4489C200.944 66.3494 201.113 66.2116 201.235 66.0355C201.357 65.8594 201.419 65.6562 201.419 65.4261C201.419 65.1932 201.353 64.9872 201.222 64.8082C201.095 64.6264 200.91 64.4844 200.669 64.3821C200.43 64.2798 200.146 64.2287 199.816 64.2287H199.002V62.8736H199.816C200.095 62.8736 200.34 62.8253 200.553 62.7287C200.769 62.6321 200.937 62.4986 201.056 62.3281C201.176 62.1548 201.235 61.9531 201.235 61.723C201.235 61.5043 201.183 61.3125 201.078 61.1477C200.975 60.9801 200.83 60.8494 200.643 60.7557C200.458 60.6619 200.242 60.6151 199.995 60.6151C199.745 60.6151 199.517 60.6605 199.309 60.7514C199.102 60.8395 198.936 60.9659 198.811 61.1307C198.686 61.2955 198.619 61.4886 198.61 61.7102H196.842C196.85 61.2074 196.994 60.7642 197.272 60.3807C197.551 59.9972 197.926 59.6974 198.397 59.4815C198.872 59.2628 199.407 59.1534 200.004 59.1534C200.606 59.1534 201.133 59.2628 201.585 59.4815C202.036 59.7003 202.387 59.9957 202.637 60.3679C202.89 60.7372 203.015 61.152 203.012 61.6122C203.015 62.1009 202.863 62.5085 202.556 62.8352C202.252 63.1619 201.856 63.3693 201.367 63.4574V63.5256C202.009 63.608 202.498 63.831 202.833 64.1946C203.171 64.5554 203.339 65.0071 203.336 65.5497C203.339 66.0469 203.195 66.4886 202.906 66.875C202.619 67.2614 202.222 67.5653 201.717 67.7869C201.211 68.0085 200.632 68.1193 199.978 68.1193Z" fill="white"/>
</g>
</g>
<defs>
<clipPath id="clip0_3725_630">
<rect width="48" height="24" fill="white" transform="translate(72 107)"/>
</clipPath>
<clipPath id="clip1_3725_630">
<rect x="72" y="107" width="24" height="24" rx="12" fill="white"/>
</clipPath>
<clipPath id="clip2_3725_630">
<rect width="24" height="61.8359" fill="white" transform="translate(145.766 124.164)"/>
</clipPath>
<clipPath id="clip3_3725_630">
<rect x="145.766" y="162" width="24" height="24" rx="12" fill="white"/>
</clipPath>
<clipPath id="clip4_3725_630">
<rect width="24" height="59" fill="white" transform="translate(188 52)"/>
</clipPath>
<clipPath id="clip5_3725_630">
<rect x="188" y="52" width="24" height="24" rx="12" fill="white"/>
</clipPath>
</defs>
</svg>
