<svg width="340" height="238" viewBox="0 0 340 238" fill="none" xmlns="http://www.w3.org/2000/svg">
<g opacity="0.2">
<rect x="120" y="100" width="100" height="38" rx="19" fill="#066FEF"/>
<path d="M136.923 124V113.979H138.844V117.588C139.436 116.913 140.138 116.576 140.949 116.576C141.833 116.576 142.565 116.897 143.144 117.54C143.722 118.178 144.012 119.096 144.012 120.295C144.012 121.535 143.715 122.489 143.123 123.159C142.535 123.829 141.82 124.164 140.977 124.164C140.562 124.164 140.152 124.062 139.746 123.856C139.345 123.647 138.999 123.339 138.707 122.934V124H136.923ZM138.83 120.213C138.83 120.965 138.949 121.521 139.186 121.881C139.518 122.391 139.96 122.646 140.512 122.646C140.936 122.646 141.296 122.466 141.592 122.106C141.893 121.742 142.043 121.17 142.043 120.391C142.043 119.561 141.893 118.964 141.592 118.6C141.291 118.23 140.906 118.046 140.437 118.046C139.976 118.046 139.593 118.226 139.288 118.586C138.983 118.941 138.83 119.484 138.83 120.213ZM150.342 124V122.913C150.077 123.3 149.729 123.606 149.296 123.829C148.868 124.052 148.414 124.164 147.936 124.164C147.448 124.164 147.01 124.057 146.623 123.843C146.236 123.629 145.955 123.328 145.782 122.94C145.609 122.553 145.522 122.018 145.522 121.334V116.74H147.443V120.076C147.443 121.097 147.478 121.724 147.546 121.956C147.619 122.184 147.749 122.366 147.936 122.503C148.122 122.635 148.359 122.701 148.646 122.701C148.975 122.701 149.269 122.612 149.528 122.435C149.788 122.252 149.966 122.029 150.062 121.765C150.157 121.496 150.205 120.842 150.205 119.803V116.74H152.126V124H150.342ZM157.451 116.74V118.271H156.139V121.197C156.139 121.79 156.15 122.136 156.173 122.236C156.2 122.332 156.257 122.412 156.344 122.476C156.435 122.539 156.544 122.571 156.672 122.571C156.85 122.571 157.107 122.51 157.444 122.387L157.608 123.877C157.162 124.068 156.656 124.164 156.091 124.164C155.744 124.164 155.432 124.107 155.154 123.993C154.876 123.875 154.671 123.724 154.539 123.542C154.411 123.355 154.323 123.104 154.272 122.79C154.231 122.567 154.211 122.116 154.211 121.437V118.271H153.329V116.74H154.211V115.298L156.139 114.177V116.74H157.451ZM162.113 116.74V118.271H160.801V121.197C160.801 121.79 160.812 122.136 160.835 122.236C160.862 122.332 160.919 122.412 161.006 122.476C161.097 122.539 161.206 122.571 161.334 122.571C161.512 122.571 161.769 122.51 162.106 122.387L162.271 123.877C161.824 124.068 161.318 124.164 160.753 124.164C160.407 124.164 160.094 124.107 159.816 123.993C159.538 123.875 159.333 123.724 159.201 123.542C159.074 123.355 158.985 123.104 158.935 122.79C158.894 122.567 158.873 122.116 158.873 121.437V118.271H157.991V116.74H158.873V115.298L160.801 114.177V116.74H162.113ZM163.002 120.268C163.002 119.63 163.159 119.012 163.474 118.415C163.788 117.818 164.232 117.362 164.807 117.048C165.385 116.733 166.03 116.576 166.741 116.576C167.84 116.576 168.74 116.934 169.441 117.649C170.143 118.36 170.494 119.26 170.494 120.35C170.494 121.448 170.139 122.359 169.428 123.084C168.721 123.804 167.83 124.164 166.755 124.164C166.09 124.164 165.454 124.014 164.848 123.713C164.246 123.412 163.788 122.972 163.474 122.394C163.159 121.81 163.002 121.102 163.002 120.268ZM164.971 120.37C164.971 121.09 165.142 121.642 165.483 122.024C165.825 122.407 166.247 122.599 166.748 122.599C167.249 122.599 167.669 122.407 168.006 122.024C168.348 121.642 168.519 121.086 168.519 120.356C168.519 119.646 168.348 119.099 168.006 118.716C167.669 118.333 167.249 118.142 166.748 118.142C166.247 118.142 165.825 118.333 165.483 118.716C165.142 119.099 164.971 119.65 164.971 120.37ZM178.608 124H176.688V120.295C176.688 119.511 176.646 119.005 176.564 118.777C176.482 118.545 176.348 118.365 176.161 118.237C175.979 118.11 175.758 118.046 175.498 118.046C175.165 118.046 174.867 118.137 174.603 118.319C174.338 118.502 174.156 118.743 174.056 119.044C173.96 119.345 173.912 119.901 173.912 120.712V124H171.991V116.74H173.775V117.807C174.409 116.986 175.206 116.576 176.168 116.576C176.592 116.576 176.979 116.654 177.33 116.809C177.681 116.959 177.945 117.153 178.123 117.39C178.305 117.627 178.431 117.896 178.499 118.196C178.572 118.497 178.608 118.928 178.608 119.488V124Z" fill="#FEFEFE"/>
<path d="M198 114.333L202.667 119L198 123.667" stroke="#FEFEFE" stroke-width="2" stroke-linecap="round" stroke-linejoin="round"/>
</g>
<rect x="119.5" y="99.5" width="101" height="39" stroke="#0D69D4"/>
<g clip-path="url(#clip0_3725_659)">
<path d="M64.2929 51.2929C63.9024 51.6834 63.9024 52.3166 64.2929 52.7071L70.6569 59.0711C71.0474 59.4616 71.6805 59.4616 72.0711 59.0711C72.4616 58.6805 72.4616 58.0474 72.0711 57.6569L66.4142 52L72.0711 46.3431C72.4616 45.9526 72.4616 45.3195 72.0711 44.9289C71.6805 44.5384 71.0474 44.5384 70.6569 44.9289L64.2929 51.2929ZM95.7071 52.7071C96.0976 52.3166 96.0976 51.6834 95.7071 51.2929L89.3431 44.9289C88.9526 44.5384 88.3195 44.5384 87.9289 44.9289C87.5384 45.3195 87.5384 45.9526 87.9289 46.3431L93.5858 52L87.9289 57.6569C87.5384 58.0474 87.5384 58.6805 87.9289 59.0711C88.3195 59.4616 88.9526 59.4616 89.3431 59.0711L95.7071 52.7071ZM65 52V53H95V52V51H65V52Z" fill="#6B6B6B"/>
</g>
<path fill-rule="evenodd" clip-rule="evenodd" d="M64.0001 44L64 45L64.0001 49.024L64 50.024L64.0001 54.0185L64 55.0185L64.0001 59.014L64 60.014H65.0001H68.9891H69.9891H74.0113H75.0113H79H80V59.014V55.0185V54.0185V50.024V49.024V45V44H79H75.0113H74.0113H69.9891H68.9891H65.0001H64.0001ZM65.0001 45V49.024H68.9891V45H65.0001ZM65.0001 50.024V54.0185H68.9891V50.024H65.0001ZM65.0001 55.0185V59.014H68.9891V55.0185H65.0001ZM79 55.0185V59.014H75.0113V55.0185H79ZM79 50.024V54.0185H75.0113V50.024H79ZM79 45V49.024H75.0113V45H79ZM74.0113 45H69.9891V48.9915H74.0113V45ZM74.0113 55.0225H69.9891V59.014H74.0113V55.0225Z" fill="#6B6B6B"/>
<g clip-path="url(#clip1_3725_659)">
<g clip-path="url(#clip2_3725_659)">
<path d="M73.2803 90.2197C72.9874 89.9268 72.5126 89.9268 72.2197 90.2197L67.4467 94.9926C67.1538 95.2855 67.1538 95.7604 67.4467 96.0533C67.7396 96.3462 68.2145 96.3462 68.5074 96.0533L72.75 91.8107L76.9926 96.0533C77.2855 96.3462 77.7604 96.3462 78.0533 96.0533C78.3462 95.7604 78.3462 95.2855 78.0533 94.9926L73.2803 90.2197ZM72.2197 118.28C72.5126 118.573 72.9874 118.573 73.2803 118.28L78.0533 113.507C78.3462 113.214 78.3462 112.74 78.0533 112.447C77.7604 112.154 77.2855 112.154 76.9926 112.447L72.75 116.689L68.5074 112.447C68.2145 112.154 67.7396 112.154 67.4467 112.447C67.1538 112.74 67.1538 113.214 67.4467 113.507L72.2197 118.28ZM72.75 90.75H72V117.75H72.75H73.5V90.75H72.75Z" fill="#0D69D4"/>
<path d="M73.2803 119.72C72.9874 119.427 72.5126 119.427 72.2197 119.72L67.4467 124.493C67.1538 124.786 67.1538 125.26 67.4467 125.553C67.7396 125.846 68.2145 125.846 68.5074 125.553L72.75 121.311L76.9926 125.553C77.2855 125.846 77.7604 125.846 78.0533 125.553C78.3462 125.26 78.3462 124.786 78.0533 124.493L73.2803 119.72ZM72.2197 147.78C72.5126 148.073 72.9874 148.073 73.2803 147.78L78.0533 143.007C78.3462 142.714 78.3462 142.24 78.0533 141.947C77.7604 141.654 77.2855 141.654 76.9926 141.947L72.75 146.189L68.5074 141.947C68.2145 141.654 67.7396 141.654 67.4467 141.947C67.1538 142.24 67.1538 142.714 67.4467 143.007L72.2197 147.78ZM72.75 120.25H72V147.25H72.75H73.5V120.25H72.75Z" fill="#0D69D4"/>
</g>
</g>
<line x1="120.75" y1="51.75" x2="219.25" y2="51.75" stroke="#0D69D4" stroke-width="1.5" stroke-linecap="square"/>
<line x1="120.75" y1="46.75" x2="120.75" y2="57.25" stroke="#0D69D4" stroke-width="1.5" stroke-linecap="round"/>
<line x1="219.25" y1="57.25" x2="219.25" y2="46.75" stroke="#0D69D4" stroke-width="1.5" stroke-linecap="round"/>
<rect x="184" y="110" width="8" height="18" fill="#C54600" fill-opacity="0.3"/>
<line x1="184.5" y1="84" x2="184.5" y2="138" stroke="#C54600"/>
<line x1="191.5" y1="84" x2="191.5" y2="138" stroke="#C54600"/>
<rect x="181.5" y="66" width="13" height="14" rx="4" fill="#C54600"/>
<path d="M190.081 73.8838C190.081 74.36 189.97 74.7646 189.748 75.0977C189.529 75.4271 189.232 75.6777 188.856 75.8496C188.484 76.0215 188.063 76.1074 187.594 76.1074C187.125 76.1074 186.702 76.0215 186.326 75.8496C185.95 75.6777 185.653 75.4271 185.435 75.0977C185.216 74.7646 185.107 74.36 185.107 73.8838C185.107 73.5723 185.166 73.2876 185.284 73.0298C185.406 72.7684 185.576 72.541 185.794 72.3477C186.016 72.1543 186.278 72.0057 186.579 71.9019C186.883 71.7944 187.218 71.7407 187.583 71.7407C188.063 71.7407 188.491 71.8338 188.867 72.02C189.243 72.2026 189.538 72.4551 189.753 72.7773C189.971 73.0996 190.081 73.4684 190.081 73.8838ZM189.082 73.8623C189.082 73.5723 189.019 73.3162 188.894 73.0942C188.768 72.8687 188.593 72.6932 188.367 72.5679C188.142 72.4425 187.88 72.3799 187.583 72.3799C187.279 72.3799 187.015 72.4425 186.793 72.5679C186.575 72.6932 186.405 72.8687 186.283 73.0942C186.161 73.3162 186.101 73.5723 186.101 73.8623C186.101 74.1631 186.16 74.4209 186.278 74.6357C186.4 74.847 186.571 75.0099 186.793 75.1245C187.019 75.2355 187.286 75.291 187.594 75.291C187.902 75.291 188.167 75.2355 188.389 75.1245C188.611 75.0099 188.781 74.847 188.899 74.6357C189.021 74.4209 189.082 74.1631 189.082 73.8623ZM189.898 70.2153C189.898 70.5949 189.798 70.9368 189.597 71.2412C189.397 71.5456 189.123 71.7855 188.775 71.9609C188.428 72.1364 188.034 72.2241 187.594 72.2241C187.146 72.2241 186.747 72.1364 186.396 71.9609C186.049 71.7855 185.777 71.5456 185.58 71.2412C185.383 70.9368 185.284 70.5949 185.284 70.2153C185.284 69.7606 185.383 69.3739 185.58 69.0552C185.78 68.7365 186.054 68.493 186.401 68.3247C186.749 68.1564 187.144 68.0723 187.588 68.0723C188.036 68.0723 188.433 68.1564 188.781 68.3247C189.128 68.493 189.4 68.7365 189.597 69.0552C189.798 69.3739 189.898 69.7606 189.898 70.2153ZM188.904 70.2314C188.904 69.9701 188.849 69.7391 188.738 69.5386C188.627 69.3381 188.473 69.1805 188.276 69.0659C188.079 68.9478 187.85 68.8887 187.588 68.8887C187.327 68.8887 187.098 68.9442 186.901 69.0552C186.708 69.1626 186.555 69.3166 186.444 69.5171C186.337 69.7176 186.283 69.9557 186.283 70.2314C186.283 70.5 186.337 70.7345 186.444 70.9351C186.555 71.1356 186.709 71.2913 186.906 71.4023C187.103 71.5133 187.332 71.5688 187.594 71.5688C187.855 71.5688 188.083 71.5133 188.276 71.4023C188.473 71.2913 188.627 71.1356 188.738 70.9351C188.849 70.7345 188.904 70.5 188.904 70.2314Z" fill="white"/>
<path d="M136.146 91.1464C135.951 91.3417 135.951 91.6583 136.146 91.8536L139.328 95.0355C139.524 95.2308 139.84 95.2308 140.036 95.0355C140.231 94.8403 140.231 94.5237 140.036 94.3284L137.207 91.5L140.036 88.6716C140.231 88.4763 140.231 88.1597 140.036 87.9645C139.84 87.7692 139.524 87.7692 139.328 87.9645L136.146 91.1464ZM183.854 91.8536C184.049 91.6583 184.049 91.3417 183.854 91.1464L180.672 87.9645C180.476 87.7692 180.16 87.7692 179.964 87.9645C179.769 88.1597 179.769 88.4763 179.964 88.6716L182.793 91.5L179.964 94.3284C179.769 94.5237 179.769 94.8403 179.964 95.0355C180.16 95.2308 180.476 95.2308 180.672 95.0355L183.854 91.8536ZM136.5 91.5V92H183.5V91.5V91H136.5V91.5Z" fill="#0D69D4"/>
<rect x="136" y="110" width="48" height="18" fill="#0D69D4" fill-opacity="0.2"/>
<rect x="192" y="111" width="16" height="16" fill="#0D69D4" fill-opacity="0.2"/>
<rect x="120" y="100" width="100" height="10" fill="#007D00" fill-opacity="0.3"/>
<line x1="104" y1="100.5" x2="220" y2="100.5" stroke="#007D00"/>
<line x1="104" y1="109.5" x2="220" y2="109.5" stroke="#007D00"/>
<rect x="82.5" y="98" width="19" height="14" rx="4" fill="#007D00"/>
<path d="M89.4155 100.137V108H88.4219V101.377L86.4185 102.108V101.211L89.2598 100.137H89.4155ZM97.2466 103.467V104.659C97.2466 105.3 97.1893 105.841 97.0747 106.281C96.9601 106.722 96.7954 107.076 96.5806 107.345C96.3657 107.613 96.1061 107.808 95.8018 107.93C95.501 108.048 95.1608 108.107 94.7812 108.107C94.4805 108.107 94.203 108.07 93.9487 107.995C93.6945 107.919 93.4653 107.799 93.2612 107.635C93.0607 107.466 92.8888 107.248 92.7456 106.979C92.6024 106.711 92.4932 106.385 92.418 106.002C92.3428 105.619 92.3052 105.171 92.3052 104.659V103.467C92.3052 102.826 92.3625 102.289 92.4771 101.855C92.5952 101.422 92.7617 101.075 92.9766 100.813C93.1914 100.549 93.4492 100.359 93.75 100.244C94.0544 100.13 94.3945 100.072 94.7705 100.072C95.0749 100.072 95.3542 100.11 95.6084 100.185C95.8662 100.257 96.0954 100.373 96.2959 100.534C96.4964 100.692 96.6665 100.903 96.8062 101.168C96.9494 101.429 97.0586 101.75 97.1338 102.129C97.209 102.509 97.2466 102.955 97.2466 103.467ZM96.2476 104.82V103.3C96.2476 102.949 96.2261 102.641 96.1831 102.376C96.1437 102.108 96.0846 101.879 96.0059 101.689C95.9271 101.499 95.8268 101.345 95.7051 101.227C95.5869 101.109 95.4491 101.023 95.2915 100.969C95.1375 100.912 94.9639 100.883 94.7705 100.883C94.5342 100.883 94.3247 100.928 94.1421 101.018C93.9595 101.104 93.8055 101.241 93.6802 101.431C93.5584 101.621 93.4653 101.87 93.4009 102.178C93.3364 102.486 93.3042 102.86 93.3042 103.3V104.82C93.3042 105.171 93.3239 105.481 93.3633 105.75C93.4062 106.018 93.4689 106.251 93.5513 106.448C93.6336 106.641 93.7339 106.8 93.8521 106.926C93.9702 107.051 94.1063 107.144 94.2603 107.205C94.4178 107.262 94.5915 107.291 94.7812 107.291C95.0247 107.291 95.2378 107.244 95.4204 107.151C95.603 107.058 95.7552 106.913 95.877 106.716C96.0023 106.516 96.0954 106.26 96.1562 105.948C96.2171 105.633 96.2476 105.257 96.2476 104.82Z" fill="white"/>
<rect x="120" y="128" width="100" height="10" fill="#007D00" fill-opacity="0.3"/>
<line x1="104" y1="128.5" x2="220" y2="128.5" stroke="#007D00"/>
<line x1="104" y1="137.5" x2="220" y2="137.5" stroke="#007D00"/>
<rect x="82.5" y="126" width="19" height="14" rx="4" fill="#007D00"/>
<path d="M89.4155 128.137V136H88.4219V129.377L86.4185 130.108V129.211L89.2598 128.137H89.4155ZM97.2466 131.467V132.659C97.2466 133.3 97.1893 133.841 97.0747 134.281C96.9601 134.722 96.7954 135.076 96.5806 135.345C96.3657 135.613 96.1061 135.808 95.8018 135.93C95.501 136.048 95.1608 136.107 94.7812 136.107C94.4805 136.107 94.203 136.07 93.9487 135.995C93.6945 135.919 93.4653 135.799 93.2612 135.635C93.0607 135.466 92.8888 135.248 92.7456 134.979C92.6024 134.711 92.4932 134.385 92.418 134.002C92.3428 133.619 92.3052 133.171 92.3052 132.659V131.467C92.3052 130.826 92.3625 130.289 92.4771 129.855C92.5952 129.422 92.7617 129.075 92.9766 128.813C93.1914 128.549 93.4492 128.359 93.75 128.244C94.0544 128.13 94.3945 128.072 94.7705 128.072C95.0749 128.072 95.3542 128.11 95.6084 128.185C95.8662 128.257 96.0954 128.373 96.2959 128.534C96.4964 128.692 96.6665 128.903 96.8062 129.168C96.9494 129.429 97.0586 129.75 97.1338 130.129C97.209 130.509 97.2466 130.955 97.2466 131.467ZM96.2476 132.82V131.3C96.2476 130.949 96.2261 130.641 96.1831 130.376C96.1437 130.108 96.0846 129.879 96.0059 129.689C95.9271 129.499 95.8268 129.345 95.7051 129.227C95.5869 129.109 95.4491 129.023 95.2915 128.969C95.1375 128.912 94.9639 128.883 94.7705 128.883C94.5342 128.883 94.3247 128.928 94.1421 129.018C93.9595 129.104 93.8055 129.241 93.6802 129.431C93.5584 129.621 93.4653 129.87 93.4009 130.178C93.3364 130.486 93.3042 130.86 93.3042 131.3V132.82C93.3042 133.171 93.3239 133.481 93.3633 133.75C93.4062 134.018 93.4689 134.251 93.5513 134.448C93.6336 134.641 93.7339 134.8 93.8521 134.926C93.9702 135.051 94.1063 135.144 94.2603 135.205C94.4178 135.262 94.5915 135.291 94.7812 135.291C95.0247 135.291 95.2378 135.244 95.4204 135.151C95.603 135.058 95.7552 134.913 95.877 134.716C96.0023 134.516 96.0954 134.26 96.1562 133.948C96.2171 133.633 96.2476 133.257 96.2476 132.82Z" fill="white"/>
<rect x="120" y="110" width="16" height="18" fill="#007D00" fill-opacity="0.3"/>
<line x1="120.5" y1="84" x2="120.5" y2="138" stroke="#007D00"/>
<line x1="135.5" y1="84" x2="135.5" y2="138" stroke="#007D00"/>
<rect x="118.5" y="66" width="19" height="14" rx="4" fill="#007D00"/>
<path d="M125.416 68.1367V76H124.422V69.3774L122.418 70.1079V69.2109L125.26 68.1367H125.416ZM132.151 68.1689H132.237V69.0122H132.151C131.625 69.0122 131.184 69.0981 130.83 69.27C130.475 69.4383 130.194 69.6657 129.986 69.9521C129.779 70.235 129.628 70.5537 129.535 70.9082C129.446 71.2627 129.401 71.6226 129.401 71.9878V73.1372C129.401 73.4845 129.442 73.7925 129.524 74.061C129.607 74.326 129.72 74.5498 129.863 74.7324C130.006 74.915 130.167 75.0529 130.346 75.146C130.529 75.2391 130.719 75.2856 130.916 75.2856C131.145 75.2856 131.349 75.2427 131.528 75.1567C131.707 75.0672 131.857 74.9437 131.979 74.7861C132.104 74.625 132.199 74.4352 132.264 74.2168C132.328 73.9984 132.36 73.7585 132.36 73.4971C132.36 73.2643 132.332 73.0405 132.274 72.8257C132.217 72.6073 132.129 72.4139 132.011 72.2456C131.893 72.0737 131.744 71.9395 131.565 71.8428C131.39 71.7425 131.181 71.6924 130.937 71.6924C130.661 71.6924 130.403 71.7604 130.164 71.8965C129.927 72.029 129.732 72.2044 129.578 72.4229C129.428 72.6377 129.342 72.8722 129.32 73.1265L128.794 73.1211C128.844 72.7201 128.937 72.3781 129.073 72.0952C129.213 71.8088 129.385 71.576 129.589 71.397C129.797 71.2144 130.028 71.0819 130.282 70.9995C130.54 70.9136 130.812 70.8706 131.098 70.8706C131.488 70.8706 131.825 70.944 132.108 71.0908C132.391 71.2376 132.624 71.4346 132.806 71.6816C132.989 71.9251 133.123 72.2008 133.209 72.5088C133.299 72.8132 133.343 73.1265 133.343 73.4487C133.343 73.8175 133.291 74.1631 133.188 74.4854C133.084 74.8076 132.928 75.0905 132.72 75.334C132.516 75.5775 132.264 75.7673 131.963 75.9033C131.662 76.0394 131.313 76.1074 130.916 76.1074C130.493 76.1074 130.124 76.0215 129.809 75.8496C129.494 75.6742 129.233 75.4414 129.025 75.1514C128.817 74.8613 128.661 74.5391 128.558 74.1846C128.454 73.8301 128.402 73.4702 128.402 73.105V72.6377C128.402 72.0863 128.457 71.5456 128.568 71.0156C128.679 70.4857 128.871 70.0059 129.143 69.5762C129.419 69.1465 129.8 68.8045 130.287 68.5503C130.774 68.2961 131.395 68.1689 132.151 68.1689Z" fill="white"/>
<rect x="208" y="110" width="12" height="18" fill="#007D00" fill-opacity="0.3"/>
<line x1="208.5" y1="84" x2="208.5" y2="138" stroke="#007D00"/>
<line x1="219.5" y1="84" x2="219.5" y2="138" stroke="#007D00"/>
<rect x="204.5" y="66" width="19" height="14" rx="4" fill="#007D00"/>
<path d="M211.416 68.1367V76H210.422V69.3774L208.418 70.1079V69.2109L211.26 68.1367H211.416ZM219.461 75.1836V76H214.343V75.2856L216.905 72.4336C217.22 72.0827 217.463 71.7855 217.635 71.542C217.811 71.2949 217.932 71.0747 218 70.8813C218.072 70.6844 218.108 70.4839 218.108 70.2798C218.108 70.022 218.054 69.7892 217.947 69.5815C217.843 69.3703 217.689 69.202 217.485 69.0767C217.281 68.9513 217.034 68.8887 216.744 68.8887C216.396 68.8887 216.106 68.9567 215.874 69.0928C215.644 69.2253 215.472 69.4115 215.358 69.6514C215.243 69.8913 215.186 70.167 215.186 70.4785H214.192C214.192 70.0381 214.289 69.6353 214.482 69.27C214.676 68.9048 214.962 68.6147 215.342 68.3999C215.721 68.1815 216.189 68.0723 216.744 68.0723C217.238 68.0723 217.66 68.16 218.011 68.3354C218.362 68.5073 218.631 68.7508 218.817 69.0659C219.007 69.3774 219.102 69.7427 219.102 70.1616C219.102 70.3908 219.062 70.6235 218.983 70.8599C218.908 71.0926 218.803 71.3254 218.667 71.5581C218.534 71.7909 218.378 72.02 218.199 72.2456C218.024 72.4712 217.836 72.6932 217.635 72.9116L215.541 75.1836H219.461Z" fill="white"/>
<defs>
<clipPath id="clip0_3725_659">
<rect width="16" height="16" fill="white" transform="translate(80 44)"/>
</clipPath>
<clipPath id="clip1_3725_659">
<rect width="38" height="16" fill="white" transform="matrix(0 1 -1 0 80 100)"/>
</clipPath>
<clipPath id="clip2_3725_659">
<rect width="58" height="16" fill="white" transform="matrix(0 1 -1 0 80 90)"/>
</clipPath>
</defs>
</svg>
