<svg width="24" height="24" viewBox="0 0 24 24" fill="none" xmlns="http://www.w3.org/2000/svg">
<mask id="mask0_2984_4117" style="mask-type:luminance" maskUnits="userSpaceOnUse" x="0" y="0" width="24" height="24">
<path d="M24 0H0V24H24V0Z" fill="white"/>
</mask>
<g mask="url(#mask0_2984_4117)">
<path d="M16.8502 0H7.14973C3.20735 0 0 3.20735 0 7.14973V16.8503C0 20.7926 3.20735 24 7.14973 24H16.8502C20.7926 24 24 20.7926 24 16.8503V7.14973C23.9999 3.20735 20.7926 0 16.8502 0ZM21.5856 16.8503C21.5856 19.4655 19.4655 21.5856 16.8502 21.5856H7.14973C4.5345 21.5856 2.4144 19.4655 2.4144 16.8503V7.14973C2.4144 4.53446 4.5345 2.4144 7.14973 2.4144H16.8502C19.4655 2.4144 21.5856 4.53446 21.5856 7.14973V16.8503Z" fill="#00142E"/>
<path d="M16.8502 0H7.14973C3.20735 0 0 3.20735 0 7.14973V16.8503C0 20.7926 3.20735 24 7.14973 24H16.8502C20.7926 24 24 20.7926 24 16.8503V7.14973C23.9999 3.20735 20.7926 0 16.8502 0ZM21.5856 16.8503C21.5856 19.4655 19.4655 21.5856 16.8502 21.5856H7.14973C4.5345 21.5856 2.4144 19.4655 2.4144 16.8503V7.14973C2.4144 4.53446 4.5345 2.4144 7.14973 2.4144H16.8502C19.4655 2.4144 21.5856 4.53446 21.5856 7.14973V16.8503Z" fill="black" fill-opacity="0.2"/>
<path d="M12.0002 5.79297C8.57754 5.79297 5.79297 8.57754 5.79297 12.0002C5.79297 15.4228 8.57754 18.2074 12.0002 18.2074C15.4229 18.2074 18.2074 15.4229 18.2074 12.0002C18.2074 8.57749 15.4229 5.79297 12.0002 5.79297ZM12.0002 15.7931C9.90545 15.7931 8.20737 14.095 8.20737 12.0002C8.20737 9.90547 9.90555 8.20737 12.0002 8.20737C14.0949 8.20737 15.793 9.90547 15.793 12.0002C15.793 14.0949 14.0949 15.7931 12.0002 15.7931Z" fill="#00142E"/>
<path d="M12.0002 5.79297C8.57754 5.79297 5.79297 8.57754 5.79297 12.0002C5.79297 15.4228 8.57754 18.2074 12.0002 18.2074C15.4229 18.2074 18.2074 15.4229 18.2074 12.0002C18.2074 8.57749 15.4229 5.79297 12.0002 5.79297ZM12.0002 15.7931C9.90545 15.7931 8.20737 14.095 8.20737 12.0002C8.20737 9.90547 9.90555 8.20737 12.0002 8.20737C14.0949 8.20737 15.793 9.90547 15.793 12.0002C15.793 14.0949 14.0949 15.7931 12.0002 15.7931Z" fill="black" fill-opacity="0.2"/>
<path d="M18.2197 7.32673C19.0412 7.32673 19.7071 6.66083 19.7071 5.83939C19.7071 5.01796 19.0412 4.35205 18.2197 4.35205C17.3983 4.35205 16.7324 5.01796 16.7324 5.83939C16.7324 6.66083 17.3983 7.32673 18.2197 7.32673Z" fill="#00142E"/>
<path d="M18.2197 7.32673C19.0412 7.32673 19.7071 6.66083 19.7071 5.83939C19.7071 5.01796 19.0412 4.35205 18.2197 4.35205C17.3983 4.35205 16.7324 5.01796 16.7324 5.83939C16.7324 6.66083 17.3983 7.32673 18.2197 7.32673Z" fill="black" fill-opacity="0.2"/>
</g>
</svg>
