<svg width="24" height="24" viewBox="0 0 24 24" fill="none" xmlns="http://www.w3.org/2000/svg">
<mask id="mask0_2984_4108" style="mask-type:luminance" maskUnits="userSpaceOnUse" x="0" y="0" width="24" height="24">
<path d="M24 0H0V24H24V0Z" fill="white"/>
</mask>
<g mask="url(#mask0_2984_4108)">
<path d="M14.469 10.1571L23.2069 0H21.1363L13.5491 8.81931L7.4893 0H0.5L9.66366 13.3364L0.5 23.9877H2.57073L10.583 14.6742L16.9826 23.9877H23.9719L14.469 10.1571ZM11.6328 13.4538L10.7043 12.1258L3.31684 1.55881H6.49736L12.4592 10.0867L13.3876 11.4147L21.1373 22.4998H17.9567L11.6328 13.4538Z" fill="#00142E"/>
<path d="M14.469 10.1571L23.2069 0H21.1363L13.5491 8.81931L7.4893 0H0.5L9.66366 13.3364L0.5 23.9877H2.57073L10.583 14.6742L16.9826 23.9877H23.9719L14.469 10.1571ZM11.6328 13.4538L10.7043 12.1258L3.31684 1.55881H6.49736L12.4592 10.0867L13.3876 11.4147L21.1373 22.4998H17.9567L11.6328 13.4538Z" fill="black" fill-opacity="0.2"/>
</g>
</svg>
