<svg width="24" height="17" viewBox="0 0 24 17" fill="none" xmlns="http://www.w3.org/2000/svg">
<path d="M19.0155 0H4.98448C2.23163 0 0 2.23386 0 4.98948V12.0105C0 14.7661 2.23163 17 4.98448 17H19.0155C21.7684 17 24 14.7661 24 12.0105V4.98948C24 2.23386 21.7684 0 19.0155 0ZM15.6445 8.84163L9.08172 11.9748C8.90687 12.0582 8.70491 11.9306 8.70491 11.7367V5.27453C8.70491 5.07786 8.91217 4.95039 9.08745 5.0393L15.6502 8.36832C15.8453 8.46727 15.8419 8.74735 15.6445 8.84163Z" fill="#00142E"/>
<path d="M19.0155 0H4.98448C2.23163 0 0 2.23386 0 4.98948V12.0105C0 14.7661 2.23163 17 4.98448 17H19.0155C21.7684 17 24 14.7661 24 12.0105V4.98948C24 2.23386 21.7684 0 19.0155 0ZM15.6445 8.84163L9.08172 11.9748C8.90687 12.0582 8.70491 11.9306 8.70491 11.7367V5.27453C8.70491 5.07786 8.91217 4.95039 9.08745 5.0393L15.6502 8.36832C15.8453 8.46727 15.8419 8.74735 15.6445 8.84163Z" fill="black" fill-opacity="0.2"/>
</svg>
